G04 #@! TF.GenerationSoftware,KiCad,Pcbnew,5.1.5+dfsg1-2build2*
G04 #@! TF.CreationDate,2022-01-30T22:27:44+01:00*
G04 #@! TF.ProjectId,Light_Ring_PCB,4c696768-745f-4526-996e-675f5043422e,rev?*
G04 #@! TF.SameCoordinates,Original*
G04 #@! TF.FileFunction,Legend,Bot*
G04 #@! TF.FilePolarity,Positive*
%FSLAX46Y46*%
G04 Gerber Fmt 4.6, Leading zero omitted, Abs format (unit mm)*
G04 Created by KiCad (PCBNEW 5.1.5+dfsg1-2build2) date 2022-01-30 22:27:44*
%MOMM*%
%LPD*%
G04 APERTURE LIST*
%ADD10C,0.150000*%
%ADD11C,0.300000*%
%ADD12C,0.200000*%
%ADD13C,0.120000*%
%ADD14C,0.100000*%
%ADD15O,1.752000X1.302000*%
%ADD16R,1.002000X0.902000*%
G04 APERTURE END LIST*
D10*
X212819323Y-76451514D02*
X212902656Y-77118180D01*
X212831227Y-76546752D02*
X212777656Y-76499133D01*
X212676466Y-76451514D01*
X212533608Y-76451514D01*
X212444323Y-76499133D01*
X212408608Y-76594371D01*
X212474085Y-77118180D01*
X211997894Y-77118180D02*
X211914561Y-76451514D01*
X211872894Y-76118180D02*
X211926466Y-76165800D01*
X211884799Y-76213419D01*
X211831227Y-76165800D01*
X211872894Y-76118180D01*
X211884799Y-76213419D01*
X211134799Y-77070561D02*
X211235989Y-77118180D01*
X211426466Y-77118180D01*
X211515751Y-77070561D01*
X211551466Y-76975323D01*
X211503847Y-76594371D01*
X211444323Y-76499133D01*
X211343132Y-76451514D01*
X211152656Y-76451514D01*
X211063370Y-76499133D01*
X211027656Y-76594371D01*
X211039561Y-76689609D01*
X211527656Y-76784847D01*
X210724085Y-76451514D02*
X210343132Y-76451514D01*
X210539561Y-76118180D02*
X210646704Y-76975323D01*
X210610989Y-77070561D01*
X210521704Y-77118180D01*
X210426466Y-77118180D01*
X208902656Y-77118180D02*
X208837180Y-76594371D01*
X208872894Y-76499133D01*
X208962180Y-76451514D01*
X209152656Y-76451514D01*
X209253847Y-76499133D01*
X208896704Y-77070561D02*
X208997894Y-77118180D01*
X209235989Y-77118180D01*
X209325275Y-77070561D01*
X209360989Y-76975323D01*
X209349085Y-76880085D01*
X209289561Y-76784847D01*
X209188370Y-76737228D01*
X208950275Y-76737228D01*
X208849085Y-76689609D01*
X207997894Y-77118180D02*
X207932418Y-76594371D01*
X207968132Y-76499133D01*
X208057418Y-76451514D01*
X208247894Y-76451514D01*
X208349085Y-76499133D01*
X207991942Y-77070561D02*
X208093132Y-77118180D01*
X208331227Y-77118180D01*
X208420513Y-77070561D01*
X208456227Y-76975323D01*
X208444323Y-76880085D01*
X208384799Y-76784847D01*
X208283608Y-76737228D01*
X208045513Y-76737228D01*
X207944323Y-76689609D01*
X207438370Y-76451514D02*
X207521704Y-77118180D01*
X207450275Y-76546752D02*
X207396704Y-76499133D01*
X207295513Y-76451514D01*
X207152656Y-76451514D01*
X207063370Y-76499133D01*
X207027656Y-76594371D01*
X207093132Y-77118180D01*
X205712180Y-77118180D02*
X205801466Y-77070561D01*
X205837180Y-76975323D01*
X205730037Y-76118180D01*
X205331227Y-77118180D02*
X205247894Y-76451514D01*
X205206227Y-76118180D02*
X205259799Y-76165800D01*
X205218132Y-76213419D01*
X205164561Y-76165800D01*
X205206227Y-76118180D01*
X205218132Y-76213419D01*
X204855037Y-77118180D02*
X204730037Y-76118180D01*
X204712180Y-76737228D02*
X204474085Y-77118180D01*
X204390751Y-76451514D02*
X204819323Y-76832466D01*
X204045513Y-77118180D02*
X203920513Y-76118180D01*
X203902656Y-76737228D02*
X203664561Y-77118180D01*
X203581227Y-76451514D02*
X204009799Y-76832466D01*
X202849085Y-77070561D02*
X202950275Y-77118180D01*
X203140751Y-77118180D01*
X203230037Y-77070561D01*
X203265751Y-76975323D01*
X203218132Y-76594371D01*
X203158608Y-76499133D01*
X203057418Y-76451514D01*
X202866942Y-76451514D01*
X202777656Y-76499133D01*
X202741942Y-76594371D01*
X202753847Y-76689609D01*
X203241942Y-76784847D01*
X202295513Y-76451514D02*
X202378847Y-77118180D01*
X202307418Y-76546752D02*
X202253847Y-76499133D01*
X202152656Y-76451514D01*
X202009799Y-76451514D01*
X201920513Y-76499133D01*
X201884799Y-76594371D01*
X201950275Y-77118180D01*
X200283608Y-77118180D02*
X200218132Y-76594371D01*
X200253847Y-76499133D01*
X200343132Y-76451514D01*
X200533608Y-76451514D01*
X200634799Y-76499133D01*
X200277656Y-77070561D02*
X200378847Y-77118180D01*
X200616942Y-77118180D01*
X200706227Y-77070561D01*
X200741942Y-76975323D01*
X200730037Y-76880085D01*
X200670513Y-76784847D01*
X200569323Y-76737228D01*
X200331227Y-76737228D01*
X200230037Y-76689609D01*
X199795513Y-77022942D02*
X199753847Y-77070561D01*
X199807418Y-77118180D01*
X199849085Y-77070561D01*
X199795513Y-77022942D01*
X199807418Y-77118180D01*
X198819323Y-76451514D02*
X198902656Y-77118180D01*
X199247894Y-76451514D02*
X199313370Y-76975323D01*
X199277656Y-77070561D01*
X199188370Y-77118180D01*
X199045513Y-77118180D01*
X198944323Y-77070561D01*
X198890751Y-77022942D01*
X198414561Y-77022942D02*
X198372894Y-77070561D01*
X198426466Y-77118180D01*
X198468132Y-77070561D01*
X198414561Y-77022942D01*
X198426466Y-77118180D01*
X197950275Y-77118180D02*
X197825275Y-76118180D01*
X197872894Y-76499133D02*
X197771704Y-76451514D01*
X197581227Y-76451514D01*
X197491942Y-76499133D01*
X197450275Y-76546752D01*
X197414561Y-76641990D01*
X197450275Y-76927704D01*
X197509799Y-77022942D01*
X197563370Y-77070561D01*
X197664561Y-77118180D01*
X197855037Y-77118180D01*
X197944323Y-77070561D01*
X197033608Y-77022942D02*
X196991942Y-77070561D01*
X197045513Y-77118180D01*
X197087180Y-77070561D01*
X197033608Y-77022942D01*
X197045513Y-77118180D01*
D11*
X220080385Y-171917800D02*
X220223242Y-171846371D01*
X220437528Y-171846371D01*
X220651814Y-171917800D01*
X220794671Y-172060657D01*
X220866100Y-172203514D01*
X220937528Y-172489228D01*
X220937528Y-172703514D01*
X220866100Y-172989228D01*
X220794671Y-173132085D01*
X220651814Y-173274942D01*
X220437528Y-173346371D01*
X220294671Y-173346371D01*
X220080385Y-173274942D01*
X220008957Y-173203514D01*
X220008957Y-172703514D01*
X220294671Y-172703514D01*
X219151814Y-173346371D02*
X219294671Y-173274942D01*
X219366100Y-173203514D01*
X219437528Y-173060657D01*
X219437528Y-172632085D01*
X219366100Y-172489228D01*
X219294671Y-172417800D01*
X219151814Y-172346371D01*
X218937528Y-172346371D01*
X218794671Y-172417800D01*
X218723242Y-172489228D01*
X218651814Y-172632085D01*
X218651814Y-173060657D01*
X218723242Y-173203514D01*
X218794671Y-173274942D01*
X218937528Y-173346371D01*
X219151814Y-173346371D01*
X217366100Y-173346371D02*
X217366100Y-172560657D01*
X217437528Y-172417800D01*
X217580385Y-172346371D01*
X217866100Y-172346371D01*
X218008957Y-172417800D01*
X217366100Y-173274942D02*
X217508957Y-173346371D01*
X217866100Y-173346371D01*
X218008957Y-173274942D01*
X218080385Y-173132085D01*
X218080385Y-172989228D01*
X218008957Y-172846371D01*
X217866100Y-172774942D01*
X217508957Y-172774942D01*
X217366100Y-172703514D01*
X216437528Y-173346371D02*
X216580385Y-173274942D01*
X216651814Y-173132085D01*
X216651814Y-171846371D01*
X216008957Y-172346371D02*
X215651814Y-173346371D01*
X215294671Y-172346371D02*
X215651814Y-173346371D01*
X215794671Y-173703514D01*
X215866100Y-173774942D01*
X216008957Y-173846371D01*
X212866100Y-173346371D02*
X213580385Y-173346371D01*
X213580385Y-171846371D01*
X212366100Y-173346371D02*
X212366100Y-172346371D01*
X212366100Y-171846371D02*
X212437528Y-171917800D01*
X212366100Y-171989228D01*
X212294671Y-171917800D01*
X212366100Y-171846371D01*
X212366100Y-171989228D01*
X211008957Y-172346371D02*
X211008957Y-173560657D01*
X211080385Y-173703514D01*
X211151814Y-173774942D01*
X211294671Y-173846371D01*
X211508957Y-173846371D01*
X211651814Y-173774942D01*
X211008957Y-173274942D02*
X211151814Y-173346371D01*
X211437528Y-173346371D01*
X211580385Y-173274942D01*
X211651814Y-173203514D01*
X211723242Y-173060657D01*
X211723242Y-172632085D01*
X211651814Y-172489228D01*
X211580385Y-172417800D01*
X211437528Y-172346371D01*
X211151814Y-172346371D01*
X211008957Y-172417800D01*
X210294671Y-173346371D02*
X210294671Y-171846371D01*
X209651814Y-173346371D02*
X209651814Y-172560657D01*
X209723242Y-172417800D01*
X209866100Y-172346371D01*
X210080385Y-172346371D01*
X210223242Y-172417800D01*
X210294671Y-172489228D01*
X209151814Y-172346371D02*
X208580385Y-172346371D01*
X208937528Y-171846371D02*
X208937528Y-173132085D01*
X208866100Y-173274942D01*
X208723242Y-173346371D01*
X208580385Y-173346371D01*
X206080385Y-173346371D02*
X206580385Y-172632085D01*
X206937528Y-173346371D02*
X206937528Y-171846371D01*
X206366100Y-171846371D01*
X206223242Y-171917800D01*
X206151814Y-171989228D01*
X206080385Y-172132085D01*
X206080385Y-172346371D01*
X206151814Y-172489228D01*
X206223242Y-172560657D01*
X206366100Y-172632085D01*
X206937528Y-172632085D01*
X205437528Y-173346371D02*
X205437528Y-172346371D01*
X205437528Y-171846371D02*
X205508957Y-171917800D01*
X205437528Y-171989228D01*
X205366100Y-171917800D01*
X205437528Y-171846371D01*
X205437528Y-171989228D01*
X204723242Y-172346371D02*
X204723242Y-173346371D01*
X204723242Y-172489228D02*
X204651814Y-172417800D01*
X204508957Y-172346371D01*
X204294671Y-172346371D01*
X204151814Y-172417800D01*
X204080385Y-172560657D01*
X204080385Y-173346371D01*
X202723242Y-172346371D02*
X202723242Y-173560657D01*
X202794671Y-173703514D01*
X202866100Y-173774942D01*
X203008957Y-173846371D01*
X203223242Y-173846371D01*
X203366100Y-173774942D01*
X202723242Y-173274942D02*
X202866100Y-173346371D01*
X203151814Y-173346371D01*
X203294671Y-173274942D01*
X203366100Y-173203514D01*
X203437528Y-173060657D01*
X203437528Y-172632085D01*
X203366100Y-172489228D01*
X203294671Y-172417800D01*
X203151814Y-172346371D01*
X202866100Y-172346371D01*
X202723242Y-172417800D01*
X200866100Y-173346371D02*
X200866100Y-171846371D01*
X200366100Y-172917800D01*
X199866100Y-171846371D01*
X199866100Y-173346371D01*
X198937528Y-173346371D02*
X199080385Y-173274942D01*
X199151814Y-173203514D01*
X199223242Y-173060657D01*
X199223242Y-172632085D01*
X199151814Y-172489228D01*
X199080385Y-172417800D01*
X198937528Y-172346371D01*
X198723242Y-172346371D01*
X198580385Y-172417800D01*
X198508957Y-172489228D01*
X198437528Y-172632085D01*
X198437528Y-173060657D01*
X198508957Y-173203514D01*
X198580385Y-173274942D01*
X198723242Y-173346371D01*
X198937528Y-173346371D01*
X197151814Y-173346371D02*
X197151814Y-171846371D01*
X197151814Y-173274942D02*
X197294671Y-173346371D01*
X197580385Y-173346371D01*
X197723242Y-173274942D01*
X197794671Y-173203514D01*
X197866100Y-173060657D01*
X197866100Y-172632085D01*
X197794671Y-172489228D01*
X197723242Y-172417800D01*
X197580385Y-172346371D01*
X197294671Y-172346371D01*
X197151814Y-172417800D01*
X195794671Y-172346371D02*
X195794671Y-173346371D01*
X196437528Y-172346371D02*
X196437528Y-173132085D01*
X196366100Y-173274942D01*
X196223242Y-173346371D01*
X196008957Y-173346371D01*
X195866100Y-173274942D01*
X195794671Y-173203514D01*
X194866100Y-173346371D02*
X195008957Y-173274942D01*
X195080385Y-173132085D01*
X195080385Y-171846371D01*
X193723242Y-173274942D02*
X193866100Y-173346371D01*
X194151814Y-173346371D01*
X194294671Y-173274942D01*
X194366100Y-173132085D01*
X194366100Y-172560657D01*
X194294671Y-172417800D01*
X194151814Y-172346371D01*
X193866100Y-172346371D01*
X193723242Y-172417800D01*
X193651814Y-172560657D01*
X193651814Y-172703514D01*
X194366100Y-172846371D01*
X192008957Y-172346371D02*
X191651814Y-173346371D01*
X191294671Y-172346371D01*
X189937528Y-173346371D02*
X190794671Y-173346371D01*
X190366100Y-173346371D02*
X190366100Y-171846371D01*
X190508957Y-172060657D01*
X190651814Y-172203514D01*
X190794671Y-172274942D01*
X189294671Y-173203514D02*
X189223242Y-173274942D01*
X189294671Y-173346371D01*
X189366100Y-173274942D01*
X189294671Y-173203514D01*
X189294671Y-173346371D01*
X188651814Y-171989228D02*
X188580385Y-171917800D01*
X188437528Y-171846371D01*
X188080385Y-171846371D01*
X187937528Y-171917800D01*
X187866100Y-171989228D01*
X187794671Y-172132085D01*
X187794671Y-172274942D01*
X187866100Y-172489228D01*
X188723242Y-173346371D01*
X187794671Y-173346371D01*
X225223242Y-175896371D02*
X225223242Y-174396371D01*
X224866100Y-174396371D01*
X224651814Y-174467800D01*
X224508957Y-174610657D01*
X224437528Y-174753514D01*
X224366100Y-175039228D01*
X224366100Y-175253514D01*
X224437528Y-175539228D01*
X224508957Y-175682085D01*
X224651814Y-175824942D01*
X224866100Y-175896371D01*
X225223242Y-175896371D01*
X223151814Y-175824942D02*
X223294671Y-175896371D01*
X223580385Y-175896371D01*
X223723242Y-175824942D01*
X223794671Y-175682085D01*
X223794671Y-175110657D01*
X223723242Y-174967800D01*
X223580385Y-174896371D01*
X223294671Y-174896371D01*
X223151814Y-174967800D01*
X223080385Y-175110657D01*
X223080385Y-175253514D01*
X223794671Y-175396371D01*
X222508957Y-175824942D02*
X222366100Y-175896371D01*
X222080385Y-175896371D01*
X221937528Y-175824942D01*
X221866100Y-175682085D01*
X221866100Y-175610657D01*
X221937528Y-175467800D01*
X222080385Y-175396371D01*
X222294671Y-175396371D01*
X222437528Y-175324942D01*
X222508957Y-175182085D01*
X222508957Y-175110657D01*
X222437528Y-174967800D01*
X222294671Y-174896371D01*
X222080385Y-174896371D01*
X221937528Y-174967800D01*
X221223242Y-175896371D02*
X221223242Y-174896371D01*
X221223242Y-174396371D02*
X221294671Y-174467800D01*
X221223242Y-174539228D01*
X221151814Y-174467800D01*
X221223242Y-174396371D01*
X221223242Y-174539228D01*
X219866100Y-174896371D02*
X219866100Y-176110657D01*
X219937528Y-176253514D01*
X220008957Y-176324942D01*
X220151814Y-176396371D01*
X220366100Y-176396371D01*
X220508957Y-176324942D01*
X219866100Y-175824942D02*
X220008957Y-175896371D01*
X220294671Y-175896371D01*
X220437528Y-175824942D01*
X220508957Y-175753514D01*
X220580385Y-175610657D01*
X220580385Y-175182085D01*
X220508957Y-175039228D01*
X220437528Y-174967800D01*
X220294671Y-174896371D01*
X220008957Y-174896371D01*
X219866100Y-174967800D01*
X219151814Y-174896371D02*
X219151814Y-175896371D01*
X219151814Y-175039228D02*
X219080385Y-174967800D01*
X218937528Y-174896371D01*
X218723242Y-174896371D01*
X218580385Y-174967800D01*
X218508957Y-175110657D01*
X218508957Y-175896371D01*
X217223242Y-175824942D02*
X217366100Y-175896371D01*
X217651814Y-175896371D01*
X217794671Y-175824942D01*
X217866100Y-175682085D01*
X217866100Y-175110657D01*
X217794671Y-174967800D01*
X217651814Y-174896371D01*
X217366100Y-174896371D01*
X217223242Y-174967800D01*
X217151814Y-175110657D01*
X217151814Y-175253514D01*
X217866100Y-175396371D01*
X215866100Y-175896371D02*
X215866100Y-174396371D01*
X215866100Y-175824942D02*
X216008957Y-175896371D01*
X216294671Y-175896371D01*
X216437528Y-175824942D01*
X216508957Y-175753514D01*
X216580385Y-175610657D01*
X216580385Y-175182085D01*
X216508957Y-175039228D01*
X216437528Y-174967800D01*
X216294671Y-174896371D01*
X216008957Y-174896371D01*
X215866100Y-174967800D01*
X214008957Y-175896371D02*
X214008957Y-174396371D01*
X214008957Y-174967800D02*
X213866100Y-174896371D01*
X213580385Y-174896371D01*
X213437528Y-174967800D01*
X213366100Y-175039228D01*
X213294671Y-175182085D01*
X213294671Y-175610657D01*
X213366100Y-175753514D01*
X213437528Y-175824942D01*
X213580385Y-175896371D01*
X213866100Y-175896371D01*
X214008957Y-175824942D01*
X212794671Y-174896371D02*
X212437528Y-175896371D01*
X212080385Y-174896371D02*
X212437528Y-175896371D01*
X212580385Y-176253514D01*
X212651814Y-176324942D01*
X212794671Y-176396371D01*
X210366100Y-175896371D02*
X210366100Y-174396371D01*
X209794671Y-174396371D01*
X209651814Y-174467800D01*
X209580385Y-174539228D01*
X209508957Y-174682085D01*
X209508957Y-174896371D01*
X209580385Y-175039228D01*
X209651814Y-175110657D01*
X209794671Y-175182085D01*
X210366100Y-175182085D01*
X208866100Y-175896371D02*
X208866100Y-174896371D01*
X208866100Y-174396371D02*
X208937528Y-174467800D01*
X208866100Y-174539228D01*
X208794671Y-174467800D01*
X208866100Y-174396371D01*
X208866100Y-174539228D01*
X208294671Y-175896371D02*
X207508957Y-174896371D01*
X208294671Y-174896371D02*
X207508957Y-175896371D01*
X206366100Y-175824942D02*
X206508957Y-175896371D01*
X206794671Y-175896371D01*
X206937528Y-175824942D01*
X207008957Y-175682085D01*
X207008957Y-175110657D01*
X206937528Y-174967800D01*
X206794671Y-174896371D01*
X206508957Y-174896371D01*
X206366100Y-174967800D01*
X206294671Y-175110657D01*
X206294671Y-175253514D01*
X207008957Y-175396371D01*
X205437528Y-175896371D02*
X205580385Y-175824942D01*
X205651814Y-175682085D01*
X205651814Y-174396371D01*
X204866100Y-174896371D02*
X204866100Y-176182085D01*
X204937528Y-176324942D01*
X205080385Y-176396371D01*
X205151814Y-176396371D01*
X204866100Y-174396371D02*
X204937528Y-174467800D01*
X204866100Y-174539228D01*
X204794671Y-174467800D01*
X204866100Y-174396371D01*
X204866100Y-174539228D01*
X203937528Y-175896371D02*
X204080385Y-175824942D01*
X204151814Y-175753514D01*
X204223242Y-175610657D01*
X204223242Y-175182085D01*
X204151814Y-175039228D01*
X204080385Y-174967800D01*
X203937528Y-174896371D01*
X203723242Y-174896371D01*
X203580385Y-174967800D01*
X203508957Y-175039228D01*
X203437528Y-175182085D01*
X203437528Y-175610657D01*
X203508957Y-175753514D01*
X203580385Y-175824942D01*
X203723242Y-175896371D01*
X203937528Y-175896371D01*
X202151814Y-175824942D02*
X202294671Y-175896371D01*
X202580385Y-175896371D01*
X202723242Y-175824942D01*
X202794671Y-175753514D01*
X202866100Y-175610657D01*
X202866100Y-175182085D01*
X202794671Y-175039228D01*
X202723242Y-174967800D01*
X202580385Y-174896371D01*
X202294671Y-174896371D01*
X202151814Y-174967800D01*
X201508957Y-175896371D02*
X201508957Y-174396371D01*
X200866100Y-175896371D02*
X200866100Y-175110657D01*
X200937528Y-174967800D01*
X201080385Y-174896371D01*
X201294671Y-174896371D01*
X201437528Y-174967800D01*
X201508957Y-175039228D01*
X200080385Y-175824942D02*
X200080385Y-175896371D01*
X200151814Y-176039228D01*
X200223242Y-176110657D01*
X197866100Y-174396371D02*
X197866100Y-175467800D01*
X197937528Y-175682085D01*
X198080385Y-175824942D01*
X198294671Y-175896371D01*
X198437528Y-175896371D01*
X196508957Y-175896371D02*
X196508957Y-175110657D01*
X196580385Y-174967800D01*
X196723242Y-174896371D01*
X197008957Y-174896371D01*
X197151814Y-174967800D01*
X196508957Y-175824942D02*
X196651814Y-175896371D01*
X197008957Y-175896371D01*
X197151814Y-175824942D01*
X197223242Y-175682085D01*
X197223242Y-175539228D01*
X197151814Y-175396371D01*
X197008957Y-175324942D01*
X196651814Y-175324942D01*
X196508957Y-175253514D01*
X195794671Y-174896371D02*
X195794671Y-175896371D01*
X195794671Y-175039228D02*
X195723242Y-174967800D01*
X195580385Y-174896371D01*
X195366100Y-174896371D01*
X195223242Y-174967800D01*
X195151814Y-175110657D01*
X195151814Y-175896371D01*
X193794671Y-174896371D02*
X193794671Y-175896371D01*
X194437528Y-174896371D02*
X194437528Y-175682085D01*
X194366100Y-175824942D01*
X194223242Y-175896371D01*
X194008957Y-175896371D01*
X193866100Y-175824942D01*
X193794671Y-175753514D01*
X192437528Y-175896371D02*
X192437528Y-175110657D01*
X192508957Y-174967800D01*
X192651814Y-174896371D01*
X192937528Y-174896371D01*
X193080385Y-174967800D01*
X192437528Y-175824942D02*
X192580385Y-175896371D01*
X192937528Y-175896371D01*
X193080385Y-175824942D01*
X193151814Y-175682085D01*
X193151814Y-175539228D01*
X193080385Y-175396371D01*
X192937528Y-175324942D01*
X192580385Y-175324942D01*
X192437528Y-175253514D01*
X191723242Y-175896371D02*
X191723242Y-174896371D01*
X191723242Y-175182085D02*
X191651814Y-175039228D01*
X191580385Y-174967800D01*
X191437528Y-174896371D01*
X191294671Y-174896371D01*
X190937528Y-174896371D02*
X190580385Y-175896371D01*
X190223242Y-174896371D02*
X190580385Y-175896371D01*
X190723242Y-176253514D01*
X190794671Y-176324942D01*
X190937528Y-176396371D01*
X188580385Y-174539228D02*
X188508957Y-174467800D01*
X188366100Y-174396371D01*
X188008957Y-174396371D01*
X187866100Y-174467800D01*
X187794671Y-174539228D01*
X187723242Y-174682085D01*
X187723242Y-174824942D01*
X187794671Y-175039228D01*
X188651814Y-175896371D01*
X187723242Y-175896371D01*
X186794671Y-174396371D02*
X186651814Y-174396371D01*
X186508957Y-174467800D01*
X186437528Y-174539228D01*
X186366100Y-174682085D01*
X186294671Y-174967800D01*
X186294671Y-175324942D01*
X186366100Y-175610657D01*
X186437528Y-175753514D01*
X186508957Y-175824942D01*
X186651814Y-175896371D01*
X186794671Y-175896371D01*
X186937528Y-175824942D01*
X187008957Y-175753514D01*
X187080385Y-175610657D01*
X187151814Y-175324942D01*
X187151814Y-174967800D01*
X187080385Y-174682085D01*
X187008957Y-174539228D01*
X186937528Y-174467800D01*
X186794671Y-174396371D01*
X185723242Y-174539228D02*
X185651814Y-174467800D01*
X185508957Y-174396371D01*
X185151814Y-174396371D01*
X185008957Y-174467800D01*
X184937528Y-174539228D01*
X184866100Y-174682085D01*
X184866100Y-174824942D01*
X184937528Y-175039228D01*
X185794671Y-175896371D01*
X184866100Y-175896371D01*
X184294671Y-174539228D02*
X184223242Y-174467800D01*
X184080385Y-174396371D01*
X183723242Y-174396371D01*
X183580385Y-174467800D01*
X183508957Y-174539228D01*
X183437528Y-174682085D01*
X183437528Y-174824942D01*
X183508957Y-175039228D01*
X184366100Y-175896371D01*
X183437528Y-175896371D01*
X213758957Y-177660657D02*
X214258957Y-177660657D01*
X214258957Y-178446371D02*
X214258957Y-176946371D01*
X213544671Y-176946371D01*
X212330385Y-177446371D02*
X212330385Y-178446371D01*
X212973242Y-177446371D02*
X212973242Y-178232085D01*
X212901814Y-178374942D01*
X212758957Y-178446371D01*
X212544671Y-178446371D01*
X212401814Y-178374942D01*
X212330385Y-178303514D01*
X211616100Y-177446371D02*
X211616100Y-178446371D01*
X211616100Y-177589228D02*
X211544671Y-177517800D01*
X211401814Y-177446371D01*
X211187528Y-177446371D01*
X211044671Y-177517800D01*
X210973242Y-177660657D01*
X210973242Y-178446371D01*
X209616100Y-178446371D02*
X209616100Y-176946371D01*
X209616100Y-178374942D02*
X209758957Y-178446371D01*
X210044671Y-178446371D01*
X210187528Y-178374942D01*
X210258957Y-178303514D01*
X210330385Y-178160657D01*
X210330385Y-177732085D01*
X210258957Y-177589228D01*
X210187528Y-177517800D01*
X210044671Y-177446371D01*
X209758957Y-177446371D01*
X209616100Y-177517800D01*
X208330385Y-178374942D02*
X208473242Y-178446371D01*
X208758957Y-178446371D01*
X208901814Y-178374942D01*
X208973242Y-178232085D01*
X208973242Y-177660657D01*
X208901814Y-177517800D01*
X208758957Y-177446371D01*
X208473242Y-177446371D01*
X208330385Y-177517800D01*
X208258957Y-177660657D01*
X208258957Y-177803514D01*
X208973242Y-177946371D01*
X206973242Y-178446371D02*
X206973242Y-176946371D01*
X206973242Y-178374942D02*
X207116100Y-178446371D01*
X207401814Y-178446371D01*
X207544671Y-178374942D01*
X207616100Y-178303514D01*
X207687528Y-178160657D01*
X207687528Y-177732085D01*
X207616100Y-177589228D01*
X207544671Y-177517800D01*
X207401814Y-177446371D01*
X207116100Y-177446371D01*
X206973242Y-177517800D01*
X205116100Y-178446371D02*
X205116100Y-176946371D01*
X205116100Y-177517800D02*
X204973242Y-177446371D01*
X204687528Y-177446371D01*
X204544671Y-177517800D01*
X204473242Y-177589228D01*
X204401814Y-177732085D01*
X204401814Y-178160657D01*
X204473242Y-178303514D01*
X204544671Y-178374942D01*
X204687528Y-178446371D01*
X204973242Y-178446371D01*
X205116100Y-178374942D01*
X203901814Y-177446371D02*
X203544671Y-178446371D01*
X203187528Y-177446371D02*
X203544671Y-178446371D01*
X203687528Y-178803514D01*
X203758957Y-178874942D01*
X203901814Y-178946371D01*
X200758957Y-178446371D02*
X201473242Y-178446371D01*
X201473242Y-176946371D01*
X199687528Y-178374942D02*
X199830385Y-178446371D01*
X200116100Y-178446371D01*
X200258957Y-178374942D01*
X200330385Y-178232085D01*
X200330385Y-177660657D01*
X200258957Y-177517800D01*
X200116100Y-177446371D01*
X199830385Y-177446371D01*
X199687528Y-177517800D01*
X199616100Y-177660657D01*
X199616100Y-177803514D01*
X200330385Y-177946371D01*
X198330385Y-178446371D02*
X198330385Y-177660657D01*
X198401814Y-177517800D01*
X198544671Y-177446371D01*
X198830385Y-177446371D01*
X198973242Y-177517800D01*
X198330385Y-178374942D02*
X198473242Y-178446371D01*
X198830385Y-178446371D01*
X198973242Y-178374942D01*
X199044671Y-178232085D01*
X199044671Y-178089228D01*
X198973242Y-177946371D01*
X198830385Y-177874942D01*
X198473242Y-177874942D01*
X198330385Y-177803514D01*
X197616100Y-177446371D02*
X197616100Y-178946371D01*
X197616100Y-177517800D02*
X197473242Y-177446371D01*
X197187528Y-177446371D01*
X197044671Y-177517800D01*
X196973242Y-177589228D01*
X196901814Y-177732085D01*
X196901814Y-178160657D01*
X196973242Y-178303514D01*
X197044671Y-178374942D01*
X197187528Y-178446371D01*
X197473242Y-178446371D01*
X197616100Y-178374942D01*
X196258957Y-178446371D02*
X196258957Y-176946371D01*
X195616100Y-178446371D02*
X195616100Y-177660657D01*
X195687528Y-177517800D01*
X195830385Y-177446371D01*
X196044671Y-177446371D01*
X196187528Y-177517800D01*
X196258957Y-177589228D01*
X195044671Y-177446371D02*
X194687528Y-178446371D01*
X194330385Y-177446371D02*
X194687528Y-178446371D01*
X194830385Y-178803514D01*
X194901814Y-178874942D01*
X195044671Y-178946371D01*
D12*
X211336280Y-156141620D02*
X211495580Y-155479520D01*
X211112440Y-156788760D02*
X211336280Y-156141620D01*
X194456060Y-152015200D02*
X194478260Y-152072820D01*
X194440060Y-151822920D02*
X194456060Y-152015200D01*
X200951080Y-150651700D02*
X200927120Y-150654100D01*
X200975160Y-150649200D02*
X200951080Y-150651700D01*
X214403660Y-157612320D02*
X214290380Y-157897820D01*
X214470381Y-157412340D02*
X214403660Y-157612320D01*
X205947280Y-159567620D02*
X206066860Y-159617320D01*
X205844520Y-159488960D02*
X205947280Y-159567620D01*
X205780500Y-159412900D02*
X205844520Y-159488960D01*
X211530720Y-159586920D02*
X211415380Y-159744700D01*
X211630880Y-159453040D02*
X211530720Y-159586920D01*
X195186060Y-149952700D02*
X195152460Y-149974740D01*
X195303460Y-149912780D02*
X195186060Y-149952700D01*
X198459260Y-162613200D02*
X198515460Y-162655060D01*
X198402260Y-162572280D02*
X198459260Y-162613200D01*
X194653460Y-157410820D02*
X194674460Y-157477780D01*
X194631460Y-157344200D02*
X194653460Y-157410820D01*
X211495700Y-161766960D02*
X211479840Y-161826520D01*
X211506000Y-161728200D02*
X211495700Y-161766960D01*
X208655840Y-145793400D02*
X208850500Y-145616400D01*
X208494280Y-145980200D02*
X208655840Y-145793400D01*
X204278780Y-163078780D02*
X204265520Y-163024420D01*
X204280840Y-163090960D02*
X204278780Y-163078780D01*
X204288980Y-163141620D02*
X204280840Y-163090960D01*
X204305700Y-163167980D02*
X204288980Y-163141620D01*
X197644060Y-146484000D02*
X197628260Y-146543600D01*
X197744260Y-146319000D02*
X197644060Y-146484000D01*
X199787140Y-145363800D02*
X199583140Y-145278200D01*
X200003600Y-145489200D02*
X199787140Y-145363800D01*
X197457260Y-159407560D02*
X197528260Y-159500020D01*
X197430260Y-159373060D02*
X197457260Y-159407560D01*
X199860580Y-147319000D02*
X199415840Y-147647800D01*
X200328480Y-147020600D02*
X199860580Y-147319000D01*
X210069020Y-148146800D02*
X209669200Y-147794000D01*
X210441301Y-148525200D02*
X210069020Y-148146800D01*
X212969980Y-149885980D02*
X213188940Y-149862020D01*
X212758060Y-149898560D02*
X212969980Y-149885980D01*
X204010440Y-162327060D02*
X204017380Y-162279960D01*
X204009480Y-162355920D02*
X204010440Y-162327060D01*
X204011200Y-162365140D02*
X204009480Y-162355920D01*
X204024560Y-162419520D02*
X204011200Y-162365140D01*
X197957260Y-158868840D02*
X198353060Y-159361240D01*
X197599660Y-158346260D02*
X197957260Y-158868840D01*
X197282660Y-157795700D02*
X197599660Y-158346260D01*
X214121660Y-150092680D02*
X214266940Y-150348320D01*
X213995580Y-149946420D02*
X214121660Y-150092680D01*
X204128160Y-163746420D02*
X204140980Y-163800480D01*
X204082280Y-163586060D02*
X204128160Y-163746420D01*
X204021840Y-163418960D02*
X204082280Y-163586060D01*
X203960420Y-163283540D02*
X204021840Y-163418960D01*
X194492260Y-156303960D02*
X194470460Y-156361460D01*
X194506460Y-156266520D02*
X194492260Y-156303960D01*
X209558840Y-163029640D02*
X209398660Y-162939600D01*
X209677340Y-163066420D02*
X209558840Y-163029640D01*
X196154060Y-158424520D02*
X196365860Y-158411900D01*
X195934860Y-158448480D02*
X196154060Y-158424520D01*
X214382281Y-150632920D02*
X214449560Y-150832700D01*
X214266940Y-150348320D02*
X214382281Y-150632920D01*
X195485860Y-149891520D02*
X195303460Y-149912780D01*
X195690260Y-149897820D02*
X195485860Y-149891520D01*
X197305260Y-149117760D02*
X197209860Y-149254900D01*
X197371260Y-149021520D02*
X197305260Y-149117760D01*
X200830300Y-161295600D02*
X201409980Y-161561540D01*
X200275740Y-160986460D02*
X200830300Y-161295600D01*
X199748600Y-160636200D02*
X200275740Y-160986460D01*
X200757940Y-151017920D02*
X200818800Y-151091180D01*
X200731240Y-150947740D02*
X200757940Y-151017920D01*
X196863860Y-149721600D02*
X196768060Y-149832260D01*
X196977460Y-149575760D02*
X196863860Y-149721600D01*
X199215840Y-163061120D02*
X199403660Y-163105260D01*
X198947940Y-162939680D02*
X199215840Y-163061120D01*
X197096660Y-149413880D02*
X196977460Y-149575760D01*
X197209860Y-149254900D02*
X197096660Y-149413880D01*
X214470280Y-150899760D02*
X214492520Y-150966380D01*
X214449560Y-150832700D02*
X214470280Y-150899760D01*
X212146620Y-158734820D02*
X212027360Y-158896740D01*
X212260000Y-158588980D02*
X212146620Y-158734820D01*
X212591060Y-158371420D02*
X212461600Y-158403020D01*
X212786060Y-158358200D02*
X212591060Y-158371420D01*
X201000880Y-151145960D02*
X201024980Y-151143460D01*
X200976920Y-151148340D02*
X201000880Y-151145960D01*
X211718220Y-148973640D02*
X211784860Y-149069560D01*
X211693380Y-148937520D02*
X211718220Y-148973640D01*
X209908000Y-145249600D02*
X210175920Y-145371000D01*
X209720080Y-145205400D02*
X209908000Y-145249600D01*
X197405460Y-159336820D02*
X197430260Y-159373060D01*
X197338860Y-159240900D02*
X197405460Y-159336820D01*
X199962240Y-148785800D02*
X200109500Y-148645200D01*
X199821420Y-148921460D02*
X199962240Y-148785800D01*
X195588260Y-155463680D02*
X195438260Y-155588980D01*
X195674460Y-155362100D02*
X195588260Y-155463680D01*
X205764220Y-164380560D02*
X203457280Y-164380560D01*
X205780620Y-164352240D02*
X205764220Y-164380560D01*
X205844520Y-164276180D02*
X205780620Y-164352240D01*
X200879700Y-159225280D02*
X200957160Y-159081180D01*
X200753920Y-159329880D02*
X200879700Y-159225280D01*
X209468440Y-151473540D02*
X209571080Y-151597040D01*
X209423420Y-151355060D02*
X209468440Y-151473540D01*
X197063860Y-150679060D02*
X196853060Y-151198900D01*
X197308860Y-150177980D02*
X197063860Y-150679060D01*
X208712700Y-148370000D02*
X208642380Y-148307200D01*
X208836940Y-148483800D02*
X208712700Y-148370000D01*
X211261080Y-148357200D02*
X211378160Y-148520600D01*
X211157480Y-148204200D02*
X211261080Y-148357200D01*
X200665280Y-148055600D02*
X200713240Y-147898400D01*
X200588880Y-148187600D02*
X200665280Y-148055600D01*
X197708660Y-148565800D02*
X197593260Y-148723600D01*
X197824860Y-148401400D02*
X197708660Y-148565800D01*
X197862660Y-159953480D02*
X197966460Y-160106340D01*
X197745660Y-159790060D02*
X197862660Y-159953480D01*
X214683940Y-156487540D02*
X214651160Y-156779880D01*
X214667780Y-156295160D02*
X214683940Y-156487540D01*
X203441000Y-159412900D02*
X203457280Y-159384680D01*
X203377080Y-159488960D02*
X203441000Y-159412900D01*
X203274220Y-159567620D02*
X203377080Y-159488960D01*
X207183720Y-154662560D02*
X207207700Y-154660180D01*
X207109600Y-154650280D02*
X207183720Y-154662560D01*
X196354860Y-154196740D02*
X196382660Y-154700880D01*
X196354860Y-154028760D02*
X196354860Y-154196740D01*
X202112440Y-153048960D02*
X202185660Y-152988100D01*
X202042221Y-153075640D02*
X202112440Y-153048960D01*
X204863200Y-163832920D02*
X204870780Y-163832920D01*
X204840080Y-163837040D02*
X204863200Y-163832920D01*
X204819240Y-163842040D02*
X204840080Y-163837040D01*
X204805880Y-163836280D02*
X204819240Y-163842040D01*
X211040920Y-158694460D02*
X211367640Y-158187520D01*
X210678620Y-159174700D02*
X211040920Y-158694460D01*
X204784980Y-163602020D02*
X204797860Y-163605920D01*
X204743720Y-163598540D02*
X204784980Y-163602020D01*
X204700440Y-163610160D02*
X204743720Y-163598540D01*
X204664640Y-163635760D02*
X204700440Y-163610160D01*
X200633280Y-159375780D02*
X200753920Y-159329880D01*
X200591920Y-159380020D02*
X200633280Y-159375780D01*
X209269000Y-148890660D02*
X209127200Y-148756000D01*
X209392500Y-149008600D02*
X209269000Y-148890660D01*
X213398560Y-154125900D02*
X213398560Y-154125900D01*
X213398560Y-154125900D02*
X213398560Y-154125900D01*
X206987440Y-154413020D02*
X202363300Y-154413020D01*
X206386420Y-152769881D02*
X202189700Y-152769881D01*
X211094080Y-160445661D02*
X211143140Y-160634901D01*
X211083140Y-160312840D02*
X211094080Y-160445661D01*
X204863300Y-160006420D02*
X204875340Y-160090840D01*
X204841380Y-159937740D02*
X204863300Y-160006420D01*
X204808080Y-159883600D02*
X204841380Y-159937740D01*
X202832700Y-156929600D02*
X206620360Y-156929600D01*
X202295581Y-156473020D02*
X202832700Y-156929600D01*
X211590200Y-154807740D02*
X211620140Y-154131100D01*
X211495580Y-155479520D02*
X211590200Y-154807740D01*
X198460260Y-145696200D02*
X198403860Y-145737800D01*
X198631860Y-145573800D02*
X198460260Y-145696200D01*
X211728220Y-159325320D02*
X211728220Y-159325320D01*
X211728220Y-159325320D02*
X211728220Y-159325320D01*
X199588240Y-159163420D02*
X199460300Y-159036260D01*
X213389880Y-153402160D02*
X213388580Y-153603200D01*
X213395980Y-153217460D02*
X213389880Y-153402160D01*
X202240360Y-152806120D02*
X202237981Y-152782040D01*
X202242861Y-152830100D02*
X202240360Y-152806120D01*
X203154740Y-159617320D02*
X203274220Y-159567620D01*
X203056880Y-159634680D02*
X203154740Y-159617320D01*
X203024220Y-159634680D02*
X203056880Y-159634680D01*
X212212920Y-151794520D02*
X212054800Y-151269240D01*
X212337240Y-152336180D02*
X212212920Y-151794520D01*
X207339980Y-154220620D02*
X207256100Y-154175600D01*
X207400940Y-154293840D02*
X207339980Y-154220620D01*
X199944020Y-162844740D02*
X200106020Y-162699460D01*
X199783100Y-162971040D02*
X199944020Y-162844740D01*
X208397480Y-161109620D02*
X208910060Y-160790920D01*
X207860360Y-161390200D02*
X208397480Y-161109620D01*
X204761860Y-159843120D02*
X204808080Y-159883600D01*
X204701200Y-159815340D02*
X204761860Y-159843120D01*
X204624480Y-159799520D02*
X204701200Y-159815340D01*
X209482340Y-145245600D02*
X209614060Y-145211200D01*
X209278880Y-145332600D02*
X209482340Y-145245600D01*
X200500560Y-148284800D02*
X200588880Y-148187600D01*
X200467700Y-148313200D02*
X200500560Y-148284800D01*
X211701520Y-159360040D02*
X211630880Y-159453040D01*
X211728220Y-159325320D02*
X211701520Y-159360040D01*
X201049280Y-150661380D02*
X200975160Y-150649200D01*
X201133160Y-150706400D02*
X201049280Y-150661380D01*
X206990580Y-154255880D02*
X206945560Y-154339760D01*
X207063720Y-154194900D02*
X206990580Y-154255880D01*
X200850840Y-162258040D02*
X200993720Y-162290380D01*
X200784420Y-162248180D02*
X200850840Y-162258040D01*
X207025740Y-154605260D02*
X207109600Y-154650280D01*
X206964860Y-154532160D02*
X207025740Y-154605260D01*
X209966060Y-163025280D02*
X209778780Y-163071320D01*
X210232560Y-162901400D02*
X209966060Y-163025280D01*
X196354860Y-153880760D02*
X196354860Y-154028760D01*
X196375860Y-153436880D02*
X196354860Y-153880760D01*
X210436561Y-145533400D02*
X210608080Y-145655600D01*
X210175920Y-145371000D02*
X210436561Y-145533400D01*
X209435780Y-151149020D02*
X209415280Y-151274020D01*
X209511740Y-151007520D02*
X209435780Y-151149020D01*
X200279220Y-159285820D02*
X200423300Y-159363280D01*
X200174600Y-159160060D02*
X200279220Y-159285820D01*
X205163740Y-163385880D02*
X205204880Y-163191420D01*
X205127640Y-163549520D02*
X205163740Y-163385880D01*
X205097240Y-163675140D02*
X205127640Y-163549520D01*
X205073580Y-163755760D02*
X205097240Y-163675140D01*
X205089000Y-160956620D02*
X205053200Y-160962140D01*
X205155720Y-160948900D02*
X205089000Y-160956620D01*
X205218000Y-160951840D02*
X205155720Y-160948900D01*
X205249580Y-160969960D02*
X205218000Y-160951840D01*
X205251980Y-160978420D02*
X205249580Y-160969960D01*
X201993300Y-158955320D02*
X200880120Y-158955320D01*
X202582380Y-157805900D02*
X201993300Y-158955320D01*
X211220620Y-160832480D02*
X211311000Y-161033340D01*
X211143140Y-160634901D02*
X211220620Y-160832480D01*
X207442720Y-161576280D02*
X207860360Y-161390200D01*
X207300700Y-161631200D02*
X207442720Y-161576280D01*
X210037140Y-151640200D02*
X210160600Y-151537560D01*
X209918740Y-151685240D02*
X210037140Y-151640200D01*
X206759880Y-156684920D02*
X206689700Y-156711520D01*
X206783880Y-156682540D02*
X206759880Y-156684920D01*
X194492660Y-152110141D02*
X194565060Y-152210960D01*
X194478260Y-152072820D02*
X194492660Y-152110141D01*
X208496440Y-148162000D02*
X208419200Y-148030600D01*
X208585520Y-148258800D02*
X208496440Y-148162000D01*
X199071300Y-149719200D02*
X199426880Y-149309480D01*
X198653340Y-150291900D02*
X199071300Y-149719200D01*
X201874160Y-152612881D02*
X201801020Y-152673840D01*
X201944360Y-152586280D02*
X201874160Y-152612881D01*
X204553840Y-159794400D02*
X204624480Y-159799520D01*
X204530300Y-159794400D02*
X204553840Y-159794400D01*
X203457280Y-159384680D02*
X203457280Y-159384680D01*
X207058380Y-156928740D02*
X207055880Y-156904760D01*
X207046240Y-157002840D02*
X207058380Y-156928740D01*
X198075060Y-160312620D02*
X198081060Y-160355600D01*
X198072260Y-160291680D02*
X198075060Y-160312620D01*
X208954020Y-159681340D02*
X209424500Y-159275520D01*
X208292560Y-160148900D02*
X208954020Y-159681340D01*
X199698800Y-149040380D02*
X199821420Y-148921460D01*
X199606480Y-149130560D02*
X199698800Y-149040380D01*
X204487000Y-163804380D02*
X204524980Y-163783880D01*
X204473440Y-163808620D02*
X204487000Y-163804380D01*
X204466380Y-163811200D02*
X204473440Y-163808620D01*
X204442200Y-163812100D02*
X204466380Y-163811200D01*
X204269880Y-160974620D02*
X204231240Y-160966260D01*
X204313160Y-160978420D02*
X204269880Y-160974620D01*
X204327500Y-160978420D02*
X204313160Y-160978420D01*
X204331620Y-160978420D02*
X204327500Y-160978420D01*
X204344000Y-160975520D02*
X204331620Y-160978420D01*
X204043640Y-160191760D02*
X204043640Y-160145420D01*
X204043640Y-160247520D02*
X204043640Y-160191760D01*
X204080980Y-160414960D02*
X204043640Y-160247520D01*
X203898780Y-163163880D02*
X203960420Y-163283540D01*
X203837480Y-163044060D02*
X203898780Y-163163880D01*
X203777240Y-162908660D02*
X203837480Y-163044060D01*
X203718780Y-162741680D02*
X203777240Y-162908660D01*
X200547660Y-158526480D02*
X200506300Y-158530740D01*
X200675060Y-158547320D02*
X200547660Y-158526480D01*
X207231800Y-154657680D02*
X207302000Y-154630980D01*
X207207700Y-154660180D02*
X207231800Y-154657680D01*
X197629260Y-159633160D02*
X197745660Y-159790060D01*
X197528260Y-159500020D02*
X197629260Y-159633160D01*
X196437460Y-152856460D02*
X196375860Y-153436880D01*
X196538260Y-152289101D02*
X196437460Y-152856460D01*
X210052740Y-158591260D02*
X210470620Y-158018680D01*
X209697160Y-159000980D02*
X210052740Y-158591260D01*
X205947280Y-164197520D02*
X205844520Y-164276180D01*
X206066860Y-164147820D02*
X205947280Y-164197520D01*
X206164720Y-164130560D02*
X206066860Y-164147820D01*
X201194020Y-150779640D02*
X201133160Y-150706400D01*
X201220720Y-150849840D02*
X201194020Y-150779640D01*
X205264780Y-161036900D02*
X205251980Y-160978420D01*
X205303200Y-161212700D02*
X205264780Y-161036900D01*
X205343560Y-161397380D02*
X205303200Y-161212700D01*
X205376640Y-161549280D02*
X205343560Y-161397380D01*
X204806000Y-161254140D02*
X204783560Y-161266840D01*
X204818060Y-161249040D02*
X204806000Y-161254140D01*
X204844740Y-161211520D02*
X204818060Y-161249040D01*
X204836380Y-161150740D02*
X204844740Y-161211520D01*
X204812840Y-161080760D02*
X204836380Y-161150740D01*
X198040860Y-147997800D02*
X198035260Y-148041000D01*
X198030060Y-147865000D02*
X198040860Y-147997800D01*
X195729060Y-154024120D02*
X195726660Y-154140760D01*
X195731460Y-153856900D02*
X195729060Y-154024120D01*
X214667780Y-151756640D02*
X214653560Y-151948900D01*
X214632200Y-151464880D02*
X214667780Y-151756640D01*
X211752840Y-159288980D02*
X211728220Y-159325320D01*
X211818700Y-159192740D02*
X211752840Y-159288980D01*
X209396280Y-160436321D02*
X209854420Y-160047420D01*
X208910060Y-160790920D02*
X209396280Y-160436321D01*
X195260060Y-155704560D02*
X195069660Y-155815240D01*
X195438260Y-155588980D02*
X195260060Y-155704560D01*
X200269100Y-162551240D02*
X200433200Y-162416560D01*
X200106020Y-162699460D02*
X200269100Y-162551240D01*
X199250880Y-160247200D02*
X199748600Y-160636200D01*
X198784980Y-159821540D02*
X199250880Y-160247200D01*
X198353060Y-159361240D02*
X198784980Y-159821540D01*
X197007860Y-158784540D02*
X197128260Y-158945880D01*
X196893660Y-158639340D02*
X197007860Y-158784540D01*
X201746100Y-152855920D02*
X201746100Y-152855920D01*
X201743720Y-152831840D02*
X201746100Y-152855920D01*
X206938160Y-154461920D02*
X206964860Y-154532160D01*
X206935660Y-154437960D02*
X206938160Y-154461920D01*
X205406060Y-161684920D02*
X205376640Y-161549280D01*
X205435560Y-161820880D02*
X205406060Y-161684920D01*
X205468660Y-161973980D02*
X205435560Y-161820880D01*
X205509020Y-162160620D02*
X205468660Y-161973980D01*
X212756740Y-149913020D02*
X211513240Y-150028120D01*
X201859940Y-161733100D02*
X202012500Y-161782160D01*
X201409980Y-161561540D02*
X201859940Y-161733100D01*
X195100860Y-150008480D02*
X194976260Y-150155620D01*
X195152460Y-149974740D02*
X195100860Y-150008480D01*
X213863840Y-152606040D02*
X213685880Y-152721600D01*
X214054380Y-152495340D02*
X213863840Y-152606040D01*
X195059060Y-152557740D02*
X195250260Y-152667021D01*
X194870860Y-152448600D02*
X195059060Y-152557740D01*
X196677260Y-151736020D02*
X196538260Y-152289101D01*
X196853060Y-151198900D02*
X196677260Y-151736020D01*
X203832800Y-162316540D02*
X203819780Y-162327700D01*
X203844200Y-162262060D02*
X203832800Y-162316540D01*
X203874480Y-162098020D02*
X203844200Y-162262060D01*
X203899560Y-161925140D02*
X203874480Y-162098020D01*
X203913520Y-161782780D02*
X203899560Y-161925140D01*
X210801340Y-150851480D02*
X210443920Y-150251420D01*
X211094200Y-151476780D02*
X210801340Y-150851480D01*
X211385740Y-149802760D02*
X211100500Y-149354280D01*
X211640420Y-150272140D02*
X211385740Y-149802760D01*
X208909980Y-162523120D02*
X208745020Y-162389460D01*
X209073920Y-162670140D02*
X208909980Y-162523120D01*
X211081840Y-148078800D02*
X211157480Y-148204200D01*
X211051440Y-148018800D02*
X211081840Y-148078800D01*
X214147800Y-158154760D02*
X214023240Y-158301980D01*
X214290380Y-157897820D02*
X214147800Y-158154760D01*
X205044200Y-162411160D02*
X205020740Y-162577600D01*
X205057300Y-162357020D02*
X205044200Y-162411160D01*
X205059360Y-162346820D02*
X205057300Y-162357020D01*
X200217480Y-145644600D02*
X200003600Y-145489200D01*
X200413340Y-145820200D02*
X200217480Y-145644600D01*
X200693620Y-146816400D02*
X200328480Y-147020600D01*
X200818060Y-146754200D02*
X200693620Y-146816400D01*
X201171660Y-162340620D02*
X201363840Y-162400400D01*
X200993720Y-162290380D02*
X201171660Y-162340620D01*
X206857780Y-157174280D02*
X206927980Y-157147600D01*
X206833660Y-157176780D02*
X206857780Y-157174280D01*
X200576200Y-146005800D02*
X200413340Y-145820200D01*
X200690880Y-146191800D02*
X200576200Y-146005800D01*
X201213340Y-150972040D02*
X201225500Y-150897920D01*
X201168300Y-151055900D02*
X201213340Y-150972040D01*
X206373500Y-150028120D02*
X207178080Y-150712040D01*
X198834980Y-150028120D02*
X206373500Y-150028120D01*
X214556000Y-151167340D02*
X214632200Y-151464880D01*
X214492520Y-150966380D02*
X214556000Y-151167340D01*
X213405420Y-149839660D02*
X213609840Y-149832040D01*
X213188940Y-149862020D02*
X213405420Y-149839660D01*
X199451200Y-145244400D02*
X199406700Y-145242400D01*
X199583140Y-145278200D02*
X199451200Y-145244400D01*
X208326640Y-162233620D02*
X208184580Y-162266740D01*
X208392800Y-162223320D02*
X208326640Y-162233620D01*
X213820660Y-158397700D02*
X213638140Y-158418960D01*
X213938160Y-158357760D02*
X213820660Y-158397700D01*
X195331460Y-158458340D02*
X195514060Y-158478420D01*
X195213860Y-158419280D02*
X195331460Y-158458340D01*
X204078140Y-162579240D02*
X204024560Y-162419520D01*
X204145000Y-162721920D02*
X204078140Y-162579240D01*
X204211940Y-162864600D02*
X204145000Y-162721920D01*
X204265520Y-163024420D02*
X204211940Y-162864600D01*
X204177640Y-161430380D02*
X204217020Y-161429480D01*
X204158220Y-161443380D02*
X204177640Y-161430380D01*
X204157140Y-161448820D02*
X204158220Y-161443380D01*
X204145200Y-161502960D02*
X204157140Y-161448820D01*
X214577160Y-157077920D02*
X214514140Y-157278980D01*
X214651160Y-156779880D02*
X214577160Y-157077920D01*
X208413520Y-162227120D02*
X208392800Y-162223320D01*
X208456300Y-162234820D02*
X208413520Y-162227120D01*
X211399100Y-161232340D02*
X211469520Y-161424280D01*
X211311000Y-161033340D02*
X211399100Y-161232340D01*
X197678260Y-161812400D02*
X197694460Y-161871880D01*
X197667860Y-161773780D02*
X197678260Y-161812400D01*
X207095840Y-162616760D02*
X207087360Y-162619380D01*
X207138140Y-162604280D02*
X207095840Y-162616760D01*
X208318600Y-147527600D02*
X208311740Y-147335800D01*
X208327060Y-147636800D02*
X208318600Y-147527600D01*
X214546020Y-152145320D02*
X214410940Y-152269881D01*
X214617640Y-152043960D02*
X214546020Y-152145320D01*
X213943700Y-149913020D02*
X213995580Y-149946420D01*
X213910160Y-149891280D02*
X213943700Y-149913020D01*
X206863200Y-160829460D02*
X207049280Y-160765420D01*
X202203140Y-162671240D02*
X202239841Y-162682740D01*
X209242860Y-147468200D02*
X208790600Y-147170400D01*
X209669200Y-147794000D02*
X209242860Y-147468200D01*
X210946420Y-162406600D02*
X210777360Y-162532340D01*
X211181560Y-162208900D02*
X210946420Y-162406600D01*
X194882060Y-155925700D02*
X194713060Y-156040700D01*
X195069660Y-155815240D02*
X194882060Y-155925700D01*
X195180260Y-158397600D02*
X195213860Y-158419280D01*
X195128460Y-158364060D02*
X195180260Y-158397600D01*
X201004020Y-154287900D02*
X201455420Y-156847780D01*
X201554920Y-153619040D02*
X201004020Y-154287900D01*
X208627200Y-150028020D02*
X209558840Y-150959760D01*
X207178080Y-150712040D02*
X208627200Y-150028020D01*
X201223100Y-150873920D02*
X201220720Y-150849840D01*
X201225500Y-150897920D02*
X201223100Y-150873920D01*
X204530300Y-160832380D02*
X204482220Y-160832380D01*
X204573060Y-160832380D02*
X204530300Y-160832380D01*
X204701200Y-160773240D02*
X204573060Y-160832380D01*
X200742000Y-146368200D02*
X200742000Y-146368200D01*
X200744280Y-146412600D02*
X200742000Y-146368200D01*
X211863740Y-150761320D02*
X211640420Y-150272140D01*
X212054800Y-151269240D02*
X211863740Y-150761320D01*
X212115240Y-156524880D02*
X212280720Y-155929600D01*
X211906580Y-157100820D02*
X212115240Y-156524880D01*
X206933280Y-154413880D02*
X206935660Y-154437960D01*
X206945560Y-154339760D02*
X206933280Y-154413880D01*
X200749800Y-146532600D02*
X200744280Y-146412600D01*
X200756640Y-146707800D02*
X200749800Y-146532600D01*
X213433840Y-158412780D02*
X213217140Y-158391840D01*
X213638140Y-158418960D02*
X213433840Y-158412780D01*
X208318500Y-146683400D02*
X208324240Y-146508200D01*
X208313380Y-146893400D02*
X208318500Y-146683400D01*
X211914200Y-159055680D02*
X211818700Y-159192740D01*
X212027360Y-158896740D02*
X211914200Y-159055680D01*
X203662560Y-162527380D02*
X203662560Y-162527380D01*
X198032660Y-148061800D02*
X198002660Y-148121800D01*
X198035260Y-148041000D02*
X198032660Y-148061800D01*
X200250780Y-148511800D02*
X200374240Y-148397000D01*
X200109500Y-148645200D02*
X200250780Y-148511800D01*
X194609660Y-151031480D02*
X194546660Y-151232540D01*
X194632260Y-150965100D02*
X194609660Y-151031480D01*
X195725460Y-154184820D02*
X195725460Y-154184820D01*
X195725460Y-154184700D02*
X195725460Y-154184820D01*
X204834560Y-160823820D02*
X204821200Y-160881100D01*
X204849640Y-160800040D02*
X204834560Y-160823820D01*
X204854620Y-160800040D02*
X204849640Y-160800040D01*
X204867980Y-160800040D02*
X204854620Y-160800040D01*
X204907780Y-160825320D02*
X204867980Y-160800040D01*
X209717240Y-163068380D02*
X209677340Y-163066420D01*
X209778780Y-163071320D02*
X209717240Y-163068380D01*
X210282480Y-159626320D02*
X210678620Y-159174700D01*
X209854420Y-160047420D02*
X210282480Y-159626320D01*
X210252940Y-151230600D02*
X210248940Y-151190020D01*
X210257081Y-151271060D02*
X210252940Y-151230600D01*
X198995580Y-148005400D02*
X198601140Y-148390800D01*
X199415840Y-147647800D02*
X198995580Y-148005400D01*
X205017280Y-161992880D02*
X205052340Y-162162780D01*
X204989500Y-161838980D02*
X205017280Y-161992880D01*
X204957160Y-161686540D02*
X204989500Y-161838980D01*
X204912020Y-161519980D02*
X204957160Y-161686540D01*
X212427100Y-152892920D02*
X212337240Y-152336180D01*
X212481580Y-153463560D02*
X212427100Y-152892920D01*
X203659640Y-162515420D02*
X203662560Y-162527380D01*
X203674380Y-162473880D02*
X203659640Y-162515420D01*
X203720380Y-162415820D02*
X203674380Y-162473880D01*
X203780080Y-162360820D02*
X203720380Y-162415820D01*
X203819780Y-162327700D02*
X203780080Y-162360820D01*
X200465080Y-158534840D02*
X200344420Y-158580760D01*
X200506300Y-158530740D02*
X200465080Y-158534840D01*
X200763580Y-162252100D02*
X200784420Y-162248180D01*
X200720940Y-162260020D02*
X200763580Y-162252100D01*
X194567860Y-157143260D02*
X194631460Y-157344200D01*
X194491660Y-156845620D02*
X194567860Y-157143260D01*
X212998060Y-158369380D02*
X212786060Y-158358200D01*
X213217140Y-158391840D02*
X212998060Y-158369380D01*
X204202840Y-163906920D02*
X204256200Y-163952180D01*
X204163220Y-163851040D02*
X204202840Y-163906920D01*
X204144780Y-163813600D02*
X204163220Y-163851040D01*
X204140980Y-163800480D02*
X204144780Y-163813600D01*
X205017500Y-162894120D02*
X204990700Y-163064040D01*
X205019880Y-162735040D02*
X205017500Y-162894120D01*
X205020740Y-162577600D02*
X205019880Y-162735040D01*
X208332800Y-147672600D02*
X208327060Y-147636800D01*
X208340940Y-147723200D02*
X208332800Y-147672600D01*
X207182000Y-154163420D02*
X207157880Y-154165920D01*
X207256100Y-154175600D02*
X207182000Y-154163420D01*
X209878160Y-151689380D02*
X209918740Y-151685240D01*
X209837700Y-151693380D02*
X209878160Y-151689380D01*
X197812860Y-147277200D02*
X197903460Y-147478000D01*
X197724860Y-147078200D02*
X197812860Y-147277200D01*
X213397480Y-154169740D02*
X213394880Y-154286380D01*
X213398560Y-154125900D02*
X213397480Y-154169740D01*
X204975160Y-163125020D02*
X204953360Y-163138900D01*
X204976240Y-163119260D02*
X204975160Y-163125020D01*
X204990700Y-163064040D02*
X204976240Y-163119260D01*
X195732060Y-153661600D02*
X195731460Y-153856900D01*
X195729660Y-153460320D02*
X195732060Y-153661600D01*
X207432420Y-154412120D02*
X207429920Y-154388140D01*
X207420280Y-154486240D02*
X207432420Y-154412120D01*
X210823920Y-157416140D02*
X211112440Y-156788760D01*
X210470620Y-158018680D02*
X210823920Y-157416140D01*
X207053520Y-156880660D02*
X207026840Y-156810460D01*
X207055880Y-156904760D02*
X207053520Y-156880660D01*
X195002260Y-158217900D02*
X195128460Y-158364060D01*
X194856860Y-157962260D02*
X195002260Y-158217900D01*
X202066521Y-152593560D02*
X201992420Y-152581400D01*
X202150421Y-152638600D02*
X202066521Y-152593560D01*
X211352660Y-147033400D02*
X211265860Y-147233000D01*
X211421780Y-146841000D02*
X211352660Y-147033400D01*
X195727060Y-154228540D02*
X195730260Y-154345180D01*
X195725460Y-154184820D02*
X195727060Y-154228540D01*
X208330740Y-146343800D02*
X208334340Y-146298800D01*
X208330740Y-146343800D02*
X208330740Y-146343800D01*
X195733660Y-154512180D02*
X195735460Y-154707380D01*
X195730260Y-154345180D02*
X195733660Y-154512180D01*
X200978000Y-158953780D02*
X200973740Y-158912560D01*
X200957160Y-159081180D02*
X200978000Y-158953780D01*
X211379800Y-161991680D02*
X211181560Y-162208900D01*
X211479840Y-161826520D02*
X211379800Y-161991680D01*
X200738200Y-146323200D02*
X200690880Y-146191800D01*
X200742000Y-146368200D02*
X200738200Y-146323200D01*
X198346460Y-145778400D02*
X198177460Y-145904000D01*
X198403860Y-145737800D02*
X198346460Y-145778400D01*
X198687300Y-162777140D02*
X198947940Y-162939680D01*
X198515460Y-162655060D02*
X198687300Y-162777140D01*
X212355920Y-158478320D02*
X212260000Y-158588980D01*
X212403440Y-158431020D02*
X212355920Y-158478320D01*
X208370140Y-147873800D02*
X208340940Y-147723200D01*
X208419200Y-148030600D02*
X208370140Y-147873800D01*
X208579560Y-162285400D02*
X208456300Y-162234820D01*
X208745020Y-162389460D02*
X208579560Y-162285400D01*
X207427520Y-154364060D02*
X207400940Y-154293840D01*
X207429920Y-154388140D02*
X207427520Y-154364060D01*
X200128720Y-159039400D02*
X200174600Y-159160060D01*
X200124480Y-158998180D02*
X200128720Y-159039400D01*
X204829120Y-161363400D02*
X204856700Y-161393040D01*
X204811860Y-161351480D02*
X204829120Y-161363400D01*
X204806000Y-161351480D02*
X204811860Y-161351480D01*
X204767600Y-161351480D02*
X204806000Y-161351480D01*
X195667060Y-153006640D02*
X195687660Y-153044840D01*
X195580060Y-152905620D02*
X195667060Y-153006640D01*
X213596700Y-155453140D02*
X212499800Y-154627740D01*
X213653100Y-152745780D02*
X212486560Y-153550900D01*
X211074780Y-147718800D02*
X210701300Y-148824240D01*
X200728860Y-150923740D02*
X200728860Y-150923740D01*
X200726480Y-150899640D02*
X200728860Y-150923740D01*
X210785380Y-148928060D02*
X210441301Y-148525200D01*
X211100500Y-149354280D02*
X210785380Y-148928060D01*
X204967140Y-163808620D02*
X205004240Y-163791900D01*
X204928520Y-163825320D02*
X204967140Y-163808620D01*
X204885220Y-163832920D02*
X204928520Y-163825320D01*
X204870780Y-163832920D02*
X204885220Y-163832920D01*
X205764220Y-159384680D02*
X205780500Y-159412900D01*
X203457280Y-159384680D02*
X205764220Y-159384680D01*
X197947260Y-147584000D02*
X198295860Y-148728600D01*
X206809700Y-157179180D02*
X206833660Y-157176780D01*
X206735580Y-157166900D02*
X206809700Y-157179180D01*
X200856880Y-150680780D02*
X200783660Y-150741680D01*
X200927120Y-150654100D02*
X200856880Y-150680780D01*
X207375240Y-154570120D02*
X207420280Y-154486240D01*
X207302000Y-154630980D02*
X207375240Y-154570120D01*
X198232860Y-162447060D02*
X198402260Y-162572280D01*
X197996260Y-162251100D02*
X198232860Y-162447060D01*
X211457920Y-146660800D02*
X211421780Y-146841000D01*
X211456200Y-146536800D02*
X211457920Y-146660800D01*
X206738420Y-152342460D02*
X206386420Y-152769881D01*
X206523360Y-151122520D02*
X206738420Y-152342460D01*
X205336600Y-162555780D02*
X205349300Y-162494920D01*
X205298520Y-162738840D02*
X205336600Y-162555780D01*
X205250140Y-162973420D02*
X205298520Y-162738840D01*
X205204880Y-163191420D02*
X205250140Y-162973420D01*
X196720660Y-149879680D02*
X196701460Y-149888900D01*
X196768060Y-149832260D02*
X196720660Y-149879680D01*
X211666480Y-148902900D02*
X211693380Y-148937520D01*
X211595380Y-148810460D02*
X211666480Y-148902900D01*
X211121440Y-160188820D02*
X211091380Y-160248820D01*
X211196420Y-160062740D02*
X211121440Y-160188820D01*
X213792440Y-149852120D02*
X213910160Y-149891280D01*
X213609840Y-149832040D02*
X213792440Y-149852120D01*
X201893020Y-162093880D02*
X201937740Y-161882620D01*
X201870700Y-162132620D02*
X201893020Y-162093880D01*
X203024220Y-164130560D02*
X201870700Y-162132620D01*
X200598000Y-162311420D02*
X200720940Y-162260020D01*
X200433200Y-162416560D02*
X200598000Y-162311420D01*
X201549380Y-162461400D02*
X201707700Y-162515320D01*
X201363840Y-162400400D02*
X201549380Y-162461400D01*
X209794200Y-150855700D02*
X209753720Y-150859740D01*
X209834780Y-150851600D02*
X209794200Y-150855700D01*
X213390520Y-153798420D02*
X213393880Y-153965400D01*
X213388580Y-153603200D02*
X213390520Y-153798420D01*
X201889441Y-162577180D02*
X201971700Y-162601260D01*
X201859160Y-162568480D02*
X201889441Y-162577180D01*
X207320440Y-162550260D02*
X207288860Y-162559600D01*
X207320440Y-162550260D02*
X207320440Y-162550260D01*
X204439240Y-163829120D02*
X204441000Y-163816760D01*
X204423200Y-163864700D02*
X204439240Y-163829120D01*
X204389340Y-163915060D02*
X204423200Y-163864700D01*
X204350940Y-163954680D02*
X204389340Y-163915060D01*
X209658440Y-145208800D02*
X209720080Y-145205400D01*
X209614060Y-145211200D02*
X209658440Y-145208800D01*
X204432420Y-161241680D02*
X204408560Y-161229840D01*
X204507200Y-161271180D02*
X204432420Y-161241680D01*
X204607340Y-161293640D02*
X204507200Y-161271180D01*
X204707500Y-161290280D02*
X204607340Y-161293640D01*
X204783560Y-161266840D02*
X204707500Y-161290280D01*
X197618060Y-146582200D02*
X197617060Y-146706200D01*
X197628260Y-146543600D02*
X197618060Y-146582200D01*
X208007940Y-162317740D02*
X207817300Y-162378380D01*
X208184580Y-162266740D02*
X208007940Y-162317740D01*
X213873720Y-155643460D02*
X214064920Y-155752740D01*
X213694880Y-155529100D02*
X213873720Y-155643460D01*
X197533860Y-153502840D02*
X197628460Y-152830960D01*
X197503860Y-154179480D02*
X197533860Y-153502840D01*
X204530300Y-159794400D02*
X204530300Y-159794400D01*
X204482220Y-159794400D02*
X204530300Y-159794400D01*
X204337920Y-159815340D02*
X204482220Y-159794400D01*
X196109260Y-149939680D02*
X197441060Y-149939680D01*
X195369460Y-152741020D02*
X196376660Y-153424280D01*
X195314460Y-155671340D02*
X196355060Y-154905520D01*
X201095200Y-151116760D02*
X201168300Y-151055900D01*
X201024980Y-151143460D02*
X201095200Y-151116760D01*
X210022060Y-149681640D02*
X209663640Y-149274320D01*
X210443920Y-150251420D02*
X210022060Y-149681640D01*
X207133920Y-154168320D02*
X207063720Y-154194900D01*
X207157880Y-154165920D02*
X207133920Y-154168320D01*
X204436000Y-163800480D02*
X204442200Y-163812100D01*
X204440440Y-163794960D02*
X204436000Y-163800480D01*
X204441740Y-163811420D02*
X204440440Y-163794960D01*
X204441000Y-163816760D02*
X204441740Y-163811420D01*
X201746100Y-152855920D02*
X201748600Y-152879900D01*
X206561660Y-156954560D02*
X206561660Y-156954560D01*
X207593120Y-160531600D02*
X208292560Y-160148900D01*
X207049280Y-160765420D02*
X207593120Y-160531600D01*
X210891080Y-145863600D02*
X211127640Y-146059400D01*
X210721480Y-145738200D02*
X210891080Y-145863600D01*
X209570000Y-159129040D02*
X209697160Y-159000980D01*
X209424500Y-159275520D02*
X209570000Y-159129040D01*
X203056880Y-164130560D02*
X203024220Y-164130560D01*
X203154740Y-164147820D02*
X203056880Y-164130560D01*
X203274220Y-164197520D02*
X203154740Y-164147820D01*
X197980860Y-147675800D02*
X198030060Y-147865000D01*
X197903460Y-147478000D02*
X197980860Y-147675800D01*
X208618500Y-148286800D02*
X208585520Y-148258800D01*
X208642380Y-148307200D02*
X208618500Y-148286800D01*
X211881200Y-149206180D02*
X211995580Y-149364700D01*
X211784860Y-149069560D02*
X211881200Y-149206180D01*
X197586460Y-149697180D02*
X197308860Y-150177980D01*
X197895260Y-149238100D02*
X197586460Y-149697180D01*
X209959780Y-150872100D02*
X209834780Y-150851600D01*
X210101240Y-150948040D02*
X209959780Y-150872100D01*
X211176780Y-147434400D02*
X211100600Y-147632600D01*
X211265860Y-147233000D02*
X211176780Y-147434400D01*
X211048520Y-147998000D02*
X211051440Y-148018800D01*
X211042780Y-147955000D02*
X211048520Y-147998000D01*
X206564140Y-156978540D02*
X206590840Y-157048740D01*
X206561660Y-156954560D02*
X206564140Y-156978540D01*
X204652020Y-161365380D02*
X204767600Y-161351480D01*
X204547560Y-161396060D02*
X204652020Y-161365380D01*
X204444480Y-161426680D02*
X204547560Y-161396060D01*
X204332500Y-161440680D02*
X204444480Y-161426680D01*
X201775300Y-152950100D02*
X201836160Y-153023240D01*
X201748600Y-152879900D02*
X201775300Y-152950100D01*
X213436220Y-155265760D02*
X213457060Y-155303840D01*
X213426140Y-155247200D02*
X213436220Y-155265760D01*
X204183600Y-159883600D02*
X204337920Y-159815340D01*
X204080980Y-160006420D02*
X204183600Y-159883600D01*
X204043640Y-160145420D02*
X204080980Y-160006420D01*
X204133160Y-160954120D02*
X204109380Y-160952380D01*
X204140980Y-160954120D02*
X204133160Y-160954120D01*
X204154300Y-160954120D02*
X204140980Y-160954120D01*
X204194140Y-160957920D02*
X204154300Y-160954120D01*
X204231240Y-160966260D02*
X204194140Y-160957920D01*
X201920060Y-153068260D02*
X201994161Y-153080540D01*
X201836160Y-153023240D02*
X201920060Y-153068260D01*
X199465200Y-163101900D02*
X199505220Y-163099740D01*
X199403660Y-163105260D02*
X199465200Y-163101900D01*
X195718460Y-158470840D02*
X195934860Y-158448480D01*
X195514060Y-158478420D02*
X195718460Y-158470840D01*
X213408440Y-153071620D02*
X213395980Y-153217460D01*
X213419080Y-153005340D02*
X213408440Y-153071620D01*
X195715660Y-155238960D02*
X195705060Y-155305260D01*
X195728060Y-155093120D02*
X195715660Y-155238960D01*
X197787660Y-152168960D02*
X198011460Y-151521740D01*
X197628460Y-152830960D02*
X197787660Y-152168960D01*
X205547440Y-162338340D02*
X205509020Y-162160620D01*
X205560140Y-162397600D02*
X205547440Y-162338340D01*
X205561220Y-162403680D02*
X205560140Y-162397600D01*
X205531800Y-162427540D02*
X205561220Y-162403680D01*
X204803080Y-161027480D02*
X204812840Y-161080760D01*
X204806000Y-161010880D02*
X204803080Y-161027480D01*
X204807860Y-160995780D02*
X204806000Y-161010880D01*
X204812520Y-160950540D02*
X204807860Y-160995780D01*
X204821200Y-160881100D02*
X204812520Y-160950540D01*
X197801460Y-156188060D02*
X197637660Y-155527140D01*
X198029660Y-156833780D02*
X197801460Y-156188060D01*
X205460860Y-162449240D02*
X205531800Y-162427540D01*
X205386860Y-162469420D02*
X205460860Y-162449240D01*
X205350940Y-162487020D02*
X205386860Y-162469420D01*
X205349300Y-162494920D02*
X205350940Y-162487020D01*
X209419300Y-151314600D02*
X209419300Y-151314600D01*
X209415280Y-151274020D02*
X209419300Y-151314600D01*
X194741460Y-157677540D02*
X194856860Y-157962260D01*
X194674460Y-157477780D02*
X194741460Y-157677540D01*
X201817841Y-162553740D02*
X201859160Y-162568480D01*
X201707700Y-162515320D02*
X201817841Y-162553740D01*
X212499800Y-154207380D02*
X212499800Y-154047020D01*
X212474860Y-154688820D02*
X212499800Y-154207380D01*
X204878920Y-160191760D02*
X204878920Y-160247520D01*
X204878920Y-160166480D02*
X204878920Y-160191760D01*
X204875340Y-160090840D02*
X204878920Y-160166480D01*
X199101920Y-158628920D02*
X198680020Y-158059160D01*
X199460300Y-159036260D02*
X199101920Y-158628920D01*
X197666060Y-161649760D02*
X197667860Y-161773780D01*
X197702260Y-161469640D02*
X197666060Y-161649760D01*
X197927660Y-148247800D02*
X197824860Y-148401400D01*
X198002660Y-148121800D02*
X197927660Y-148247800D01*
X195725460Y-154184700D02*
X195725460Y-154184700D01*
X195726660Y-154140760D02*
X195725460Y-154184700D01*
X202582380Y-157805900D02*
X210604620Y-157805900D01*
X201455420Y-156847780D02*
X202582380Y-157805900D01*
X214241880Y-152384900D02*
X214054380Y-152495340D01*
X214410940Y-152269881D02*
X214241880Y-152384900D01*
X213415060Y-155180900D02*
X213426140Y-155247200D01*
X213401600Y-155034960D02*
X213415060Y-155180900D01*
X194833660Y-150412560D02*
X194720260Y-150698140D01*
X194976260Y-150155620D02*
X194833660Y-150412560D01*
X202211380Y-152711820D02*
X202150421Y-152638600D01*
X202237981Y-152782040D02*
X202211380Y-152711820D01*
X204183600Y-160621540D02*
X204080980Y-160414960D01*
X204337920Y-160773240D02*
X204183600Y-160621540D01*
X204482220Y-160832380D02*
X204337920Y-160773240D01*
X204035500Y-162194780D02*
X204047560Y-162139460D01*
X204033660Y-162204240D02*
X204035500Y-162194780D01*
X204027240Y-162232760D02*
X204033660Y-162204240D01*
X204017380Y-162279960D02*
X204027240Y-162232760D01*
X207283780Y-161882620D02*
X207328480Y-162093880D01*
X207328480Y-161671240D02*
X207283780Y-161882620D01*
X207350720Y-161632620D02*
X207328480Y-161671240D01*
X194577860Y-156165180D02*
X194506460Y-156266520D01*
X194713060Y-156040700D02*
X194577860Y-156165180D01*
X214631740Y-152006640D02*
X214617640Y-152043960D01*
X214653560Y-151948900D02*
X214631740Y-152006640D01*
X204115360Y-161666780D02*
X204145200Y-161502960D01*
X204096380Y-161818700D02*
X204115360Y-161666780D01*
X204077380Y-161972120D02*
X204096380Y-161818700D01*
X204047560Y-162139460D02*
X204077380Y-161972120D01*
X198233860Y-148802100D02*
X197895260Y-149238100D01*
X198601140Y-148390800D02*
X198233860Y-148802100D01*
X198042060Y-160231780D02*
X198072260Y-160291680D01*
X197966460Y-160106340D02*
X198042060Y-160231780D01*
X197771460Y-161277140D02*
X197702260Y-161469640D01*
X197858060Y-161077600D02*
X197771460Y-161277140D01*
X207216600Y-162580960D02*
X207138140Y-162604280D01*
X207288860Y-162559600D02*
X207216600Y-162580960D01*
X206807980Y-156680040D02*
X206783880Y-156682540D01*
X206882080Y-156692180D02*
X206807980Y-156680040D01*
X200767800Y-147360000D02*
X200767620Y-147141800D01*
X200762280Y-147552000D02*
X200767800Y-147360000D01*
X204632620Y-163670700D02*
X204664640Y-163635760D01*
X204601020Y-163710200D02*
X204632620Y-163670700D01*
X204566420Y-163749480D02*
X204601020Y-163710200D01*
X204524980Y-163783880D02*
X204566420Y-163749480D01*
X209485360Y-149098120D02*
X209392500Y-149008600D01*
X209523240Y-149134780D02*
X209485360Y-149098120D01*
X208434700Y-146964800D02*
X208313160Y-146902000D01*
X208790600Y-147170400D02*
X208434700Y-146964800D01*
X213429060Y-152986780D02*
X213419080Y-153005340D01*
X213449660Y-152948480D02*
X213429060Y-152986780D01*
X206188160Y-150837600D02*
X206523360Y-151122520D01*
X201176880Y-150837600D02*
X206188160Y-150837600D01*
X197430260Y-159373060D02*
X197430260Y-159373060D01*
X197430260Y-159373060D02*
X197430260Y-159373060D01*
X201968340Y-152583900D02*
X201944360Y-152586280D01*
X201992420Y-152581400D02*
X201968340Y-152583900D01*
X201870700Y-161632620D02*
X203024220Y-159634680D01*
X201893020Y-161671240D02*
X201870700Y-161632620D01*
X201937740Y-161882620D02*
X201893020Y-161671240D01*
X200763240Y-146917600D02*
X200756640Y-146707800D01*
X200767620Y-147141800D02*
X200763240Y-146917600D01*
X212562840Y-149886740D02*
X212758060Y-149898560D01*
X212433200Y-149856040D02*
X212562840Y-149886740D01*
X207325980Y-162548620D02*
X207320440Y-162550260D01*
X207325980Y-162548620D02*
X207325980Y-162548620D01*
X197796060Y-162035920D02*
X197996260Y-162251100D01*
X197694460Y-161871880D02*
X197796060Y-162035920D01*
X204295060Y-161440680D02*
X204332500Y-161440680D01*
X204286580Y-161440680D02*
X204295060Y-161440680D01*
X204260980Y-161436200D02*
X204286580Y-161440680D01*
X204217020Y-161429480D02*
X204260980Y-161436200D01*
X204819140Y-163695020D02*
X204801340Y-163756320D01*
X204826420Y-163639780D02*
X204819140Y-163695020D01*
X204806880Y-163608840D02*
X204826420Y-163639780D01*
X204797860Y-163605920D02*
X204806880Y-163608840D01*
X209712700Y-151672980D02*
X209837700Y-151693380D01*
X209571080Y-151597040D02*
X209712700Y-151672980D01*
X208380880Y-146167000D02*
X208494280Y-145980200D01*
X208334340Y-146298800D02*
X208380880Y-146167000D01*
X200738640Y-150825540D02*
X200726480Y-150899640D01*
X200783660Y-150741680D02*
X200738640Y-150825540D01*
X202008380Y-154843980D02*
X202295581Y-156473020D01*
X202363300Y-154413020D02*
X202008380Y-154843980D01*
X200741340Y-147747600D02*
X200749060Y-147697000D01*
X200713240Y-147898400D02*
X200741340Y-147747600D01*
X204944880Y-160881100D02*
X204907780Y-160825320D01*
X204983520Y-160936760D02*
X204944880Y-160881100D01*
X205026840Y-160962140D02*
X204983520Y-160936760D01*
X205041140Y-160962140D02*
X205026840Y-160962140D01*
X205053200Y-160962140D02*
X205041140Y-160962140D01*
X197008460Y-157219540D02*
X197282660Y-157795700D01*
X196779060Y-156619700D02*
X197008460Y-157219540D01*
X196596860Y-155998620D02*
X196779060Y-156619700D01*
X206197280Y-159634680D02*
X207350720Y-161632620D01*
X206164720Y-159634680D02*
X206197280Y-159634680D01*
X206066860Y-159617320D02*
X206164720Y-159634680D01*
X213397160Y-154082040D02*
X213398560Y-154125900D01*
X213393880Y-153965400D02*
X213397160Y-154082040D01*
X198891420Y-145409200D02*
X198631860Y-145573800D01*
X199157880Y-145285200D02*
X198891420Y-145409200D01*
X214645520Y-156237640D02*
X214667780Y-156295160D01*
X214631200Y-156200320D02*
X214645520Y-156237640D01*
X198071060Y-160488401D02*
X198023260Y-160678061D01*
X198081060Y-160355600D02*
X198071060Y-160488401D01*
X196561060Y-158423740D02*
X196690860Y-158454460D01*
X196365860Y-158411900D02*
X196561060Y-158423740D01*
X199345200Y-145239400D02*
X199157880Y-145285200D01*
X199406700Y-145242400D02*
X199345200Y-145239400D01*
X212393880Y-149837480D02*
X212433200Y-149856040D01*
X212374800Y-149828380D02*
X212393880Y-149837480D01*
X207367000Y-162533760D02*
X207325980Y-162548620D01*
X207476240Y-162494820D02*
X207367000Y-162533760D01*
X196463860Y-155358200D02*
X196596860Y-155998620D01*
X196382660Y-154700880D02*
X196463860Y-155358200D01*
X207057000Y-153619040D02*
X201554920Y-153619040D01*
X207578920Y-152985260D02*
X207057000Y-153619040D01*
X196796860Y-158529200D02*
X196893660Y-158639340D01*
X196749060Y-158482120D02*
X196796860Y-158529200D01*
X204672860Y-163140540D02*
X204569780Y-163151700D01*
X204784860Y-163135540D02*
X204672860Y-163140540D01*
X204822160Y-163135540D02*
X204784860Y-163135540D01*
X204831380Y-163135540D02*
X204822160Y-163135540D01*
X213543980Y-155404760D02*
X213694880Y-155529100D01*
X213457060Y-155303840D02*
X213543980Y-155404760D01*
X199553940Y-149181540D02*
X199556440Y-149180160D01*
X199426880Y-149309480D02*
X199553940Y-149181540D01*
X208328920Y-146388200D02*
X208330740Y-146343800D01*
X208324240Y-146508200D02*
X208328920Y-146388200D01*
X204011200Y-160994600D02*
X203999800Y-161048960D01*
X204013700Y-160986020D02*
X204011200Y-160994600D01*
X204033880Y-160964320D02*
X204013700Y-160986020D01*
X204070100Y-160953040D02*
X204033880Y-160964320D01*
X204109380Y-160952380D02*
X204070100Y-160953040D01*
X196729860Y-158473120D02*
X196749060Y-158482120D01*
X196690860Y-158454460D02*
X196729860Y-158473120D01*
X195429260Y-152781380D02*
X195580060Y-152905620D01*
X195250260Y-152667021D02*
X195429260Y-152781380D01*
X208979080Y-148616400D02*
X208836940Y-148483800D01*
X209127200Y-148756000D02*
X208979080Y-148616400D01*
X201756000Y-152757740D02*
X201743720Y-152831840D01*
X201801020Y-152673840D02*
X201756000Y-152757740D01*
X211445660Y-146498200D02*
X211456200Y-146536800D01*
X211429500Y-146438800D02*
X211445660Y-146498200D01*
X197538460Y-154855920D02*
X197503860Y-154179480D01*
X197637660Y-155527140D02*
X197538460Y-154855920D01*
X196279660Y-158415060D02*
X197579660Y-158284620D01*
X200387280Y-162451840D02*
X201487440Y-161580840D01*
X197995660Y-160755560D02*
X198464260Y-159456740D01*
X200819140Y-158624820D02*
X200675060Y-158547320D01*
X200923740Y-158750560D02*
X200819140Y-158624820D01*
X214491561Y-157345520D02*
X214470381Y-157412340D01*
X214514140Y-157278980D02*
X214491561Y-157345520D01*
X207633280Y-162440240D02*
X207476240Y-162494820D01*
X207817300Y-162378380D02*
X207633280Y-162440240D01*
X206197280Y-164130560D02*
X206164720Y-164130560D01*
X207350720Y-162132620D02*
X206197280Y-164130560D01*
X207328480Y-162093880D02*
X207350720Y-162132620D01*
X197493060Y-148857460D02*
X197422460Y-148950320D01*
X197593260Y-148723600D02*
X197493060Y-148857460D01*
X194653460Y-150898120D02*
X194632260Y-150965100D01*
X194720260Y-150698140D02*
X194653460Y-150898120D01*
X204327280Y-163970840D02*
X204350940Y-163954680D01*
X204319360Y-163970840D02*
X204327280Y-163970840D01*
X204303600Y-163970840D02*
X204319360Y-163970840D01*
X204256200Y-163952180D02*
X204303600Y-163970840D01*
X204349860Y-160973320D02*
X204344000Y-160975520D01*
X204352660Y-160981780D02*
X204349860Y-160973320D01*
X204357880Y-161003600D02*
X204352660Y-160981780D01*
X204359940Y-161010880D02*
X204357880Y-161003600D01*
X204362860Y-161026820D02*
X204359940Y-161010880D01*
X209535600Y-149147260D02*
X209523240Y-149134780D01*
X209663640Y-149274320D02*
X209535600Y-149147260D01*
X200120360Y-158956840D02*
X200124480Y-158998180D01*
X200141200Y-158829460D02*
X200120360Y-158956840D01*
X199623500Y-163062100D02*
X199783100Y-162971040D01*
X199505220Y-163099740D02*
X199623500Y-163062100D01*
X198322660Y-157459120D02*
X198029660Y-156833780D01*
X198680020Y-158059160D02*
X198322660Y-157459120D01*
X195734260Y-154908420D02*
X195728060Y-155093120D01*
X195735460Y-154707380D02*
X195734260Y-154908420D01*
X208310560Y-147117600D02*
X208313380Y-146893400D01*
X208311740Y-147335800D02*
X208310560Y-147117600D01*
X204895200Y-161464980D02*
X204912020Y-161519980D01*
X204893480Y-161455840D02*
X204895200Y-161464980D01*
X204881300Y-161430140D02*
X204893480Y-161455840D01*
X204856700Y-161393040D02*
X204881300Y-161430140D01*
X207341280Y-151637520D02*
X207578920Y-152985260D01*
X207178080Y-150712040D02*
X207341280Y-151637520D01*
X200218660Y-158685340D02*
X200141200Y-158829460D01*
X200344420Y-158580760D02*
X200218660Y-158685340D01*
X203377080Y-164276180D02*
X203274220Y-164197520D01*
X203441000Y-164352240D02*
X203377080Y-164276180D01*
X203457280Y-164380560D02*
X203441000Y-164352240D01*
X211088660Y-160269880D02*
X211083140Y-160312840D01*
X211091380Y-160248820D02*
X211088660Y-160269880D01*
X211656800Y-157655620D02*
X211906580Y-157100820D01*
X211367640Y-158187520D02*
X211656800Y-157655620D01*
X194472660Y-151530740D02*
X194440060Y-151822920D01*
X194546660Y-151232540D02*
X194472660Y-151530740D01*
X205067500Y-162288020D02*
X205059360Y-162346820D01*
X205067500Y-162229180D02*
X205067500Y-162288020D01*
X205065440Y-162219100D02*
X205067500Y-162229180D01*
X196337860Y-149952280D02*
X196125860Y-149941100D01*
X196533060Y-149939260D02*
X196337860Y-149952280D01*
X209063280Y-145459600D02*
X209278880Y-145332600D01*
X208850500Y-145616400D02*
X209063280Y-145459600D01*
X212115920Y-149525960D02*
X212230380Y-149671120D01*
X211995580Y-149364700D02*
X212115920Y-149525960D01*
X203674720Y-162581280D02*
X203718780Y-162741680D01*
X203662560Y-162527380D02*
X203674720Y-162581280D01*
X205065440Y-162219100D02*
X205065440Y-162219100D01*
X205052340Y-162162780D02*
X205065440Y-162219100D01*
X214558940Y-156099520D02*
X214631200Y-156200320D01*
X214422980Y-155975920D02*
X214558940Y-156099520D01*
X210203921Y-151071540D02*
X210101240Y-150948040D01*
X210248940Y-151190020D02*
X210203921Y-151071540D01*
X206559280Y-156930460D02*
X206561660Y-156954560D01*
X206571420Y-156856340D02*
X206559280Y-156930460D01*
X201859160Y-162568480D02*
X201859160Y-162568480D01*
X201859160Y-162568480D02*
X201859160Y-162568480D01*
X211693380Y-148937520D02*
X211693380Y-148937520D01*
X211693380Y-148937520D02*
X211693380Y-148937520D01*
X204311220Y-163167980D02*
X204305700Y-163167980D01*
X204349740Y-163167980D02*
X204311220Y-163167980D01*
X204465300Y-163162900D02*
X204349740Y-163167980D01*
X204569780Y-163151700D02*
X204465300Y-163162900D01*
X197942260Y-146101600D02*
X197744260Y-146319000D01*
X198177460Y-145904000D02*
X197942260Y-146101600D01*
X211052740Y-147822200D02*
X211042780Y-147955000D01*
X211100600Y-147632600D02*
X211052740Y-147822200D01*
X196662460Y-149907680D02*
X196533060Y-149939260D01*
X196701460Y-149888900D02*
X196662460Y-149907680D01*
X197947260Y-160876200D02*
X197858060Y-161077600D01*
X198023260Y-160678061D02*
X197947260Y-160876200D01*
X195697860Y-153063400D02*
X195708860Y-153129560D01*
X195687660Y-153044840D02*
X195697860Y-153063400D01*
X205061440Y-163784320D02*
X205073580Y-163755760D01*
X205057300Y-163784320D02*
X205061440Y-163784320D01*
X205044080Y-163784320D02*
X205057300Y-163784320D01*
X205004240Y-163791900D02*
X205044080Y-163784320D01*
X210719980Y-162572920D02*
X210663520Y-162614480D01*
X210777360Y-162532340D02*
X210719980Y-162572920D01*
X195722260Y-153275520D02*
X195729660Y-153460320D01*
X195708860Y-153129560D02*
X195722260Y-153275520D01*
X209236880Y-162814380D02*
X209073920Y-162670140D01*
X209398660Y-162939600D02*
X209236880Y-162814380D01*
X208779000Y-162415180D02*
X207669620Y-161478100D01*
X211174500Y-160720840D02*
X210646380Y-159213980D01*
X213596700Y-158419520D02*
X211376860Y-158172020D01*
X197242460Y-159104280D02*
X197338860Y-159240900D01*
X197128260Y-158945880D02*
X197242460Y-159104280D01*
X211299160Y-159908980D02*
X211196420Y-160062740D01*
X211415380Y-159744700D02*
X211299160Y-159908980D01*
X202092801Y-162637520D02*
X202203140Y-162671240D01*
X201971700Y-162601260D02*
X202092801Y-162637520D01*
X204360700Y-161076960D02*
X204362860Y-161026820D01*
X204353860Y-161138600D02*
X204360700Y-161076960D01*
X204362220Y-161190980D02*
X204353860Y-161138600D01*
X204395300Y-161224320D02*
X204362220Y-161190980D01*
X204408560Y-161229840D02*
X204395300Y-161224320D01*
X210664300Y-145697600D02*
X210721480Y-145738200D01*
X210608080Y-145655600D02*
X210664300Y-145697600D01*
X206616440Y-156772480D02*
X206571420Y-156856340D01*
X206689700Y-156711520D02*
X206616440Y-156772480D01*
X202018140Y-153078160D02*
X202042221Y-153075640D01*
X201994161Y-153080540D02*
X202018140Y-153078160D01*
X210236560Y-151396060D02*
X210257081Y-151271060D01*
X210160600Y-151537560D02*
X210236560Y-151396060D01*
X204798940Y-163815680D02*
X204805880Y-163836280D01*
X204797860Y-163808620D02*
X204798940Y-163815680D01*
X204794500Y-163796780D02*
X204797860Y-163808620D01*
X204801340Y-163756320D02*
X204794500Y-163796780D01*
X213971580Y-158335840D02*
X213938160Y-158357760D01*
X214023240Y-158301980D02*
X213971580Y-158335840D01*
X195695060Y-155323900D02*
X195674460Y-155362100D01*
X195705060Y-155305260D02*
X195695060Y-155323900D01*
X212326940Y-149781260D02*
X212374800Y-149828380D01*
X212230380Y-149671120D02*
X212326940Y-149781260D01*
X200902800Y-151136200D02*
X200976920Y-151148340D01*
X200818800Y-151091180D02*
X200902800Y-151136200D01*
X209635220Y-150904760D02*
X209511740Y-151007520D01*
X209753720Y-150859740D02*
X209635220Y-150904760D01*
X211506860Y-161604180D02*
X211506000Y-161728200D01*
X211469520Y-161424280D02*
X211506860Y-161604180D01*
X213392620Y-154453560D02*
X213391840Y-154649020D01*
X213394880Y-154286380D02*
X213392620Y-154453560D01*
X209419300Y-151314600D02*
X209423420Y-151355060D01*
X206935660Y-154437960D02*
X206935660Y-154437960D01*
X212401160Y-155316960D02*
X212474860Y-154688820D01*
X212280720Y-155929600D02*
X212401160Y-155316960D01*
X200550700Y-159384120D02*
X200591920Y-159380020D01*
X200423300Y-159363280D02*
X200550700Y-159384120D01*
X195906860Y-149918660D02*
X195690260Y-149897820D01*
X196125860Y-149941100D02*
X195906860Y-149918660D01*
X200728860Y-150923740D02*
X200731240Y-150947740D01*
X200124480Y-158998180D02*
X200124480Y-158998180D01*
X204858860Y-163138700D02*
X204831380Y-163135540D01*
X204908340Y-163142600D02*
X204858860Y-163138700D01*
X204953360Y-163138900D02*
X204908340Y-163142600D01*
X212422440Y-158421900D02*
X212403440Y-158431020D01*
X212461600Y-158403020D02*
X212422440Y-158421900D01*
X210492000Y-162737020D02*
X210232560Y-162901400D01*
X210663520Y-162614480D02*
X210492000Y-162737020D01*
X212499800Y-153901060D02*
X212481580Y-153463560D01*
X212499800Y-154047020D02*
X212499800Y-153901060D01*
X202230700Y-152904200D02*
X202242861Y-152830100D01*
X202185660Y-152988100D02*
X202230700Y-152904200D01*
X200969640Y-158871240D02*
X200923740Y-158750560D01*
X200973740Y-158912560D02*
X200969640Y-158871240D01*
X194701060Y-152334640D02*
X194870860Y-152448600D01*
X194565060Y-152210960D02*
X194701060Y-152334640D01*
X206965940Y-156737200D02*
X206882080Y-156692180D01*
X207026840Y-156810460D02*
X206965940Y-156737200D01*
X214253160Y-155861900D02*
X214422980Y-155975920D01*
X214064920Y-155752740D02*
X214253160Y-155861900D01*
X197654460Y-146886200D02*
X197724860Y-147078200D01*
X197617060Y-146706200D02*
X197654460Y-146886200D01*
X211327920Y-146274600D02*
X211429500Y-146438800D01*
X211127640Y-146059400D02*
X211327920Y-146274600D01*
X211494500Y-148677400D02*
X211595380Y-148810460D01*
X211378160Y-148520600D02*
X211494500Y-148677400D01*
X197395660Y-148985140D02*
X197395660Y-148985260D01*
X197422460Y-148950320D02*
X197395660Y-148985140D01*
X206651720Y-157121880D02*
X206735580Y-157166900D01*
X206590840Y-157048740D02*
X206651720Y-157121880D01*
X200754580Y-147661000D02*
X200762280Y-147552000D01*
X200749060Y-147697000D02*
X200754580Y-147661000D01*
X194456060Y-156553840D02*
X194491660Y-156845620D01*
X194470460Y-156361460D02*
X194456060Y-156553840D01*
X204808080Y-160621540D02*
X204701200Y-160773240D01*
X204863300Y-160414960D02*
X204808080Y-160621540D01*
X204878920Y-160247520D02*
X204863300Y-160414960D01*
X203922000Y-161655520D02*
X203913520Y-161782780D01*
X203930580Y-161528240D02*
X203922000Y-161655520D01*
X203944580Y-161385880D02*
X203930580Y-161528240D01*
X203969640Y-161213020D02*
X203944580Y-161385880D01*
X203999800Y-161048960D02*
X203969640Y-161213020D01*
X207001220Y-157086700D02*
X207046240Y-157002840D01*
X206927980Y-157147600D02*
X207001220Y-157086700D01*
X211585520Y-153454680D02*
X211486240Y-152783420D01*
X211620140Y-154131100D02*
X211585520Y-153454680D01*
X213535840Y-152846920D02*
X213449660Y-152948480D01*
X213685880Y-152721600D02*
X213535840Y-152846920D01*
X213394440Y-154850180D02*
X213401600Y-155034960D01*
X213391840Y-154649020D02*
X213394440Y-154850180D01*
X199568800Y-149167560D02*
X199606480Y-149130560D01*
X199556440Y-149180160D02*
X199568800Y-149167560D01*
X198300060Y-150894340D02*
X198653340Y-150291900D01*
X198011460Y-151521740D02*
X198300060Y-150894340D01*
X200444020Y-148333800D02*
X200467700Y-148313200D01*
X200374240Y-148397000D02*
X200444020Y-148333800D01*
X197395660Y-148985260D02*
X197371260Y-149021520D01*
X197395660Y-148985260D02*
X197395660Y-148985260D01*
X211322500Y-152122520D02*
X211094200Y-151476780D01*
X211486240Y-152783420D02*
X211322500Y-152122520D01*
X202444780Y-160908120D02*
X202246560Y-160848120D01*
X202246560Y-160848120D02*
X201666800Y-160617420D01*
X201666800Y-160617420D02*
X200933500Y-160230060D01*
X200933500Y-160230060D02*
X200241880Y-159745560D01*
X200241880Y-159745560D02*
X199743300Y-159317400D01*
X199743300Y-159317400D02*
X199588240Y-159163420D01*
D13*
X202512100Y-127397800D02*
X207712100Y-127397800D01*
X207712100Y-127397800D02*
X207712100Y-143597800D01*
X207712100Y-143597800D02*
X202512100Y-143597800D01*
X202512100Y-143597800D02*
X202512100Y-127397800D01*
X204112100Y-127087800D02*
X202202100Y-127087800D01*
X202202100Y-127087800D02*
X202202100Y-128997800D01*
X206112100Y-127397800D02*
X206112100Y-127797800D01*
X206112100Y-127797800D02*
X207312100Y-127797800D01*
X207312100Y-127797800D02*
X207312100Y-143197800D01*
X207312100Y-143197800D02*
X206112100Y-143197800D01*
X206112100Y-143197800D02*
X206112100Y-143597800D01*
X205112100Y-127397800D02*
X205112100Y-127797800D01*
X205112100Y-127797800D02*
X202912100Y-127797800D01*
X202912100Y-127797800D02*
X202912100Y-129997800D01*
X202912100Y-129997800D02*
X202512100Y-129997800D01*
X205112100Y-143597800D02*
X205112100Y-143197800D01*
X205112100Y-143197800D02*
X202912100Y-143197800D01*
X202912100Y-143197800D02*
X202912100Y-140997800D01*
X202912100Y-140997800D02*
X202512100Y-140997800D01*
X202512100Y-130997800D02*
X202912100Y-130997800D01*
X202912100Y-130997800D02*
X202912100Y-139997800D01*
X202912100Y-139997800D02*
X202512100Y-139997800D01*
X210856100Y-138585800D02*
X210856100Y-139515800D01*
X210856100Y-141745800D02*
X210856100Y-140815800D01*
X210856100Y-141745800D02*
X208696100Y-141745800D01*
X210856100Y-138585800D02*
X209396100Y-138585800D01*
X210195100Y-130694067D02*
X210195100Y-130401533D01*
X209175100Y-130694067D02*
X209175100Y-130401533D01*
X211846100Y-130694067D02*
X211846100Y-130401533D01*
X210826100Y-130694067D02*
X210826100Y-130401533D01*
X209826376Y-143228300D02*
X210335824Y-143228300D01*
X209826376Y-142183300D02*
X210335824Y-142183300D01*
D10*
X200864480Y-135164466D02*
X201578766Y-135164466D01*
X201721623Y-135116847D01*
X201816861Y-135021609D01*
X201864480Y-134878752D01*
X201864480Y-134783514D01*
X201864480Y-136164466D02*
X201864480Y-135593038D01*
X201864480Y-135878752D02*
X200864480Y-135878752D01*
X201007338Y-135783514D01*
X201102576Y-135688276D01*
X201150195Y-135593038D01*
X210667528Y-143213419D02*
X210762766Y-143165800D01*
X210858004Y-143070561D01*
X211000861Y-142927704D01*
X211096100Y-142880085D01*
X211191338Y-142880085D01*
X211143719Y-143118180D02*
X211238957Y-143070561D01*
X211334195Y-142975323D01*
X211381814Y-142784847D01*
X211381814Y-142451514D01*
X211334195Y-142261038D01*
X211238957Y-142165800D01*
X211143719Y-142118180D01*
X210953242Y-142118180D01*
X210858004Y-142165800D01*
X210762766Y-142261038D01*
X210715147Y-142451514D01*
X210715147Y-142784847D01*
X210762766Y-142975323D01*
X210858004Y-143070561D01*
X210953242Y-143118180D01*
X211143719Y-143118180D01*
X210334195Y-142213419D02*
X210286576Y-142165800D01*
X210191338Y-142118180D01*
X209953242Y-142118180D01*
X209858004Y-142165800D01*
X209810385Y-142213419D01*
X209762766Y-142308657D01*
X209762766Y-142403895D01*
X209810385Y-142546752D01*
X210381814Y-143118180D01*
X209762766Y-143118180D01*
X208858004Y-142118180D02*
X209334195Y-142118180D01*
X209381814Y-142594371D01*
X209334195Y-142546752D01*
X209238957Y-142499133D01*
X209000861Y-142499133D01*
X208905623Y-142546752D01*
X208858004Y-142594371D01*
X208810385Y-142689609D01*
X208810385Y-142927704D01*
X208858004Y-143022942D01*
X208905623Y-143070561D01*
X209000861Y-143118180D01*
X209238957Y-143118180D01*
X209334195Y-143070561D01*
X209381814Y-143022942D01*
X209978742Y-126856942D02*
X210026361Y-126809323D01*
X210073980Y-126666466D01*
X210073980Y-126571228D01*
X210026361Y-126428371D01*
X209931123Y-126333133D01*
X209835885Y-126285514D01*
X209645409Y-126237895D01*
X209502552Y-126237895D01*
X209312076Y-126285514D01*
X209216838Y-126333133D01*
X209121600Y-126428371D01*
X209073980Y-126571228D01*
X209073980Y-126666466D01*
X209121600Y-126809323D01*
X209169219Y-126856942D01*
X209169219Y-127237895D02*
X209121600Y-127285514D01*
X209073980Y-127380752D01*
X209073980Y-127618847D01*
X209121600Y-127714085D01*
X209169219Y-127761704D01*
X209264457Y-127809323D01*
X209359695Y-127809323D01*
X209502552Y-127761704D01*
X210073980Y-127190276D01*
X210073980Y-127809323D01*
X209073980Y-128714085D02*
X209073980Y-128237895D01*
X209550171Y-128190276D01*
X209502552Y-128237895D01*
X209454933Y-128333133D01*
X209454933Y-128571228D01*
X209502552Y-128666466D01*
X209550171Y-128714085D01*
X209645409Y-128761704D01*
X209883504Y-128761704D01*
X209978742Y-128714085D01*
X210026361Y-128666466D01*
X210073980Y-128571228D01*
X210073980Y-128333133D01*
X210026361Y-128237895D01*
X209978742Y-128190276D01*
X211629742Y-126856942D02*
X211677361Y-126809323D01*
X211724980Y-126666466D01*
X211724980Y-126571228D01*
X211677361Y-126428371D01*
X211582123Y-126333133D01*
X211486885Y-126285514D01*
X211296409Y-126237895D01*
X211153552Y-126237895D01*
X210963076Y-126285514D01*
X210867838Y-126333133D01*
X210772600Y-126428371D01*
X210724980Y-126571228D01*
X210724980Y-126666466D01*
X210772600Y-126809323D01*
X210820219Y-126856942D01*
X210820219Y-127237895D02*
X210772600Y-127285514D01*
X210724980Y-127380752D01*
X210724980Y-127618847D01*
X210772600Y-127714085D01*
X210820219Y-127761704D01*
X210915457Y-127809323D01*
X211010695Y-127809323D01*
X211153552Y-127761704D01*
X211724980Y-127190276D01*
X211724980Y-127809323D01*
X210724980Y-128666466D02*
X210724980Y-128475990D01*
X210772600Y-128380752D01*
X210820219Y-128333133D01*
X210963076Y-128237895D01*
X211153552Y-128190276D01*
X211534504Y-128190276D01*
X211629742Y-128237895D01*
X211677361Y-128285514D01*
X211724980Y-128380752D01*
X211724980Y-128571228D01*
X211677361Y-128666466D01*
X211629742Y-128714085D01*
X211534504Y-128761704D01*
X211296409Y-128761704D01*
X211201171Y-128714085D01*
X211153552Y-128666466D01*
X211105933Y-128571228D01*
X211105933Y-128380752D01*
X211153552Y-128285514D01*
X211201171Y-128237895D01*
X211296409Y-128190276D01*
X210723957Y-144588180D02*
X211057290Y-144111990D01*
X211295385Y-144588180D02*
X211295385Y-143588180D01*
X210914433Y-143588180D01*
X210819195Y-143635800D01*
X210771576Y-143683419D01*
X210723957Y-143778657D01*
X210723957Y-143921514D01*
X210771576Y-144016752D01*
X210819195Y-144064371D01*
X210914433Y-144111990D01*
X211295385Y-144111990D01*
X209866814Y-143921514D02*
X209866814Y-144588180D01*
X210104909Y-143540561D02*
X210343004Y-144254847D01*
X209723957Y-144254847D01*
X209295385Y-144588180D02*
X209104909Y-144588180D01*
X209009671Y-144540561D01*
X208962052Y-144492942D01*
X208866814Y-144350085D01*
X208819195Y-144159609D01*
X208819195Y-143778657D01*
X208866814Y-143683419D01*
X208914433Y-143635800D01*
X209009671Y-143588180D01*
X209200147Y-143588180D01*
X209295385Y-143635800D01*
X209343004Y-143683419D01*
X209390623Y-143778657D01*
X209390623Y-144016752D01*
X209343004Y-144111990D01*
X209295385Y-144159609D01*
X209200147Y-144207228D01*
X209009671Y-144207228D01*
X208914433Y-144159609D01*
X208866814Y-144111990D01*
X208819195Y-144016752D01*
%LPC*%
D14*
G36*
X204743438Y-128848106D02*
G01*
X204769769Y-128852012D01*
X204795590Y-128858480D01*
X204820653Y-128867448D01*
X204844717Y-128878829D01*
X204867549Y-128892514D01*
X204888930Y-128908371D01*
X204908653Y-128926247D01*
X204926529Y-128945970D01*
X204942386Y-128967351D01*
X204956071Y-128990183D01*
X204967452Y-129014247D01*
X204976420Y-129039310D01*
X204982888Y-129065131D01*
X204986794Y-129091462D01*
X204988100Y-129118049D01*
X204988100Y-129877551D01*
X204986794Y-129904138D01*
X204982888Y-129930469D01*
X204976420Y-129956290D01*
X204967452Y-129981353D01*
X204956071Y-130005417D01*
X204942386Y-130028249D01*
X204926529Y-130049630D01*
X204908653Y-130069353D01*
X204888930Y-130087229D01*
X204867549Y-130103086D01*
X204844717Y-130116771D01*
X204820653Y-130128152D01*
X204795590Y-130137120D01*
X204769769Y-130143588D01*
X204743438Y-130147494D01*
X204716851Y-130148800D01*
X203507349Y-130148800D01*
X203480762Y-130147494D01*
X203454431Y-130143588D01*
X203428610Y-130137120D01*
X203403547Y-130128152D01*
X203379483Y-130116771D01*
X203356651Y-130103086D01*
X203335270Y-130087229D01*
X203315547Y-130069353D01*
X203297671Y-130049630D01*
X203281814Y-130028249D01*
X203268129Y-130005417D01*
X203256748Y-129981353D01*
X203247780Y-129956290D01*
X203241312Y-129930469D01*
X203237406Y-129904138D01*
X203236100Y-129877551D01*
X203236100Y-129118049D01*
X203237406Y-129091462D01*
X203241312Y-129065131D01*
X203247780Y-129039310D01*
X203256748Y-129014247D01*
X203268129Y-128990183D01*
X203281814Y-128967351D01*
X203297671Y-128945970D01*
X203315547Y-128926247D01*
X203335270Y-128908371D01*
X203356651Y-128892514D01*
X203379483Y-128878829D01*
X203403547Y-128867448D01*
X203428610Y-128858480D01*
X203454431Y-128852012D01*
X203480762Y-128848106D01*
X203507349Y-128846800D01*
X204716851Y-128846800D01*
X204743438Y-128848106D01*
G37*
D15*
X204112100Y-131497800D03*
X204112100Y-133497800D03*
X204112100Y-135497800D03*
X204112100Y-137497800D03*
X204112100Y-139497800D03*
X204112100Y-141497800D03*
X206112100Y-129497800D03*
X206112100Y-131497800D03*
X206112100Y-133497800D03*
X206112100Y-135497800D03*
X206112100Y-137497800D03*
X206112100Y-139497800D03*
X206112100Y-141497800D03*
D16*
X209096100Y-141115800D03*
X209096100Y-139215800D03*
X211096100Y-140165800D03*
D14*
G36*
X209973879Y-130823066D02*
G01*
X209999409Y-130826853D01*
X210024445Y-130833125D01*
X210048746Y-130841820D01*
X210072077Y-130852855D01*
X210094215Y-130866123D01*
X210114945Y-130881498D01*
X210134069Y-130898831D01*
X210151402Y-130917955D01*
X210166777Y-130938685D01*
X210180045Y-130960823D01*
X210191080Y-130984154D01*
X210199775Y-131008455D01*
X210206047Y-131033491D01*
X210209834Y-131059021D01*
X210211100Y-131084800D01*
X210211100Y-131735800D01*
X210209834Y-131761579D01*
X210206047Y-131787109D01*
X210199775Y-131812145D01*
X210191080Y-131836446D01*
X210180045Y-131859777D01*
X210166777Y-131881915D01*
X210151402Y-131902645D01*
X210134069Y-131921769D01*
X210114945Y-131939102D01*
X210094215Y-131954477D01*
X210072077Y-131967745D01*
X210048746Y-131978780D01*
X210024445Y-131987475D01*
X209999409Y-131993747D01*
X209973879Y-131997534D01*
X209948100Y-131998800D01*
X209422100Y-131998800D01*
X209396321Y-131997534D01*
X209370791Y-131993747D01*
X209345755Y-131987475D01*
X209321454Y-131978780D01*
X209298123Y-131967745D01*
X209275985Y-131954477D01*
X209255255Y-131939102D01*
X209236131Y-131921769D01*
X209218798Y-131902645D01*
X209203423Y-131881915D01*
X209190155Y-131859777D01*
X209179120Y-131836446D01*
X209170425Y-131812145D01*
X209164153Y-131787109D01*
X209160366Y-131761579D01*
X209159100Y-131735800D01*
X209159100Y-131084800D01*
X209160366Y-131059021D01*
X209164153Y-131033491D01*
X209170425Y-131008455D01*
X209179120Y-130984154D01*
X209190155Y-130960823D01*
X209203423Y-130938685D01*
X209218798Y-130917955D01*
X209236131Y-130898831D01*
X209255255Y-130881498D01*
X209275985Y-130866123D01*
X209298123Y-130852855D01*
X209321454Y-130841820D01*
X209345755Y-130833125D01*
X209370791Y-130826853D01*
X209396321Y-130823066D01*
X209422100Y-130821800D01*
X209948100Y-130821800D01*
X209973879Y-130823066D01*
G37*
G36*
X209973879Y-129098066D02*
G01*
X209999409Y-129101853D01*
X210024445Y-129108125D01*
X210048746Y-129116820D01*
X210072077Y-129127855D01*
X210094215Y-129141123D01*
X210114945Y-129156498D01*
X210134069Y-129173831D01*
X210151402Y-129192955D01*
X210166777Y-129213685D01*
X210180045Y-129235823D01*
X210191080Y-129259154D01*
X210199775Y-129283455D01*
X210206047Y-129308491D01*
X210209834Y-129334021D01*
X210211100Y-129359800D01*
X210211100Y-130010800D01*
X210209834Y-130036579D01*
X210206047Y-130062109D01*
X210199775Y-130087145D01*
X210191080Y-130111446D01*
X210180045Y-130134777D01*
X210166777Y-130156915D01*
X210151402Y-130177645D01*
X210134069Y-130196769D01*
X210114945Y-130214102D01*
X210094215Y-130229477D01*
X210072077Y-130242745D01*
X210048746Y-130253780D01*
X210024445Y-130262475D01*
X209999409Y-130268747D01*
X209973879Y-130272534D01*
X209948100Y-130273800D01*
X209422100Y-130273800D01*
X209396321Y-130272534D01*
X209370791Y-130268747D01*
X209345755Y-130262475D01*
X209321454Y-130253780D01*
X209298123Y-130242745D01*
X209275985Y-130229477D01*
X209255255Y-130214102D01*
X209236131Y-130196769D01*
X209218798Y-130177645D01*
X209203423Y-130156915D01*
X209190155Y-130134777D01*
X209179120Y-130111446D01*
X209170425Y-130087145D01*
X209164153Y-130062109D01*
X209160366Y-130036579D01*
X209159100Y-130010800D01*
X209159100Y-129359800D01*
X209160366Y-129334021D01*
X209164153Y-129308491D01*
X209170425Y-129283455D01*
X209179120Y-129259154D01*
X209190155Y-129235823D01*
X209203423Y-129213685D01*
X209218798Y-129192955D01*
X209236131Y-129173831D01*
X209255255Y-129156498D01*
X209275985Y-129141123D01*
X209298123Y-129127855D01*
X209321454Y-129116820D01*
X209345755Y-129108125D01*
X209370791Y-129101853D01*
X209396321Y-129098066D01*
X209422100Y-129096800D01*
X209948100Y-129096800D01*
X209973879Y-129098066D01*
G37*
G36*
X211624879Y-130823066D02*
G01*
X211650409Y-130826853D01*
X211675445Y-130833125D01*
X211699746Y-130841820D01*
X211723077Y-130852855D01*
X211745215Y-130866123D01*
X211765945Y-130881498D01*
X211785069Y-130898831D01*
X211802402Y-130917955D01*
X211817777Y-130938685D01*
X211831045Y-130960823D01*
X211842080Y-130984154D01*
X211850775Y-131008455D01*
X211857047Y-131033491D01*
X211860834Y-131059021D01*
X211862100Y-131084800D01*
X211862100Y-131735800D01*
X211860834Y-131761579D01*
X211857047Y-131787109D01*
X211850775Y-131812145D01*
X211842080Y-131836446D01*
X211831045Y-131859777D01*
X211817777Y-131881915D01*
X211802402Y-131902645D01*
X211785069Y-131921769D01*
X211765945Y-131939102D01*
X211745215Y-131954477D01*
X211723077Y-131967745D01*
X211699746Y-131978780D01*
X211675445Y-131987475D01*
X211650409Y-131993747D01*
X211624879Y-131997534D01*
X211599100Y-131998800D01*
X211073100Y-131998800D01*
X211047321Y-131997534D01*
X211021791Y-131993747D01*
X210996755Y-131987475D01*
X210972454Y-131978780D01*
X210949123Y-131967745D01*
X210926985Y-131954477D01*
X210906255Y-131939102D01*
X210887131Y-131921769D01*
X210869798Y-131902645D01*
X210854423Y-131881915D01*
X210841155Y-131859777D01*
X210830120Y-131836446D01*
X210821425Y-131812145D01*
X210815153Y-131787109D01*
X210811366Y-131761579D01*
X210810100Y-131735800D01*
X210810100Y-131084800D01*
X210811366Y-131059021D01*
X210815153Y-131033491D01*
X210821425Y-131008455D01*
X210830120Y-130984154D01*
X210841155Y-130960823D01*
X210854423Y-130938685D01*
X210869798Y-130917955D01*
X210887131Y-130898831D01*
X210906255Y-130881498D01*
X210926985Y-130866123D01*
X210949123Y-130852855D01*
X210972454Y-130841820D01*
X210996755Y-130833125D01*
X211021791Y-130826853D01*
X211047321Y-130823066D01*
X211073100Y-130821800D01*
X211599100Y-130821800D01*
X211624879Y-130823066D01*
G37*
G36*
X211624879Y-129098066D02*
G01*
X211650409Y-129101853D01*
X211675445Y-129108125D01*
X211699746Y-129116820D01*
X211723077Y-129127855D01*
X211745215Y-129141123D01*
X211765945Y-129156498D01*
X211785069Y-129173831D01*
X211802402Y-129192955D01*
X211817777Y-129213685D01*
X211831045Y-129235823D01*
X211842080Y-129259154D01*
X211850775Y-129283455D01*
X211857047Y-129308491D01*
X211860834Y-129334021D01*
X211862100Y-129359800D01*
X211862100Y-130010800D01*
X211860834Y-130036579D01*
X211857047Y-130062109D01*
X211850775Y-130087145D01*
X211842080Y-130111446D01*
X211831045Y-130134777D01*
X211817777Y-130156915D01*
X211802402Y-130177645D01*
X211785069Y-130196769D01*
X211765945Y-130214102D01*
X211745215Y-130229477D01*
X211723077Y-130242745D01*
X211699746Y-130253780D01*
X211675445Y-130262475D01*
X211650409Y-130268747D01*
X211624879Y-130272534D01*
X211599100Y-130273800D01*
X211073100Y-130273800D01*
X211047321Y-130272534D01*
X211021791Y-130268747D01*
X210996755Y-130262475D01*
X210972454Y-130253780D01*
X210949123Y-130242745D01*
X210926985Y-130229477D01*
X210906255Y-130214102D01*
X210887131Y-130196769D01*
X210869798Y-130177645D01*
X210854423Y-130156915D01*
X210841155Y-130134777D01*
X210830120Y-130111446D01*
X210821425Y-130087145D01*
X210815153Y-130062109D01*
X210811366Y-130036579D01*
X210810100Y-130010800D01*
X210810100Y-129359800D01*
X210811366Y-129334021D01*
X210815153Y-129308491D01*
X210821425Y-129283455D01*
X210830120Y-129259154D01*
X210841155Y-129235823D01*
X210854423Y-129213685D01*
X210869798Y-129192955D01*
X210887131Y-129173831D01*
X210906255Y-129156498D01*
X210926985Y-129141123D01*
X210949123Y-129127855D01*
X210972454Y-129116820D01*
X210996755Y-129108125D01*
X211021791Y-129101853D01*
X211047321Y-129098066D01*
X211073100Y-129096800D01*
X211599100Y-129096800D01*
X211624879Y-129098066D01*
G37*
G36*
X209469879Y-142181066D02*
G01*
X209495409Y-142184853D01*
X209520445Y-142191125D01*
X209544746Y-142199820D01*
X209568077Y-142210855D01*
X209590215Y-142224123D01*
X209610945Y-142239498D01*
X209630069Y-142256831D01*
X209647402Y-142275955D01*
X209662777Y-142296685D01*
X209676045Y-142318823D01*
X209687080Y-142342154D01*
X209695775Y-142366455D01*
X209702047Y-142391491D01*
X209705834Y-142417021D01*
X209707100Y-142442800D01*
X209707100Y-142968800D01*
X209705834Y-142994579D01*
X209702047Y-143020109D01*
X209695775Y-143045145D01*
X209687080Y-143069446D01*
X209676045Y-143092777D01*
X209662777Y-143114915D01*
X209647402Y-143135645D01*
X209630069Y-143154769D01*
X209610945Y-143172102D01*
X209590215Y-143187477D01*
X209568077Y-143200745D01*
X209544746Y-143211780D01*
X209520445Y-143220475D01*
X209495409Y-143226747D01*
X209469879Y-143230534D01*
X209444100Y-143231800D01*
X208893100Y-143231800D01*
X208867321Y-143230534D01*
X208841791Y-143226747D01*
X208816755Y-143220475D01*
X208792454Y-143211780D01*
X208769123Y-143200745D01*
X208746985Y-143187477D01*
X208726255Y-143172102D01*
X208707131Y-143154769D01*
X208689798Y-143135645D01*
X208674423Y-143114915D01*
X208661155Y-143092777D01*
X208650120Y-143069446D01*
X208641425Y-143045145D01*
X208635153Y-143020109D01*
X208631366Y-142994579D01*
X208630100Y-142968800D01*
X208630100Y-142442800D01*
X208631366Y-142417021D01*
X208635153Y-142391491D01*
X208641425Y-142366455D01*
X208650120Y-142342154D01*
X208661155Y-142318823D01*
X208674423Y-142296685D01*
X208689798Y-142275955D01*
X208707131Y-142256831D01*
X208726255Y-142239498D01*
X208746985Y-142224123D01*
X208769123Y-142210855D01*
X208792454Y-142199820D01*
X208816755Y-142191125D01*
X208841791Y-142184853D01*
X208867321Y-142181066D01*
X208893100Y-142179800D01*
X209444100Y-142179800D01*
X209469879Y-142181066D01*
G37*
G36*
X211294879Y-142181066D02*
G01*
X211320409Y-142184853D01*
X211345445Y-142191125D01*
X211369746Y-142199820D01*
X211393077Y-142210855D01*
X211415215Y-142224123D01*
X211435945Y-142239498D01*
X211455069Y-142256831D01*
X211472402Y-142275955D01*
X211487777Y-142296685D01*
X211501045Y-142318823D01*
X211512080Y-142342154D01*
X211520775Y-142366455D01*
X211527047Y-142391491D01*
X211530834Y-142417021D01*
X211532100Y-142442800D01*
X211532100Y-142968800D01*
X211530834Y-142994579D01*
X211527047Y-143020109D01*
X211520775Y-143045145D01*
X211512080Y-143069446D01*
X211501045Y-143092777D01*
X211487777Y-143114915D01*
X211472402Y-143135645D01*
X211455069Y-143154769D01*
X211435945Y-143172102D01*
X211415215Y-143187477D01*
X211393077Y-143200745D01*
X211369746Y-143211780D01*
X211345445Y-143220475D01*
X211320409Y-143226747D01*
X211294879Y-143230534D01*
X211269100Y-143231800D01*
X210718100Y-143231800D01*
X210692321Y-143230534D01*
X210666791Y-143226747D01*
X210641755Y-143220475D01*
X210617454Y-143211780D01*
X210594123Y-143200745D01*
X210571985Y-143187477D01*
X210551255Y-143172102D01*
X210532131Y-143154769D01*
X210514798Y-143135645D01*
X210499423Y-143114915D01*
X210486155Y-143092777D01*
X210475120Y-143069446D01*
X210466425Y-143045145D01*
X210460153Y-143020109D01*
X210456366Y-142994579D01*
X210455100Y-142968800D01*
X210455100Y-142442800D01*
X210456366Y-142417021D01*
X210460153Y-142391491D01*
X210466425Y-142366455D01*
X210475120Y-142342154D01*
X210486155Y-142318823D01*
X210499423Y-142296685D01*
X210514798Y-142275955D01*
X210532131Y-142256831D01*
X210551255Y-142239498D01*
X210571985Y-142224123D01*
X210594123Y-142210855D01*
X210617454Y-142199820D01*
X210641755Y-142191125D01*
X210666791Y-142184853D01*
X210692321Y-142181066D01*
X210718100Y-142179800D01*
X211269100Y-142179800D01*
X211294879Y-142181066D01*
G37*
M02*
