M48
; DRILL file {KiCad 5.1.5+dfsg1-2build2} date Sun Jan 30 22:27:45 2022
; FORMAT={-:-/ absolute / metric / decimal}
; #@! TF.CreationDate,2022-01-30T22:27:45+01:00
; #@! TF.GenerationSoftware,Kicad,Pcbnew,5.1.5+dfsg1-2build2
; #@! TF.FileFunction,Plated,1,2,PTH
FMAT,2
METRIC
T1C0.200
T2C0.400
T3C0.850
%
G90
G05
T1
X209.7Y-131.53
X209.7Y-138.261
X217.447Y-136.356
T2
X148.628Y-132.512
X149.39Y-147.244
X150.152Y-118.796
X154.724Y-160.706
X156.248Y-105.08
X156.248Y-135.052
X156.248Y-137.592
X157.518Y-123.622
X157.518Y-147.752
X159.042Y-149.784
X160.82Y-113.716
X162.598Y-110.922
X162.852Y-172.39
X164.63Y-159.944
X165.392Y-160.706
X167.17Y-92.888
X168.44Y-102.794
X169.964Y-101.524
X173.266Y-170.612
X173.774Y-171.628
X174.79Y-181.788
X178.6Y-94.158
X178.854Y-84.76
X180.124Y-93.396
X182.918Y-178.232
X183.934Y-178.994
X188.252Y-187.63
X190.284Y-88.316
X191.3Y-123.368
X192.062Y-88.062
X192.062Y-124.13
X192.316Y-79.172
X192.824Y-124.892
X193.586Y-125.654
X194.094Y-182.804
X194.348Y-126.416
X195.364Y-183.312
X195.618Y-123.114
X196.38Y-123.876
X197.142Y-124.638
X197.904Y-125.4
X200.444Y-85.522
X201.968Y-86.03
X203.492Y-192.71
X205.27Y-183.566
X207.302Y-77.648
X209.334Y-184.074
X214.922Y-87.3
X216.192Y-87.808
X216.7Y-189.916
X218.732Y-181.026
X220.256Y-180.518
X222.796Y-81.966
X226.098Y-90.602
X227.368Y-91.364
X230.67Y-175.692
X230.924Y-185.598
X231.94Y-174.676
X235.75Y-86.538
X235.75Y-97.206
X236.512Y-96.19
X240.83Y-167.564
X241.846Y-166.548
X244.64Y-176.962
X245.148Y-106.604
X246.672Y-110.16
X246.926Y-97.206
X247.942Y-158.166
X248.45Y-156.642
X250.228Y-119.304
X250.228Y-120.574
X252.006Y-144.958
X252.514Y-131.496
X252.514Y-143.942
X253.276Y-130.48
X253.53Y-165.786
X255.816Y-108.89
X259.372Y-152.578
X261.404Y-122.86
X262.166Y-138.1
T3
X204.112Y-129.498
X204.112Y-131.498
X204.112Y-133.498
X204.112Y-135.498
X204.112Y-137.498
X204.112Y-139.498
X204.112Y-141.498
X206.112Y-129.498
X206.112Y-131.498
X206.112Y-133.498
X206.112Y-135.498
X206.112Y-137.498
X206.112Y-139.498
X206.112Y-141.498
T0
M30
