G04 #@! TF.GenerationSoftware,KiCad,Pcbnew,5.1.5+dfsg1-2build2*
G04 #@! TF.CreationDate,2022-01-30T22:27:44+01:00*
G04 #@! TF.ProjectId,Light_Ring_PCB,4c696768-745f-4526-996e-675f5043422e,rev?*
G04 #@! TF.SameCoordinates,Original*
G04 #@! TF.FileFunction,Copper,L2,Bot*
G04 #@! TF.FilePolarity,Positive*
%FSLAX46Y46*%
G04 Gerber Fmt 4.6, Leading zero omitted, Abs format (unit mm)*
G04 Created by KiCad (PCBNEW 5.1.5+dfsg1-2build2) date 2022-01-30 22:27:44*
%MOMM*%
%LPD*%
G04 APERTURE LIST*
%ADD10C,0.100000*%
%ADD11O,1.650000X1.200000*%
%ADD12R,0.900000X0.800000*%
%ADD13C,0.800000*%
%ADD14C,0.400000*%
%ADD15C,2.000000*%
%ADD16C,0.250000*%
%ADD17C,0.254000*%
G04 APERTURE END LIST*
G04 #@! TA.AperFunction,ComponentPad*
D10*
G36*
X204711605Y-128899004D02*
G01*
X204735873Y-128902604D01*
X204759672Y-128908565D01*
X204782771Y-128916830D01*
X204804950Y-128927320D01*
X204825993Y-128939932D01*
X204845699Y-128954547D01*
X204863877Y-128971023D01*
X204880353Y-128989201D01*
X204894968Y-129008907D01*
X204907580Y-129029950D01*
X204918070Y-129052129D01*
X204926335Y-129075228D01*
X204932296Y-129099027D01*
X204935896Y-129123295D01*
X204937100Y-129147799D01*
X204937100Y-129847801D01*
X204935896Y-129872305D01*
X204932296Y-129896573D01*
X204926335Y-129920372D01*
X204918070Y-129943471D01*
X204907580Y-129965650D01*
X204894968Y-129986693D01*
X204880353Y-130006399D01*
X204863877Y-130024577D01*
X204845699Y-130041053D01*
X204825993Y-130055668D01*
X204804950Y-130068280D01*
X204782771Y-130078770D01*
X204759672Y-130087035D01*
X204735873Y-130092996D01*
X204711605Y-130096596D01*
X204687101Y-130097800D01*
X203537099Y-130097800D01*
X203512595Y-130096596D01*
X203488327Y-130092996D01*
X203464528Y-130087035D01*
X203441429Y-130078770D01*
X203419250Y-130068280D01*
X203398207Y-130055668D01*
X203378501Y-130041053D01*
X203360323Y-130024577D01*
X203343847Y-130006399D01*
X203329232Y-129986693D01*
X203316620Y-129965650D01*
X203306130Y-129943471D01*
X203297865Y-129920372D01*
X203291904Y-129896573D01*
X203288304Y-129872305D01*
X203287100Y-129847801D01*
X203287100Y-129147799D01*
X203288304Y-129123295D01*
X203291904Y-129099027D01*
X203297865Y-129075228D01*
X203306130Y-129052129D01*
X203316620Y-129029950D01*
X203329232Y-129008907D01*
X203343847Y-128989201D01*
X203360323Y-128971023D01*
X203378501Y-128954547D01*
X203398207Y-128939932D01*
X203419250Y-128927320D01*
X203441429Y-128916830D01*
X203464528Y-128908565D01*
X203488327Y-128902604D01*
X203512595Y-128899004D01*
X203537099Y-128897800D01*
X204687101Y-128897800D01*
X204711605Y-128899004D01*
G37*
G04 #@! TD.AperFunction*
D11*
X204112100Y-131497800D03*
X204112100Y-133497800D03*
X204112100Y-135497800D03*
X204112100Y-137497800D03*
X204112100Y-139497800D03*
X204112100Y-141497800D03*
X206112100Y-129497800D03*
X206112100Y-131497800D03*
X206112100Y-133497800D03*
X206112100Y-135497800D03*
X206112100Y-137497800D03*
X206112100Y-139497800D03*
X206112100Y-141497800D03*
D12*
X209096100Y-141115800D03*
X209096100Y-139215800D03*
X211096100Y-140165800D03*
G04 #@! TA.AperFunction,SMDPad,CuDef*
D10*
G36*
X209945879Y-130873944D02*
G01*
X209968934Y-130877363D01*
X209991543Y-130883027D01*
X210013487Y-130890879D01*
X210034557Y-130900844D01*
X210054548Y-130912826D01*
X210073268Y-130926710D01*
X210090538Y-130942362D01*
X210106190Y-130959632D01*
X210120074Y-130978352D01*
X210132056Y-130998343D01*
X210142021Y-131019413D01*
X210149873Y-131041357D01*
X210155537Y-131063966D01*
X210158956Y-131087021D01*
X210160100Y-131110300D01*
X210160100Y-131710300D01*
X210158956Y-131733579D01*
X210155537Y-131756634D01*
X210149873Y-131779243D01*
X210142021Y-131801187D01*
X210132056Y-131822257D01*
X210120074Y-131842248D01*
X210106190Y-131860968D01*
X210090538Y-131878238D01*
X210073268Y-131893890D01*
X210054548Y-131907774D01*
X210034557Y-131919756D01*
X210013487Y-131929721D01*
X209991543Y-131937573D01*
X209968934Y-131943237D01*
X209945879Y-131946656D01*
X209922600Y-131947800D01*
X209447600Y-131947800D01*
X209424321Y-131946656D01*
X209401266Y-131943237D01*
X209378657Y-131937573D01*
X209356713Y-131929721D01*
X209335643Y-131919756D01*
X209315652Y-131907774D01*
X209296932Y-131893890D01*
X209279662Y-131878238D01*
X209264010Y-131860968D01*
X209250126Y-131842248D01*
X209238144Y-131822257D01*
X209228179Y-131801187D01*
X209220327Y-131779243D01*
X209214663Y-131756634D01*
X209211244Y-131733579D01*
X209210100Y-131710300D01*
X209210100Y-131110300D01*
X209211244Y-131087021D01*
X209214663Y-131063966D01*
X209220327Y-131041357D01*
X209228179Y-131019413D01*
X209238144Y-130998343D01*
X209250126Y-130978352D01*
X209264010Y-130959632D01*
X209279662Y-130942362D01*
X209296932Y-130926710D01*
X209315652Y-130912826D01*
X209335643Y-130900844D01*
X209356713Y-130890879D01*
X209378657Y-130883027D01*
X209401266Y-130877363D01*
X209424321Y-130873944D01*
X209447600Y-130872800D01*
X209922600Y-130872800D01*
X209945879Y-130873944D01*
G37*
G04 #@! TD.AperFunction*
G04 #@! TA.AperFunction,SMDPad,CuDef*
G36*
X209945879Y-129148944D02*
G01*
X209968934Y-129152363D01*
X209991543Y-129158027D01*
X210013487Y-129165879D01*
X210034557Y-129175844D01*
X210054548Y-129187826D01*
X210073268Y-129201710D01*
X210090538Y-129217362D01*
X210106190Y-129234632D01*
X210120074Y-129253352D01*
X210132056Y-129273343D01*
X210142021Y-129294413D01*
X210149873Y-129316357D01*
X210155537Y-129338966D01*
X210158956Y-129362021D01*
X210160100Y-129385300D01*
X210160100Y-129985300D01*
X210158956Y-130008579D01*
X210155537Y-130031634D01*
X210149873Y-130054243D01*
X210142021Y-130076187D01*
X210132056Y-130097257D01*
X210120074Y-130117248D01*
X210106190Y-130135968D01*
X210090538Y-130153238D01*
X210073268Y-130168890D01*
X210054548Y-130182774D01*
X210034557Y-130194756D01*
X210013487Y-130204721D01*
X209991543Y-130212573D01*
X209968934Y-130218237D01*
X209945879Y-130221656D01*
X209922600Y-130222800D01*
X209447600Y-130222800D01*
X209424321Y-130221656D01*
X209401266Y-130218237D01*
X209378657Y-130212573D01*
X209356713Y-130204721D01*
X209335643Y-130194756D01*
X209315652Y-130182774D01*
X209296932Y-130168890D01*
X209279662Y-130153238D01*
X209264010Y-130135968D01*
X209250126Y-130117248D01*
X209238144Y-130097257D01*
X209228179Y-130076187D01*
X209220327Y-130054243D01*
X209214663Y-130031634D01*
X209211244Y-130008579D01*
X209210100Y-129985300D01*
X209210100Y-129385300D01*
X209211244Y-129362021D01*
X209214663Y-129338966D01*
X209220327Y-129316357D01*
X209228179Y-129294413D01*
X209238144Y-129273343D01*
X209250126Y-129253352D01*
X209264010Y-129234632D01*
X209279662Y-129217362D01*
X209296932Y-129201710D01*
X209315652Y-129187826D01*
X209335643Y-129175844D01*
X209356713Y-129165879D01*
X209378657Y-129158027D01*
X209401266Y-129152363D01*
X209424321Y-129148944D01*
X209447600Y-129147800D01*
X209922600Y-129147800D01*
X209945879Y-129148944D01*
G37*
G04 #@! TD.AperFunction*
G04 #@! TA.AperFunction,SMDPad,CuDef*
G36*
X211596879Y-130873944D02*
G01*
X211619934Y-130877363D01*
X211642543Y-130883027D01*
X211664487Y-130890879D01*
X211685557Y-130900844D01*
X211705548Y-130912826D01*
X211724268Y-130926710D01*
X211741538Y-130942362D01*
X211757190Y-130959632D01*
X211771074Y-130978352D01*
X211783056Y-130998343D01*
X211793021Y-131019413D01*
X211800873Y-131041357D01*
X211806537Y-131063966D01*
X211809956Y-131087021D01*
X211811100Y-131110300D01*
X211811100Y-131710300D01*
X211809956Y-131733579D01*
X211806537Y-131756634D01*
X211800873Y-131779243D01*
X211793021Y-131801187D01*
X211783056Y-131822257D01*
X211771074Y-131842248D01*
X211757190Y-131860968D01*
X211741538Y-131878238D01*
X211724268Y-131893890D01*
X211705548Y-131907774D01*
X211685557Y-131919756D01*
X211664487Y-131929721D01*
X211642543Y-131937573D01*
X211619934Y-131943237D01*
X211596879Y-131946656D01*
X211573600Y-131947800D01*
X211098600Y-131947800D01*
X211075321Y-131946656D01*
X211052266Y-131943237D01*
X211029657Y-131937573D01*
X211007713Y-131929721D01*
X210986643Y-131919756D01*
X210966652Y-131907774D01*
X210947932Y-131893890D01*
X210930662Y-131878238D01*
X210915010Y-131860968D01*
X210901126Y-131842248D01*
X210889144Y-131822257D01*
X210879179Y-131801187D01*
X210871327Y-131779243D01*
X210865663Y-131756634D01*
X210862244Y-131733579D01*
X210861100Y-131710300D01*
X210861100Y-131110300D01*
X210862244Y-131087021D01*
X210865663Y-131063966D01*
X210871327Y-131041357D01*
X210879179Y-131019413D01*
X210889144Y-130998343D01*
X210901126Y-130978352D01*
X210915010Y-130959632D01*
X210930662Y-130942362D01*
X210947932Y-130926710D01*
X210966652Y-130912826D01*
X210986643Y-130900844D01*
X211007713Y-130890879D01*
X211029657Y-130883027D01*
X211052266Y-130877363D01*
X211075321Y-130873944D01*
X211098600Y-130872800D01*
X211573600Y-130872800D01*
X211596879Y-130873944D01*
G37*
G04 #@! TD.AperFunction*
G04 #@! TA.AperFunction,SMDPad,CuDef*
G36*
X211596879Y-129148944D02*
G01*
X211619934Y-129152363D01*
X211642543Y-129158027D01*
X211664487Y-129165879D01*
X211685557Y-129175844D01*
X211705548Y-129187826D01*
X211724268Y-129201710D01*
X211741538Y-129217362D01*
X211757190Y-129234632D01*
X211771074Y-129253352D01*
X211783056Y-129273343D01*
X211793021Y-129294413D01*
X211800873Y-129316357D01*
X211806537Y-129338966D01*
X211809956Y-129362021D01*
X211811100Y-129385300D01*
X211811100Y-129985300D01*
X211809956Y-130008579D01*
X211806537Y-130031634D01*
X211800873Y-130054243D01*
X211793021Y-130076187D01*
X211783056Y-130097257D01*
X211771074Y-130117248D01*
X211757190Y-130135968D01*
X211741538Y-130153238D01*
X211724268Y-130168890D01*
X211705548Y-130182774D01*
X211685557Y-130194756D01*
X211664487Y-130204721D01*
X211642543Y-130212573D01*
X211619934Y-130218237D01*
X211596879Y-130221656D01*
X211573600Y-130222800D01*
X211098600Y-130222800D01*
X211075321Y-130221656D01*
X211052266Y-130218237D01*
X211029657Y-130212573D01*
X211007713Y-130204721D01*
X210986643Y-130194756D01*
X210966652Y-130182774D01*
X210947932Y-130168890D01*
X210930662Y-130153238D01*
X210915010Y-130135968D01*
X210901126Y-130117248D01*
X210889144Y-130097257D01*
X210879179Y-130076187D01*
X210871327Y-130054243D01*
X210865663Y-130031634D01*
X210862244Y-130008579D01*
X210861100Y-129985300D01*
X210861100Y-129385300D01*
X210862244Y-129362021D01*
X210865663Y-129338966D01*
X210871327Y-129316357D01*
X210879179Y-129294413D01*
X210889144Y-129273343D01*
X210901126Y-129253352D01*
X210915010Y-129234632D01*
X210930662Y-129217362D01*
X210947932Y-129201710D01*
X210966652Y-129187826D01*
X210986643Y-129175844D01*
X211007713Y-129165879D01*
X211029657Y-129158027D01*
X211052266Y-129152363D01*
X211075321Y-129148944D01*
X211098600Y-129147800D01*
X211573600Y-129147800D01*
X211596879Y-129148944D01*
G37*
G04 #@! TD.AperFunction*
G04 #@! TA.AperFunction,SMDPad,CuDef*
G36*
X209441879Y-142231944D02*
G01*
X209464934Y-142235363D01*
X209487543Y-142241027D01*
X209509487Y-142248879D01*
X209530557Y-142258844D01*
X209550548Y-142270826D01*
X209569268Y-142284710D01*
X209586538Y-142300362D01*
X209602190Y-142317632D01*
X209616074Y-142336352D01*
X209628056Y-142356343D01*
X209638021Y-142377413D01*
X209645873Y-142399357D01*
X209651537Y-142421966D01*
X209654956Y-142445021D01*
X209656100Y-142468300D01*
X209656100Y-142943300D01*
X209654956Y-142966579D01*
X209651537Y-142989634D01*
X209645873Y-143012243D01*
X209638021Y-143034187D01*
X209628056Y-143055257D01*
X209616074Y-143075248D01*
X209602190Y-143093968D01*
X209586538Y-143111238D01*
X209569268Y-143126890D01*
X209550548Y-143140774D01*
X209530557Y-143152756D01*
X209509487Y-143162721D01*
X209487543Y-143170573D01*
X209464934Y-143176237D01*
X209441879Y-143179656D01*
X209418600Y-143180800D01*
X208918600Y-143180800D01*
X208895321Y-143179656D01*
X208872266Y-143176237D01*
X208849657Y-143170573D01*
X208827713Y-143162721D01*
X208806643Y-143152756D01*
X208786652Y-143140774D01*
X208767932Y-143126890D01*
X208750662Y-143111238D01*
X208735010Y-143093968D01*
X208721126Y-143075248D01*
X208709144Y-143055257D01*
X208699179Y-143034187D01*
X208691327Y-143012243D01*
X208685663Y-142989634D01*
X208682244Y-142966579D01*
X208681100Y-142943300D01*
X208681100Y-142468300D01*
X208682244Y-142445021D01*
X208685663Y-142421966D01*
X208691327Y-142399357D01*
X208699179Y-142377413D01*
X208709144Y-142356343D01*
X208721126Y-142336352D01*
X208735010Y-142317632D01*
X208750662Y-142300362D01*
X208767932Y-142284710D01*
X208786652Y-142270826D01*
X208806643Y-142258844D01*
X208827713Y-142248879D01*
X208849657Y-142241027D01*
X208872266Y-142235363D01*
X208895321Y-142231944D01*
X208918600Y-142230800D01*
X209418600Y-142230800D01*
X209441879Y-142231944D01*
G37*
G04 #@! TD.AperFunction*
G04 #@! TA.AperFunction,SMDPad,CuDef*
G36*
X211266879Y-142231944D02*
G01*
X211289934Y-142235363D01*
X211312543Y-142241027D01*
X211334487Y-142248879D01*
X211355557Y-142258844D01*
X211375548Y-142270826D01*
X211394268Y-142284710D01*
X211411538Y-142300362D01*
X211427190Y-142317632D01*
X211441074Y-142336352D01*
X211453056Y-142356343D01*
X211463021Y-142377413D01*
X211470873Y-142399357D01*
X211476537Y-142421966D01*
X211479956Y-142445021D01*
X211481100Y-142468300D01*
X211481100Y-142943300D01*
X211479956Y-142966579D01*
X211476537Y-142989634D01*
X211470873Y-143012243D01*
X211463021Y-143034187D01*
X211453056Y-143055257D01*
X211441074Y-143075248D01*
X211427190Y-143093968D01*
X211411538Y-143111238D01*
X211394268Y-143126890D01*
X211375548Y-143140774D01*
X211355557Y-143152756D01*
X211334487Y-143162721D01*
X211312543Y-143170573D01*
X211289934Y-143176237D01*
X211266879Y-143179656D01*
X211243600Y-143180800D01*
X210743600Y-143180800D01*
X210720321Y-143179656D01*
X210697266Y-143176237D01*
X210674657Y-143170573D01*
X210652713Y-143162721D01*
X210631643Y-143152756D01*
X210611652Y-143140774D01*
X210592932Y-143126890D01*
X210575662Y-143111238D01*
X210560010Y-143093968D01*
X210546126Y-143075248D01*
X210534144Y-143055257D01*
X210524179Y-143034187D01*
X210516327Y-143012243D01*
X210510663Y-142989634D01*
X210507244Y-142966579D01*
X210506100Y-142943300D01*
X210506100Y-142468300D01*
X210507244Y-142445021D01*
X210510663Y-142421966D01*
X210516327Y-142399357D01*
X210524179Y-142377413D01*
X210534144Y-142356343D01*
X210546126Y-142336352D01*
X210560010Y-142317632D01*
X210575662Y-142300362D01*
X210592932Y-142284710D01*
X210611652Y-142270826D01*
X210631643Y-142258844D01*
X210652713Y-142248879D01*
X210674657Y-142241027D01*
X210697266Y-142235363D01*
X210720321Y-142231944D01*
X210743600Y-142230800D01*
X211243600Y-142230800D01*
X211266879Y-142231944D01*
G37*
G04 #@! TD.AperFunction*
D13*
X157518100Y-123621800D03*
X148628100Y-132511800D03*
X156248100Y-135051800D03*
X156248100Y-137591800D03*
X157518100Y-147751800D03*
X159042100Y-149783800D03*
X149390100Y-147243800D03*
X150152100Y-118795800D03*
X156248100Y-105079800D03*
X162598100Y-110921800D03*
X160820100Y-113715800D03*
X168440100Y-102793800D03*
X169964100Y-101523800D03*
X167170100Y-92887800D03*
X180124100Y-93395800D03*
X178600100Y-94157800D03*
X178854100Y-84759800D03*
X190284100Y-88315800D03*
X192062100Y-88061800D03*
X192316100Y-79171800D03*
X200444100Y-85521800D03*
X201968100Y-86029800D03*
X207302100Y-77647800D03*
X222796100Y-81965800D03*
X214922100Y-87299800D03*
X216192100Y-87807800D03*
X235750100Y-86537800D03*
X226098100Y-90601800D03*
X227368100Y-91363800D03*
X236512100Y-96189800D03*
X235750100Y-97205800D03*
X246926100Y-97205800D03*
X246672100Y-110159800D03*
X245148100Y-106603800D03*
X255816100Y-108889800D03*
X250228100Y-119303800D03*
X250228100Y-120573800D03*
X261404100Y-122859800D03*
X253276100Y-130479800D03*
X252514100Y-131495800D03*
X262166100Y-138099800D03*
X252514100Y-143941800D03*
X252006100Y-144957800D03*
X259372100Y-152577800D03*
X248450100Y-156641800D03*
X247942100Y-158165800D03*
X253530100Y-165785800D03*
X241846100Y-166547800D03*
X240830100Y-167563800D03*
X244640100Y-176961800D03*
X231940100Y-174675800D03*
X230670100Y-175691800D03*
X220256100Y-180517800D03*
X218732100Y-181025800D03*
X216700100Y-189915800D03*
X209334100Y-184073800D03*
X205270100Y-183565800D03*
X203492100Y-192709800D03*
X194094100Y-182803800D03*
X195364100Y-183311800D03*
X188252100Y-187629800D03*
X183934100Y-178993800D03*
X182918100Y-178231800D03*
X174790100Y-181787800D03*
X173774100Y-171627800D03*
X173266100Y-170611800D03*
X162852100Y-172389800D03*
X154724100Y-160705800D03*
X164630100Y-159943800D03*
X165392100Y-160705800D03*
X230924100Y-185597800D03*
D14*
X209700100Y-138260800D03*
X209700100Y-131529800D03*
D13*
X194348100Y-126415800D03*
X193586100Y-125653800D03*
X197904100Y-125399800D03*
X192824100Y-124891800D03*
X197142100Y-124637800D03*
X196380100Y-123875800D03*
X192062100Y-124129800D03*
X191300100Y-123367800D03*
X195618100Y-123113800D03*
D14*
X217447100Y-136355800D03*
D15*
X191300100Y-123367800D02*
X194348100Y-126415800D01*
X198412100Y-126415800D02*
X198666100Y-126161800D01*
X194348100Y-126415800D02*
X198412100Y-126415800D01*
X198666100Y-126161800D02*
X195618100Y-123113800D01*
X191554100Y-123113800D02*
X191300100Y-123367800D01*
X195618100Y-123113800D02*
X191554100Y-123113800D01*
X191300100Y-123367800D02*
X193586100Y-123367800D01*
X193586100Y-123367800D02*
X195618100Y-125399800D01*
D16*
X209685100Y-131410300D02*
X211336100Y-131410300D01*
X208869400Y-131410300D02*
X206956900Y-129497800D01*
X206956900Y-129497800D02*
X206112100Y-129497800D01*
X209685100Y-131410300D02*
X208869400Y-131410300D01*
X207187100Y-135497800D02*
X206112100Y-135497800D01*
X209096100Y-137406800D02*
X207187100Y-135497800D01*
X209096100Y-139215800D02*
X209096100Y-137406800D01*
X204112100Y-137497800D02*
X206112100Y-135497800D01*
X211476600Y-143505810D02*
X217447100Y-137535310D01*
X205270110Y-143505810D02*
X211476600Y-143505810D01*
X204112100Y-142347800D02*
X205270110Y-143505810D01*
X204112100Y-141497800D02*
X204112100Y-142347800D01*
X217447100Y-136638642D02*
X217447100Y-136355800D01*
X217447100Y-137535310D02*
X217447100Y-136638642D01*
X209168600Y-141188300D02*
X209096100Y-141115800D01*
X209168600Y-142705800D02*
X209168600Y-141188300D01*
X206494100Y-141115800D02*
X206112100Y-141497800D01*
X209096100Y-141115800D02*
X206494100Y-141115800D01*
D17*
G36*
X208192064Y-75391717D02*
G01*
X211247903Y-75628258D01*
X214287513Y-76021797D01*
X217302834Y-76571288D01*
X220285870Y-77275277D01*
X223228711Y-78131895D01*
X226123551Y-79138871D01*
X228962716Y-80293534D01*
X231738675Y-81592823D01*
X234444068Y-83033293D01*
X237071721Y-84611122D01*
X239614664Y-86322128D01*
X242066156Y-88161773D01*
X244419694Y-90125179D01*
X246669038Y-92207138D01*
X248808223Y-94402130D01*
X250831576Y-96704335D01*
X252733732Y-99107646D01*
X254509646Y-101605692D01*
X256154609Y-104191847D01*
X257664259Y-106859254D01*
X259034593Y-109600839D01*
X260261976Y-112409332D01*
X261343154Y-115277286D01*
X262275260Y-118197094D01*
X263055822Y-121161015D01*
X263682770Y-124161189D01*
X264154442Y-127189658D01*
X264469586Y-130238394D01*
X264627368Y-133299310D01*
X264627368Y-136364290D01*
X264469586Y-139425206D01*
X264154442Y-142473942D01*
X263682770Y-145502411D01*
X263055822Y-148502585D01*
X262275260Y-151466506D01*
X261343154Y-154386314D01*
X260261976Y-157254268D01*
X259034593Y-160062761D01*
X257664259Y-162804346D01*
X256154609Y-165471753D01*
X254509646Y-168057908D01*
X252733732Y-170555954D01*
X250831576Y-172959265D01*
X248808223Y-175261470D01*
X246669038Y-177456462D01*
X244419694Y-179538421D01*
X242066156Y-181501827D01*
X239614664Y-183341472D01*
X237071721Y-185052478D01*
X234444068Y-186630307D01*
X231738675Y-188070777D01*
X228962716Y-189370066D01*
X226123551Y-190524729D01*
X223228711Y-191531705D01*
X220285870Y-192388323D01*
X217302834Y-193092312D01*
X214287513Y-193641803D01*
X211247903Y-194035342D01*
X208192064Y-194271883D01*
X205128100Y-194350800D01*
X202064136Y-194271883D01*
X199008297Y-194035342D01*
X195968687Y-193641803D01*
X192953366Y-193092312D01*
X189970330Y-192388323D01*
X187027489Y-191531705D01*
X184132649Y-190524729D01*
X181293484Y-189370066D01*
X178517525Y-188070777D01*
X175812132Y-186630307D01*
X173184479Y-185052478D01*
X170641536Y-183341472D01*
X168190044Y-181501827D01*
X165836506Y-179538421D01*
X163587162Y-177456462D01*
X161447977Y-175261470D01*
X159424624Y-172959265D01*
X157522468Y-170555954D01*
X155746554Y-168057908D01*
X154101591Y-165471753D01*
X152591941Y-162804346D01*
X151221607Y-160062761D01*
X149994224Y-157254268D01*
X148913046Y-154386314D01*
X147980940Y-151466506D01*
X147200378Y-148502585D01*
X146902443Y-147076857D01*
X180888990Y-147076857D01*
X180888990Y-147586743D01*
X180988463Y-148086830D01*
X181183588Y-148557903D01*
X181466865Y-148981857D01*
X181827408Y-149342400D01*
X182251362Y-149625677D01*
X182722435Y-149820802D01*
X183222522Y-149920275D01*
X183732408Y-149920275D01*
X184232495Y-149820802D01*
X184703568Y-149625677D01*
X185127522Y-149342400D01*
X185488065Y-148981857D01*
X185771342Y-148557903D01*
X185966467Y-148086830D01*
X186065940Y-147586743D01*
X186065940Y-147076857D01*
X224190260Y-147076857D01*
X224190260Y-147586743D01*
X224289733Y-148086830D01*
X224484858Y-148557903D01*
X224768135Y-148981857D01*
X225128678Y-149342400D01*
X225552632Y-149625677D01*
X226023705Y-149820802D01*
X226523792Y-149920275D01*
X227033678Y-149920275D01*
X227533765Y-149820802D01*
X228004838Y-149625677D01*
X228428792Y-149342400D01*
X228789335Y-148981857D01*
X229072612Y-148557903D01*
X229267737Y-148086830D01*
X229367210Y-147586743D01*
X229367210Y-147076857D01*
X229267737Y-146576770D01*
X229072612Y-146105697D01*
X228789335Y-145681743D01*
X228428792Y-145321200D01*
X228004838Y-145037923D01*
X227533765Y-144842798D01*
X227033678Y-144743325D01*
X226523792Y-144743325D01*
X226023705Y-144842798D01*
X225552632Y-145037923D01*
X225128678Y-145321200D01*
X224768135Y-145681743D01*
X224484858Y-146105697D01*
X224289733Y-146576770D01*
X224190260Y-147076857D01*
X186065940Y-147076857D01*
X185966467Y-146576770D01*
X185771342Y-146105697D01*
X185488065Y-145681743D01*
X185127522Y-145321200D01*
X184703568Y-145037923D01*
X184232495Y-144842798D01*
X183732408Y-144743325D01*
X183222522Y-144743325D01*
X182722435Y-144842798D01*
X182251362Y-145037923D01*
X181827408Y-145321200D01*
X181466865Y-145681743D01*
X181183588Y-146105697D01*
X180988463Y-146576770D01*
X180888990Y-147076857D01*
X146902443Y-147076857D01*
X146573430Y-145502411D01*
X146101758Y-142473942D01*
X146000856Y-141497800D01*
X202901354Y-141497800D01*
X202920295Y-141690110D01*
X202976389Y-141875029D01*
X203067482Y-142045451D01*
X203190072Y-142194828D01*
X203339449Y-142317418D01*
X203509871Y-142408511D01*
X203612704Y-142439705D01*
X203613422Y-142446992D01*
X203642355Y-142542374D01*
X203642356Y-142542375D01*
X203689342Y-142630279D01*
X203752574Y-142707327D01*
X203771880Y-142723171D01*
X204894738Y-143846030D01*
X204910583Y-143865337D01*
X204987631Y-143928569D01*
X205075535Y-143975555D01*
X205148717Y-143997754D01*
X205170916Y-144004488D01*
X205180804Y-144005462D01*
X205245256Y-144011810D01*
X205245263Y-144011810D01*
X205270109Y-144014257D01*
X205294955Y-144011810D01*
X211451754Y-144011810D01*
X211476600Y-144014257D01*
X211501446Y-144011810D01*
X211501454Y-144011810D01*
X211575793Y-144004488D01*
X211671175Y-143975555D01*
X211759079Y-143928569D01*
X211836127Y-143865337D01*
X211851976Y-143846025D01*
X217787320Y-137910682D01*
X217806627Y-137894837D01*
X217869859Y-137817789D01*
X217916845Y-137729885D01*
X217945778Y-137634503D01*
X217953100Y-137560164D01*
X217953100Y-137560157D01*
X217955547Y-137535311D01*
X217953100Y-137510465D01*
X217953100Y-136644289D01*
X217961975Y-136631007D01*
X218005772Y-136525271D01*
X218028100Y-136413023D01*
X218028100Y-136298577D01*
X218005772Y-136186329D01*
X217961975Y-136080593D01*
X217898392Y-135985434D01*
X217817466Y-135904508D01*
X217722307Y-135840925D01*
X217616571Y-135797128D01*
X217504323Y-135774800D01*
X217389877Y-135774800D01*
X217277629Y-135797128D01*
X217171893Y-135840925D01*
X217076734Y-135904508D01*
X216995808Y-135985434D01*
X216932225Y-136080593D01*
X216888428Y-136186329D01*
X216866100Y-136298577D01*
X216866100Y-136413023D01*
X216888428Y-136525271D01*
X216932225Y-136631007D01*
X216941100Y-136644289D01*
X216941100Y-136663495D01*
X216941101Y-136663505D01*
X216941100Y-137325718D01*
X211267009Y-142999810D01*
X210033377Y-142999810D01*
X210038943Y-142943300D01*
X210038943Y-142468300D01*
X210027023Y-142347277D01*
X209991722Y-142230905D01*
X209934396Y-142123656D01*
X209857249Y-142029651D01*
X209763244Y-141952504D01*
X209674600Y-141905123D01*
X209674600Y-141874964D01*
X209692608Y-141869501D01*
X209758796Y-141834122D01*
X209816811Y-141786511D01*
X209864422Y-141728496D01*
X209899801Y-141662308D01*
X209921587Y-141590489D01*
X209928943Y-141515800D01*
X209928943Y-140715800D01*
X209921587Y-140641111D01*
X209899801Y-140569292D01*
X209864422Y-140503104D01*
X209816811Y-140445089D01*
X209758796Y-140397478D01*
X209692608Y-140362099D01*
X209620789Y-140340313D01*
X209546100Y-140332957D01*
X208646100Y-140332957D01*
X208571411Y-140340313D01*
X208499592Y-140362099D01*
X208433404Y-140397478D01*
X208375389Y-140445089D01*
X208327778Y-140503104D01*
X208292399Y-140569292D01*
X208280111Y-140609800D01*
X206756818Y-140609800D01*
X206714329Y-140587089D01*
X206529410Y-140530995D01*
X206385287Y-140516800D01*
X205838913Y-140516800D01*
X205694790Y-140530995D01*
X205509871Y-140587089D01*
X205339449Y-140678182D01*
X205190072Y-140800772D01*
X205112100Y-140895782D01*
X205034128Y-140800772D01*
X204884751Y-140678182D01*
X204714329Y-140587089D01*
X204529410Y-140530995D01*
X204385287Y-140516800D01*
X203838913Y-140516800D01*
X203694790Y-140530995D01*
X203509871Y-140587089D01*
X203339449Y-140678182D01*
X203190072Y-140800772D01*
X203067482Y-140950149D01*
X202976389Y-141120571D01*
X202920295Y-141305490D01*
X202901354Y-141497800D01*
X146000856Y-141497800D01*
X145794118Y-139497800D01*
X202901354Y-139497800D01*
X202920295Y-139690110D01*
X202976389Y-139875029D01*
X203067482Y-140045451D01*
X203190072Y-140194828D01*
X203339449Y-140317418D01*
X203509871Y-140408511D01*
X203694790Y-140464605D01*
X203838913Y-140478800D01*
X204385287Y-140478800D01*
X204529410Y-140464605D01*
X204714329Y-140408511D01*
X204884751Y-140317418D01*
X205034128Y-140194828D01*
X205112100Y-140099818D01*
X205190072Y-140194828D01*
X205339449Y-140317418D01*
X205509871Y-140408511D01*
X205694790Y-140464605D01*
X205838913Y-140478800D01*
X206385287Y-140478800D01*
X206529410Y-140464605D01*
X206714329Y-140408511D01*
X206884751Y-140317418D01*
X207034128Y-140194828D01*
X207156718Y-140045451D01*
X207247811Y-139875029D01*
X207303905Y-139690110D01*
X207322846Y-139497800D01*
X207303905Y-139305490D01*
X207247811Y-139120571D01*
X207156718Y-138950149D01*
X207034128Y-138800772D01*
X206884751Y-138678182D01*
X206714329Y-138587089D01*
X206529410Y-138530995D01*
X206385287Y-138516800D01*
X205838913Y-138516800D01*
X205694790Y-138530995D01*
X205509871Y-138587089D01*
X205339449Y-138678182D01*
X205190072Y-138800772D01*
X205112100Y-138895782D01*
X205034128Y-138800772D01*
X204884751Y-138678182D01*
X204714329Y-138587089D01*
X204529410Y-138530995D01*
X204385287Y-138516800D01*
X203838913Y-138516800D01*
X203694790Y-138530995D01*
X203509871Y-138587089D01*
X203339449Y-138678182D01*
X203190072Y-138800772D01*
X203067482Y-138950149D01*
X202976389Y-139120571D01*
X202920295Y-139305490D01*
X202901354Y-139497800D01*
X145794118Y-139497800D01*
X145786614Y-139425206D01*
X145628832Y-136364290D01*
X145628832Y-135497800D01*
X202901354Y-135497800D01*
X202920295Y-135690110D01*
X202976389Y-135875029D01*
X203067482Y-136045451D01*
X203190072Y-136194828D01*
X203339449Y-136317418D01*
X203509871Y-136408511D01*
X203694790Y-136464605D01*
X203838913Y-136478800D01*
X204385287Y-136478800D01*
X204418810Y-136475498D01*
X204377509Y-136516800D01*
X203838913Y-136516800D01*
X203694790Y-136530995D01*
X203509871Y-136587089D01*
X203339449Y-136678182D01*
X203190072Y-136800772D01*
X203067482Y-136950149D01*
X202976389Y-137120571D01*
X202920295Y-137305490D01*
X202901354Y-137497800D01*
X202920295Y-137690110D01*
X202976389Y-137875029D01*
X203067482Y-138045451D01*
X203190072Y-138194828D01*
X203339449Y-138317418D01*
X203509871Y-138408511D01*
X203694790Y-138464605D01*
X203838913Y-138478800D01*
X204385287Y-138478800D01*
X204529410Y-138464605D01*
X204714329Y-138408511D01*
X204884751Y-138317418D01*
X205034128Y-138194828D01*
X205112100Y-138099818D01*
X205190072Y-138194828D01*
X205339449Y-138317418D01*
X205509871Y-138408511D01*
X205694790Y-138464605D01*
X205838913Y-138478800D01*
X206385287Y-138478800D01*
X206529410Y-138464605D01*
X206714329Y-138408511D01*
X206884751Y-138317418D01*
X207034128Y-138194828D01*
X207156718Y-138045451D01*
X207247811Y-137875029D01*
X207303905Y-137690110D01*
X207322846Y-137497800D01*
X207303905Y-137305490D01*
X207247811Y-137120571D01*
X207156718Y-136950149D01*
X207034128Y-136800772D01*
X206884751Y-136678182D01*
X206714329Y-136587089D01*
X206529410Y-136530995D01*
X206385287Y-136516800D01*
X205838913Y-136516800D01*
X205805390Y-136520102D01*
X205846692Y-136478800D01*
X206385287Y-136478800D01*
X206529410Y-136464605D01*
X206714329Y-136408511D01*
X206884751Y-136317418D01*
X207034128Y-136194828D01*
X207094713Y-136121004D01*
X208590101Y-137616393D01*
X208590100Y-138438472D01*
X208571411Y-138440313D01*
X208499592Y-138462099D01*
X208433404Y-138497478D01*
X208375389Y-138545089D01*
X208327778Y-138603104D01*
X208292399Y-138669292D01*
X208270613Y-138741111D01*
X208263257Y-138815800D01*
X208263257Y-139615800D01*
X208270613Y-139690489D01*
X208292399Y-139762308D01*
X208327778Y-139828496D01*
X208375389Y-139886511D01*
X208433404Y-139934122D01*
X208499592Y-139969501D01*
X208571411Y-139991287D01*
X208646100Y-139998643D01*
X209546100Y-139998643D01*
X209620789Y-139991287D01*
X209692608Y-139969501D01*
X209758796Y-139934122D01*
X209816811Y-139886511D01*
X209864422Y-139828496D01*
X209899801Y-139762308D01*
X209921587Y-139690489D01*
X209928943Y-139615800D01*
X209928943Y-138815800D01*
X209921587Y-138741111D01*
X209899801Y-138669292D01*
X209864422Y-138603104D01*
X209816811Y-138545089D01*
X209758796Y-138497478D01*
X209692608Y-138462099D01*
X209620789Y-138440313D01*
X209602100Y-138438472D01*
X209602100Y-137431654D01*
X209604548Y-137406800D01*
X209594778Y-137307607D01*
X209565845Y-137212225D01*
X209518859Y-137124321D01*
X209455627Y-137047273D01*
X209436320Y-137031428D01*
X207562476Y-135157585D01*
X207546627Y-135138273D01*
X207469579Y-135075041D01*
X207381675Y-135028055D01*
X207286293Y-134999122D01*
X207211954Y-134991800D01*
X207211946Y-134991800D01*
X207187100Y-134989353D01*
X207178145Y-134990235D01*
X207156718Y-134950149D01*
X207034128Y-134800772D01*
X206884751Y-134678182D01*
X206714329Y-134587089D01*
X206529410Y-134530995D01*
X206385287Y-134516800D01*
X205838913Y-134516800D01*
X205694790Y-134530995D01*
X205509871Y-134587089D01*
X205339449Y-134678182D01*
X205190072Y-134800772D01*
X205112100Y-134895782D01*
X205034128Y-134800772D01*
X204884751Y-134678182D01*
X204714329Y-134587089D01*
X204529410Y-134530995D01*
X204385287Y-134516800D01*
X203838913Y-134516800D01*
X203694790Y-134530995D01*
X203509871Y-134587089D01*
X203339449Y-134678182D01*
X203190072Y-134800772D01*
X203067482Y-134950149D01*
X202976389Y-135120571D01*
X202920295Y-135305490D01*
X202901354Y-135497800D01*
X145628832Y-135497800D01*
X145628832Y-133497800D01*
X202901354Y-133497800D01*
X202920295Y-133690110D01*
X202976389Y-133875029D01*
X203067482Y-134045451D01*
X203190072Y-134194828D01*
X203339449Y-134317418D01*
X203509871Y-134408511D01*
X203694790Y-134464605D01*
X203838913Y-134478800D01*
X204385287Y-134478800D01*
X204529410Y-134464605D01*
X204714329Y-134408511D01*
X204884751Y-134317418D01*
X205034128Y-134194828D01*
X205112100Y-134099818D01*
X205190072Y-134194828D01*
X205339449Y-134317418D01*
X205509871Y-134408511D01*
X205694790Y-134464605D01*
X205838913Y-134478800D01*
X206385287Y-134478800D01*
X206529410Y-134464605D01*
X206714329Y-134408511D01*
X206884751Y-134317418D01*
X207034128Y-134194828D01*
X207156718Y-134045451D01*
X207247811Y-133875029D01*
X207303905Y-133690110D01*
X207322846Y-133497800D01*
X207303905Y-133305490D01*
X207247811Y-133120571D01*
X207156718Y-132950149D01*
X207034128Y-132800772D01*
X206884751Y-132678182D01*
X206714329Y-132587089D01*
X206529410Y-132530995D01*
X206385287Y-132516800D01*
X205838913Y-132516800D01*
X205694790Y-132530995D01*
X205509871Y-132587089D01*
X205339449Y-132678182D01*
X205190072Y-132800772D01*
X205112100Y-132895782D01*
X205034128Y-132800772D01*
X204884751Y-132678182D01*
X204714329Y-132587089D01*
X204529410Y-132530995D01*
X204385287Y-132516800D01*
X203838913Y-132516800D01*
X203694790Y-132530995D01*
X203509871Y-132587089D01*
X203339449Y-132678182D01*
X203190072Y-132800772D01*
X203067482Y-132950149D01*
X202976389Y-133120571D01*
X202920295Y-133305490D01*
X202901354Y-133497800D01*
X145628832Y-133497800D01*
X145628832Y-133299310D01*
X145721695Y-131497800D01*
X202901354Y-131497800D01*
X202920295Y-131690110D01*
X202976389Y-131875029D01*
X203067482Y-132045451D01*
X203190072Y-132194828D01*
X203339449Y-132317418D01*
X203509871Y-132408511D01*
X203694790Y-132464605D01*
X203838913Y-132478800D01*
X204385287Y-132478800D01*
X204529410Y-132464605D01*
X204714329Y-132408511D01*
X204884751Y-132317418D01*
X205034128Y-132194828D01*
X205112100Y-132099818D01*
X205190072Y-132194828D01*
X205339449Y-132317418D01*
X205509871Y-132408511D01*
X205694790Y-132464605D01*
X205838913Y-132478800D01*
X206385287Y-132478800D01*
X206529410Y-132464605D01*
X206714329Y-132408511D01*
X206884751Y-132317418D01*
X207034128Y-132194828D01*
X207156718Y-132045451D01*
X207247811Y-131875029D01*
X207303905Y-131690110D01*
X207322846Y-131497800D01*
X207303905Y-131305490D01*
X207247811Y-131120571D01*
X207156718Y-130950149D01*
X207034128Y-130800772D01*
X206884751Y-130678182D01*
X206714329Y-130587089D01*
X206529410Y-130530995D01*
X206385287Y-130516800D01*
X205838913Y-130516800D01*
X205694790Y-130530995D01*
X205509871Y-130587089D01*
X205339449Y-130678182D01*
X205190072Y-130800772D01*
X205112100Y-130895782D01*
X205034128Y-130800772D01*
X204884751Y-130678182D01*
X204714329Y-130587089D01*
X204529410Y-130530995D01*
X204385287Y-130516800D01*
X203838913Y-130516800D01*
X203694790Y-130530995D01*
X203509871Y-130587089D01*
X203339449Y-130678182D01*
X203190072Y-130800772D01*
X203067482Y-130950149D01*
X202976389Y-131120571D01*
X202920295Y-131305490D01*
X202901354Y-131497800D01*
X145721695Y-131497800D01*
X145786614Y-130238394D01*
X145899347Y-129147799D01*
X202904257Y-129147799D01*
X202904257Y-129847801D01*
X202916417Y-129971262D01*
X202952429Y-130089979D01*
X203010910Y-130199389D01*
X203089612Y-130295288D01*
X203185511Y-130373990D01*
X203294921Y-130432471D01*
X203413638Y-130468483D01*
X203537099Y-130480643D01*
X204687101Y-130480643D01*
X204810562Y-130468483D01*
X204929279Y-130432471D01*
X205038689Y-130373990D01*
X205134588Y-130295288D01*
X205206183Y-130208050D01*
X205339449Y-130317418D01*
X205509871Y-130408511D01*
X205694790Y-130464605D01*
X205838913Y-130478800D01*
X206385287Y-130478800D01*
X206529410Y-130464605D01*
X206714329Y-130408511D01*
X206884751Y-130317418D01*
X206981515Y-130238006D01*
X208494028Y-131750520D01*
X208509873Y-131769827D01*
X208586921Y-131833059D01*
X208674825Y-131880045D01*
X208741157Y-131900166D01*
X208770206Y-131908978D01*
X208780094Y-131909952D01*
X208844546Y-131916300D01*
X208844553Y-131916300D01*
X208865583Y-131918371D01*
X208874478Y-131947695D01*
X208931804Y-132054944D01*
X209008951Y-132148949D01*
X209102956Y-132226096D01*
X209210205Y-132283422D01*
X209326577Y-132318723D01*
X209447600Y-132330643D01*
X209922600Y-132330643D01*
X210043623Y-132318723D01*
X210159995Y-132283422D01*
X210267244Y-132226096D01*
X210361249Y-132148949D01*
X210438396Y-132054944D01*
X210495722Y-131947695D01*
X210505246Y-131916300D01*
X210515954Y-131916300D01*
X210525478Y-131947695D01*
X210582804Y-132054944D01*
X210659951Y-132148949D01*
X210753956Y-132226096D01*
X210861205Y-132283422D01*
X210977577Y-132318723D01*
X211098600Y-132330643D01*
X211573600Y-132330643D01*
X211694623Y-132318723D01*
X211810995Y-132283422D01*
X211918244Y-132226096D01*
X212012249Y-132148949D01*
X212089396Y-132054944D01*
X212146722Y-131947695D01*
X212182023Y-131831323D01*
X212193943Y-131710300D01*
X212193943Y-131110300D01*
X212182023Y-130989277D01*
X212146722Y-130872905D01*
X212089396Y-130765656D01*
X212012249Y-130671651D01*
X211918244Y-130594504D01*
X211810995Y-130537178D01*
X211694623Y-130501877D01*
X211573600Y-130489957D01*
X211098600Y-130489957D01*
X210977577Y-130501877D01*
X210861205Y-130537178D01*
X210753956Y-130594504D01*
X210659951Y-130671651D01*
X210582804Y-130765656D01*
X210525478Y-130872905D01*
X210515954Y-130904300D01*
X210505246Y-130904300D01*
X210495722Y-130872905D01*
X210438396Y-130765656D01*
X210361249Y-130671651D01*
X210267244Y-130594504D01*
X210159995Y-130537178D01*
X210043623Y-130501877D01*
X209922600Y-130489957D01*
X209447600Y-130489957D01*
X209326577Y-130501877D01*
X209210205Y-130537178D01*
X209102956Y-130594504D01*
X209008951Y-130671651D01*
X208935655Y-130760963D01*
X207332276Y-129157585D01*
X207316427Y-129138273D01*
X207239379Y-129075041D01*
X207217113Y-129063140D01*
X207156718Y-128950149D01*
X207034128Y-128800772D01*
X206884751Y-128678182D01*
X206714329Y-128587089D01*
X206529410Y-128530995D01*
X206385287Y-128516800D01*
X205838913Y-128516800D01*
X205694790Y-128530995D01*
X205509871Y-128587089D01*
X205339449Y-128678182D01*
X205206183Y-128787550D01*
X205134588Y-128700312D01*
X205038689Y-128621610D01*
X204929279Y-128563129D01*
X204810562Y-128527117D01*
X204687101Y-128514957D01*
X203537099Y-128514957D01*
X203413638Y-128527117D01*
X203294921Y-128563129D01*
X203185511Y-128621610D01*
X203089612Y-128700312D01*
X203010910Y-128796211D01*
X202952429Y-128905621D01*
X202916417Y-129024338D01*
X202904257Y-129147799D01*
X145899347Y-129147799D01*
X146101758Y-127189658D01*
X146573430Y-124161189D01*
X146739224Y-123367800D01*
X189912418Y-123367800D01*
X189939082Y-123638523D01*
X190018049Y-123898843D01*
X190146285Y-124138755D01*
X190318861Y-124349039D01*
X190371558Y-124392286D01*
X193323616Y-127344345D01*
X193366861Y-127397039D01*
X193419555Y-127440284D01*
X193419557Y-127440286D01*
X193552612Y-127549481D01*
X193577145Y-127569615D01*
X193817057Y-127697851D01*
X194077377Y-127776818D01*
X194280257Y-127796800D01*
X194280267Y-127796800D01*
X194348100Y-127803481D01*
X194415933Y-127796800D01*
X198344267Y-127796800D01*
X198412100Y-127803481D01*
X198479933Y-127796800D01*
X198479943Y-127796800D01*
X198682823Y-127776818D01*
X198943143Y-127697851D01*
X199183055Y-127569615D01*
X199393339Y-127397039D01*
X199436588Y-127344340D01*
X199594642Y-127186286D01*
X199647339Y-127143039D01*
X199819915Y-126932755D01*
X199948151Y-126692842D01*
X200027117Y-126432522D01*
X200053781Y-126161800D01*
X200027117Y-125891077D01*
X199948151Y-125630757D01*
X199819915Y-125390845D01*
X199690586Y-125233257D01*
X199690581Y-125233252D01*
X199647339Y-125180561D01*
X199594648Y-125137319D01*
X196642588Y-122185260D01*
X196599339Y-122132561D01*
X196389055Y-121959985D01*
X196149143Y-121831749D01*
X195888823Y-121752782D01*
X195685943Y-121732800D01*
X195685933Y-121732800D01*
X195618100Y-121726119D01*
X195550267Y-121732800D01*
X191621932Y-121732800D01*
X191554099Y-121726119D01*
X191486266Y-121732800D01*
X191486257Y-121732800D01*
X191283377Y-121752782D01*
X191023057Y-121831749D01*
X190783145Y-121959985D01*
X190572861Y-122132561D01*
X190529612Y-122185260D01*
X190371560Y-122343312D01*
X190318861Y-122386561D01*
X190146285Y-122596845D01*
X190018049Y-122836757D01*
X189939082Y-123097077D01*
X189912418Y-123367800D01*
X146739224Y-123367800D01*
X147200378Y-121161015D01*
X147980940Y-118197094D01*
X148913046Y-115277286D01*
X149994224Y-112409332D01*
X151221607Y-109600839D01*
X151233593Y-109576858D01*
X202539626Y-109576858D01*
X202539626Y-110086742D01*
X202639099Y-110586830D01*
X202834224Y-111057902D01*
X203117501Y-111481856D01*
X203478044Y-111842399D01*
X203901998Y-112125676D01*
X204373070Y-112320801D01*
X204873158Y-112420274D01*
X205383042Y-112420274D01*
X205883130Y-112320801D01*
X206354202Y-112125676D01*
X206778156Y-111842399D01*
X207138699Y-111481856D01*
X207421976Y-111057902D01*
X207617101Y-110586830D01*
X207716574Y-110086742D01*
X207716574Y-109576858D01*
X207617101Y-109076770D01*
X207421976Y-108605698D01*
X207138699Y-108181744D01*
X206778156Y-107821201D01*
X206354202Y-107537924D01*
X205883130Y-107342799D01*
X205383042Y-107243326D01*
X204873158Y-107243326D01*
X204373070Y-107342799D01*
X203901998Y-107537924D01*
X203478044Y-107821201D01*
X203117501Y-108181744D01*
X202834224Y-108605698D01*
X202639099Y-109076770D01*
X202539626Y-109576858D01*
X151233593Y-109576858D01*
X152591941Y-106859254D01*
X154101591Y-104191847D01*
X155746554Y-101605692D01*
X157522468Y-99107646D01*
X159424624Y-96704335D01*
X161447977Y-94402130D01*
X163587162Y-92207138D01*
X165836506Y-90125179D01*
X168190044Y-88161773D01*
X170641536Y-86322128D01*
X173184479Y-84611122D01*
X175812132Y-83033293D01*
X178517525Y-81592823D01*
X181293484Y-80293534D01*
X184132649Y-79138871D01*
X187027489Y-78131895D01*
X189970330Y-77275277D01*
X192953366Y-76571288D01*
X195968687Y-76021797D01*
X199008297Y-75628258D01*
X202064136Y-75391717D01*
X205128100Y-75312800D01*
X208192064Y-75391717D01*
G37*
X208192064Y-75391717D02*
X211247903Y-75628258D01*
X214287513Y-76021797D01*
X217302834Y-76571288D01*
X220285870Y-77275277D01*
X223228711Y-78131895D01*
X226123551Y-79138871D01*
X228962716Y-80293534D01*
X231738675Y-81592823D01*
X234444068Y-83033293D01*
X237071721Y-84611122D01*
X239614664Y-86322128D01*
X242066156Y-88161773D01*
X244419694Y-90125179D01*
X246669038Y-92207138D01*
X248808223Y-94402130D01*
X250831576Y-96704335D01*
X252733732Y-99107646D01*
X254509646Y-101605692D01*
X256154609Y-104191847D01*
X257664259Y-106859254D01*
X259034593Y-109600839D01*
X260261976Y-112409332D01*
X261343154Y-115277286D01*
X262275260Y-118197094D01*
X263055822Y-121161015D01*
X263682770Y-124161189D01*
X264154442Y-127189658D01*
X264469586Y-130238394D01*
X264627368Y-133299310D01*
X264627368Y-136364290D01*
X264469586Y-139425206D01*
X264154442Y-142473942D01*
X263682770Y-145502411D01*
X263055822Y-148502585D01*
X262275260Y-151466506D01*
X261343154Y-154386314D01*
X260261976Y-157254268D01*
X259034593Y-160062761D01*
X257664259Y-162804346D01*
X256154609Y-165471753D01*
X254509646Y-168057908D01*
X252733732Y-170555954D01*
X250831576Y-172959265D01*
X248808223Y-175261470D01*
X246669038Y-177456462D01*
X244419694Y-179538421D01*
X242066156Y-181501827D01*
X239614664Y-183341472D01*
X237071721Y-185052478D01*
X234444068Y-186630307D01*
X231738675Y-188070777D01*
X228962716Y-189370066D01*
X226123551Y-190524729D01*
X223228711Y-191531705D01*
X220285870Y-192388323D01*
X217302834Y-193092312D01*
X214287513Y-193641803D01*
X211247903Y-194035342D01*
X208192064Y-194271883D01*
X205128100Y-194350800D01*
X202064136Y-194271883D01*
X199008297Y-194035342D01*
X195968687Y-193641803D01*
X192953366Y-193092312D01*
X189970330Y-192388323D01*
X187027489Y-191531705D01*
X184132649Y-190524729D01*
X181293484Y-189370066D01*
X178517525Y-188070777D01*
X175812132Y-186630307D01*
X173184479Y-185052478D01*
X170641536Y-183341472D01*
X168190044Y-181501827D01*
X165836506Y-179538421D01*
X163587162Y-177456462D01*
X161447977Y-175261470D01*
X159424624Y-172959265D01*
X157522468Y-170555954D01*
X155746554Y-168057908D01*
X154101591Y-165471753D01*
X152591941Y-162804346D01*
X151221607Y-160062761D01*
X149994224Y-157254268D01*
X148913046Y-154386314D01*
X147980940Y-151466506D01*
X147200378Y-148502585D01*
X146902443Y-147076857D01*
X180888990Y-147076857D01*
X180888990Y-147586743D01*
X180988463Y-148086830D01*
X181183588Y-148557903D01*
X181466865Y-148981857D01*
X181827408Y-149342400D01*
X182251362Y-149625677D01*
X182722435Y-149820802D01*
X183222522Y-149920275D01*
X183732408Y-149920275D01*
X184232495Y-149820802D01*
X184703568Y-149625677D01*
X185127522Y-149342400D01*
X185488065Y-148981857D01*
X185771342Y-148557903D01*
X185966467Y-148086830D01*
X186065940Y-147586743D01*
X186065940Y-147076857D01*
X224190260Y-147076857D01*
X224190260Y-147586743D01*
X224289733Y-148086830D01*
X224484858Y-148557903D01*
X224768135Y-148981857D01*
X225128678Y-149342400D01*
X225552632Y-149625677D01*
X226023705Y-149820802D01*
X226523792Y-149920275D01*
X227033678Y-149920275D01*
X227533765Y-149820802D01*
X228004838Y-149625677D01*
X228428792Y-149342400D01*
X228789335Y-148981857D01*
X229072612Y-148557903D01*
X229267737Y-148086830D01*
X229367210Y-147586743D01*
X229367210Y-147076857D01*
X229267737Y-146576770D01*
X229072612Y-146105697D01*
X228789335Y-145681743D01*
X228428792Y-145321200D01*
X228004838Y-145037923D01*
X227533765Y-144842798D01*
X227033678Y-144743325D01*
X226523792Y-144743325D01*
X226023705Y-144842798D01*
X225552632Y-145037923D01*
X225128678Y-145321200D01*
X224768135Y-145681743D01*
X224484858Y-146105697D01*
X224289733Y-146576770D01*
X224190260Y-147076857D01*
X186065940Y-147076857D01*
X185966467Y-146576770D01*
X185771342Y-146105697D01*
X185488065Y-145681743D01*
X185127522Y-145321200D01*
X184703568Y-145037923D01*
X184232495Y-144842798D01*
X183732408Y-144743325D01*
X183222522Y-144743325D01*
X182722435Y-144842798D01*
X182251362Y-145037923D01*
X181827408Y-145321200D01*
X181466865Y-145681743D01*
X181183588Y-146105697D01*
X180988463Y-146576770D01*
X180888990Y-147076857D01*
X146902443Y-147076857D01*
X146573430Y-145502411D01*
X146101758Y-142473942D01*
X146000856Y-141497800D01*
X202901354Y-141497800D01*
X202920295Y-141690110D01*
X202976389Y-141875029D01*
X203067482Y-142045451D01*
X203190072Y-142194828D01*
X203339449Y-142317418D01*
X203509871Y-142408511D01*
X203612704Y-142439705D01*
X203613422Y-142446992D01*
X203642355Y-142542374D01*
X203642356Y-142542375D01*
X203689342Y-142630279D01*
X203752574Y-142707327D01*
X203771880Y-142723171D01*
X204894738Y-143846030D01*
X204910583Y-143865337D01*
X204987631Y-143928569D01*
X205075535Y-143975555D01*
X205148717Y-143997754D01*
X205170916Y-144004488D01*
X205180804Y-144005462D01*
X205245256Y-144011810D01*
X205245263Y-144011810D01*
X205270109Y-144014257D01*
X205294955Y-144011810D01*
X211451754Y-144011810D01*
X211476600Y-144014257D01*
X211501446Y-144011810D01*
X211501454Y-144011810D01*
X211575793Y-144004488D01*
X211671175Y-143975555D01*
X211759079Y-143928569D01*
X211836127Y-143865337D01*
X211851976Y-143846025D01*
X217787320Y-137910682D01*
X217806627Y-137894837D01*
X217869859Y-137817789D01*
X217916845Y-137729885D01*
X217945778Y-137634503D01*
X217953100Y-137560164D01*
X217953100Y-137560157D01*
X217955547Y-137535311D01*
X217953100Y-137510465D01*
X217953100Y-136644289D01*
X217961975Y-136631007D01*
X218005772Y-136525271D01*
X218028100Y-136413023D01*
X218028100Y-136298577D01*
X218005772Y-136186329D01*
X217961975Y-136080593D01*
X217898392Y-135985434D01*
X217817466Y-135904508D01*
X217722307Y-135840925D01*
X217616571Y-135797128D01*
X217504323Y-135774800D01*
X217389877Y-135774800D01*
X217277629Y-135797128D01*
X217171893Y-135840925D01*
X217076734Y-135904508D01*
X216995808Y-135985434D01*
X216932225Y-136080593D01*
X216888428Y-136186329D01*
X216866100Y-136298577D01*
X216866100Y-136413023D01*
X216888428Y-136525271D01*
X216932225Y-136631007D01*
X216941100Y-136644289D01*
X216941100Y-136663495D01*
X216941101Y-136663505D01*
X216941100Y-137325718D01*
X211267009Y-142999810D01*
X210033377Y-142999810D01*
X210038943Y-142943300D01*
X210038943Y-142468300D01*
X210027023Y-142347277D01*
X209991722Y-142230905D01*
X209934396Y-142123656D01*
X209857249Y-142029651D01*
X209763244Y-141952504D01*
X209674600Y-141905123D01*
X209674600Y-141874964D01*
X209692608Y-141869501D01*
X209758796Y-141834122D01*
X209816811Y-141786511D01*
X209864422Y-141728496D01*
X209899801Y-141662308D01*
X209921587Y-141590489D01*
X209928943Y-141515800D01*
X209928943Y-140715800D01*
X209921587Y-140641111D01*
X209899801Y-140569292D01*
X209864422Y-140503104D01*
X209816811Y-140445089D01*
X209758796Y-140397478D01*
X209692608Y-140362099D01*
X209620789Y-140340313D01*
X209546100Y-140332957D01*
X208646100Y-140332957D01*
X208571411Y-140340313D01*
X208499592Y-140362099D01*
X208433404Y-140397478D01*
X208375389Y-140445089D01*
X208327778Y-140503104D01*
X208292399Y-140569292D01*
X208280111Y-140609800D01*
X206756818Y-140609800D01*
X206714329Y-140587089D01*
X206529410Y-140530995D01*
X206385287Y-140516800D01*
X205838913Y-140516800D01*
X205694790Y-140530995D01*
X205509871Y-140587089D01*
X205339449Y-140678182D01*
X205190072Y-140800772D01*
X205112100Y-140895782D01*
X205034128Y-140800772D01*
X204884751Y-140678182D01*
X204714329Y-140587089D01*
X204529410Y-140530995D01*
X204385287Y-140516800D01*
X203838913Y-140516800D01*
X203694790Y-140530995D01*
X203509871Y-140587089D01*
X203339449Y-140678182D01*
X203190072Y-140800772D01*
X203067482Y-140950149D01*
X202976389Y-141120571D01*
X202920295Y-141305490D01*
X202901354Y-141497800D01*
X146000856Y-141497800D01*
X145794118Y-139497800D01*
X202901354Y-139497800D01*
X202920295Y-139690110D01*
X202976389Y-139875029D01*
X203067482Y-140045451D01*
X203190072Y-140194828D01*
X203339449Y-140317418D01*
X203509871Y-140408511D01*
X203694790Y-140464605D01*
X203838913Y-140478800D01*
X204385287Y-140478800D01*
X204529410Y-140464605D01*
X204714329Y-140408511D01*
X204884751Y-140317418D01*
X205034128Y-140194828D01*
X205112100Y-140099818D01*
X205190072Y-140194828D01*
X205339449Y-140317418D01*
X205509871Y-140408511D01*
X205694790Y-140464605D01*
X205838913Y-140478800D01*
X206385287Y-140478800D01*
X206529410Y-140464605D01*
X206714329Y-140408511D01*
X206884751Y-140317418D01*
X207034128Y-140194828D01*
X207156718Y-140045451D01*
X207247811Y-139875029D01*
X207303905Y-139690110D01*
X207322846Y-139497800D01*
X207303905Y-139305490D01*
X207247811Y-139120571D01*
X207156718Y-138950149D01*
X207034128Y-138800772D01*
X206884751Y-138678182D01*
X206714329Y-138587089D01*
X206529410Y-138530995D01*
X206385287Y-138516800D01*
X205838913Y-138516800D01*
X205694790Y-138530995D01*
X205509871Y-138587089D01*
X205339449Y-138678182D01*
X205190072Y-138800772D01*
X205112100Y-138895782D01*
X205034128Y-138800772D01*
X204884751Y-138678182D01*
X204714329Y-138587089D01*
X204529410Y-138530995D01*
X204385287Y-138516800D01*
X203838913Y-138516800D01*
X203694790Y-138530995D01*
X203509871Y-138587089D01*
X203339449Y-138678182D01*
X203190072Y-138800772D01*
X203067482Y-138950149D01*
X202976389Y-139120571D01*
X202920295Y-139305490D01*
X202901354Y-139497800D01*
X145794118Y-139497800D01*
X145786614Y-139425206D01*
X145628832Y-136364290D01*
X145628832Y-135497800D01*
X202901354Y-135497800D01*
X202920295Y-135690110D01*
X202976389Y-135875029D01*
X203067482Y-136045451D01*
X203190072Y-136194828D01*
X203339449Y-136317418D01*
X203509871Y-136408511D01*
X203694790Y-136464605D01*
X203838913Y-136478800D01*
X204385287Y-136478800D01*
X204418810Y-136475498D01*
X204377509Y-136516800D01*
X203838913Y-136516800D01*
X203694790Y-136530995D01*
X203509871Y-136587089D01*
X203339449Y-136678182D01*
X203190072Y-136800772D01*
X203067482Y-136950149D01*
X202976389Y-137120571D01*
X202920295Y-137305490D01*
X202901354Y-137497800D01*
X202920295Y-137690110D01*
X202976389Y-137875029D01*
X203067482Y-138045451D01*
X203190072Y-138194828D01*
X203339449Y-138317418D01*
X203509871Y-138408511D01*
X203694790Y-138464605D01*
X203838913Y-138478800D01*
X204385287Y-138478800D01*
X204529410Y-138464605D01*
X204714329Y-138408511D01*
X204884751Y-138317418D01*
X205034128Y-138194828D01*
X205112100Y-138099818D01*
X205190072Y-138194828D01*
X205339449Y-138317418D01*
X205509871Y-138408511D01*
X205694790Y-138464605D01*
X205838913Y-138478800D01*
X206385287Y-138478800D01*
X206529410Y-138464605D01*
X206714329Y-138408511D01*
X206884751Y-138317418D01*
X207034128Y-138194828D01*
X207156718Y-138045451D01*
X207247811Y-137875029D01*
X207303905Y-137690110D01*
X207322846Y-137497800D01*
X207303905Y-137305490D01*
X207247811Y-137120571D01*
X207156718Y-136950149D01*
X207034128Y-136800772D01*
X206884751Y-136678182D01*
X206714329Y-136587089D01*
X206529410Y-136530995D01*
X206385287Y-136516800D01*
X205838913Y-136516800D01*
X205805390Y-136520102D01*
X205846692Y-136478800D01*
X206385287Y-136478800D01*
X206529410Y-136464605D01*
X206714329Y-136408511D01*
X206884751Y-136317418D01*
X207034128Y-136194828D01*
X207094713Y-136121004D01*
X208590101Y-137616393D01*
X208590100Y-138438472D01*
X208571411Y-138440313D01*
X208499592Y-138462099D01*
X208433404Y-138497478D01*
X208375389Y-138545089D01*
X208327778Y-138603104D01*
X208292399Y-138669292D01*
X208270613Y-138741111D01*
X208263257Y-138815800D01*
X208263257Y-139615800D01*
X208270613Y-139690489D01*
X208292399Y-139762308D01*
X208327778Y-139828496D01*
X208375389Y-139886511D01*
X208433404Y-139934122D01*
X208499592Y-139969501D01*
X208571411Y-139991287D01*
X208646100Y-139998643D01*
X209546100Y-139998643D01*
X209620789Y-139991287D01*
X209692608Y-139969501D01*
X209758796Y-139934122D01*
X209816811Y-139886511D01*
X209864422Y-139828496D01*
X209899801Y-139762308D01*
X209921587Y-139690489D01*
X209928943Y-139615800D01*
X209928943Y-138815800D01*
X209921587Y-138741111D01*
X209899801Y-138669292D01*
X209864422Y-138603104D01*
X209816811Y-138545089D01*
X209758796Y-138497478D01*
X209692608Y-138462099D01*
X209620789Y-138440313D01*
X209602100Y-138438472D01*
X209602100Y-137431654D01*
X209604548Y-137406800D01*
X209594778Y-137307607D01*
X209565845Y-137212225D01*
X209518859Y-137124321D01*
X209455627Y-137047273D01*
X209436320Y-137031428D01*
X207562476Y-135157585D01*
X207546627Y-135138273D01*
X207469579Y-135075041D01*
X207381675Y-135028055D01*
X207286293Y-134999122D01*
X207211954Y-134991800D01*
X207211946Y-134991800D01*
X207187100Y-134989353D01*
X207178145Y-134990235D01*
X207156718Y-134950149D01*
X207034128Y-134800772D01*
X206884751Y-134678182D01*
X206714329Y-134587089D01*
X206529410Y-134530995D01*
X206385287Y-134516800D01*
X205838913Y-134516800D01*
X205694790Y-134530995D01*
X205509871Y-134587089D01*
X205339449Y-134678182D01*
X205190072Y-134800772D01*
X205112100Y-134895782D01*
X205034128Y-134800772D01*
X204884751Y-134678182D01*
X204714329Y-134587089D01*
X204529410Y-134530995D01*
X204385287Y-134516800D01*
X203838913Y-134516800D01*
X203694790Y-134530995D01*
X203509871Y-134587089D01*
X203339449Y-134678182D01*
X203190072Y-134800772D01*
X203067482Y-134950149D01*
X202976389Y-135120571D01*
X202920295Y-135305490D01*
X202901354Y-135497800D01*
X145628832Y-135497800D01*
X145628832Y-133497800D01*
X202901354Y-133497800D01*
X202920295Y-133690110D01*
X202976389Y-133875029D01*
X203067482Y-134045451D01*
X203190072Y-134194828D01*
X203339449Y-134317418D01*
X203509871Y-134408511D01*
X203694790Y-134464605D01*
X203838913Y-134478800D01*
X204385287Y-134478800D01*
X204529410Y-134464605D01*
X204714329Y-134408511D01*
X204884751Y-134317418D01*
X205034128Y-134194828D01*
X205112100Y-134099818D01*
X205190072Y-134194828D01*
X205339449Y-134317418D01*
X205509871Y-134408511D01*
X205694790Y-134464605D01*
X205838913Y-134478800D01*
X206385287Y-134478800D01*
X206529410Y-134464605D01*
X206714329Y-134408511D01*
X206884751Y-134317418D01*
X207034128Y-134194828D01*
X207156718Y-134045451D01*
X207247811Y-133875029D01*
X207303905Y-133690110D01*
X207322846Y-133497800D01*
X207303905Y-133305490D01*
X207247811Y-133120571D01*
X207156718Y-132950149D01*
X207034128Y-132800772D01*
X206884751Y-132678182D01*
X206714329Y-132587089D01*
X206529410Y-132530995D01*
X206385287Y-132516800D01*
X205838913Y-132516800D01*
X205694790Y-132530995D01*
X205509871Y-132587089D01*
X205339449Y-132678182D01*
X205190072Y-132800772D01*
X205112100Y-132895782D01*
X205034128Y-132800772D01*
X204884751Y-132678182D01*
X204714329Y-132587089D01*
X204529410Y-132530995D01*
X204385287Y-132516800D01*
X203838913Y-132516800D01*
X203694790Y-132530995D01*
X203509871Y-132587089D01*
X203339449Y-132678182D01*
X203190072Y-132800772D01*
X203067482Y-132950149D01*
X202976389Y-133120571D01*
X202920295Y-133305490D01*
X202901354Y-133497800D01*
X145628832Y-133497800D01*
X145628832Y-133299310D01*
X145721695Y-131497800D01*
X202901354Y-131497800D01*
X202920295Y-131690110D01*
X202976389Y-131875029D01*
X203067482Y-132045451D01*
X203190072Y-132194828D01*
X203339449Y-132317418D01*
X203509871Y-132408511D01*
X203694790Y-132464605D01*
X203838913Y-132478800D01*
X204385287Y-132478800D01*
X204529410Y-132464605D01*
X204714329Y-132408511D01*
X204884751Y-132317418D01*
X205034128Y-132194828D01*
X205112100Y-132099818D01*
X205190072Y-132194828D01*
X205339449Y-132317418D01*
X205509871Y-132408511D01*
X205694790Y-132464605D01*
X205838913Y-132478800D01*
X206385287Y-132478800D01*
X206529410Y-132464605D01*
X206714329Y-132408511D01*
X206884751Y-132317418D01*
X207034128Y-132194828D01*
X207156718Y-132045451D01*
X207247811Y-131875029D01*
X207303905Y-131690110D01*
X207322846Y-131497800D01*
X207303905Y-131305490D01*
X207247811Y-131120571D01*
X207156718Y-130950149D01*
X207034128Y-130800772D01*
X206884751Y-130678182D01*
X206714329Y-130587089D01*
X206529410Y-130530995D01*
X206385287Y-130516800D01*
X205838913Y-130516800D01*
X205694790Y-130530995D01*
X205509871Y-130587089D01*
X205339449Y-130678182D01*
X205190072Y-130800772D01*
X205112100Y-130895782D01*
X205034128Y-130800772D01*
X204884751Y-130678182D01*
X204714329Y-130587089D01*
X204529410Y-130530995D01*
X204385287Y-130516800D01*
X203838913Y-130516800D01*
X203694790Y-130530995D01*
X203509871Y-130587089D01*
X203339449Y-130678182D01*
X203190072Y-130800772D01*
X203067482Y-130950149D01*
X202976389Y-131120571D01*
X202920295Y-131305490D01*
X202901354Y-131497800D01*
X145721695Y-131497800D01*
X145786614Y-130238394D01*
X145899347Y-129147799D01*
X202904257Y-129147799D01*
X202904257Y-129847801D01*
X202916417Y-129971262D01*
X202952429Y-130089979D01*
X203010910Y-130199389D01*
X203089612Y-130295288D01*
X203185511Y-130373990D01*
X203294921Y-130432471D01*
X203413638Y-130468483D01*
X203537099Y-130480643D01*
X204687101Y-130480643D01*
X204810562Y-130468483D01*
X204929279Y-130432471D01*
X205038689Y-130373990D01*
X205134588Y-130295288D01*
X205206183Y-130208050D01*
X205339449Y-130317418D01*
X205509871Y-130408511D01*
X205694790Y-130464605D01*
X205838913Y-130478800D01*
X206385287Y-130478800D01*
X206529410Y-130464605D01*
X206714329Y-130408511D01*
X206884751Y-130317418D01*
X206981515Y-130238006D01*
X208494028Y-131750520D01*
X208509873Y-131769827D01*
X208586921Y-131833059D01*
X208674825Y-131880045D01*
X208741157Y-131900166D01*
X208770206Y-131908978D01*
X208780094Y-131909952D01*
X208844546Y-131916300D01*
X208844553Y-131916300D01*
X208865583Y-131918371D01*
X208874478Y-131947695D01*
X208931804Y-132054944D01*
X209008951Y-132148949D01*
X209102956Y-132226096D01*
X209210205Y-132283422D01*
X209326577Y-132318723D01*
X209447600Y-132330643D01*
X209922600Y-132330643D01*
X210043623Y-132318723D01*
X210159995Y-132283422D01*
X210267244Y-132226096D01*
X210361249Y-132148949D01*
X210438396Y-132054944D01*
X210495722Y-131947695D01*
X210505246Y-131916300D01*
X210515954Y-131916300D01*
X210525478Y-131947695D01*
X210582804Y-132054944D01*
X210659951Y-132148949D01*
X210753956Y-132226096D01*
X210861205Y-132283422D01*
X210977577Y-132318723D01*
X211098600Y-132330643D01*
X211573600Y-132330643D01*
X211694623Y-132318723D01*
X211810995Y-132283422D01*
X211918244Y-132226096D01*
X212012249Y-132148949D01*
X212089396Y-132054944D01*
X212146722Y-131947695D01*
X212182023Y-131831323D01*
X212193943Y-131710300D01*
X212193943Y-131110300D01*
X212182023Y-130989277D01*
X212146722Y-130872905D01*
X212089396Y-130765656D01*
X212012249Y-130671651D01*
X211918244Y-130594504D01*
X211810995Y-130537178D01*
X211694623Y-130501877D01*
X211573600Y-130489957D01*
X211098600Y-130489957D01*
X210977577Y-130501877D01*
X210861205Y-130537178D01*
X210753956Y-130594504D01*
X210659951Y-130671651D01*
X210582804Y-130765656D01*
X210525478Y-130872905D01*
X210515954Y-130904300D01*
X210505246Y-130904300D01*
X210495722Y-130872905D01*
X210438396Y-130765656D01*
X210361249Y-130671651D01*
X210267244Y-130594504D01*
X210159995Y-130537178D01*
X210043623Y-130501877D01*
X209922600Y-130489957D01*
X209447600Y-130489957D01*
X209326577Y-130501877D01*
X209210205Y-130537178D01*
X209102956Y-130594504D01*
X209008951Y-130671651D01*
X208935655Y-130760963D01*
X207332276Y-129157585D01*
X207316427Y-129138273D01*
X207239379Y-129075041D01*
X207217113Y-129063140D01*
X207156718Y-128950149D01*
X207034128Y-128800772D01*
X206884751Y-128678182D01*
X206714329Y-128587089D01*
X206529410Y-128530995D01*
X206385287Y-128516800D01*
X205838913Y-128516800D01*
X205694790Y-128530995D01*
X205509871Y-128587089D01*
X205339449Y-128678182D01*
X205206183Y-128787550D01*
X205134588Y-128700312D01*
X205038689Y-128621610D01*
X204929279Y-128563129D01*
X204810562Y-128527117D01*
X204687101Y-128514957D01*
X203537099Y-128514957D01*
X203413638Y-128527117D01*
X203294921Y-128563129D01*
X203185511Y-128621610D01*
X203089612Y-128700312D01*
X203010910Y-128796211D01*
X202952429Y-128905621D01*
X202916417Y-129024338D01*
X202904257Y-129147799D01*
X145899347Y-129147799D01*
X146101758Y-127189658D01*
X146573430Y-124161189D01*
X146739224Y-123367800D01*
X189912418Y-123367800D01*
X189939082Y-123638523D01*
X190018049Y-123898843D01*
X190146285Y-124138755D01*
X190318861Y-124349039D01*
X190371558Y-124392286D01*
X193323616Y-127344345D01*
X193366861Y-127397039D01*
X193419555Y-127440284D01*
X193419557Y-127440286D01*
X193552612Y-127549481D01*
X193577145Y-127569615D01*
X193817057Y-127697851D01*
X194077377Y-127776818D01*
X194280257Y-127796800D01*
X194280267Y-127796800D01*
X194348100Y-127803481D01*
X194415933Y-127796800D01*
X198344267Y-127796800D01*
X198412100Y-127803481D01*
X198479933Y-127796800D01*
X198479943Y-127796800D01*
X198682823Y-127776818D01*
X198943143Y-127697851D01*
X199183055Y-127569615D01*
X199393339Y-127397039D01*
X199436588Y-127344340D01*
X199594642Y-127186286D01*
X199647339Y-127143039D01*
X199819915Y-126932755D01*
X199948151Y-126692842D01*
X200027117Y-126432522D01*
X200053781Y-126161800D01*
X200027117Y-125891077D01*
X199948151Y-125630757D01*
X199819915Y-125390845D01*
X199690586Y-125233257D01*
X199690581Y-125233252D01*
X199647339Y-125180561D01*
X199594648Y-125137319D01*
X196642588Y-122185260D01*
X196599339Y-122132561D01*
X196389055Y-121959985D01*
X196149143Y-121831749D01*
X195888823Y-121752782D01*
X195685943Y-121732800D01*
X195685933Y-121732800D01*
X195618100Y-121726119D01*
X195550267Y-121732800D01*
X191621932Y-121732800D01*
X191554099Y-121726119D01*
X191486266Y-121732800D01*
X191486257Y-121732800D01*
X191283377Y-121752782D01*
X191023057Y-121831749D01*
X190783145Y-121959985D01*
X190572861Y-122132561D01*
X190529612Y-122185260D01*
X190371560Y-122343312D01*
X190318861Y-122386561D01*
X190146285Y-122596845D01*
X190018049Y-122836757D01*
X189939082Y-123097077D01*
X189912418Y-123367800D01*
X146739224Y-123367800D01*
X147200378Y-121161015D01*
X147980940Y-118197094D01*
X148913046Y-115277286D01*
X149994224Y-112409332D01*
X151221607Y-109600839D01*
X151233593Y-109576858D01*
X202539626Y-109576858D01*
X202539626Y-110086742D01*
X202639099Y-110586830D01*
X202834224Y-111057902D01*
X203117501Y-111481856D01*
X203478044Y-111842399D01*
X203901998Y-112125676D01*
X204373070Y-112320801D01*
X204873158Y-112420274D01*
X205383042Y-112420274D01*
X205883130Y-112320801D01*
X206354202Y-112125676D01*
X206778156Y-111842399D01*
X207138699Y-111481856D01*
X207421976Y-111057902D01*
X207617101Y-110586830D01*
X207716574Y-110086742D01*
X207716574Y-109576858D01*
X207617101Y-109076770D01*
X207421976Y-108605698D01*
X207138699Y-108181744D01*
X206778156Y-107821201D01*
X206354202Y-107537924D01*
X205883130Y-107342799D01*
X205383042Y-107243326D01*
X204873158Y-107243326D01*
X204373070Y-107342799D01*
X203901998Y-107537924D01*
X203478044Y-107821201D01*
X203117501Y-108181744D01*
X202834224Y-108605698D01*
X202639099Y-109076770D01*
X202539626Y-109576858D01*
X151233593Y-109576858D01*
X152591941Y-106859254D01*
X154101591Y-104191847D01*
X155746554Y-101605692D01*
X157522468Y-99107646D01*
X159424624Y-96704335D01*
X161447977Y-94402130D01*
X163587162Y-92207138D01*
X165836506Y-90125179D01*
X168190044Y-88161773D01*
X170641536Y-86322128D01*
X173184479Y-84611122D01*
X175812132Y-83033293D01*
X178517525Y-81592823D01*
X181293484Y-80293534D01*
X184132649Y-79138871D01*
X187027489Y-78131895D01*
X189970330Y-77275277D01*
X192953366Y-76571288D01*
X195968687Y-76021797D01*
X199008297Y-75628258D01*
X202064136Y-75391717D01*
X205128100Y-75312800D01*
X208192064Y-75391717D01*
M02*
