G04 #@! TF.GenerationSoftware,KiCad,Pcbnew,5.1.5+dfsg1-2build2*
G04 #@! TF.CreationDate,2022-01-30T22:27:44+01:00*
G04 #@! TF.ProjectId,Light_Ring_PCB,4c696768-745f-4526-996e-675f5043422e,rev?*
G04 #@! TF.SameCoordinates,Original*
G04 #@! TF.FileFunction,Soldermask,Bot*
G04 #@! TF.FilePolarity,Negative*
%FSLAX46Y46*%
G04 Gerber Fmt 4.6, Leading zero omitted, Abs format (unit mm)*
G04 Created by KiCad (PCBNEW 5.1.5+dfsg1-2build2) date 2022-01-30 22:27:44*
%MOMM*%
%LPD*%
G04 APERTURE LIST*
%ADD10C,0.100000*%
G04 APERTURE END LIST*
D10*
G36*
X211370599Y-142184245D02*
G01*
X211408095Y-142195620D01*
X211442654Y-142214092D01*
X211472947Y-142238953D01*
X211497808Y-142269246D01*
X211516280Y-142303805D01*
X211527655Y-142341301D01*
X211532100Y-142386438D01*
X211532100Y-143025162D01*
X211527655Y-143070299D01*
X211516280Y-143107795D01*
X211497808Y-143142354D01*
X211472947Y-143172647D01*
X211442654Y-143197508D01*
X211408095Y-143215980D01*
X211370599Y-143227355D01*
X211325462Y-143231800D01*
X210661738Y-143231800D01*
X210616601Y-143227355D01*
X210579105Y-143215980D01*
X210544546Y-143197508D01*
X210514253Y-143172647D01*
X210489392Y-143142354D01*
X210470920Y-143107795D01*
X210459545Y-143070299D01*
X210455100Y-143025162D01*
X210455100Y-142386438D01*
X210459545Y-142341301D01*
X210470920Y-142303805D01*
X210489392Y-142269246D01*
X210514253Y-142238953D01*
X210544546Y-142214092D01*
X210579105Y-142195620D01*
X210616601Y-142184245D01*
X210661738Y-142179800D01*
X211325462Y-142179800D01*
X211370599Y-142184245D01*
G37*
G36*
X209545599Y-142184245D02*
G01*
X209583095Y-142195620D01*
X209617654Y-142214092D01*
X209647947Y-142238953D01*
X209672808Y-142269246D01*
X209691280Y-142303805D01*
X209702655Y-142341301D01*
X209707100Y-142386438D01*
X209707100Y-143025162D01*
X209702655Y-143070299D01*
X209691280Y-143107795D01*
X209672808Y-143142354D01*
X209647947Y-143172647D01*
X209617654Y-143197508D01*
X209583095Y-143215980D01*
X209545599Y-143227355D01*
X209500462Y-143231800D01*
X208836738Y-143231800D01*
X208791601Y-143227355D01*
X208754105Y-143215980D01*
X208719546Y-143197508D01*
X208689253Y-143172647D01*
X208664392Y-143142354D01*
X208645920Y-143107795D01*
X208634545Y-143070299D01*
X208630100Y-143025162D01*
X208630100Y-142386438D01*
X208634545Y-142341301D01*
X208645920Y-142303805D01*
X208664392Y-142269246D01*
X208689253Y-142238953D01*
X208719546Y-142214092D01*
X208754105Y-142195620D01*
X208791601Y-142184245D01*
X208836738Y-142179800D01*
X209500462Y-142179800D01*
X209545599Y-142184245D01*
G37*
G36*
X204400955Y-140849940D02*
G01*
X204464718Y-140856220D01*
X204555504Y-140883760D01*
X204587436Y-140893446D01*
X204700525Y-140953894D01*
X204799654Y-141035246D01*
X204881006Y-141134375D01*
X204941454Y-141247464D01*
X204941455Y-141247468D01*
X204978680Y-141370182D01*
X204978680Y-141370184D01*
X204987703Y-141461795D01*
X204992483Y-141485829D01*
X204997442Y-141497800D01*
X204992483Y-141509772D01*
X204987703Y-141533805D01*
X204978680Y-141625418D01*
X204951140Y-141716204D01*
X204941454Y-141748136D01*
X204881006Y-141861225D01*
X204799654Y-141960354D01*
X204700525Y-142041706D01*
X204587436Y-142102154D01*
X204555504Y-142111840D01*
X204464718Y-142139380D01*
X204400955Y-142145660D01*
X204369074Y-142148800D01*
X203855126Y-142148800D01*
X203823245Y-142145660D01*
X203759482Y-142139380D01*
X203668696Y-142111840D01*
X203636764Y-142102154D01*
X203523675Y-142041706D01*
X203424546Y-141960354D01*
X203343194Y-141861225D01*
X203282746Y-141748136D01*
X203273060Y-141716204D01*
X203245520Y-141625418D01*
X203232951Y-141497800D01*
X203245520Y-141370182D01*
X203282745Y-141247468D01*
X203282746Y-141247464D01*
X203343194Y-141134375D01*
X203424546Y-141035246D01*
X203523675Y-140953894D01*
X203636764Y-140893446D01*
X203668696Y-140883760D01*
X203759482Y-140856220D01*
X203823245Y-140849940D01*
X203855126Y-140846800D01*
X204369074Y-140846800D01*
X204400955Y-140849940D01*
G37*
G36*
X206400955Y-140849940D02*
G01*
X206464718Y-140856220D01*
X206555504Y-140883760D01*
X206587436Y-140893446D01*
X206700525Y-140953894D01*
X206799654Y-141035246D01*
X206881006Y-141134375D01*
X206941454Y-141247464D01*
X206941455Y-141247468D01*
X206978680Y-141370182D01*
X206991249Y-141497800D01*
X206978680Y-141625418D01*
X206951140Y-141716204D01*
X206941454Y-141748136D01*
X206881006Y-141861225D01*
X206799654Y-141960354D01*
X206700525Y-142041706D01*
X206587436Y-142102154D01*
X206555504Y-142111840D01*
X206464718Y-142139380D01*
X206400955Y-142145660D01*
X206369074Y-142148800D01*
X205855126Y-142148800D01*
X205823245Y-142145660D01*
X205759482Y-142139380D01*
X205668696Y-142111840D01*
X205636764Y-142102154D01*
X205523675Y-142041706D01*
X205424546Y-141960354D01*
X205343194Y-141861225D01*
X205282746Y-141748136D01*
X205273060Y-141716204D01*
X205245520Y-141625418D01*
X205236497Y-141533805D01*
X205231717Y-141509771D01*
X205226758Y-141497800D01*
X205231717Y-141485828D01*
X205236497Y-141461795D01*
X205245520Y-141370184D01*
X205245520Y-141370182D01*
X205282745Y-141247468D01*
X205282746Y-141247464D01*
X205343194Y-141134375D01*
X205424546Y-141035246D01*
X205523675Y-140953894D01*
X205636764Y-140893446D01*
X205668696Y-140883760D01*
X205759482Y-140856220D01*
X205823245Y-140849940D01*
X205855126Y-140846800D01*
X206369074Y-140846800D01*
X206400955Y-140849940D01*
G37*
G36*
X209597100Y-141566800D02*
G01*
X208595100Y-141566800D01*
X208595100Y-140664800D01*
X209597100Y-140664800D01*
X209597100Y-141566800D01*
G37*
G36*
X211597100Y-140616800D02*
G01*
X210595100Y-140616800D01*
X210595100Y-139714800D01*
X211597100Y-139714800D01*
X211597100Y-140616800D01*
G37*
G36*
X204400955Y-138849940D02*
G01*
X204464718Y-138856220D01*
X204555504Y-138883760D01*
X204587436Y-138893446D01*
X204700525Y-138953894D01*
X204799654Y-139035246D01*
X204881006Y-139134375D01*
X204941454Y-139247464D01*
X204941455Y-139247468D01*
X204978680Y-139370182D01*
X204978680Y-139370184D01*
X204987703Y-139461795D01*
X204992483Y-139485829D01*
X204997442Y-139497800D01*
X204992483Y-139509772D01*
X204987703Y-139533805D01*
X204978680Y-139625418D01*
X204966127Y-139666800D01*
X204941454Y-139748136D01*
X204881006Y-139861225D01*
X204799654Y-139960354D01*
X204700525Y-140041706D01*
X204587436Y-140102154D01*
X204555504Y-140111840D01*
X204464718Y-140139380D01*
X204400955Y-140145660D01*
X204369074Y-140148800D01*
X203855126Y-140148800D01*
X203823245Y-140145660D01*
X203759482Y-140139380D01*
X203668696Y-140111840D01*
X203636764Y-140102154D01*
X203523675Y-140041706D01*
X203424546Y-139960354D01*
X203343194Y-139861225D01*
X203282746Y-139748136D01*
X203258073Y-139666800D01*
X203245520Y-139625418D01*
X203232951Y-139497800D01*
X203245520Y-139370182D01*
X203282745Y-139247468D01*
X203282746Y-139247464D01*
X203343194Y-139134375D01*
X203424546Y-139035246D01*
X203523675Y-138953894D01*
X203636764Y-138893446D01*
X203668696Y-138883760D01*
X203759482Y-138856220D01*
X203823245Y-138849940D01*
X203855126Y-138846800D01*
X204369074Y-138846800D01*
X204400955Y-138849940D01*
G37*
G36*
X206400955Y-138849940D02*
G01*
X206464718Y-138856220D01*
X206555504Y-138883760D01*
X206587436Y-138893446D01*
X206700525Y-138953894D01*
X206799654Y-139035246D01*
X206881006Y-139134375D01*
X206941454Y-139247464D01*
X206941455Y-139247468D01*
X206978680Y-139370182D01*
X206991249Y-139497800D01*
X206978680Y-139625418D01*
X206966127Y-139666800D01*
X206941454Y-139748136D01*
X206881006Y-139861225D01*
X206799654Y-139960354D01*
X206700525Y-140041706D01*
X206587436Y-140102154D01*
X206555504Y-140111840D01*
X206464718Y-140139380D01*
X206400955Y-140145660D01*
X206369074Y-140148800D01*
X205855126Y-140148800D01*
X205823245Y-140145660D01*
X205759482Y-140139380D01*
X205668696Y-140111840D01*
X205636764Y-140102154D01*
X205523675Y-140041706D01*
X205424546Y-139960354D01*
X205343194Y-139861225D01*
X205282746Y-139748136D01*
X205258073Y-139666800D01*
X205245520Y-139625418D01*
X205236497Y-139533805D01*
X205231717Y-139509771D01*
X205226758Y-139497800D01*
X205231717Y-139485828D01*
X205236497Y-139461795D01*
X205245520Y-139370184D01*
X205245520Y-139370182D01*
X205282745Y-139247468D01*
X205282746Y-139247464D01*
X205343194Y-139134375D01*
X205424546Y-139035246D01*
X205523675Y-138953894D01*
X205636764Y-138893446D01*
X205668696Y-138883760D01*
X205759482Y-138856220D01*
X205823245Y-138849940D01*
X205855126Y-138846800D01*
X206369074Y-138846800D01*
X206400955Y-138849940D01*
G37*
G36*
X209597100Y-139666800D02*
G01*
X208595100Y-139666800D01*
X208595100Y-138764800D01*
X209597100Y-138764800D01*
X209597100Y-139666800D01*
G37*
G36*
X206400955Y-136849940D02*
G01*
X206464718Y-136856220D01*
X206555504Y-136883760D01*
X206587436Y-136893446D01*
X206700525Y-136953894D01*
X206799654Y-137035246D01*
X206881006Y-137134375D01*
X206941454Y-137247464D01*
X206941455Y-137247468D01*
X206978680Y-137370182D01*
X206991249Y-137497800D01*
X206978680Y-137625418D01*
X206951140Y-137716204D01*
X206941454Y-137748136D01*
X206881006Y-137861225D01*
X206799654Y-137960354D01*
X206700525Y-138041706D01*
X206587436Y-138102154D01*
X206555504Y-138111840D01*
X206464718Y-138139380D01*
X206400955Y-138145660D01*
X206369074Y-138148800D01*
X205855126Y-138148800D01*
X205823245Y-138145660D01*
X205759482Y-138139380D01*
X205668696Y-138111840D01*
X205636764Y-138102154D01*
X205523675Y-138041706D01*
X205424546Y-137960354D01*
X205343194Y-137861225D01*
X205282746Y-137748136D01*
X205273060Y-137716204D01*
X205245520Y-137625418D01*
X205236497Y-137533805D01*
X205231717Y-137509771D01*
X205226758Y-137497800D01*
X205231717Y-137485828D01*
X205236497Y-137461795D01*
X205245520Y-137370184D01*
X205245520Y-137370182D01*
X205282745Y-137247468D01*
X205282746Y-137247464D01*
X205343194Y-137134375D01*
X205424546Y-137035246D01*
X205523675Y-136953894D01*
X205636764Y-136893446D01*
X205668696Y-136883760D01*
X205759482Y-136856220D01*
X205823245Y-136849940D01*
X205855126Y-136846800D01*
X206369074Y-136846800D01*
X206400955Y-136849940D01*
G37*
G36*
X204400955Y-136849940D02*
G01*
X204464718Y-136856220D01*
X204555504Y-136883760D01*
X204587436Y-136893446D01*
X204700525Y-136953894D01*
X204799654Y-137035246D01*
X204881006Y-137134375D01*
X204941454Y-137247464D01*
X204941455Y-137247468D01*
X204978680Y-137370182D01*
X204978680Y-137370184D01*
X204987703Y-137461795D01*
X204992483Y-137485829D01*
X204997442Y-137497800D01*
X204992483Y-137509772D01*
X204987703Y-137533805D01*
X204978680Y-137625418D01*
X204951140Y-137716204D01*
X204941454Y-137748136D01*
X204881006Y-137861225D01*
X204799654Y-137960354D01*
X204700525Y-138041706D01*
X204587436Y-138102154D01*
X204555504Y-138111840D01*
X204464718Y-138139380D01*
X204400955Y-138145660D01*
X204369074Y-138148800D01*
X203855126Y-138148800D01*
X203823245Y-138145660D01*
X203759482Y-138139380D01*
X203668696Y-138111840D01*
X203636764Y-138102154D01*
X203523675Y-138041706D01*
X203424546Y-137960354D01*
X203343194Y-137861225D01*
X203282746Y-137748136D01*
X203273060Y-137716204D01*
X203245520Y-137625418D01*
X203232951Y-137497800D01*
X203245520Y-137370182D01*
X203282745Y-137247468D01*
X203282746Y-137247464D01*
X203343194Y-137134375D01*
X203424546Y-137035246D01*
X203523675Y-136953894D01*
X203636764Y-136893446D01*
X203668696Y-136883760D01*
X203759482Y-136856220D01*
X203823245Y-136849940D01*
X203855126Y-136846800D01*
X204369074Y-136846800D01*
X204400955Y-136849940D01*
G37*
G36*
X206400955Y-134849940D02*
G01*
X206464718Y-134856220D01*
X206555504Y-134883760D01*
X206587436Y-134893446D01*
X206700525Y-134953894D01*
X206799654Y-135035246D01*
X206881006Y-135134375D01*
X206941454Y-135247464D01*
X206941455Y-135247468D01*
X206978680Y-135370182D01*
X206991249Y-135497800D01*
X206978680Y-135625418D01*
X206951140Y-135716204D01*
X206941454Y-135748136D01*
X206881006Y-135861225D01*
X206799654Y-135960354D01*
X206700525Y-136041706D01*
X206587436Y-136102154D01*
X206555504Y-136111840D01*
X206464718Y-136139380D01*
X206400955Y-136145660D01*
X206369074Y-136148800D01*
X205855126Y-136148800D01*
X205823245Y-136145660D01*
X205759482Y-136139380D01*
X205668696Y-136111840D01*
X205636764Y-136102154D01*
X205523675Y-136041706D01*
X205424546Y-135960354D01*
X205343194Y-135861225D01*
X205282746Y-135748136D01*
X205273060Y-135716204D01*
X205245520Y-135625418D01*
X205236497Y-135533805D01*
X205231717Y-135509771D01*
X205226758Y-135497800D01*
X205231717Y-135485828D01*
X205236497Y-135461795D01*
X205245520Y-135370184D01*
X205245520Y-135370182D01*
X205282745Y-135247468D01*
X205282746Y-135247464D01*
X205343194Y-135134375D01*
X205424546Y-135035246D01*
X205523675Y-134953894D01*
X205636764Y-134893446D01*
X205668696Y-134883760D01*
X205759482Y-134856220D01*
X205823245Y-134849940D01*
X205855126Y-134846800D01*
X206369074Y-134846800D01*
X206400955Y-134849940D01*
G37*
G36*
X204400955Y-134849940D02*
G01*
X204464718Y-134856220D01*
X204555504Y-134883760D01*
X204587436Y-134893446D01*
X204700525Y-134953894D01*
X204799654Y-135035246D01*
X204881006Y-135134375D01*
X204941454Y-135247464D01*
X204941455Y-135247468D01*
X204978680Y-135370182D01*
X204978680Y-135370184D01*
X204987703Y-135461795D01*
X204992483Y-135485829D01*
X204997442Y-135497800D01*
X204992483Y-135509772D01*
X204987703Y-135533805D01*
X204978680Y-135625418D01*
X204951140Y-135716204D01*
X204941454Y-135748136D01*
X204881006Y-135861225D01*
X204799654Y-135960354D01*
X204700525Y-136041706D01*
X204587436Y-136102154D01*
X204555504Y-136111840D01*
X204464718Y-136139380D01*
X204400955Y-136145660D01*
X204369074Y-136148800D01*
X203855126Y-136148800D01*
X203823245Y-136145660D01*
X203759482Y-136139380D01*
X203668696Y-136111840D01*
X203636764Y-136102154D01*
X203523675Y-136041706D01*
X203424546Y-135960354D01*
X203343194Y-135861225D01*
X203282746Y-135748136D01*
X203273060Y-135716204D01*
X203245520Y-135625418D01*
X203232951Y-135497800D01*
X203245520Y-135370182D01*
X203282745Y-135247468D01*
X203282746Y-135247464D01*
X203343194Y-135134375D01*
X203424546Y-135035246D01*
X203523675Y-134953894D01*
X203636764Y-134893446D01*
X203668696Y-134883760D01*
X203759482Y-134856220D01*
X203823245Y-134849940D01*
X203855126Y-134846800D01*
X204369074Y-134846800D01*
X204400955Y-134849940D01*
G37*
G36*
X206400955Y-132849940D02*
G01*
X206464718Y-132856220D01*
X206555504Y-132883760D01*
X206587436Y-132893446D01*
X206700525Y-132953894D01*
X206799654Y-133035246D01*
X206881006Y-133134375D01*
X206941454Y-133247464D01*
X206941455Y-133247468D01*
X206978680Y-133370182D01*
X206991249Y-133497800D01*
X206978680Y-133625418D01*
X206951140Y-133716204D01*
X206941454Y-133748136D01*
X206881006Y-133861225D01*
X206799654Y-133960354D01*
X206700525Y-134041706D01*
X206587436Y-134102154D01*
X206555504Y-134111840D01*
X206464718Y-134139380D01*
X206400955Y-134145660D01*
X206369074Y-134148800D01*
X205855126Y-134148800D01*
X205823245Y-134145660D01*
X205759482Y-134139380D01*
X205668696Y-134111840D01*
X205636764Y-134102154D01*
X205523675Y-134041706D01*
X205424546Y-133960354D01*
X205343194Y-133861225D01*
X205282746Y-133748136D01*
X205273060Y-133716204D01*
X205245520Y-133625418D01*
X205236497Y-133533805D01*
X205231717Y-133509771D01*
X205226758Y-133497800D01*
X205231717Y-133485828D01*
X205236497Y-133461795D01*
X205245520Y-133370184D01*
X205245520Y-133370182D01*
X205282745Y-133247468D01*
X205282746Y-133247464D01*
X205343194Y-133134375D01*
X205424546Y-133035246D01*
X205523675Y-132953894D01*
X205636764Y-132893446D01*
X205668696Y-132883760D01*
X205759482Y-132856220D01*
X205823245Y-132849940D01*
X205855126Y-132846800D01*
X206369074Y-132846800D01*
X206400955Y-132849940D01*
G37*
G36*
X204400955Y-132849940D02*
G01*
X204464718Y-132856220D01*
X204555504Y-132883760D01*
X204587436Y-132893446D01*
X204700525Y-132953894D01*
X204799654Y-133035246D01*
X204881006Y-133134375D01*
X204941454Y-133247464D01*
X204941455Y-133247468D01*
X204978680Y-133370182D01*
X204978680Y-133370184D01*
X204987703Y-133461795D01*
X204992483Y-133485829D01*
X204997442Y-133497800D01*
X204992483Y-133509772D01*
X204987703Y-133533805D01*
X204978680Y-133625418D01*
X204951140Y-133716204D01*
X204941454Y-133748136D01*
X204881006Y-133861225D01*
X204799654Y-133960354D01*
X204700525Y-134041706D01*
X204587436Y-134102154D01*
X204555504Y-134111840D01*
X204464718Y-134139380D01*
X204400955Y-134145660D01*
X204369074Y-134148800D01*
X203855126Y-134148800D01*
X203823245Y-134145660D01*
X203759482Y-134139380D01*
X203668696Y-134111840D01*
X203636764Y-134102154D01*
X203523675Y-134041706D01*
X203424546Y-133960354D01*
X203343194Y-133861225D01*
X203282746Y-133748136D01*
X203273060Y-133716204D01*
X203245520Y-133625418D01*
X203232951Y-133497800D01*
X203245520Y-133370182D01*
X203282745Y-133247468D01*
X203282746Y-133247464D01*
X203343194Y-133134375D01*
X203424546Y-133035246D01*
X203523675Y-132953894D01*
X203636764Y-132893446D01*
X203668696Y-132883760D01*
X203759482Y-132856220D01*
X203823245Y-132849940D01*
X203855126Y-132846800D01*
X204369074Y-132846800D01*
X204400955Y-132849940D01*
G37*
G36*
X206400955Y-130849940D02*
G01*
X206464718Y-130856220D01*
X206555504Y-130883760D01*
X206587436Y-130893446D01*
X206700525Y-130953894D01*
X206799654Y-131035246D01*
X206881006Y-131134375D01*
X206941454Y-131247464D01*
X206941455Y-131247468D01*
X206978680Y-131370182D01*
X206991249Y-131497800D01*
X206978680Y-131625418D01*
X206951140Y-131716204D01*
X206941454Y-131748136D01*
X206881006Y-131861225D01*
X206799654Y-131960354D01*
X206700525Y-132041706D01*
X206587436Y-132102154D01*
X206555504Y-132111840D01*
X206464718Y-132139380D01*
X206400955Y-132145660D01*
X206369074Y-132148800D01*
X205855126Y-132148800D01*
X205823245Y-132145660D01*
X205759482Y-132139380D01*
X205668696Y-132111840D01*
X205636764Y-132102154D01*
X205523675Y-132041706D01*
X205424546Y-131960354D01*
X205343194Y-131861225D01*
X205282746Y-131748136D01*
X205273060Y-131716204D01*
X205245520Y-131625418D01*
X205236497Y-131533805D01*
X205231717Y-131509771D01*
X205226758Y-131497800D01*
X205231717Y-131485828D01*
X205236497Y-131461795D01*
X205245520Y-131370184D01*
X205245520Y-131370182D01*
X205282745Y-131247468D01*
X205282746Y-131247464D01*
X205343194Y-131134375D01*
X205424546Y-131035246D01*
X205523675Y-130953894D01*
X205636764Y-130893446D01*
X205668696Y-130883760D01*
X205759482Y-130856220D01*
X205823245Y-130849940D01*
X205855126Y-130846800D01*
X206369074Y-130846800D01*
X206400955Y-130849940D01*
G37*
G36*
X204400955Y-130849940D02*
G01*
X204464718Y-130856220D01*
X204555504Y-130883760D01*
X204587436Y-130893446D01*
X204700525Y-130953894D01*
X204799654Y-131035246D01*
X204881006Y-131134375D01*
X204941454Y-131247464D01*
X204941455Y-131247468D01*
X204978680Y-131370182D01*
X204978680Y-131370184D01*
X204987703Y-131461795D01*
X204992483Y-131485829D01*
X204997442Y-131497800D01*
X204992483Y-131509772D01*
X204987703Y-131533805D01*
X204978680Y-131625418D01*
X204951140Y-131716204D01*
X204941454Y-131748136D01*
X204881006Y-131861225D01*
X204799654Y-131960354D01*
X204700525Y-132041706D01*
X204587436Y-132102154D01*
X204555504Y-132111840D01*
X204464718Y-132139380D01*
X204400955Y-132145660D01*
X204369074Y-132148800D01*
X203855126Y-132148800D01*
X203823245Y-132145660D01*
X203759482Y-132139380D01*
X203668696Y-132111840D01*
X203636764Y-132102154D01*
X203523675Y-132041706D01*
X203424546Y-131960354D01*
X203343194Y-131861225D01*
X203282746Y-131748136D01*
X203273060Y-131716204D01*
X203245520Y-131625418D01*
X203232951Y-131497800D01*
X203245520Y-131370182D01*
X203282745Y-131247468D01*
X203282746Y-131247464D01*
X203343194Y-131134375D01*
X203424546Y-131035246D01*
X203523675Y-130953894D01*
X203636764Y-130893446D01*
X203668696Y-130883760D01*
X203759482Y-130856220D01*
X203823245Y-130849940D01*
X203855126Y-130846800D01*
X204369074Y-130846800D01*
X204400955Y-130849940D01*
G37*
G36*
X210049599Y-130826245D02*
G01*
X210087095Y-130837620D01*
X210121654Y-130856092D01*
X210151947Y-130880953D01*
X210176808Y-130911246D01*
X210195280Y-130945805D01*
X210206655Y-130983301D01*
X210211100Y-131028438D01*
X210211100Y-131792162D01*
X210206655Y-131837299D01*
X210195280Y-131874795D01*
X210176808Y-131909354D01*
X210151947Y-131939647D01*
X210121654Y-131964508D01*
X210087095Y-131982980D01*
X210049599Y-131994355D01*
X210004462Y-131998800D01*
X209365738Y-131998800D01*
X209320601Y-131994355D01*
X209283105Y-131982980D01*
X209248546Y-131964508D01*
X209218253Y-131939647D01*
X209193392Y-131909354D01*
X209174920Y-131874795D01*
X209163545Y-131837299D01*
X209159100Y-131792162D01*
X209159100Y-131028438D01*
X209163545Y-130983301D01*
X209174920Y-130945805D01*
X209193392Y-130911246D01*
X209218253Y-130880953D01*
X209248546Y-130856092D01*
X209283105Y-130837620D01*
X209320601Y-130826245D01*
X209365738Y-130821800D01*
X210004462Y-130821800D01*
X210049599Y-130826245D01*
G37*
G36*
X211700599Y-130826245D02*
G01*
X211738095Y-130837620D01*
X211772654Y-130856092D01*
X211802947Y-130880953D01*
X211827808Y-130911246D01*
X211846280Y-130945805D01*
X211857655Y-130983301D01*
X211862100Y-131028438D01*
X211862100Y-131792162D01*
X211857655Y-131837299D01*
X211846280Y-131874795D01*
X211827808Y-131909354D01*
X211802947Y-131939647D01*
X211772654Y-131964508D01*
X211738095Y-131982980D01*
X211700599Y-131994355D01*
X211655462Y-131998800D01*
X211016738Y-131998800D01*
X210971601Y-131994355D01*
X210934105Y-131982980D01*
X210899546Y-131964508D01*
X210869253Y-131939647D01*
X210844392Y-131909354D01*
X210825920Y-131874795D01*
X210814545Y-131837299D01*
X210810100Y-131792162D01*
X210810100Y-131028438D01*
X210814545Y-130983301D01*
X210825920Y-130945805D01*
X210844392Y-130911246D01*
X210869253Y-130880953D01*
X210899546Y-130856092D01*
X210934105Y-130837620D01*
X210971601Y-130826245D01*
X211016738Y-130821800D01*
X211655462Y-130821800D01*
X211700599Y-130826245D01*
G37*
G36*
X210049599Y-129101245D02*
G01*
X210087095Y-129112620D01*
X210121654Y-129131092D01*
X210151947Y-129155953D01*
X210176808Y-129186246D01*
X210195280Y-129220805D01*
X210206655Y-129258301D01*
X210211100Y-129303438D01*
X210211100Y-130067162D01*
X210206655Y-130112299D01*
X210195280Y-130149795D01*
X210176808Y-130184354D01*
X210151947Y-130214647D01*
X210121654Y-130239508D01*
X210087095Y-130257980D01*
X210049599Y-130269355D01*
X210004462Y-130273800D01*
X209365738Y-130273800D01*
X209320601Y-130269355D01*
X209283105Y-130257980D01*
X209248546Y-130239508D01*
X209218253Y-130214647D01*
X209193392Y-130184354D01*
X209174920Y-130149795D01*
X209163545Y-130112299D01*
X209159100Y-130067162D01*
X209159100Y-129303438D01*
X209163545Y-129258301D01*
X209174920Y-129220805D01*
X209193392Y-129186246D01*
X209218253Y-129155953D01*
X209248546Y-129131092D01*
X209283105Y-129112620D01*
X209320601Y-129101245D01*
X209365738Y-129096800D01*
X210004462Y-129096800D01*
X210049599Y-129101245D01*
G37*
G36*
X211700599Y-129101245D02*
G01*
X211738095Y-129112620D01*
X211772654Y-129131092D01*
X211802947Y-129155953D01*
X211827808Y-129186246D01*
X211846280Y-129220805D01*
X211857655Y-129258301D01*
X211862100Y-129303438D01*
X211862100Y-130067162D01*
X211857655Y-130112299D01*
X211846280Y-130149795D01*
X211827808Y-130184354D01*
X211802947Y-130214647D01*
X211772654Y-130239508D01*
X211738095Y-130257980D01*
X211700599Y-130269355D01*
X211655462Y-130273800D01*
X211016738Y-130273800D01*
X210971601Y-130269355D01*
X210934105Y-130257980D01*
X210899546Y-130239508D01*
X210869253Y-130214647D01*
X210844392Y-130184354D01*
X210825920Y-130149795D01*
X210814545Y-130112299D01*
X210810100Y-130067162D01*
X210810100Y-129303438D01*
X210814545Y-129258301D01*
X210825920Y-129220805D01*
X210844392Y-129186246D01*
X210869253Y-129155953D01*
X210899546Y-129131092D01*
X210934105Y-129112620D01*
X210971601Y-129101245D01*
X211016738Y-129096800D01*
X211655462Y-129096800D01*
X211700599Y-129101245D01*
G37*
G36*
X206400955Y-128849940D02*
G01*
X206464718Y-128856220D01*
X206545500Y-128880725D01*
X206587436Y-128893446D01*
X206700525Y-128953894D01*
X206799654Y-129035246D01*
X206881006Y-129134375D01*
X206941454Y-129247464D01*
X206941455Y-129247468D01*
X206978680Y-129370182D01*
X206991249Y-129497800D01*
X206978680Y-129625418D01*
X206951140Y-129716204D01*
X206941454Y-129748136D01*
X206881006Y-129861225D01*
X206799654Y-129960354D01*
X206700525Y-130041706D01*
X206587436Y-130102154D01*
X206556804Y-130111446D01*
X206464718Y-130139380D01*
X206400955Y-130145660D01*
X206369074Y-130148800D01*
X205855126Y-130148800D01*
X205823245Y-130145660D01*
X205759482Y-130139380D01*
X205667396Y-130111446D01*
X205636764Y-130102154D01*
X205523675Y-130041706D01*
X205424546Y-129960354D01*
X205343194Y-129861225D01*
X205282746Y-129748136D01*
X205273060Y-129716204D01*
X205245520Y-129625418D01*
X205237496Y-129543948D01*
X205232716Y-129519914D01*
X205223338Y-129497276D01*
X205223270Y-129497175D01*
X205228583Y-129487235D01*
X205237496Y-129451652D01*
X205245520Y-129370184D01*
X205245520Y-129370182D01*
X205282745Y-129247468D01*
X205282746Y-129247464D01*
X205343194Y-129134375D01*
X205424546Y-129035246D01*
X205523675Y-128953894D01*
X205636764Y-128893446D01*
X205678700Y-128880725D01*
X205759482Y-128856220D01*
X205823245Y-128849940D01*
X205855126Y-128846800D01*
X206369074Y-128846800D01*
X206400955Y-128849940D01*
G37*
G36*
X204828342Y-128851204D02*
G01*
X204865437Y-128862457D01*
X204899615Y-128880725D01*
X204929581Y-128905319D01*
X204954175Y-128935285D01*
X204972443Y-128969463D01*
X204983696Y-129006558D01*
X204988100Y-129051274D01*
X204988100Y-129439400D01*
X204990502Y-129463786D01*
X204997615Y-129487235D01*
X205002928Y-129497175D01*
X205002860Y-129497276D01*
X204993482Y-129519915D01*
X204988100Y-129556200D01*
X204988100Y-129944326D01*
X204983696Y-129989042D01*
X204972443Y-130026137D01*
X204954175Y-130060315D01*
X204929581Y-130090281D01*
X204899615Y-130114875D01*
X204865437Y-130133143D01*
X204828342Y-130144396D01*
X204783626Y-130148800D01*
X203440574Y-130148800D01*
X203395858Y-130144396D01*
X203358763Y-130133143D01*
X203324585Y-130114875D01*
X203294619Y-130090281D01*
X203270025Y-130060315D01*
X203251757Y-130026137D01*
X203240504Y-129989042D01*
X203236100Y-129944326D01*
X203236100Y-129051274D01*
X203240504Y-129006558D01*
X203251757Y-128969463D01*
X203270025Y-128935285D01*
X203294619Y-128905319D01*
X203324585Y-128880725D01*
X203358763Y-128862457D01*
X203395858Y-128851204D01*
X203440574Y-128846800D01*
X204783626Y-128846800D01*
X204828342Y-128851204D01*
G37*
M02*
