G04 #@! TF.GenerationSoftware,KiCad,Pcbnew,5.1.5+dfsg1-2build2*
G04 #@! TF.CreationDate,2022-01-30T22:27:44+01:00*
G04 #@! TF.ProjectId,Light_Ring_PCB,4c696768-745f-4526-996e-675f5043422e,rev?*
G04 #@! TF.SameCoordinates,Original*
G04 #@! TF.FileFunction,Paste,Bot*
G04 #@! TF.FilePolarity,Positive*
%FSLAX46Y46*%
G04 Gerber Fmt 4.6, Leading zero omitted, Abs format (unit mm)*
G04 Created by KiCad (PCBNEW 5.1.5+dfsg1-2build2) date 2022-01-30 22:27:44*
%MOMM*%
%LPD*%
G04 APERTURE LIST*
%ADD10R,0.900000X0.800000*%
%ADD11C,0.100000*%
G04 APERTURE END LIST*
D10*
X209096100Y-141115800D03*
X209096100Y-139215800D03*
X211096100Y-140165800D03*
D11*
G36*
X209945879Y-130873944D02*
G01*
X209968934Y-130877363D01*
X209991543Y-130883027D01*
X210013487Y-130890879D01*
X210034557Y-130900844D01*
X210054548Y-130912826D01*
X210073268Y-130926710D01*
X210090538Y-130942362D01*
X210106190Y-130959632D01*
X210120074Y-130978352D01*
X210132056Y-130998343D01*
X210142021Y-131019413D01*
X210149873Y-131041357D01*
X210155537Y-131063966D01*
X210158956Y-131087021D01*
X210160100Y-131110300D01*
X210160100Y-131710300D01*
X210158956Y-131733579D01*
X210155537Y-131756634D01*
X210149873Y-131779243D01*
X210142021Y-131801187D01*
X210132056Y-131822257D01*
X210120074Y-131842248D01*
X210106190Y-131860968D01*
X210090538Y-131878238D01*
X210073268Y-131893890D01*
X210054548Y-131907774D01*
X210034557Y-131919756D01*
X210013487Y-131929721D01*
X209991543Y-131937573D01*
X209968934Y-131943237D01*
X209945879Y-131946656D01*
X209922600Y-131947800D01*
X209447600Y-131947800D01*
X209424321Y-131946656D01*
X209401266Y-131943237D01*
X209378657Y-131937573D01*
X209356713Y-131929721D01*
X209335643Y-131919756D01*
X209315652Y-131907774D01*
X209296932Y-131893890D01*
X209279662Y-131878238D01*
X209264010Y-131860968D01*
X209250126Y-131842248D01*
X209238144Y-131822257D01*
X209228179Y-131801187D01*
X209220327Y-131779243D01*
X209214663Y-131756634D01*
X209211244Y-131733579D01*
X209210100Y-131710300D01*
X209210100Y-131110300D01*
X209211244Y-131087021D01*
X209214663Y-131063966D01*
X209220327Y-131041357D01*
X209228179Y-131019413D01*
X209238144Y-130998343D01*
X209250126Y-130978352D01*
X209264010Y-130959632D01*
X209279662Y-130942362D01*
X209296932Y-130926710D01*
X209315652Y-130912826D01*
X209335643Y-130900844D01*
X209356713Y-130890879D01*
X209378657Y-130883027D01*
X209401266Y-130877363D01*
X209424321Y-130873944D01*
X209447600Y-130872800D01*
X209922600Y-130872800D01*
X209945879Y-130873944D01*
G37*
G36*
X209945879Y-129148944D02*
G01*
X209968934Y-129152363D01*
X209991543Y-129158027D01*
X210013487Y-129165879D01*
X210034557Y-129175844D01*
X210054548Y-129187826D01*
X210073268Y-129201710D01*
X210090538Y-129217362D01*
X210106190Y-129234632D01*
X210120074Y-129253352D01*
X210132056Y-129273343D01*
X210142021Y-129294413D01*
X210149873Y-129316357D01*
X210155537Y-129338966D01*
X210158956Y-129362021D01*
X210160100Y-129385300D01*
X210160100Y-129985300D01*
X210158956Y-130008579D01*
X210155537Y-130031634D01*
X210149873Y-130054243D01*
X210142021Y-130076187D01*
X210132056Y-130097257D01*
X210120074Y-130117248D01*
X210106190Y-130135968D01*
X210090538Y-130153238D01*
X210073268Y-130168890D01*
X210054548Y-130182774D01*
X210034557Y-130194756D01*
X210013487Y-130204721D01*
X209991543Y-130212573D01*
X209968934Y-130218237D01*
X209945879Y-130221656D01*
X209922600Y-130222800D01*
X209447600Y-130222800D01*
X209424321Y-130221656D01*
X209401266Y-130218237D01*
X209378657Y-130212573D01*
X209356713Y-130204721D01*
X209335643Y-130194756D01*
X209315652Y-130182774D01*
X209296932Y-130168890D01*
X209279662Y-130153238D01*
X209264010Y-130135968D01*
X209250126Y-130117248D01*
X209238144Y-130097257D01*
X209228179Y-130076187D01*
X209220327Y-130054243D01*
X209214663Y-130031634D01*
X209211244Y-130008579D01*
X209210100Y-129985300D01*
X209210100Y-129385300D01*
X209211244Y-129362021D01*
X209214663Y-129338966D01*
X209220327Y-129316357D01*
X209228179Y-129294413D01*
X209238144Y-129273343D01*
X209250126Y-129253352D01*
X209264010Y-129234632D01*
X209279662Y-129217362D01*
X209296932Y-129201710D01*
X209315652Y-129187826D01*
X209335643Y-129175844D01*
X209356713Y-129165879D01*
X209378657Y-129158027D01*
X209401266Y-129152363D01*
X209424321Y-129148944D01*
X209447600Y-129147800D01*
X209922600Y-129147800D01*
X209945879Y-129148944D01*
G37*
G36*
X211596879Y-130873944D02*
G01*
X211619934Y-130877363D01*
X211642543Y-130883027D01*
X211664487Y-130890879D01*
X211685557Y-130900844D01*
X211705548Y-130912826D01*
X211724268Y-130926710D01*
X211741538Y-130942362D01*
X211757190Y-130959632D01*
X211771074Y-130978352D01*
X211783056Y-130998343D01*
X211793021Y-131019413D01*
X211800873Y-131041357D01*
X211806537Y-131063966D01*
X211809956Y-131087021D01*
X211811100Y-131110300D01*
X211811100Y-131710300D01*
X211809956Y-131733579D01*
X211806537Y-131756634D01*
X211800873Y-131779243D01*
X211793021Y-131801187D01*
X211783056Y-131822257D01*
X211771074Y-131842248D01*
X211757190Y-131860968D01*
X211741538Y-131878238D01*
X211724268Y-131893890D01*
X211705548Y-131907774D01*
X211685557Y-131919756D01*
X211664487Y-131929721D01*
X211642543Y-131937573D01*
X211619934Y-131943237D01*
X211596879Y-131946656D01*
X211573600Y-131947800D01*
X211098600Y-131947800D01*
X211075321Y-131946656D01*
X211052266Y-131943237D01*
X211029657Y-131937573D01*
X211007713Y-131929721D01*
X210986643Y-131919756D01*
X210966652Y-131907774D01*
X210947932Y-131893890D01*
X210930662Y-131878238D01*
X210915010Y-131860968D01*
X210901126Y-131842248D01*
X210889144Y-131822257D01*
X210879179Y-131801187D01*
X210871327Y-131779243D01*
X210865663Y-131756634D01*
X210862244Y-131733579D01*
X210861100Y-131710300D01*
X210861100Y-131110300D01*
X210862244Y-131087021D01*
X210865663Y-131063966D01*
X210871327Y-131041357D01*
X210879179Y-131019413D01*
X210889144Y-130998343D01*
X210901126Y-130978352D01*
X210915010Y-130959632D01*
X210930662Y-130942362D01*
X210947932Y-130926710D01*
X210966652Y-130912826D01*
X210986643Y-130900844D01*
X211007713Y-130890879D01*
X211029657Y-130883027D01*
X211052266Y-130877363D01*
X211075321Y-130873944D01*
X211098600Y-130872800D01*
X211573600Y-130872800D01*
X211596879Y-130873944D01*
G37*
G36*
X211596879Y-129148944D02*
G01*
X211619934Y-129152363D01*
X211642543Y-129158027D01*
X211664487Y-129165879D01*
X211685557Y-129175844D01*
X211705548Y-129187826D01*
X211724268Y-129201710D01*
X211741538Y-129217362D01*
X211757190Y-129234632D01*
X211771074Y-129253352D01*
X211783056Y-129273343D01*
X211793021Y-129294413D01*
X211800873Y-129316357D01*
X211806537Y-129338966D01*
X211809956Y-129362021D01*
X211811100Y-129385300D01*
X211811100Y-129985300D01*
X211809956Y-130008579D01*
X211806537Y-130031634D01*
X211800873Y-130054243D01*
X211793021Y-130076187D01*
X211783056Y-130097257D01*
X211771074Y-130117248D01*
X211757190Y-130135968D01*
X211741538Y-130153238D01*
X211724268Y-130168890D01*
X211705548Y-130182774D01*
X211685557Y-130194756D01*
X211664487Y-130204721D01*
X211642543Y-130212573D01*
X211619934Y-130218237D01*
X211596879Y-130221656D01*
X211573600Y-130222800D01*
X211098600Y-130222800D01*
X211075321Y-130221656D01*
X211052266Y-130218237D01*
X211029657Y-130212573D01*
X211007713Y-130204721D01*
X210986643Y-130194756D01*
X210966652Y-130182774D01*
X210947932Y-130168890D01*
X210930662Y-130153238D01*
X210915010Y-130135968D01*
X210901126Y-130117248D01*
X210889144Y-130097257D01*
X210879179Y-130076187D01*
X210871327Y-130054243D01*
X210865663Y-130031634D01*
X210862244Y-130008579D01*
X210861100Y-129985300D01*
X210861100Y-129385300D01*
X210862244Y-129362021D01*
X210865663Y-129338966D01*
X210871327Y-129316357D01*
X210879179Y-129294413D01*
X210889144Y-129273343D01*
X210901126Y-129253352D01*
X210915010Y-129234632D01*
X210930662Y-129217362D01*
X210947932Y-129201710D01*
X210966652Y-129187826D01*
X210986643Y-129175844D01*
X211007713Y-129165879D01*
X211029657Y-129158027D01*
X211052266Y-129152363D01*
X211075321Y-129148944D01*
X211098600Y-129147800D01*
X211573600Y-129147800D01*
X211596879Y-129148944D01*
G37*
G36*
X209441879Y-142231944D02*
G01*
X209464934Y-142235363D01*
X209487543Y-142241027D01*
X209509487Y-142248879D01*
X209530557Y-142258844D01*
X209550548Y-142270826D01*
X209569268Y-142284710D01*
X209586538Y-142300362D01*
X209602190Y-142317632D01*
X209616074Y-142336352D01*
X209628056Y-142356343D01*
X209638021Y-142377413D01*
X209645873Y-142399357D01*
X209651537Y-142421966D01*
X209654956Y-142445021D01*
X209656100Y-142468300D01*
X209656100Y-142943300D01*
X209654956Y-142966579D01*
X209651537Y-142989634D01*
X209645873Y-143012243D01*
X209638021Y-143034187D01*
X209628056Y-143055257D01*
X209616074Y-143075248D01*
X209602190Y-143093968D01*
X209586538Y-143111238D01*
X209569268Y-143126890D01*
X209550548Y-143140774D01*
X209530557Y-143152756D01*
X209509487Y-143162721D01*
X209487543Y-143170573D01*
X209464934Y-143176237D01*
X209441879Y-143179656D01*
X209418600Y-143180800D01*
X208918600Y-143180800D01*
X208895321Y-143179656D01*
X208872266Y-143176237D01*
X208849657Y-143170573D01*
X208827713Y-143162721D01*
X208806643Y-143152756D01*
X208786652Y-143140774D01*
X208767932Y-143126890D01*
X208750662Y-143111238D01*
X208735010Y-143093968D01*
X208721126Y-143075248D01*
X208709144Y-143055257D01*
X208699179Y-143034187D01*
X208691327Y-143012243D01*
X208685663Y-142989634D01*
X208682244Y-142966579D01*
X208681100Y-142943300D01*
X208681100Y-142468300D01*
X208682244Y-142445021D01*
X208685663Y-142421966D01*
X208691327Y-142399357D01*
X208699179Y-142377413D01*
X208709144Y-142356343D01*
X208721126Y-142336352D01*
X208735010Y-142317632D01*
X208750662Y-142300362D01*
X208767932Y-142284710D01*
X208786652Y-142270826D01*
X208806643Y-142258844D01*
X208827713Y-142248879D01*
X208849657Y-142241027D01*
X208872266Y-142235363D01*
X208895321Y-142231944D01*
X208918600Y-142230800D01*
X209418600Y-142230800D01*
X209441879Y-142231944D01*
G37*
G36*
X211266879Y-142231944D02*
G01*
X211289934Y-142235363D01*
X211312543Y-142241027D01*
X211334487Y-142248879D01*
X211355557Y-142258844D01*
X211375548Y-142270826D01*
X211394268Y-142284710D01*
X211411538Y-142300362D01*
X211427190Y-142317632D01*
X211441074Y-142336352D01*
X211453056Y-142356343D01*
X211463021Y-142377413D01*
X211470873Y-142399357D01*
X211476537Y-142421966D01*
X211479956Y-142445021D01*
X211481100Y-142468300D01*
X211481100Y-142943300D01*
X211479956Y-142966579D01*
X211476537Y-142989634D01*
X211470873Y-143012243D01*
X211463021Y-143034187D01*
X211453056Y-143055257D01*
X211441074Y-143075248D01*
X211427190Y-143093968D01*
X211411538Y-143111238D01*
X211394268Y-143126890D01*
X211375548Y-143140774D01*
X211355557Y-143152756D01*
X211334487Y-143162721D01*
X211312543Y-143170573D01*
X211289934Y-143176237D01*
X211266879Y-143179656D01*
X211243600Y-143180800D01*
X210743600Y-143180800D01*
X210720321Y-143179656D01*
X210697266Y-143176237D01*
X210674657Y-143170573D01*
X210652713Y-143162721D01*
X210631643Y-143152756D01*
X210611652Y-143140774D01*
X210592932Y-143126890D01*
X210575662Y-143111238D01*
X210560010Y-143093968D01*
X210546126Y-143075248D01*
X210534144Y-143055257D01*
X210524179Y-143034187D01*
X210516327Y-143012243D01*
X210510663Y-142989634D01*
X210507244Y-142966579D01*
X210506100Y-142943300D01*
X210506100Y-142468300D01*
X210507244Y-142445021D01*
X210510663Y-142421966D01*
X210516327Y-142399357D01*
X210524179Y-142377413D01*
X210534144Y-142356343D01*
X210546126Y-142336352D01*
X210560010Y-142317632D01*
X210575662Y-142300362D01*
X210592932Y-142284710D01*
X210611652Y-142270826D01*
X210631643Y-142258844D01*
X210652713Y-142248879D01*
X210674657Y-142241027D01*
X210697266Y-142235363D01*
X210720321Y-142231944D01*
X210743600Y-142230800D01*
X211243600Y-142230800D01*
X211266879Y-142231944D01*
G37*
M02*
