  0
SECTION
  2
HEADER
  9
$ACADVER
  1
AC1014
  9
$HANDSEED
  5
FFFF
  9
$MEASUREMENT
 70
     1
  0
ENDSEC
  0
SECTION
  2
TABLES
  0
TABLE
  2
VPORT
  5
8
330
0
100
AcDbSymbolTable
 70
     4
  0
VPORT
  5
2E
330
8
100
AcDbSymbolTableRecord
100
AcDbViewportTableRecord
  2
*ACTIVE
 70
     0
 10
0.0
 20
0.0
 11
1.0
 21
1.0
 12
210.0
 22
148.5
 13
0.0
 23
0.0
 14
10.0
 24
10.0
 15
10.0
 25
10.0
 16
0.0
 26
0.0
 36
1.0
 17
0.0
 27
0.0
 37
0.0
 40
341.0
 41
1.24
 42
50.0
 43
0.0
 44
0.0
 50
0.0
 51
0.0
 71
     0
 72
   100
 73
     1
 74
     3
 75
     0
 76
     0
 77
     0
 78
     0
  0
ENDTAB
  0
TABLE
  2
LTYPE
  5
5
330
0
100
AcDbSymbolTable
 70
     1
  0
LTYPE
  5
14
330
5
100
AcDbSymbolTableRecord
100
AcDbLinetypeTableRecord
  2
BYBLOCK
 70
     0
  3

 72
    65
 73
     0
 40
0.0
  0
LTYPE
  5
15
330
5
100
AcDbSymbolTableRecord
100
AcDbLinetypeTableRecord
  2
BYLAYER
 70
     0
  3

 72
    65
 73
     0
 40
0.0
  0
LTYPE
  5
16
330
5
100
AcDbSymbolTableRecord
100
AcDbLinetypeTableRecord
  2
CONTINUOUS
 70
     0
  3
Solid line
 72
    65
 73
     0
 40
0.0
  0
ENDTAB
  0
TABLE
  2
LAYER
  5
2
100
AcDbSymbolTable
 70
1
  0
LAYER
  5
50
100
AcDbSymbolTableRecord
100
AcDbLayerTableRecord
  2
0
 70
0
  6
CONTINUOUS
  0
ENDTAB
  0
TABLE
  2
STYLE
  5
3
330
0
100
AcDbSymbolTable
 70
     1
  0
STYLE
  5
11
330
3
100
AcDbSymbolTableRecord
100
AcDbTextStyleTableRecord
  2
STANDARD
 70
     0
 40
0.0
 41
1.0
 50
0.0
 71
     0
 42
2.5
  3
txt
  4

  0
ENDTAB
  0
TABLE
  2
VIEW
  5
6
330
0
100
AcDbSymbolTable
 70
     0
  0
ENDTAB
  0
TABLE
  2
UCS
  5
7
330
0
100
AcDbSymbolTable
 70
     0
  0
ENDTAB
  0
TABLE
  2
APPID
  5
9
330
0
100
AcDbSymbolTable
 70
     2
  0
APPID
  5
12
330
9
100
AcDbSymbolTableRecord
100
AcDbRegAppTableRecord
  2
ACAD
 70
     0
  0
ENDTAB
  0
TABLE
  2
DIMSTYLE
  5
A
330
0
100
AcDbSymbolTable
 70
     1
  0
DIMSTYLE
105
27
330
A
100
AcDbSymbolTableRecord
100
AcDbDimStyleTableRecord
  2
ISO-25
 70
     0
  3

  4

  5

  6

  7

 40
1.0
 41
2.5
 42
0.625
 43
3.75
 44
1.25
 45
0.0
 46
0.0
 47
0.0
 48
0.0
140
2.5
141
2.5
142
0.0
143
0.03937007874016
144
1.0
145
0.0
146
1.0
147
0.625
 71
     0
 72
     0
 73
     0
 74
     0
 75
     0
 76
     0
 77
     1
 78
     8
170
     0
171
     3
172
     1
173
     0
174
     0
175
     0
176
     0
177
     0
178
     0
270
     2
271
     2
272
     2
273
     2
274
     3
340
11
275
     0
280
     0
281
     0
282
     0
283
     0
284
     8
285
     0
286
     0
287
     3
288
     0
  0
ENDTAB
  0
TABLE
  2
BLOCK_RECORD
  5
1
330
0
100
AcDbSymbolTable
 70
     1
  0
BLOCK_RECORD
  5
1F
330
1
100
AcDbSymbolTableRecord
100
AcDbBlockTableRecord
  2
*MODEL_SPACE
  0
BLOCK_RECORD
  5
1B
330
1
100
AcDbSymbolTableRecord
100
AcDbBlockTableRecord
  2
*PAPER_SPACE
  0
ENDTAB
  0
ENDSEC
  0
SECTION
  2
BLOCKS
  0
BLOCK
  5
20
330
1F
100
AcDbEntity
  8
0
100
AcDbBlockBegin
  2
*MODEL_SPACE
 70
     0
 10
0.0
 20
0.0
 30
0.0
  3
*MODEL_SPACE
  1

  0
ENDBLK
  5
21
330
1F
100
AcDbEntity
  8
0
100
AcDbBlockEnd
  0
BLOCK
  5
1C
330
1B
100
AcDbEntity
 67
     1
  8
0
100
AcDbBlockBegin
  2
*PAPER_SPACE
  1

  0
ENDBLK
  5
1D
330
1B
100
AcDbEntity
 67
     1
  8
0
100
AcDbBlockEnd
  0
ENDSEC
  0
SECTION
  2
ENTITIES
  0
LWPOLYLINE
  5
100
100
AcDbEntity
  8
0
 62
1
100
AcDbPolyline
 90
6
 70
1
 10
111.468030
 20
349.704826
 30
0.0
 10
111.468030
 20
349.704826
 30
0.0
 10
111.468030
 20
349.704826
 30
0.0
 10
111.468030
 20
349.704826
 30
0.0
 10
111.468030
 20
349.704826
 30
0.0
 10
111.468030
 20
349.704826
 30
0.0
  0
SPLINE
  5
101
100
AcDbEntity
  8
0
 62
1
100
AcDbSpline
 70
8
 71
3
 72
8
 73
4
 74
0
 40
0
 40
0
 40
0
 40
0
 40
1
 40
1
 40
1
 40
1
 10
32.935412
 20
414.213389
 30
0.0
 10
32.935412
 20
414.213389
 30
0.0
 10
31.241821
 20
413.041107
 30
0.0
 10
30.053744
 20
411.857407
 30
0.0
  0
SPLINE
  5
102
100
AcDbEntity
  8
0
 62
1
100
AcDbSpline
 70
8
 71
3
 72
8
 73
4
 74
0
 40
0
 40
0
 40
0
 40
0
 40
1
 40
1
 40
1
 40
1
 10
30.053744
 20
411.857407
 30
0.0
 10
28.865666
 20
410.673708
 30
0.0
 10
27.710312
 20
409.052174
 30
0.0
 10
27.710312
 20
409.052174
 30
0.0
  0
LWPOLYLINE
  5
103
100
AcDbEntity
  8
0
 62
1
100
AcDbPolyline
 90
2
 70
0
 10
54.025433
 20
426.340370
 30
0.0
 10
32.935412
 20
414.213389
 30
0.0
  0
SPLINE
  5
104
100
AcDbEntity
  8
0
 62
1
100
AcDbSpline
 70
8
 71
3
 72
8
 73
4
 74
0
 40
0
 40
0
 40
0
 40
0
 40
1
 40
1
 40
1
 40
1
 10
3.129245
 20
366.782645
 30
0.0
 10
3.129245
 20
366.782645
 30
0.0
 10
2.367291
 20
365.202898
 30
0.0
 10
1.997229
 20
363.715730
 30
0.0
  0
SPLINE
  5
105
100
AcDbEntity
  8
0
 62
1
100
AcDbSpline
 70
8
 71
3
 72
8
 73
4
 74
0
 40
0
 40
0
 40
0
 40
0
 40
1
 40
1
 40
1
 40
1
 10
1.997229
 20
363.715730
 30
0.0
 10
1.627167
 20
362.228562
 30
0.0
 10
1.471887
 20
360.307570
 30
0.0
 10
1.471887
 20
360.307570
 30
0.0
  0
LWPOLYLINE
  5
106
100
AcDbEntity
  8
0
 62
1
100
AcDbPolyline
 90
2
 70
0
 10
27.710312
 20
409.052174
 30
0.0
 10
3.129245
 20
366.782645
 30
0.0
  0
SPLINE
  5
107
100
AcDbEntity
  8
0
 62
1
100
AcDbSpline
 70
8
 71
3
 72
8
 73
4
 74
0
 40
0
 40
0
 40
0
 40
0
 40
1
 40
1
 40
1
 40
1
 10
1.557007
 20
311.372320
 30
0.0
 10
1.557007
 20
311.372320
 30
0.0
 10
1.527977
 20
309.143030
 30
0.0
 10
1.975317
 20
307.544220
 30
0.0
  0
SPLINE
  5
108
100
AcDbEntity
  8
0
 62
1
100
AcDbSpline
 70
8
 71
3
 72
8
 73
4
 74
0
 40
0
 40
0
 40
0
 40
0
 40
1
 40
1
 40
1
 40
1
 10
1.975317
 20
307.544220
 30
0.0
 10
2.422656
 20
305.945410
 30
0.0
 10
3.215342
 20
304.522110
 30
0.0
 10
3.215342
 20
304.522110
 30
0.0
  0
LWPOLYLINE
  5
109
100
AcDbEntity
  8
0
 62
1
100
AcDbPolyline
 90
2
 70
0
 10
1.471887
 20
360.307570
 30
0.0
 10
1.557007
 20
311.372320
 30
0.0
  0
SPLINE
  5
10a
100
AcDbEntity
  8
0
 62
1
100
AcDbSpline
 70
8
 71
3
 72
8
 73
4
 74
0
 40
0
 40
0
 40
0
 40
0
 40
1
 40
1
 40
1
 40
1
 10
27.432465
 20
262.192840
 30
0.0
 10
27.432465
 20
262.192840
 30
0.0
 10
28.712439
 20
260.230240
 30
0.0
 10
29.859388
 20
259.075150
 30
0.0
  0
SPLINE
  5
10b
100
AcDbEntity
  8
0
 62
1
100
AcDbSpline
 70
8
 71
3
 72
8
 73
4
 74
0
 40
0
 40
0
 40
0
 40
0
 40
1
 40
1
 40
1
 40
1
 10
29.859388
 20
259.075150
 30
0.0
 10
31.006338
 20
257.920070
 30
0.0
 10
32.606310
 20
256.830340
 30
0.0
 10
32.606310
 20
256.830340
 30
0.0
  0
LWPOLYLINE
  5
10c
100
AcDbEntity
  8
0
 62
1
100
AcDbPolyline
 90
2
 70
0
 10
3.215342
 20
304.522110
 30
0.0
 10
27.432465
 20
262.192840
 30
0.0
  0
SPLINE
  5
10d
100
AcDbEntity
  8
0
 62
1
100
AcDbSpline
 70
8
 71
3
 72
8
 73
4
 74
0
 40
0
 40
0
 40
0
 40
0
 40
1
 40
1
 40
1
 40
1
 10
74.344560
 20
232.447930
 30
0.0
 10
74.344560
 20
232.447930
 30
0.0
 10
75.767150
 20
231.754440
 30
0.0
 10
77.494300
 20
231.199870
 30
0.0
  0
SPLINE
  5
10e
100
AcDbEntity
  8
0
 62
1
100
AcDbSpline
 70
8
 71
3
 72
8
 73
4
 74
0
 40
0
 40
0
 40
0
 40
0
 40
1
 40
1
 40
1
 40
1
 10
77.494300
 20
231.199870
 30
0.0
 10
79.221440
 20
230.645290
 30
0.0
 10
81.555770
 20
230.520870
 30
0.0
 10
81.555770
 20
230.520870
 30
0.0
  0
LWPOLYLINE
  5
10f
100
AcDbEntity
  8
0
 62
1
100
AcDbPolyline
 90
2
 70
0
 10
32.606310
 20
256.830340
 30
0.0
 10
74.344560
 20
232.447930
 30
0.0
  0
SPLINE
  5
110
100
AcDbEntity
  8
0
 62
1
100
AcDbSpline
 70
8
 71
3
 72
8
 73
4
 74
0
 40
0
 40
0
 40
0
 40
0
 40
1
 40
1
 40
1
 40
1
 10
131.939070
 20
230.490570
 30
0.0
 10
131.939070
 20
230.490570
 30
0.0
 10
134.095960
 20
230.702550
 30
0.0
 10
135.073990
 20
230.990950
 30
0.0
  0
SPLINE
  5
111
100
AcDbEntity
  8
0
 62
1
100
AcDbSpline
 70
8
 71
3
 72
8
 73
4
 74
0
 40
0
 40
0
 40
0
 40
0
 40
1
 40
1
 40
1
 40
1
 10
135.073990
 20
230.990950
 30
0.0
 10
136.052010
 20
231.279350
 30
0.0
 10
137.597210
 20
232.125350
 30
0.0
 10
137.597210
 20
232.125350
 30
0.0
  0
LWPOLYLINE
  5
112
100
AcDbEntity
  8
0
 62
1
100
AcDbPolyline
 90
2
 70
0
 10
81.555770
 20
230.520870
 30
0.0
 10
131.939070
 20
230.490570
 30
0.0
  0
SPLINE
  5
113
100
AcDbEntity
  8
0
 62
1
100
AcDbSpline
 70
8
 71
3
 72
8
 73
4
 74
0
 40
0
 40
0
 40
0
 40
0
 40
1
 40
1
 40
1
 40
1
 10
180.148190
 20
256.975600
 30
0.0
 10
180.148190
 20
256.975600
 30
0.0
 10
181.863050
 20
258.047470
 30
0.0
 10
183.067980
 20
259.318370
 30
0.0
  0
SPLINE
  5
114
100
AcDbEntity
  8
0
 62
1
100
AcDbSpline
 70
8
 71
3
 72
8
 73
4
 74
0
 40
0
 40
0
 40
0
 40
0
 40
1
 40
1
 40
1
 40
1
 10
183.067980
 20
259.318370
 30
0.0
 10
184.272910
 20
260.589270
 30
0.0
 10
185.151990
 20
262.103160
 30
0.0
 10
185.151990
 20
262.103160
 30
0.0
  0
LWPOLYLINE
  5
115
100
AcDbEntity
  8
0
 62
1
100
AcDbPolyline
 90
2
 70
0
 10
137.597210
 20
232.125350
 30
0.0
 10
180.148190
 20
256.975600
 30
0.0
  0
SPLINE
  5
116
100
AcDbEntity
  8
0
 62
1
100
AcDbSpline
 70
8
 71
3
 72
8
 73
4
 74
0
 40
0
 40
0
 40
0
 40
0
 40
1
 40
1
 40
1
 40
1
 10
209.406270
 20
304.492110
 30
0.0
 10
209.406270
 20
304.492110
 30
0.0
 10
210.109900
 20
305.851490
 30
0.0
 10
210.531110
 20
307.423470
 30
0.0
  0
SPLINE
  5
117
100
AcDbEntity
  8
0
 62
1
100
AcDbSpline
 70
8
 71
3
 72
8
 73
4
 74
0
 40
0
 40
0
 40
0
 40
0
 40
1
 40
1
 40
1
 40
1
 10
210.531110
 20
307.423470
 30
0.0
 10
210.952320
 20
308.995450
 30
0.0
 10
211.043170
 20
310.884570
 30
0.0
 10
211.043170
 20
310.884570
 30
0.0
  0
LWPOLYLINE
  5
118
100
AcDbEntity
  8
0
 62
1
100
AcDbPolyline
 90
2
 70
0
 10
185.151990
 20
262.103160
 30
0.0
 10
209.406270
 20
304.492110
 30
0.0
  0
SPLINE
  5
119
100
AcDbEntity
  8
0
 62
1
100
AcDbSpline
 70
8
 71
3
 72
8
 73
4
 74
0
 40
0
 40
0
 40
0
 40
0
 40
1
 40
1
 40
1
 40
1
 10
211.172320
 20
360.269121
 30
0.0
 10
211.172320
 20
360.269121
 30
0.0
 10
211.107020
 20
362.119930
 30
0.0
 10
210.553880
 20
364.162886
 30
0.0
  0
SPLINE
  5
11a
100
AcDbEntity
  8
0
 62
1
100
AcDbSpline
 70
8
 71
3
 72
8
 73
4
 74
0
 40
0
 40
0
 40
0
 40
0
 40
1
 40
1
 40
1
 40
1
 10
210.553880
 20
364.162886
 30
0.0
 10
210.000730
 20
366.205843
 30
0.0
 10
209.070730
 20
367.809228
 30
0.0
 10
209.070730
 20
367.809228
 30
0.0
  0
LWPOLYLINE
  5
11b
100
AcDbEntity
  8
0
 62
1
100
AcDbPolyline
 90
2
 70
0
 10
211.043170
 20
310.884570
 30
0.0
 10
211.172320
 20
360.269121
 30
0.0
  0
SPLINE
  5
11c
100
AcDbEntity
  8
0
 62
1
100
AcDbSpline
 70
8
 71
3
 72
8
 73
4
 74
0
 40
0
 40
0
 40
0
 40
0
 40
1
 40
1
 40
1
 40
1
 10
184.434890
 20
409.715646
 30
0.0
 10
184.434890
 20
409.715646
 30
0.0
 10
183.809760
 20
410.782946
 30
0.0
 10
182.842150
 20
411.750554
 30
0.0
  0
SPLINE
  5
11d
100
AcDbEntity
  8
0
 62
1
100
AcDbSpline
 70
8
 71
3
 72
8
 73
4
 74
0
 40
0
 40
0
 40
0
 40
0
 40
1
 40
1
 40
1
 40
1
 10
182.842150
 20
411.750554
 30
0.0
 10
181.874540
 20
412.718162
 30
0.0
 10
180.756540
 20
413.466449
 30
0.0
 10
180.756540
 20
413.466449
 30
0.0
  0
LWPOLYLINE
  5
11e
100
AcDbEntity
  8
0
 62
1
100
AcDbPolyline
 90
2
 70
0
 10
209.070730
 20
367.809228
 30
0.0
 10
184.434890
 20
409.715646
 30
0.0
  0
SPLINE
  5
11f
100
AcDbEntity
  8
0
 62
1
100
AcDbSpline
 70
8
 71
3
 72
8
 73
4
 74
0
 40
0
 40
0
 40
0
 40
0
 40
1
 40
1
 40
1
 40
1
 10
158.675540
 20
406.831380
 30
0.0
 10
124.042170
 20
393.581540
 30
0.0
 10
88.986100
 20
393.872580
 30
0.0
 10
53.849622
 20
406.833610
 30
0.0
  0
LWPOLYLINE
  5
120
100
AcDbEntity
  8
0
 62
1
100
AcDbPolyline
 90
3
 70
0
 10
180.756540
 20
413.466449
 30
0.0
 10
158.487210
 20
426.594833
 30
0.0
 10
158.675540
 20
406.831380
 30
0.0
  0
SPLINE
  5
121
100
AcDbEntity
  8
0
 62
1
100
AcDbSpline
 70
8
 71
3
 72
8
 73
4
 74
0
 40
0
 40
0
 40
0
 40
0
 40
1
 40
1
 40
1
 40
1
 10
36.942100
 20
263.459887
 30
0.0
 10
36.090742
 20
263.459887
 30
0.0
 10
35.323214
 20
263.972732
 30
0.0
 10
34.997413
 20
264.759284
 30
0.0
  0
SPLINE
  5
122
100
AcDbEntity
  8
0
 62
1
100
AcDbSpline
 70
8
 71
3
 72
8
 73
4
 74
0
 40
0
 40
0
 40
0
 40
0
 40
1
 40
1
 40
1
 40
1
 10
34.997413
 20
264.759284
 30
0.0
 10
34.671613
 20
265.545837
 30
0.0
 10
34.851700
 20
266.451198
 30
0.0
 10
35.453701
 20
267.053199
 30
0.0
  0
SPLINE
  5
123
100
AcDbEntity
  8
0
 62
1
100
AcDbSpline
 70
8
 71
3
 72
8
 73
4
 74
0
 40
0
 40
0
 40
0
 40
0
 40
1
 40
1
 40
1
 40
1
 10
35.453701
 20
267.053199
 30
0.0
 10
36.055702
 20
267.655200
 30
0.0
 10
36.961063
 20
267.835287
 30
0.0
 10
37.747616
 20
267.509487
 30
0.0
  0
SPLINE
  5
124
100
AcDbEntity
  8
0
 62
1
100
AcDbSpline
 70
8
 71
3
 72
8
 73
4
 74
0
 40
0
 40
0
 40
0
 40
0
 40
1
 40
1
 40
1
 40
1
 10
37.747616
 20
267.509487
 30
0.0
 10
38.534168
 20
267.183686
 30
0.0
 10
39.047013
 20
266.416158
 30
0.0
 10
39.047013
 20
265.564800
 30
0.0
  0
SPLINE
  5
125
100
AcDbEntity
  8
0
 62
1
100
AcDbSpline
 70
8
 71
3
 72
8
 73
4
 74
0
 40
0
 40
0
 40
0
 40
0
 40
1
 40
1
 40
1
 40
1
 10
39.047013
 20
265.564800
 30
0.0
 10
39.047013
 20
265.006542
 30
0.0
 10
38.825246
 20
264.471149
 30
0.0
 10
38.430499
 20
264.076401
 30
0.0
  0
SPLINE
  5
126
100
AcDbEntity
  8
0
 62
1
100
AcDbSpline
 70
8
 71
3
 72
8
 73
4
 74
0
 40
0
 40
0
 40
0
 40
0
 40
1
 40
1
 40
1
 40
1
 10
38.430499
 20
264.076401
 30
0.0
 10
38.035751
 20
263.681654
 30
0.0
 10
37.500358
 20
263.459886
 30
0.0
 10
36.942100
 20
263.459886
 30
0.0
  0
LWPOLYLINE
  5
127
100
AcDbEntity
  8
0
 62
1
100
AcDbPolyline
 90
2
 70
0
 10
53.849622
 20
406.833610
 30
0.0
 10
54.025433
 20
426.340370
 30
0.0
  0
SPLINE
  5
128
100
AcDbEntity
  8
0
 62
1
100
AcDbSpline
 70
8
 71
3
 72
8
 73
4
 74
0
 40
0
 40
0
 40
0
 40
0
 40
1
 40
1
 40
1
 40
1
 10
11.187480
 20
311.955114
 30
0.0
 10
10.024968
 20
311.955114
 30
0.0
 10
9.082567
 20
311.012712
 30
0.0
 10
9.082567
 20
309.850200
 30
0.0
  0
SPLINE
  5
129
100
AcDbEntity
  8
0
 62
1
100
AcDbSpline
 70
8
 71
3
 72
8
 73
4
 74
0
 40
0
 40
0
 40
0
 40
0
 40
1
 40
1
 40
1
 40
1
 10
9.082567
 20
309.850200
 30
0.0
 10
9.082567
 20
308.687688
 30
0.0
 10
10.024968
 20
307.745287
 30
0.0
 10
11.187480
 20
307.745287
 30
0.0
  0
SPLINE
  5
12a
100
AcDbEntity
  8
0
 62
1
100
AcDbSpline
 70
8
 71
3
 72
8
 73
4
 74
0
 40
0
 40
0
 40
0
 40
0
 40
1
 40
1
 40
1
 40
1
 10
11.187480
 20
307.745287
 30
0.0
 10
12.349992
 20
307.745287
 30
0.0
 10
13.292394
 20
308.687688
 30
0.0
 10
13.292394
 20
309.850200
 30
0.0
  0
SPLINE
  5
12b
100
AcDbEntity
  8
0
 62
1
100
AcDbSpline
 70
8
 71
3
 72
8
 73
4
 74
0
 40
0
 40
0
 40
0
 40
0
 40
1
 40
1
 40
1
 40
1
 10
13.292394
 20
309.850200
 30
0.0
 10
13.292394
 20
310.408458
 30
0.0
 10
13.070626
 20
310.943851
 30
0.0
 10
12.675879
 20
311.338599
 30
0.0
  0
SPLINE
  5
12c
100
AcDbEntity
  8
0
 62
1
100
AcDbSpline
 70
8
 71
3
 72
8
 73
4
 74
0
 40
0
 40
0
 40
0
 40
0
 40
1
 40
1
 40
1
 40
1
 10
12.675879
 20
311.338599
 30
0.0
 10
12.281131
 20
311.733346
 30
0.0
 10
11.745738
 20
311.955114
 30
0.0
 10
11.187480
 20
311.955114
 30
0.0
  0
LWPOLYLINE
  5
12d
100
AcDbEntity
  8
0
 62
1
100
AcDbPolyline
 90
1
 70
1
 10
36.942100
 20
263.459886
 30
0.0
  0
SPLINE
  5
12e
100
AcDbEntity
  8
0
 62
1
100
AcDbSpline
 70
8
 71
3
 72
8
 73
4
 74
0
 40
0
 40
0
 40
0
 40
0
 40
1
 40
1
 40
1
 40
1
 10
57.073532
 20
402.897947
 30
0.0
 10
56.222174
 20
402.897947
 30
0.0
 10
55.454646
 20
402.385102
 30
0.0
 10
55.128845
 20
401.598550
 30
0.0
  0
SPLINE
  5
12f
100
AcDbEntity
  8
0
 62
1
100
AcDbSpline
 70
8
 71
3
 72
8
 73
4
 74
0
 40
0
 40
0
 40
0
 40
0
 40
1
 40
1
 40
1
 40
1
 10
55.128845
 20
401.598550
 30
0.0
 10
54.803045
 20
400.811997
 30
0.0
 10
54.983132
 20
399.906636
 30
0.0
 10
55.585133
 20
399.304635
 30
0.0
  0
SPLINE
  5
130
100
AcDbEntity
  8
0
 62
1
100
AcDbSpline
 70
8
 71
3
 72
8
 73
4
 74
0
 40
0
 40
0
 40
0
 40
0
 40
1
 40
1
 40
1
 40
1
 10
55.585133
 20
399.304635
 30
0.0
 10
56.187134
 20
398.702634
 30
0.0
 10
57.092495
 20
398.522547
 30
0.0
 10
57.879048
 20
398.848347
 30
0.0
  0
SPLINE
  5
131
100
AcDbEntity
  8
0
 62
1
100
AcDbSpline
 70
8
 71
3
 72
8
 73
4
 74
0
 40
0
 40
0
 40
0
 40
0
 40
1
 40
1
 40
1
 40
1
 10
57.879048
 20
398.848347
 30
0.0
 10
58.665600
 20
399.174148
 30
0.0
 10
59.178445
 20
399.941676
 30
0.0
 10
59.178445
 20
400.793034
 30
0.0
  0
SPLINE
  5
132
100
AcDbEntity
  8
0
 62
1
100
AcDbSpline
 70
8
 71
3
 72
8
 73
4
 74
0
 40
0
 40
0
 40
0
 40
0
 40
1
 40
1
 40
1
 40
1
 10
59.178445
 20
400.793034
 30
0.0
 10
59.178445
 20
401.351292
 30
0.0
 10
58.956678
 20
401.886685
 30
0.0
 10
58.561931
 20
402.281433
 30
0.0
  0
SPLINE
  5
133
100
AcDbEntity
  8
0
 62
1
100
AcDbSpline
 70
8
 71
3
 72
8
 73
4
 74
0
 40
0
 40
0
 40
0
 40
0
 40
1
 40
1
 40
1
 40
1
 10
58.561931
 20
402.281433
 30
0.0
 10
58.167183
 20
402.676180
 30
0.0
 10
57.631790
 20
402.897947
 30
0.0
 10
57.073532
 20
402.897947
 30
0.0
  0
LWPOLYLINE
  5
134
100
AcDbEntity
  8
0
 62
1
100
AcDbPolyline
 90
1
 70
1
 10
11.187480
 20
311.955114
 30
0.0
  0
SPLINE
  5
135
100
AcDbEntity
  8
0
 62
1
100
AcDbSpline
 70
8
 71
3
 72
8
 73
4
 74
0
 40
0
 40
0
 40
0
 40
0
 40
1
 40
1
 40
1
 40
1
 10
201.404270
 20
307.787427
 30
0.0
 10
200.552912
 20
307.787427
 30
0.0
 10
199.785384
 20
308.300272
 30
0.0
 10
199.459583
 20
309.086824
 30
0.0
  0
SPLINE
  5
136
100
AcDbEntity
  8
0
 62
1
100
AcDbSpline
 70
8
 71
3
 72
8
 73
4
 74
0
 40
0
 40
0
 40
0
 40
0
 40
1
 40
1
 40
1
 40
1
 10
199.459583
 20
309.086824
 30
0.0
 10
199.133783
 20
309.873377
 30
0.0
 10
199.313870
 20
310.778738
 30
0.0
 10
199.915871
 20
311.380739
 30
0.0
  0
SPLINE
  5
137
100
AcDbEntity
  8
0
 62
1
100
AcDbSpline
 70
8
 71
3
 72
8
 73
4
 74
0
 40
0
 40
0
 40
0
 40
0
 40
1
 40
1
 40
1
 40
1
 10
199.915871
 20
311.380739
 30
0.0
 10
200.517872
 20
311.982740
 30
0.0
 10
201.423233
 20
312.162827
 30
0.0
 10
202.209786
 20
311.837027
 30
0.0
  0
SPLINE
  5
138
100
AcDbEntity
  8
0
 62
1
100
AcDbSpline
 70
8
 71
3
 72
8
 73
4
 74
0
 40
0
 40
0
 40
0
 40
0
 40
1
 40
1
 40
1
 40
1
 10
202.209786
 20
311.837027
 30
0.0
 10
202.996338
 20
311.511226
 30
0.0
 10
203.509184
 20
310.743698
 30
0.0
 10
203.509184
 20
309.892340
 30
0.0
  0
SPLINE
  5
139
100
AcDbEntity
  8
0
 62
1
100
AcDbSpline
 70
8
 71
3
 72
8
 73
4
 74
0
 40
0
 40
0
 40
0
 40
0
 40
1
 40
1
 40
1
 40
1
 10
203.509184
 20
309.892340
 30
0.0
 10
203.509184
 20
309.334082
 30
0.0
 10
203.287416
 20
308.798689
 30
0.0
 10
202.892669
 20
308.403941
 30
0.0
  0
SPLINE
  5
13a
100
AcDbEntity
  8
0
 62
1
100
AcDbSpline
 70
8
 71
3
 72
8
 73
4
 74
0
 40
0
 40
0
 40
0
 40
0
 40
1
 40
1
 40
1
 40
1
 10
202.892669
 20
308.403941
 30
0.0
 10
202.497921
 20
308.009194
 30
0.0
 10
201.962528
 20
307.787427
 30
0.0
 10
201.404270
 20
307.787427
 30
0.0
  0
LWPOLYLINE
  5
13b
100
AcDbEntity
  8
0
 62
1
100
AcDbPolyline
 90
1
 70
1
 10
57.073532
 20
402.897947
 30
0.0
  0
SPLINE
  5
13c
100
AcDbEntity
  8
0
 62
1
100
AcDbSpline
 70
8
 71
3
 72
8
 73
4
 74
0
 40
0
 40
0
 40
0
 40
0
 40
1
 40
1
 40
1
 40
1
 10
175.654000
 20
267.688720
 30
0.0
 10
174.797260
 20
267.688720
 30
0.0
 10
174.024880
 20
267.172632
 30
0.0
 10
173.697020
 20
266.381108
 30
0.0
  0
SPLINE
  5
13d
100
AcDbEntity
  8
0
 62
1
100
AcDbSpline
 70
8
 71
3
 72
8
 73
4
 74
0
 40
0
 40
0
 40
0
 40
0
 40
1
 40
1
 40
1
 40
1
 10
173.697020
 20
266.381108
 30
0.0
 10
173.369160
 20
265.589583
 30
0.0
 10
173.550385
 20
264.678499
 30
0.0
 10
174.156192
 20
264.072692
 30
0.0
  0
SPLINE
  5
13e
100
AcDbEntity
  8
0
 62
1
100
AcDbSpline
 70
8
 71
3
 72
8
 73
4
 74
0
 40
0
 40
0
 40
0
 40
0
 40
1
 40
1
 40
1
 40
1
 10
174.156192
 20
264.072692
 30
0.0
 10
174.761999
 20
263.466885
 30
0.0
 10
175.673083
 20
263.285660
 30
0.0
 10
176.464608
 20
263.613520
 30
0.0
  0
SPLINE
  5
13f
100
AcDbEntity
  8
0
 62
1
100
AcDbSpline
 70
8
 71
3
 72
8
 73
4
 74
0
 40
0
 40
0
 40
0
 40
0
 40
1
 40
1
 40
1
 40
1
 10
176.464608
 20
263.613520
 30
0.0
 10
177.256132
 20
263.941380
 30
0.0
 10
177.772220
 20
264.713760
 30
0.0
 10
177.772220
 20
265.570500
 30
0.0
  0
SPLINE
  5
140
100
AcDbEntity
  8
0
 62
1
100
AcDbSpline
 70
8
 71
3
 72
8
 73
4
 74
0
 40
0
 40
0
 40
0
 40
0
 40
1
 40
1
 40
1
 40
1
 10
177.772220
 20
265.570500
 30
0.0
 10
177.772220
 20
266.132287
 30
0.0
 10
177.549051
 20
266.671064
 30
0.0
 10
177.151808
 20
267.068308
 30
0.0
  0
SPLINE
  5
141
100
AcDbEntity
  8
0
 62
1
100
AcDbSpline
 70
8
 71
3
 72
8
 73
4
 74
0
 40
0
 40
0
 40
0
 40
0
 40
1
 40
1
 40
1
 40
1
 10
177.151808
 20
267.068308
 30
0.0
 10
176.754564
 20
267.465551
 30
0.0
 10
176.215787
 20
267.688720
 30
0.0
 10
175.654000
 20
267.688720
 30
0.0
  0
LWPOLYLINE
  5
142
100
AcDbEntity
  8
0
 62
1
100
AcDbPolyline
 90
1
 70
1
 10
201.404270
 20
307.787427
 30
0.0
  0
SPLINE
  5
143
100
AcDbEntity
  8
0
 62
1
100
AcDbSpline
 70
8
 71
3
 72
8
 73
4
 74
0
 40
0
 40
0
 40
0
 40
0
 40
1
 40
1
 40
1
 40
1
 10
155.497730
 20
402.897947
 30
0.0
 10
154.335218
 20
402.897947
 30
0.0
 10
153.392817
 20
401.955546
 30
0.0
 10
153.392817
 20
400.793034
 30
0.0
  0
SPLINE
  5
144
100
AcDbEntity
  8
0
 62
1
100
AcDbSpline
 70
8
 71
3
 72
8
 73
4
 74
0
 40
0
 40
0
 40
0
 40
0
 40
1
 40
1
 40
1
 40
1
 10
153.392817
 20
400.793034
 30
0.0
 10
153.392817
 20
399.630522
 30
0.0
 10
154.335218
 20
398.688121
 30
0.0
 10
155.497730
 20
398.688121
 30
0.0
  0
SPLINE
  5
145
100
AcDbEntity
  8
0
 62
1
100
AcDbSpline
 70
8
 71
3
 72
8
 73
4
 74
0
 40
0
 40
0
 40
0
 40
0
 40
1
 40
1
 40
1
 40
1
 10
155.497730
 20
398.688121
 30
0.0
 10
156.660242
 20
398.688121
 30
0.0
 10
157.602644
 20
399.630522
 30
0.0
 10
157.602644
 20
400.793034
 30
0.0
  0
SPLINE
  5
146
100
AcDbEntity
  8
0
 62
1
100
AcDbSpline
 70
8
 71
3
 72
8
 73
4
 74
0
 40
0
 40
0
 40
0
 40
0
 40
1
 40
1
 40
1
 40
1
 10
157.602644
 20
400.793034
 30
0.0
 10
157.602644
 20
401.351292
 30
0.0
 10
157.380876
 20
401.886685
 30
0.0
 10
156.986129
 20
402.281433
 30
0.0
  0
SPLINE
  5
147
100
AcDbEntity
  8
0
 62
1
100
AcDbSpline
 70
8
 71
3
 72
8
 73
4
 74
0
 40
0
 40
0
 40
0
 40
0
 40
1
 40
1
 40
1
 40
1
 10
156.986129
 20
402.281433
 30
0.0
 10
156.591381
 20
402.676180
 30
0.0
 10
156.055988
 20
402.897948
 30
0.0
 10
155.497730
 20
402.897947
 30
0.0
  0
LWPOLYLINE
  5
148
100
AcDbEntity
  8
0
 62
1
100
AcDbPolyline
 90
1
 70
1
 10
175.654000
 20
267.688720
 30
0.0
  0
LWPOLYLINE
  5
149
100
AcDbEntity
  8
0
 62
1
100
AcDbPolyline
 90
1
 70
1
 10
155.497730
 20
402.897947
 30
0.0
  0
SPLINE
  5
14a
100
AcDbEntity
  8
0
 62
1
100
AcDbSpline
 70
8
 71
3
 72
8
 73
4
 74
0
 40
0
 40
0
 40
0
 40
0
 40
1
 40
1
 40
1
 40
1
 10
130.947763
 20
245.866971
 30
0.0
 10
130.948921
 20
245.031838
 30
0.0
 10
130.618277
 20
244.230446
 30
0.0
 10
130.028568
 20
243.639093
 30
0.0
  0
SPLINE
  5
14b
100
AcDbEntity
  8
0
 62
1
100
AcDbSpline
 70
8
 71
3
 72
8
 73
4
 74
0
 40
0
 40
0
 40
0
 40
0
 40
1
 40
1
 40
1
 40
1
 10
130.028568
 20
243.639093
 30
0.0
 10
129.438859
 20
243.047740
 30
0.0
 10
128.638391
 20
242.714866
 30
0.0
 10
127.803258
 20
242.713700
 30
0.0
  0
LWPOLYLINE
  5
14c
100
AcDbEntity
  8
0
 62
1
100
AcDbPolyline
 90
2
 70
0
 10
130.938537
 20
252.517310
 30
0.0
 10
130.947763
 20
245.866971
 30
0.0
  0
SPLINE
  5
14d
100
AcDbEntity
  8
0
 62
1
100
AcDbSpline
 70
8
 71
3
 72
8
 73
4
 74
0
 40
0
 40
0
 40
0
 40
0
 40
1
 40
1
 40
1
 40
1
 10
84.515702
 20
242.653237
 30
0.0
 10
83.680569
 20
242.652071
 30
0.0
 10
82.879181
 20
242.982707
 30
0.0
 10
82.287834
 20
243.572411
 30
0.0
  0
SPLINE
  5
14e
100
AcDbEntity
  8
0
 62
1
100
AcDbSpline
 70
8
 71
3
 72
8
 73
4
 74
0
 40
0
 40
0
 40
0
 40
0
 40
1
 40
1
 40
1
 40
1
 10
82.287834
 20
243.572411
 30
0.0
 10
81.696486
 20
244.162114
 30
0.0
 10
81.363620
 20
244.962579
 30
0.0
 10
81.362461
 20
245.797712
 30
0.0
  0
LWPOLYLINE
  5
14f
100
AcDbEntity
  8
0
 62
1
100
AcDbPolyline
 90
2
 70
0
 10
127.803258
 20
242.713700
 30
0.0
 10
84.515702
 20
242.653237
 30
0.0
  0
SPLINE
  5
150
100
AcDbEntity
  8
0
 62
1
100
AcDbSpline
 70
8
 71
3
 72
8
 73
4
 74
0
 40
0
 40
0
 40
0
 40
0
 40
1
 40
1
 40
1
 40
1
 10
81.353236
 20
252.448051
 30
0.0
 10
81.352077
 20
253.283184
 30
0.0
 10
81.682722
 20
254.084576
 30
0.0
 10
82.272431
 20
254.675929
 30
0.0
  0
SPLINE
  5
151
100
AcDbEntity
  8
0
 62
1
100
AcDbSpline
 70
8
 71
3
 72
8
 73
4
 74
0
 40
0
 40
0
 40
0
 40
0
 40
1
 40
1
 40
1
 40
1
 10
82.272431
 20
254.675929
 30
0.0
 10
82.862140
 20
255.267282
 30
0.0
 10
83.662608
 20
255.600156
 30
0.0
 10
84.497741
 20
255.601323
 30
0.0
  0
LWPOLYLINE
  5
152
100
AcDbEntity
  8
0
 62
1
100
AcDbPolyline
 90
2
 70
0
 10
81.362461
 20
245.797712
 30
0.0
 10
81.353236
 20
252.448051
 30
0.0
  0
SPLINE
  5
153
100
AcDbEntity
  8
0
 62
1
100
AcDbSpline
 70
8
 71
3
 72
8
 73
4
 74
0
 40
0
 40
0
 40
0
 40
0
 40
1
 40
1
 40
1
 40
1
 10
127.785296
 20
255.661785
 30
0.0
 10
128.620429
 20
255.662952
 30
0.0
 10
129.421818
 20
255.332315
 30
0.0
 10
130.013165
 20
254.742612
 30
0.0
  0
SPLINE
  5
154
100
AcDbEntity
  8
0
 62
1
100
AcDbSpline
 70
8
 71
3
 72
8
 73
4
 74
0
 40
0
 40
0
 40
0
 40
0
 40
1
 40
1
 40
1
 40
1
 10
130.013165
 20
254.742612
 30
0.0
 10
130.604512
 20
254.152908
 30
0.0
 10
130.937379
 20
253.352443
 30
0.0
 10
130.938537
 20
252.517310
 30
0.0
  0
LWPOLYLINE
  5
155
100
AcDbEntity
  8
0
 62
1
100
AcDbPolyline
 90
2
 70
0
 10
84.497741
 20
255.601323
 30
0.0
 10
127.785296
 20
255.661785
 30
0.0
  0
LWPOLYLINE
  5
156
100
AcDbEntity
  8
0
 62
1
100
AcDbPolyline
 90
1
 70
1
 10
130.938537
 20
252.517310
 30
0.0
  0
SPLINE
  5
157
100
AcDbEntity
  8
0
 62
1
100
AcDbSpline
 70
8
 71
3
 72
8
 73
4
 74
0
 40
0
 40
0
 40
0
 40
0
 40
1
 40
1
 40
1
 40
1
 10
171.518892
 20
402.488482
 30
0.0
 10
172.241559
 20
402.907052
 30
0.0
 10
173.100906
 20
403.021401
 30
0.0
 10
173.907887
 20
402.806375
 30
0.0
  0
SPLINE
  5
158
100
AcDbEntity
  8
0
 62
1
100
AcDbSpline
 70
8
 71
3
 72
8
 73
4
 74
0
 40
0
 40
0
 40
0
 40
0
 40
1
 40
1
 40
1
 40
1
 10
173.907887
 20
402.806375
 30
0.0
 10
174.714869
 20
402.591349
 30
0.0
 10
175.403380
 20
402.064560
 30
0.0
 10
175.821957
 20
401.341898
 30
0.0
  0
LWPOLYLINE
  5
159
100
AcDbEntity
  8
0
 62
1
100
AcDbPolyline
 90
2
 70
0
 10
165.547187
 20
399.029660
 30
0.0
 10
171.518892
 20
402.488482
 30
0.0
  0
SPLINE
  5
15a
100
AcDbEntity
  8
0
 62
1
100
AcDbSpline
 70
8
 71
3
 72
8
 73
4
 74
0
 40
0
 40
0
 40
0
 40
0
 40
1
 40
1
 40
1
 40
1
 10
197.518096
 20
363.884024
 30
0.0
 10
197.936673
 20
363.161361
 30
0.0
 10
198.051027
 20
362.302020
 30
0.0
 10
197.836003
 20
361.495047
 30
0.0
  0
SPLINE
  5
15b
100
AcDbEntity
  8
0
 62
1
100
AcDbSpline
 70
8
 71
3
 72
8
 73
4
 74
0
 40
0
 40
0
 40
0
 40
0
 40
1
 40
1
 40
1
 40
1
 10
197.836003
 20
361.495047
 30
0.0
 10
197.620979
 20
360.688073
 30
0.0
 10
197.094190
 20
359.999570
 30
0.0
 10
196.371523
 20
359.581001
 30
0.0
  0
LWPOLYLINE
  5
15c
100
AcDbEntity
  8
0
 62
1
100
AcDbPolyline
 90
2
 70
0
 10
175.821957
 20
401.341898
 30
0.0
 10
197.518096
 20
363.884024
 30
0.0
  0
SPLINE
  5
15d
100
AcDbEntity
  8
0
 62
1
100
AcDbSpline
 70
8
 71
3
 72
8
 73
4
 74
0
 40
0
 40
0
 40
0
 40
0
 40
1
 40
1
 40
1
 40
1
 10
190.399817
 20
356.122179
 30
0.0
 10
189.677150
 20
355.703609
 30
0.0
 10
188.817803
 20
355.589260
 30
0.0
 10
188.010822
 20
355.804286
 30
0.0
  0
SPLINE
  5
15e
100
AcDbEntity
  8
0
 62
1
100
AcDbSpline
 70
8
 71
3
 72
8
 73
4
 74
0
 40
0
 40
0
 40
0
 40
0
 40
1
 40
1
 40
1
 40
1
 10
188.010822
 20
355.804286
 30
0.0
 10
187.203841
 20
356.019312
 30
0.0
 10
186.515330
 20
356.546100
 30
0.0
 10
186.096753
 20
357.268763
 30
0.0
  0
LWPOLYLINE
  5
15f
100
AcDbEntity
  8
0
 62
1
100
AcDbPolyline
 90
2
 70
0
 10
196.371523
 20
359.581001
 30
0.0
 10
190.399817
 20
356.122179
 30
0.0
  0
SPLINE
  5
160
100
AcDbEntity
  8
0
 62
1
100
AcDbSpline
 70
8
 71
3
 72
8
 73
4
 74
0
 40
0
 40
0
 40
0
 40
0
 40
1
 40
1
 40
1
 40
1
 10
164.400613
 20
394.726637
 30
0.0
 10
163.982037
 20
395.449300
 30
0.0
 10
163.867682
 20
396.308641
 30
0.0
 10
164.082706
 20
397.115614
 30
0.0
  0
SPLINE
  5
161
100
AcDbEntity
  8
0
 62
1
100
AcDbSpline
 70
8
 71
3
 72
8
 73
4
 74
0
 40
0
 40
0
 40
0
 40
0
 40
1
 40
1
 40
1
 40
1
 10
164.082706
 20
397.115614
 30
0.0
 10
164.297730
 20
397.922587
 30
0.0
 10
164.824520
 20
398.611090
 30
0.0
 10
165.547187
 20
399.029660
 30
0.0
  0
LWPOLYLINE
  5
162
100
AcDbEntity
  8
0
 62
1
100
AcDbPolyline
 90
2
 70
0
 10
186.096753
 20
357.268763
 30
0.0
 10
164.400613
 20
394.726637
 30
0.0
  0
LWPOLYLINE
  5
163
100
AcDbEntity
  8
0
 62
1
100
AcDbPolyline
 90
1
 70
1
 10
165.547187
 20
399.029660
 30
0.0
  0
SPLINE
  5
164
100
AcDbEntity
  8
0
 62
1
100
AcDbSpline
 70
8
 71
3
 72
8
 73
4
 74
0
 40
0
 40
0
 40
0
 40
0
 40
1
 40
1
 40
1
 40
1
 10
16.067851
 20
359.269348
 30
0.0
 10
15.344025
 20
359.685912
 30
0.0
 10
14.815322
 20
360.372954
 30
0.0
 10
14.598049
 20
361.179333
 30
0.0
  0
SPLINE
  5
165
100
AcDbEntity
  8
0
 62
1
100
AcDbSpline
 70
8
 71
3
 72
8
 73
4
 74
0
 40
0
 40
0
 40
0
 40
0
 40
1
 40
1
 40
1
 40
1
 10
14.598049
 20
361.179333
 30
0.0
 10
14.380777
 20
361.985713
 30
0.0
 10
14.492734
 20
362.845376
 30
0.0
 10
14.909290
 20
363.569205
 30
0.0
  0
LWPOLYLINE
  5
166
100
AcDbEntity
  8
0
 62
1
100
AcDbPolyline
 90
2
 70
0
 10
21.983535
 20
355.864859
 30
0.0
 10
16.067851
 20
359.269348
 30
0.0
  0
SPLINE
  5
167
100
AcDbEntity
  8
0
 62
1
100
AcDbSpline
 70
8
 71
3
 72
8
 73
4
 74
0
 40
0
 40
0
 40
0
 40
0
 40
1
 40
1
 40
1
 40
1
 10
36.500705
 20
401.087560
 30
0.0
 10
36.917262
 20
401.811389
 30
0.0
 10
37.604295
 20
402.340094
 30
0.0
 10
38.410667
 20
402.557364
 30
0.0
  0
SPLINE
  5
168
100
AcDbEntity
  8
0
 62
1
100
AcDbSpline
 70
8
 71
3
 72
8
 73
4
 74
0
 40
0
 40
0
 40
0
 40
0
 40
1
 40
1
 40
1
 40
1
 10
38.410667
 20
402.557364
 30
0.0
 10
39.217039
 20
402.774634
 30
0.0
 10
40.076695
 20
402.662672
 30
0.0
 10
40.800521
 20
402.246109
 30
0.0
  0
LWPOLYLINE
  5
169
100
AcDbEntity
  8
0
 62
1
100
AcDbPolyline
 90
2
 70
0
 10
14.909290
 20
363.569205
 30
0.0
 10
36.500705
 20
401.087560
 30
0.0
  0
SPLINE
  5
16a
100
AcDbEntity
  8
0
 62
1
100
AcDbSpline
 70
8
 71
3
 72
8
 73
4
 74
0
 40
0
 40
0
 40
0
 40
0
 40
1
 40
1
 40
1
 40
1
 10
46.716205
 20
398.841620
 30
0.0
 10
47.440031
 20
398.425057
 30
0.0
 10
47.968734
 20
397.738015
 30
0.0
 10
48.186006
 20
396.931635
 30
0.0
  0
SPLINE
  5
16b
100
AcDbEntity
  8
0
 62
1
100
AcDbSpline
 70
8
 71
3
 72
8
 73
4
 74
0
 40
0
 40
0
 40
0
 40
0
 40
1
 40
1
 40
1
 40
1
 10
48.186006
 20
396.931635
 30
0.0
 10
48.403279
 20
396.125256
 30
0.0
 10
48.291322
 20
395.265593
 30
0.0
 10
47.874766
 20
394.541763
 30
0.0
  0
LWPOLYLINE
  5
16c
100
AcDbEntity
  8
0
 62
1
100
AcDbPolyline
 90
2
 70
0
 10
40.800521
 20
402.246109
 30
0.0
 10
46.716205
 20
398.841620
 30
0.0
  0
SPLINE
  5
16d
100
AcDbEntity
  8
0
 62
1
100
AcDbSpline
 70
8
 71
3
 72
8
 73
4
 74
0
 40
0
 40
0
 40
0
 40
0
 40
1
 40
1
 40
1
 40
1
 10
26.283351
 20
357.023409
 30
0.0
 10
25.866794
 20
356.299579
 30
0.0
 10
25.179760
 20
355.770875
 30
0.0
 10
24.373388
 20
355.553605
 30
0.0
  0
SPLINE
  5
16e
100
AcDbEntity
  8
0
 62
1
100
AcDbSpline
 70
8
 71
3
 72
8
 73
4
 74
0
 40
0
 40
0
 40
0
 40
0
 40
1
 40
1
 40
1
 40
1
 10
24.373388
 20
355.553605
 30
0.0
 10
23.567017
 20
355.336335
 30
0.0
 10
22.707361
 20
355.448296
 30
0.0
 10
21.983535
 20
355.864859
 30
0.0
  0
LWPOLYLINE
  5
16f
100
AcDbEntity
  8
0
 62
1
100
AcDbPolyline
 90
2
 70
0
 10
47.874766
 20
394.541763
 30
0.0
 10
26.283351
 20
357.023409
 30
0.0
  0
SPLINE
  5
170
100
AcDbEntity
  8
0
 62
1
100
AcDbSpline
 70
8
 71
3
 72
8
 73
4
 74
0
 40
0
 40
0
 40
0
 40
0
 40
1
 40
1
 40
1
 40
1
 10
49.437915
 20
391.042208
 30
0.0
 10
50.204133
 20
392.369337
 30
0.0
 10
51.694349
 20
393.104230
 30
0.0
 10
53.213676
 20
392.904207
 30
0.0
  0
SPLINE
  5
171
100
AcDbEntity
  8
0
 62
1
100
AcDbSpline
 70
8
 71
3
 72
8
 73
4
 74
0
 40
0
 40
0
 40
0
 40
0
 40
1
 40
1
 40
1
 40
1
 10
53.213676
 20
392.904207
 30
0.0
 10
54.733003
 20
392.704184
 30
0.0
 10
55.982236
 20
391.608636
 30
0.0
 10
56.378860
 20
390.128415
 30
0.0
  0
SPLINE
  5
172
100
AcDbEntity
  8
0
 62
1
100
AcDbSpline
 70
8
 71
3
 72
8
 73
4
 74
0
 40
0
 40
0
 40
0
 40
0
 40
1
 40
1
 40
1
 40
1
 10
56.378860
 20
390.128415
 30
0.0
 10
56.775484
 20
388.648194
 30
0.0
 10
56.241390
 20
387.074805
 30
0.0
 10
55.025626
 20
386.141916
 30
0.0
  0
SPLINE
  5
173
100
AcDbEntity
  8
0
 62
1
100
AcDbSpline
 70
8
 71
3
 72
8
 73
4
 74
0
 40
0
 40
0
 40
0
 40
0
 40
1
 40
1
 40
1
 40
1
 10
55.025626
 20
386.141916
 30
0.0
 10
53.809862
 20
385.209028
 30
0.0
 10
52.151851
 20
385.100356
 30
0.0
 10
50.824721
 20
385.866574
 30
0.0
  0
SPLINE
  5
174
100
AcDbEntity
  8
0
 62
1
100
AcDbSpline
 70
8
 71
3
 72
8
 73
4
 74
0
 40
0
 40
0
 40
0
 40
0
 40
1
 40
1
 40
1
 40
1
 10
50.824721
 20
385.866574
 30
0.0
 10
49.954488
 20
386.369004
 30
0.0
 10
49.319486
 20
387.196555
 30
0.0
 10
49.059409
 20
388.167174
 30
0.0
  0
SPLINE
  5
175
100
AcDbEntity
  8
0
 62
1
100
AcDbSpline
 70
8
 71
3
 72
8
 73
4
 74
0
 40
0
 40
0
 40
0
 40
0
 40
1
 40
1
 40
1
 40
1
 10
49.059409
 20
388.167174
 30
0.0
 10
48.799332
 20
389.137794
 30
0.0
 10
48.935485
 20
390.171974
 30
0.0
 10
49.437915
 20
391.042208
 30
0.0
  0
LWPOLYLINE
  5
176
100
AcDbEntity
  8
0
 62
1
100
AcDbPolyline
 90
1
 70
1
 10
21.983535
 20
355.864859
 30
0.0
  0
SPLINE
  5
177
100
AcDbEntity
  8
0
 62
1
100
AcDbSpline
 70
8
 71
3
 72
8
 73
4
 74
0
 40
0
 40
0
 40
0
 40
0
 40
1
 40
1
 40
1
 40
1
 10
30.496913
 20
358.184930
 30
0.0
 10
31.263131
 20
359.512060
 30
0.0
 10
32.753347
 20
360.246953
 30
0.0
 10
34.272674
 20
360.046930
 30
0.0
  0
SPLINE
  5
178
100
AcDbEntity
  8
0
 62
1
100
AcDbSpline
 70
8
 71
3
 72
8
 73
4
 74
0
 40
0
 40
0
 40
0
 40
0
 40
1
 40
1
 40
1
 40
1
 10
34.272674
 20
360.046930
 30
0.0
 10
35.792001
 20
359.846906
 30
0.0
 10
37.041234
 20
358.751358
 30
0.0
 10
37.437858
 20
357.271137
 30
0.0
  0
SPLINE
  5
179
100
AcDbEntity
  8
0
 62
1
100
AcDbSpline
 70
8
 71
3
 72
8
 73
4
 74
0
 40
0
 40
0
 40
0
 40
0
 40
1
 40
1
 40
1
 40
1
 10
37.437858
 20
357.271137
 30
0.0
 10
37.834482
 20
355.790917
 30
0.0
 10
37.300388
 20
354.217528
 30
0.0
 10
36.084624
 20
353.284639
 30
0.0
  0
SPLINE
  5
17a
100
AcDbEntity
  8
0
 62
1
100
AcDbSpline
 70
8
 71
3
 72
8
 73
4
 74
0
 40
0
 40
0
 40
0
 40
0
 40
1
 40
1
 40
1
 40
1
 10
36.084624
 20
353.284639
 30
0.0
 10
34.868860
 20
352.351750
 30
0.0
 10
33.210849
 20
352.243078
 30
0.0
 10
31.883719
 20
353.009297
 30
0.0
  0
SPLINE
  5
17b
100
AcDbEntity
  8
0
 62
1
100
AcDbSpline
 70
8
 71
3
 72
8
 73
4
 74
0
 40
0
 40
0
 40
0
 40
0
 40
1
 40
1
 40
1
 40
1
 10
31.883719
 20
353.009297
 30
0.0
 10
31.013486
 20
353.511727
 30
0.0
 10
30.378484
 20
354.339277
 30
0.0
 10
30.118407
 20
355.309897
 30
0.0
  0
SPLINE
  5
17c
100
AcDbEntity
  8
0
 62
1
100
AcDbSpline
 70
8
 71
3
 72
8
 73
4
 74
0
 40
0
 40
0
 40
0
 40
0
 40
1
 40
1
 40
1
 40
1
 10
30.118407
 20
355.309897
 30
0.0
 10
29.858331
 20
356.280516
 30
0.0
 10
29.994483
 20
357.314697
 30
0.0
 10
30.496913
 20
358.184930
 30
0.0
  0
LWPOLYLINE
  5
17d
100
AcDbEntity
  8
0
 62
1
100
AcDbPolyline
 90
1
 70
1
 10
49.437915
 20
391.042208
 30
0.0
  0
SPLINE
  5
17e
100
AcDbEntity
  8
0
 62
1
100
AcDbSpline
 70
8
 71
3
 72
8
 73
4
 74
0
 40
0
 40
0
 40
0
 40
0
 40
1
 40
1
 40
1
 40
1
 10
83.456809
 20
264.478582
 30
0.0
 10
84.223028
 20
265.805712
 30
0.0
 10
85.713243
 20
266.540605
 30
0.0
 10
87.232570
 20
266.340581
 30
0.0
  0
SPLINE
  5
17f
100
AcDbEntity
  8
0
 62
1
100
AcDbSpline
 70
8
 71
3
 72
8
 73
4
 74
0
 40
0
 40
0
 40
0
 40
0
 40
1
 40
1
 40
1
 40
1
 10
87.232570
 20
266.340581
 30
0.0
 10
88.751897
 20
266.140558
 30
0.0
 10
90.001130
 20
265.045010
 30
0.0
 10
90.397754
 20
263.564789
 30
0.0
  0
SPLINE
  5
180
100
AcDbEntity
  8
0
 62
1
100
AcDbSpline
 70
8
 71
3
 72
8
 73
4
 74
0
 40
0
 40
0
 40
0
 40
0
 40
1
 40
1
 40
1
 40
1
 10
90.397754
 20
263.564789
 30
0.0
 10
90.794378
 20
262.084569
 30
0.0
 10
90.260285
 20
260.511179
 30
0.0
 10
89.044520
 20
259.578291
 30
0.0
  0
SPLINE
  5
181
100
AcDbEntity
  8
0
 62
1
100
AcDbSpline
 70
8
 71
3
 72
8
 73
4
 74
0
 40
0
 40
0
 40
0
 40
0
 40
1
 40
1
 40
1
 40
1
 10
89.044520
 20
259.578291
 30
0.0
 10
87.828756
 20
258.645402
 30
0.0
 10
86.170745
 20
258.536730
 30
0.0
 10
84.843616
 20
259.302949
 30
0.0
  0
SPLINE
  5
182
100
AcDbEntity
  8
0
 62
1
100
AcDbSpline
 70
8
 71
3
 72
8
 73
4
 74
0
 40
0
 40
0
 40
0
 40
0
 40
1
 40
1
 40
1
 40
1
 10
84.843616
 20
259.302949
 30
0.0
 10
83.973382
 20
259.805378
 30
0.0
 10
83.338380
 20
260.632929
 30
0.0
 10
83.078303
 20
261.603548
 30
0.0
  0
SPLINE
  5
183
100
AcDbEntity
  8
0
 62
1
100
AcDbSpline
 70
8
 71
3
 72
8
 73
4
 74
0
 40
0
 40
0
 40
0
 40
0
 40
1
 40
1
 40
1
 40
1
 10
83.078303
 20
261.603548
 30
0.0
 10
82.818227
 20
262.574168
 30
0.0
 10
82.954379
 20
263.608348
 30
0.0
 10
83.456809
 20
264.478582
 30
0.0
  0
LWPOLYLINE
  5
184
100
AcDbEntity
  8
0
 62
1
100
AcDbPolyline
 90
1
 70
1
 10
30.496913
 20
358.184930
 30
0.0
  0
SPLINE
  5
185
100
AcDbEntity
  8
0
 62
1
100
AcDbSpline
 70
8
 71
3
 72
8
 73
4
 74
0
 40
0
 40
0
 40
0
 40
0
 40
1
 40
1
 40
1
 40
1
 10
121.502361
 20
264.387215
 30
0.0
 10
122.268580
 20
265.714344
 30
0.0
 10
123.758796
 20
266.449237
 30
0.0
 10
125.278123
 20
266.249214
 30
0.0
  0
SPLINE
  5
186
100
AcDbEntity
  8
0
 62
1
100
AcDbSpline
 70
8
 71
3
 72
8
 73
4
 74
0
 40
0
 40
0
 40
0
 40
0
 40
1
 40
1
 40
1
 40
1
 10
125.278123
 20
266.249214
 30
0.0
 10
126.797450
 20
266.049191
 30
0.0
 10
128.046683
 20
264.953643
 30
0.0
 10
128.443307
 20
263.473422
 30
0.0
  0
SPLINE
  5
187
100
AcDbEntity
  8
0
 62
1
100
AcDbSpline
 70
8
 71
3
 72
8
 73
4
 74
0
 40
0
 40
0
 40
0
 40
0
 40
1
 40
1
 40
1
 40
1
 10
128.443307
 20
263.473422
 30
0.0
 10
128.839931
 20
261.993201
 30
0.0
 10
128.305837
 20
260.419812
 30
0.0
 10
127.090073
 20
259.486923
 30
0.0
  0
SPLINE
  5
188
100
AcDbEntity
  8
0
 62
1
100
AcDbSpline
 70
8
 71
3
 72
8
 73
4
 74
0
 40
0
 40
0
 40
0
 40
0
 40
1
 40
1
 40
1
 40
1
 10
127.090073
 20
259.486923
 30
0.0
 10
125.874309
 20
258.554035
 30
0.0
 10
124.216298
 20
258.445363
 30
0.0
 10
122.889168
 20
259.211581
 30
0.0
  0
SPLINE
  5
189
100
AcDbEntity
  8
0
 62
1
100
AcDbSpline
 70
8
 71
3
 72
8
 73
4
 74
0
 40
0
 40
0
 40
0
 40
0
 40
1
 40
1
 40
1
 40
1
 10
122.889168
 20
259.211581
 30
0.0
 10
122.018935
 20
259.714011
 30
0.0
 10
121.383933
 20
260.541562
 30
0.0
 10
121.123856
 20
261.512181
 30
0.0
  0
SPLINE
  5
18a
100
AcDbEntity
  8
0
 62
1
100
AcDbSpline
 70
8
 71
3
 72
8
 73
4
 74
0
 40
0
 40
0
 40
0
 40
0
 40
1
 40
1
 40
1
 40
1
 10
121.123856
 20
261.512181
 30
0.0
 10
120.863779
 20
262.482801
 30
0.0
 10
120.999932
 20
263.516981
 30
0.0
 10
121.502361
 20
264.387215
 30
0.0
  0
LWPOLYLINE
  5
18b
100
AcDbEntity
  8
0
 62
1
100
AcDbPolyline
 90
1
 70
1
 10
83.456809
 20
264.478582
 30
0.0
  0
SPLINE
  5
18c
100
AcDbEntity
  8
0
 62
1
100
AcDbSpline
 70
8
 71
3
 72
8
 73
4
 74
0
 40
0
 40
0
 40
0
 40
0
 40
1
 40
1
 40
1
 40
1
 10
175.680926
 20
357.707418
 30
0.0
 10
176.447144
 20
359.034547
 30
0.0
 10
177.937360
 20
359.769440
 30
0.0
 10
179.456687
 20
359.569417
 30
0.0
  0
SPLINE
  5
18d
100
AcDbEntity
  8
0
 62
1
100
AcDbSpline
 70
8
 71
3
 72
8
 73
4
 74
0
 40
0
 40
0
 40
0
 40
0
 40
1
 40
1
 40
1
 40
1
 10
179.456687
 20
359.569417
 30
0.0
 10
180.976014
 20
359.369394
 30
0.0
 10
182.225247
 20
358.273846
 30
0.0
 10
182.621871
 20
356.793625
 30
0.0
  0
SPLINE
  5
18e
100
AcDbEntity
  8
0
 62
1
100
AcDbSpline
 70
8
 71
3
 72
8
 73
4
 74
0
 40
0
 40
0
 40
0
 40
0
 40
1
 40
1
 40
1
 40
1
 10
182.621871
 20
356.793625
 30
0.0
 10
183.018495
 20
355.313404
 30
0.0
 10
182.484401
 20
353.740015
 30
0.0
 10
181.268637
 20
352.807126
 30
0.0
  0
SPLINE
  5
18f
100
AcDbEntity
  8
0
 62
1
100
AcDbSpline
 70
8
 71
3
 72
8
 73
4
 74
0
 40
0
 40
0
 40
0
 40
0
 40
1
 40
1
 40
1
 40
1
 10
181.268637
 20
352.807126
 30
0.0
 10
180.052873
 20
351.874238
 30
0.0
 10
178.394862
 20
351.765566
 30
0.0
 10
177.067733
 20
352.531784
 30
0.0
  0
SPLINE
  5
190
100
AcDbEntity
  8
0
 62
1
100
AcDbSpline
 70
8
 71
3
 72
8
 73
4
 74
0
 40
0
 40
0
 40
0
 40
0
 40
1
 40
1
 40
1
 40
1
 10
177.067733
 20
352.531784
 30
0.0
 10
176.197499
 20
353.034214
 30
0.0
 10
175.562497
 20
353.861764
 30
0.0
 10
175.302420
 20
354.832384
 30
0.0
  0
SPLINE
  5
191
100
AcDbEntity
  8
0
 62
1
100
AcDbSpline
 70
8
 71
3
 72
8
 73
4
 74
0
 40
0
 40
0
 40
0
 40
0
 40
1
 40
1
 40
1
 40
1
 10
175.302420
 20
354.832384
 30
0.0
 10
175.042344
 20
355.803003
 30
0.0
 10
175.178496
 20
356.837184
 30
0.0
 10
175.680926
 20
357.707418
 30
0.0
  0
LWPOLYLINE
  5
192
100
AcDbEntity
  8
0
 62
1
100
AcDbPolyline
 90
1
 70
1
 10
121.502361
 20
264.387215
 30
0.0
  0
SPLINE
  5
193
100
AcDbEntity
  8
0
 62
1
100
AcDbSpline
 70
8
 71
3
 72
8
 73
4
 74
0
 40
0
 40
0
 40
0
 40
0
 40
1
 40
1
 40
1
 40
1
 10
156.708571
 20
390.511702
 30
0.0
 10
157.474790
 20
391.838831
 30
0.0
 10
158.965005
 20
392.573724
 30
0.0
 10
160.484332
 20
392.373701
 30
0.0
  0
SPLINE
  5
194
100
AcDbEntity
  8
0
 62
1
100
AcDbSpline
 70
8
 71
3
 72
8
 73
4
 74
0
 40
0
 40
0
 40
0
 40
0
 40
1
 40
1
 40
1
 40
1
 10
160.484332
 20
392.373701
 30
0.0
 10
162.003659
 20
392.173678
 30
0.0
 10
163.252893
 20
391.078130
 30
0.0
 10
163.649517
 20
389.597909
 30
0.0
  0
SPLINE
  5
195
100
AcDbEntity
  8
0
 62
1
100
AcDbSpline
 70
8
 71
3
 72
8
 73
4
 74
0
 40
0
 40
0
 40
0
 40
0
 40
1
 40
1
 40
1
 40
1
 10
163.649517
 20
389.597909
 30
0.0
 10
164.046141
 20
388.117688
 30
0.0
 10
163.512047
 20
386.544299
 30
0.0
 10
162.296283
 20
385.611410
 30
0.0
  0
SPLINE
  5
196
100
AcDbEntity
  8
0
 62
1
100
AcDbSpline
 70
8
 71
3
 72
8
 73
4
 74
0
 40
0
 40
0
 40
0
 40
0
 40
1
 40
1
 40
1
 40
1
 10
162.296283
 20
385.611410
 30
0.0
 10
161.080518
 20
384.678522
 30
0.0
 10
159.422508
 20
384.569850
 30
0.0
 10
158.095378
 20
385.336068
 30
0.0
  0
SPLINE
  5
197
100
AcDbEntity
  8
0
 62
1
100
AcDbSpline
 70
8
 71
3
 72
8
 73
4
 74
0
 40
0
 40
0
 40
0
 40
0
 40
1
 40
1
 40
1
 40
1
 10
158.095378
 20
385.336068
 30
0.0
 10
157.225144
 20
385.838498
 30
0.0
 10
156.590143
 20
386.666048
 30
0.0
 10
156.330066
 20
387.636668
 30
0.0
  0
SPLINE
  5
198
100
AcDbEntity
  8
0
 62
1
100
AcDbSpline
 70
8
 71
3
 72
8
 73
4
 74
0
 40
0
 40
0
 40
0
 40
0
 40
1
 40
1
 40
1
 40
1
 10
156.330066
 20
387.636668
 30
0.0
 10
156.069989
 20
388.607288
 30
0.0
 10
156.206142
 20
389.641468
 30
0.0
 10
156.708571
 20
390.511702
 30
0.0
  0
LWPOLYLINE
  5
199
100
AcDbEntity
  8
0
 62
1
100
AcDbPolyline
 90
1
 70
1
 10
175.680926
 20
357.707418
 30
0.0
  0
SPLINE
  5
19a
100
AcDbEntity
  8
0
 62
1
100
AcDbSpline
 70
8
 71
3
 72
8
 73
4
 74
0
 40
0
 40
0
 40
0
 40
0
 40
1
 40
1
 40
1
 40
1
 10
157.951130
 20
370.897212
 30
0.0
 10
176.763324
 20
344.574456
 30
0.0
 10
172.760321
 20
308.313427
 30
0.0
 10
148.659350
 20
286.728030
 30
0.0
  0
SPLINE
  5
19b
100
AcDbEntity
  8
0
 62
1
100
AcDbSpline
 70
8
 71
3
 72
8
 73
4
 74
0
 40
0
 40
0
 40
0
 40
0
 40
1
 40
1
 40
1
 40
1
 10
148.659350
 20
286.728030
 30
0.0
 10
124.558477
 20
265.142518
 30
0.0
 10
88.077159
 20
265.144672
 30
0.0
 10
63.978835
 20
286.733030
 30
0.0
  0
SPLINE
  5
19c
100
AcDbEntity
  8
0
 62
1
100
AcDbSpline
 70
8
 71
3
 72
8
 73
4
 74
0
 40
0
 40
0
 40
0
 40
0
 40
1
 40
1
 40
1
 40
1
 10
63.978835
 20
286.733030
 30
0.0
 10
39.880615
 20
308.321499
 30
0.0
 10
35.882234
 20
344.583037
 30
0.0
 10
54.697783
 20
370.903396
 30
0.0
  0
LWPOLYLINE
  5
19d
100
AcDbEntity
  8
0
 62
1
100
AcDbPolyline
 90
1
 70
1
 10
156.708571
 20
390.511702
 30
0.0
  0
LWPOLYLINE
  5
19e
100
AcDbEntity
  8
0
 62
1
100
AcDbPolyline
 90
2
 70
0
 10
54.697783
 20
370.903396
 30
0.0
 10
157.951130
 20
370.897212
 30
0.0
  0
ENDSEC
  0
SECTION
  2
OBJECTS
  0
DICTIONARY
  5
C
330
0
100
AcDbDictionary
  3
ACAD_GROUP
350
D
  3
ACAD_MLINESTYLE
350
17
  0
DICTIONARY
  5
D
330
C
100
AcDbDictionary
  0
DICTIONARY
  5
1A
330
C
100
AcDbDictionary
  0
DICTIONARY
  5
17
330
C
100
AcDbDictionary
  3
STANDARD
350
18
  0
DICTIONARY
  5
19
330
C
100
AcDbDictionary
  0
ENDSEC
  0
EOF
