G04 #@! TF.GenerationSoftware,KiCad,Pcbnew,(5.1.6)-1*
G04 #@! TF.CreationDate,2021-01-10T23:04:02+01:00*
G04 #@! TF.ProjectId,Robocup_PCB,526f626f-6375-4705-9f50-43422e6b6963,v1*
G04 #@! TF.SameCoordinates,Original*
G04 #@! TF.FileFunction,Profile,NP*
%FSLAX46Y46*%
G04 Gerber Fmt 4.6, Leading zero omitted, Abs format (unit mm)*
G04 Created by KiCad (PCBNEW (5.1.6)-1) date 2021-01-10 23:04:02*
%MOMM*%
%LPD*%
G01*
G04 APERTURE LIST*
G04 #@! TA.AperFunction,Profile*
%ADD10C,0.200000*%
G04 #@! TD*
G04 APERTURE END LIST*
D10*
X322088819Y-99963059D02*
X294026119Y-51770989D01*
X321994619Y-156376129D02*
X322088819Y-99963059D01*
X294026069Y-205135179D02*
X321994619Y-156376129D01*
X164659993Y-37459139D02*
X140621593Y-51089909D01*
X269636029Y-56968169D02*
X266388234Y-58171784D01*
X266388234Y-58171784D02*
X263138622Y-59298307D01*
X263138622Y-59298307D02*
X259887215Y-60347758D01*
X259887215Y-60347758D02*
X256634037Y-61320156D01*
X256634037Y-61320156D02*
X253379110Y-62215523D01*
X253379110Y-62215523D02*
X250122458Y-63033877D01*
X250122458Y-63033877D02*
X246864103Y-63775240D01*
X246864103Y-63775240D02*
X243604067Y-64439632D01*
X243604067Y-64439632D02*
X240342375Y-65027073D01*
X240342375Y-65027073D02*
X237079048Y-65537582D01*
X237079048Y-65537582D02*
X233814110Y-65971181D01*
X233814110Y-65971181D02*
X230547584Y-66327889D01*
X230547584Y-66327889D02*
X227279492Y-66607727D01*
X227279492Y-66607727D02*
X224009858Y-66810714D01*
X224009858Y-66810714D02*
X220738704Y-66936872D01*
X220738704Y-66936872D02*
X217466053Y-66986220D01*
X217466053Y-66986220D02*
X214191928Y-66958778D01*
X214191928Y-66958778D02*
X210916352Y-66854567D01*
X210916352Y-66854567D02*
X207639348Y-66673607D01*
X207639348Y-66673607D02*
X204360939Y-66415918D01*
X204360939Y-66415918D02*
X201081147Y-66081520D01*
X201081147Y-66081520D02*
X197799996Y-65670434D01*
X197799996Y-65670434D02*
X194517509Y-65182679D01*
X194517509Y-65182679D02*
X191233708Y-64618277D01*
X191233708Y-64618277D02*
X187948615Y-63977246D01*
X187948615Y-63977246D02*
X184662256Y-63259608D01*
X184662256Y-63259608D02*
X181374651Y-62465382D01*
X181374651Y-62465382D02*
X178085824Y-61594589D01*
X178085824Y-61594589D02*
X174795797Y-60647249D01*
X174795797Y-60647249D02*
X171504595Y-59623382D01*
X171504595Y-59623382D02*
X168212239Y-58523009D01*
X168212239Y-58523009D02*
X164918753Y-57346149D01*
X222836109Y73645187D02*
X222836109Y73645187D01*
X273882035Y-64756787D02*
X287658239Y-56788191D01*
X148804236Y-197925999D02*
X149015332Y-197784690D01*
X149015332Y-197784690D02*
X149203506Y-197618993D01*
X149203506Y-197618993D02*
X149367148Y-197431696D01*
X149367148Y-197431696D02*
X149504646Y-197225587D01*
X149504646Y-197225587D02*
X149614392Y-197003455D01*
X149614392Y-197003455D02*
X149694776Y-196768089D01*
X149694776Y-196768089D02*
X149744186Y-196522277D01*
X149744186Y-196522277D02*
X149761015Y-196268809D01*
X146890678Y-197925999D02*
X147118602Y-198038160D01*
X147118602Y-198038160D02*
X147356187Y-198118275D01*
X147356187Y-198118275D02*
X147600212Y-198166344D01*
X147600212Y-198166344D02*
X147847457Y-198182367D01*
X147847457Y-198182367D02*
X148094701Y-198166344D01*
X148094701Y-198166344D02*
X148338726Y-198118275D01*
X148338726Y-198118275D02*
X148576311Y-198038160D01*
X148576311Y-198038160D02*
X148804236Y-197925999D01*
X209220023Y-139325772D02*
X209220023Y-131399449D01*
X225146346Y-139325772D02*
X209220023Y-139325772D01*
X268441377Y-63203209D02*
X268424548Y-63456677D01*
X268424548Y-63456677D02*
X268375138Y-63702489D01*
X268375138Y-63702489D02*
X268294754Y-63937855D01*
X268294754Y-63937855D02*
X268185008Y-64159987D01*
X268185008Y-64159987D02*
X268047510Y-64366096D01*
X268047510Y-64366096D02*
X267883868Y-64553393D01*
X267883868Y-64553393D02*
X267695694Y-64719090D01*
X267695694Y-64719090D02*
X267484598Y-64860399D01*
X314224277Y-152212139D02*
X314224277Y-152212139D01*
X287956098Y-194285778D02*
X288141029Y-194405610D01*
X288141029Y-194405610D02*
X288311356Y-194541767D01*
X288311356Y-194541767D02*
X288466296Y-194692887D01*
X288466296Y-194692887D02*
X288605066Y-194857608D01*
X288605066Y-194857608D02*
X288726882Y-195034571D01*
X288726882Y-195034571D02*
X288830962Y-195222415D01*
X288830962Y-195222415D02*
X288916523Y-195419777D01*
X288916523Y-195419777D02*
X288982781Y-195625298D01*
X288982781Y-195625298D02*
X289028953Y-195837616D01*
X289028953Y-195837616D02*
X289054257Y-196055371D01*
X289054257Y-196055371D02*
X289059146Y-196202889D01*
X225146346Y-131399449D02*
X225146346Y-139325772D01*
X209220023Y-131399449D02*
X225146346Y-131399449D01*
X268441377Y-63203209D02*
X268441377Y-63203209D01*
X289059146Y-196202889D02*
X289059146Y-196202889D01*
X267484598Y-61546019D02*
X267695694Y-61687327D01*
X267695694Y-61687327D02*
X267883868Y-61853024D01*
X267883868Y-61853024D02*
X268047510Y-62040321D01*
X268047510Y-62040321D02*
X268185008Y-62246430D01*
X268185008Y-62246430D02*
X268294754Y-62468562D01*
X268294754Y-62468562D02*
X268375138Y-62703928D01*
X268375138Y-62703928D02*
X268424548Y-62949740D01*
X268424548Y-62949740D02*
X268441377Y-63203209D01*
X265571040Y-61546019D02*
X265798964Y-61433858D01*
X265798964Y-61433858D02*
X266036549Y-61353743D01*
X266036549Y-61353743D02*
X266280574Y-61305674D01*
X266280574Y-61305674D02*
X266527819Y-61289651D01*
X266527819Y-61289651D02*
X266775063Y-61305674D01*
X266775063Y-61305674D02*
X267019088Y-61353743D01*
X267019088Y-61353743D02*
X267256673Y-61433858D01*
X267256673Y-61433858D02*
X267484598Y-61546019D01*
X222836109Y73645187D02*
X222836109Y73645187D01*
X313267498Y-150554949D02*
X313039573Y-150442788D01*
X313039573Y-150442788D02*
X312801988Y-150362673D01*
X312801988Y-150362673D02*
X312557963Y-150314604D01*
X312557963Y-150314604D02*
X312310719Y-150298581D01*
X312310719Y-150298581D02*
X312063474Y-150314604D01*
X312063474Y-150314604D02*
X311819449Y-150362673D01*
X311819449Y-150362673D02*
X311581864Y-150442788D01*
X311581864Y-150442788D02*
X311353940Y-150554949D01*
X314224277Y-152212139D02*
X314207448Y-151958670D01*
X314207448Y-151958670D02*
X314158038Y-151712858D01*
X314158038Y-151712858D02*
X314077654Y-151477492D01*
X314077654Y-151477492D02*
X313967908Y-151255360D01*
X313967908Y-151255360D02*
X313830410Y-151049251D01*
X313830410Y-151049251D02*
X313666768Y-150861954D01*
X313666768Y-150861954D02*
X313478594Y-150696257D01*
X313478594Y-150696257D02*
X313267498Y-150554949D01*
X124255946Y-152108189D02*
X124255946Y-152108189D01*
X264614261Y-63203209D02*
X264631089Y-62949740D01*
X264631089Y-62949740D02*
X264680499Y-62703928D01*
X264680499Y-62703928D02*
X264760883Y-62468562D01*
X264760883Y-62468562D02*
X264870629Y-62246430D01*
X264870629Y-62246430D02*
X265008127Y-62040321D01*
X265008127Y-62040321D02*
X265171769Y-61853024D01*
X265171769Y-61853024D02*
X265359943Y-61687327D01*
X265359943Y-61687327D02*
X265571040Y-61546019D01*
X265571040Y-64860399D02*
X265359943Y-64719090D01*
X265359943Y-64719090D02*
X265171769Y-64553393D01*
X265171769Y-64553393D02*
X265008127Y-64366096D01*
X265008127Y-64366096D02*
X264870629Y-64159987D01*
X264870629Y-64159987D02*
X264760883Y-63937855D01*
X264760883Y-63937855D02*
X264680499Y-63702489D01*
X264680499Y-63702489D02*
X264631089Y-63456677D01*
X264631089Y-63456677D02*
X264614261Y-63203209D01*
X267484598Y-64860399D02*
X267256673Y-64972560D01*
X267256673Y-64972560D02*
X267019088Y-65052675D01*
X267019088Y-65052675D02*
X266775063Y-65100744D01*
X266775063Y-65100744D02*
X266527819Y-65116767D01*
X266527819Y-65116767D02*
X266280574Y-65100744D01*
X266280574Y-65100744D02*
X266036549Y-65052675D01*
X266036549Y-65052675D02*
X265798964Y-64972560D01*
X265798964Y-64972560D02*
X265571040Y-64860399D01*
X245434239Y-233483459D02*
X294026069Y-205135179D01*
X188932113Y-233294469D02*
X245434239Y-233483459D01*
X140246103Y-205135179D02*
X188932113Y-233294469D01*
X121385609Y-153765379D02*
X121174512Y-153624070D01*
X121174512Y-153624070D02*
X120986338Y-153458373D01*
X120986338Y-153458373D02*
X120822696Y-153271076D01*
X120822696Y-153271076D02*
X120685198Y-153064967D01*
X120685198Y-153064967D02*
X120575452Y-152842835D01*
X120575452Y-152842835D02*
X120495068Y-152607469D01*
X120495068Y-152607469D02*
X120445658Y-152361657D01*
X120445658Y-152361657D02*
X120428830Y-152108189D01*
X123299167Y-153765379D02*
X123071242Y-153877540D01*
X123071242Y-153877540D02*
X122833657Y-153957655D01*
X122833657Y-153957655D02*
X122589632Y-154005724D01*
X122589632Y-154005724D02*
X122342388Y-154021747D01*
X122342388Y-154021747D02*
X122095143Y-154005724D01*
X122095143Y-154005724D02*
X121851118Y-153957655D01*
X121851118Y-153957655D02*
X121613533Y-153877540D01*
X121613533Y-153877540D02*
X121385609Y-153765379D01*
X124255946Y-152108189D02*
X124239117Y-152361657D01*
X124239117Y-152361657D02*
X124189707Y-152607469D01*
X124189707Y-152607469D02*
X124109323Y-152842835D01*
X124109323Y-152842835D02*
X123999577Y-153064967D01*
X123999577Y-153064967D02*
X123862079Y-153271076D01*
X123862079Y-153271076D02*
X123698437Y-153458373D01*
X123698437Y-153458373D02*
X123510263Y-153624070D01*
X123510263Y-153624070D02*
X123299167Y-153765379D01*
X112277552Y-156376129D02*
X140246103Y-205135179D01*
X287956098Y-198120000D02*
X287760210Y-198220790D01*
X287760210Y-198220790D02*
X287557535Y-198300727D01*
X287557535Y-198300727D02*
X287349641Y-198359810D01*
X287349641Y-198359810D02*
X287138091Y-198398041D01*
X287138091Y-198398041D02*
X286924454Y-198415419D01*
X286924454Y-198415419D02*
X286710295Y-198411943D01*
X286710295Y-198411943D02*
X286497180Y-198387615D01*
X286497180Y-198387615D02*
X286286675Y-198342433D01*
X286286675Y-198342433D02*
X286080346Y-198276398D01*
X286080346Y-198276398D02*
X285879760Y-198189510D01*
X285879760Y-198189510D02*
X285750000Y-198120000D01*
X289059146Y-196202889D02*
X289048189Y-196423511D01*
X289048189Y-196423511D02*
X289015842Y-196639605D01*
X289015842Y-196639605D02*
X288962888Y-196849808D01*
X288962888Y-196849808D02*
X288890108Y-197052761D01*
X288890108Y-197052761D02*
X288798288Y-197247102D01*
X288798288Y-197247102D02*
X288688209Y-197431469D01*
X288688209Y-197431469D02*
X288560654Y-197604503D01*
X288560654Y-197604503D02*
X288416408Y-197764842D01*
X288416408Y-197764842D02*
X288256251Y-197911126D01*
X288256251Y-197911126D02*
X288080969Y-198041992D01*
X288080969Y-198041992D02*
X287956098Y-198120000D01*
X170017191Y-63203209D02*
X170017191Y-63203209D01*
X312310719Y-154125697D02*
X312602135Y-154103648D01*
X312602135Y-154103648D02*
X312879752Y-154039667D01*
X312879752Y-154039667D02*
X313140325Y-153936999D01*
X313140325Y-153936999D02*
X313380607Y-153798891D01*
X313380607Y-153798891D02*
X313597352Y-153628589D01*
X313597352Y-153628589D02*
X313787313Y-153429339D01*
X313787313Y-153429339D02*
X313947244Y-153204388D01*
X313947244Y-153204388D02*
X314073900Y-152956982D01*
X314073900Y-152956982D02*
X314164033Y-152690366D01*
X314164033Y-152690366D02*
X314214397Y-152407789D01*
X314214397Y-152407789D02*
X314224277Y-152212139D01*
X310397161Y-152212139D02*
X310419209Y-152503555D01*
X310419209Y-152503555D02*
X310483190Y-152781172D01*
X310483190Y-152781172D02*
X310585858Y-153041745D01*
X310585858Y-153041745D02*
X310723966Y-153282027D01*
X310723966Y-153282027D02*
X310894268Y-153498772D01*
X310894268Y-153498772D02*
X311093518Y-153688733D01*
X311093518Y-153688733D02*
X311318469Y-153848664D01*
X311318469Y-153848664D02*
X311565875Y-153975320D01*
X311565875Y-153975320D02*
X311832491Y-154065453D01*
X311832491Y-154065453D02*
X312115068Y-154115817D01*
X312115068Y-154115817D02*
X312310719Y-154125697D01*
X311353940Y-150554949D02*
X311142843Y-150696257D01*
X311142843Y-150696257D02*
X310954669Y-150861954D01*
X310954669Y-150861954D02*
X310791027Y-151049251D01*
X310791027Y-151049251D02*
X310653529Y-151255360D01*
X310653529Y-151255360D02*
X310543783Y-151477492D01*
X310543783Y-151477492D02*
X310463399Y-151712858D01*
X310463399Y-151712858D02*
X310413989Y-151958670D01*
X310413989Y-151958670D02*
X310397161Y-152212139D01*
X140621593Y-51089909D02*
X112371752Y-100246539D01*
X222836109Y73645187D02*
X222836109Y73645187D01*
X298645643Y-107863552D02*
X273882035Y-64756787D01*
X312421847Y-99894956D02*
X298645643Y-107863552D01*
X287658239Y-56788191D02*
X312421847Y-99894956D01*
X222836109Y73645187D02*
X222836109Y73645187D01*
X149761015Y-196268809D02*
X149744186Y-196015340D01*
X149744186Y-196015340D02*
X149694776Y-195769528D01*
X149694776Y-195769528D02*
X149614392Y-195534162D01*
X149614392Y-195534162D02*
X149504646Y-195312030D01*
X149504646Y-195312030D02*
X149367148Y-195105921D01*
X149367148Y-195105921D02*
X149203506Y-194918624D01*
X149203506Y-194918624D02*
X149015332Y-194752927D01*
X149015332Y-194752927D02*
X148804236Y-194611619D01*
X192379021Y-206569397D02*
X241964323Y-206500138D01*
X192401155Y-222525279D02*
X192379021Y-206569397D01*
X135659281Y-108110040D02*
X121877401Y-100151333D01*
X160392158Y-64985511D02*
X135659281Y-108110040D01*
X146610277Y-57026804D02*
X160392158Y-64985511D01*
X222836109Y73645187D02*
X222836109Y73645187D01*
X241986457Y-222456020D02*
X192401155Y-222525279D01*
X241964323Y-206500138D02*
X241986457Y-222456020D01*
X121877401Y-100151333D02*
X146610277Y-57026804D01*
X145933899Y-196268809D02*
X145950727Y-196522277D01*
X145950727Y-196522277D02*
X146000137Y-196768089D01*
X146000137Y-196768089D02*
X146080521Y-197003455D01*
X146080521Y-197003455D02*
X146190267Y-197225587D01*
X146190267Y-197225587D02*
X146327765Y-197431696D01*
X146327765Y-197431696D02*
X146491407Y-197618993D01*
X146491407Y-197618993D02*
X146679581Y-197784690D01*
X146679581Y-197784690D02*
X146890678Y-197925999D01*
X146890678Y-194611619D02*
X146679581Y-194752927D01*
X146679581Y-194752927D02*
X146491407Y-194918624D01*
X146491407Y-194918624D02*
X146327765Y-195105921D01*
X146327765Y-195105921D02*
X146190267Y-195312030D01*
X146190267Y-195312030D02*
X146080521Y-195534162D01*
X146080521Y-195534162D02*
X146000137Y-195769528D01*
X146000137Y-195769528D02*
X145950727Y-196015340D01*
X145950727Y-196015340D02*
X145933899Y-196268809D01*
X148804236Y-194611619D02*
X148576311Y-194499458D01*
X148576311Y-194499458D02*
X148338726Y-194419343D01*
X148338726Y-194419343D02*
X148094701Y-194371274D01*
X148094701Y-194371274D02*
X147847457Y-194355251D01*
X147847457Y-194355251D02*
X147600212Y-194371274D01*
X147600212Y-194371274D02*
X147356187Y-194419343D01*
X147356187Y-194419343D02*
X147118602Y-194499458D01*
X147118602Y-194499458D02*
X146890678Y-194611619D01*
X149761015Y-196268809D02*
X149761015Y-196268809D01*
X122342388Y-150194631D02*
X122633804Y-150216679D01*
X122633804Y-150216679D02*
X122911421Y-150280660D01*
X122911421Y-150280660D02*
X123171994Y-150383328D01*
X123171994Y-150383328D02*
X123412276Y-150521436D01*
X123412276Y-150521436D02*
X123629021Y-150691738D01*
X123629021Y-150691738D02*
X123818982Y-150890988D01*
X123818982Y-150890988D02*
X123978913Y-151115939D01*
X123978913Y-151115939D02*
X124105569Y-151363345D01*
X124105569Y-151363345D02*
X124195702Y-151629961D01*
X124195702Y-151629961D02*
X124246066Y-151912538D01*
X124246066Y-151912538D02*
X124255946Y-152108189D01*
X120428830Y-152108189D02*
X120450878Y-151816772D01*
X120450878Y-151816772D02*
X120514859Y-151539155D01*
X120514859Y-151539155D02*
X120617527Y-151278582D01*
X120617527Y-151278582D02*
X120755635Y-151038300D01*
X120755635Y-151038300D02*
X120925937Y-150821555D01*
X120925937Y-150821555D02*
X121125187Y-150631594D01*
X121125187Y-150631594D02*
X121350138Y-150471663D01*
X121350138Y-150471663D02*
X121597544Y-150345007D01*
X121597544Y-150345007D02*
X121864160Y-150254874D01*
X121864160Y-150254874D02*
X122146737Y-150204510D01*
X122146737Y-150204510D02*
X122342388Y-150194631D01*
X167146854Y-64860399D02*
X166935757Y-64719090D01*
X166935757Y-64719090D02*
X166747583Y-64553393D01*
X166747583Y-64553393D02*
X166583941Y-64366096D01*
X166583941Y-64366096D02*
X166446443Y-64159987D01*
X166446443Y-64159987D02*
X166336697Y-63937855D01*
X166336697Y-63937855D02*
X166256313Y-63702489D01*
X166256313Y-63702489D02*
X166206903Y-63456677D01*
X166206903Y-63456677D02*
X166190075Y-63203209D01*
X169060412Y-64860399D02*
X168832487Y-64972560D01*
X168832487Y-64972560D02*
X168594902Y-65052675D01*
X168594902Y-65052675D02*
X168350877Y-65100744D01*
X168350877Y-65100744D02*
X168103633Y-65116767D01*
X168103633Y-65116767D02*
X167856388Y-65100744D01*
X167856388Y-65100744D02*
X167612363Y-65052675D01*
X167612363Y-65052675D02*
X167374778Y-64972560D01*
X167374778Y-64972560D02*
X167146854Y-64860399D01*
X170017191Y-63203209D02*
X170000362Y-63456677D01*
X170000362Y-63456677D02*
X169950952Y-63702489D01*
X169950952Y-63702489D02*
X169870568Y-63937855D01*
X169870568Y-63937855D02*
X169760822Y-64159987D01*
X169760822Y-64159987D02*
X169623324Y-64366096D01*
X169623324Y-64366096D02*
X169459682Y-64553393D01*
X169459682Y-64553393D02*
X169271508Y-64719090D01*
X169271508Y-64719090D02*
X169060412Y-64860399D01*
X222836109Y73645187D02*
X222836109Y73645187D01*
X169060412Y-61546019D02*
X169271508Y-61687327D01*
X169271508Y-61687327D02*
X169459682Y-61853024D01*
X169459682Y-61853024D02*
X169623324Y-62040321D01*
X169623324Y-62040321D02*
X169760822Y-62246430D01*
X169760822Y-62246430D02*
X169870568Y-62468562D01*
X169870568Y-62468562D02*
X169950952Y-62703928D01*
X169950952Y-62703928D02*
X170000362Y-62949740D01*
X170000362Y-62949740D02*
X170017191Y-63203209D01*
X167146854Y-61546019D02*
X167374778Y-61433858D01*
X167374778Y-61433858D02*
X167612363Y-61353743D01*
X167612363Y-61353743D02*
X167856388Y-61305674D01*
X167856388Y-61305674D02*
X168103633Y-61289651D01*
X168103633Y-61289651D02*
X168350877Y-61305674D01*
X168350877Y-61305674D02*
X168594902Y-61353743D01*
X168594902Y-61353743D02*
X168832487Y-61433858D01*
X168832487Y-61433858D02*
X169060412Y-61546019D01*
X166190075Y-63203209D02*
X166206903Y-62949740D01*
X166206903Y-62949740D02*
X166256313Y-62703928D01*
X166256313Y-62703928D02*
X166336697Y-62468562D01*
X166336697Y-62468562D02*
X166446443Y-62246430D01*
X166446443Y-62246430D02*
X166583941Y-62040321D01*
X166583941Y-62040321D02*
X166747583Y-61853024D01*
X166747583Y-61853024D02*
X166935757Y-61687327D01*
X166935757Y-61687327D02*
X167146854Y-61546019D01*
X164918753Y-57346149D02*
X164659993Y-37459139D01*
X269447699Y-37313359D02*
X269636029Y-56968169D01*
X294026119Y-51770989D02*
X269447699Y-37313359D01*
X112371752Y-100246539D02*
X112277552Y-156376129D01*
X285750000Y-194285778D02*
X285945887Y-194184987D01*
X285945887Y-194184987D02*
X286148562Y-194105050D01*
X286148562Y-194105050D02*
X286356456Y-194045967D01*
X286356456Y-194045967D02*
X286568006Y-194007736D01*
X286568006Y-194007736D02*
X286781643Y-193990358D01*
X286781643Y-193990358D02*
X286995802Y-193993834D01*
X286995802Y-193993834D02*
X287208917Y-194018162D01*
X287208917Y-194018162D02*
X287419422Y-194063344D01*
X287419422Y-194063344D02*
X287625751Y-194129379D01*
X287625751Y-194129379D02*
X287826337Y-194216267D01*
X287826337Y-194216267D02*
X287956098Y-194285778D01*
X284646952Y-196202889D02*
X284657908Y-195982266D01*
X284657908Y-195982266D02*
X284690255Y-195766172D01*
X284690255Y-195766172D02*
X284743209Y-195555969D01*
X284743209Y-195555969D02*
X284815989Y-195353016D01*
X284815989Y-195353016D02*
X284907809Y-195158675D01*
X284907809Y-195158675D02*
X285017888Y-194974308D01*
X285017888Y-194974308D02*
X285145443Y-194801274D01*
X285145443Y-194801274D02*
X285289689Y-194640935D01*
X285289689Y-194640935D02*
X285449846Y-194494651D01*
X285449846Y-194494651D02*
X285625128Y-194363785D01*
X285625128Y-194363785D02*
X285750000Y-194285778D01*
X285750000Y-198120000D02*
X285565068Y-198000167D01*
X285565068Y-198000167D02*
X285394741Y-197864010D01*
X285394741Y-197864010D02*
X285239801Y-197712890D01*
X285239801Y-197712890D02*
X285101031Y-197548169D01*
X285101031Y-197548169D02*
X284979215Y-197371206D01*
X284979215Y-197371206D02*
X284875135Y-197183362D01*
X284875135Y-197183362D02*
X284789574Y-196986000D01*
X284789574Y-196986000D02*
X284723316Y-196780479D01*
X284723316Y-196780479D02*
X284677144Y-196568161D01*
X284677144Y-196568161D02*
X284651840Y-196350406D01*
X284651840Y-196350406D02*
X284646952Y-196202889D01*
M02*
