G04 #@! TF.GenerationSoftware,KiCad,Pcbnew,5.1.5+dfsg1-2build2*
G04 #@! TF.CreationDate,2022-01-24T10:52:29+01:00*
G04 #@! TF.ProjectId,Robocup_PCB,526f626f-6375-4705-9f50-43422e6b6963,v1*
G04 #@! TF.SameCoordinates,Original*
G04 #@! TF.FileFunction,Profile,NP*
%FSLAX46Y46*%
G04 Gerber Fmt 4.6, Leading zero omitted, Abs format (unit mm)*
G04 Created by KiCad (PCBNEW 5.1.5+dfsg1-2build2) date 2022-01-24 10:52:29*
%MOMM*%
%LPD*%
G04 APERTURE LIST*
%ADD10C,0.200000*%
G04 APERTURE END LIST*
D10*
X322088819Y-99963059D02*
X294026119Y-51770989D01*
X321994619Y-156376129D02*
X322088819Y-99963059D01*
X294026069Y-205135179D02*
X321994619Y-156376129D01*
X164659993Y-37459139D02*
X140621593Y-51089909D01*
X269636029Y-56968169D02*
X269471143Y-57031146D01*
X269471143Y-57031146D02*
X269293571Y-57098748D01*
X269293571Y-57098748D02*
X269141363Y-57156508D01*
X269141363Y-57156508D02*
X268887672Y-57252399D01*
X268887672Y-57252399D02*
X268735453Y-57309708D01*
X268735453Y-57309708D02*
X268583230Y-57366847D01*
X268583230Y-57366847D02*
X268431004Y-57423818D01*
X268431004Y-57423818D02*
X268101163Y-57546672D01*
X268101163Y-57546672D02*
X267948924Y-57603105D01*
X267948924Y-57603105D02*
X267796678Y-57659369D01*
X267796678Y-57659369D02*
X267619056Y-57724798D01*
X267619056Y-57724798D02*
X267390674Y-57808579D01*
X267390674Y-57808579D02*
X267238415Y-57864222D01*
X267238415Y-57864222D02*
X267060773Y-57928923D01*
X267060773Y-57928923D02*
X266908506Y-57984201D01*
X266908506Y-57984201D02*
X266756236Y-58039307D01*
X266756236Y-58039307D02*
X266603960Y-58094244D01*
X266603960Y-58094244D02*
X266426303Y-58158123D01*
X266426303Y-58158123D02*
X266274016Y-58212693D01*
X266274016Y-58212693D02*
X266121727Y-58267093D01*
X266121727Y-58267093D02*
X265969437Y-58321325D01*
X265969437Y-58321325D02*
X265791757Y-58384380D01*
X265791757Y-58384380D02*
X265614072Y-58447206D01*
X265614072Y-58447206D02*
X265461767Y-58500872D01*
X265461767Y-58500872D02*
X265309456Y-58554369D01*
X265309456Y-58554369D02*
X265131758Y-58616570D01*
X265131758Y-58616570D02*
X264979441Y-58669699D01*
X264979441Y-58669699D02*
X264827118Y-58722661D01*
X264827118Y-58722661D02*
X264674792Y-58775453D01*
X264674792Y-58775453D02*
X264522462Y-58828074D01*
X264522462Y-58828074D02*
X264344740Y-58889254D01*
X264344740Y-58889254D02*
X264116229Y-58967573D01*
X264116229Y-58967573D02*
X263963886Y-59019575D01*
X263963886Y-59019575D02*
X263786145Y-59080027D01*
X263786145Y-59080027D02*
X263608400Y-59140252D01*
X263608400Y-59140252D02*
X263329075Y-59234423D01*
X263329075Y-59234423D02*
X263151317Y-59294056D01*
X263151317Y-59294056D02*
X262998945Y-59344983D01*
X262998945Y-59344983D02*
X262846572Y-59395742D01*
X262846572Y-59395742D02*
X262516417Y-59505139D01*
X262516417Y-59505139D02*
X262364030Y-59555362D01*
X262364030Y-59555362D02*
X262211639Y-59605416D01*
X262211639Y-59605416D02*
X262033847Y-59663597D01*
X262033847Y-59663597D02*
X261881449Y-59713284D01*
X261881449Y-59713284D02*
X261703646Y-59771039D01*
X261703646Y-59771039D02*
X261551240Y-59820359D01*
X261551240Y-59820359D02*
X261398828Y-59869509D01*
X261398828Y-59869509D02*
X261246412Y-59918489D01*
X261246412Y-59918489D02*
X261093996Y-59967302D01*
X261093996Y-59967302D02*
X260941573Y-60015944D01*
X260941573Y-60015944D02*
X260738337Y-60080538D01*
X260738337Y-60080538D02*
X260585904Y-60128786D01*
X260585904Y-60128786D02*
X260433467Y-60176864D01*
X260433467Y-60176864D02*
X260230215Y-60240705D01*
X260230215Y-60240705D02*
X260026955Y-60304245D01*
X260026955Y-60304245D02*
X259823688Y-60367484D01*
X259823688Y-60367484D02*
X259645824Y-60422571D01*
X259645824Y-60422571D02*
X259467954Y-60477429D01*
X259467954Y-60477429D02*
X259239257Y-60547620D01*
X259239257Y-60547620D02*
X259010550Y-60617430D01*
X259010550Y-60617430D02*
X258832662Y-60671464D01*
X258832662Y-60671464D02*
X258527697Y-60763557D01*
X258527697Y-60763557D02*
X258349795Y-60816966D01*
X258349795Y-60816966D02*
X258121056Y-60885295D01*
X258121056Y-60885295D02*
X257943139Y-60938177D01*
X257943139Y-60938177D02*
X257638130Y-61028296D01*
X257638130Y-61028296D02*
X257460202Y-61080553D01*
X257460202Y-61080553D02*
X257256848Y-61139991D01*
X257256848Y-61139991D02*
X257053487Y-61199131D01*
X257053487Y-61199131D02*
X256850118Y-61257968D01*
X256850118Y-61257968D02*
X256672167Y-61309205D01*
X256672167Y-61309205D02*
X256494208Y-61360209D01*
X256494208Y-61360209D02*
X256265398Y-61425450D01*
X256265398Y-61425450D02*
X256087427Y-61475929D01*
X256087427Y-61475929D02*
X255858603Y-61540492D01*
X255858603Y-61540492D02*
X255655194Y-61597561D01*
X255655194Y-61597561D02*
X255400926Y-61668477D01*
X255400926Y-61668477D02*
X255222930Y-61717836D01*
X255222930Y-61717836D02*
X254994072Y-61780962D01*
X254994072Y-61780962D02*
X254816064Y-61829795D01*
X254816064Y-61829795D02*
X254536328Y-61906067D01*
X254536328Y-61906067D02*
X254358307Y-61954308D01*
X254358307Y-61954308D02*
X254180285Y-62002321D01*
X254180285Y-62002321D02*
X253951386Y-62063710D01*
X253951386Y-62063710D02*
X253773349Y-62111195D01*
X253773349Y-62111195D02*
X253544436Y-62171907D01*
X253544436Y-62171907D02*
X253315515Y-62232241D01*
X253315515Y-62232241D02*
X253137460Y-62278901D01*
X253137460Y-62278901D02*
X252832208Y-62358357D01*
X252832208Y-62358357D02*
X252654141Y-62404394D01*
X252654141Y-62404394D02*
X252425187Y-62463246D01*
X252425187Y-62463246D02*
X252196224Y-62521717D01*
X252196224Y-62521717D02*
X252018135Y-62566931D01*
X252018135Y-62566931D02*
X251840042Y-62611917D01*
X251840042Y-62611917D02*
X251611057Y-62669414D01*
X251611057Y-62669414D02*
X251432952Y-62713871D01*
X251432952Y-62713871D02*
X251229397Y-62764398D01*
X251229397Y-62764398D02*
X251051281Y-62808363D01*
X251051281Y-62808363D02*
X250796822Y-62870770D01*
X250796822Y-62870770D02*
X250516905Y-62938875D01*
X250516905Y-62938875D02*
X250338768Y-62981918D01*
X250338768Y-62981918D02*
X250160627Y-63024731D01*
X250160627Y-63024731D02*
X249931581Y-63079437D01*
X249931581Y-63079437D02*
X249753428Y-63121724D01*
X249753428Y-63121724D02*
X249549817Y-63169769D01*
X249549817Y-63169769D02*
X249295297Y-63229405D01*
X249295297Y-63229405D02*
X249117126Y-63270867D01*
X249117126Y-63270867D02*
X248888042Y-63323841D01*
X248888042Y-63323841D02*
X248633492Y-63382252D01*
X248633492Y-63382252D02*
X248429847Y-63428644D01*
X248429847Y-63428644D02*
X248149822Y-63491940D01*
X248149822Y-63491940D02*
X247920703Y-63543306D01*
X247920703Y-63543306D02*
X247742492Y-63582995D01*
X247742492Y-63582995D02*
X247513356Y-63633684D01*
X247513356Y-63633684D02*
X247335135Y-63672845D01*
X247335135Y-63672845D02*
X247105986Y-63722858D01*
X247105986Y-63722858D02*
X246927753Y-63761495D01*
X246927753Y-63761495D02*
X246724052Y-63805368D01*
X246724052Y-63805368D02*
X246545808Y-63843509D01*
X246545808Y-63843509D02*
X246316628Y-63892211D01*
X246316628Y-63892211D02*
X246138373Y-63929828D01*
X246138373Y-63929828D02*
X245909181Y-63977854D01*
X245909181Y-63977854D02*
X245730915Y-64014944D01*
X245730915Y-64014944D02*
X245501706Y-64062293D01*
X245501706Y-64062293D02*
X245323430Y-64098858D01*
X245323430Y-64098858D02*
X245094207Y-64145529D01*
X245094207Y-64145529D02*
X244864977Y-64191822D01*
X244864977Y-64191822D02*
X244686679Y-64227564D01*
X244686679Y-64227564D02*
X244508380Y-64263076D01*
X244508380Y-64263076D02*
X244304602Y-64303379D01*
X244304602Y-64303379D02*
X244126289Y-64338398D01*
X244126289Y-64338398D02*
X243897025Y-64383084D01*
X243897025Y-64383084D02*
X243718702Y-64417577D01*
X243718702Y-64417577D02*
X243514901Y-64456715D01*
X243514901Y-64456715D02*
X243336565Y-64490714D01*
X243336565Y-64490714D02*
X243158227Y-64524483D01*
X243158227Y-64524483D02*
X242979883Y-64558022D01*
X242979883Y-64558022D02*
X242750576Y-64600806D01*
X242750576Y-64600806D02*
X242521261Y-64643208D01*
X242521261Y-64643208D02*
X242291938Y-64685232D01*
X242291938Y-64685232D02*
X242113571Y-64717652D01*
X242113571Y-64717652D02*
X241935200Y-64749845D01*
X241935200Y-64749845D02*
X241629405Y-64804494D01*
X241629405Y-64804494D02*
X241451020Y-64836061D01*
X241451020Y-64836061D02*
X241221660Y-64876309D01*
X241221660Y-64876309D02*
X241043263Y-64907349D01*
X241043263Y-64907349D02*
X240813888Y-64946921D01*
X240813888Y-64946921D02*
X240635480Y-64977435D01*
X240635480Y-64977435D02*
X240406092Y-65016332D01*
X240406092Y-65016332D02*
X240100226Y-65067599D01*
X240100226Y-65067599D02*
X239921799Y-65097195D01*
X239921799Y-65097195D02*
X239692384Y-65134906D01*
X239692384Y-65134906D02*
X239513946Y-65163977D01*
X239513946Y-65163977D02*
X239208038Y-65213273D01*
X239208038Y-65213273D02*
X238953104Y-65253837D01*
X238953104Y-65253837D02*
X238774647Y-65281953D01*
X238774647Y-65281953D02*
X238545191Y-65317763D01*
X238545191Y-65317763D02*
X238315729Y-65353194D01*
X238315729Y-65353194D02*
X238137252Y-65380487D01*
X238137252Y-65380487D02*
X237958771Y-65407552D01*
X237958771Y-65407552D02*
X237754786Y-65438200D01*
X237754786Y-65438200D02*
X237576295Y-65464771D01*
X237576295Y-65464771D02*
X237244798Y-65513507D01*
X237244798Y-65513507D02*
X237015292Y-65546784D01*
X237015292Y-65546784D02*
X236836779Y-65572402D01*
X236836779Y-65572402D02*
X236607258Y-65605001D01*
X236607258Y-65605001D02*
X236428734Y-65630093D01*
X236428734Y-65630093D02*
X236046170Y-65683088D01*
X236046170Y-65683088D02*
X235867632Y-65707458D01*
X235867632Y-65707458D02*
X235638076Y-65738451D01*
X235638076Y-65738451D02*
X235459530Y-65762297D01*
X235459530Y-65762297D02*
X235229959Y-65792615D01*
X235229959Y-65792615D02*
X235000379Y-65822552D01*
X235000379Y-65822552D02*
X234821814Y-65845575D01*
X234821814Y-65845575D02*
X234643245Y-65868368D01*
X234643245Y-65868368D02*
X234439158Y-65894133D01*
X234439158Y-65894133D02*
X234260577Y-65916432D01*
X234260577Y-65916432D02*
X234081992Y-65938502D01*
X234081992Y-65938502D02*
X233903402Y-65960343D01*
X233903402Y-65960343D02*
X233699293Y-65985022D01*
X233699293Y-65985022D02*
X233444147Y-66015446D01*
X233444147Y-66015446D02*
X233214510Y-66042428D01*
X233214510Y-66042428D02*
X232984865Y-66069030D01*
X232984865Y-66069030D02*
X232780727Y-66092354D01*
X232780727Y-66092354D02*
X232551065Y-66118238D01*
X232551065Y-66118238D02*
X232295877Y-66146553D01*
X232295877Y-66146553D02*
X232091720Y-66168866D01*
X232091720Y-66168866D02*
X231810993Y-66199056D01*
X231810993Y-66199056D02*
X231581298Y-66223335D01*
X231581298Y-66223335D02*
X231351599Y-66247235D01*
X231351599Y-66247235D02*
X231096365Y-66273340D01*
X231096365Y-66273340D02*
X230866646Y-66296437D01*
X230866646Y-66296437D02*
X230534819Y-66329130D01*
X230534819Y-66329130D02*
X230279552Y-66353734D01*
X230279552Y-66353734D02*
X230049806Y-66375480D01*
X230049806Y-66375480D02*
X229768996Y-66401541D01*
X229768996Y-66401541D02*
X229564761Y-66420138D01*
X229564761Y-66420138D02*
X229309461Y-66442962D01*
X229309461Y-66442962D02*
X229054152Y-66465317D01*
X229054152Y-66465317D02*
X228849897Y-66482862D01*
X228849897Y-66482862D02*
X228645636Y-66500107D01*
X228645636Y-66500107D02*
X228415835Y-66519151D01*
X228415835Y-66519151D02*
X228160492Y-66539863D01*
X228160492Y-66539863D02*
X227930674Y-66558102D01*
X227930674Y-66558102D02*
X227675314Y-66577926D01*
X227675314Y-66577926D02*
X227419945Y-66597278D01*
X227419945Y-66597278D02*
X227215642Y-66612423D01*
X227215642Y-66612423D02*
X226934716Y-66632755D01*
X226934716Y-66632755D02*
X226679317Y-66650748D01*
X226679317Y-66650748D02*
X226449453Y-66666542D01*
X226449453Y-66666542D02*
X226219578Y-66681953D01*
X226219578Y-66681953D02*
X225964154Y-66698632D01*
X225964154Y-66698632D02*
X225708722Y-66714843D01*
X225708722Y-66714843D02*
X225478822Y-66729029D01*
X225478822Y-66729029D02*
X225223373Y-66744349D01*
X225223373Y-66744349D02*
X224993459Y-66757735D01*
X224993459Y-66757735D02*
X224763538Y-66770741D01*
X224763538Y-66770741D02*
X224482513Y-66786121D01*
X224482513Y-66786121D02*
X224252575Y-66798285D01*
X224252575Y-66798285D02*
X223997081Y-66811355D01*
X223997081Y-66811355D02*
X223767125Y-66822714D01*
X223767125Y-66822714D02*
X223511611Y-66834890D01*
X223511611Y-66834890D02*
X223256089Y-66846598D01*
X223256089Y-66846598D02*
X223026109Y-66856734D01*
X223026109Y-66856734D02*
X222796126Y-66866491D01*
X222796126Y-66866491D02*
X222540577Y-66876885D01*
X222540577Y-66876885D02*
X222310574Y-66885841D01*
X222310574Y-66885841D02*
X222055010Y-66895345D01*
X222055010Y-66895345D02*
X221799434Y-66904380D01*
X221799434Y-66904380D02*
X221569409Y-66912113D01*
X221569409Y-66912113D02*
X221313817Y-66920256D01*
X221313817Y-66920256D02*
X221083775Y-66927185D01*
X221083775Y-66927185D02*
X220802604Y-66935140D01*
X220802604Y-66935140D02*
X220572546Y-66941226D01*
X220572546Y-66941226D02*
X220316919Y-66947543D01*
X220316919Y-66947543D02*
X220086844Y-66952826D01*
X220086844Y-66952826D02*
X219856764Y-66957729D01*
X219856764Y-66957729D02*
X219601111Y-66962733D01*
X219601111Y-66962733D02*
X219345449Y-66967268D01*
X219345449Y-66967268D02*
X219089778Y-66971336D01*
X219089778Y-66971336D02*
X218859664Y-66974594D01*
X218859664Y-66974594D02*
X218629544Y-66977473D01*
X218629544Y-66977473D02*
X218373847Y-66980227D01*
X218373847Y-66980227D02*
X218118141Y-66982511D01*
X218118141Y-66982511D02*
X217887998Y-66984167D01*
X217887998Y-66984167D02*
X217632274Y-66985561D01*
X217632274Y-66985561D02*
X217402116Y-66986417D01*
X217402116Y-66986417D02*
X217146375Y-66986921D01*
X217146375Y-66986921D02*
X216890625Y-66986956D01*
X216890625Y-66986956D02*
X216660444Y-66986587D01*
X216660444Y-66986587D02*
X216404677Y-66985730D01*
X216404677Y-66985730D02*
X216174481Y-66984559D01*
X216174481Y-66984559D02*
X215893117Y-66982614D01*
X215893117Y-66982614D02*
X215662904Y-66980600D01*
X215662904Y-66980600D02*
X215432683Y-66978206D01*
X215432683Y-66978206D02*
X215176871Y-66975100D01*
X215176871Y-66975100D02*
X214946637Y-66971906D01*
X214946637Y-66971906D02*
X214665227Y-66967486D01*
X214665227Y-66967486D02*
X214434976Y-66963448D01*
X214434976Y-66963448D02*
X214179133Y-66958517D01*
X214179133Y-66958517D02*
X213948865Y-66953676D01*
X213948865Y-66953676D02*
X213718590Y-66948457D01*
X213718590Y-66948457D02*
X213437134Y-66941563D01*
X213437134Y-66941563D02*
X213206843Y-66935499D01*
X213206843Y-66935499D02*
X212950959Y-66928320D01*
X212950959Y-66928320D02*
X212720653Y-66921456D01*
X212720653Y-66921456D02*
X212490340Y-66914213D01*
X212490340Y-66914213D02*
X212208837Y-66904845D01*
X212208837Y-66904845D02*
X211978507Y-66896759D01*
X211978507Y-66896759D02*
X211722580Y-66887330D01*
X211722580Y-66887330D02*
X211492235Y-66878441D01*
X211492235Y-66878441D02*
X211261886Y-66869174D01*
X211261886Y-66869174D02*
X211057126Y-66860618D01*
X211057126Y-66860618D02*
X210852358Y-66851763D01*
X210852358Y-66851763D02*
X210570793Y-66839097D01*
X210570793Y-66839097D02*
X210340414Y-66828311D01*
X210340414Y-66828311D02*
X210084432Y-66815885D01*
X210084432Y-66815885D02*
X209828436Y-66802987D01*
X209828436Y-66802987D02*
X209598036Y-66790981D01*
X209598036Y-66790981D02*
X209342027Y-66777194D01*
X209342027Y-66777194D02*
X209111612Y-66764386D01*
X209111612Y-66764386D02*
X208855584Y-66749710D01*
X208855584Y-66749710D02*
X208599548Y-66734564D01*
X208599548Y-66734564D02*
X208369111Y-66720534D01*
X208369111Y-66720534D02*
X208087455Y-66702871D01*
X208087455Y-66702871D02*
X207857001Y-66687999D01*
X207857001Y-66687999D02*
X207626542Y-66672747D01*
X207626542Y-66672747D02*
X207370464Y-66655351D01*
X207370464Y-66655351D02*
X207139989Y-66639298D01*
X207139989Y-66639298D02*
X206858287Y-66619162D01*
X206858287Y-66619162D02*
X206627796Y-66602266D01*
X206627796Y-66602266D02*
X206397298Y-66584990D01*
X206397298Y-66584990D02*
X206192405Y-66569315D01*
X206192405Y-66569315D02*
X205987508Y-66553342D01*
X205987508Y-66553342D02*
X205782604Y-66537066D01*
X205782604Y-66537066D02*
X205577694Y-66520493D01*
X205577694Y-66520493D02*
X205372778Y-66503620D01*
X205372778Y-66503620D02*
X205142245Y-66484279D01*
X205142245Y-66484279D02*
X204911701Y-66464558D01*
X204911701Y-66464558D02*
X204655537Y-66442202D01*
X204655537Y-66442202D02*
X204450598Y-66423981D01*
X204450598Y-66423981D02*
X204245654Y-66405460D01*
X204245654Y-66405460D02*
X204040703Y-66386637D01*
X204040703Y-66386637D02*
X203835748Y-66367516D01*
X203835748Y-66367516D02*
X203630788Y-66348096D01*
X203630788Y-66348096D02*
X203400199Y-66325889D01*
X203400199Y-66325889D02*
X203169606Y-66303303D01*
X203169606Y-66303303D02*
X202913384Y-66277764D01*
X202913384Y-66277764D02*
X202682774Y-66254378D01*
X202682774Y-66254378D02*
X202477784Y-66233272D01*
X202477784Y-66233272D02*
X202170287Y-66201051D01*
X202170287Y-66201051D02*
X201939657Y-66176444D01*
X201939657Y-66176444D02*
X201683394Y-66148658D01*
X201683394Y-66148658D02*
X201427121Y-66120402D01*
X201427121Y-66120402D02*
X201196471Y-66094572D01*
X201196471Y-66094572D02*
X200940184Y-66065428D01*
X200940184Y-66065428D02*
X200760777Y-66044749D01*
X200760777Y-66044749D02*
X200504475Y-66014810D01*
X200504475Y-66014810D02*
X200325059Y-65993573D01*
X200325059Y-65993573D02*
X200094375Y-65965932D01*
X200094375Y-65965932D02*
X199914950Y-65944171D01*
X199914950Y-65944171D02*
X199684254Y-65915855D01*
X199684254Y-65915855D02*
X199504821Y-65893571D01*
X199504821Y-65893571D02*
X199274112Y-65864583D01*
X199274112Y-65864583D02*
X199094670Y-65841774D01*
X199094670Y-65841774D02*
X198863949Y-65812111D01*
X198863949Y-65812111D02*
X198684496Y-65788777D01*
X198684496Y-65788777D02*
X198453766Y-65758441D01*
X198453766Y-65758441D02*
X198274304Y-65734584D01*
X198274304Y-65734584D02*
X198094838Y-65710498D01*
X198094838Y-65710498D02*
X197864090Y-65679193D01*
X197864090Y-65679193D02*
X197684614Y-65654583D01*
X197684614Y-65654583D02*
X197453854Y-65622603D01*
X197453854Y-65622603D02*
X197274370Y-65597467D01*
X197274370Y-65597467D02*
X197043599Y-65564815D01*
X197043599Y-65564815D02*
X196864105Y-65539156D01*
X196864105Y-65539156D02*
X196633322Y-65505829D01*
X196633322Y-65505829D02*
X196453819Y-65479647D01*
X196453819Y-65479647D02*
X196197382Y-65441845D01*
X196197382Y-65441845D02*
X195992223Y-65411266D01*
X195992223Y-65411266D02*
X195787060Y-65380388D01*
X195787060Y-65380388D02*
X195607539Y-65353125D01*
X195607539Y-65353125D02*
X195376720Y-65317735D01*
X195376720Y-65317735D02*
X195197190Y-65289946D01*
X195197190Y-65289946D02*
X194966359Y-65253883D01*
X194966359Y-65253883D02*
X194786820Y-65225572D01*
X194786820Y-65225572D02*
X194555979Y-65188835D01*
X194555979Y-65188835D02*
X194376432Y-65159999D01*
X194376432Y-65159999D02*
X194145577Y-65122588D01*
X194145577Y-65122588D02*
X193966018Y-65093227D01*
X193966018Y-65093227D02*
X193786457Y-65063639D01*
X193786457Y-65063639D02*
X193555587Y-65025259D01*
X193555587Y-65025259D02*
X193376018Y-64995147D01*
X193376018Y-64995147D02*
X193145135Y-64956093D01*
X193145135Y-64956093D02*
X192965557Y-64925459D01*
X192965557Y-64925459D02*
X192734665Y-64885731D01*
X192734665Y-64885731D02*
X192555077Y-64854571D01*
X192555077Y-64854571D02*
X192324172Y-64814170D01*
X192324172Y-64814170D02*
X192144575Y-64782486D01*
X192144575Y-64782486D02*
X191836687Y-64727637D01*
X191836687Y-64727637D02*
X191657080Y-64695332D01*
X191657080Y-64695332D02*
X191477468Y-64662795D01*
X191477468Y-64662795D02*
X191297854Y-64630031D01*
X191297854Y-64630031D02*
X191066914Y-64587568D01*
X191066914Y-64587568D02*
X190887289Y-64554278D01*
X190887289Y-64554278D02*
X190656338Y-64511142D01*
X190656338Y-64511142D02*
X190476707Y-64477329D01*
X190476707Y-64477329D02*
X190245744Y-64433518D01*
X190245744Y-64433518D02*
X190066102Y-64399181D01*
X190066102Y-64399181D02*
X189886457Y-64364617D01*
X189886457Y-64364617D02*
X189655479Y-64319839D01*
X189655479Y-64319839D02*
X189475825Y-64284750D01*
X189475825Y-64284750D02*
X189244834Y-64239299D01*
X189244834Y-64239299D02*
X189065172Y-64203686D01*
X189065172Y-64203686D02*
X188834172Y-64157561D01*
X188834172Y-64157561D02*
X188654501Y-64121425D01*
X188654501Y-64121425D02*
X188397821Y-64069403D01*
X188397821Y-64069403D02*
X188218139Y-64032710D01*
X188218139Y-64032710D02*
X187987117Y-63985198D01*
X187987117Y-63985198D02*
X187807426Y-63947981D01*
X187807426Y-63947981D02*
X187576390Y-63899793D01*
X187576390Y-63899793D02*
X187396692Y-63862052D01*
X187396692Y-63862052D02*
X187165646Y-63813193D01*
X187165646Y-63813193D02*
X186985939Y-63774928D01*
X186985939Y-63774928D02*
X186806229Y-63736434D01*
X186806229Y-63736434D02*
X186575167Y-63686607D01*
X186575167Y-63686607D02*
X186395449Y-63647591D01*
X186395449Y-63647591D02*
X186164375Y-63597090D01*
X186164375Y-63597090D02*
X185984647Y-63557550D01*
X185984647Y-63557550D02*
X185753563Y-63506376D01*
X185753563Y-63506376D02*
X185573827Y-63466312D01*
X185573827Y-63466312D02*
X185342732Y-63414464D01*
X185342732Y-63414464D02*
X185162987Y-63373876D01*
X185162987Y-63373876D02*
X184906204Y-63315497D01*
X184906204Y-63315497D02*
X184726451Y-63274353D01*
X184726451Y-63274353D02*
X184495334Y-63221117D01*
X184495334Y-63221117D02*
X184315569Y-63179449D01*
X184315569Y-63179449D02*
X184084441Y-63125540D01*
X184084441Y-63125540D02*
X183904670Y-63083348D01*
X183904670Y-63083348D02*
X183673529Y-63028766D01*
X183673529Y-63028766D02*
X183493751Y-62986052D01*
X183493751Y-62986052D02*
X183313968Y-62943108D01*
X183313968Y-62943108D02*
X183082812Y-62887560D01*
X183082812Y-62887560D02*
X182903022Y-62844092D01*
X182903022Y-62844092D02*
X182671856Y-62787869D01*
X182671856Y-62787869D02*
X182492057Y-62743879D01*
X182492057Y-62743879D02*
X182235194Y-62680639D01*
X182235194Y-62680639D02*
X182055383Y-62636092D01*
X182055383Y-62636092D02*
X181824195Y-62578482D01*
X181824195Y-62578482D02*
X181644378Y-62533412D01*
X181644378Y-62533412D02*
X181413180Y-62475129D01*
X181413180Y-62475129D02*
X181233353Y-62429535D01*
X181233353Y-62429535D02*
X181002144Y-62370578D01*
X181002144Y-62370578D02*
X180822310Y-62324461D01*
X180822310Y-62324461D02*
X180642474Y-62278115D01*
X180642474Y-62278115D02*
X180411249Y-62218190D01*
X180411249Y-62218190D02*
X180231402Y-62171322D01*
X180231402Y-62171322D02*
X180000165Y-62110725D01*
X180000165Y-62110725D02*
X179820312Y-62063333D01*
X179820312Y-62063333D02*
X179511983Y-61981556D01*
X179511983Y-61981556D02*
X179332119Y-61933543D01*
X179332119Y-61933543D02*
X179152251Y-61885298D01*
X179152251Y-61885298D02*
X178972379Y-61836827D01*
X178972379Y-61836827D02*
X178741113Y-61774169D01*
X178741113Y-61774169D02*
X178561233Y-61725173D01*
X178561233Y-61725173D02*
X178381350Y-61675950D01*
X178381350Y-61675950D02*
X178150068Y-61612326D01*
X178150068Y-61612326D02*
X177970175Y-61562579D01*
X177970175Y-61562579D02*
X177738881Y-61498281D01*
X177738881Y-61498281D02*
X177558981Y-61448010D01*
X177558981Y-61448010D02*
X177250575Y-61361300D01*
X177250575Y-61361300D02*
X177070665Y-61310407D01*
X177070665Y-61310407D02*
X176890751Y-61259286D01*
X176890751Y-61259286D02*
X176710835Y-61207935D01*
X176710835Y-61207935D02*
X176479510Y-61141579D01*
X176479510Y-61141579D02*
X176299585Y-61089705D01*
X176299585Y-61089705D02*
X176068249Y-61022674D01*
X176068249Y-61022674D02*
X175888315Y-60970277D01*
X175888315Y-60970277D02*
X175708379Y-60917653D01*
X175708379Y-60917653D02*
X175477028Y-60849655D01*
X175477028Y-60849655D02*
X175297083Y-60796508D01*
X175297083Y-60796508D02*
X175065723Y-60727838D01*
X175065723Y-60727838D02*
X174911478Y-60681848D01*
X174911478Y-60681848D02*
X174731524Y-60627980D01*
X174731524Y-60627980D02*
X174577273Y-60581626D01*
X174577273Y-60581626D02*
X174397310Y-60527333D01*
X174397310Y-60527333D02*
X174217344Y-60472810D01*
X174217344Y-60472810D02*
X174063087Y-60425896D01*
X174063087Y-60425896D02*
X173908825Y-60378813D01*
X173908825Y-60378813D02*
X173728851Y-60323670D01*
X173728851Y-60323670D02*
X173548873Y-60268299D01*
X173548873Y-60268299D02*
X173394603Y-60220654D01*
X173394603Y-60220654D02*
X173214619Y-60164859D01*
X173214619Y-60164859D02*
X173060344Y-60116851D01*
X173060344Y-60116851D02*
X172880351Y-60060629D01*
X172880351Y-60060629D02*
X172726071Y-60012258D01*
X172726071Y-60012258D02*
X172571787Y-59963717D01*
X172571787Y-59963717D02*
X172366074Y-59898736D01*
X172366074Y-59898736D02*
X172211784Y-59849803D01*
X172211784Y-59849803D02*
X172057491Y-59800702D01*
X172057491Y-59800702D02*
X171877481Y-59743206D01*
X171877481Y-59743206D02*
X171723185Y-59693742D01*
X171723185Y-59693742D02*
X171543168Y-59635820D01*
X171543168Y-59635820D02*
X171388864Y-59585991D01*
X171388864Y-59585991D02*
X171234557Y-59535993D01*
X171234557Y-59535993D02*
X170951657Y-59443895D01*
X170951657Y-59443895D02*
X170797345Y-59393423D01*
X170797345Y-59393423D02*
X170617310Y-59334325D01*
X170617310Y-59334325D02*
X170462992Y-59283487D01*
X170462992Y-59283487D02*
X170308671Y-59232481D01*
X170308671Y-59232481D02*
X170102907Y-59164211D01*
X170102907Y-59164211D02*
X169948581Y-59112814D01*
X169948581Y-59112814D02*
X169794253Y-59061247D01*
X169794253Y-59061247D02*
X169614197Y-59000874D01*
X169614197Y-59000874D02*
X169459864Y-58948944D01*
X169459864Y-58948944D02*
X169279803Y-58888146D01*
X169279803Y-58888146D02*
X169099740Y-58827120D01*
X169099740Y-58827120D02*
X168945397Y-58774630D01*
X168945397Y-58774630D02*
X168765327Y-58713179D01*
X168765327Y-58713179D02*
X168610981Y-58660325D01*
X168610981Y-58660325D02*
X168456630Y-58607302D01*
X168456630Y-58607302D02*
X168250825Y-58536344D01*
X168250825Y-58536344D02*
X168096468Y-58482929D01*
X168096468Y-58482929D02*
X167942108Y-58429345D01*
X167942108Y-58429345D02*
X167787749Y-58375595D01*
X167787749Y-58375595D02*
X167607656Y-58312673D01*
X167607656Y-58312673D02*
X167427562Y-58249522D01*
X167427562Y-58249522D02*
X167273192Y-58195211D01*
X167273192Y-58195211D02*
X167118819Y-58140731D01*
X167118819Y-58140731D02*
X166835797Y-58040417D01*
X166835797Y-58040417D02*
X166681418Y-57985463D01*
X166681418Y-57985463D02*
X166501307Y-57921135D01*
X166501307Y-57921135D02*
X166346923Y-57865816D01*
X166346923Y-57865816D02*
X166166804Y-57801064D01*
X166166804Y-57801064D02*
X165986681Y-57736083D01*
X165986681Y-57736083D02*
X165832289Y-57680204D01*
X165832289Y-57680204D02*
X165677894Y-57624157D01*
X165677894Y-57624157D02*
X165497764Y-57558556D01*
X165497764Y-57558556D02*
X165317632Y-57492727D01*
X165317632Y-57492727D02*
X165163228Y-57436118D01*
X165163228Y-57436118D02*
X164983088Y-57369865D01*
X164983088Y-57369865D02*
X164918753Y-57346149D01*
X222836109Y73645187D02*
X222836109Y73645187D01*
X273882035Y-64756787D02*
X287658239Y-56788191D01*
X148804236Y-197925999D02*
X148928157Y-197847996D01*
X148928157Y-197847996D02*
X149043404Y-197762640D01*
X149043404Y-197762640D02*
X149150841Y-197669894D01*
X149150841Y-197669894D02*
X149254055Y-197566229D01*
X149254055Y-197566229D02*
X149347483Y-197456951D01*
X149347483Y-197456951D02*
X149432241Y-197341264D01*
X149432241Y-197341264D02*
X149511855Y-197212983D01*
X149511855Y-197212983D02*
X149580305Y-197080564D01*
X149580305Y-197080564D02*
X149639693Y-196939381D01*
X149639693Y-196939381D02*
X149689323Y-196787824D01*
X149689323Y-196787824D02*
X149727766Y-196624180D01*
X149727766Y-196624180D02*
X149752560Y-196448684D01*
X149752560Y-196448684D02*
X149761015Y-196268809D01*
X146890678Y-197925999D02*
X147023762Y-197996029D01*
X147023762Y-197996029D02*
X147164803Y-198056498D01*
X147164803Y-198056498D02*
X147315269Y-198106918D01*
X147315269Y-198106918D02*
X147478069Y-198146407D01*
X147478069Y-198146407D02*
X147655333Y-198172705D01*
X147655333Y-198172705D02*
X147846487Y-198182366D01*
X147846487Y-198182366D02*
X148037400Y-198172923D01*
X148037400Y-198172923D02*
X148212544Y-198147244D01*
X148212544Y-198147244D02*
X148375412Y-198108136D01*
X148375412Y-198108136D02*
X148526428Y-198057897D01*
X148526428Y-198057897D02*
X148669353Y-197996882D01*
X148669353Y-197996882D02*
X148801197Y-197927746D01*
X148801197Y-197927746D02*
X148804236Y-197925999D01*
X209220023Y-139325772D02*
X209220023Y-131399449D01*
X225146346Y-139325772D02*
X209220023Y-139325772D01*
X268441377Y-63203209D02*
X268431846Y-63394163D01*
X268431846Y-63394163D02*
X268405908Y-63570135D01*
X268405908Y-63570135D02*
X268365937Y-63735343D01*
X268365937Y-63735343D02*
X268315246Y-63886493D01*
X268315246Y-63886493D02*
X268254870Y-64027224D01*
X268254870Y-64027224D02*
X268185491Y-64159148D01*
X268185491Y-64159148D02*
X268107155Y-64283672D01*
X268107155Y-64283672D02*
X268021800Y-64398941D01*
X268021800Y-64398941D02*
X267927802Y-64507770D01*
X267927802Y-64507770D02*
X267825464Y-64609611D01*
X267825464Y-64609611D02*
X267717224Y-64702252D01*
X267717224Y-64702252D02*
X267600318Y-64787975D01*
X267600318Y-64787975D02*
X267484598Y-64860399D01*
X314224277Y-152212139D02*
X314224277Y-152212139D01*
X287956098Y-194285778D02*
X288085240Y-194366661D01*
X288085240Y-194366661D02*
X288201713Y-194450987D01*
X288201713Y-194450987D02*
X288311778Y-194542139D01*
X288311778Y-194542139D02*
X288420366Y-194644936D01*
X288420366Y-194644936D02*
X288516595Y-194748889D01*
X288516595Y-194748889D02*
X288607099Y-194860280D01*
X288607099Y-194860280D02*
X288693761Y-194982705D01*
X288693761Y-194982705D02*
X288770794Y-195108670D01*
X288770794Y-195108670D02*
X288840021Y-195241035D01*
X288840021Y-195241035D02*
X288903165Y-195385234D01*
X288903165Y-195385234D02*
X288955704Y-195532852D01*
X288955704Y-195532852D02*
X288999270Y-195690428D01*
X288999270Y-195690428D02*
X289032397Y-195858942D01*
X289032397Y-195858942D02*
X289053068Y-196038475D01*
X289053068Y-196038475D02*
X289059146Y-196202889D01*
X225146346Y-131399449D02*
X225146346Y-139325772D01*
X209220023Y-131399449D02*
X225146346Y-131399449D01*
X268441377Y-63203209D02*
X268441377Y-63203209D01*
X289059146Y-196202889D02*
X289059146Y-196202889D01*
X267484598Y-61546019D02*
X267608519Y-61624014D01*
X267608519Y-61624014D02*
X267724342Y-61709829D01*
X267724342Y-61709829D02*
X267834064Y-61804781D01*
X267834064Y-61804781D02*
X267935241Y-61906672D01*
X267935241Y-61906672D02*
X268027845Y-62015057D01*
X268027845Y-62015057D02*
X268112603Y-62130743D01*
X268112603Y-62130743D02*
X268190063Y-62255241D01*
X268190063Y-62255241D02*
X268259844Y-62389689D01*
X268259844Y-62389689D02*
X268319373Y-62530810D01*
X268319373Y-62530810D02*
X268369156Y-62682309D01*
X268369156Y-62682309D02*
X268408128Y-62847829D01*
X268408128Y-62847829D02*
X268433107Y-63025296D01*
X268433107Y-63025296D02*
X268441377Y-63203209D01*
X265571040Y-61546019D02*
X265702336Y-61476836D01*
X265702336Y-61476836D02*
X265843788Y-61416040D01*
X265843788Y-61416040D02*
X265993754Y-61365637D01*
X265993754Y-61365637D02*
X266155094Y-61326266D01*
X266155094Y-61326266D02*
X266329671Y-61299922D01*
X266329671Y-61299922D02*
X266521040Y-61289662D01*
X266521040Y-61289662D02*
X266712943Y-61298615D01*
X266712943Y-61298615D02*
X266889088Y-61324030D01*
X266889088Y-61324030D02*
X267052019Y-61362803D01*
X267052019Y-61362803D02*
X267206331Y-61413941D01*
X267206331Y-61413941D02*
X267347925Y-61474278D01*
X267347925Y-61474278D02*
X267480257Y-61543520D01*
X267480257Y-61543520D02*
X267484598Y-61546019D01*
X222836109Y73645187D02*
X222836109Y73645187D01*
X313267498Y-150554949D02*
X313135746Y-150485552D01*
X313135746Y-150485552D02*
X312995432Y-150425234D01*
X312995432Y-150425234D02*
X312844303Y-150374431D01*
X312844303Y-150374431D02*
X312683436Y-150335196D01*
X312683436Y-150335196D02*
X312506928Y-150308653D01*
X312506928Y-150308653D02*
X312315555Y-150298586D01*
X312315555Y-150298586D02*
X312124142Y-150307686D01*
X312124142Y-150307686D02*
X311947532Y-150333327D01*
X311947532Y-150333327D02*
X311784633Y-150372268D01*
X311784633Y-150372268D02*
X311630361Y-150423568D01*
X311630361Y-150423568D02*
X311489261Y-150483846D01*
X311489261Y-150483846D02*
X311357842Y-150552699D01*
X311357842Y-150552699D02*
X311353940Y-150554949D01*
X314224277Y-152212139D02*
X314214746Y-152021179D01*
X314214746Y-152021179D02*
X314189089Y-151846647D01*
X314189089Y-151846647D02*
X314148837Y-151679997D01*
X314148837Y-151679997D02*
X314098146Y-151528847D01*
X314098146Y-151528847D02*
X314036308Y-151385055D01*
X314036308Y-151385055D02*
X313966694Y-151253262D01*
X313966694Y-151253262D02*
X313888961Y-151130068D01*
X313888961Y-151130068D02*
X313802273Y-151013368D01*
X313802273Y-151013368D02*
X313709374Y-150906146D01*
X313709374Y-150906146D02*
X313602601Y-150800431D01*
X313602601Y-150800431D02*
X313493750Y-150708050D01*
X313493750Y-150708050D02*
X313375603Y-150622240D01*
X313375603Y-150622240D02*
X313267498Y-150554949D01*
X124255946Y-152108189D02*
X124255946Y-152108189D01*
X264614261Y-63203209D02*
X264623786Y-63012249D01*
X264623786Y-63012249D02*
X264649721Y-62836274D01*
X264649721Y-62836274D02*
X264688614Y-62674813D01*
X264688614Y-62674813D02*
X264739690Y-62521729D01*
X264739690Y-62521729D02*
X264799925Y-62380933D01*
X264799925Y-62380933D02*
X264869176Y-62248943D01*
X264869176Y-62248943D02*
X264946563Y-62125535D01*
X264946563Y-62125535D02*
X265031707Y-62010119D01*
X265031707Y-62010119D02*
X265124182Y-61902562D01*
X265124182Y-61902562D02*
X265224424Y-61802114D01*
X265224424Y-61802114D02*
X265333014Y-61708445D01*
X265333014Y-61708445D02*
X265448339Y-61623174D01*
X265448339Y-61623174D02*
X265571040Y-61546019D01*
X265571040Y-64860399D02*
X265443840Y-64780153D01*
X265443840Y-64780153D02*
X265328218Y-64694117D01*
X265328218Y-64694117D02*
X265220136Y-64600291D01*
X265220136Y-64600291D02*
X265119726Y-64499018D01*
X265119726Y-64499018D02*
X265026580Y-64389829D01*
X265026580Y-64389829D02*
X264941942Y-64274059D01*
X264941942Y-64274059D02*
X264865087Y-64150328D01*
X264865087Y-64150328D02*
X264796402Y-64018032D01*
X264796402Y-64018032D02*
X264736939Y-63877418D01*
X264736939Y-63877418D02*
X264687140Y-63726444D01*
X264687140Y-63726444D02*
X264648695Y-63564843D01*
X264648695Y-63564843D02*
X264622754Y-63383576D01*
X264622754Y-63383576D02*
X264614261Y-63203209D01*
X267484598Y-64860399D02*
X267353294Y-64929574D01*
X267353294Y-64929574D02*
X267213220Y-64989844D01*
X267213220Y-64989844D02*
X267063280Y-65040366D01*
X267063280Y-65040366D02*
X266900536Y-65080147D01*
X266900536Y-65080147D02*
X266725957Y-65106488D01*
X266725957Y-65106488D02*
X266534592Y-65116753D01*
X266534592Y-65116753D02*
X266342688Y-65107799D01*
X266342688Y-65107799D02*
X266164632Y-65082014D01*
X266164632Y-65082014D02*
X265999619Y-65042467D01*
X265999619Y-65042467D02*
X265849299Y-64992472D01*
X265849299Y-64992472D02*
X265707705Y-64932133D01*
X265707705Y-64932133D02*
X265575376Y-64862894D01*
X265575376Y-64862894D02*
X265571040Y-64860399D01*
X245434239Y-233483459D02*
X294026069Y-205135179D01*
X188932113Y-233294469D02*
X245434239Y-233483459D01*
X140246103Y-205135179D02*
X188932113Y-233294469D01*
X121385609Y-153765379D02*
X121258409Y-153685133D01*
X121258409Y-153685133D02*
X121142787Y-153599097D01*
X121142787Y-153599097D02*
X121034705Y-153505271D01*
X121034705Y-153505271D02*
X120934295Y-153403998D01*
X120934295Y-153403998D02*
X120841149Y-153294809D01*
X120841149Y-153294809D02*
X120756511Y-153179039D01*
X120756511Y-153179039D02*
X120679656Y-153055308D01*
X120679656Y-153055308D02*
X120610971Y-152923012D01*
X120610971Y-152923012D02*
X120551508Y-152782398D01*
X120551508Y-152782398D02*
X120501709Y-152631424D01*
X120501709Y-152631424D02*
X120463264Y-152469823D01*
X120463264Y-152469823D02*
X120437323Y-152288556D01*
X120437323Y-152288556D02*
X120428830Y-152108189D01*
X123299167Y-153765379D02*
X123167863Y-153834554D01*
X123167863Y-153834554D02*
X123027789Y-153894824D01*
X123027789Y-153894824D02*
X122877849Y-153945346D01*
X122877849Y-153945346D02*
X122715105Y-153985127D01*
X122715105Y-153985127D02*
X122540526Y-154011468D01*
X122540526Y-154011468D02*
X122349161Y-154021733D01*
X122349161Y-154021733D02*
X122157257Y-154012779D01*
X122157257Y-154012779D02*
X121979201Y-153986994D01*
X121979201Y-153986994D02*
X121814188Y-153947447D01*
X121814188Y-153947447D02*
X121663868Y-153897452D01*
X121663868Y-153897452D02*
X121522274Y-153837113D01*
X121522274Y-153837113D02*
X121389945Y-153767874D01*
X121389945Y-153767874D02*
X121385609Y-153765379D01*
X124255946Y-152108189D02*
X124246415Y-152299143D01*
X124246415Y-152299143D02*
X124220477Y-152475115D01*
X124220477Y-152475115D02*
X124180506Y-152640323D01*
X124180506Y-152640323D02*
X124129815Y-152791473D01*
X124129815Y-152791473D02*
X124069439Y-152932204D01*
X124069439Y-152932204D02*
X124000060Y-153064128D01*
X124000060Y-153064128D02*
X123921724Y-153188652D01*
X123921724Y-153188652D02*
X123836369Y-153303921D01*
X123836369Y-153303921D02*
X123742371Y-153412750D01*
X123742371Y-153412750D02*
X123640033Y-153514591D01*
X123640033Y-153514591D02*
X123531793Y-153607232D01*
X123531793Y-153607232D02*
X123414887Y-153692955D01*
X123414887Y-153692955D02*
X123299167Y-153765379D01*
X112277552Y-156376129D02*
X140246103Y-205135179D01*
X287956098Y-198120000D02*
X287825308Y-198190014D01*
X287825308Y-198190014D02*
X287685966Y-198252777D01*
X287685966Y-198252777D02*
X287539312Y-198306795D01*
X287539312Y-198306795D02*
X287378854Y-198352824D01*
X287378854Y-198352824D02*
X287212227Y-198387065D01*
X287212227Y-198387065D02*
X287033100Y-198409196D01*
X287033100Y-198409196D02*
X286836029Y-198416508D01*
X286836029Y-198416508D02*
X286644618Y-198406683D01*
X286644618Y-198406683D02*
X286467380Y-198382517D01*
X286467380Y-198382517D02*
X286302988Y-198346711D01*
X286302988Y-198346711D02*
X286147489Y-198300362D01*
X286147489Y-198300362D02*
X286001219Y-198244937D01*
X286001219Y-198244937D02*
X285863862Y-198181582D01*
X285863862Y-198181582D02*
X285750000Y-198120000D01*
X289059146Y-196202889D02*
X289050840Y-196395008D01*
X289050840Y-196395008D02*
X289028102Y-196573200D01*
X289028102Y-196573200D02*
X288992165Y-196744428D01*
X288992165Y-196744428D02*
X288946870Y-196900209D01*
X288946870Y-196900209D02*
X288890748Y-197051204D01*
X288890748Y-197051204D02*
X288826487Y-197192387D01*
X288826487Y-197192387D02*
X288756288Y-197322312D01*
X288756288Y-197322312D02*
X288676348Y-197449117D01*
X288676348Y-197449117D02*
X288592073Y-197565034D01*
X288592073Y-197565034D02*
X288500296Y-197675450D01*
X288500296Y-197675450D02*
X288402453Y-197778775D01*
X288402453Y-197778775D02*
X288297309Y-197876314D01*
X288297309Y-197876314D02*
X288185914Y-197966913D01*
X288185914Y-197966913D02*
X288068571Y-198050259D01*
X288068571Y-198050259D02*
X287956098Y-198120000D01*
X170017191Y-63203209D02*
X170017191Y-63203209D01*
X312310719Y-154125697D02*
X312502595Y-154116193D01*
X312502595Y-154116193D02*
X312677717Y-154090534D01*
X312677717Y-154090534D02*
X312840954Y-154051278D01*
X312840954Y-154051278D02*
X312991261Y-154001140D01*
X312991261Y-154001140D02*
X313131812Y-153941069D01*
X313131812Y-153941069D02*
X313263828Y-153871809D01*
X313263828Y-153871809D02*
X313387155Y-153794441D01*
X313387155Y-153794441D02*
X313502537Y-153709309D01*
X313502537Y-153709309D02*
X313613195Y-153614018D01*
X313613195Y-153614018D02*
X313719902Y-153506713D01*
X313719902Y-153506713D02*
X313812134Y-153398616D01*
X313812134Y-153398616D02*
X313897066Y-153282621D01*
X313897066Y-153282621D02*
X313974337Y-153158353D01*
X313974337Y-153158353D02*
X314044606Y-153022730D01*
X314044606Y-153022730D02*
X314104613Y-152879685D01*
X314104613Y-152879685D02*
X314154673Y-152725339D01*
X314154673Y-152725339D02*
X314192517Y-152561164D01*
X314192517Y-152561164D02*
X314216559Y-152385132D01*
X314216559Y-152385132D02*
X314224277Y-152212139D01*
X310397161Y-152212139D02*
X310406546Y-152402884D01*
X310406546Y-152402884D02*
X310432101Y-152578039D01*
X310432101Y-152578039D02*
X310470963Y-152740248D01*
X310470963Y-152740248D02*
X310521190Y-152891315D01*
X310521190Y-152891315D02*
X310581158Y-153031922D01*
X310581158Y-153031922D02*
X310651402Y-153165874D01*
X310651402Y-153165874D02*
X310729220Y-153289764D01*
X310729220Y-153289764D02*
X310815329Y-153406203D01*
X310815329Y-153406203D02*
X310908831Y-153514615D01*
X310908831Y-153514615D02*
X311009021Y-153614749D01*
X311009021Y-153614749D02*
X311116643Y-153707517D01*
X311116643Y-153707517D02*
X311231898Y-153792819D01*
X311231898Y-153792819D02*
X311356350Y-153871088D01*
X311356350Y-153871088D02*
X311487650Y-153940132D01*
X311487650Y-153940132D02*
X311628803Y-154000619D01*
X311628803Y-154000619D02*
X311782600Y-154051888D01*
X311782600Y-154051888D02*
X311944809Y-154090747D01*
X311944809Y-154090747D02*
X312124871Y-154116784D01*
X312124871Y-154116784D02*
X312310719Y-154125697D01*
X311353940Y-150554949D02*
X311230420Y-150632664D01*
X311230420Y-150632664D02*
X311111118Y-150721222D01*
X311111118Y-150721222D02*
X311003393Y-150814712D01*
X311003393Y-150814712D02*
X310903121Y-150915781D01*
X310903121Y-150915781D02*
X310810684Y-151023987D01*
X310810684Y-151023987D02*
X310724842Y-151141278D01*
X310724842Y-151141278D02*
X310646315Y-151267958D01*
X310646315Y-151267958D02*
X310578066Y-151399935D01*
X310578066Y-151399935D02*
X310518642Y-151541103D01*
X310518642Y-151541103D02*
X310468846Y-151693115D01*
X310468846Y-151693115D02*
X310430038Y-151858687D01*
X310430038Y-151858687D02*
X310405423Y-152034226D01*
X310405423Y-152034226D02*
X310397161Y-152212139D01*
X140621593Y-51089909D02*
X112371752Y-100246539D01*
X222836109Y73645187D02*
X222836109Y73645187D01*
X298645643Y-107863552D02*
X273882035Y-64756787D01*
X312421847Y-99894956D02*
X298645643Y-107863552D01*
X287658239Y-56788191D02*
X312421847Y-99894956D01*
X222836109Y73645187D02*
X222836109Y73645187D01*
X149761015Y-196268809D02*
X149751484Y-196077849D01*
X149751484Y-196077849D02*
X149725827Y-195903317D01*
X149725827Y-195903317D02*
X149685575Y-195736667D01*
X149685575Y-195736667D02*
X149634884Y-195585517D01*
X149634884Y-195585517D02*
X149573046Y-195441725D01*
X149573046Y-195441725D02*
X149503432Y-195309932D01*
X149503432Y-195309932D02*
X149425699Y-195186738D01*
X149425699Y-195186738D02*
X149339011Y-195070038D01*
X149339011Y-195070038D02*
X149246112Y-194962816D01*
X149246112Y-194962816D02*
X149139339Y-194857101D01*
X149139339Y-194857101D02*
X149030488Y-194764720D01*
X149030488Y-194764720D02*
X148912341Y-194678910D01*
X148912341Y-194678910D02*
X148804236Y-194611619D01*
X192379021Y-206569397D02*
X241964323Y-206500138D01*
X192401155Y-222525279D02*
X192379021Y-206569397D01*
X135659281Y-108110040D02*
X121877401Y-100151333D01*
X160392158Y-64985511D02*
X135659281Y-108110040D01*
X146610277Y-57026804D02*
X160392158Y-64985511D01*
X222836109Y73645187D02*
X222836109Y73645187D01*
X241986457Y-222456020D02*
X192401155Y-222525279D01*
X241964323Y-206500138D02*
X241986457Y-222456020D01*
X121877401Y-100151333D02*
X146610277Y-57026804D01*
X145933899Y-196268809D02*
X145943424Y-196459763D01*
X145943424Y-196459763D02*
X145969736Y-196637660D01*
X145969736Y-196637660D02*
X146009875Y-196802814D01*
X146009875Y-196802814D02*
X146061410Y-196955718D01*
X146061410Y-196955718D02*
X146122069Y-197096319D01*
X146122069Y-197096319D02*
X146191475Y-197227679D01*
X146191475Y-197227679D02*
X146269206Y-197350870D01*
X146269206Y-197350870D02*
X146355893Y-197467569D01*
X146355893Y-197467569D02*
X146448794Y-197574794D01*
X146448794Y-197574794D02*
X146549442Y-197674878D01*
X146549442Y-197674878D02*
X146658622Y-197768311D01*
X146658622Y-197768311D02*
X146779888Y-197856905D01*
X146779888Y-197856905D02*
X146890678Y-197925999D01*
X146890678Y-194611619D02*
X146767158Y-194689334D01*
X146767158Y-194689334D02*
X146647856Y-194777892D01*
X146647856Y-194777892D02*
X146540131Y-194871382D01*
X146540131Y-194871382D02*
X146439859Y-194972451D01*
X146439859Y-194972451D02*
X146347422Y-195080657D01*
X146347422Y-195080657D02*
X146261580Y-195197948D01*
X146261580Y-195197948D02*
X146183053Y-195324628D01*
X146183053Y-195324628D02*
X146114804Y-195456605D01*
X146114804Y-195456605D02*
X146055380Y-195597773D01*
X146055380Y-195597773D02*
X146005584Y-195749785D01*
X146005584Y-195749785D02*
X145966776Y-195915357D01*
X145966776Y-195915357D02*
X145942161Y-196090896D01*
X145942161Y-196090896D02*
X145933899Y-196268809D01*
X148804236Y-194611619D02*
X148672484Y-194542222D01*
X148672484Y-194542222D02*
X148532170Y-194481904D01*
X148532170Y-194481904D02*
X148381041Y-194431101D01*
X148381041Y-194431101D02*
X148220174Y-194391866D01*
X148220174Y-194391866D02*
X148043666Y-194365323D01*
X148043666Y-194365323D02*
X147852293Y-194355256D01*
X147852293Y-194355256D02*
X147660880Y-194364356D01*
X147660880Y-194364356D02*
X147484270Y-194389997D01*
X147484270Y-194389997D02*
X147321371Y-194428938D01*
X147321371Y-194428938D02*
X147167099Y-194480238D01*
X147167099Y-194480238D02*
X147025999Y-194540516D01*
X147025999Y-194540516D02*
X146894580Y-194609369D01*
X146894580Y-194609369D02*
X146890678Y-194611619D01*
X149761015Y-196268809D02*
X149761015Y-196268809D01*
X122342388Y-150194631D02*
X122533133Y-150204016D01*
X122533133Y-150204016D02*
X122708288Y-150229571D01*
X122708288Y-150229571D02*
X122870497Y-150268433D01*
X122870497Y-150268433D02*
X123021564Y-150318660D01*
X123021564Y-150318660D02*
X123162171Y-150378628D01*
X123162171Y-150378628D02*
X123296123Y-150448872D01*
X123296123Y-150448872D02*
X123420013Y-150526690D01*
X123420013Y-150526690D02*
X123536452Y-150612799D01*
X123536452Y-150612799D02*
X123644864Y-150706301D01*
X123644864Y-150706301D02*
X123744998Y-150806491D01*
X123744998Y-150806491D02*
X123837766Y-150914113D01*
X123837766Y-150914113D02*
X123923068Y-151029368D01*
X123923068Y-151029368D02*
X124001337Y-151153820D01*
X124001337Y-151153820D02*
X124070381Y-151285120D01*
X124070381Y-151285120D02*
X124130868Y-151426273D01*
X124130868Y-151426273D02*
X124182137Y-151580070D01*
X124182137Y-151580070D02*
X124220996Y-151742279D01*
X124220996Y-151742279D02*
X124247033Y-151922341D01*
X124247033Y-151922341D02*
X124255946Y-152108189D01*
X120428830Y-152108189D02*
X120438328Y-151916305D01*
X120438328Y-151916305D02*
X120464340Y-151739350D01*
X120464340Y-151739350D02*
X120503650Y-151576527D01*
X120503650Y-151576527D02*
X120553898Y-151426273D01*
X120553898Y-151426273D02*
X120614386Y-151285120D01*
X120614386Y-151285120D02*
X120684152Y-151152569D01*
X120684152Y-151152569D02*
X120762922Y-151027586D01*
X120762922Y-151027586D02*
X120848794Y-150911870D01*
X120848794Y-150911870D02*
X120950308Y-150795231D01*
X120950308Y-150795231D02*
X121054690Y-150692701D01*
X121054690Y-150692701D02*
X121163803Y-150600544D01*
X121163803Y-150600544D02*
X121281461Y-150515413D01*
X121281461Y-150515413D02*
X121408747Y-150437454D01*
X121408747Y-150437454D02*
X121542987Y-150369093D01*
X121542987Y-150369093D02*
X121685126Y-150310491D01*
X121685126Y-150310491D02*
X121837719Y-150261875D01*
X121837719Y-150261875D02*
X122002181Y-150224779D01*
X122002181Y-150224779D02*
X122179228Y-150201485D01*
X122179228Y-150201485D02*
X122342388Y-150194631D01*
X167146854Y-64860399D02*
X167019654Y-64780153D01*
X167019654Y-64780153D02*
X166904032Y-64694117D01*
X166904032Y-64694117D02*
X166795950Y-64600291D01*
X166795950Y-64600291D02*
X166695540Y-64499018D01*
X166695540Y-64499018D02*
X166602394Y-64389829D01*
X166602394Y-64389829D02*
X166517756Y-64274059D01*
X166517756Y-64274059D02*
X166440901Y-64150328D01*
X166440901Y-64150328D02*
X166372216Y-64018032D01*
X166372216Y-64018032D02*
X166312753Y-63877418D01*
X166312753Y-63877418D02*
X166262954Y-63726444D01*
X166262954Y-63726444D02*
X166224509Y-63564843D01*
X166224509Y-63564843D02*
X166198568Y-63383576D01*
X166198568Y-63383576D02*
X166190075Y-63203209D01*
X169060412Y-64860399D02*
X168929108Y-64929574D01*
X168929108Y-64929574D02*
X168789034Y-64989844D01*
X168789034Y-64989844D02*
X168639094Y-65040366D01*
X168639094Y-65040366D02*
X168476350Y-65080147D01*
X168476350Y-65080147D02*
X168301771Y-65106488D01*
X168301771Y-65106488D02*
X168110406Y-65116753D01*
X168110406Y-65116753D02*
X167918502Y-65107799D01*
X167918502Y-65107799D02*
X167740446Y-65082014D01*
X167740446Y-65082014D02*
X167575433Y-65042467D01*
X167575433Y-65042467D02*
X167425113Y-64992472D01*
X167425113Y-64992472D02*
X167283519Y-64932133D01*
X167283519Y-64932133D02*
X167151190Y-64862894D01*
X167151190Y-64862894D02*
X167146854Y-64860399D01*
X170017191Y-63203209D02*
X170007660Y-63394163D01*
X170007660Y-63394163D02*
X169981722Y-63570135D01*
X169981722Y-63570135D02*
X169941751Y-63735343D01*
X169941751Y-63735343D02*
X169891060Y-63886493D01*
X169891060Y-63886493D02*
X169830684Y-64027224D01*
X169830684Y-64027224D02*
X169761305Y-64159148D01*
X169761305Y-64159148D02*
X169682969Y-64283672D01*
X169682969Y-64283672D02*
X169597614Y-64398941D01*
X169597614Y-64398941D02*
X169503616Y-64507770D01*
X169503616Y-64507770D02*
X169401278Y-64609611D01*
X169401278Y-64609611D02*
X169293038Y-64702252D01*
X169293038Y-64702252D02*
X169176132Y-64787975D01*
X169176132Y-64787975D02*
X169060412Y-64860399D01*
X222836109Y73645187D02*
X222836109Y73645187D01*
X169060412Y-61546019D02*
X169184333Y-61624014D01*
X169184333Y-61624014D02*
X169300156Y-61709829D01*
X169300156Y-61709829D02*
X169409878Y-61804781D01*
X169409878Y-61804781D02*
X169511055Y-61906672D01*
X169511055Y-61906672D02*
X169603659Y-62015057D01*
X169603659Y-62015057D02*
X169688417Y-62130743D01*
X169688417Y-62130743D02*
X169765877Y-62255241D01*
X169765877Y-62255241D02*
X169835658Y-62389689D01*
X169835658Y-62389689D02*
X169895187Y-62530810D01*
X169895187Y-62530810D02*
X169944970Y-62682309D01*
X169944970Y-62682309D02*
X169983942Y-62847829D01*
X169983942Y-62847829D02*
X170008921Y-63025296D01*
X170008921Y-63025296D02*
X170017191Y-63203209D01*
X167146854Y-61546019D02*
X167278150Y-61476836D01*
X167278150Y-61476836D02*
X167419602Y-61416040D01*
X167419602Y-61416040D02*
X167569568Y-61365637D01*
X167569568Y-61365637D02*
X167730908Y-61326266D01*
X167730908Y-61326266D02*
X167905485Y-61299922D01*
X167905485Y-61299922D02*
X168096854Y-61289662D01*
X168096854Y-61289662D02*
X168288757Y-61298615D01*
X168288757Y-61298615D02*
X168464902Y-61324030D01*
X168464902Y-61324030D02*
X168627833Y-61362803D01*
X168627833Y-61362803D02*
X168782145Y-61413941D01*
X168782145Y-61413941D02*
X168923739Y-61474278D01*
X168923739Y-61474278D02*
X169056071Y-61543520D01*
X169056071Y-61543520D02*
X169060412Y-61546019D01*
X166190075Y-63203209D02*
X166199600Y-63012249D01*
X166199600Y-63012249D02*
X166225535Y-62836274D01*
X166225535Y-62836274D02*
X166264428Y-62674813D01*
X166264428Y-62674813D02*
X166315504Y-62521729D01*
X166315504Y-62521729D02*
X166375739Y-62380933D01*
X166375739Y-62380933D02*
X166444990Y-62248943D01*
X166444990Y-62248943D02*
X166522377Y-62125535D01*
X166522377Y-62125535D02*
X166607521Y-62010119D01*
X166607521Y-62010119D02*
X166699996Y-61902562D01*
X166699996Y-61902562D02*
X166800238Y-61802114D01*
X166800238Y-61802114D02*
X166908828Y-61708445D01*
X166908828Y-61708445D02*
X167024153Y-61623174D01*
X167024153Y-61623174D02*
X167146854Y-61546019D01*
X164918753Y-57346149D02*
X164659993Y-37459139D01*
X269447699Y-37313359D02*
X269636029Y-56968169D01*
X294026119Y-51770989D02*
X269447699Y-37313359D01*
X112371752Y-100246539D02*
X112277552Y-156376129D01*
X285750000Y-194285778D02*
X285880785Y-194215759D01*
X285880785Y-194215759D02*
X286022228Y-194152134D01*
X286022228Y-194152134D02*
X286168654Y-194098356D01*
X286168654Y-194098356D02*
X286324779Y-194053550D01*
X286324779Y-194053550D02*
X286491655Y-194019070D01*
X286491655Y-194019070D02*
X286671319Y-193996710D01*
X286671319Y-193996710D02*
X286865320Y-193989233D01*
X286865320Y-193989233D02*
X287057021Y-193998668D01*
X287057021Y-193998668D02*
X287234298Y-194022472D01*
X287234298Y-194022472D02*
X287400380Y-194058357D01*
X287400380Y-194058357D02*
X287555926Y-194104504D01*
X287555926Y-194104504D02*
X287702773Y-194159953D01*
X287702773Y-194159953D02*
X287843765Y-194224962D01*
X287843765Y-194224962D02*
X287956098Y-194285778D01*
X284646952Y-196202889D02*
X284655251Y-196010762D01*
X284655251Y-196010762D02*
X284678082Y-195832009D01*
X284678082Y-195832009D02*
X284712691Y-195666272D01*
X284712691Y-195666272D02*
X284757634Y-195510367D01*
X284757634Y-195510367D02*
X284811929Y-195362864D01*
X284811929Y-195362864D02*
X284874390Y-195223919D01*
X284874390Y-195223919D02*
X284945025Y-195091681D01*
X284945025Y-195091681D02*
X285021922Y-194968254D01*
X285021922Y-194968254D02*
X285105794Y-194851378D01*
X285105794Y-194851378D02*
X285201328Y-194735365D01*
X285201328Y-194735365D02*
X285298440Y-194632159D01*
X285298440Y-194632159D02*
X285401958Y-194535408D01*
X285401958Y-194535408D02*
X285514747Y-194443001D01*
X285514747Y-194443001D02*
X285631792Y-194359318D01*
X285631792Y-194359318D02*
X285750000Y-194285778D01*
X285750000Y-198120000D02*
X285620376Y-198038789D01*
X285620376Y-198038789D02*
X285504379Y-197954784D01*
X285504379Y-197954784D02*
X285394314Y-197863633D01*
X285394314Y-197863633D02*
X285285726Y-197760836D01*
X285285726Y-197760836D02*
X285189497Y-197656881D01*
X285189497Y-197656881D02*
X285098993Y-197545493D01*
X285098993Y-197545493D02*
X285015103Y-197427269D01*
X285015103Y-197427269D02*
X284938477Y-197302693D01*
X284938477Y-197302693D02*
X284868744Y-197170281D01*
X284868744Y-197170281D02*
X284807082Y-197030954D01*
X284807082Y-197030954D02*
X284752260Y-196878813D01*
X284752260Y-196878813D02*
X284708526Y-196722486D01*
X284708526Y-196722486D02*
X284675120Y-196555815D01*
X284675120Y-196555815D02*
X284653743Y-196376730D01*
X284653743Y-196376730D02*
X284646952Y-196202889D01*
M02*
