M48
; DRILL file {KiCad (5.1.6)-1} date 01/10/21 23:05:15
; FORMAT={-:-/ absolute / inch / decimal}
; #@! TF.CreationDate,2021-01-10T23:05:15+01:00
; #@! TF.GenerationSoftware,Kicad,Pcbnew,(5.1.6)-1
; #@! TF.FileFunction,Plated,1,2,PTH
FMAT,2
INCH
T1C0.0157
T2C0.0300
T3C0.0335
T4C0.0394
T5C0.0394
T6C0.0512
T7C0.1772
%
G90
G05
T1
X6.51Y-2.34
X6.6Y-5.725
X6.7Y-5.925
X6.78Y-5.31
X6.85Y-7.39
X6.88Y-5.27
X7.05Y-7.49
X7.56Y-7.68
X7.6437Y-7.9508
X7.65Y-7.9
X7.81Y-5.37
X7.82Y-7.37
X7.8374Y-5.9876
X8.03Y-7.65
X8.075Y-5.75
X8.15Y-4.975
X8.26Y-7.385
X8.35Y-8.04
X8.4464Y-7.7286
X8.475Y-4.1477
X8.475Y-7.6
X8.5596Y-4.2286
X8.61Y-7.9404
X8.675Y-7.9084
X8.75Y-4.575
X8.8Y-4.6505
X8.85Y-7.55
X8.895Y-7.38
X8.9Y-5.675
X8.9Y-5.8154
X9.0Y-5.775
X9.065Y-7.465
X9.1096Y-7.925
X9.175Y-4.75
X9.2Y-7.925
X9.225Y-5.2
X9.225Y-5.4
X9.25Y-8.0596
X9.26Y-4.665
X9.3Y-5.4
X9.775Y-6.025
X9.9Y-7.35
X9.9823Y-5.7096
X10.05Y-5.4
X10.05Y-5.675
X10.05Y-5.7904
X10.45Y-5.55
X10.475Y-5.95
X10.65Y-5.875
X10.7Y-4.2
X10.725Y-7.225
X10.9Y-4.15
T2
X8.2Y-4.3
X8.2Y-4.8
X8.3Y-4.3
X8.3Y-4.8
X8.4Y-4.3
X8.4Y-4.8
X8.5Y-4.3
X8.5Y-4.8
X8.6Y-4.3
X8.6Y-4.8
X8.7Y-4.3
X8.7Y-4.8
X8.8Y-4.3
X8.8Y-4.8
X8.9Y-4.3
X8.9Y-4.8
X9.45Y-4.95
X9.45Y-5.05
X9.45Y-5.15
X9.45Y-5.25
X9.45Y-5.35
X9.45Y-5.45
X9.45Y-5.55
X9.45Y-5.65
X9.95Y-4.95
X9.95Y-5.05
X9.95Y-5.15
X9.95Y-5.25
X9.95Y-5.35
X9.95Y-5.45
X9.95Y-5.55
X9.95Y-5.65
X9.225Y-3.3
X9.225Y-3.4
X9.225Y-3.5
X9.225Y-3.6
X10.475Y-3.2
X10.475Y-3.3
X10.475Y-3.4
X10.475Y-3.5
X10.475Y-3.6
X8.15Y-3.65
X8.25Y-3.65
X8.35Y-3.65
X8.45Y-3.65
X7.1Y-4.95
X7.1Y-5.05
X7.1Y-5.15
X7.1Y-5.25
X7.1Y-5.35
X7.1Y-5.45
X7.1Y-5.55
X7.1Y-5.65
X7.6Y-4.95
X7.6Y-5.05
X7.6Y-5.15
X7.6Y-5.25
X7.6Y-5.35
X7.6Y-5.45
X7.6Y-5.55
X7.6Y-5.65
T3
X8.45Y-2.7557
X8.55Y-2.7557
X8.65Y-2.7557
X5.0616Y-3.0645
X5.1116Y-2.9779
X5.1616Y-2.8913
X5.9634Y-1.9
X6.05Y-1.85
X6.1366Y-1.8
X5.0116Y-6.9855
X5.0616Y-7.0721
X5.1116Y-7.1587
X4.5057Y-4.9
X4.5057Y-5.0
X4.5057Y-5.1
X8.45Y-9.0943
X8.55Y-9.0943
X8.65Y-9.0943
X6.4634Y-8.5
X6.55Y-8.55
X6.6366Y-8.6
X12.05Y-7.0366
X12.1Y-6.95
X12.15Y-6.8634
X10.5134Y-8.55
X10.6Y-8.5
X10.6866Y-8.45
X11.9384Y-2.8913
X11.9884Y-2.9779
X12.0384Y-3.0645
X12.5943Y-4.9
X12.5943Y-5.0
X12.5943Y-5.1
X11.0355Y-1.8616
X11.1221Y-1.9116
X11.2087Y-1.9616
T4
X9.125Y-5.075
X9.125Y-5.175
X9.125Y-5.275
X9.125Y-5.375
X9.125Y-5.475
X9.125Y-5.575
X10.725Y-3.225
X10.725Y-3.325
X10.725Y-3.425
X10.4Y-4.2
X10.4Y-4.3
X10.4Y-4.4
X8.25Y-3.425
X8.35Y-3.425
X8.45Y-3.425
X7.925Y-5.075
X7.925Y-5.175
X7.925Y-5.275
X7.925Y-5.375
X7.925Y-5.475
X7.925Y-5.575
X8.3Y-5.0
X8.4Y-5.0
X8.5Y-5.0
X8.6Y-5.0
X8.7Y-5.0
X8.8Y-5.0
T5
X7.29Y-5.9
X7.39Y-5.9
X7.49Y-5.9
X7.59Y-5.9
X7.65Y-7.8
X7.69Y-5.9
X7.75Y-7.8
X7.79Y-5.9
X7.85Y-7.8
X7.89Y-5.9
X7.95Y-7.8
X7.99Y-5.9
X8.05Y-7.8
X8.09Y-5.9
X8.15Y-7.8
X8.19Y-5.9
X8.25Y-7.8
X8.35Y-5.9
X8.35Y-7.8
X8.45Y-5.9
X8.55Y-5.9
X8.55Y-7.8
X8.65Y-5.9
X8.65Y-7.8
X8.75Y-5.9
X8.75Y-7.8
X8.85Y-5.9
X8.85Y-7.8
X8.95Y-5.9
X8.95Y-7.8
X9.05Y-5.9
X9.05Y-7.8
X9.15Y-7.8
X9.25Y-5.9
X9.25Y-7.8
X9.35Y-5.9
X9.45Y-5.9
X9.45Y-7.8
X9.55Y-5.9
X9.55Y-7.8
X9.65Y-5.9
X9.65Y-7.8
X9.75Y-5.9
X9.75Y-7.8
X9.85Y-5.9
X9.85Y-7.8
X9.95Y-5.9
X9.95Y-7.8
X10.05Y-7.8
X10.15Y-7.8
X10.25Y-5.9
X10.25Y-6.0
X10.25Y-6.1
X10.25Y-6.2
X10.25Y-6.3
X10.25Y-6.4
X10.25Y-6.5
X10.25Y-6.6
X10.25Y-6.7
X10.25Y-6.8
X10.25Y-6.9
X10.25Y-7.0
X10.25Y-7.1
X10.25Y-7.2
X10.25Y-7.3
X10.25Y-7.4
X10.25Y-7.5
X10.25Y-7.6
X10.35Y-5.9
X10.35Y-6.0
X10.35Y-6.1
X10.35Y-6.2
X10.35Y-6.3
X10.35Y-6.4
X10.35Y-6.5
X10.35Y-6.6
X10.35Y-6.7
X10.35Y-6.8
X10.35Y-6.9
X10.35Y-7.0
X10.35Y-7.1
X10.35Y-7.2
X10.35Y-7.3
X10.35Y-7.4
X10.35Y-7.5
X10.35Y-7.6
T6
X10.075Y-3.975
X10.075Y-4.575
T7
X11.1541Y-3.8023
X11.2959Y-4.0477
T0
M30
