M48
; DRILL file {KiCad 5.1.5+dfsg1-2build2} date Mon 24 Jan 2022 10:53:02 AM CET
; FORMAT={-:-/ absolute / metric / decimal}
; #@! TF.CreationDate,2022-01-24T10:53:02+01:00
; #@! TF.GenerationSoftware,Kicad,Pcbnew,5.1.5+dfsg1-2build2
; #@! TF.FileFunction,Plated,1,2,PTH
FMAT,2
METRIC
T1C0.400
T2C0.762
T3C0.850
T4C1.000
T5C1.001
T6C1.300
T7C4.500
%
G90
G05
T1
X165.354Y-59.436
X167.64Y-145.415
X170.18Y-150.495
X172.212Y-134.874
X173.99Y-187.706
X174.752Y-133.858
X179.07Y-190.246
X192.024Y-195.072
X194.149Y-201.95
X194.31Y-200.66
X198.374Y-136.398
X198.628Y-187.198
X199.069Y-152.086
X203.962Y-194.31
X205.105Y-146.05
X207.01Y-126.365
X209.804Y-187.579
X212.09Y-204.216
X214.539Y-196.306
X215.265Y-105.352
X215.265Y-193.04
X217.413Y-107.406
X218.694Y-201.687
X220.345Y-200.874
X222.25Y-116.205
X223.52Y-118.122
X224.79Y-191.77
X225.933Y-187.452
X226.06Y-144.145
X226.06Y-147.712
X228.6Y-146.685
X230.251Y-189.611
X231.383Y-201.295
X233.045Y-120.65
X233.68Y-201.295
X234.315Y-132.08
X234.315Y-137.16
X234.95Y-204.713
X235.205Y-118.49
X236.22Y-137.16
X248.285Y-153.035
X251.46Y-186.69
X253.551Y-145.023
X255.27Y-137.16
X255.27Y-144.145
X255.27Y-147.077
X265.43Y-140.97
X266.065Y-151.13
X270.51Y-149.225
X271.78Y-106.68
X272.415Y-183.515
X276.86Y-105.41
T2
X234.315Y-83.82
X234.315Y-86.36
X234.315Y-88.9
X234.315Y-91.44
X266.065Y-81.28
X266.065Y-83.82
X266.065Y-86.36
X266.065Y-88.9
X266.065Y-91.44
X240.03Y-125.73
X240.03Y-128.27
X240.03Y-130.81
X240.03Y-133.35
X240.03Y-135.89
X240.03Y-138.43
X240.03Y-140.97
X240.03Y-143.51
X252.73Y-125.73
X252.73Y-128.27
X252.73Y-130.81
X252.73Y-133.35
X252.73Y-135.89
X252.73Y-138.43
X252.73Y-140.97
X252.73Y-143.51
X180.34Y-125.73
X180.34Y-128.27
X180.34Y-130.81
X180.34Y-133.35
X180.34Y-135.89
X180.34Y-138.43
X180.34Y-140.97
X180.34Y-143.51
X193.04Y-125.73
X193.04Y-128.27
X193.04Y-130.81
X193.04Y-133.35
X193.04Y-135.89
X193.04Y-138.43
X193.04Y-140.97
X193.04Y-143.51
X207.01Y-92.71
X209.55Y-92.71
X212.09Y-92.71
X214.63Y-92.71
X208.28Y-109.22
X208.28Y-121.92
X210.82Y-109.22
X210.82Y-121.92
X213.36Y-109.22
X213.36Y-121.92
X215.9Y-109.22
X215.9Y-121.92
X218.44Y-109.22
X218.44Y-121.92
X220.98Y-109.22
X220.98Y-121.92
X223.52Y-109.22
X223.52Y-121.92
X226.06Y-109.22
X226.06Y-121.92
T3
X214.63Y-230.995
X217.17Y-230.995
X219.71Y-230.995
X164.17Y-215.9
X166.37Y-217.17
X168.57Y-218.44
X128.566Y-77.837
X129.836Y-75.638
X131.106Y-73.438
X114.445Y-124.46
X114.445Y-127.0
X114.445Y-129.54
X267.04Y-217.17
X269.24Y-215.9
X271.44Y-214.63
X280.303Y-47.286
X282.502Y-48.556
X284.702Y-49.826
X303.234Y-73.438
X304.504Y-75.638
X305.774Y-77.837
X319.895Y-124.46
X319.895Y-127.0
X319.895Y-129.54
X151.47Y-48.26
X153.67Y-46.99
X155.87Y-45.72
X214.63Y-69.995
X217.17Y-69.995
X219.71Y-69.995
X127.296Y-177.433
X128.566Y-179.632
X129.836Y-181.832
X306.07Y-178.73
X307.34Y-176.53
X308.61Y-174.33
T4
X231.775Y-128.905
X231.775Y-131.445
X231.775Y-133.985
X231.775Y-136.525
X231.775Y-139.065
X231.775Y-141.605
X210.82Y-127.0
X213.36Y-127.0
X215.9Y-127.0
X218.44Y-127.0
X220.98Y-127.0
X223.52Y-127.0
X209.55Y-86.995
X212.09Y-86.995
X214.63Y-86.995
X264.16Y-106.68
X264.16Y-109.22
X264.16Y-111.76
X272.415Y-81.915
X272.415Y-84.455
X272.415Y-86.995
X201.295Y-128.905
X201.295Y-131.445
X201.295Y-133.985
X201.295Y-136.525
X201.295Y-139.065
X201.295Y-141.605
T5
X185.166Y-149.86
X187.706Y-149.86
X190.246Y-149.86
X192.786Y-149.86
X194.31Y-198.12
X195.326Y-149.86
X196.85Y-198.12
X197.866Y-149.86
X199.39Y-198.12
X200.406Y-149.86
X201.93Y-198.12
X202.946Y-149.86
X204.47Y-198.12
X205.486Y-149.86
X207.01Y-198.12
X208.026Y-149.86
X209.55Y-198.12
X212.09Y-149.86
X212.09Y-198.12
X214.63Y-149.86
X217.17Y-149.86
X217.17Y-198.12
X219.71Y-149.86
X219.71Y-198.12
X222.25Y-149.86
X222.25Y-198.12
X224.79Y-149.86
X224.79Y-198.12
X227.33Y-149.86
X227.33Y-198.12
X229.87Y-149.86
X229.87Y-198.12
X232.41Y-198.12
X234.95Y-149.86
X234.95Y-198.12
X237.49Y-149.86
X240.03Y-149.86
X240.03Y-198.12
X242.57Y-149.86
X242.57Y-198.12
X245.11Y-149.86
X245.11Y-198.12
X247.65Y-149.86
X247.65Y-198.12
X250.19Y-149.86
X250.19Y-198.12
X252.73Y-149.86
X252.73Y-198.12
X255.27Y-198.12
X257.81Y-198.12
X260.35Y-149.86
X260.35Y-152.4
X260.35Y-154.94
X260.35Y-157.48
X260.35Y-160.02
X260.35Y-162.56
X260.35Y-165.1
X260.35Y-167.64
X260.35Y-170.18
X260.35Y-172.72
X260.35Y-175.26
X260.35Y-177.8
X260.35Y-180.34
X260.35Y-182.88
X260.35Y-185.42
X260.35Y-187.96
X260.35Y-190.5
X260.35Y-193.04
X262.89Y-149.86
X262.89Y-152.4
X262.89Y-154.94
X262.89Y-157.48
X262.89Y-160.02
X262.89Y-162.56
X262.89Y-165.1
X262.89Y-167.64
X262.89Y-170.18
X262.89Y-172.72
X262.89Y-175.26
X262.89Y-177.8
X262.89Y-180.34
X262.89Y-182.88
X262.89Y-185.42
X262.89Y-187.96
X262.89Y-190.5
X262.89Y-193.04
T6
X255.905Y-100.965
X255.905Y-116.205
T7
X283.315Y-96.577
X286.915Y-102.813
T0
M30
