G04 #@! TF.GenerationSoftware,KiCad,Pcbnew,5.1.5+dfsg1-2build2*
G04 #@! TF.CreationDate,2022-01-24T10:52:28+01:00*
G04 #@! TF.ProjectId,Robocup_PCB,526f626f-6375-4705-9f50-43422e6b6963,v1*
G04 #@! TF.SameCoordinates,Original*
G04 #@! TF.FileFunction,Legend,Bot*
G04 #@! TF.FilePolarity,Positive*
%FSLAX46Y46*%
G04 Gerber Fmt 4.6, Leading zero omitted, Abs format (unit mm)*
G04 Created by KiCad (PCBNEW 5.1.5+dfsg1-2build2) date 2022-01-24 10:52:28*
%MOMM*%
%LPD*%
G04 APERTURE LIST*
%ADD10O,2.700000X2.700000*%
%ADD11R,2.700000X2.700000*%
%ADD12C,1.624000*%
%ADD13O,1.800000X1.800000*%
%ADD14R,1.800000X1.800000*%
%ADD15C,3.297860*%
%ADD16O,1.624000X2.297100*%
%ADD17O,2.098980X1.636700*%
%ADD18O,2.098980X1.639240*%
%ADD19O,1.624000X2.299640*%
%ADD20C,5.616000*%
%ADD21C,0.100000*%
G04 APERTURE END LIST*
%LPC*%
D10*
X255905000Y-100965000D03*
D11*
X255905000Y-116205000D03*
D12*
X219710000Y-69995000D03*
X217170000Y-69995000D03*
X214630000Y-69995000D03*
X284702205Y-49825721D03*
X282502500Y-48555721D03*
X280302795Y-47285721D03*
X305774279Y-77837205D03*
X304504279Y-75637500D03*
X303234279Y-73437795D03*
X319895000Y-129540000D03*
X319895000Y-127000000D03*
X319895000Y-124460000D03*
X306070000Y-178729705D03*
X307340000Y-176530000D03*
X308610000Y-174330295D03*
X267040295Y-217170000D03*
X269240000Y-215900000D03*
X271439705Y-214630000D03*
X214630000Y-230995000D03*
X217170000Y-230995000D03*
X219710000Y-230995000D03*
X164170295Y-215900000D03*
X166370000Y-217170000D03*
X168569705Y-218440000D03*
X127295721Y-177432795D03*
X128565721Y-179632500D03*
X129835721Y-181832205D03*
X114445000Y-124460000D03*
X114445000Y-127000000D03*
X114445000Y-129540000D03*
X131105721Y-73437795D03*
X129835721Y-75637500D03*
X128565721Y-77837205D03*
X155869705Y-45720000D03*
X153670000Y-46990000D03*
X151470295Y-48260000D03*
D13*
X231775000Y-128905000D03*
X231775000Y-131445000D03*
X231775000Y-133985000D03*
X231775000Y-136525000D03*
X231775000Y-139065000D03*
D14*
X231775000Y-141605000D03*
D13*
X210820000Y-127000000D03*
X213360000Y-127000000D03*
X215900000Y-127000000D03*
X218440000Y-127000000D03*
X220980000Y-127000000D03*
D14*
X223520000Y-127000000D03*
D13*
X201295000Y-141605000D03*
X201295000Y-139065000D03*
X201295000Y-136525000D03*
X201295000Y-133985000D03*
X201295000Y-131445000D03*
D14*
X201295000Y-128905000D03*
D15*
X232410000Y-165100000D03*
D16*
X185166000Y-149860000D03*
X187706000Y-149860000D03*
D15*
X181610000Y-149860000D03*
X256540000Y-149860000D03*
D16*
X190246000Y-149860000D03*
X192786000Y-149860000D03*
X195326000Y-149860000D03*
X197866000Y-149860000D03*
X200406000Y-149860000D03*
X202946000Y-149860000D03*
X205486000Y-149860000D03*
X208026000Y-149860000D03*
X212090000Y-149860000D03*
X214630000Y-149860000D03*
X217170000Y-149860000D03*
X219710000Y-149860000D03*
X222250000Y-149860000D03*
X224790000Y-149860000D03*
X227330000Y-149860000D03*
X229870000Y-149860000D03*
X234950000Y-149860000D03*
X237490000Y-149860000D03*
X240030000Y-149860000D03*
X242570000Y-149860000D03*
X245110000Y-149860000D03*
X247650000Y-149860000D03*
X250190000Y-149860000D03*
X252730000Y-149860000D03*
D17*
X263136380Y-149860000D03*
X263136380Y-152400000D03*
X263136380Y-154940000D03*
X263136380Y-157480000D03*
X263136380Y-160020000D03*
X263136380Y-162560000D03*
X263136380Y-165100000D03*
X263136380Y-167640000D03*
X263136380Y-170180000D03*
X263136380Y-172720000D03*
X263136380Y-175260000D03*
X263136380Y-177800000D03*
X263136380Y-180340000D03*
X263136380Y-182880000D03*
X263136380Y-185420000D03*
X263136380Y-187960000D03*
X263136380Y-190500000D03*
X263136380Y-193040000D03*
D18*
X260101080Y-149860000D03*
X260101080Y-152400000D03*
X260101080Y-154940000D03*
X260101080Y-157480000D03*
X260101080Y-160020000D03*
X260101080Y-162560000D03*
X260101080Y-165100000D03*
X260101080Y-167640000D03*
X260101080Y-170180000D03*
X260101080Y-172720000D03*
X260101080Y-175260000D03*
X260101080Y-177800000D03*
X260101080Y-180340000D03*
X260101080Y-182880000D03*
X260101080Y-185420000D03*
X260101080Y-187960000D03*
X260101080Y-190500000D03*
X260101080Y-193040000D03*
D15*
X262890000Y-198120000D03*
X232410000Y-193040000D03*
X180340000Y-198120000D03*
D16*
X257810000Y-198120000D03*
X255270000Y-198120000D03*
X252730000Y-198120000D03*
X250190000Y-198120000D03*
X247650000Y-198120000D03*
D19*
X245110000Y-198120000D03*
X242570000Y-198120000D03*
X240030000Y-198120000D03*
X234950000Y-198120000D03*
X232410000Y-198120000D03*
X229870000Y-198120000D03*
X227330000Y-198120000D03*
X224790000Y-198120000D03*
X222250000Y-198120000D03*
X219710000Y-198120000D03*
X217170000Y-198120000D03*
X212090000Y-198120000D03*
X209550000Y-198120000D03*
X207010000Y-198120000D03*
X204470000Y-198120000D03*
X201930000Y-198120000D03*
X199390000Y-198120000D03*
X196850000Y-198120000D03*
X194310000Y-198120000D03*
D20*
X286915000Y-102812691D03*
D21*
G36*
X279479201Y-95549510D02*
G01*
X284342799Y-92741510D01*
X287150799Y-97605108D01*
X282287201Y-100413108D01*
X279479201Y-95549510D01*
G37*
D13*
X214630000Y-86995000D03*
X212090000Y-86995000D03*
D14*
X209550000Y-86995000D03*
D12*
X240030000Y-143510000D03*
X240030000Y-140970000D03*
X240030000Y-138430000D03*
X240030000Y-135890000D03*
X240030000Y-133350000D03*
X240030000Y-130810000D03*
X240030000Y-128270000D03*
X240030000Y-125730000D03*
X252730000Y-125730000D03*
X252730000Y-128270000D03*
X252730000Y-130810000D03*
X252730000Y-133350000D03*
X252730000Y-135890000D03*
X252730000Y-138430000D03*
X252730000Y-140970000D03*
X252730000Y-143510000D03*
X226060000Y-121920000D03*
X223520000Y-121920000D03*
X220980000Y-121920000D03*
X218440000Y-121920000D03*
X215900000Y-121920000D03*
X213360000Y-121920000D03*
X210820000Y-121920000D03*
X208280000Y-121920000D03*
X208280000Y-109220000D03*
X210820000Y-109220000D03*
X213360000Y-109220000D03*
X215900000Y-109220000D03*
X218440000Y-109220000D03*
X220980000Y-109220000D03*
X223520000Y-109220000D03*
X226060000Y-109220000D03*
X207010000Y-92710000D03*
X209550000Y-92710000D03*
X212090000Y-92710000D03*
X214630000Y-92710000D03*
X234315000Y-83820000D03*
X234315000Y-86360000D03*
X234315000Y-88900000D03*
X234315000Y-91440000D03*
X266065000Y-81280000D03*
X266065000Y-83820000D03*
X266065000Y-86360000D03*
X266065000Y-88900000D03*
X266065000Y-91440000D03*
X193040000Y-125730000D03*
X193040000Y-128270000D03*
X193040000Y-130810000D03*
X193040000Y-133350000D03*
X193040000Y-135890000D03*
X193040000Y-138430000D03*
X193040000Y-140970000D03*
X193040000Y-143510000D03*
X180340000Y-143510000D03*
X180340000Y-140970000D03*
X180340000Y-138430000D03*
X180340000Y-135890000D03*
X180340000Y-133350000D03*
X180340000Y-130810000D03*
X180340000Y-128270000D03*
X180340000Y-125730000D03*
D13*
X272415000Y-86995000D03*
X272415000Y-84455000D03*
D14*
X272415000Y-81915000D03*
X264160000Y-106680000D03*
D13*
X264160000Y-109220000D03*
X264160000Y-111760000D03*
M02*
