M48
; DRILL file {KiCad (5.1.6)-1} date 10/31/21 23:30:27
; FORMAT={-:-/ absolute / metric / decimal}
; #@! TF.CreationDate,2021-10-31T23:30:27+01:00
; #@! TF.GenerationSoftware,Kicad,Pcbnew,(5.1.6)-1
FMAT,2
METRIC
T1C0.200
T2C0.300
T3C0.400
T4C2.184
%
G90
G05
T1
X117.856Y-107.442
X119.507Y-104.394
X124.46Y-99.568
X125.101Y-89.535
X125.134Y-95.044
X131.578Y-95.752
X132.207Y-95.631
X133.223Y-97.409
X133.294Y-103.255
X133.35Y-93.472
X133.898Y-95.507
X135.509Y-94.581
X138.185Y-95.371
X138.994Y-98.055
X139.457Y-103.251
X140.09Y-101.972
X140.843Y-105.02
X145.034Y-101.6
X145.796Y-104.253
X146.431Y-93.091
X147.277Y-95.659
X147.32Y-91.595
X149.973Y-105.459
X150.157Y-97.762
X150.157Y-101.826
T2
X134.844Y-95.88
X134.844Y-97.66
X134.844Y-99.44
X134.844Y-101.22
X134.844Y-103.0
X134.844Y-104.78
X136.144Y-95.88
X136.144Y-97.66
X136.144Y-99.44
X136.144Y-101.22
X136.144Y-103.0
X136.144Y-104.78
X137.444Y-95.88
X137.444Y-97.66
X137.444Y-99.44
X137.444Y-101.22
X137.444Y-103.0
X137.444Y-104.78
T3
X107.95Y-104.775
X107.95Y-105.664
X107.95Y-106.553
X107.95Y-107.442
X108.077Y-88.773
X108.077Y-89.662
X108.077Y-90.551
X108.077Y-91.44
X108.839Y-104.775
X108.839Y-105.664
X108.839Y-106.553
X108.839Y-107.442
X108.966Y-88.773
X108.966Y-89.662
X108.966Y-90.551
X108.966Y-91.44
X112.649Y-105.537
X112.649Y-106.426
X112.776Y-89.789
X112.776Y-90.678
X113.538Y-105.537
X113.538Y-106.426
X113.665Y-89.789
X113.665Y-90.678
X114.427Y-105.537
X114.427Y-106.426
X114.554Y-89.789
X114.554Y-90.678
X116.332Y-90.043
X119.957Y-106.734
X120.849Y-106.734
X121.738Y-106.734
X122.627Y-106.734
X123.516Y-106.734
X124.517Y-106.734
X128.016Y-93.98
X128.016Y-98.044
X128.016Y-99.568
X128.016Y-101.092
X140.97Y-108.209
X143.51Y-100.584
X147.828Y-102.743
X147.828Y-103.632
X147.955Y-97.917
X147.955Y-98.806
X147.955Y-99.695
X148.209Y-108.458
X148.717Y-102.743
X148.717Y-103.632
X148.844Y-97.917
X148.844Y-98.806
X148.844Y-99.695
X149.987Y-109.093
X151.573Y-106.745
X151.573Y-107.761
X151.573Y-108.65
X151.573Y-109.539
X151.573Y-110.428
X151.573Y-111.317
X151.573Y-112.206
X152.4Y-75.565
X152.4Y-80.645
X153.797Y-85.598
X153.797Y-109.728
X154.178Y-101.473
X154.178Y-102.362
X154.178Y-103.251
X154.178Y-104.14
X155.067Y-101.473
X155.067Y-102.362
X155.067Y-103.251
X155.067Y-104.14
X157.48Y-75.565
X157.48Y-80.645
X157.48Y-114.935
X157.48Y-120.015
X157.48Y-125.095
X158.877Y-85.598
X158.877Y-109.728
X162.56Y-75.565
X162.56Y-80.645
X162.56Y-114.935
X162.56Y-120.015
X162.56Y-125.095
X163.957Y-85.598
X163.957Y-109.728
X167.64Y-75.565
X167.64Y-80.645
X167.64Y-114.935
X167.64Y-120.015
X167.64Y-125.095
X169.037Y-85.598
X172.72Y-75.565
X172.72Y-80.645
X172.72Y-114.935
X172.72Y-120.015
X172.72Y-125.095
X174.117Y-85.598
X177.8Y-75.565
X177.8Y-80.645
X177.8Y-114.935
X177.8Y-120.015
X177.8Y-125.095
X182.118Y-75.565
X182.118Y-80.645
X182.372Y-114.935
X182.372Y-120.015
X182.372Y-125.095
T4
X180.975Y-108.966
X180.911Y-92.265
X101.498Y-106.734
X101.498Y-95.504
T0
M30
