%TF.GenerationSoftware,KiCad,Pcbnew,(5.1.6)-1*%
%TF.CreationDate,2021-10-31T23:30:24+01:00*%
%TF.ProjectId,LiPo_12_Driver,4c69506f-5f31-4325-9f44-72697665722e,rev?*%
%TF.SameCoordinates,Original*%
%TF.FileFunction,Copper,L2,Bot*%
%TF.FilePolarity,Positive*%
%FSLAX46Y46*%
G04 Gerber Fmt 4.6, Leading zero omitted, Abs format (unit mm)*
G04 Created by KiCad (PCBNEW (5.1.6)-1) date 2021-10-31 23:30:24*
%MOMM*%
%LPD*%
G01*
G04 APERTURE LIST*
%TA.AperFunction,ComponentPad*%
%ADD10R,3.500000X3.500000*%
%TD*%
%TA.AperFunction,ViaPad*%
%ADD11C,0.600000*%
%TD*%
%TA.AperFunction,Conductor*%
%ADD12R,3.400000X9.500000*%
%TD*%
%TA.AperFunction,ViaPad*%
%ADD13C,0.400000*%
%TD*%
%TA.AperFunction,ViaPad*%
%ADD14C,0.800000*%
%TD*%
%TA.AperFunction,Conductor*%
%ADD15C,0.200000*%
%TD*%
%TA.AperFunction,Conductor*%
%ADD16C,1.750000*%
%TD*%
%TA.AperFunction,Conductor*%
%ADD17C,0.127000*%
%TD*%
%TA.AperFunction,Conductor*%
%ADD18C,0.254000*%
%TD*%
G04 APERTURE END LIST*
D10*
%TO.P,J2,1*%
%TO.N,GND*%
X101498400Y-106734000D03*
%TD*%
%TO.P,J3,1*%
%TO.N,+VDC*%
X101498400Y-95504000D03*
%TD*%
%TO.P,J4,1*%
%TO.N,GND*%
X180975000Y-108966000D03*
%TD*%
%TO.P,J1,1*%
%TO.N,VOSNS*%
X180911500Y-92265500D03*
%TD*%
D11*
%TO.N,GND*%
%TO.C,U1*%
X134844000Y-95880000D03*
X136144000Y-95880000D03*
X137444000Y-95880000D03*
X137444000Y-97660000D03*
X136144000Y-97660000D03*
X134844000Y-97660000D03*
X137444000Y-99440000D03*
X136144000Y-99440000D03*
X134844000Y-99440000D03*
X137444000Y-101220000D03*
X136144000Y-101220000D03*
X134844000Y-101220000D03*
X137444000Y-103000000D03*
X136144000Y-103000000D03*
X134844000Y-103000000D03*
X137444000Y-104780000D03*
X136144000Y-104780000D03*
X134844000Y-104780000D03*
D12*
X136144000Y-100330000D03*
%TD*%
D13*
%TO.N,+VDC*%
X133223000Y-97409000D03*
X132207000Y-95631000D03*
X124460000Y-99568000D03*
%TO.N,GND*%
X133350000Y-93472000D03*
D14*
X112649000Y-106426000D03*
X113538000Y-106426000D03*
X114427000Y-106426000D03*
X114427000Y-105537000D03*
X113538000Y-105537000D03*
X112649000Y-105537000D03*
X107950000Y-105664000D03*
X107950000Y-106553000D03*
X107950000Y-107442000D03*
X108839000Y-107442000D03*
X108839000Y-106553000D03*
X108839000Y-105664000D03*
X108839000Y-104775000D03*
X107950000Y-104775000D03*
X116332000Y-90043000D03*
X112776000Y-90678000D03*
X113665000Y-90678000D03*
X114554000Y-90678000D03*
X114554000Y-89789000D03*
X113665000Y-89789000D03*
X112776000Y-89789000D03*
X108966000Y-88773000D03*
X108966000Y-89662000D03*
X108966000Y-90551000D03*
X108966000Y-91440000D03*
X108077000Y-91440000D03*
X108077000Y-90551000D03*
X108077000Y-89662000D03*
X108077000Y-88773000D03*
X143510000Y-100584000D03*
X128016000Y-93980000D03*
X128016000Y-101092000D03*
X128016000Y-99568000D03*
X128016000Y-98044000D03*
X163957000Y-85598000D03*
X182372000Y-125095000D03*
X177800000Y-125095000D03*
X172720000Y-125095000D03*
X167640000Y-125095000D03*
X162560000Y-125095000D03*
X157480000Y-125095000D03*
X157480000Y-120015000D03*
X157480000Y-114935000D03*
X153797000Y-109728000D03*
X158877000Y-109728000D03*
X163957000Y-109728000D03*
X172720000Y-114935000D03*
X177800000Y-114935000D03*
X182372000Y-114935000D03*
X182372000Y-120015000D03*
X177800000Y-120015000D03*
X172720000Y-120015000D03*
X167640000Y-120015000D03*
X162560000Y-120015000D03*
X162560000Y-114935000D03*
X167640000Y-114935000D03*
X182118000Y-75565000D03*
X177800000Y-75565000D03*
X172720000Y-75565000D03*
X167640000Y-75565000D03*
X162560000Y-75565000D03*
X157480000Y-75565000D03*
X152400000Y-75565000D03*
X152400000Y-80645000D03*
X157480000Y-80645000D03*
X162560000Y-80645000D03*
X167640000Y-80645000D03*
X172720000Y-80645000D03*
X177800000Y-80645000D03*
X182118000Y-80645000D03*
X174117000Y-85598000D03*
X169037000Y-85598000D03*
X158877000Y-85598000D03*
%TO.N,VOSNS*%
X153797000Y-85598000D03*
%TO.N,GND*%
X149987000Y-109093000D03*
D13*
%TO.N,Net-(C12-Pad2)*%
X117856000Y-107442000D03*
X131577700Y-95752300D03*
D14*
%TO.N,Net-(C14-Pad1)*%
X148209000Y-108458000D03*
X140970000Y-108209500D03*
D13*
%TO.N,Net-(C14-Pad2)*%
X140843000Y-105020000D03*
X149973000Y-105459500D03*
D14*
%TO.N,SW2*%
X147828000Y-102743000D03*
X148717000Y-102743000D03*
X148717000Y-103632000D03*
X147828000Y-103632000D03*
X147955000Y-99695000D03*
X148844000Y-99695000D03*
X148844000Y-98806000D03*
X147955000Y-98806000D03*
X147955000Y-97917000D03*
X148844000Y-97917000D03*
X154178000Y-104140000D03*
X155067000Y-104140000D03*
X155067000Y-103251000D03*
X154178000Y-103251000D03*
X154178000Y-102362000D03*
X155067000Y-102362000D03*
X155067000Y-101473000D03*
X154178000Y-101473000D03*
D13*
%TO.N,VOSNS*%
X133294000Y-103255000D03*
X133897561Y-95507500D03*
X135509000Y-94580500D03*
X146431000Y-93091000D03*
D14*
%TO.N,Net-(D3-Pad2)*%
X119957500Y-106734500D03*
X120849500Y-106734500D03*
X124517500Y-106734500D03*
X121738500Y-106734500D03*
X122627500Y-106734500D03*
X123516500Y-106734500D03*
X151573010Y-106744990D03*
X151573010Y-107760990D03*
X151573010Y-108649990D03*
X151573010Y-109538990D03*
X151573010Y-110427990D03*
X151573010Y-111316990D03*
X151573010Y-112205990D03*
D13*
%TO.N,HDRV2*%
X147320000Y-91594502D03*
X147277000Y-95658502D03*
X140089846Y-101972154D03*
%TO.N,LDRV2*%
X145034000Y-101600000D03*
X150157000Y-101826498D03*
X150157000Y-97762498D03*
%TO.N,Net-(R4-Pad1)*%
X139457500Y-103251000D03*
X145796000Y-104253000D03*
%TO.N,Net-(Q3-Pad2)*%
X119507000Y-104394000D03*
X138994000Y-98055000D03*
%TO.N,Net-(Q1-Pad2)*%
X138185264Y-95371336D03*
X125134000Y-95044000D03*
X125101000Y-89535000D03*
%TD*%
D15*
%TO.N,+VDC*%
X133223000Y-97409000D02*
X132207000Y-96393000D01*
X132207000Y-96393000D02*
X132207000Y-95631000D01*
X132207000Y-96393000D02*
X127635000Y-96393000D01*
X127635000Y-96393000D02*
X124460000Y-99568000D01*
%TO.N,Net-(C12-Pad2)*%
X117856000Y-107442000D02*
X117856000Y-105304998D01*
X117856000Y-105304998D02*
X127408698Y-95752300D01*
X127408698Y-95752300D02*
X131577700Y-95752300D01*
%TO.N,Net-(C14-Pad1)*%
X148209000Y-108458000D02*
X141218500Y-108458000D01*
X141218500Y-108458000D02*
X140970000Y-108209500D01*
%TO.N,Net-(C14-Pad2)*%
X140843000Y-105020000D02*
X149533500Y-105020000D01*
X149533500Y-105020000D02*
X149973000Y-105459500D01*
%TO.N,VOSNS*%
X133294000Y-103255000D02*
X133897561Y-102651439D01*
X133897561Y-102651439D02*
X133897561Y-95507500D01*
X135509000Y-94580500D02*
X144941500Y-94580500D01*
X144941500Y-94580500D02*
X146431000Y-93091000D01*
D16*
%TO.N,Net-(D3-Pad2)*%
X151562520Y-106734500D02*
X151573010Y-106744990D01*
X119957500Y-106734500D02*
X151562520Y-106734500D01*
X151573010Y-106744990D02*
X151573010Y-112205990D01*
D17*
%TO.N,HDRV2*%
X147320000Y-91594502D02*
X147320000Y-95615502D01*
X147320000Y-95615502D02*
X147277000Y-95658502D01*
X147277000Y-95658502D02*
X146403498Y-95658502D01*
X146403498Y-95658502D02*
X140089846Y-101972154D01*
%TO.N,LDRV2*%
X150157000Y-101826498D02*
X150157000Y-97762498D01*
X145260498Y-101826498D02*
X145034000Y-101600000D01*
X150157000Y-101826498D02*
X145260498Y-101826498D01*
D15*
%TO.N,Net-(R4-Pad1)*%
X139457500Y-103251000D02*
X140459500Y-104253000D01*
X140459500Y-104253000D02*
X145796000Y-104253000D01*
D17*
%TO.N,Net-(Q3-Pad2)*%
X138054801Y-105343501D02*
X138994000Y-104404302D01*
X138994000Y-104404302D02*
X138994000Y-98055000D01*
X120456501Y-105343501D02*
X138054801Y-105343501D01*
X119507000Y-104394000D02*
X120456501Y-105343501D01*
%TO.N,Net-(Q1-Pad2)*%
X138185264Y-95371336D02*
X137857928Y-95044000D01*
X137857928Y-95044000D02*
X125134000Y-95044000D01*
X125134000Y-95044000D02*
X125134000Y-89568000D01*
X125134000Y-89568000D02*
X125101000Y-89535000D01*
%TD*%
D18*
%TO.N,SW2*%
G36*
X152781000Y-100330000D02*
G01*
X152783440Y-100354776D01*
X152790667Y-100378601D01*
X152802403Y-100400557D01*
X152818197Y-100419803D01*
X152837443Y-100435597D01*
X152859399Y-100447333D01*
X152883224Y-100454560D01*
X152908000Y-100457000D01*
X156083000Y-100457000D01*
X156083000Y-104775000D01*
X149892368Y-104775000D01*
X149850268Y-104732900D01*
X149836895Y-104716605D01*
X149771876Y-104663245D01*
X149697696Y-104623595D01*
X149617207Y-104599178D01*
X149554478Y-104593000D01*
X149554467Y-104593000D01*
X149533500Y-104590935D01*
X149512533Y-104593000D01*
X146939000Y-104593000D01*
X146939000Y-102216998D01*
X149802209Y-102216998D01*
X149821057Y-102235846D01*
X149907372Y-102293519D01*
X150003280Y-102333246D01*
X150105095Y-102353498D01*
X150208905Y-102353498D01*
X150310720Y-102333246D01*
X150406628Y-102293519D01*
X150492943Y-102235846D01*
X150566348Y-102162441D01*
X150624021Y-102076126D01*
X150663748Y-101980218D01*
X150684000Y-101878403D01*
X150684000Y-101774593D01*
X150663748Y-101672778D01*
X150624021Y-101576870D01*
X150566348Y-101490555D01*
X150547500Y-101471707D01*
X150547500Y-98117289D01*
X150566348Y-98098441D01*
X150624021Y-98012126D01*
X150663748Y-97916218D01*
X150684000Y-97814403D01*
X150684000Y-97710593D01*
X150663748Y-97608778D01*
X150624021Y-97512870D01*
X150566348Y-97426555D01*
X150492943Y-97353150D01*
X150406628Y-97295477D01*
X150310720Y-97255750D01*
X150208905Y-97235498D01*
X150105095Y-97235498D01*
X150003280Y-97255750D01*
X149907372Y-97295477D01*
X149821057Y-97353150D01*
X149747652Y-97426555D01*
X149689979Y-97512870D01*
X149650252Y-97608778D01*
X149630000Y-97710593D01*
X149630000Y-97814403D01*
X149650252Y-97916218D01*
X149689979Y-98012126D01*
X149747652Y-98098441D01*
X149766501Y-98117290D01*
X149766500Y-101435998D01*
X146939000Y-101435998D01*
X146939000Y-96901000D01*
X152781000Y-96901000D01*
X152781000Y-100330000D01*
G37*
X152781000Y-100330000D02*
X152783440Y-100354776D01*
X152790667Y-100378601D01*
X152802403Y-100400557D01*
X152818197Y-100419803D01*
X152837443Y-100435597D01*
X152859399Y-100447333D01*
X152883224Y-100454560D01*
X152908000Y-100457000D01*
X156083000Y-100457000D01*
X156083000Y-104775000D01*
X149892368Y-104775000D01*
X149850268Y-104732900D01*
X149836895Y-104716605D01*
X149771876Y-104663245D01*
X149697696Y-104623595D01*
X149617207Y-104599178D01*
X149554478Y-104593000D01*
X149554467Y-104593000D01*
X149533500Y-104590935D01*
X149512533Y-104593000D01*
X146939000Y-104593000D01*
X146939000Y-102216998D01*
X149802209Y-102216998D01*
X149821057Y-102235846D01*
X149907372Y-102293519D01*
X150003280Y-102333246D01*
X150105095Y-102353498D01*
X150208905Y-102353498D01*
X150310720Y-102333246D01*
X150406628Y-102293519D01*
X150492943Y-102235846D01*
X150566348Y-102162441D01*
X150624021Y-102076126D01*
X150663748Y-101980218D01*
X150684000Y-101878403D01*
X150684000Y-101774593D01*
X150663748Y-101672778D01*
X150624021Y-101576870D01*
X150566348Y-101490555D01*
X150547500Y-101471707D01*
X150547500Y-98117289D01*
X150566348Y-98098441D01*
X150624021Y-98012126D01*
X150663748Y-97916218D01*
X150684000Y-97814403D01*
X150684000Y-97710593D01*
X150663748Y-97608778D01*
X150624021Y-97512870D01*
X150566348Y-97426555D01*
X150492943Y-97353150D01*
X150406628Y-97295477D01*
X150310720Y-97255750D01*
X150208905Y-97235498D01*
X150105095Y-97235498D01*
X150003280Y-97255750D01*
X149907372Y-97295477D01*
X149821057Y-97353150D01*
X149747652Y-97426555D01*
X149689979Y-97512870D01*
X149650252Y-97608778D01*
X149630000Y-97710593D01*
X149630000Y-97814403D01*
X149650252Y-97916218D01*
X149689979Y-98012126D01*
X149747652Y-98098441D01*
X149766501Y-98117290D01*
X149766500Y-101435998D01*
X146939000Y-101435998D01*
X146939000Y-96901000D01*
X152781000Y-96901000D01*
X152781000Y-100330000D01*
%TO.N,GND*%
G36*
X182918500Y-90313203D02*
G01*
X182893843Y-90283157D01*
X182844050Y-90242294D01*
X182787243Y-90211930D01*
X182725603Y-90193232D01*
X182661500Y-90186918D01*
X179161500Y-90186918D01*
X179097397Y-90193232D01*
X179035757Y-90211930D01*
X178978950Y-90242294D01*
X178929157Y-90283157D01*
X178888294Y-90332950D01*
X178857930Y-90389757D01*
X178839232Y-90451397D01*
X178832918Y-90515500D01*
X178832918Y-94015500D01*
X178839232Y-94079603D01*
X178857930Y-94141243D01*
X178888294Y-94198050D01*
X178929157Y-94247843D01*
X178978950Y-94288706D01*
X179035757Y-94319070D01*
X179097397Y-94337768D01*
X179161500Y-94344082D01*
X182661500Y-94344082D01*
X182725603Y-94337768D01*
X182787243Y-94319070D01*
X182844050Y-94288706D01*
X182893843Y-94247843D01*
X182918500Y-94217797D01*
X182918501Y-125959000D01*
X98831000Y-125959000D01*
X98831000Y-107390095D01*
X117329000Y-107390095D01*
X117329000Y-107493905D01*
X117349252Y-107595720D01*
X117388979Y-107691628D01*
X117446652Y-107777943D01*
X117520057Y-107851348D01*
X117606372Y-107909021D01*
X117702280Y-107948748D01*
X117804095Y-107969000D01*
X117907905Y-107969000D01*
X118009720Y-107948748D01*
X118105628Y-107909021D01*
X118191943Y-107851348D01*
X118265348Y-107777943D01*
X118323021Y-107691628D01*
X118362748Y-107595720D01*
X118383000Y-107493905D01*
X118383000Y-107390095D01*
X118362748Y-107288280D01*
X118323021Y-107192372D01*
X118283000Y-107132475D01*
X118283000Y-105481866D01*
X119072527Y-104692340D01*
X119097652Y-104729943D01*
X119171057Y-104803348D01*
X119257372Y-104861021D01*
X119353280Y-104900748D01*
X119455095Y-104921000D01*
X119481750Y-104921000D01*
X120093250Y-105532500D01*
X119898460Y-105532500D01*
X119721867Y-105549893D01*
X119495289Y-105618624D01*
X119286474Y-105730239D01*
X119103446Y-105880446D01*
X118953239Y-106063474D01*
X118841624Y-106272289D01*
X118772893Y-106498867D01*
X118749685Y-106734500D01*
X118772893Y-106970133D01*
X118841624Y-107196711D01*
X118953239Y-107405526D01*
X119103446Y-107588554D01*
X119286474Y-107738761D01*
X119495289Y-107850376D01*
X119721867Y-107919107D01*
X119898460Y-107936500D01*
X140296181Y-107936500D01*
X140270938Y-107997442D01*
X140243000Y-108137897D01*
X140243000Y-108281103D01*
X140270938Y-108421558D01*
X140325741Y-108553864D01*
X140405302Y-108672936D01*
X140506564Y-108774198D01*
X140625636Y-108853759D01*
X140757942Y-108908562D01*
X140898397Y-108936500D01*
X141041603Y-108936500D01*
X141182058Y-108908562D01*
X141238778Y-108885068D01*
X141239466Y-108885000D01*
X147619956Y-108885000D01*
X147644302Y-108921436D01*
X147745564Y-109022698D01*
X147864636Y-109102259D01*
X147996942Y-109157062D01*
X148137397Y-109185000D01*
X148280603Y-109185000D01*
X148421058Y-109157062D01*
X148553364Y-109102259D01*
X148672436Y-109022698D01*
X148773698Y-108921436D01*
X148853259Y-108802364D01*
X148908062Y-108670058D01*
X148936000Y-108529603D01*
X148936000Y-108386397D01*
X148908062Y-108245942D01*
X148853259Y-108113636D01*
X148773698Y-107994564D01*
X148715634Y-107936500D01*
X150371010Y-107936500D01*
X150371011Y-112265030D01*
X150388404Y-112441623D01*
X150457135Y-112668201D01*
X150568750Y-112877016D01*
X150718957Y-113060044D01*
X150901985Y-113210251D01*
X151110800Y-113321866D01*
X151337378Y-113390597D01*
X151573010Y-113413805D01*
X151808643Y-113390597D01*
X152035221Y-113321866D01*
X152244036Y-113210251D01*
X152427064Y-113060044D01*
X152577271Y-112877016D01*
X152688886Y-112668201D01*
X152757617Y-112441623D01*
X152775010Y-112265030D01*
X152775010Y-106804019D01*
X152780824Y-106744989D01*
X152775010Y-106685959D01*
X152775010Y-106685950D01*
X152757617Y-106509357D01*
X152688886Y-106282779D01*
X152577271Y-106073964D01*
X152427064Y-105890936D01*
X152421302Y-105886208D01*
X152416574Y-105880446D01*
X152233546Y-105730239D01*
X152024731Y-105618624D01*
X151798153Y-105549893D01*
X151621560Y-105532500D01*
X151621550Y-105532500D01*
X151562520Y-105526686D01*
X151503490Y-105532500D01*
X150495804Y-105532500D01*
X150500000Y-105511405D01*
X150500000Y-105407595D01*
X150479748Y-105305780D01*
X150447944Y-105229000D01*
X156210000Y-105229000D01*
X156273795Y-105222717D01*
X156335137Y-105204109D01*
X156391671Y-105173891D01*
X156441224Y-105133224D01*
X156481891Y-105083671D01*
X156512109Y-105027137D01*
X156530717Y-104965795D01*
X156537000Y-104902000D01*
X156537000Y-100330000D01*
X156530717Y-100266205D01*
X156512109Y-100204863D01*
X156481891Y-100148329D01*
X156441224Y-100098776D01*
X156391671Y-100058109D01*
X156335137Y-100027891D01*
X156273795Y-100009283D01*
X156210000Y-100003000D01*
X153235000Y-100003000D01*
X153235000Y-96774000D01*
X153228717Y-96710205D01*
X153210109Y-96648863D01*
X153179891Y-96592329D01*
X153139224Y-96542776D01*
X153089671Y-96502109D01*
X153033137Y-96471891D01*
X152971795Y-96453283D01*
X152908000Y-96447000D01*
X146812000Y-96447000D01*
X146748205Y-96453283D01*
X146686863Y-96471891D01*
X146630329Y-96502109D01*
X146580776Y-96542776D01*
X146540109Y-96592329D01*
X146509891Y-96648863D01*
X146491283Y-96710205D01*
X146485000Y-96774000D01*
X146485000Y-101435998D01*
X145536489Y-101435998D01*
X145501021Y-101350372D01*
X145443348Y-101264057D01*
X145369943Y-101190652D01*
X145283628Y-101132979D01*
X145187720Y-101093252D01*
X145085905Y-101073000D01*
X144982095Y-101073000D01*
X144880280Y-101093252D01*
X144784372Y-101132979D01*
X144698057Y-101190652D01*
X144624652Y-101264057D01*
X144566979Y-101350372D01*
X144527252Y-101446280D01*
X144507000Y-101548095D01*
X144507000Y-101651905D01*
X144527252Y-101753720D01*
X144566979Y-101849628D01*
X144624652Y-101935943D01*
X144698057Y-102009348D01*
X144784372Y-102067021D01*
X144880280Y-102106748D01*
X144982095Y-102127000D01*
X145011112Y-102127000D01*
X145042498Y-102152758D01*
X145110337Y-102189018D01*
X145183946Y-102211348D01*
X145260498Y-102218887D01*
X145279679Y-102216998D01*
X146485000Y-102216998D01*
X146485000Y-104593000D01*
X146201291Y-104593000D01*
X146205348Y-104588943D01*
X146263021Y-104502628D01*
X146302748Y-104406720D01*
X146323000Y-104304905D01*
X146323000Y-104201095D01*
X146302748Y-104099280D01*
X146263021Y-104003372D01*
X146205348Y-103917057D01*
X146131943Y-103843652D01*
X146045628Y-103785979D01*
X145949720Y-103746252D01*
X145847905Y-103726000D01*
X145744095Y-103726000D01*
X145642280Y-103746252D01*
X145546372Y-103785979D01*
X145486475Y-103826000D01*
X140636369Y-103826000D01*
X139978302Y-103167933D01*
X139964248Y-103097280D01*
X139924521Y-103001372D01*
X139866848Y-102915057D01*
X139793443Y-102841652D01*
X139707128Y-102783979D01*
X139611220Y-102744252D01*
X139509405Y-102724000D01*
X139405595Y-102724000D01*
X139384500Y-102728196D01*
X139384500Y-98409791D01*
X139403348Y-98390943D01*
X139461021Y-98304628D01*
X139500748Y-98208720D01*
X139521000Y-98106905D01*
X139521000Y-98003095D01*
X139500748Y-97901280D01*
X139461021Y-97805372D01*
X139403348Y-97719057D01*
X139329943Y-97645652D01*
X139243628Y-97587979D01*
X139147720Y-97548252D01*
X139045905Y-97528000D01*
X138942095Y-97528000D01*
X138840280Y-97548252D01*
X138744372Y-97587979D01*
X138658057Y-97645652D01*
X138584652Y-97719057D01*
X138526979Y-97805372D01*
X138487252Y-97901280D01*
X138467000Y-98003095D01*
X138467000Y-98106905D01*
X138487252Y-98208720D01*
X138526979Y-98304628D01*
X138584652Y-98390943D01*
X138603501Y-98409792D01*
X138603500Y-104242551D01*
X137893051Y-104953001D01*
X120618251Y-104953001D01*
X120034000Y-104368750D01*
X120034000Y-104342095D01*
X120013748Y-104240280D01*
X119974021Y-104144372D01*
X119916348Y-104058057D01*
X119842943Y-103984652D01*
X119805340Y-103959527D01*
X123979582Y-99785285D01*
X123992979Y-99817628D01*
X124050652Y-99903943D01*
X124124057Y-99977348D01*
X124210372Y-100035021D01*
X124306280Y-100074748D01*
X124408095Y-100095000D01*
X124511905Y-100095000D01*
X124613720Y-100074748D01*
X124709628Y-100035021D01*
X124795943Y-99977348D01*
X124869348Y-99903943D01*
X124927021Y-99817628D01*
X124966748Y-99721720D01*
X124980802Y-99651066D01*
X127811869Y-96820000D01*
X132030132Y-96820000D01*
X132702198Y-97492067D01*
X132716252Y-97562720D01*
X132755979Y-97658628D01*
X132813652Y-97744943D01*
X132887057Y-97818348D01*
X132973372Y-97876021D01*
X133069280Y-97915748D01*
X133171095Y-97936000D01*
X133274905Y-97936000D01*
X133376720Y-97915748D01*
X133470562Y-97876877D01*
X133470561Y-102474569D01*
X133210933Y-102734198D01*
X133140280Y-102748252D01*
X133044372Y-102787979D01*
X132958057Y-102845652D01*
X132884652Y-102919057D01*
X132826979Y-103005372D01*
X132787252Y-103101280D01*
X132767000Y-103203095D01*
X132767000Y-103306905D01*
X132787252Y-103408720D01*
X132826979Y-103504628D01*
X132884652Y-103590943D01*
X132958057Y-103664348D01*
X133044372Y-103722021D01*
X133140280Y-103761748D01*
X133242095Y-103782000D01*
X133345905Y-103782000D01*
X133447720Y-103761748D01*
X133543628Y-103722021D01*
X133629943Y-103664348D01*
X133703348Y-103590943D01*
X133761021Y-103504628D01*
X133800748Y-103408720D01*
X133814802Y-103338067D01*
X134184673Y-102968197D01*
X134200956Y-102954834D01*
X134214320Y-102938550D01*
X134214329Y-102938541D01*
X134254316Y-102889816D01*
X134288727Y-102825436D01*
X134293966Y-102815635D01*
X134318383Y-102735146D01*
X134324561Y-102672417D01*
X134324561Y-102672407D01*
X134326626Y-102651440D01*
X134324561Y-102630473D01*
X134324561Y-95817025D01*
X134364582Y-95757128D01*
X134404309Y-95661220D01*
X134424561Y-95559405D01*
X134424561Y-95455595D01*
X134420365Y-95434500D01*
X137660504Y-95434500D01*
X137678516Y-95525056D01*
X137718243Y-95620964D01*
X137775916Y-95707279D01*
X137849321Y-95780684D01*
X137935636Y-95838357D01*
X138031544Y-95878084D01*
X138133359Y-95898336D01*
X138237169Y-95898336D01*
X138338984Y-95878084D01*
X138434892Y-95838357D01*
X138521207Y-95780684D01*
X138594612Y-95707279D01*
X138652285Y-95620964D01*
X138692012Y-95525056D01*
X138712264Y-95423241D01*
X138712264Y-95319431D01*
X138692012Y-95217616D01*
X138652285Y-95121708D01*
X138594612Y-95035393D01*
X138566719Y-95007500D01*
X144920533Y-95007500D01*
X144941500Y-95009565D01*
X144962467Y-95007500D01*
X144962478Y-95007500D01*
X145025207Y-95001322D01*
X145105696Y-94976905D01*
X145179876Y-94937255D01*
X145244895Y-94883895D01*
X145258268Y-94867600D01*
X146514067Y-93611802D01*
X146584720Y-93597748D01*
X146680628Y-93558021D01*
X146766943Y-93500348D01*
X146840348Y-93426943D01*
X146898021Y-93340628D01*
X146929500Y-93264631D01*
X146929501Y-95260710D01*
X146922209Y-95268002D01*
X146422668Y-95268002D01*
X146403497Y-95266114D01*
X146384326Y-95268002D01*
X146384320Y-95268002D01*
X146334861Y-95272873D01*
X146326946Y-95273653D01*
X146261097Y-95293628D01*
X146253337Y-95295982D01*
X146185498Y-95332242D01*
X146126037Y-95381041D01*
X146113808Y-95395942D01*
X140064596Y-101445154D01*
X140037941Y-101445154D01*
X139936126Y-101465406D01*
X139840218Y-101505133D01*
X139753903Y-101562806D01*
X139680498Y-101636211D01*
X139622825Y-101722526D01*
X139583098Y-101818434D01*
X139562846Y-101920249D01*
X139562846Y-102024059D01*
X139583098Y-102125874D01*
X139622825Y-102221782D01*
X139680498Y-102308097D01*
X139753903Y-102381502D01*
X139840218Y-102439175D01*
X139936126Y-102478902D01*
X140037941Y-102499154D01*
X140141751Y-102499154D01*
X140243566Y-102478902D01*
X140339474Y-102439175D01*
X140425789Y-102381502D01*
X140499194Y-102308097D01*
X140556867Y-102221782D01*
X140596594Y-102125874D01*
X140616846Y-102024059D01*
X140616846Y-101997404D01*
X146565248Y-96049002D01*
X146922209Y-96049002D01*
X146941057Y-96067850D01*
X147027372Y-96125523D01*
X147123280Y-96165250D01*
X147225095Y-96185502D01*
X147328905Y-96185502D01*
X147430720Y-96165250D01*
X147526628Y-96125523D01*
X147612943Y-96067850D01*
X147686348Y-95994445D01*
X147744021Y-95908130D01*
X147783748Y-95812222D01*
X147804000Y-95710407D01*
X147804000Y-95606597D01*
X147783748Y-95504782D01*
X147744021Y-95408874D01*
X147710500Y-95358706D01*
X147710500Y-91949293D01*
X147729348Y-91930445D01*
X147787021Y-91844130D01*
X147826748Y-91748222D01*
X147847000Y-91646407D01*
X147847000Y-91542597D01*
X147826748Y-91440782D01*
X147787021Y-91344874D01*
X147729348Y-91258559D01*
X147655943Y-91185154D01*
X147569628Y-91127481D01*
X147473720Y-91087754D01*
X147371905Y-91067502D01*
X147268095Y-91067502D01*
X147166280Y-91087754D01*
X147070372Y-91127481D01*
X146984057Y-91185154D01*
X146910652Y-91258559D01*
X146852979Y-91344874D01*
X146813252Y-91440782D01*
X146793000Y-91542597D01*
X146793000Y-91646407D01*
X146813252Y-91748222D01*
X146852979Y-91844130D01*
X146910652Y-91930445D01*
X146929500Y-91949293D01*
X146929500Y-92917369D01*
X146898021Y-92841372D01*
X146840348Y-92755057D01*
X146766943Y-92681652D01*
X146680628Y-92623979D01*
X146584720Y-92584252D01*
X146482905Y-92564000D01*
X146379095Y-92564000D01*
X146277280Y-92584252D01*
X146181372Y-92623979D01*
X146095057Y-92681652D01*
X146021652Y-92755057D01*
X145963979Y-92841372D01*
X145924252Y-92937280D01*
X145910198Y-93007933D01*
X144764632Y-94153500D01*
X135818525Y-94153500D01*
X135758628Y-94113479D01*
X135662720Y-94073752D01*
X135560905Y-94053500D01*
X135457095Y-94053500D01*
X135355280Y-94073752D01*
X135259372Y-94113479D01*
X135173057Y-94171152D01*
X135099652Y-94244557D01*
X135041979Y-94330872D01*
X135002252Y-94426780D01*
X134982000Y-94528595D01*
X134982000Y-94632405D01*
X134986196Y-94653500D01*
X125524500Y-94653500D01*
X125524500Y-89849763D01*
X125568021Y-89784628D01*
X125607748Y-89688720D01*
X125628000Y-89586905D01*
X125628000Y-89483095D01*
X125607748Y-89381280D01*
X125568021Y-89285372D01*
X125510348Y-89199057D01*
X125436943Y-89125652D01*
X125350628Y-89067979D01*
X125254720Y-89028252D01*
X125152905Y-89008000D01*
X125049095Y-89008000D01*
X124947280Y-89028252D01*
X124851372Y-89067979D01*
X124765057Y-89125652D01*
X124691652Y-89199057D01*
X124633979Y-89285372D01*
X124594252Y-89381280D01*
X124574000Y-89483095D01*
X124574000Y-89586905D01*
X124594252Y-89688720D01*
X124633979Y-89784628D01*
X124691652Y-89870943D01*
X124743501Y-89922792D01*
X124743500Y-94689209D01*
X124724652Y-94708057D01*
X124666979Y-94794372D01*
X124627252Y-94890280D01*
X124607000Y-94992095D01*
X124607000Y-95095905D01*
X124627252Y-95197720D01*
X124666979Y-95293628D01*
X124724652Y-95379943D01*
X124798057Y-95453348D01*
X124884372Y-95511021D01*
X124980280Y-95550748D01*
X125082095Y-95571000D01*
X125185905Y-95571000D01*
X125287720Y-95550748D01*
X125383628Y-95511021D01*
X125469943Y-95453348D01*
X125488791Y-95434500D01*
X127122854Y-95434500D01*
X127121597Y-95435532D01*
X127121593Y-95435536D01*
X127105303Y-95448905D01*
X127091934Y-95465195D01*
X117568896Y-104988234D01*
X117552606Y-105001603D01*
X117539237Y-105017893D01*
X117539232Y-105017898D01*
X117499245Y-105066622D01*
X117459596Y-105140802D01*
X117435179Y-105221291D01*
X117429001Y-105284020D01*
X117426935Y-105304998D01*
X117429001Y-105325975D01*
X117429000Y-107132475D01*
X117388979Y-107192372D01*
X117349252Y-107288280D01*
X117329000Y-107390095D01*
X98831000Y-107390095D01*
X98831000Y-93754000D01*
X99419818Y-93754000D01*
X99419818Y-97254000D01*
X99426132Y-97318103D01*
X99444830Y-97379743D01*
X99475194Y-97436550D01*
X99516057Y-97486343D01*
X99565850Y-97527206D01*
X99622657Y-97557570D01*
X99684297Y-97576268D01*
X99748400Y-97582582D01*
X103248400Y-97582582D01*
X103312503Y-97576268D01*
X103374143Y-97557570D01*
X103430950Y-97527206D01*
X103480743Y-97486343D01*
X103521606Y-97436550D01*
X103551970Y-97379743D01*
X103570668Y-97318103D01*
X103576982Y-97254000D01*
X103576982Y-93754000D01*
X103570668Y-93689897D01*
X103551970Y-93628257D01*
X103521606Y-93571450D01*
X103480743Y-93521657D01*
X103430950Y-93480794D01*
X103374143Y-93450430D01*
X103312503Y-93431732D01*
X103248400Y-93425418D01*
X99748400Y-93425418D01*
X99684297Y-93431732D01*
X99622657Y-93450430D01*
X99565850Y-93480794D01*
X99516057Y-93521657D01*
X99475194Y-93571450D01*
X99444830Y-93628257D01*
X99426132Y-93689897D01*
X99419818Y-93754000D01*
X98831000Y-93754000D01*
X98831000Y-85526397D01*
X153070000Y-85526397D01*
X153070000Y-85669603D01*
X153097938Y-85810058D01*
X153152741Y-85942364D01*
X153232302Y-86061436D01*
X153333564Y-86162698D01*
X153452636Y-86242259D01*
X153584942Y-86297062D01*
X153725397Y-86325000D01*
X153868603Y-86325000D01*
X154009058Y-86297062D01*
X154141364Y-86242259D01*
X154260436Y-86162698D01*
X154361698Y-86061436D01*
X154441259Y-85942364D01*
X154496062Y-85810058D01*
X154524000Y-85669603D01*
X154524000Y-85526397D01*
X154496062Y-85385942D01*
X154441259Y-85253636D01*
X154361698Y-85134564D01*
X154260436Y-85033302D01*
X154141364Y-84953741D01*
X154009058Y-84898938D01*
X153868603Y-84871000D01*
X153725397Y-84871000D01*
X153584942Y-84898938D01*
X153452636Y-84953741D01*
X153333564Y-85033302D01*
X153232302Y-85134564D01*
X153152741Y-85253636D01*
X153097938Y-85385942D01*
X153070000Y-85526397D01*
X98831000Y-85526397D01*
X98831000Y-74955000D01*
X182918500Y-74955000D01*
X182918500Y-90313203D01*
G37*
X182918500Y-90313203D02*
X182893843Y-90283157D01*
X182844050Y-90242294D01*
X182787243Y-90211930D01*
X182725603Y-90193232D01*
X182661500Y-90186918D01*
X179161500Y-90186918D01*
X179097397Y-90193232D01*
X179035757Y-90211930D01*
X178978950Y-90242294D01*
X178929157Y-90283157D01*
X178888294Y-90332950D01*
X178857930Y-90389757D01*
X178839232Y-90451397D01*
X178832918Y-90515500D01*
X178832918Y-94015500D01*
X178839232Y-94079603D01*
X178857930Y-94141243D01*
X178888294Y-94198050D01*
X178929157Y-94247843D01*
X178978950Y-94288706D01*
X179035757Y-94319070D01*
X179097397Y-94337768D01*
X179161500Y-94344082D01*
X182661500Y-94344082D01*
X182725603Y-94337768D01*
X182787243Y-94319070D01*
X182844050Y-94288706D01*
X182893843Y-94247843D01*
X182918500Y-94217797D01*
X182918501Y-125959000D01*
X98831000Y-125959000D01*
X98831000Y-107390095D01*
X117329000Y-107390095D01*
X117329000Y-107493905D01*
X117349252Y-107595720D01*
X117388979Y-107691628D01*
X117446652Y-107777943D01*
X117520057Y-107851348D01*
X117606372Y-107909021D01*
X117702280Y-107948748D01*
X117804095Y-107969000D01*
X117907905Y-107969000D01*
X118009720Y-107948748D01*
X118105628Y-107909021D01*
X118191943Y-107851348D01*
X118265348Y-107777943D01*
X118323021Y-107691628D01*
X118362748Y-107595720D01*
X118383000Y-107493905D01*
X118383000Y-107390095D01*
X118362748Y-107288280D01*
X118323021Y-107192372D01*
X118283000Y-107132475D01*
X118283000Y-105481866D01*
X119072527Y-104692340D01*
X119097652Y-104729943D01*
X119171057Y-104803348D01*
X119257372Y-104861021D01*
X119353280Y-104900748D01*
X119455095Y-104921000D01*
X119481750Y-104921000D01*
X120093250Y-105532500D01*
X119898460Y-105532500D01*
X119721867Y-105549893D01*
X119495289Y-105618624D01*
X119286474Y-105730239D01*
X119103446Y-105880446D01*
X118953239Y-106063474D01*
X118841624Y-106272289D01*
X118772893Y-106498867D01*
X118749685Y-106734500D01*
X118772893Y-106970133D01*
X118841624Y-107196711D01*
X118953239Y-107405526D01*
X119103446Y-107588554D01*
X119286474Y-107738761D01*
X119495289Y-107850376D01*
X119721867Y-107919107D01*
X119898460Y-107936500D01*
X140296181Y-107936500D01*
X140270938Y-107997442D01*
X140243000Y-108137897D01*
X140243000Y-108281103D01*
X140270938Y-108421558D01*
X140325741Y-108553864D01*
X140405302Y-108672936D01*
X140506564Y-108774198D01*
X140625636Y-108853759D01*
X140757942Y-108908562D01*
X140898397Y-108936500D01*
X141041603Y-108936500D01*
X141182058Y-108908562D01*
X141238778Y-108885068D01*
X141239466Y-108885000D01*
X147619956Y-108885000D01*
X147644302Y-108921436D01*
X147745564Y-109022698D01*
X147864636Y-109102259D01*
X147996942Y-109157062D01*
X148137397Y-109185000D01*
X148280603Y-109185000D01*
X148421058Y-109157062D01*
X148553364Y-109102259D01*
X148672436Y-109022698D01*
X148773698Y-108921436D01*
X148853259Y-108802364D01*
X148908062Y-108670058D01*
X148936000Y-108529603D01*
X148936000Y-108386397D01*
X148908062Y-108245942D01*
X148853259Y-108113636D01*
X148773698Y-107994564D01*
X148715634Y-107936500D01*
X150371010Y-107936500D01*
X150371011Y-112265030D01*
X150388404Y-112441623D01*
X150457135Y-112668201D01*
X150568750Y-112877016D01*
X150718957Y-113060044D01*
X150901985Y-113210251D01*
X151110800Y-113321866D01*
X151337378Y-113390597D01*
X151573010Y-113413805D01*
X151808643Y-113390597D01*
X152035221Y-113321866D01*
X152244036Y-113210251D01*
X152427064Y-113060044D01*
X152577271Y-112877016D01*
X152688886Y-112668201D01*
X152757617Y-112441623D01*
X152775010Y-112265030D01*
X152775010Y-106804019D01*
X152780824Y-106744989D01*
X152775010Y-106685959D01*
X152775010Y-106685950D01*
X152757617Y-106509357D01*
X152688886Y-106282779D01*
X152577271Y-106073964D01*
X152427064Y-105890936D01*
X152421302Y-105886208D01*
X152416574Y-105880446D01*
X152233546Y-105730239D01*
X152024731Y-105618624D01*
X151798153Y-105549893D01*
X151621560Y-105532500D01*
X151621550Y-105532500D01*
X151562520Y-105526686D01*
X151503490Y-105532500D01*
X150495804Y-105532500D01*
X150500000Y-105511405D01*
X150500000Y-105407595D01*
X150479748Y-105305780D01*
X150447944Y-105229000D01*
X156210000Y-105229000D01*
X156273795Y-105222717D01*
X156335137Y-105204109D01*
X156391671Y-105173891D01*
X156441224Y-105133224D01*
X156481891Y-105083671D01*
X156512109Y-105027137D01*
X156530717Y-104965795D01*
X156537000Y-104902000D01*
X156537000Y-100330000D01*
X156530717Y-100266205D01*
X156512109Y-100204863D01*
X156481891Y-100148329D01*
X156441224Y-100098776D01*
X156391671Y-100058109D01*
X156335137Y-100027891D01*
X156273795Y-100009283D01*
X156210000Y-100003000D01*
X153235000Y-100003000D01*
X153235000Y-96774000D01*
X153228717Y-96710205D01*
X153210109Y-96648863D01*
X153179891Y-96592329D01*
X153139224Y-96542776D01*
X153089671Y-96502109D01*
X153033137Y-96471891D01*
X152971795Y-96453283D01*
X152908000Y-96447000D01*
X146812000Y-96447000D01*
X146748205Y-96453283D01*
X146686863Y-96471891D01*
X146630329Y-96502109D01*
X146580776Y-96542776D01*
X146540109Y-96592329D01*
X146509891Y-96648863D01*
X146491283Y-96710205D01*
X146485000Y-96774000D01*
X146485000Y-101435998D01*
X145536489Y-101435998D01*
X145501021Y-101350372D01*
X145443348Y-101264057D01*
X145369943Y-101190652D01*
X145283628Y-101132979D01*
X145187720Y-101093252D01*
X145085905Y-101073000D01*
X144982095Y-101073000D01*
X144880280Y-101093252D01*
X144784372Y-101132979D01*
X144698057Y-101190652D01*
X144624652Y-101264057D01*
X144566979Y-101350372D01*
X144527252Y-101446280D01*
X144507000Y-101548095D01*
X144507000Y-101651905D01*
X144527252Y-101753720D01*
X144566979Y-101849628D01*
X144624652Y-101935943D01*
X144698057Y-102009348D01*
X144784372Y-102067021D01*
X144880280Y-102106748D01*
X144982095Y-102127000D01*
X145011112Y-102127000D01*
X145042498Y-102152758D01*
X145110337Y-102189018D01*
X145183946Y-102211348D01*
X145260498Y-102218887D01*
X145279679Y-102216998D01*
X146485000Y-102216998D01*
X146485000Y-104593000D01*
X146201291Y-104593000D01*
X146205348Y-104588943D01*
X146263021Y-104502628D01*
X146302748Y-104406720D01*
X146323000Y-104304905D01*
X146323000Y-104201095D01*
X146302748Y-104099280D01*
X146263021Y-104003372D01*
X146205348Y-103917057D01*
X146131943Y-103843652D01*
X146045628Y-103785979D01*
X145949720Y-103746252D01*
X145847905Y-103726000D01*
X145744095Y-103726000D01*
X145642280Y-103746252D01*
X145546372Y-103785979D01*
X145486475Y-103826000D01*
X140636369Y-103826000D01*
X139978302Y-103167933D01*
X139964248Y-103097280D01*
X139924521Y-103001372D01*
X139866848Y-102915057D01*
X139793443Y-102841652D01*
X139707128Y-102783979D01*
X139611220Y-102744252D01*
X139509405Y-102724000D01*
X139405595Y-102724000D01*
X139384500Y-102728196D01*
X139384500Y-98409791D01*
X139403348Y-98390943D01*
X139461021Y-98304628D01*
X139500748Y-98208720D01*
X139521000Y-98106905D01*
X139521000Y-98003095D01*
X139500748Y-97901280D01*
X139461021Y-97805372D01*
X139403348Y-97719057D01*
X139329943Y-97645652D01*
X139243628Y-97587979D01*
X139147720Y-97548252D01*
X139045905Y-97528000D01*
X138942095Y-97528000D01*
X138840280Y-97548252D01*
X138744372Y-97587979D01*
X138658057Y-97645652D01*
X138584652Y-97719057D01*
X138526979Y-97805372D01*
X138487252Y-97901280D01*
X138467000Y-98003095D01*
X138467000Y-98106905D01*
X138487252Y-98208720D01*
X138526979Y-98304628D01*
X138584652Y-98390943D01*
X138603501Y-98409792D01*
X138603500Y-104242551D01*
X137893051Y-104953001D01*
X120618251Y-104953001D01*
X120034000Y-104368750D01*
X120034000Y-104342095D01*
X120013748Y-104240280D01*
X119974021Y-104144372D01*
X119916348Y-104058057D01*
X119842943Y-103984652D01*
X119805340Y-103959527D01*
X123979582Y-99785285D01*
X123992979Y-99817628D01*
X124050652Y-99903943D01*
X124124057Y-99977348D01*
X124210372Y-100035021D01*
X124306280Y-100074748D01*
X124408095Y-100095000D01*
X124511905Y-100095000D01*
X124613720Y-100074748D01*
X124709628Y-100035021D01*
X124795943Y-99977348D01*
X124869348Y-99903943D01*
X124927021Y-99817628D01*
X124966748Y-99721720D01*
X124980802Y-99651066D01*
X127811869Y-96820000D01*
X132030132Y-96820000D01*
X132702198Y-97492067D01*
X132716252Y-97562720D01*
X132755979Y-97658628D01*
X132813652Y-97744943D01*
X132887057Y-97818348D01*
X132973372Y-97876021D01*
X133069280Y-97915748D01*
X133171095Y-97936000D01*
X133274905Y-97936000D01*
X133376720Y-97915748D01*
X133470562Y-97876877D01*
X133470561Y-102474569D01*
X133210933Y-102734198D01*
X133140280Y-102748252D01*
X133044372Y-102787979D01*
X132958057Y-102845652D01*
X132884652Y-102919057D01*
X132826979Y-103005372D01*
X132787252Y-103101280D01*
X132767000Y-103203095D01*
X132767000Y-103306905D01*
X132787252Y-103408720D01*
X132826979Y-103504628D01*
X132884652Y-103590943D01*
X132958057Y-103664348D01*
X133044372Y-103722021D01*
X133140280Y-103761748D01*
X133242095Y-103782000D01*
X133345905Y-103782000D01*
X133447720Y-103761748D01*
X133543628Y-103722021D01*
X133629943Y-103664348D01*
X133703348Y-103590943D01*
X133761021Y-103504628D01*
X133800748Y-103408720D01*
X133814802Y-103338067D01*
X134184673Y-102968197D01*
X134200956Y-102954834D01*
X134214320Y-102938550D01*
X134214329Y-102938541D01*
X134254316Y-102889816D01*
X134288727Y-102825436D01*
X134293966Y-102815635D01*
X134318383Y-102735146D01*
X134324561Y-102672417D01*
X134324561Y-102672407D01*
X134326626Y-102651440D01*
X134324561Y-102630473D01*
X134324561Y-95817025D01*
X134364582Y-95757128D01*
X134404309Y-95661220D01*
X134424561Y-95559405D01*
X134424561Y-95455595D01*
X134420365Y-95434500D01*
X137660504Y-95434500D01*
X137678516Y-95525056D01*
X137718243Y-95620964D01*
X137775916Y-95707279D01*
X137849321Y-95780684D01*
X137935636Y-95838357D01*
X138031544Y-95878084D01*
X138133359Y-95898336D01*
X138237169Y-95898336D01*
X138338984Y-95878084D01*
X138434892Y-95838357D01*
X138521207Y-95780684D01*
X138594612Y-95707279D01*
X138652285Y-95620964D01*
X138692012Y-95525056D01*
X138712264Y-95423241D01*
X138712264Y-95319431D01*
X138692012Y-95217616D01*
X138652285Y-95121708D01*
X138594612Y-95035393D01*
X138566719Y-95007500D01*
X144920533Y-95007500D01*
X144941500Y-95009565D01*
X144962467Y-95007500D01*
X144962478Y-95007500D01*
X145025207Y-95001322D01*
X145105696Y-94976905D01*
X145179876Y-94937255D01*
X145244895Y-94883895D01*
X145258268Y-94867600D01*
X146514067Y-93611802D01*
X146584720Y-93597748D01*
X146680628Y-93558021D01*
X146766943Y-93500348D01*
X146840348Y-93426943D01*
X146898021Y-93340628D01*
X146929500Y-93264631D01*
X146929501Y-95260710D01*
X146922209Y-95268002D01*
X146422668Y-95268002D01*
X146403497Y-95266114D01*
X146384326Y-95268002D01*
X146384320Y-95268002D01*
X146334861Y-95272873D01*
X146326946Y-95273653D01*
X146261097Y-95293628D01*
X146253337Y-95295982D01*
X146185498Y-95332242D01*
X146126037Y-95381041D01*
X146113808Y-95395942D01*
X140064596Y-101445154D01*
X140037941Y-101445154D01*
X139936126Y-101465406D01*
X139840218Y-101505133D01*
X139753903Y-101562806D01*
X139680498Y-101636211D01*
X139622825Y-101722526D01*
X139583098Y-101818434D01*
X139562846Y-101920249D01*
X139562846Y-102024059D01*
X139583098Y-102125874D01*
X139622825Y-102221782D01*
X139680498Y-102308097D01*
X139753903Y-102381502D01*
X139840218Y-102439175D01*
X139936126Y-102478902D01*
X140037941Y-102499154D01*
X140141751Y-102499154D01*
X140243566Y-102478902D01*
X140339474Y-102439175D01*
X140425789Y-102381502D01*
X140499194Y-102308097D01*
X140556867Y-102221782D01*
X140596594Y-102125874D01*
X140616846Y-102024059D01*
X140616846Y-101997404D01*
X146565248Y-96049002D01*
X146922209Y-96049002D01*
X146941057Y-96067850D01*
X147027372Y-96125523D01*
X147123280Y-96165250D01*
X147225095Y-96185502D01*
X147328905Y-96185502D01*
X147430720Y-96165250D01*
X147526628Y-96125523D01*
X147612943Y-96067850D01*
X147686348Y-95994445D01*
X147744021Y-95908130D01*
X147783748Y-95812222D01*
X147804000Y-95710407D01*
X147804000Y-95606597D01*
X147783748Y-95504782D01*
X147744021Y-95408874D01*
X147710500Y-95358706D01*
X147710500Y-91949293D01*
X147729348Y-91930445D01*
X147787021Y-91844130D01*
X147826748Y-91748222D01*
X147847000Y-91646407D01*
X147847000Y-91542597D01*
X147826748Y-91440782D01*
X147787021Y-91344874D01*
X147729348Y-91258559D01*
X147655943Y-91185154D01*
X147569628Y-91127481D01*
X147473720Y-91087754D01*
X147371905Y-91067502D01*
X147268095Y-91067502D01*
X147166280Y-91087754D01*
X147070372Y-91127481D01*
X146984057Y-91185154D01*
X146910652Y-91258559D01*
X146852979Y-91344874D01*
X146813252Y-91440782D01*
X146793000Y-91542597D01*
X146793000Y-91646407D01*
X146813252Y-91748222D01*
X146852979Y-91844130D01*
X146910652Y-91930445D01*
X146929500Y-91949293D01*
X146929500Y-92917369D01*
X146898021Y-92841372D01*
X146840348Y-92755057D01*
X146766943Y-92681652D01*
X146680628Y-92623979D01*
X146584720Y-92584252D01*
X146482905Y-92564000D01*
X146379095Y-92564000D01*
X146277280Y-92584252D01*
X146181372Y-92623979D01*
X146095057Y-92681652D01*
X146021652Y-92755057D01*
X145963979Y-92841372D01*
X145924252Y-92937280D01*
X145910198Y-93007933D01*
X144764632Y-94153500D01*
X135818525Y-94153500D01*
X135758628Y-94113479D01*
X135662720Y-94073752D01*
X135560905Y-94053500D01*
X135457095Y-94053500D01*
X135355280Y-94073752D01*
X135259372Y-94113479D01*
X135173057Y-94171152D01*
X135099652Y-94244557D01*
X135041979Y-94330872D01*
X135002252Y-94426780D01*
X134982000Y-94528595D01*
X134982000Y-94632405D01*
X134986196Y-94653500D01*
X125524500Y-94653500D01*
X125524500Y-89849763D01*
X125568021Y-89784628D01*
X125607748Y-89688720D01*
X125628000Y-89586905D01*
X125628000Y-89483095D01*
X125607748Y-89381280D01*
X125568021Y-89285372D01*
X125510348Y-89199057D01*
X125436943Y-89125652D01*
X125350628Y-89067979D01*
X125254720Y-89028252D01*
X125152905Y-89008000D01*
X125049095Y-89008000D01*
X124947280Y-89028252D01*
X124851372Y-89067979D01*
X124765057Y-89125652D01*
X124691652Y-89199057D01*
X124633979Y-89285372D01*
X124594252Y-89381280D01*
X124574000Y-89483095D01*
X124574000Y-89586905D01*
X124594252Y-89688720D01*
X124633979Y-89784628D01*
X124691652Y-89870943D01*
X124743501Y-89922792D01*
X124743500Y-94689209D01*
X124724652Y-94708057D01*
X124666979Y-94794372D01*
X124627252Y-94890280D01*
X124607000Y-94992095D01*
X124607000Y-95095905D01*
X124627252Y-95197720D01*
X124666979Y-95293628D01*
X124724652Y-95379943D01*
X124798057Y-95453348D01*
X124884372Y-95511021D01*
X124980280Y-95550748D01*
X125082095Y-95571000D01*
X125185905Y-95571000D01*
X125287720Y-95550748D01*
X125383628Y-95511021D01*
X125469943Y-95453348D01*
X125488791Y-95434500D01*
X127122854Y-95434500D01*
X127121597Y-95435532D01*
X127121593Y-95435536D01*
X127105303Y-95448905D01*
X127091934Y-95465195D01*
X117568896Y-104988234D01*
X117552606Y-105001603D01*
X117539237Y-105017893D01*
X117539232Y-105017898D01*
X117499245Y-105066622D01*
X117459596Y-105140802D01*
X117435179Y-105221291D01*
X117429001Y-105284020D01*
X117426935Y-105304998D01*
X117429001Y-105325975D01*
X117429000Y-107132475D01*
X117388979Y-107192372D01*
X117349252Y-107288280D01*
X117329000Y-107390095D01*
X98831000Y-107390095D01*
X98831000Y-93754000D01*
X99419818Y-93754000D01*
X99419818Y-97254000D01*
X99426132Y-97318103D01*
X99444830Y-97379743D01*
X99475194Y-97436550D01*
X99516057Y-97486343D01*
X99565850Y-97527206D01*
X99622657Y-97557570D01*
X99684297Y-97576268D01*
X99748400Y-97582582D01*
X103248400Y-97582582D01*
X103312503Y-97576268D01*
X103374143Y-97557570D01*
X103430950Y-97527206D01*
X103480743Y-97486343D01*
X103521606Y-97436550D01*
X103551970Y-97379743D01*
X103570668Y-97318103D01*
X103576982Y-97254000D01*
X103576982Y-93754000D01*
X103570668Y-93689897D01*
X103551970Y-93628257D01*
X103521606Y-93571450D01*
X103480743Y-93521657D01*
X103430950Y-93480794D01*
X103374143Y-93450430D01*
X103312503Y-93431732D01*
X103248400Y-93425418D01*
X99748400Y-93425418D01*
X99684297Y-93431732D01*
X99622657Y-93450430D01*
X99565850Y-93480794D01*
X99516057Y-93521657D01*
X99475194Y-93571450D01*
X99444830Y-93628257D01*
X99426132Y-93689897D01*
X99419818Y-93754000D01*
X98831000Y-93754000D01*
X98831000Y-85526397D01*
X153070000Y-85526397D01*
X153070000Y-85669603D01*
X153097938Y-85810058D01*
X153152741Y-85942364D01*
X153232302Y-86061436D01*
X153333564Y-86162698D01*
X153452636Y-86242259D01*
X153584942Y-86297062D01*
X153725397Y-86325000D01*
X153868603Y-86325000D01*
X154009058Y-86297062D01*
X154141364Y-86242259D01*
X154260436Y-86162698D01*
X154361698Y-86061436D01*
X154441259Y-85942364D01*
X154496062Y-85810058D01*
X154524000Y-85669603D01*
X154524000Y-85526397D01*
X154496062Y-85385942D01*
X154441259Y-85253636D01*
X154361698Y-85134564D01*
X154260436Y-85033302D01*
X154141364Y-84953741D01*
X154009058Y-84898938D01*
X153868603Y-84871000D01*
X153725397Y-84871000D01*
X153584942Y-84898938D01*
X153452636Y-84953741D01*
X153333564Y-85033302D01*
X153232302Y-85134564D01*
X153152741Y-85253636D01*
X153097938Y-85385942D01*
X153070000Y-85526397D01*
X98831000Y-85526397D01*
X98831000Y-74955000D01*
X182918500Y-74955000D01*
X182918500Y-90313203D01*
%TD*%
M02*
