G04 #@! TF.GenerationSoftware,KiCad,Pcbnew,6.0.2-378541a8eb~116~ubuntu20.04.1*
G04 #@! TF.CreationDate,2022-02-16T22:28:01+01:00*
G04 #@! TF.ProjectId,IR_Board,49525f42-6f61-4726-942e-6b696361645f,rev?*
G04 #@! TF.SameCoordinates,Original*
G04 #@! TF.FileFunction,Soldermask,Bot*
G04 #@! TF.FilePolarity,Negative*
%FSLAX46Y46*%
G04 Gerber Fmt 4.6, Leading zero omitted, Abs format (unit mm)*
G04 Created by KiCad (PCBNEW 6.0.2-378541a8eb~116~ubuntu20.04.1) date 2022-02-16 22:28:01*
%MOMM*%
%LPD*%
G01*
G04 APERTURE LIST*
G04 Aperture macros list*
%AMRoundRect*
0 Rectangle with rounded corners*
0 $1 Rounding radius*
0 $2 $3 $4 $5 $6 $7 $8 $9 X,Y pos of 4 corners*
0 Add a 4 corners polygon primitive as box body*
4,1,4,$2,$3,$4,$5,$6,$7,$8,$9,$2,$3,0*
0 Add four circle primitives for the rounded corners*
1,1,$1+$1,$2,$3*
1,1,$1+$1,$4,$5*
1,1,$1+$1,$6,$7*
1,1,$1+$1,$8,$9*
0 Add four rect primitives between the rounded corners*
20,1,$1+$1,$2,$3,$4,$5,0*
20,1,$1+$1,$4,$5,$6,$7,0*
20,1,$1+$1,$6,$7,$8,$9,0*
20,1,$1+$1,$8,$9,$2,$3,0*%
G04 Aperture macros list end*
%ADD10RoundRect,0.300000X0.350000X0.575000X-0.350000X0.575000X-0.350000X-0.575000X0.350000X-0.575000X0*%
%ADD11O,1.300000X1.750000*%
%ADD12RoundRect,0.300200X-0.778468X0.488332X-0.488332X-0.778468X0.778468X-0.488332X0.488332X0.778468X0*%
%ADD13C,1.900000*%
%ADD14RoundRect,0.300200X-0.488332X0.778468X-0.778468X-0.488332X0.488332X-0.778468X0.778468X0.488332X0*%
%ADD15RoundRect,0.300200X-0.102435X0.913229X-0.913229X-0.102435X0.102435X-0.913229X0.913229X0.102435X0*%
%ADD16RoundRect,0.300200X0.303728X0.867312X-0.867312X0.303728X-0.303728X-0.867312X0.867312X-0.303728X0*%
%ADD17RoundRect,0.300200X0.867312X0.303728X-0.303728X0.867312X-0.867312X-0.303728X0.303728X-0.867312X0*%
%ADD18RoundRect,0.300200X0.913229X-0.102435X0.102435X0.913229X-0.913229X0.102435X-0.102435X-0.913229X0*%
%ADD19RoundRect,0.300200X0.778468X-0.488332X0.488332X0.778468X-0.778468X0.488332X-0.488332X-0.778468X0*%
%ADD20RoundRect,0.300200X0.488332X-0.778468X0.778468X0.488332X-0.488332X0.778468X-0.778468X-0.488332X0*%
%ADD21RoundRect,0.300200X0.102435X-0.913229X0.913229X0.102435X-0.102435X0.913229X-0.913229X-0.102435X0*%
%ADD22RoundRect,0.300200X-0.649800X-0.649800X0.649800X-0.649800X0.649800X0.649800X-0.649800X0.649800X0*%
%ADD23RoundRect,0.300200X-0.913229X0.102435X-0.102435X-0.913229X0.913229X-0.102435X0.102435X0.913229X0*%
%ADD24RoundRect,0.300200X0.649800X0.649800X-0.649800X0.649800X-0.649800X-0.649800X0.649800X-0.649800X0*%
%ADD25C,4.400000*%
%ADD26C,1.600000*%
G04 APERTURE END LIST*
D10*
X158300000Y-147500000D03*
D11*
X158300000Y-145500000D03*
X156300000Y-147500000D03*
X156300000Y-145500000D03*
X154300000Y-147500000D03*
X154300000Y-145500000D03*
X152300000Y-147500000D03*
X152300000Y-145500000D03*
X150300000Y-147500000D03*
X150300000Y-145500000D03*
X148300000Y-147500000D03*
X148300000Y-145500000D03*
X146300000Y-147500000D03*
X146300000Y-145500000D03*
X144300000Y-147500000D03*
X144300000Y-145500000D03*
D12*
X66230500Y-126746000D03*
D13*
X66797555Y-129221893D03*
X67364611Y-131697787D03*
D14*
X67373500Y-88138000D03*
D13*
X66806445Y-90613893D03*
X66239389Y-93089787D03*
D15*
X85090000Y-53784500D03*
D13*
X83505346Y-55769562D03*
X81920692Y-57754624D03*
D16*
X116014500Y-30543500D03*
D13*
X113725764Y-31644994D03*
X111437029Y-32746488D03*
D17*
X191363600Y-32715200D03*
D13*
X189074864Y-31613706D03*
X186786129Y-30512212D03*
D18*
X220878400Y-57683400D03*
D13*
X219293746Y-55698338D03*
X217709092Y-53713276D03*
D19*
X236651800Y-92989400D03*
D13*
X236084745Y-90513507D03*
X235517689Y-88037613D03*
D20*
X235508800Y-131622800D03*
D13*
X236075855Y-129146907D03*
X236642911Y-126671013D03*
D21*
X217779600Y-165963600D03*
D13*
X219364254Y-163978538D03*
X220948908Y-161993476D03*
D22*
X113919000Y-163385500D03*
D13*
X116459000Y-163385500D03*
X118999000Y-163385500D03*
D22*
X148907500Y-163385500D03*
D13*
X151447500Y-163385500D03*
X153987500Y-163385500D03*
D22*
X183896000Y-163385500D03*
D13*
X186436000Y-163385500D03*
X188976000Y-163385500D03*
D23*
X81978500Y-162052000D03*
D13*
X83563154Y-164037062D03*
X85147808Y-166022124D03*
D24*
X153949400Y-23050500D03*
D13*
X151409400Y-23050500D03*
X148869400Y-23050500D03*
D25*
X226400000Y-130040000D03*
X151440000Y-134870000D03*
X131430000Y-34870000D03*
X76480000Y-130040000D03*
X96480000Y-164690000D03*
X171450000Y-34860000D03*
D26*
X111800000Y-148000000D03*
X114300000Y-148000000D03*
X116800000Y-148000000D03*
D25*
X206380000Y-164680000D03*
M02*
