M48
; DRILL file {KiCad 6.0.2-378541a8eb~116~ubuntu20.04.1} date Wed 16 Feb 2022 10:28:07 PM CET
; FORMAT={-:-/ absolute / metric / decimal}
; #@! TF.CreationDate,2022-02-16T22:28:07+01:00
; #@! TF.GenerationSoftware,Kicad,Pcbnew,6.0.2-378541a8eb~116~ubuntu20.04.1
; #@! TF.FileFunction,Plated,1,2,PTH
FMAT,2
METRIC
; #@! TA.AperFunction,Plated,PTH,ViaDrill
T1C0.200
; #@! TA.AperFunction,Plated,PTH,ViaDrill
T2C0.400
; #@! TA.AperFunction,Plated,PTH,ComponentDrill
T3C0.850
; #@! TA.AperFunction,Plated,PTH,ComponentDrill
T4C0.900
; #@! TA.AperFunction,Plated,PTH,ComponentDrill
T5C1.000
%
G90
G05
T1
X125.25Y-158.25
X127.15Y-158.25
X129.15Y-158.25
X131.05Y-158.25
X133.05Y-158.25
X134.95Y-158.25
X136.95Y-158.2
X138.85Y-158.2
X140.85Y-158.2
X142.75Y-158.2
X144.75Y-158.2
X146.65Y-158.2
X148.7Y-158.2
X149.7Y-142.5
X150.6Y-158.2
X152.55Y-158.2
X154.45Y-158.2
X156.45Y-158.2
X158.35Y-158.2
X160.35Y-158.1
X162.25Y-158.1
X164.25Y-158.2
X166.15Y-158.2
X168.15Y-158.2
X170.05Y-158.2
X171.85Y-158.2
X173.75Y-158.2
X175.65Y-158.2
X177.55Y-158.2
T2
X127.4Y-152.4
X131.2Y-152.4
X135.0Y-152.4
X139.0Y-152.4
X142.8Y-152.4
X146.8Y-152.4
X150.6Y-152.4
X154.6Y-152.4
X158.4Y-152.4
X162.4Y-152.4
X166.2Y-152.4
X170.2Y-152.4
X174.0Y-152.4
X178.0Y-152.4
T3
X144.3Y-145.5
X144.3Y-147.5
X146.3Y-145.5
X146.3Y-147.5
X148.3Y-145.5
X148.3Y-147.5
X150.3Y-145.5
X150.3Y-147.5
X152.3Y-145.5
X152.3Y-147.5
X154.3Y-145.5
X154.3Y-147.5
X156.3Y-145.5
X156.3Y-147.5
X158.3Y-145.5
X158.3Y-147.5
T4
X66.23Y-126.746
X66.239Y-93.09
X66.798Y-129.222
X66.806Y-90.614
X67.365Y-131.698
X67.373Y-88.138
X81.921Y-57.755
X81.978Y-162.052
X83.505Y-55.77
X83.563Y-164.037
X85.09Y-53.784
X85.148Y-166.022
X111.437Y-32.746
X113.726Y-31.645
X113.919Y-163.385
X116.014Y-30.543
X116.459Y-163.385
X118.999Y-163.385
X148.869Y-23.05
X148.907Y-163.385
X151.409Y-23.05
X151.447Y-163.385
X153.949Y-23.05
X153.987Y-163.385
X183.896Y-163.385
X186.436Y-163.385
X186.786Y-30.512
X188.976Y-163.385
X189.075Y-31.614
X191.364Y-32.715
X217.709Y-53.713
X217.78Y-165.964
X219.294Y-55.698
X219.364Y-163.979
X220.878Y-57.683
X220.949Y-161.993
X235.509Y-131.623
X235.518Y-88.038
X236.076Y-129.147
X236.085Y-90.514
X236.643Y-126.671
X236.652Y-92.989
T5
X111.8Y-148.0
X114.3Y-148.0
X116.8Y-148.0
T0
M30
