G04 #@! TF.GenerationSoftware,KiCad,Pcbnew,6.0.2-378541a8eb~116~ubuntu20.04.1*
G04 #@! TF.CreationDate,2022-02-16T22:28:01+01:00*
G04 #@! TF.ProjectId,IR_Board,49525f42-6f61-4726-942e-6b696361645f,rev?*
G04 #@! TF.SameCoordinates,Original*
G04 #@! TF.FileFunction,Soldermask,Top*
G04 #@! TF.FilePolarity,Negative*
%FSLAX46Y46*%
G04 Gerber Fmt 4.6, Leading zero omitted, Abs format (unit mm)*
G04 Created by KiCad (PCBNEW 6.0.2-378541a8eb~116~ubuntu20.04.1) date 2022-02-16 22:28:01*
%MOMM*%
%LPD*%
G01*
G04 APERTURE LIST*
G04 Aperture macros list*
%AMRoundRect*
0 Rectangle with rounded corners*
0 $1 Rounding radius*
0 $2 $3 $4 $5 $6 $7 $8 $9 X,Y pos of 4 corners*
0 Add a 4 corners polygon primitive as box body*
4,1,4,$2,$3,$4,$5,$6,$7,$8,$9,$2,$3,0*
0 Add four circle primitives for the rounded corners*
1,1,$1+$1,$2,$3*
1,1,$1+$1,$4,$5*
1,1,$1+$1,$6,$7*
1,1,$1+$1,$8,$9*
0 Add four rect primitives between the rounded corners*
20,1,$1+$1,$2,$3,$4,$5,0*
20,1,$1+$1,$4,$5,$6,$7,0*
20,1,$1+$1,$6,$7,$8,$9,0*
20,1,$1+$1,$8,$9,$2,$3,0*%
G04 Aperture macros list end*
%ADD10RoundRect,0.150000X0.130000X0.100000X-0.130000X0.100000X-0.130000X-0.100000X0.130000X-0.100000X0*%
%ADD11RoundRect,0.300000X0.337500X0.475000X-0.337500X0.475000X-0.337500X-0.475000X0.337500X-0.475000X0*%
%ADD12RoundRect,0.300000X0.325000X0.450000X-0.325000X0.450000X-0.325000X-0.450000X0.325000X-0.450000X0*%
%ADD13RoundRect,0.300000X-0.325000X-0.450000X0.325000X-0.450000X0.325000X0.450000X-0.325000X0.450000X0*%
%ADD14RoundRect,0.300000X0.350000X0.575000X-0.350000X0.575000X-0.350000X-0.575000X0.350000X-0.575000X0*%
%ADD15O,1.300000X1.750000*%
%ADD16RoundRect,0.050000X-0.325000X-0.200000X0.325000X-0.200000X0.325000X0.200000X-0.325000X0.200000X0*%
%ADD17RoundRect,0.300000X0.350000X0.450000X-0.350000X0.450000X-0.350000X-0.450000X0.350000X-0.450000X0*%
%ADD18RoundRect,0.300000X0.450000X-0.350000X0.450000X0.350000X-0.450000X0.350000X-0.450000X-0.350000X0*%
%ADD19RoundRect,0.300000X-0.350000X-0.450000X0.350000X-0.450000X0.350000X0.450000X-0.350000X0.450000X0*%
%ADD20RoundRect,0.300200X-0.778468X0.488332X-0.488332X-0.778468X0.778468X-0.488332X0.488332X0.778468X0*%
%ADD21C,1.900000*%
%ADD22RoundRect,0.300200X-0.488332X0.778468X-0.778468X-0.488332X0.488332X-0.778468X0.778468X0.488332X0*%
%ADD23RoundRect,0.300200X-0.102435X0.913229X-0.913229X-0.102435X0.102435X-0.913229X0.913229X0.102435X0*%
%ADD24RoundRect,0.300200X0.303728X0.867312X-0.867312X0.303728X-0.303728X-0.867312X0.867312X-0.303728X0*%
%ADD25RoundRect,0.300200X0.867312X0.303728X-0.303728X0.867312X-0.867312X-0.303728X0.303728X-0.867312X0*%
%ADD26RoundRect,0.300200X0.913229X-0.102435X0.102435X0.913229X-0.913229X0.102435X-0.102435X-0.913229X0*%
%ADD27RoundRect,0.300200X0.778468X-0.488332X0.488332X0.778468X-0.778468X0.488332X-0.488332X-0.778468X0*%
%ADD28RoundRect,0.300200X0.488332X-0.778468X0.778468X0.488332X-0.488332X0.778468X-0.778468X-0.488332X0*%
%ADD29RoundRect,0.300200X0.102435X-0.913229X0.913229X0.102435X-0.102435X0.913229X-0.913229X-0.102435X0*%
%ADD30RoundRect,0.300200X-0.649800X-0.649800X0.649800X-0.649800X0.649800X0.649800X-0.649800X0.649800X0*%
%ADD31RoundRect,0.300200X-0.913229X0.102435X-0.102435X-0.913229X0.913229X-0.102435X0.102435X0.913229X0*%
%ADD32RoundRect,0.300200X0.649800X0.649800X-0.649800X0.649800X-0.649800X-0.649800X0.649800X-0.649800X0*%
%ADD33C,4.400000*%
%ADD34C,1.600000*%
G04 APERTURE END LIST*
D10*
X151520000Y-142500000D03*
X150880000Y-142500000D03*
D11*
X154510500Y-152400000D03*
X152435500Y-152400000D03*
X127337500Y-152400000D03*
X125262500Y-152400000D03*
X150587500Y-152400000D03*
X148512500Y-152400000D03*
X177937500Y-152400000D03*
X175862500Y-152400000D03*
X146737500Y-152400000D03*
X144662500Y-152400000D03*
X174037500Y-152400000D03*
X171962500Y-152400000D03*
X142837500Y-152400000D03*
X140762500Y-152400000D03*
X170137500Y-152400000D03*
X168062500Y-152400000D03*
X166237500Y-152400000D03*
X164162500Y-152400000D03*
X138937500Y-152400000D03*
X136862500Y-152400000D03*
X135037500Y-152400000D03*
X132962500Y-152400000D03*
X162337500Y-152400000D03*
X160262500Y-152400000D03*
X131175000Y-152400000D03*
X129100000Y-152400000D03*
X158437500Y-152400000D03*
X156362500Y-152400000D03*
D12*
X105325000Y-148400000D03*
X103275000Y-148400000D03*
D13*
X122050000Y-148200000D03*
X124100000Y-148200000D03*
D14*
X158300000Y-147500000D03*
D15*
X158300000Y-145500000D03*
X156300000Y-147500000D03*
X156300000Y-145500000D03*
X154300000Y-147500000D03*
X154300000Y-145500000D03*
X152300000Y-147500000D03*
X152300000Y-145500000D03*
X150300000Y-147500000D03*
X150300000Y-145500000D03*
X148300000Y-147500000D03*
X148300000Y-145500000D03*
X146300000Y-147500000D03*
X146300000Y-145500000D03*
X144300000Y-147500000D03*
X144300000Y-145500000D03*
D16*
X152550000Y-157550000D03*
X152550000Y-158200000D03*
X152550000Y-158850000D03*
X154450000Y-158850000D03*
X154450000Y-158200000D03*
X154450000Y-157550000D03*
X148700000Y-157550000D03*
X148700000Y-158200000D03*
X148700000Y-158850000D03*
X150600000Y-158850000D03*
X150600000Y-158200000D03*
X150600000Y-157550000D03*
X144750000Y-157550000D03*
X144750000Y-158200000D03*
X144750000Y-158850000D03*
X146650000Y-158850000D03*
X146650000Y-158200000D03*
X146650000Y-157550000D03*
X140850000Y-157550000D03*
X140850000Y-158200000D03*
X140850000Y-158850000D03*
X142750000Y-158850000D03*
X142750000Y-158200000D03*
X142750000Y-157550000D03*
X136950000Y-157550000D03*
X136950000Y-158200000D03*
X136950000Y-158850000D03*
X138850000Y-158850000D03*
X138850000Y-158200000D03*
X138850000Y-157550000D03*
X133050000Y-157600000D03*
X133050000Y-158250000D03*
X133050000Y-158900000D03*
X134950000Y-158900000D03*
X134950000Y-158250000D03*
X134950000Y-157600000D03*
X129150000Y-157600000D03*
X129150000Y-158250000D03*
X129150000Y-158900000D03*
X131050000Y-158900000D03*
X131050000Y-158250000D03*
X131050000Y-157600000D03*
X125250000Y-157600000D03*
X125250000Y-158250000D03*
X125250000Y-158900000D03*
X127150000Y-158900000D03*
X127150000Y-158250000D03*
X127150000Y-157600000D03*
X175650000Y-157550000D03*
X175650000Y-158200000D03*
X175650000Y-158850000D03*
X177550000Y-158850000D03*
X177550000Y-158200000D03*
X177550000Y-157550000D03*
X171850000Y-157550000D03*
X171850000Y-158200000D03*
X171850000Y-158850000D03*
X173750000Y-158850000D03*
X173750000Y-158200000D03*
X173750000Y-157550000D03*
X168150000Y-157550000D03*
X168150000Y-158200000D03*
X168150000Y-158850000D03*
X170050000Y-158850000D03*
X170050000Y-158200000D03*
X170050000Y-157550000D03*
X164250000Y-157550000D03*
X164250000Y-158200000D03*
X164250000Y-158850000D03*
X166150000Y-158850000D03*
X166150000Y-158200000D03*
X166150000Y-157550000D03*
X160350000Y-157450000D03*
X160350000Y-158100000D03*
X160350000Y-158750000D03*
X162250000Y-158750000D03*
X162250000Y-158100000D03*
X162250000Y-157450000D03*
X156450000Y-157550000D03*
X156450000Y-158200000D03*
X156450000Y-158850000D03*
X158350000Y-158850000D03*
X158350000Y-158200000D03*
X158350000Y-157550000D03*
D17*
X127262500Y-154920000D03*
X125262500Y-154920000D03*
X154473000Y-154914000D03*
X152473000Y-154914000D03*
X177900000Y-154900000D03*
X175900000Y-154900000D03*
X150550000Y-154900000D03*
X148550000Y-154900000D03*
X174000000Y-154900000D03*
X172000000Y-154900000D03*
X146700000Y-154900000D03*
X144700000Y-154900000D03*
X170100000Y-154900000D03*
X168100000Y-154900000D03*
X142800000Y-154900000D03*
X140800000Y-154900000D03*
D18*
X114300000Y-154000000D03*
X114300000Y-152000000D03*
D17*
X166200000Y-154900000D03*
X164200000Y-154900000D03*
X138900000Y-154900000D03*
X136900000Y-154900000D03*
D19*
X103300000Y-146400000D03*
X105300000Y-146400000D03*
D17*
X124100000Y-146200000D03*
X122100000Y-146200000D03*
X162300000Y-154900000D03*
X160300000Y-154900000D03*
X134962500Y-154920000D03*
X132962500Y-154920000D03*
X158400000Y-154900000D03*
X156400000Y-154900000D03*
X131100000Y-154920000D03*
X129100000Y-154920000D03*
D20*
X66230500Y-126746000D03*
D21*
X66797555Y-129221893D03*
X67364611Y-131697787D03*
D22*
X67373500Y-88138000D03*
D21*
X66806445Y-90613893D03*
X66239389Y-93089787D03*
D23*
X85090000Y-53784500D03*
D21*
X83505346Y-55769562D03*
X81920692Y-57754624D03*
D24*
X116014500Y-30543500D03*
D21*
X113725764Y-31644994D03*
X111437029Y-32746488D03*
D25*
X191363600Y-32715200D03*
D21*
X189074864Y-31613706D03*
X186786129Y-30512212D03*
D26*
X220878400Y-57683400D03*
D21*
X219293746Y-55698338D03*
X217709092Y-53713276D03*
D27*
X236651800Y-92989400D03*
D21*
X236084745Y-90513507D03*
X235517689Y-88037613D03*
D28*
X235508800Y-131622800D03*
D21*
X236075855Y-129146907D03*
X236642911Y-126671013D03*
D29*
X217779600Y-165963600D03*
D21*
X219364254Y-163978538D03*
X220948908Y-161993476D03*
D30*
X113919000Y-163385500D03*
D21*
X116459000Y-163385500D03*
X118999000Y-163385500D03*
D30*
X148907500Y-163385500D03*
D21*
X151447500Y-163385500D03*
X153987500Y-163385500D03*
D30*
X183896000Y-163385500D03*
D21*
X186436000Y-163385500D03*
X188976000Y-163385500D03*
D31*
X81978500Y-162052000D03*
D21*
X83563154Y-164037062D03*
X85147808Y-166022124D03*
D32*
X153949400Y-23050500D03*
D21*
X151409400Y-23050500D03*
X148869400Y-23050500D03*
D33*
X226400000Y-130040000D03*
X151440000Y-134870000D03*
X131430000Y-34870000D03*
X76480000Y-130040000D03*
X96480000Y-164690000D03*
X171450000Y-34860000D03*
D34*
X111800000Y-148000000D03*
X114300000Y-148000000D03*
X116800000Y-148000000D03*
D33*
X206380000Y-164680000D03*
M02*
