G04 #@! TF.GenerationSoftware,KiCad,Pcbnew,6.0.2-378541a8eb~116~ubuntu20.04.1*
G04 #@! TF.CreationDate,2022-02-16T22:28:01+01:00*
G04 #@! TF.ProjectId,IR_Board,49525f42-6f61-4726-942e-6b696361645f,rev?*
G04 #@! TF.SameCoordinates,Original*
G04 #@! TF.FileFunction,Profile,NP*
%FSLAX46Y46*%
G04 Gerber Fmt 4.6, Leading zero omitted, Abs format (unit mm)*
G04 Created by KiCad (PCBNEW 6.0.2-378541a8eb~116~ubuntu20.04.1) date 2022-02-16 22:28:01*
%MOMM*%
%LPD*%
G01*
G04 APERTURE LIST*
G04 #@! TA.AperFunction,Profile*
%ADD10C,0.200000*%
G04 #@! TD*
%ADD11C,0.200000*%
G04 APERTURE END LIST*
D10*
X205412430Y-140907980D02*
X205250130Y-141077960D01*
D11*
X77783067Y-169865613D02*
X77918871Y-170031939D01*
X78055051Y-170197958D01*
X78191605Y-170363667D01*
X78328533Y-170529067D01*
X78465834Y-170694157D01*
X78603508Y-170858936D01*
X78741554Y-171023403D01*
X78879972Y-171187558D01*
X79018761Y-171351401D01*
X79157921Y-171514930D01*
X79250900Y-171623776D01*
D10*
X110499222Y-144865613D02*
X110145382Y-144862200D01*
X203764330Y-142255810D02*
X203557430Y-142381660D01*
X202003430Y-143144860D02*
X201531630Y-143328280D01*
D11*
X216294868Y-40449886D02*
X212814156Y-37351790D01*
X209222567Y-34453572D01*
X205527493Y-31755231D01*
X201736327Y-29256767D01*
X197856459Y-26958181D01*
X193895281Y-24859471D01*
X189860185Y-22960638D01*
X185758564Y-21261683D01*
X181597808Y-19762605D01*
X177385310Y-18463403D01*
X173128461Y-17364079D01*
X168834653Y-16464632D01*
X164511278Y-15765062D01*
X160165728Y-15265370D01*
X155805394Y-14965554D01*
X151437668Y-14865616D01*
X147069942Y-14965554D01*
X142709608Y-15265370D01*
X138364058Y-15765062D01*
X134040683Y-16464632D01*
X129746875Y-17364079D01*
X125490026Y-18463403D01*
X121277528Y-19762605D01*
X117116772Y-21261683D01*
X113015151Y-22960638D01*
X108980055Y-24859471D01*
X105018877Y-26958181D01*
X101139009Y-29256767D01*
X97347843Y-31755231D01*
X93652769Y-34453572D01*
X90061180Y-37351790D01*
X86580469Y-40449886D01*
X164366598Y-131294546D02*
X164188842Y-131121145D01*
X164007273Y-130952602D01*
X163821995Y-130788959D01*
X163633108Y-130630258D01*
X163440717Y-130476543D01*
X163244923Y-130327855D01*
X163045828Y-130184237D01*
X162843535Y-130045731D01*
X162638147Y-129912379D01*
X162429766Y-129784225D01*
X162218495Y-129661311D01*
X162004435Y-129543678D01*
X161787690Y-129431370D01*
X161568361Y-129324429D01*
X161346552Y-129222897D01*
X161122365Y-129126818D01*
X160895902Y-129036232D01*
X160667265Y-128951183D01*
X160436558Y-128871713D01*
X160203882Y-128797864D01*
X159969340Y-128729680D01*
X159733035Y-128667202D01*
X159495069Y-128610473D01*
X159255544Y-128559535D01*
X159014563Y-128514431D01*
X158772228Y-128475203D01*
X158528642Y-128441894D01*
X158283908Y-128414546D01*
X158038127Y-128393201D01*
X157791402Y-128377902D01*
X157543836Y-128368692D01*
X157295531Y-128365613D01*
D10*
X222253240Y-172426094D02*
X222369140Y-172407804D01*
X222606840Y-172347974D02*
X222728340Y-172304494D01*
X97155092Y-140552030D02*
X97009917Y-140365960D01*
D11*
X175008734Y-141936681D02*
X164366598Y-131294546D01*
D10*
X101824427Y-143497840D02*
X101343432Y-143328280D01*
X80622120Y-172426089D02*
X80735880Y-172437589D01*
X199569730Y-143931210D02*
X199069330Y-144052940D01*
X81062490Y-172435547D02*
X81165970Y-172423337D01*
X204547030Y-141706190D02*
X204358430Y-141850730D01*
X203346330Y-142503090D02*
X202912430Y-142733120D01*
X194310000Y-144780000D02*
X193891330Y-144810900D01*
X192729660Y-144862200D02*
X192376111Y-144865613D01*
X99317711Y-142381660D02*
X99110757Y-142255810D01*
X204165030Y-141990450D02*
X203966930Y-142125440D01*
X80735880Y-172437589D02*
X80847310Y-172442805D01*
D11*
X193994708Y-55734087D02*
X196228199Y-57760102D01*
X198348261Y-59868146D01*
X200354274Y-62053930D01*
X202245621Y-64313165D01*
X204021682Y-66641560D01*
X205681840Y-69034826D01*
X207225476Y-71488675D01*
X208651972Y-73998816D01*
X209960709Y-76560960D01*
X211151070Y-79170818D01*
X212222435Y-81824100D01*
X213174188Y-84516517D01*
X214005708Y-87243780D01*
X214716379Y-90001598D01*
X215305582Y-92785683D01*
X215772697Y-95591745D01*
X216117108Y-98415495D01*
X216338196Y-101252642D01*
X216435342Y-104098899D01*
X216407928Y-106949975D01*
X216255337Y-109801581D01*
X215976948Y-112649428D01*
X215572145Y-115489226D01*
X215040309Y-118316685D01*
X214380821Y-121127517D01*
X213593064Y-123917431D01*
X212676418Y-126682139D01*
X211630266Y-129417351D01*
X210453990Y-132118777D01*
X209146971Y-134782129D01*
X207708590Y-137403116D01*
X206138230Y-139977450D01*
D10*
X222487040Y-172382054D02*
X222606840Y-172347974D01*
X79250900Y-171623776D02*
X79383880Y-171770797D01*
X98144380Y-141556730D02*
X97965920Y-141402260D01*
X79383880Y-171770797D02*
X79515160Y-171899317D01*
D11*
X127866598Y-141936681D02*
X127688842Y-142110081D01*
X127507273Y-142278624D01*
X127321995Y-142442267D01*
X127133108Y-142600968D01*
X126940717Y-142754683D01*
X126744922Y-142903371D01*
X126545827Y-143046989D01*
X126343535Y-143185495D01*
X126138147Y-143318847D01*
X125929766Y-143447001D01*
X125718494Y-143569915D01*
X125504434Y-143687547D01*
X125287689Y-143799855D01*
X125068361Y-143906796D01*
X124846552Y-144008328D01*
X124622364Y-144104408D01*
X124395901Y-144194994D01*
X124167265Y-144280043D01*
X123936557Y-144359513D01*
X123703882Y-144433361D01*
X123469340Y-144501545D01*
X123233035Y-144564023D01*
X122995069Y-144620752D01*
X122755544Y-144671690D01*
X122514563Y-144716794D01*
X122272228Y-144756022D01*
X122028642Y-144789331D01*
X121783908Y-144816679D01*
X121538127Y-144838024D01*
X121291402Y-144853323D01*
X121043836Y-144862533D01*
X120795531Y-144865613D01*
D10*
X79644760Y-172010219D02*
X79772730Y-172104739D01*
X204909130Y-141402260D02*
X204730630Y-141556730D01*
X204358430Y-141850730D02*
X204165030Y-141990450D01*
X107685932Y-144697100D02*
X107227788Y-144644900D01*
X205865330Y-140365960D02*
X205720130Y-140552030D01*
X198568430Y-144164380D02*
X198068780Y-144266100D01*
X100410869Y-142946760D02*
X99962706Y-142733120D01*
X194742960Y-144742100D02*
X194310000Y-144780000D01*
X97965920Y-141402260D02*
X97792737Y-141242700D01*
D11*
X225092270Y-169865613D02*
X227947165Y-166182798D01*
X230595123Y-162402918D01*
X233036646Y-158533348D01*
X235272235Y-154581461D01*
X237302392Y-150554633D01*
X239127617Y-146460239D01*
X240748411Y-142305653D01*
X242165278Y-138098250D01*
X243378716Y-133845405D01*
X244389229Y-129554493D01*
X245197316Y-125232888D01*
X245803481Y-120887965D01*
X246208223Y-116527099D01*
X246412044Y-112157664D01*
X246415446Y-107787036D01*
X246218929Y-103422590D01*
X245822996Y-99071699D01*
X245228147Y-94741738D01*
X244434883Y-90440084D01*
X243443707Y-86174109D01*
X242255120Y-81951190D01*
X240869622Y-77778700D01*
X239287715Y-73664014D01*
X237509900Y-69614508D01*
X235536679Y-65637556D01*
X233368554Y-61740533D01*
X231006024Y-57930814D01*
X228449592Y-54215772D01*
X225699759Y-50602784D01*
X222757027Y-47099224D01*
X219621896Y-43712466D01*
X216294868Y-40449886D01*
D10*
X80506200Y-172407799D02*
X80622120Y-172426089D01*
X222028040Y-172442810D02*
X222139440Y-172437594D01*
D11*
X223624640Y-171623781D02*
X223764027Y-171460460D01*
X223903044Y-171296825D01*
X224041690Y-171132878D01*
X224179965Y-170968618D01*
X224317868Y-170804046D01*
X224455399Y-170639163D01*
X224592556Y-170473969D01*
X224729341Y-170308466D01*
X224865751Y-170142653D01*
X225001787Y-169976531D01*
X225092270Y-169865613D01*
D10*
X198068780Y-144266100D02*
X197572090Y-144358600D01*
X193487900Y-144834900D02*
X193100480Y-144852000D01*
X109774562Y-144852000D02*
X109387142Y-144834900D01*
X106758972Y-144585200D02*
X106280889Y-144517800D01*
X107227788Y-144644900D02*
X106758972Y-144585200D01*
X202912430Y-142733120D02*
X202464230Y-142946760D01*
X98327982Y-141706190D02*
X98144380Y-141556730D01*
X200562130Y-143654350D02*
X200067930Y-143798570D01*
X195647250Y-144644900D02*
X195189110Y-144697100D01*
X203557430Y-142381660D02*
X203346330Y-142503090D01*
X205082330Y-141242700D02*
X204909130Y-141402260D01*
X223230740Y-172010224D02*
X223360340Y-171899322D01*
X105795028Y-144442400D02*
X105302946Y-144358600D01*
X195189110Y-144697100D02*
X194742960Y-144742100D01*
X108132087Y-144742100D02*
X107685932Y-144697100D01*
X201531630Y-143328280D02*
X201050630Y-143497840D01*
X196116070Y-144585200D02*
X195647250Y-144644900D01*
D11*
X223491640Y-171770802D02*
X223624640Y-171623781D01*
D10*
X108983712Y-144810900D02*
X108565042Y-144780000D01*
X98908133Y-142125440D02*
X98710017Y-141990450D01*
X204730630Y-141556730D02*
X204547030Y-141706190D01*
X206004730Y-140174441D02*
X205865330Y-140365960D01*
X222976340Y-172184304D02*
X223102740Y-172104744D01*
X104806257Y-144266100D02*
X104306621Y-144164380D01*
X193891330Y-144810900D02*
X193487900Y-144834900D01*
X201050630Y-143497840D02*
X200562130Y-143654350D01*
X97306041Y-140732690D02*
X97155092Y-140552030D01*
X108565042Y-144780000D02*
X108132087Y-144742100D01*
X109387142Y-144834900D02*
X108983712Y-144810900D01*
X110145382Y-144862200D02*
X109774562Y-144852000D01*
X222139440Y-172437594D02*
X222253240Y-172426094D01*
X80268530Y-172347969D02*
X80388290Y-172382050D01*
X100871673Y-143144860D02*
X100410869Y-142946760D01*
X104306621Y-144164380D02*
X103805736Y-144052940D01*
X79899100Y-172184299D02*
X80023870Y-172250389D01*
X106280889Y-144517800D02*
X105795028Y-144442400D01*
X203966930Y-142125440D02*
X203764330Y-142255810D01*
X110499222Y-144865613D02*
X110499222Y-144865613D01*
X202464230Y-142946760D02*
X202003430Y-143144860D01*
D11*
X108880612Y-55734087D02*
X111204560Y-53812502D01*
X113593516Y-52014891D01*
X116043143Y-50341253D01*
X118549110Y-48791588D01*
X121107082Y-47365897D01*
X123712726Y-46064178D01*
X126361707Y-44886433D01*
X129049692Y-43832661D01*
X131772347Y-42902862D01*
X134525338Y-42097036D01*
X137304332Y-41415184D01*
X140104995Y-40857304D01*
X142922993Y-40423398D01*
X145753992Y-40113465D01*
X148593659Y-39927506D01*
X151437660Y-39865519D01*
X154281660Y-39927506D01*
X157121327Y-40113465D01*
X159952326Y-40423398D01*
X162770324Y-40857304D01*
X165570987Y-41415184D01*
X168349981Y-42097036D01*
X171102972Y-42902862D01*
X173825627Y-43832661D01*
X176513612Y-44886433D01*
X179162593Y-46064178D01*
X181768237Y-47365897D01*
X184326209Y-48791588D01*
X186832176Y-50341253D01*
X189281803Y-52014891D01*
X191670759Y-53812502D01*
X193994708Y-55734087D01*
D10*
X98522640Y-169865613D02*
X204352690Y-169865613D01*
X97009917Y-140365960D02*
X96870570Y-140174441D01*
D11*
X86580469Y-40449886D02*
X83253440Y-43712466D01*
X80118309Y-47099224D01*
X77175577Y-50602784D01*
X74425744Y-54215772D01*
X71869312Y-57930814D01*
X69506782Y-61740533D01*
X67338657Y-65637556D01*
X65365436Y-69614508D01*
X63587621Y-73664014D01*
X62005714Y-77778700D01*
X60620216Y-81951190D01*
X59431629Y-86174109D01*
X58440453Y-90440084D01*
X57647189Y-94741738D01*
X57052340Y-99071699D01*
X56656407Y-103422590D01*
X56459890Y-107787036D01*
X56463292Y-112157664D01*
X56667113Y-116527099D01*
X57071855Y-120887965D01*
X57678020Y-125232888D01*
X58486107Y-129554493D01*
X59496620Y-133845405D01*
X60710059Y-138098250D01*
X62126925Y-142305653D01*
X63747719Y-146460239D01*
X65572944Y-150554633D01*
X67603101Y-154581461D01*
X69838690Y-158533348D01*
X72280213Y-162402918D01*
X74928171Y-166182798D01*
X77783067Y-169865613D01*
D10*
X103805736Y-144052940D02*
X103305325Y-143931210D01*
X99110757Y-142255810D02*
X98908133Y-142125440D01*
X222369140Y-172407804D02*
X222487040Y-172382054D01*
D11*
X182079802Y-144865613D02*
X181831496Y-144862533D01*
X181583930Y-144853323D01*
X181337205Y-144838024D01*
X181091424Y-144816679D01*
X180846690Y-144789331D01*
X180603104Y-144756022D01*
X180360769Y-144716794D01*
X180119788Y-144671690D01*
X179880263Y-144620752D01*
X179642297Y-144564023D01*
X179405992Y-144501545D01*
X179171450Y-144433361D01*
X178938774Y-144359513D01*
X178708067Y-144280043D01*
X178479430Y-144194994D01*
X178252967Y-144104408D01*
X178028780Y-144008328D01*
X177806971Y-143906796D01*
X177587642Y-143799855D01*
X177370897Y-143687547D01*
X177156837Y-143569915D01*
X176945566Y-143447001D01*
X176737184Y-143318847D01*
X176531796Y-143185495D01*
X176329504Y-143046989D01*
X176130409Y-142903371D01*
X175934614Y-142754683D01*
X175742223Y-142600968D01*
X175553336Y-142442267D01*
X175368058Y-142278624D01*
X175186489Y-142110081D01*
X175008734Y-141936681D01*
D10*
X102312913Y-143654350D02*
X101824427Y-143497840D01*
D11*
X145579802Y-128365613D02*
X145331496Y-128368692D01*
X145083930Y-128377902D01*
X144837205Y-128393201D01*
X144591424Y-128414546D01*
X144346690Y-128441894D01*
X144103104Y-128475203D01*
X143860769Y-128514431D01*
X143619788Y-128559535D01*
X143380263Y-128610473D01*
X143142297Y-128667202D01*
X142905992Y-128729680D01*
X142671450Y-128797864D01*
X142438774Y-128871713D01*
X142208067Y-128951183D01*
X141979430Y-129036232D01*
X141752967Y-129126818D01*
X141528780Y-129222897D01*
X141306971Y-129324429D01*
X141087642Y-129431370D01*
X140870897Y-129543678D01*
X140656837Y-129661311D01*
X140445566Y-129784225D01*
X140237184Y-129912379D01*
X140031796Y-130045731D01*
X139829504Y-130184237D01*
X139630409Y-130327855D01*
X139434614Y-130476543D01*
X139242223Y-130630258D01*
X139053336Y-130788959D01*
X138868058Y-130952602D01*
X138686489Y-131121145D01*
X138508734Y-131294546D01*
D10*
X223102740Y-172104744D02*
X223230740Y-172010224D01*
X120795531Y-144865613D02*
X110499222Y-144865613D01*
X199069330Y-144052940D02*
X198568430Y-144164380D01*
X206138230Y-139977450D02*
X206004730Y-140174441D01*
X205569130Y-140732690D02*
X205412430Y-140907980D01*
X223360340Y-171899322D02*
X223491640Y-171770802D01*
X98710017Y-141990450D02*
X98516579Y-141850730D01*
X80847310Y-172442805D02*
X80956230Y-172442062D01*
X221709340Y-172423342D02*
X221812840Y-172435552D01*
X81165970Y-172423337D02*
X98522640Y-169865613D01*
X206138230Y-139977450D02*
X206138230Y-139977450D01*
X97792737Y-141242700D02*
X97624956Y-141077960D01*
X102807132Y-143798570D02*
X102312913Y-143654350D01*
X99962706Y-142733120D02*
X99528814Y-142503090D01*
X97462691Y-140907980D02*
X97306041Y-140732690D01*
X204352690Y-169865613D02*
X221709340Y-172423342D01*
X192376111Y-144865613D02*
X182079802Y-144865613D01*
X80023870Y-172250389D02*
X80147030Y-172304489D01*
X101343432Y-143328280D02*
X100871673Y-143144860D01*
X197572090Y-144358600D02*
X197080010Y-144442400D01*
X98516579Y-141850730D02*
X98327982Y-141706190D01*
X221919140Y-172442067D02*
X222028040Y-172442810D01*
X222851540Y-172250394D02*
X222976340Y-172184304D01*
X205250130Y-141077960D02*
X205082330Y-141242700D01*
X157295531Y-128365613D02*
X145579802Y-128365613D01*
X205720130Y-140552030D02*
X205569130Y-140732690D01*
D11*
X96737090Y-139977450D02*
X95166729Y-137403116D01*
X93728348Y-134782129D01*
X92421329Y-132118777D01*
X91245053Y-129417351D01*
X90198901Y-126682139D01*
X89282255Y-123917431D01*
X88494498Y-121127517D01*
X87835010Y-118316685D01*
X87303174Y-115489226D01*
X86898371Y-112649428D01*
X86619982Y-109801581D01*
X86467391Y-106949975D01*
X86439977Y-104098899D01*
X86537123Y-101252642D01*
X86758211Y-98415495D01*
X87102622Y-95591745D01*
X87569737Y-92785683D01*
X88158940Y-90001598D01*
X88869611Y-87243780D01*
X89701131Y-84516517D01*
X90652884Y-81824100D01*
X91724249Y-79170818D01*
X92914610Y-76560960D01*
X94223347Y-73998816D01*
X95649843Y-71488675D01*
X97193479Y-69034826D01*
X98853637Y-66641560D01*
X100629698Y-64313165D01*
X102521045Y-62053930D01*
X104527058Y-59868146D01*
X106647120Y-57760102D01*
X108880612Y-55734087D01*
D10*
X80956230Y-172442062D02*
X81062490Y-172435547D01*
X197080010Y-144442400D02*
X196594150Y-144517800D01*
X222728340Y-172304494D02*
X222851540Y-172250394D01*
X80147030Y-172304489D02*
X80268530Y-172347969D01*
X193100480Y-144852000D02*
X192729660Y-144862200D01*
X103305325Y-143931210D02*
X102807132Y-143798570D01*
D11*
X96870570Y-140174441D02*
X96737090Y-139977450D01*
D10*
X99528814Y-142503090D02*
X99317711Y-142381660D01*
X97624956Y-141077960D02*
X97462691Y-140907980D01*
X138508734Y-131294546D02*
X127866598Y-141936681D01*
X105302946Y-144358600D02*
X104806257Y-144266100D01*
X196594150Y-144517800D02*
X196116070Y-144585200D01*
X79515160Y-171899317D02*
X79644760Y-172010219D01*
X79772730Y-172104739D02*
X79899100Y-172184299D01*
X221812840Y-172435552D02*
X221919140Y-172442067D01*
X200067930Y-143798570D02*
X199569730Y-143931210D01*
X80388290Y-172382050D02*
X80506200Y-172407799D01*
M02*
