G04 #@! TF.GenerationSoftware,KiCad,Pcbnew,(5.1.6)-1*
G04 #@! TF.CreationDate,2021-01-10T23:04:02+01:00*
G04 #@! TF.ProjectId,Robocup_PCB,526f626f-6375-4705-9f50-43422e6b6963,v1*
G04 #@! TF.SameCoordinates,Original*
G04 #@! TF.FileFunction,Paste,Top*
G04 #@! TF.FilePolarity,Positive*
%FSLAX46Y46*%
G04 Gerber Fmt 4.6, Leading zero omitted, Abs format (unit mm)*
G04 Created by KiCad (PCBNEW (5.1.6)-1) date 2021-01-10 23:04:02*
%MOMM*%
%LPD*%
G01*
G04 APERTURE LIST*
%ADD10C,0.100000*%
G04 APERTURE END LIST*
G36*
G01*
X219215000Y-81905000D02*
X219215000Y-80655000D01*
G75*
G02*
X219465000Y-80405000I250000J0D01*
G01*
X220390000Y-80405000D01*
G75*
G02*
X220640000Y-80655000I0J-250000D01*
G01*
X220640000Y-81905000D01*
G75*
G02*
X220390000Y-82155000I-250000J0D01*
G01*
X219465000Y-82155000D01*
G75*
G02*
X219215000Y-81905000I0J250000D01*
G01*
G37*
G36*
G01*
X216240000Y-81905000D02*
X216240000Y-80655000D01*
G75*
G02*
X216490000Y-80405000I250000J0D01*
G01*
X217415000Y-80405000D01*
G75*
G02*
X217665000Y-80655000I0J-250000D01*
G01*
X217665000Y-81905000D01*
G75*
G02*
X217415000Y-82155000I-250000J0D01*
G01*
X216490000Y-82155000D01*
G75*
G02*
X216240000Y-81905000I0J250000D01*
G01*
G37*
G36*
G01*
X278488670Y-59348766D02*
X279113670Y-58266234D01*
G75*
G02*
X279455176Y-58174728I216506J-125000D01*
G01*
X280256250Y-58637228D01*
G75*
G02*
X280347756Y-58978734I-125000J-216506D01*
G01*
X279722756Y-60061266D01*
G75*
G02*
X279381250Y-60152772I-216506J125000D01*
G01*
X278580176Y-59690272D01*
G75*
G02*
X278488670Y-59348766I125000J216506D01*
G01*
G37*
G36*
G01*
X275912244Y-57861266D02*
X276537244Y-56778734D01*
G75*
G02*
X276878750Y-56687228I216506J-125000D01*
G01*
X277679824Y-57149728D01*
G75*
G02*
X277771330Y-57491234I-125000J-216506D01*
G01*
X277146330Y-58573766D01*
G75*
G02*
X276804824Y-58665272I-216506J125000D01*
G01*
X276003750Y-58202772D01*
G75*
G02*
X275912244Y-57861266I125000J216506D01*
G01*
G37*
G36*
G01*
X305916234Y-84803670D02*
X306998766Y-84178670D01*
G75*
G02*
X307340272Y-84270176I125000J-216506D01*
G01*
X307802772Y-85071250D01*
G75*
G02*
X307711266Y-85412756I-216506J-125000D01*
G01*
X306628734Y-86037756D01*
G75*
G02*
X306287228Y-85946250I-125000J216506D01*
G01*
X305824728Y-85145176D01*
G75*
G02*
X305916234Y-84803670I216506J125000D01*
G01*
G37*
G36*
G01*
X304428734Y-82227244D02*
X305511266Y-81602244D01*
G75*
G02*
X305852772Y-81693750I125000J-216506D01*
G01*
X306315272Y-82494824D01*
G75*
G02*
X306223766Y-82836330I-216506J-125000D01*
G01*
X305141234Y-83461330D01*
G75*
G02*
X304799728Y-83369824I-125000J216506D01*
G01*
X304337228Y-82568750D01*
G75*
G02*
X304428734Y-82227244I216506J125000D01*
G01*
G37*
G36*
G01*
X307985000Y-129045000D02*
X309235000Y-129045000D01*
G75*
G02*
X309485000Y-129295000I0J-250000D01*
G01*
X309485000Y-130220000D01*
G75*
G02*
X309235000Y-130470000I-250000J0D01*
G01*
X307985000Y-130470000D01*
G75*
G02*
X307735000Y-130220000I0J250000D01*
G01*
X307735000Y-129295000D01*
G75*
G02*
X307985000Y-129045000I250000J0D01*
G01*
G37*
G36*
G01*
X307985000Y-126070000D02*
X309235000Y-126070000D01*
G75*
G02*
X309485000Y-126320000I0J-250000D01*
G01*
X309485000Y-127245000D01*
G75*
G02*
X309235000Y-127495000I-250000J0D01*
G01*
X307985000Y-127495000D01*
G75*
G02*
X307735000Y-127245000I0J250000D01*
G01*
X307735000Y-126320000D01*
G75*
G02*
X307985000Y-126070000I250000J0D01*
G01*
G37*
G36*
G01*
X294981234Y-171808670D02*
X296063766Y-172433670D01*
G75*
G02*
X296155272Y-172775176I-125000J-216506D01*
G01*
X295692772Y-173576250D01*
G75*
G02*
X295351266Y-173667756I-216506J125000D01*
G01*
X294268734Y-173042756D01*
G75*
G02*
X294177228Y-172701250I125000J216506D01*
G01*
X294639728Y-171900176D01*
G75*
G02*
X294981234Y-171808670I216506J-125000D01*
G01*
G37*
G36*
G01*
X296468734Y-169232244D02*
X297551266Y-169857244D01*
G75*
G02*
X297642772Y-170198750I-125000J-216506D01*
G01*
X297180272Y-170999824D01*
G75*
G02*
X296838766Y-171091330I-216506J125000D01*
G01*
X295756234Y-170466330D01*
G75*
G02*
X295664728Y-170124824I125000J216506D01*
G01*
X296127228Y-169323750D01*
G75*
G02*
X296468734Y-169232244I216506J-125000D01*
G01*
G37*
G36*
G01*
X261906330Y-207491234D02*
X262531330Y-208573766D01*
G75*
G02*
X262439824Y-208915272I-216506J-125000D01*
G01*
X261638750Y-209377772D01*
G75*
G02*
X261297244Y-209286266I-125000J216506D01*
G01*
X260672244Y-208203734D01*
G75*
G02*
X260763750Y-207862228I216506J125000D01*
G01*
X261564824Y-207399728D01*
G75*
G02*
X261906330Y-207491234I125000J-216506D01*
G01*
G37*
G36*
G01*
X264482756Y-206003734D02*
X265107756Y-207086266D01*
G75*
G02*
X265016250Y-207427772I-216506J-125000D01*
G01*
X264215176Y-207890272D01*
G75*
G02*
X263873670Y-207798766I-125000J216506D01*
G01*
X263248670Y-206716234D01*
G75*
G02*
X263340176Y-206374728I216506J125000D01*
G01*
X264141250Y-205912228D01*
G75*
G02*
X264482756Y-206003734I125000J-216506D01*
G01*
G37*
G36*
G01*
X218430000Y-225920000D02*
X217180000Y-225920000D01*
G75*
G02*
X216930000Y-225670000I0J250000D01*
G01*
X216930000Y-224745000D01*
G75*
G02*
X217180000Y-224495000I250000J0D01*
G01*
X218430000Y-224495000D01*
G75*
G02*
X218680000Y-224745000I0J-250000D01*
G01*
X218680000Y-225670000D01*
G75*
G02*
X218430000Y-225920000I-250000J0D01*
G01*
G37*
G36*
G01*
X218430000Y-228895000D02*
X217180000Y-228895000D01*
G75*
G02*
X216930000Y-228645000I0J250000D01*
G01*
X216930000Y-227720000D01*
G75*
G02*
X217180000Y-227470000I250000J0D01*
G01*
X218430000Y-227470000D01*
G75*
G02*
X218680000Y-227720000I0J-250000D01*
G01*
X218680000Y-228645000D01*
G75*
G02*
X218430000Y-228895000I-250000J0D01*
G01*
G37*
G36*
G01*
X169821330Y-206716234D02*
X169196330Y-207798766D01*
G75*
G02*
X168854824Y-207890272I-216506J125000D01*
G01*
X168053750Y-207427772D01*
G75*
G02*
X167962244Y-207086266I125000J216506D01*
G01*
X168587244Y-206003734D01*
G75*
G02*
X168928750Y-205912228I216506J-125000D01*
G01*
X169729824Y-206374728D01*
G75*
G02*
X169821330Y-206716234I-125000J-216506D01*
G01*
G37*
G36*
G01*
X172397756Y-208203734D02*
X171772756Y-209286266D01*
G75*
G02*
X171431250Y-209377772I-216506J125000D01*
G01*
X170630176Y-208915272D01*
G75*
G02*
X170538670Y-208573766I125000J216506D01*
G01*
X171163670Y-207491234D01*
G75*
G02*
X171505176Y-207399728I216506J-125000D01*
G01*
X172306250Y-207862228D01*
G75*
G02*
X172397756Y-208203734I-125000J-216506D01*
G01*
G37*
G36*
G01*
X136678766Y-172371330D02*
X135596234Y-172996330D01*
G75*
G02*
X135254728Y-172904824I-125000J216506D01*
G01*
X134792228Y-172103750D01*
G75*
G02*
X134883734Y-171762244I216506J125000D01*
G01*
X135966266Y-171137244D01*
G75*
G02*
X136307772Y-171228750I125000J-216506D01*
G01*
X136770272Y-172029824D01*
G75*
G02*
X136678766Y-172371330I-216506J-125000D01*
G01*
G37*
G36*
G01*
X138166266Y-174947756D02*
X137083734Y-175572756D01*
G75*
G02*
X136742228Y-175481250I-125000J216506D01*
G01*
X136279728Y-174680176D01*
G75*
G02*
X136371234Y-174338670I216506J125000D01*
G01*
X137453766Y-173713670D01*
G75*
G02*
X137795272Y-173805176I125000J-216506D01*
G01*
X138257772Y-174606250D01*
G75*
G02*
X138166266Y-174947756I-216506J-125000D01*
G01*
G37*
G36*
G01*
X125085000Y-124955000D02*
X123835000Y-124955000D01*
G75*
G02*
X123585000Y-124705000I0J250000D01*
G01*
X123585000Y-123780000D01*
G75*
G02*
X123835000Y-123530000I250000J0D01*
G01*
X125085000Y-123530000D01*
G75*
G02*
X125335000Y-123780000I0J-250000D01*
G01*
X125335000Y-124705000D01*
G75*
G02*
X125085000Y-124955000I-250000J0D01*
G01*
G37*
G36*
G01*
X125085000Y-127930000D02*
X123835000Y-127930000D01*
G75*
G02*
X123585000Y-127680000I0J250000D01*
G01*
X123585000Y-126755000D01*
G75*
G02*
X123835000Y-126505000I250000J0D01*
G01*
X125085000Y-126505000D01*
G75*
G02*
X125335000Y-126755000I0J-250000D01*
G01*
X125335000Y-127680000D01*
G75*
G02*
X125085000Y-127930000I-250000J0D01*
G01*
G37*
G36*
G01*
X137453766Y-70126330D02*
X136371234Y-69501330D01*
G75*
G02*
X136279728Y-69159824I125000J216506D01*
G01*
X136742228Y-68358750D01*
G75*
G02*
X137083734Y-68267244I216506J-125000D01*
G01*
X138166266Y-68892244D01*
G75*
G02*
X138257772Y-69233750I-125000J-216506D01*
G01*
X137795272Y-70034824D01*
G75*
G02*
X137453766Y-70126330I-216506J125000D01*
G01*
G37*
G36*
G01*
X135966266Y-72702756D02*
X134883734Y-72077756D01*
G75*
G02*
X134792228Y-71736250I125000J216506D01*
G01*
X135254728Y-70935176D01*
G75*
G02*
X135596234Y-70843670I216506J-125000D01*
G01*
X136678766Y-71468670D01*
G75*
G02*
X136770272Y-71810176I-125000J-216506D01*
G01*
X136307772Y-72611250D01*
G75*
G02*
X135966266Y-72702756I-216506J125000D01*
G01*
G37*
G36*
G01*
X161003670Y-55398766D02*
X160378670Y-54316234D01*
G75*
G02*
X160470176Y-53974728I216506J125000D01*
G01*
X161271250Y-53512228D01*
G75*
G02*
X161612756Y-53603734I125000J-216506D01*
G01*
X162237756Y-54686266D01*
G75*
G02*
X162146250Y-55027772I-216506J-125000D01*
G01*
X161345176Y-55490272D01*
G75*
G02*
X161003670Y-55398766I-125000J216506D01*
G01*
G37*
G36*
G01*
X158427244Y-56886266D02*
X157802244Y-55803734D01*
G75*
G02*
X157893750Y-55462228I216506J125000D01*
G01*
X158694824Y-54999728D01*
G75*
G02*
X159036330Y-55091234I125000J-216506D01*
G01*
X159661330Y-56173766D01*
G75*
G02*
X159569824Y-56515272I-216506J-125000D01*
G01*
X158768750Y-56977772D01*
G75*
G02*
X158427244Y-56886266I-125000J216506D01*
G01*
G37*
G36*
G01*
X274460000Y-76825000D02*
X274460000Y-75575000D01*
G75*
G02*
X274710000Y-75325000I250000J0D01*
G01*
X275635000Y-75325000D01*
G75*
G02*
X275885000Y-75575000I0J-250000D01*
G01*
X275885000Y-76825000D01*
G75*
G02*
X275635000Y-77075000I-250000J0D01*
G01*
X274710000Y-77075000D01*
G75*
G02*
X274460000Y-76825000I0J250000D01*
G01*
G37*
G36*
G01*
X271485000Y-76825000D02*
X271485000Y-75575000D01*
G75*
G02*
X271735000Y-75325000I250000J0D01*
G01*
X272660000Y-75325000D01*
G75*
G02*
X272910000Y-75575000I0J-250000D01*
G01*
X272910000Y-76825000D01*
G75*
G02*
X272660000Y-77075000I-250000J0D01*
G01*
X271735000Y-77075000D01*
G75*
G02*
X271485000Y-76825000I0J250000D01*
G01*
G37*
G36*
G01*
X224975000Y-94799999D02*
X224975000Y-95700001D01*
G75*
G02*
X224725001Y-95950000I-249999J0D01*
G01*
X224074999Y-95950000D01*
G75*
G02*
X223825000Y-95700001I0J249999D01*
G01*
X223825000Y-94799999D01*
G75*
G02*
X224074999Y-94550000I249999J0D01*
G01*
X224725001Y-94550000D01*
G75*
G02*
X224975000Y-94799999I0J-249999D01*
G01*
G37*
G36*
G01*
X227025000Y-94799999D02*
X227025000Y-95700001D01*
G75*
G02*
X226775001Y-95950000I-249999J0D01*
G01*
X226124999Y-95950000D01*
G75*
G02*
X225875000Y-95700001I0J249999D01*
G01*
X225875000Y-94799999D01*
G75*
G02*
X226124999Y-94550000I249999J0D01*
G01*
X226775001Y-94550000D01*
G75*
G02*
X227025000Y-94799999I0J-249999D01*
G01*
G37*
G36*
G01*
X244925001Y-114485000D02*
X244024999Y-114485000D01*
G75*
G02*
X243775000Y-114235001I0J249999D01*
G01*
X243775000Y-113584999D01*
G75*
G02*
X244024999Y-113335000I249999J0D01*
G01*
X244925001Y-113335000D01*
G75*
G02*
X245175000Y-113584999I0J-249999D01*
G01*
X245175000Y-114235001D01*
G75*
G02*
X244925001Y-114485000I-249999J0D01*
G01*
G37*
G36*
G01*
X244925001Y-116535000D02*
X244024999Y-116535000D01*
G75*
G02*
X243775000Y-116285001I0J249999D01*
G01*
X243775000Y-115634999D01*
G75*
G02*
X244024999Y-115385000I249999J0D01*
G01*
X244925001Y-115385000D01*
G75*
G02*
X245175000Y-115634999I0J-249999D01*
G01*
X245175000Y-116285001D01*
G75*
G02*
X244925001Y-116535000I-249999J0D01*
G01*
G37*
G36*
G01*
X201480000Y-97339999D02*
X201480000Y-98240001D01*
G75*
G02*
X201230001Y-98490000I-249999J0D01*
G01*
X200579999Y-98490000D01*
G75*
G02*
X200330000Y-98240001I0J249999D01*
G01*
X200330000Y-97339999D01*
G75*
G02*
X200579999Y-97090000I249999J0D01*
G01*
X201230001Y-97090000D01*
G75*
G02*
X201480000Y-97339999I0J-249999D01*
G01*
G37*
G36*
G01*
X203530000Y-97339999D02*
X203530000Y-98240001D01*
G75*
G02*
X203280001Y-98490000I-249999J0D01*
G01*
X202629999Y-98490000D01*
G75*
G02*
X202380000Y-98240001I0J249999D01*
G01*
X202380000Y-97339999D01*
G75*
G02*
X202629999Y-97090000I249999J0D01*
G01*
X203280001Y-97090000D01*
G75*
G02*
X203530000Y-97339999I0J-249999D01*
G01*
G37*
G36*
G01*
X219085000Y-76975000D02*
X220335000Y-76975000D01*
G75*
G02*
X220585000Y-77225000I0J-250000D01*
G01*
X220585000Y-78150000D01*
G75*
G02*
X220335000Y-78400000I-250000J0D01*
G01*
X219085000Y-78400000D01*
G75*
G02*
X218835000Y-78150000I0J250000D01*
G01*
X218835000Y-77225000D01*
G75*
G02*
X219085000Y-76975000I250000J0D01*
G01*
G37*
G36*
G01*
X219085000Y-74000000D02*
X220335000Y-74000000D01*
G75*
G02*
X220585000Y-74250000I0J-250000D01*
G01*
X220585000Y-75175000D01*
G75*
G02*
X220335000Y-75425000I-250000J0D01*
G01*
X219085000Y-75425000D01*
G75*
G02*
X218835000Y-75175000I0J250000D01*
G01*
X218835000Y-74250000D01*
G75*
G02*
X219085000Y-74000000I250000J0D01*
G01*
G37*
G36*
G01*
X281011234Y-54968670D02*
X282093766Y-55593670D01*
G75*
G02*
X282185272Y-55935176I-125000J-216506D01*
G01*
X281722772Y-56736250D01*
G75*
G02*
X281381266Y-56827756I-216506J125000D01*
G01*
X280298734Y-56202756D01*
G75*
G02*
X280207228Y-55861250I125000J216506D01*
G01*
X280669728Y-55060176D01*
G75*
G02*
X281011234Y-54968670I216506J-125000D01*
G01*
G37*
G36*
G01*
X282498734Y-52392244D02*
X283581266Y-53017244D01*
G75*
G02*
X283672772Y-53358750I-125000J-216506D01*
G01*
X283210272Y-54159824D01*
G75*
G02*
X282868766Y-54251330I-216506J125000D01*
G01*
X281786234Y-53626330D01*
G75*
G02*
X281694728Y-53284824I125000J216506D01*
G01*
X282157228Y-52483750D01*
G75*
G02*
X282498734Y-52392244I216506J-125000D01*
G01*
G37*
G36*
G01*
X308456234Y-83533670D02*
X309538766Y-82908670D01*
G75*
G02*
X309880272Y-83000176I125000J-216506D01*
G01*
X310342772Y-83801250D01*
G75*
G02*
X310251266Y-84142756I-216506J-125000D01*
G01*
X309168734Y-84767756D01*
G75*
G02*
X308827228Y-84676250I-125000J216506D01*
G01*
X308364728Y-83875176D01*
G75*
G02*
X308456234Y-83533670I216506J125000D01*
G01*
G37*
G36*
G01*
X306968734Y-80957244D02*
X308051266Y-80332244D01*
G75*
G02*
X308392772Y-80423750I125000J-216506D01*
G01*
X308855272Y-81224824D01*
G75*
G02*
X308763766Y-81566330I-216506J-125000D01*
G01*
X307681234Y-82191330D01*
G75*
G02*
X307339728Y-82099824I-125000J216506D01*
G01*
X306877228Y-81298750D01*
G75*
G02*
X306968734Y-80957244I216506J125000D01*
G01*
G37*
G36*
G01*
X312697500Y-128915000D02*
X312697500Y-130165000D01*
G75*
G02*
X312447500Y-130415000I-250000J0D01*
G01*
X311522500Y-130415000D01*
G75*
G02*
X311272500Y-130165000I0J250000D01*
G01*
X311272500Y-128915000D01*
G75*
G02*
X311522500Y-128665000I250000J0D01*
G01*
X312447500Y-128665000D01*
G75*
G02*
X312697500Y-128915000I0J-250000D01*
G01*
G37*
G36*
G01*
X315672500Y-128915000D02*
X315672500Y-130165000D01*
G75*
G02*
X315422500Y-130415000I-250000J0D01*
G01*
X314497500Y-130415000D01*
G75*
G02*
X314247500Y-130165000I0J250000D01*
G01*
X314247500Y-128915000D01*
G75*
G02*
X314497500Y-128665000I250000J0D01*
G01*
X315422500Y-128665000D01*
G75*
G02*
X315672500Y-128915000I0J-250000D01*
G01*
G37*
G36*
G01*
X299361330Y-174331234D02*
X298736330Y-175413766D01*
G75*
G02*
X298394824Y-175505272I-216506J125000D01*
G01*
X297593750Y-175042772D01*
G75*
G02*
X297502244Y-174701266I125000J216506D01*
G01*
X298127244Y-173618734D01*
G75*
G02*
X298468750Y-173527228I216506J-125000D01*
G01*
X299269824Y-173989728D01*
G75*
G02*
X299361330Y-174331234I-125000J-216506D01*
G01*
G37*
G36*
G01*
X301937756Y-175818734D02*
X301312756Y-176901266D01*
G75*
G02*
X300971250Y-176992772I-216506J125000D01*
G01*
X300170176Y-176530272D01*
G75*
G02*
X300078670Y-176188766I125000J216506D01*
G01*
X300703670Y-175106234D01*
G75*
G02*
X301045176Y-175014728I216506J-125000D01*
G01*
X301846250Y-175477228D01*
G75*
G02*
X301937756Y-175818734I-125000J-216506D01*
G01*
G37*
G36*
G01*
X264313766Y-211741330D02*
X263231234Y-212366330D01*
G75*
G02*
X262889728Y-212274824I-125000J216506D01*
G01*
X262427228Y-211473750D01*
G75*
G02*
X262518734Y-211132244I216506J125000D01*
G01*
X263601266Y-210507244D01*
G75*
G02*
X263942772Y-210598750I125000J-216506D01*
G01*
X264405272Y-211399824D01*
G75*
G02*
X264313766Y-211741330I-216506J-125000D01*
G01*
G37*
G36*
G01*
X265801266Y-214317756D02*
X264718734Y-214942756D01*
G75*
G02*
X264377228Y-214851250I-125000J216506D01*
G01*
X263914728Y-214050176D01*
G75*
G02*
X264006234Y-213708670I216506J125000D01*
G01*
X265088766Y-213083670D01*
G75*
G02*
X265430272Y-213175176I125000J-216506D01*
G01*
X265892772Y-213976250D01*
G75*
G02*
X265801266Y-214317756I-216506J-125000D01*
G01*
G37*
G36*
G01*
X215255000Y-225920000D02*
X214005000Y-225920000D01*
G75*
G02*
X213755000Y-225670000I0J250000D01*
G01*
X213755000Y-224745000D01*
G75*
G02*
X214005000Y-224495000I250000J0D01*
G01*
X215255000Y-224495000D01*
G75*
G02*
X215505000Y-224745000I0J-250000D01*
G01*
X215505000Y-225670000D01*
G75*
G02*
X215255000Y-225920000I-250000J0D01*
G01*
G37*
G36*
G01*
X215255000Y-228895000D02*
X214005000Y-228895000D01*
G75*
G02*
X213755000Y-228645000I0J250000D01*
G01*
X213755000Y-227720000D01*
G75*
G02*
X214005000Y-227470000I250000J0D01*
G01*
X215255000Y-227470000D01*
G75*
G02*
X215505000Y-227720000I0J-250000D01*
G01*
X215505000Y-228645000D01*
G75*
G02*
X215255000Y-228895000I-250000J0D01*
G01*
G37*
G36*
G01*
X167933766Y-210461330D02*
X166851234Y-209836330D01*
G75*
G02*
X166759728Y-209494824I125000J216506D01*
G01*
X167222228Y-208693750D01*
G75*
G02*
X167563734Y-208602244I216506J-125000D01*
G01*
X168646266Y-209227244D01*
G75*
G02*
X168737772Y-209568750I-125000J-216506D01*
G01*
X168275272Y-210369824D01*
G75*
G02*
X167933766Y-210461330I-216506J125000D01*
G01*
G37*
G36*
G01*
X166446266Y-213037756D02*
X165363734Y-212412756D01*
G75*
G02*
X165272228Y-212071250I125000J216506D01*
G01*
X165734728Y-211270176D01*
G75*
G02*
X166076234Y-211178670I216506J-125000D01*
G01*
X167158766Y-211803670D01*
G75*
G02*
X167250272Y-212145176I-125000J-216506D01*
G01*
X166787772Y-212946250D01*
G75*
G02*
X166446266Y-213037756I-216506J125000D01*
G01*
G37*
G36*
G01*
X133063670Y-174778766D02*
X132438670Y-173696234D01*
G75*
G02*
X132530176Y-173354728I216506J125000D01*
G01*
X133331250Y-172892228D01*
G75*
G02*
X133672756Y-172983734I125000J-216506D01*
G01*
X134297756Y-174066266D01*
G75*
G02*
X134206250Y-174407772I-216506J-125000D01*
G01*
X133405176Y-174870272D01*
G75*
G02*
X133063670Y-174778766I-125000J216506D01*
G01*
G37*
G36*
G01*
X130487244Y-176266266D02*
X129862244Y-175183734D01*
G75*
G02*
X129953750Y-174842228I216506J125000D01*
G01*
X130754824Y-174379728D01*
G75*
G02*
X131096330Y-174471234I125000J-216506D01*
G01*
X131721330Y-175553766D01*
G75*
G02*
X131629824Y-175895272I-216506J-125000D01*
G01*
X130828750Y-176357772D01*
G75*
G02*
X130487244Y-176266266I-125000J216506D01*
G01*
G37*
G36*
G01*
X120790000Y-125085000D02*
X120790000Y-123835000D01*
G75*
G02*
X121040000Y-123585000I250000J0D01*
G01*
X121965000Y-123585000D01*
G75*
G02*
X122215000Y-123835000I0J-250000D01*
G01*
X122215000Y-125085000D01*
G75*
G02*
X121965000Y-125335000I-250000J0D01*
G01*
X121040000Y-125335000D01*
G75*
G02*
X120790000Y-125085000I0J250000D01*
G01*
G37*
G36*
G01*
X117815000Y-125085000D02*
X117815000Y-123835000D01*
G75*
G02*
X118065000Y-123585000I250000J0D01*
G01*
X118990000Y-123585000D01*
G75*
G02*
X119240000Y-123835000I0J-250000D01*
G01*
X119240000Y-125085000D01*
G75*
G02*
X118990000Y-125335000I-250000J0D01*
G01*
X118065000Y-125335000D01*
G75*
G02*
X117815000Y-125085000I0J250000D01*
G01*
G37*
G36*
G01*
X134278766Y-68221330D02*
X133196234Y-67596330D01*
G75*
G02*
X133104728Y-67254824I125000J216506D01*
G01*
X133567228Y-66453750D01*
G75*
G02*
X133908734Y-66362244I216506J-125000D01*
G01*
X134991266Y-66987244D01*
G75*
G02*
X135082772Y-67328750I-125000J-216506D01*
G01*
X134620272Y-68129824D01*
G75*
G02*
X134278766Y-68221330I-216506J125000D01*
G01*
G37*
G36*
G01*
X132791266Y-70797756D02*
X131708734Y-70172756D01*
G75*
G02*
X131617228Y-69831250I125000J216506D01*
G01*
X132079728Y-69030176D01*
G75*
G02*
X132421234Y-68938670I216506J-125000D01*
G01*
X133503766Y-69563670D01*
G75*
G02*
X133595272Y-69905176I-125000J-216506D01*
G01*
X133132772Y-70706250D01*
G75*
G02*
X132791266Y-70797756I-216506J125000D01*
G01*
G37*
G36*
G01*
X158596234Y-51148670D02*
X159678766Y-50523670D01*
G75*
G02*
X160020272Y-50615176I125000J-216506D01*
G01*
X160482772Y-51416250D01*
G75*
G02*
X160391266Y-51757756I-216506J-125000D01*
G01*
X159308734Y-52382756D01*
G75*
G02*
X158967228Y-52291250I-125000J216506D01*
G01*
X158504728Y-51490176D01*
G75*
G02*
X158596234Y-51148670I216506J125000D01*
G01*
G37*
G36*
G01*
X157108734Y-48572244D02*
X158191266Y-47947244D01*
G75*
G02*
X158532772Y-48038750I125000J-216506D01*
G01*
X158995272Y-48839824D01*
G75*
G02*
X158903766Y-49181330I-216506J-125000D01*
G01*
X157821234Y-49806330D01*
G75*
G02*
X157479728Y-49714824I-125000J216506D01*
G01*
X157017228Y-48913750D01*
G75*
G02*
X157108734Y-48572244I216506J125000D01*
G01*
G37*
G36*
G01*
X248780000Y-100340000D02*
X248780000Y-101590000D01*
G75*
G02*
X248530000Y-101840000I-250000J0D01*
G01*
X247605000Y-101840000D01*
G75*
G02*
X247355000Y-101590000I0J250000D01*
G01*
X247355000Y-100340000D01*
G75*
G02*
X247605000Y-100090000I250000J0D01*
G01*
X248530000Y-100090000D01*
G75*
G02*
X248780000Y-100340000I0J-250000D01*
G01*
G37*
G36*
G01*
X251755000Y-100340000D02*
X251755000Y-101590000D01*
G75*
G02*
X251505000Y-101840000I-250000J0D01*
G01*
X250580000Y-101840000D01*
G75*
G02*
X250330000Y-101590000I0J250000D01*
G01*
X250330000Y-100340000D01*
G75*
G02*
X250580000Y-100090000I250000J0D01*
G01*
X251505000Y-100090000D01*
G75*
G02*
X251755000Y-100340000I0J-250000D01*
G01*
G37*
G36*
G01*
X225285000Y-90815000D02*
X225285000Y-92065000D01*
G75*
G02*
X225035000Y-92315000I-250000J0D01*
G01*
X224110000Y-92315000D01*
G75*
G02*
X223860000Y-92065000I0J250000D01*
G01*
X223860000Y-90815000D01*
G75*
G02*
X224110000Y-90565000I250000J0D01*
G01*
X225035000Y-90565000D01*
G75*
G02*
X225285000Y-90815000I0J-250000D01*
G01*
G37*
G36*
G01*
X228260000Y-90815000D02*
X228260000Y-92065000D01*
G75*
G02*
X228010000Y-92315000I-250000J0D01*
G01*
X227085000Y-92315000D01*
G75*
G02*
X226835000Y-92065000I0J250000D01*
G01*
X226835000Y-90815000D01*
G75*
G02*
X227085000Y-90565000I250000J0D01*
G01*
X228010000Y-90565000D01*
G75*
G02*
X228260000Y-90815000I0J-250000D01*
G01*
G37*
G36*
G01*
X249545000Y-114160000D02*
X248295000Y-114160000D01*
G75*
G02*
X248045000Y-113910000I0J250000D01*
G01*
X248045000Y-112985000D01*
G75*
G02*
X248295000Y-112735000I250000J0D01*
G01*
X249545000Y-112735000D01*
G75*
G02*
X249795000Y-112985000I0J-250000D01*
G01*
X249795000Y-113910000D01*
G75*
G02*
X249545000Y-114160000I-250000J0D01*
G01*
G37*
G36*
G01*
X249545000Y-117135000D02*
X248295000Y-117135000D01*
G75*
G02*
X248045000Y-116885000I0J250000D01*
G01*
X248045000Y-115960000D01*
G75*
G02*
X248295000Y-115710000I250000J0D01*
G01*
X249545000Y-115710000D01*
G75*
G02*
X249795000Y-115960000I0J-250000D01*
G01*
X249795000Y-116885000D01*
G75*
G02*
X249545000Y-117135000I-250000J0D01*
G01*
G37*
G36*
G01*
X201572500Y-92085000D02*
X201572500Y-93335000D01*
G75*
G02*
X201322500Y-93585000I-250000J0D01*
G01*
X200397500Y-93585000D01*
G75*
G02*
X200147500Y-93335000I0J250000D01*
G01*
X200147500Y-92085000D01*
G75*
G02*
X200397500Y-91835000I250000J0D01*
G01*
X201322500Y-91835000D01*
G75*
G02*
X201572500Y-92085000I0J-250000D01*
G01*
G37*
G36*
G01*
X204547500Y-92085000D02*
X204547500Y-93335000D01*
G75*
G02*
X204297500Y-93585000I-250000J0D01*
G01*
X203372500Y-93585000D01*
G75*
G02*
X203122500Y-93335000I0J250000D01*
G01*
X203122500Y-92085000D01*
G75*
G02*
X203372500Y-91835000I250000J0D01*
G01*
X204297500Y-91835000D01*
G75*
G02*
X204547500Y-92085000I0J-250000D01*
G01*
G37*
D10*
G36*
X280936845Y-116614109D02*
G01*
X280386845Y-115661481D01*
X284370561Y-113361481D01*
X284920561Y-114314109D01*
X280936845Y-116614109D01*
G37*
G36*
X283476845Y-121013519D02*
G01*
X282926845Y-120060891D01*
X286910561Y-117760891D01*
X287460561Y-118713519D01*
X283476845Y-121013519D01*
G37*
G36*
X294677739Y-117214037D02*
G01*
X292052739Y-112667403D01*
X295993155Y-110392403D01*
X298618155Y-114939037D01*
X294677739Y-117214037D01*
G37*
G36*
X287702516Y-114832597D02*
G01*
X285077516Y-110285963D01*
X289017932Y-108010963D01*
X291642932Y-112557597D01*
X287702516Y-114832597D01*
G37*
G36*
X291902739Y-112407597D02*
G01*
X289277739Y-107860963D01*
X293218155Y-105585963D01*
X295843155Y-110132597D01*
X291902739Y-112407597D01*
G37*
G36*
X290477516Y-119639037D02*
G01*
X287852516Y-115092403D01*
X291792932Y-112817403D01*
X294417932Y-117364037D01*
X290477516Y-119639037D01*
G37*
M02*
