<?xml version="1.0" encoding="UTF-8" standalone="no"?>
<!-- Generator: Fusion 360, Shaper Origin Export Add-In, Version 1.5.0  -->

<svg
   xmlns:shaper="http://www.shapertools.com/namespaces/shaper"
   xmlns:dc="http://purl.org/dc/elements/1.1/"
   xmlns:cc="http://creativecommons.org/ns#"
   xmlns:rdf="http://www.w3.org/1999/02/22-rdf-syntax-ns#"
   xmlns:svg="http://www.w3.org/2000/svg"
   xmlns="http://www.w3.org/2000/svg"
   xmlns:sodipodi="http://sodipodi.sourceforge.net/DTD/sodipodi-0.dtd"
   xmlns:inkscape="http://www.inkscape.org/namespaces/inkscape"
   enable-background="new 0 0 19 15.7522569"
   height="15.7522569cm"
   shaper:fusionaddin="version:1.5.0"
   version="1.1"
   viewBox="0 0 19 15.7522569"
   width="19cm"
   x="0cm"
   xml:space="preserve"
   y="0cm"
   id="svg42"
   sodipodi:docname="IR PCB outline final.svg"
   inkscape:version="0.92.4 (5da689c313, 2019-01-14)"><metadata
     id="metadata48"><rdf:RDF><cc:Work
         rdf:about=""><dc:format>image/svg+xml</dc:format><dc:type
           rdf:resource="http://purl.org/dc/dcmitype/StillImage" /><dc:title></dc:title></cc:Work></rdf:RDF></metadata><defs
     id="defs46" /><sodipodi:namedview
     pagecolor="#ffffff"
     bordercolor="#666666"
     borderopacity="1"
     objecttolerance="10"
     gridtolerance="10"
     guidetolerance="10"
     inkscape:pageopacity="0"
     inkscape:pageshadow="2"
     inkscape:window-width="2560"
     inkscape:window-height="1017"
     id="namedview44"
     showgrid="true"
     inkscape:zoom="1.4142136"
     inkscape:cx="365.87346"
     inkscape:cy="306.76962"
     inkscape:window-x="-8"
     inkscape:window-y="-8"
     inkscape:window-maximized="1"
     inkscape:current-layer="svg42"
     inkscape:snap-bbox="true"><inkscape:grid
       units="mm"
       spacingx="0.1"
       spacingy="0.1"
       type="xygrid"
       id="grid30" /></sodipodi:namedview><path
     d="m 4.6746868,-1 0.141082,0.2443613 c -0.1241138,0.0398486 -0.2082914,0.1552849 -0.2082914,0.2856388 v 0.25 h 0.1341688 c 0.1206045,0 0.2110579,0 0.3316624,0 h 0.1341688 v -0.25 c 0,-0.1303539 -0.084178,-0.24579022 -0.2082914,-0.2856388 L 5.140268,-1 m 3.0344188,0 0.141082,0.2443613 c -0.1241138,0.0398486 -0.2082914,0.1552849 -0.2082914,0.2856388 v 0.25 h 0.1341688 c 0.1206045,0 0.2110579,0 0.3316624,0 h 0.1341688 v -0.25 c 0,-0.1303539 -0.084178,-0.24579022 -0.2082914,-0.2856388 L 8.640268,-1 m 3.485886,-0.1758163 -0.172417,0.4393124 c -0.108539,-0.0721909 -0.251275,-0.0660302 -0.353189,0.0152441 l -0.195458,0.1558725 0.374094,0.4690989 0.195458,-0.1558725 c 0.101914,-0.0812743 0.139682,-0.21906046 0.09345,-0.3409417 l 0.466665,-0.0703383 m 1.556107,3.2312891 -0.345954,0.3209977 C 13.678446,2.776711 13.547173,2.7203309 13.420087,2.7493374 l -0.243732,0.05563 0.133512,0.5849568 0.243732,-0.05563 c 0.127086,-0.029006 0.220897,-0.1367606 0.232129,-0.2666297 l 0.450968,0.1391054 m 0,3.5864604 -0.450968,0.1391054 C 13.774496,6.8024665 13.680685,6.6947124 13.553599,6.6657059 l -0.243732,-0.05563 -0.133512,0.5849568 0.243732,0.05563 c 0.127086,0.029006 0.258359,-0.027374 0.324826,-0.1395085 l 0.345954,0.3209977 m -1.556107,3.2312892 -0.466665,-0.07034 c 0.04623,-0.121882 0.0085,-0.259668 -0.09345,-0.340942 l -0.195458,-0.155873 -0.374094,0.469099 0.19546,0.155874 c 0.101914,0.08127 0.244649,0.08743 0.353187,0.01524 l 0.172417,0.439312 M 9.3221465,13.411938 8.932215,13.146087 c 0.094533,-0.08975 0.1202885,-0.230281 0.06373,-0.347726 l -0.1084709,-0.225242 -0.5405813,0.26033 0.1084692,0.225239 c 0.056558,0.117447 0.1824861,0.18493 0.3115998,0.166981 l -0.035268,0.470616 M 5.2351538,14.494347 4.999186,14.085639 C 5.1232998,14.04579 5.2074774,13.930354 5.2074774,13.8 v -0.25 h -0.6 v 0.25 c 0,0.130354 0.084178,0.24579 0.2082914,0.285639 L 4.579801,14.494347 M 1.0832608,13.696285 1.047993,13.225669 c 0.1291123,0.01795 0.2550397,-0.04953 0.3115981,-0.166978 L 1.468062,12.833449 0.9274807,12.573119 0.8190098,12.798361 c -0.0565585,0.117445 -0.030803,0.257973 0.06373,0.347726 l -0.3899315,0.265851 m -2.8040075,-2.236122 0.1724174,-0.439312 c 0.1085386,0.07219 0.2512742,0.06603 0.353189,-0.01524 l 0.1954579,-0.155873 -0.3740939,-0.469099 -0.1954579,0.155873 c -0.1019148,0.08127 -0.1396826,0.21906 -0.093454,0.340942 l -0.4666645,0.07034 M -4.2759118,7.4321518 -3.9299585,7.1111541 c 0.066467,0.1121348 0.1977408,0.1685149 0.3248264,0.1395085 l 0.243732,-0.05563 -0.1335125,-0.5849568 -0.2437322,0.05563 c -0.1270856,0.029007 -0.2208963,0.1367606 -0.2321279,0.2666297 L -4.4217415,6.7932302 m 0,-3.5864604 0.4509688,-0.1391054 c 0.011232,0.1298691 0.1050424,0.2376232 0.2321281,0.2666297 l 0.243732,0.05563 0.1335125,-0.5849568 -0.243732,-0.05563 c -0.1270856,-0.029006 -0.258359,0.027374 -0.3248264,0.1395085 L -4.2759118,2.5678482 m 1.5561068,-3.2312891 0.4666645,0.0703383 c -0.046229,0.12188124 -0.00846,0.25966735 0.093454,0.3409417 l 0.1954579,0.1558725 0.3740939,-0.4690989 -0.1954579,-0.1558725 c -0.1019148,-0.0812743 -0.2446504,-0.087435 -0.353189,-0.0152441 L -2.3111992,-1.1758163 M 1.1746868,-1 l 0.141082,0.2443613 c -0.1241138,0.0398486 -0.2082914,0.1552849 -0.2082914,0.2856388 v 0.25 h 0.1341688 c 0.1206045,0 0.2110579,0 0.3316624,0 h 0.1341688 v -0.25 c 0,-0.1303539 -0.084178,-0.24579022 -0.2082914,-0.2856388 L 1.640268,-1"
     shaper:cutDepth="0.01"
     shaper:pathType="exterior"
     transform="matrix(1,0,0,-1,4.5925226,14.494347)"
     id="path30"
     style="vector-effect:non-scaling-stroke;fill:none;stroke:#000000;stroke-opacity:1"
     inkscape:connector-curvature="0"
     sodipodi:nodetypes="ccscsscsccccscsscsccccsccsccccsccsccccsccsccccscccccccscccccccsccsccccsccsccccsccsccccsccsccccsccsccccsccsccccscsscscc" /><path
     d="M12.8350985,3.9263036 L12.3736537,3.7304319 A0.5,0.5 113 0,1 12.1360065,3.5201795 L10.2479675,0.25 A0.5,0.5 330 0,0 9.8149548,0 L-0,0 A0.5,0.5 270 0,0 -0.4330127,0.25 L-2.3210517,3.5201795 A0.5,0.5 30 0,1 -2.5586988,3.7304319 L-3.0201437,3.9263036 A8,8 187.713059 1,0 12.8350985,3.9263036z"
     fill="rgb(255,255,255)"
     shaper:cutDepth="0.01"
     shaper:pathType="interior"
     stroke="rgb(0,0,0)"
     transform="matrix(1,0,0,-1,4.5925226,14.4943472)"
     vector-effect="non-scaling-stroke"
     id="path32" /><path
     d="M12.192668,2.9820508 a0.21,0.21 0 1,1 0.42,0 a0.21,0.21 0 1,1 -0.42,0z"
     fill="rgb(255,255,255)"
     shaper:cutDepth="0.01"
     shaper:pathType="interior"
     stroke="rgb(0,0,0)"
     transform="matrix(1,0,0,-1,4.5925226,14.4943472)"
     vector-effect="non-scaling-stroke"
     id="path34" /><path
     d="M10.192668,-0.4820509 a0.21,0.21 0 1,1 0.42,0 a0.21,0.21 0 1,1 -0.42,0z"
     fill="rgb(255,255,255)"
     shaper:cutDepth="0.01"
     shaper:pathType="interior"
     stroke="rgb(0,0,0)"
     transform="matrix(1,0,0,-1,4.5925226,14.4943472)"
     vector-effect="non-scaling-stroke"
     id="path36" /><path
     d="M-0.7977132,-0.4820509 a0.21,0.21 0 1,1 0.42,0 a0.21,0.21 0 1,1 -0.42,0z"
     fill="rgb(255,255,255)"
     shaper:cutDepth="0.01"
     shaper:pathType="interior"
     stroke="rgb(0,0,0)"
     transform="matrix(1,0,0,-1,4.5925226,14.4943472)"
     vector-effect="non-scaling-stroke"
     id="path38" /><path
     d="M-2.7977132,2.9820508 a0.21,0.21 0 1,1 0.42,0 a0.21,0.21 0 1,1 -0.42,0z"
     fill="rgb(255,255,255)"
     shaper:cutDepth="0.01"
     shaper:pathType="interior"
     stroke="rgb(0,0,0)"
     transform="matrix(1,0,0,-1,4.5925226,14.4943472)"
     vector-effect="non-scaling-stroke"
     id="path40" /><g
     id="g919"
     transform="translate(0,-0.0056528)"
     style="fill:none;stroke:#480000;stroke-opacity:1"><path
       id="path884"
       transform="matrix(1,0,0,-1,4.2084974,15.5)"
       shaper:pathType="exterior"
       shaper:cutDepth="0.0016"
       d="m 12.31867,-0.2557729 v 0 l 0.01035,-0.001221 0.01063,-6.515e-4 0.01089,-7.43e-5 0.01114,5.216e-4 0.01138,0.00115 0.01159,0.001829 0.01179,0.002575 0.01198,0.003408 0.01215,0.004348 0.01232,0.00541 0.01248,0.006609 0.01264,0.007956 0.0128,0.009452 0.01296,0.0110902 0.01313,0.012852 0.0133,0.0147021 A 9.5,9.5 -40.548081 0 1 12.656963,0 9.5,9.5 -39.166711 1 1 -2.0739573,0 9.5,9.5 -140.83329 0 1 -1.927174,-0.1758163 v 0 l 0.013298,-0.0147021 0.013128,-0.012852 0.01296,-0.0110902 0.012797,-0.009452 0.012637,-0.007956 0.012477,-0.006609 0.012316,-0.00541 0.01215,-0.004348 0.011976,-0.003408 0.011791,-0.002575 0.011592,-0.001829 0.011376,-0.00115 0.011143,-5.216e-4 0.010892,7.43e-5 0.010626,6.515e-4 0.010348,0.001221 L 0,0 h 10.583005 z"
       inkscape:connector-curvature="0"
       style="vector-effect:non-scaling-stroke;fill:none;stroke:#480000;stroke-opacity:1" /><path
       id="path886"
       transform="matrix(1,0,0,-1,4.2084974,15.5)"
       shaper:pathType="interior"
       shaper:cutDepth="0.0016"
       d="m -2.413688,3.9820508 a 0.21,0.21 0 1 1 0.42,0 0.21,0.21 0 1 1 -0.42,0 z"
       inkscape:connector-curvature="0"
       style="vector-effect:non-scaling-stroke;fill:none;stroke:#480000;stroke-opacity:1" /><path
       id="path888"
       transform="matrix(1,0,0,-1,4.2084974,15.5)"
       shaper:pathType="interior"
       shaper:cutDepth="0.0016"
       d="m 12.576693,3.9820508 a 0.21,0.21 0 1 1 0.42,0 0.21,0.21 0 1 1 -0.42,0 z"
       inkscape:connector-curvature="0"
       style="vector-effect:non-scaling-stroke;fill:none;stroke:#480000;stroke-opacity:1" /><path
       id="path890"
       transform="matrix(1,0,0,-1,4.2084974,15.5)"
       shaper:pathType="interior"
       shaper:cutDepth="0.0016"
       d="m 3.0815026,13.5 a 0.21,0.21 0 1 1 0.42,0 0.21,0.21 0 1 1 -0.42,0 z"
       inkscape:connector-curvature="0"
       style="vector-effect:non-scaling-stroke;fill:none;stroke:#480000;stroke-opacity:1" /><path
       id="path892"
       transform="matrix(1,0,0,-1,4.2084974,15.5)"
       shaper:pathType="interior"
       shaper:cutDepth="0.0016"
       d="m 10.576693,0.5179491 a 0.21,0.21 0 1 1 0.42,0 0.21,0.21 0 1 1 -0.42,0 z"
       inkscape:connector-curvature="0"
       style="vector-effect:non-scaling-stroke;fill:none;stroke:#480000;stroke-opacity:1" /><path
       id="path894"
       transform="matrix(1,0,0,-1,4.2084974,15.5)"
       shaper:pathType="interior"
       shaper:cutDepth="0.0016"
       d="m 7.0815027,13.5 a 0.21,0.21 0 1 1 0.42,0 0.21,0.21 0 1 1 -0.42,0 z"
       inkscape:connector-curvature="0"
       style="vector-effect:non-scaling-stroke;fill:none;stroke:#480000;stroke-opacity:1" /><path
       id="path896"
       transform="matrix(1,0,0,-1,4.2084974,15.5)"
       shaper:pathType="interior"
       shaper:cutDepth="0.0016"
       d="m -0.413688,0.5179491 a 0.21,0.21 0 1 1 0.42,0 0.21,0.21 0 1 1 -0.42,0 z"
       inkscape:connector-curvature="0"
       style="vector-effect:non-scaling-stroke;fill:none;stroke:#480000;stroke-opacity:1" /><path
       id="path898"
       transform="matrix(1,0,0,-1,4.2084974,15.5)"
       shaper:pathType="interior"
       shaper:cutDepth="0.0016"
       d="M 7.6486094,2.7928932 6.5843958,3.8571067 A 1,1 45 0 1 5.8772891,4.15 H 4.7057162 A 1,1 90 0 1 3.9986094,3.8571067 L 2.9343958,2.7928932 A 1,1 -45 0 0 2.2272891,2.5 H 1.1976582 v 0 l -0.035384,3.413e-4 -0.037082,0.00102 -0.038742,0.00171 -0.040343,0.0024 -0.041867,0.00309 -0.0432955,0.00379 -0.0446155,0.0045 -0.0458144,0.00522 -0.0468816,0.00597 -0.0478083,0.00674 -0.0485861,0.00754 -0.0492082,0.00838 -0.0496689,0.00925 -0.0499636,0.010172 -0.0500885,0.011144 -0.0500411,0.012173 -0.0498193,0.013264 -0.0494219,0.014422 -0.0488486,0.015651 -0.0480995,0.016956 -0.0471759,0.018342 -0.0460804,0.01981 -0.0448163,0.021364 -0.0433892,0.023003 -0.0211103,0.012143 -0.0206954,0.012585 -0.0202624,0.013037 -0.0198116,0.013499 -0.0193438,0.013972 -0.0188597,0.014454 -0.0183602,0.014946 -0.017846,0.015447 -0.0173183,0.015956 -0.0167781,0.016474 -0.0162265,0.016998 -0.015665,0.017529 -0.0150949,0.018066 -0.0145175,0.018607 -0.0139347,0.019152 -0.013348,0.019699 a 6.5,6.5 -147.30387 1 0 10.940114,0 v 0 l -0.01335,-0.019699 -0.01394,-0.019152 -0.01452,-0.018607 -0.0151,-0.018066 -0.01567,-0.017529 -0.01623,-0.016998 -0.01678,-0.016474 -0.01732,-0.015956 -0.01785,-0.015447 -0.01836,-0.014946 -0.01886,-0.014454 -0.01934,-0.013972 -0.01981,-0.013499 -0.02026,-0.013037 -0.02069,-0.012585 -0.02111,-0.012143 -0.04339,-0.023003 -0.04482,-0.021364 -0.04608,-0.01981 -0.04718,-0.018342 -0.0481,-0.016956 -0.04885,-0.015651 -0.04942,-0.014422 -0.04982,-0.013264 -0.05004,-0.012173 -0.05009,-0.011144 -0.049965,-0.010172 -0.049669,-0.00925 -0.049208,-0.00838 -0.048586,-0.00754 -0.047808,-0.00674 -0.046882,-0.00597 -0.045814,-0.00522 -0.044615,-0.0045 -0.043296,-0.00379 -0.041867,-0.00309 -0.040343,-0.0024 L 9.457784,2.5013613 9.420702,2.5003413 9.3853471,2.5 H 8.3557162 A 1,1 -90 0 0 7.6486094,2.7928932 Z"
       inkscape:connector-curvature="0"
       style="vector-effect:non-scaling-stroke;fill:none;stroke:#480000;stroke-opacity:1" /><path
       id="path900"
       transform="matrix(1,0,0,-1,4.2084974,15.5)"
       shaper:pathType="interior"
       shaper:cutDepth="0.0016"
       d="m 5.0815026,3.5 a 0.21,0.21 0 1 1 0.42,0 0.21,0.21 0 1 1 -0.42,0 z"
       inkscape:connector-curvature="0"
       style="vector-effect:non-scaling-stroke;fill:none;stroke:#480000;stroke-opacity:1" /></g><path
     style="fill:none;stroke:#000000;stroke-width:0.02645833px;stroke-linecap:butt;stroke-linejoin:miter;stroke-opacity:1"
     d="M 9.4999989,-3.3262444e-7 V 9.2522563 L 0,9.2522573"
     id="path3739"
     inkscape:connector-curvature="0" /></svg>