  0
SECTION
  2
HEADER
  9
$ACADVER
  1
AC1014
  9
$HANDSEED
  5
FFFF
  9
$MEASUREMENT
 70
     1
  0
ENDSEC
  0
SECTION
  2
TABLES
  0
TABLE
  2
VPORT
  5
8
330
0
100
AcDbSymbolTable
 70
     4
  0
VPORT
  5
2E
330
8
100
AcDbSymbolTableRecord
100
AcDbViewportTableRecord
  2
*ACTIVE
 70
     0
 10
0.0
 20
0.0
 11
1.0
 21
1.0
 12
210.0
 22
148.5
 13
0.0
 23
0.0
 14
10.0
 24
10.0
 15
10.0
 25
10.0
 16
0.0
 26
0.0
 36
1.0
 17
0.0
 27
0.0
 37
0.0
 40
341.0
 41
1.24
 42
50.0
 43
0.0
 44
0.0
 50
0.0
 51
0.0
 71
     0
 72
   100
 73
     1
 74
     3
 75
     0
 76
     0
 77
     0
 78
     0
  0
ENDTAB
  0
TABLE
  2
LTYPE
  5
5
330
0
100
AcDbSymbolTable
 70
     1
  0
LTYPE
  5
14
330
5
100
AcDbSymbolTableRecord
100
AcDbLinetypeTableRecord
  2
BYBLOCK
 70
     0
  3

 72
    65
 73
     0
 40
0.0
  0
LTYPE
  5
15
330
5
100
AcDbSymbolTableRecord
100
AcDbLinetypeTableRecord
  2
BYLAYER
 70
     0
  3

 72
    65
 73
     0
 40
0.0
  0
LTYPE
  5
16
330
5
100
AcDbSymbolTableRecord
100
AcDbLinetypeTableRecord
  2
CONTINUOUS
 70
     0
  3
Solid line
 72
    65
 73
     0
 40
0.0
  0
ENDTAB
  0
TABLE
  2
LAYER
  5
2
100
AcDbSymbolTable
 70
1
  0
LAYER
  5
50
100
AcDbSymbolTableRecord
100
AcDbLayerTableRecord
  2
0
 70
0
  6
CONTINUOUS
  0
ENDTAB
  0
TABLE
  2
STYLE
  5
3
330
0
100
AcDbSymbolTable
 70
     1
  0
STYLE
  5
11
330
3
100
AcDbSymbolTableRecord
100
AcDbTextStyleTableRecord
  2
STANDARD
 70
     0
 40
0.0
 41
1.0
 50
0.0
 71
     0
 42
2.5
  3
txt
  4

  0
ENDTAB
  0
TABLE
  2
VIEW
  5
6
330
0
100
AcDbSymbolTable
 70
     0
  0
ENDTAB
  0
TABLE
  2
UCS
  5
7
330
0
100
AcDbSymbolTable
 70
     0
  0
ENDTAB
  0
TABLE
  2
APPID
  5
9
330
0
100
AcDbSymbolTable
 70
     2
  0
APPID
  5
12
330
9
100
AcDbSymbolTableRecord
100
AcDbRegAppTableRecord
  2
ACAD
 70
     0
  0
ENDTAB
  0
TABLE
  2
DIMSTYLE
  5
A
330
0
100
AcDbSymbolTable
 70
     1
  0
DIMSTYLE
105
27
330
A
100
AcDbSymbolTableRecord
100
AcDbDimStyleTableRecord
  2
ISO-25
 70
     0
  3

  4

  5

  6

  7

 40
1.0
 41
2.5
 42
0.625
 43
3.75
 44
1.25
 45
0.0
 46
0.0
 47
0.0
 48
0.0
140
2.5
141
2.5
142
0.0
143
0.03937007874016
144
1.0
145
0.0
146
1.0
147
0.625
 71
     0
 72
     0
 73
     0
 74
     0
 75
     0
 76
     0
 77
     1
 78
     8
170
     0
171
     3
172
     1
173
     0
174
     0
175
     0
176
     0
177
     0
178
     0
270
     2
271
     2
272
     2
273
     2
274
     3
340
11
275
     0
280
     0
281
     0
282
     0
283
     0
284
     8
285
     0
286
     0
287
     3
288
     0
  0
ENDTAB
  0
TABLE
  2
BLOCK_RECORD
  5
1
330
0
100
AcDbSymbolTable
 70
     1
  0
BLOCK_RECORD
  5
1F
330
1
100
AcDbSymbolTableRecord
100
AcDbBlockTableRecord
  2
*MODEL_SPACE
  0
BLOCK_RECORD
  5
1B
330
1
100
AcDbSymbolTableRecord
100
AcDbBlockTableRecord
  2
*PAPER_SPACE
  0
ENDTAB
  0
ENDSEC
  0
SECTION
  2
BLOCKS
  0
BLOCK
  5
20
330
1F
100
AcDbEntity
  8
0
100
AcDbBlockBegin
  2
*MODEL_SPACE
 70
     0
 10
0.0
 20
0.0
 30
0.0
  3
*MODEL_SPACE
  1

  0
ENDBLK
  5
21
330
1F
100
AcDbEntity
  8
0
100
AcDbBlockEnd
  0
BLOCK
  5
1C
330
1B
100
AcDbEntity
 67
     1
  8
0
100
AcDbBlockBegin
  2
*PAPER_SPACE
  1

  0
ENDBLK
  5
1D
330
1B
100
AcDbEntity
 67
     1
  8
0
100
AcDbBlockEnd
  0
ENDSEC
  0
SECTION
  2
ENTITIES
  0
SPLINE
  5
100
100
AcDbEntity
  8
0
 62
7
100
AcDbSpline
 70
8
 71
3
 72
8
 73
4
 74
0
 40
0
 40
0
 40
0
 40
0
 40
1
 40
1
 40
1
 40
1
 10
94.082914
 20
5.022712
 30
0.0
 10
92.841776
 20
5.421198
 30
0.0
 10
92.000000
 20
6.575561
 30
0.0
 10
92.000000
 20
7.879100
 30
0.0
  0
LWPOLYLINE
  5
101
100
AcDbEntity
  8
0
 62
7
100
AcDbPolyline
 90
2
 70
0
 10
92.672094
 20
2.579099
 30
0.0
 10
94.082914
 20
5.022712
 30
0.0
  0
SPLINE
  5
102
100
AcDbEntity
  8
0
 62
7
100
AcDbSpline
 70
8
 71
3
 72
8
 73
4
 74
0
 40
0
 40
0
 40
0
 40
0
 40
1
 40
1
 40
1
 40
1
 10
93.341688
 20
10.379100
 30
0.0
 10
94.547733
 20
10.379100
 30
0.0
 10
95.452267
 20
10.379100
 30
0.0
 10
96.658312
 20
10.379100
 30
0.0
  0
LWPOLYLINE
  5
103
100
AcDbEntity
  8
0
 62
7
100
AcDbPolyline
 90
3
 70
0
 10
92.000000
 20
7.879100
 30
0.0
 10
92.000000
 20
10.379100
 30
0.0
 10
93.341688
 20
10.379100
 30
0.0
  0
SPLINE
  5
104
100
AcDbEntity
  8
0
 62
7
100
AcDbSpline
 70
8
 71
3
 72
8
 73
4
 74
0
 40
0
 40
0
 40
0
 40
0
 40
1
 40
1
 40
1
 40
1
 10
98.000000
 20
7.879100
 30
0.0
 10
98.000000
 20
6.575561
 30
0.0
 10
97.158220
 20
5.421198
 30
0.0
 10
95.917086
 20
5.022712
 30
0.0
  0
LWPOLYLINE
  5
105
100
AcDbEntity
  8
0
 62
7
100
AcDbPolyline
 90
3
 70
0
 10
96.658312
 20
10.379100
 30
0.0
 10
98.000000
 20
10.379100
 30
0.0
 10
98.000000
 20
7.879100
 30
0.0
  0
LWPOLYLINE
  5
106
100
AcDbEntity
  8
0
 62
7
100
AcDbPolyline
 90
2
 70
0
 10
95.917086
 20
5.022712
 30
0.0
 10
97.327906
 20
2.579099
 30
0.0
  0
SPLINE
  5
107
100
AcDbEntity
  8
0
 62
7
100
AcDbSpline
 70
8
 71
3
 72
8
 73
4
 74
0
 40
0
 40
0
 40
0
 40
0
 40
1
 40
1
 40
1
 40
1
 10
129.082914
 20
5.022712
 30
0.0
 10
127.841776
 20
5.421198
 30
0.0
 10
127.000000
 20
6.575561
 30
0.0
 10
127.000000
 20
7.879100
 30
0.0
  0
LWPOLYLINE
  5
108
100
AcDbEntity
  8
0
 62
7
100
AcDbPolyline
 90
2
 70
0
 10
127.672094
 20
2.579099
 30
0.0
 10
129.082914
 20
5.022712
 30
0.0
  0
SPLINE
  5
109
100
AcDbEntity
  8
0
 62
7
100
AcDbSpline
 70
8
 71
3
 72
8
 73
4
 74
0
 40
0
 40
0
 40
0
 40
0
 40
1
 40
1
 40
1
 40
1
 10
128.341688
 20
10.379100
 30
0.0
 10
129.547733
 20
10.379100
 30
0.0
 10
130.452267
 20
10.379100
 30
0.0
 10
131.658312
 20
10.379100
 30
0.0
  0
LWPOLYLINE
  5
10a
100
AcDbEntity
  8
0
 62
7
100
AcDbPolyline
 90
3
 70
0
 10
127.000000
 20
7.879100
 30
0.0
 10
127.000000
 20
10.379100
 30
0.0
 10
128.341688
 20
10.379100
 30
0.0
  0
SPLINE
  5
10b
100
AcDbEntity
  8
0
 62
7
100
AcDbSpline
 70
8
 71
3
 72
8
 73
4
 74
0
 40
0
 40
0
 40
0
 40
0
 40
1
 40
1
 40
1
 40
1
 10
133.000000
 20
7.879100
 30
0.0
 10
133.000000
 20
6.575561
 30
0.0
 10
132.158220
 20
5.421198
 30
0.0
 10
130.917086
 20
5.022712
 30
0.0
  0
LWPOLYLINE
  5
10c
100
AcDbEntity
  8
0
 62
7
100
AcDbPolyline
 90
3
 70
0
 10
131.658312
 20
10.379100
 30
0.0
 10
133.000000
 20
10.379100
 30
0.0
 10
133.000000
 20
7.879100
 30
0.0
  0
LWPOLYLINE
  5
10d
100
AcDbEntity
  8
0
 62
7
100
AcDbPolyline
 90
2
 70
0
 10
130.917086
 20
5.022712
 30
0.0
 10
132.327906
 20
2.579099
 30
0.0
  0
SPLINE
  5
10e
100
AcDbEntity
  8
0
 62
7
100
AcDbSpline
 70
8
 71
3
 72
8
 73
4
 74
0
 40
0
 40
0
 40
0
 40
0
 40
1
 40
1
 40
1
 40
1
 10
165.462596
 20
5.214060
 30
0.0
 10
164.377206
 20
4.492151
 30
0.0
 10
162.949846
 20
4.553758
 30
0.0
 10
161.930706
 20
5.366501
 30
0.0
  0
LWPOLYLINE
  5
10f
100
AcDbEntity
  8
0
 62
7
100
AcDbPolyline
 90
2
 70
0
 10
167.186766
 20
0.820936
 30
0.0
 10
165.462596
 20
5.214060
 30
0.0
  0
SPLINE
  5
110
100
AcDbEntity
  8
0
 62
7
100
AcDbSpline
 70
8
 71
3
 72
8
 73
4
 74
0
 40
0
 40
0
 40
0
 40
0
 40
1
 40
1
 40
1
 40
1
 10
165.671646
 20
10.057490
 30
0.0
 10
166.690786
 20
9.244747
 30
0.0
 10
167.068466
 20
7.866885
 30
0.0
 10
166.606146
 20
6.648073
 30
0.0
  0
LWPOLYLINE
  5
111
100
AcDbEntity
  8
0
 62
7
100
AcDbPolyline
 90
4
 70
0
 10
161.930706
 20
5.366501
 30
0.0
 10
159.976126
 20
6.925226
 30
0.0
 10
163.717066
 20
11.616215
 30
0.0
 10
165.671646
 20
10.057490
 30
0.0
  0
LWPOLYLINE
  5
112
100
AcDbEntity
  8
0
 62
7
100
AcDbPolyline
 90
2
 70
0
 10
166.606146
 20
6.648073
 30
0.0
 10
171.272796
 20
5.944690
 30
0.0
  0
SPLINE
  5
113
100
AcDbEntity
  8
0
 62
7
100
AcDbSpline
 70
8
 71
3
 72
8
 73
4
 74
0
 40
0
 40
0
 40
0
 40
0
 40
1
 40
1
 40
1
 40
1
 10
183.374326
 20
41.467558
 30
0.0
 10
182.709686
 20
40.346209
 30
0.0
 10
181.396956
 20
39.782408
 30
0.0
 10
180.126096
 20
40.072473
 30
0.0
  0
LWPOLYLINE
  5
114
100
AcDbEntity
  8
0
 62
7
100
AcDbPolyline
 90
2
 70
0
 10
186.833866
 20
38.257581
 30
0.0
 10
183.374326
 20
41.467558
 30
0.0
  0
SPLINE
  5
115
100
AcDbEntity
  8
0
 62
7
100
AcDbSpline
 70
8
 71
3
 72
8
 73
4
 74
0
 40
0
 40
0
 40
0
 40
0
 40
1
 40
1
 40
1
 40
1
 10
181.461216
 20
45.922041
 30
0.0
 10
182.732076
 20
45.631981
 30
0.0
 10
183.670186
 20
44.554435
 30
0.0
 10
183.782506
 20
43.255744
 30
0.0
  0
LWPOLYLINE
  5
116
100
AcDbEntity
  8
0
 62
7
100
AcDbPolyline
 90
4
 70
0
 10
180.126096
 20
40.072473
 30
0.0
 10
177.688776
 20
40.628773
 30
0.0
 10
179.023896
 20
46.478341
 30
0.0
 10
181.461216
 20
45.922041
 30
0.0
  0
LWPOLYLINE
  5
117
100
AcDbEntity
  8
0
 62
7
100
AcDbPolyline
 90
2
 70
0
 10
183.782506
 20
43.255744
 30
0.0
 10
188.292186
 20
44.646798
 30
0.0
  0
SPLINE
  5
118
100
AcDbEntity
  8
0
 62
7
100
AcDbSpline
 70
8
 71
3
 72
8
 73
4
 74
0
 40
0
 40
0
 40
0
 40
0
 40
1
 40
1
 40
1
 40
1
 10
183.782506
 20
81.902456
 30
0.0
 10
183.670186
 20
80.603764
 30
0.0
 10
182.732076
 20
79.526223
 30
0.0
 10
181.461216
 20
79.236158
 30
0.0
  0
LWPOLYLINE
  5
119
100
AcDbEntity
  8
0
 62
7
100
AcDbPolyline
 90
2
 70
0
 10
188.292186
 20
80.511402
 30
0.0
 10
183.782506
 20
81.902456
 30
0.0
  0
SPLINE
  5
11a
100
AcDbEntity
  8
0
 62
7
100
AcDbSpline
 70
8
 71
3
 72
8
 73
4
 74
0
 40
0
 40
0
 40
0
 40
0
 40
1
 40
1
 40
1
 40
1
 10
180.126096
 20
85.085726
 30
0.0
 10
181.396956
 20
85.375786
 30
0.0
 10
182.709686
 20
84.811986
 30
0.0
 10
183.374356
 20
83.690641
 30
0.0
  0
LWPOLYLINE
  5
11b
100
AcDbEntity
  8
0
 62
7
100
AcDbPolyline
 90
4
 70
0
 10
181.461216
 20
79.236158
 30
0.0
 10
179.023896
 20
78.679858
 30
0.0
 10
177.688776
 20
84.529426
 30
0.0
 10
180.126096
 20
85.085726
 30
0.0
  0
LWPOLYLINE
  5
11c
100
AcDbEntity
  8
0
 62
7
100
AcDbPolyline
 90
2
 70
0
 10
183.374356
 20
83.690641
 30
0.0
 10
186.833896
 20
86.900618
 30
0.0
  0
SPLINE
  5
11d
100
AcDbEntity
  8
0
 62
7
100
AcDbSpline
 70
8
 71
3
 72
8
 73
4
 74
0
 40
0
 40
0
 40
0
 40
0
 40
1
 40
1
 40
1
 40
1
 10
166.606176
 20
118.510110
 30
0.0
 10
167.068476
 20
117.291290
 30
0.0
 10
166.691176
 20
115.913430
 30
0.0
 10
165.671676
 20
115.100690
 30
0.0
  0
LWPOLYLINE
  5
11e
100
AcDbEntity
  8
0
 62
7
100
AcDbPolyline
 90
2
 70
0
 10
171.272826
 20
119.213510
 30
0.0
 10
166.606176
 20
118.510110
 30
0.0
  0
SPLINE
  5
11f
100
AcDbEntity
  8
0
 62
7
100
AcDbSpline
 70
8
 71
3
 72
8
 73
4
 74
0
 40
0
 40
0
 40
0
 40
0
 40
1
 40
1
 40
1
 40
1
 10
161.930756
 20
119.791690
 30
0.0
 10
162.949896
 20
120.604390
 30
0.0
 10
164.377246
 20
120.665990
 30
0.0
 10
165.462626
 20
119.944090
 30
0.0
  0
LWPOLYLINE
  5
120
100
AcDbEntity
  8
0
 62
7
100
AcDbPolyline
 90
4
 70
0
 10
165.671676
 20
115.100690
 30
0.0
 10
163.717096
 20
113.541960
 30
0.0
 10
159.976156
 20
118.232950
 30
0.0
 10
161.930756
 20
119.791690
 30
0.0
  0
LWPOLYLINE
  5
121
100
AcDbEntity
  8
0
 62
7
100
AcDbPolyline
 90
2
 70
0
 10
165.462626
 20
119.944090
 30
0.0
 10
167.186796
 20
124.337210
 30
0.0
  0
SPLINE
  5
122
100
AcDbEntity
  8
0
 62
7
100
AcDbSpline
 70
8
 71
3
 72
8
 73
4
 74
0
 40
0
 40
0
 40
0
 40
0
 40
1
 40
1
 40
1
 40
1
 10
135.247376
 20
144.039969
 30
0.0
 10
136.192706
 20
143.142469
 30
0.0
 10
136.450261
 20
141.737159
 30
0.0
 10
135.884676
 20
140.562709
 30
0.0
  0
LWPOLYLINE
  5
123
100
AcDbEntity
  8
0
 62
7
100
AcDbPolyline
 90
2
 70
0
 10
139.146691
 20
146.698479
 30
0.0
 10
135.247376
 20
144.039969
 30
0.0
  0
SPLINE
  5
124
100
AcDbEntity
  8
0
 62
7
100
AcDbSpline
 70
8
 71
3
 72
8
 73
4
 74
0
 40
0
 40
0
 40
0
 40
0
 40
1
 40
1
 40
1
 40
1
 10
130.478846
 20
143.165979
 30
0.0
 10
131.044426
 20
144.340449
 30
0.0
 10
132.303707
 20
145.015279
 30
0.0
 10
133.594844
 20
144.835789
 30
0.0
  0
LWPOLYLINE
  5
125
100
AcDbEntity
  8
0
 62
7
100
AcDbPolyline
 90
4
 70
0
 10
135.884676
 20
140.562709
 30
0.0
 10
134.799967
 20
138.310289
 30
0.0
 10
129.394154
 20
140.913589
 30
0.0
 10
130.478846
 20
143.165979
 30
0.0
  0
LWPOLYLINE
  5
126
100
AcDbEntity
  8
0
 62
7
100
AcDbPolyline
 90
2
 70
0
 10
133.594844
 20
144.835789
 30
0.0
 10
133.242164
 20
149.541949
 30
0.0
  0
SPLINE
  5
127
100
AcDbEntity
  8
0
 62
7
100
AcDbSpline
 70
8
 71
3
 72
8
 73
4
 74
0
 40
0
 40
0
 40
0
 40
0
 40
1
 40
1
 40
1
 40
1
 10
95.917086
 20
153.435489
 30
0.0
 10
97.158224
 20
153.036999
 30
0.0
 10
98.000000
 20
151.882639
 30
0.0
 10
98.000000
 20
150.579099
 30
0.0
  0
LWPOLYLINE
  5
128
100
AcDbEntity
  8
0
 62
7
100
AcDbPolyline
 90
2
 70
0
 10
98.276764
 20
157.522569
 30
0.0
 10
95.917086
 20
153.435489
 30
0.0
  0
SPLINE
  5
129
100
AcDbEntity
  8
0
 62
7
100
AcDbSpline
 70
8
 71
3
 72
8
 73
4
 74
0
 40
0
 40
0
 40
0
 40
0
 40
1
 40
1
 40
1
 40
1
 10
92.000000
 20
150.579099
 30
0.0
 10
92.000000
 20
151.882639
 30
0.0
 10
92.841780
 20
153.036999
 30
0.0
 10
94.082914
 20
153.435489
 30
0.0
  0
LWPOLYLINE
  5
12a
100
AcDbEntity
  8
0
 62
7
100
AcDbPolyline
 90
4
 70
0
 10
98.000000
 20
150.579099
 30
0.0
 10
98.000000
 20
148.079099
 30
0.0
 10
92.000000
 20
148.079099
 30
0.0
 10
92.000000
 20
150.579099
 30
0.0
  0
LWPOLYLINE
  5
12b
100
AcDbEntity
  8
0
 62
7
100
AcDbPolyline
 90
2
 70
0
 10
94.082914
 20
153.435489
 30
0.0
 10
91.723236
 20
157.522569
 30
0.0
  0
SPLINE
  5
12c
100
AcDbEntity
  8
0
 62
7
100
AcDbSpline
 70
8
 71
3
 72
8
 73
4
 74
0
 40
0
 40
0
 40
0
 40
0
 40
1
 40
1
 40
1
 40
1
 10
56.405156
 20
144.835789
 30
0.0
 10
57.696279
 20
145.015289
 30
0.0
 10
58.955553
 20
144.340489
 30
0.0
 10
59.521137
 20
143.166009
 30
0.0
  0
LWPOLYLINE
  5
12d
100
AcDbEntity
  8
0
 62
7
100
AcDbPolyline
 90
2
 70
0
 10
56.757834
 20
149.541949
 30
0.0
 10
56.405156
 20
144.835789
 30
0.0
  0
SPLINE
  5
12e
100
AcDbEntity
  8
0
 62
7
100
AcDbSpline
 70
8
 71
3
 72
8
 73
4
 74
0
 40
0
 40
0
 40
0
 40
0
 40
1
 40
1
 40
1
 40
1
 10
54.115324
 20
140.562709
 30
0.0
 10
53.549739
 20
141.737159
 30
0.0
 10
53.807294
 20
143.142439
 30
0.0
 10
54.752624
 20
144.039969
 30
0.0
  0
LWPOLYLINE
  5
12f
100
AcDbEntity
  8
0
 62
7
100
AcDbPolyline
 90
4
 70
0
 10
59.521137
 20
143.166009
 30
0.0
 10
60.605846
 20
140.913589
 30
0.0
 10
55.200033
 20
138.310289
 30
0.0
 10
54.115324
 20
140.562709
 30
0.0
  0
LWPOLYLINE
  5
130
100
AcDbEntity
  8
0
 62
7
100
AcDbPolyline
 90
2
 70
0
 10
54.752624
 20
144.039969
 30
0.0
 10
50.853309
 20
146.698479
 30
0.0
  0
SPLINE
  5
131
100
AcDbEntity
  8
0
 62
7
100
AcDbSpline
 70
8
 71
3
 72
8
 73
4
 74
0
 40
0
 40
0
 40
0
 40
0
 40
1
 40
1
 40
1
 40
1
 10
24.537408
 20
119.944139
 30
0.0
 10
25.622794
 20
120.666039
 30
0.0
 10
27.050150
 20
120.604439
 30
0.0
 10
28.069298
 20
119.791739
 30
0.0
  0
LWPOLYLINE
  5
132
100
AcDbEntity
  8
0
 62
7
100
AcDbPolyline
 90
2
 70
0
 10
22.813234
 20
124.337259
 30
0.0
 10
24.537408
 20
119.944139
 30
0.0
  0
SPLINE
  5
133
100
AcDbEntity
  8
0
 62
7
100
AcDbSpline
 70
8
 71
3
 72
8
 73
4
 74
0
 40
0
 40
0
 40
0
 40
0
 40
1
 40
1
 40
1
 40
1
 10
24.328359
 20
115.100749
 30
0.0
 10
23.309211
 20
115.913449
 30
0.0
 10
22.931533
 20
117.291349
 30
0.0
 10
23.393819
 20
118.510169
 30
0.0
  0
LWPOLYLINE
  5
134
100
AcDbEntity
  8
0
 62
7
100
AcDbPolyline
 90
4
 70
0
 10
28.069298
 20
119.791739
 30
0.0
 10
30.023877
 20
118.233009
 30
0.0
 10
26.282938
 20
113.542019
 30
0.0
 10
24.328359
 20
115.100749
 30
0.0
  0
LWPOLYLINE
  5
135
100
AcDbEntity
  8
0
 62
7
100
AcDbPolyline
 90
2
 70
0
 10
23.393819
 20
118.510169
 30
0.0
 10
18.727174
 20
119.213569
 30
0.0
  0
SPLINE
  5
136
100
AcDbEntity
  8
0
 62
7
100
AcDbSpline
 70
8
 71
3
 72
8
 73
4
 74
0
 40
0
 40
0
 40
0
 40
0
 40
1
 40
1
 40
1
 40
1
 10
6.625641
 20
83.690640
 30
0.0
 10
7.290311
 20
84.811988
 30
0.0
 10
8.603049
 20
85.375789
 30
0.0
 10
9.873905
 20
85.085725
 30
0.0
  0
LWPOLYLINE
  5
137
100
AcDbEntity
  8
0
 62
7
100
AcDbPolyline
 90
2
 70
0
 10
3.166108
 20
86.900617
 30
0.0
 10
6.625641
 20
83.690640
 30
0.0
  0
SPLINE
  5
138
100
AcDbEntity
  8
0
 62
7
100
AcDbSpline
 70
8
 71
3
 72
8
 73
4
 74
0
 40
0
 40
0
 40
0
 40
0
 40
1
 40
1
 40
1
 40
1
 10
8.538778
 20
79.236157
 30
0.0
 10
7.267922
 20
79.526227
 30
0.0
 10
6.329815
 20
80.603763
 30
0.0
 10
6.217499
 20
81.902454
 30
0.0
  0
LWPOLYLINE
  5
139
100
AcDbEntity
  8
0
 62
7
100
AcDbPolyline
 90
4
 70
0
 10
9.873905
 20
85.085725
 30
0.0
 10
12.311225
 20
84.529425
 30
0.0
 10
10.976100
 20
78.679857
 30
0.0
 10
8.538778
 20
79.236157
 30
0.0
  0
LWPOLYLINE
  5
13a
100
AcDbEntity
  8
0
 62
7
100
AcDbPolyline
 90
2
 70
0
 10
6.217499
 20
81.902454
 30
0.0
 10
1.707811
 20
80.511401
 30
0.0
  0
SPLINE
  5
13b
100
AcDbEntity
  8
0
 62
7
100
AcDbSpline
 70
8
 71
3
 72
8
 73
4
 74
0
 40
0
 40
0
 40
0
 40
0
 40
1
 40
1
 40
1
 40
1
 10
6.217499
 20
43.255743
 30
0.0
 10
6.329819
 20
44.554434
 30
0.0
 10
7.267923
 20
45.631975
 30
0.0
 10
8.538780
 20
45.922040
 30
0.0
  0
LWPOLYLINE
  5
13c
100
AcDbEntity
  8
0
 62
7
100
AcDbPolyline
 90
2
 70
0
 10
1.707811
 20
44.646797
 30
0.0
 10
6.217499
 20
43.255743
 30
0.0
  0
SPLINE
  5
13d
100
AcDbEntity
  8
0
 62
7
100
AcDbSpline
 70
8
 71
3
 72
8
 73
4
 74
0
 40
0
 40
0
 40
0
 40
0
 40
1
 40
1
 40
1
 40
1
 10
9.873905
 20
40.072472
 30
0.0
 10
8.603049
 20
39.782412
 30
0.0
 10
7.290315
 20
40.346212
 30
0.0
 10
6.625641
 20
41.467557
 30
0.0
  0
LWPOLYLINE
  5
13e
100
AcDbEntity
  8
0
 62
7
100
AcDbPolyline
 90
4
 70
0
 10
8.538780
 20
45.922040
 30
0.0
 10
10.976100
 20
46.478340
 30
0.0
 10
12.311225
 20
40.628772
 30
0.0
 10
9.873905
 20
40.072472
 30
0.0
  0
LWPOLYLINE
  5
13f
100
AcDbEntity
  8
0
 62
7
100
AcDbPolyline
 90
2
 70
0
 10
6.625641
 20
41.467557
 30
0.0
 10
3.166108
 20
38.257581
 30
0.0
  0
SPLINE
  5
140
100
AcDbEntity
  8
0
 62
7
100
AcDbSpline
 70
8
 71
3
 72
8
 73
4
 74
0
 40
0
 40
0
 40
0
 40
0
 40
1
 40
1
 40
1
 40
1
 10
23.393821
 20
6.648073
 30
0.0
 10
22.931531
 20
7.866885
 30
0.0
 10
23.309221
 20
9.244747
 30
0.0
 10
24.328361
 20
10.057490
 30
0.0
  0
LWPOLYLINE
  5
141
100
AcDbEntity
  8
0
 62
7
100
AcDbPolyline
 90
2
 70
0
 10
18.727176
 20
5.944690
 30
0.0
 10
23.393821
 20
6.648073
 30
0.0
  0
SPLINE
  5
142
100
AcDbEntity
  8
0
 62
7
100
AcDbSpline
 70
8
 71
3
 72
8
 73
4
 74
0
 40
0
 40
0
 40
0
 40
0
 40
1
 40
1
 40
1
 40
1
 10
28.069300
 20
5.366501
 30
0.0
 10
27.050152
 20
4.553758
 30
0.0
 10
25.622796
 20
4.492151
 30
0.0
 10
24.537410
 20
5.214060
 30
0.0
  0
LWPOLYLINE
  5
143
100
AcDbEntity
  8
0
 62
7
100
AcDbPolyline
 90
4
 70
0
 10
24.328361
 20
10.057490
 30
0.0
 10
26.282940
 20
11.616215
 30
0.0
 10
30.023879
 20
6.925226
 30
0.0
 10
28.069300
 20
5.366501
 30
0.0
  0
LWPOLYLINE
  5
144
100
AcDbEntity
  8
0
 62
7
100
AcDbPolyline
 90
2
 70
0
 10
24.537410
 20
5.214060
 30
0.0
 10
22.813234
 20
0.820936
 30
0.0
  0
SPLINE
  5
145
100
AcDbEntity
  8
0
 62
7
100
AcDbSpline
 70
8
 71
3
 72
8
 73
4
 74
0
 40
0
 40
0
 40
0
 40
0
 40
1
 40
1
 40
1
 40
1
 10
59.082914
 20
5.022712
 30
0.0
 10
57.841776
 20
5.421198
 30
0.0
 10
57.000000
 20
6.575561
 30
0.0
 10
57.000000
 20
7.879100
 30
0.0
  0
LWPOLYLINE
  5
146
100
AcDbEntity
  8
0
 62
7
100
AcDbPolyline
 90
2
 70
0
 10
57.672094
 20
2.579099
 30
0.0
 10
59.082914
 20
5.022712
 30
0.0
  0
SPLINE
  5
147
100
AcDbEntity
  8
0
 62
7
100
AcDbSpline
 70
8
 71
3
 72
8
 73
4
 74
0
 40
0
 40
0
 40
0
 40
0
 40
1
 40
1
 40
1
 40
1
 10
58.341688
 20
10.379100
 30
0.0
 10
59.547733
 20
10.379100
 30
0.0
 10
60.452267
 20
10.379100
 30
0.0
 10
61.658312
 20
10.379100
 30
0.0
  0
LWPOLYLINE
  5
148
100
AcDbEntity
  8
0
 62
7
100
AcDbPolyline
 90
3
 70
0
 10
57.000000
 20
7.879100
 30
0.0
 10
57.000000
 20
10.379100
 30
0.0
 10
58.341688
 20
10.379100
 30
0.0
  0
SPLINE
  5
149
100
AcDbEntity
  8
0
 62
7
100
AcDbSpline
 70
8
 71
3
 72
8
 73
4
 74
0
 40
0
 40
0
 40
0
 40
0
 40
1
 40
1
 40
1
 40
1
 10
63.000000
 20
7.879100
 30
0.0
 10
63.000000
 20
6.575561
 30
0.0
 10
62.158220
 20
5.421198
 30
0.0
 10
60.917086
 20
5.022712
 30
0.0
  0
LWPOLYLINE
  5
14a
100
AcDbEntity
  8
0
 62
7
100
AcDbPolyline
 90
3
 70
0
 10
61.658312
 20
10.379100
 30
0.0
 10
63.000000
 20
10.379100
 30
0.0
 10
63.000000
 20
7.879100
 30
0.0
  0
LWPOLYLINE
  5
14b
100
AcDbEntity
  8
0
 62
7
100
AcDbPolyline
 90
2
 70
0
 10
60.917086
 20
5.022712
 30
0.0
 10
62.327906
 20
2.579099
 30
0.0
  0
SPLINE
  5
14c
100
AcDbEntity
  8
0
 62
7
100
AcDbSpline
 70
8
 71
3
 72
8
 73
4
 74
0
 40
0
 40
0
 40
0
 40
0
 40
1
 40
1
 40
1
 40
1
 10
169.661763
 20
49.883416
 30
0.0
 10
168.662338
 20
49.459185
 30
0.0
 10
167.828159
 20
48.721167
 30
0.0
 10
167.285291
 20
47.780892
 30
0.0
  0
SPLINE
  5
14d
100
AcDbEntity
  8
0
 62
7
100
AcDbSpline
 70
8
 71
3
 72
8
 73
4
 74
0
 40
0
 40
0
 40
0
 40
0
 40
1
 40
1
 40
1
 40
1
 10
167.285291
 20
47.780892
 30
0.0
 10
167.285291
 20
47.780892
 30
0.0
 10
148.404901
 20
15.079097
 30
0.0
 10
148.404901
 20
15.079097
 30
0.0
  0
SPLINE
  5
14e
100
AcDbEntity
  8
0
 62
7
100
AcDbSpline
 70
8
 71
3
 72
8
 73
4
 74
0
 40
0
 40
0
 40
0
 40
0
 40
1
 40
1
 40
1
 40
1
 10
148.404901
 20
15.079097
 30
0.0
 10
147.511737
 20
13.532092
 30
0.0
 10
145.861102
 20
12.579097
 30
0.0
 10
144.074774
 20
12.579097
 30
0.0
  0
LWPOLYLINE
  5
14f
100
AcDbEntity
  8
0
 62
7
100
AcDbPolyline
 90
2
 70
0
 10
174.276211
 20
51.842133
 30
0.0
 10
169.661763
 20
49.883416
 30
0.0
  0
SPLINE
  5
150
100
AcDbEntity
  8
0
 62
7
100
AcDbSpline
 70
8
 71
3
 72
8
 73
4
 74
0
 40
0
 40
0
 40
0
 40
0
 40
1
 40
1
 40
1
 40
1
 10
45.925226
 20
12.579097
 30
0.0
 10
44.138898
 20
12.579097
 30
0.0
 10
42.488263
 20
13.532092
 30
0.0
 10
41.595099
 20
15.079097
 30
0.0
  0
LWPOLYLINE
  5
151
100
AcDbEntity
  8
0
 62
7
100
AcDbPolyline
 90
2
 70
0
 10
144.074774
 20
12.579097
 30
0.0
 10
45.925226
 20
12.579097
 30
0.0
  0
SPLINE
  5
152
100
AcDbEntity
  8
0
 62
7
100
AcDbSpline
 70
8
 71
3
 72
8
 73
4
 74
0
 40
0
 40
0
 40
0
 40
0
 40
1
 40
1
 40
1
 40
1
 10
22.714709
 20
47.780892
 30
0.0
 10
22.171841
 20
48.721166
 30
0.0
 10
21.337663
 20
49.459185
 30
0.0
 10
20.338238
 20
49.883416
 30
0.0
  0
LWPOLYLINE
  5
153
100
AcDbEntity
  8
0
 62
7
100
AcDbPolyline
 90
2
 70
0
 10
41.595099
 20
15.079097
 30
0.0
 10
22.714709
 20
47.780892
 30
0.0
  0
SPLINE
  5
154
100
AcDbEntity
  8
0
 62
7
100
AcDbSpline
 70
8
 71
3
 72
8
 73
4
 74
0
 40
0
 40
0
 40
0
 40
0
 40
1
 40
1
 40
1
 40
1
 10
15.723789
 20
51.842133
 30
0.0
 10
11.541442
 20
82.722432
 30
0.0
 10
25.671244
 20
113.221059
 30
0.0
 10
51.932432
 20
129.997080
 30
0.0
  0
SPLINE
  5
155
100
AcDbEntity
  8
0
 62
7
100
AcDbSpline
 70
8
 71
3
 72
8
 73
4
 74
0
 40
0
 40
0
 40
0
 40
0
 40
1
 40
1
 40
1
 40
1
 10
51.932432
 20
129.997080
 30
0.0
 10
78.193621
 20
146.773101
 30
0.0
 10
111.806379
 20
146.773101
 30
0.0
 10
138.067568
 20
129.997080
 30
0.0
  0
SPLINE
  5
156
100
AcDbEntity
  8
0
 62
7
100
AcDbSpline
 70
8
 71
3
 72
8
 73
4
 74
0
 40
0
 40
0
 40
0
 40
0
 40
1
 40
1
 40
1
 40
1
 10
138.067568
 20
129.997080
 30
0.0
 10
164.328756
 20
113.221059
 30
0.0
 10
178.458558
 20
82.722432
 30
0.0
 10
174.276211
 20
51.842133
 30
0.0
  0
LWPOLYLINE
  5
157
100
AcDbEntity
  8
0
 62
7
100
AcDbPolyline
 90
2
 70
0
 10
20.338238
 20
49.883416
 30
0.0
 10
15.723789
 20
51.842133
 30
0.0
  0
SPLINE
  5
158
100
AcDbEntity
  8
0
 62
7
100
AcDbSpline
 70
8
 71
3
 72
8
 73
4
 74
0
 40
0
 40
0
 40
0
 40
0
 40
1
 40
1
 40
1
 40
1
 10
167.851906
 20
42.399605
 30
0.0
 10
167.851906
 20
41.649347
 30
0.0
 10
168.252164
 20
40.956081
 30
0.0
 10
168.901906
 20
40.580952
 30
0.0
  0
SPLINE
  5
159
100
AcDbEntity
  8
0
 62
7
100
AcDbSpline
 70
8
 71
3
 72
8
 73
4
 74
0
 40
0
 40
0
 40
0
 40
0
 40
1
 40
1
 40
1
 40
1
 10
168.901906
 20
40.580952
 30
0.0
 10
169.551648
 20
40.205823
 30
0.0
 10
170.352164
 20
40.205823
 30
0.0
 10
171.001906
 20
40.580952
 30
0.0
  0
SPLINE
  5
15a
100
AcDbEntity
  8
0
 62
7
100
AcDbSpline
 70
8
 71
3
 72
8
 73
4
 74
0
 40
0
 40
0
 40
0
 40
0
 40
1
 40
1
 40
1
 40
1
 10
171.001906
 20
40.580952
 30
0.0
 10
171.651648
 20
40.956081
 30
0.0
 10
172.051906
 20
41.649347
 30
0.0
 10
172.051906
 20
42.399605
 30
0.0
  0
SPLINE
  5
15b
100
AcDbEntity
  8
0
 62
7
100
AcDbSpline
 70
8
 71
3
 72
8
 73
4
 74
0
 40
0
 40
0
 40
0
 40
0
 40
1
 40
1
 40
1
 40
1
 10
172.051906
 20
42.399605
 30
0.0
 10
172.051906
 20
43.149863
 30
0.0
 10
171.651648
 20
43.843129
 30
0.0
 10
171.001906
 20
44.218258
 30
0.0
  0
SPLINE
  5
15c
100
AcDbEntity
  8
0
 62
7
100
AcDbSpline
 70
8
 71
3
 72
8
 73
4
 74
0
 40
0
 40
0
 40
0
 40
0
 40
1
 40
1
 40
1
 40
1
 10
171.001906
 20
44.218258
 30
0.0
 10
170.352164
 20
44.593387
 30
0.0
 10
169.551648
 20
44.593387
 30
0.0
 10
168.901906
 20
44.218258
 30
0.0
  0
SPLINE
  5
15d
100
AcDbEntity
  8
0
 62
7
100
AcDbSpline
 70
8
 71
3
 72
8
 73
4
 74
0
 40
0
 40
0
 40
0
 40
0
 40
1
 40
1
 40
1
 40
1
 10
168.901906
 20
44.218258
 30
0.0
 10
168.252164
 20
43.843129
 30
0.0
 10
167.851906
 20
43.149863
 30
0.0
 10
167.851906
 20
42.399605
 30
0.0
  0
LWPOLYLINE
  5
15e
100
AcDbEntity
  8
0
 62
7
100
AcDbPolyline
 90
1
 70
1
 10
174.276211
 20
51.842133
 30
0.0
  0
SPLINE
  5
15f
100
AcDbEntity
  8
0
 62
7
100
AcDbSpline
 70
8
 71
3
 72
8
 73
4
 74
0
 40
0
 40
0
 40
0
 40
0
 40
1
 40
1
 40
1
 40
1
 10
147.851906
 20
7.758588
 30
0.0
 10
147.851906
 20
7.008330
 30
0.0
 10
148.252164
 20
6.315064
 30
0.0
 10
148.901906
 20
5.939935
 30
0.0
  0
SPLINE
  5
160
100
AcDbEntity
  8
0
 62
7
100
AcDbSpline
 70
8
 71
3
 72
8
 73
4
 74
0
 40
0
 40
0
 40
0
 40
0
 40
1
 40
1
 40
1
 40
1
 10
148.901906
 20
5.939935
 30
0.0
 10
149.551648
 20
5.564806
 30
0.0
 10
150.352164
 20
5.564806
 30
0.0
 10
151.001906
 20
5.939935
 30
0.0
  0
SPLINE
  5
161
100
AcDbEntity
  8
0
 62
7
100
AcDbSpline
 70
8
 71
3
 72
8
 73
4
 74
0
 40
0
 40
0
 40
0
 40
0
 40
1
 40
1
 40
1
 40
1
 10
151.001906
 20
5.939935
 30
0.0
 10
151.651648
 20
6.315064
 30
0.0
 10
152.051906
 20
7.008330
 30
0.0
 10
152.051906
 20
7.758588
 30
0.0
  0
SPLINE
  5
162
100
AcDbEntity
  8
0
 62
7
100
AcDbSpline
 70
8
 71
3
 72
8
 73
4
 74
0
 40
0
 40
0
 40
0
 40
0
 40
1
 40
1
 40
1
 40
1
 10
152.051906
 20
7.758588
 30
0.0
 10
152.051906
 20
8.508846
 30
0.0
 10
151.651648
 20
9.202112
 30
0.0
 10
151.001906
 20
9.577241
 30
0.0
  0
SPLINE
  5
163
100
AcDbEntity
  8
0
 62
7
100
AcDbSpline
 70
8
 71
3
 72
8
 73
4
 74
0
 40
0
 40
0
 40
0
 40
0
 40
1
 40
1
 40
1
 40
1
 10
151.001906
 20
9.577241
 30
0.0
 10
150.352164
 20
9.952370
 30
0.0
 10
149.551648
 20
9.952370
 30
0.0
 10
148.901906
 20
9.577241
 30
0.0
  0
SPLINE
  5
164
100
AcDbEntity
  8
0
 62
7
100
AcDbSpline
 70
8
 71
3
 72
8
 73
4
 74
0
 40
0
 40
0
 40
0
 40
0
 40
1
 40
1
 40
1
 40
1
 10
148.901906
 20
9.577241
 30
0.0
 10
148.252164
 20
9.202112
 30
0.0
 10
147.851906
 20
8.508846
 30
0.0
 10
147.851906
 20
7.758588
 30
0.0
  0
LWPOLYLINE
  5
165
100
AcDbEntity
  8
0
 62
7
100
AcDbPolyline
 90
1
 70
1
 10
167.851906
 20
42.399605
 30
0.0
  0
SPLINE
  5
166
100
AcDbEntity
  8
0
 62
7
100
AcDbSpline
 70
8
 71
3
 72
8
 73
4
 74
0
 40
0
 40
0
 40
0
 40
0
 40
1
 40
1
 40
1
 40
1
 10
37.948094
 20
7.758588
 30
0.0
 10
37.948094
 20
7.008330
 30
0.0
 10
38.348352
 20
6.315064
 30
0.0
 10
38.998094
 20
5.939935
 30
0.0
  0
SPLINE
  5
167
100
AcDbEntity
  8
0
 62
7
100
AcDbSpline
 70
8
 71
3
 72
8
 73
4
 74
0
 40
0
 40
0
 40
0
 40
0
 40
1
 40
1
 40
1
 40
1
 10
38.998094
 20
5.939935
 30
0.0
 10
39.647836
 20
5.564806
 30
0.0
 10
40.448352
 20
5.564806
 30
0.0
 10
41.098094
 20
5.939935
 30
0.0
  0
SPLINE
  5
168
100
AcDbEntity
  8
0
 62
7
100
AcDbSpline
 70
8
 71
3
 72
8
 73
4
 74
0
 40
0
 40
0
 40
0
 40
0
 40
1
 40
1
 40
1
 40
1
 10
41.098094
 20
5.939935
 30
0.0
 10
41.747836
 20
6.315064
 30
0.0
 10
42.148094
 20
7.008330
 30
0.0
 10
42.148094
 20
7.758588
 30
0.0
  0
SPLINE
  5
169
100
AcDbEntity
  8
0
 62
7
100
AcDbSpline
 70
8
 71
3
 72
8
 73
4
 74
0
 40
0
 40
0
 40
0
 40
0
 40
1
 40
1
 40
1
 40
1
 10
42.148094
 20
7.758588
 30
0.0
 10
42.148094
 20
8.508846
 30
0.0
 10
41.747836
 20
9.202112
 30
0.0
 10
41.098094
 20
9.577241
 30
0.0
  0
SPLINE
  5
16a
100
AcDbEntity
  8
0
 62
7
100
AcDbSpline
 70
8
 71
3
 72
8
 73
4
 74
0
 40
0
 40
0
 40
0
 40
0
 40
1
 40
1
 40
1
 40
1
 10
41.098094
 20
9.577241
 30
0.0
 10
40.448352
 20
9.952370
 30
0.0
 10
39.647836
 20
9.952370
 30
0.0
 10
38.998094
 20
9.577241
 30
0.0
  0
SPLINE
  5
16b
100
AcDbEntity
  8
0
 62
7
100
AcDbSpline
 70
8
 71
3
 72
8
 73
4
 74
0
 40
0
 40
0
 40
0
 40
0
 40
1
 40
1
 40
1
 40
1
 10
38.998094
 20
9.577241
 30
0.0
 10
38.348352
 20
9.202112
 30
0.0
 10
37.948094
 20
8.508846
 30
0.0
 10
37.948094
 20
7.758588
 30
0.0
  0
LWPOLYLINE
  5
16c
100
AcDbEntity
  8
0
 62
7
100
AcDbPolyline
 90
1
 70
1
 10
147.851906
 20
7.758588
 30
0.0
  0
SPLINE
  5
16d
100
AcDbEntity
  8
0
 62
7
100
AcDbSpline
 70
8
 71
3
 72
8
 73
4
 74
0
 40
0
 40
0
 40
0
 40
0
 40
1
 40
1
 40
1
 40
1
 10
17.948094
 20
42.399605
 30
0.0
 10
17.948094
 20
41.649347
 30
0.0
 10
18.348352
 20
40.956081
 30
0.0
 10
18.998094
 20
40.580952
 30
0.0
  0
SPLINE
  5
16e
100
AcDbEntity
  8
0
 62
7
100
AcDbSpline
 70
8
 71
3
 72
8
 73
4
 74
0
 40
0
 40
0
 40
0
 40
0
 40
1
 40
1
 40
1
 40
1
 10
18.998094
 20
40.580952
 30
0.0
 10
19.647836
 20
40.205823
 30
0.0
 10
20.448352
 20
40.205823
 30
0.0
 10
21.098094
 20
40.580952
 30
0.0
  0
SPLINE
  5
16f
100
AcDbEntity
  8
0
 62
7
100
AcDbSpline
 70
8
 71
3
 72
8
 73
4
 74
0
 40
0
 40
0
 40
0
 40
0
 40
1
 40
1
 40
1
 40
1
 10
21.098094
 20
40.580952
 30
0.0
 10
21.747836
 20
40.956081
 30
0.0
 10
22.148094
 20
41.649347
 30
0.0
 10
22.148094
 20
42.399605
 30
0.0
  0
SPLINE
  5
170
100
AcDbEntity
  8
0
 62
7
100
AcDbSpline
 70
8
 71
3
 72
8
 73
4
 74
0
 40
0
 40
0
 40
0
 40
0
 40
1
 40
1
 40
1
 40
1
 10
22.148094
 20
42.399605
 30
0.0
 10
22.148094
 20
43.149863
 30
0.0
 10
21.747836
 20
43.843129
 30
0.0
 10
21.098094
 20
44.218258
 30
0.0
  0
SPLINE
  5
171
100
AcDbEntity
  8
0
 62
7
100
AcDbSpline
 70
8
 71
3
 72
8
 73
4
 74
0
 40
0
 40
0
 40
0
 40
0
 40
1
 40
1
 40
1
 40
1
 10
21.098094
 20
44.218258
 30
0.0
 10
20.448352
 20
44.593387
 30
0.0
 10
19.647836
 20
44.593387
 30
0.0
 10
18.998094
 20
44.218258
 30
0.0
  0
SPLINE
  5
172
100
AcDbEntity
  8
0
 62
7
100
AcDbSpline
 70
8
 71
3
 72
8
 73
4
 74
0
 40
0
 40
0
 40
0
 40
0
 40
1
 40
1
 40
1
 40
1
 10
18.998094
 20
44.218258
 30
0.0
 10
18.348352
 20
43.843129
 30
0.0
 10
17.948094
 20
43.149863
 30
0.0
 10
17.948094
 20
42.399605
 30
0.0
  0
LWPOLYLINE
  5
173
100
AcDbEntity
  8
0
 62
7
100
AcDbPolyline
 90
1
 70
1
 10
37.948094
 20
7.758588
 30
0.0
  0
LWPOLYLINE
  5
174
100
AcDbEntity
  8
0
 62
7
100
AcDbPolyline
 90
1
 70
1
 10
17.948094
 20
42.399605
 30
0.0
  0
SPLINE
  5
175
100
AcDbEntity
  8
0
 62
1
100
AcDbSpline
 70
8
 71
3
 72
8
 73
4
 74
0
 40
0
 40
0
 40
0
 40
0
 40
1
 40
1
 40
1
 40
1
 10
167.053974
 20
0.673908
 30
0.0
 10
167.053974
 20
0.673908
 30
0.0
 10
167.186974
 20
0.820929
 30
0.0
 10
167.186974
 20
0.820929
 30
0.0
  0
SPLINE
  5
176
100
AcDbEntity
  8
0
 62
1
100
AcDbSpline
 70
8
 71
3
 72
8
 73
4
 74
0
 40
0
 40
0
 40
0
 40
0
 40
1
 40
1
 40
1
 40
1
 10
167.186974
 20
0.820929
 30
0.0
 10
167.683231
 20
1.401067
 30
0.0
 10
168.172476
 20
1.987165
 30
0.0
 10
168.654604
 20
2.579097
 30
0.0
  0
SPLINE
  5
177
100
AcDbEntity
  8
0
 62
1
100
AcDbSpline
 70
8
 71
3
 72
8
 73
4
 74
0
 40
0
 40
0
 40
0
 40
0
 40
1
 40
1
 40
1
 40
1
 10
168.654604
 20
2.579097
 30
0.0
 10
200.212264
 20
41.318546
 30
0.0
 10
196.367170
 20
97.882467
 30
0.0
 10
159.857202
 20
131.994825
 30
0.0
  0
SPLINE
  5
178
100
AcDbEntity
  8
0
 62
1
100
AcDbSpline
 70
8
 71
3
 72
8
 73
4
 74
0
 40
0
 40
0
 40
0
 40
0
 40
1
 40
1
 40
1
 40
1
 10
159.857202
 20
131.994825
 30
0.0
 10
123.347233
 20
166.107184
 30
0.0
 10
66.652772
 20
166.107184
 30
0.0
 10
30.142803
 20
131.994825
 30
0.0
  0
SPLINE
  5
179
100
AcDbEntity
  8
0
 62
1
100
AcDbSpline
 70
8
 71
3
 72
8
 73
4
 74
0
 40
0
 40
0
 40
0
 40
0
 40
1
 40
1
 40
1
 40
1
 10
30.142803
 20
131.994825
 30
0.0
 10
-6.367165
 20
97.882467
 30
0.0
 10
-10.212259
 20
41.318546
 30
0.0
 10
21.345401
 20
2.579097
 30
0.0
  0
SPLINE
  5
17a
100
AcDbEntity
  8
0
 62
1
100
AcDbSpline
 70
8
 71
3
 72
8
 73
4
 74
0
 40
0
 40
0
 40
0
 40
0
 40
1
 40
1
 40
1
 40
1
 10
21.345401
 20
2.579097
 30
0.0
 10
21.827596
 20
1.987166
 30
0.0
 10
22.316909
 20
1.401069
 30
0.0
 10
22.813234
 20
0.820934
 30
0.0
  0
LWPOLYLINE
  5
17b
100
AcDbEntity
  8
0
 62
1
100
AcDbPolyline
 90
17
 70
0
 10
165.271674
 20
0.021368
 30
0.0
 10
165.271674
 20
0.021368
 30
0.0
 10
165.375174
 20
0.009158
 30
0.0
 10
165.481474
 20
0.002643
 30
0.0
 10
165.590374
 20
0.001900
 30
0.0
 10
165.701774
 20
0.007116
 30
0.0
 10
165.815574
 20
0.018616
 30
0.0
 10
165.931474
 20
0.036906
 30
0.0
 10
166.049374
 20
0.062656
 30
0.0
 10
166.169174
 20
0.096736
 30
0.0
 10
166.290674
 20
0.140216
 30
0.0
 10
166.413874
 20
0.194316
 30
0.0
 10
166.538674
 20
0.260406
 30
0.0
 10
166.665074
 20
0.339966
 30
0.0
 10
166.793074
 20
0.434486
 30
0.0
 10
166.922674
 20
0.545388
 30
0.0
 10
167.053974
 20
0.673908
 30
0.0
  0
SPLINE
  5
17c
100
AcDbEntity
  8
0
 62
1
100
AcDbSpline
 70
8
 71
3
 72
8
 73
4
 74
0
 40
0
 40
0
 40
0
 40
0
 40
1
 40
1
 40
1
 40
1
 10
17.948094
 20
42.399605
 30
0.0
 10
17.948094
 20
41.649347
 30
0.0
 10
18.348352
 20
40.956081
 30
0.0
 10
18.998094
 20
40.580952
 30
0.0
  0
SPLINE
  5
17d
100
AcDbEntity
  8
0
 62
1
100
AcDbSpline
 70
8
 71
3
 72
8
 73
4
 74
0
 40
0
 40
0
 40
0
 40
0
 40
1
 40
1
 40
1
 40
1
 10
18.998094
 20
40.580952
 30
0.0
 10
19.647836
 20
40.205823
 30
0.0
 10
20.448352
 20
40.205823
 30
0.0
 10
21.098094
 20
40.580952
 30
0.0
  0
SPLINE
  5
17e
100
AcDbEntity
  8
0
 62
1
100
AcDbSpline
 70
8
 71
3
 72
8
 73
4
 74
0
 40
0
 40
0
 40
0
 40
0
 40
1
 40
1
 40
1
 40
1
 10
21.098094
 20
40.580952
 30
0.0
 10
21.747836
 20
40.956081
 30
0.0
 10
22.148094
 20
41.649347
 30
0.0
 10
22.148094
 20
42.399605
 30
0.0
  0
SPLINE
  5
17f
100
AcDbEntity
  8
0
 62
1
100
AcDbSpline
 70
8
 71
3
 72
8
 73
4
 74
0
 40
0
 40
0
 40
0
 40
0
 40
1
 40
1
 40
1
 40
1
 10
22.148094
 20
42.399605
 30
0.0
 10
22.148094
 20
43.149863
 30
0.0
 10
21.747836
 20
43.843129
 30
0.0
 10
21.098094
 20
44.218258
 30
0.0
  0
SPLINE
  5
180
100
AcDbEntity
  8
0
 62
1
100
AcDbSpline
 70
8
 71
3
 72
8
 73
4
 74
0
 40
0
 40
0
 40
0
 40
0
 40
1
 40
1
 40
1
 40
1
 10
21.098094
 20
44.218258
 30
0.0
 10
20.448352
 20
44.593387
 30
0.0
 10
19.647836
 20
44.593387
 30
0.0
 10
18.998094
 20
44.218258
 30
0.0
  0
SPLINE
  5
181
100
AcDbEntity
  8
0
 62
1
100
AcDbSpline
 70
8
 71
3
 72
8
 73
4
 74
0
 40
0
 40
0
 40
0
 40
0
 40
1
 40
1
 40
1
 40
1
 10
18.998094
 20
44.218258
 30
0.0
 10
18.348352
 20
43.843129
 30
0.0
 10
17.948094
 20
43.149863
 30
0.0
 10
17.948094
 20
42.399605
 30
0.0
  0
LWPOLYLINE
  5
182
100
AcDbEntity
  8
0
 62
1
100
AcDbPolyline
 90
21
 70
0
 10
22.813234
 20
0.820934
 30
0.0
 10
22.813234
 20
0.820934
 30
0.0
 10
22.946214
 20
0.673913
 30
0.0
 10
23.077494
 20
0.545393
 30
0.0
 10
23.207094
 20
0.434491
 30
0.0
 10
23.335064
 20
0.339971
 30
0.0
 10
23.461434
 20
0.260411
 30
0.0
 10
23.586204
 20
0.194321
 30
0.0
 10
23.709364
 20
0.140221
 30
0.0
 10
23.830864
 20
0.096741
 30
0.0
 10
23.950624
 20
0.062661
 30
0.0
 10
24.068534
 20
0.036911
 30
0.0
 10
24.184454
 20
0.018621
 30
0.0
 10
24.298214
 20
0.007121
 30
0.0
 10
24.409644
 20
0.001905
 30
0.0
 10
24.518564
 20
0.002648
 30
0.0
 10
24.624824
 20
0.009163
 30
0.0
 10
24.728304
 20
0.021373
 30
0.0
 10
42.084974
 20
2.579097
 30
0.0
 10
147.915024
 20
2.579097
 30
0.0
 10
165.271674
 20
0.021368
 30
0.0
  0
SPLINE
  5
183
100
AcDbEntity
  8
0
 62
1
100
AcDbSpline
 70
8
 71
3
 72
8
 73
4
 74
0
 40
0
 40
0
 40
0
 40
0
 40
1
 40
1
 40
1
 40
1
 10
167.851904
 20
42.399605
 30
0.0
 10
167.851904
 20
41.649347
 30
0.0
 10
168.252162
 20
40.956081
 30
0.0
 10
168.901904
 20
40.580952
 30
0.0
  0
SPLINE
  5
184
100
AcDbEntity
  8
0
 62
1
100
AcDbSpline
 70
8
 71
3
 72
8
 73
4
 74
0
 40
0
 40
0
 40
0
 40
0
 40
1
 40
1
 40
1
 40
1
 10
168.901904
 20
40.580952
 30
0.0
 10
169.551646
 20
40.205823
 30
0.0
 10
170.352162
 20
40.205823
 30
0.0
 10
171.001904
 20
40.580952
 30
0.0
  0
SPLINE
  5
185
100
AcDbEntity
  8
0
 62
1
100
AcDbSpline
 70
8
 71
3
 72
8
 73
4
 74
0
 40
0
 40
0
 40
0
 40
0
 40
1
 40
1
 40
1
 40
1
 10
171.001904
 20
40.580952
 30
0.0
 10
171.651646
 20
40.956081
 30
0.0
 10
172.051904
 20
41.649347
 30
0.0
 10
172.051904
 20
42.399605
 30
0.0
  0
SPLINE
  5
186
100
AcDbEntity
  8
0
 62
1
100
AcDbSpline
 70
8
 71
3
 72
8
 73
4
 74
0
 40
0
 40
0
 40
0
 40
0
 40
1
 40
1
 40
1
 40
1
 10
172.051904
 20
42.399605
 30
0.0
 10
172.051904
 20
43.149863
 30
0.0
 10
171.651646
 20
43.843129
 30
0.0
 10
171.001904
 20
44.218258
 30
0.0
  0
SPLINE
  5
187
100
AcDbEntity
  8
0
 62
1
100
AcDbSpline
 70
8
 71
3
 72
8
 73
4
 74
0
 40
0
 40
0
 40
0
 40
0
 40
1
 40
1
 40
1
 40
1
 10
171.001904
 20
44.218258
 30
0.0
 10
170.352162
 20
44.593387
 30
0.0
 10
169.551646
 20
44.593387
 30
0.0
 10
168.901904
 20
44.218258
 30
0.0
  0
SPLINE
  5
188
100
AcDbEntity
  8
0
 62
1
100
AcDbSpline
 70
8
 71
3
 72
8
 73
4
 74
0
 40
0
 40
0
 40
0
 40
0
 40
1
 40
1
 40
1
 40
1
 10
168.901904
 20
44.218258
 30
0.0
 10
168.252162
 20
43.843129
 30
0.0
 10
167.851904
 20
43.149863
 30
0.0
 10
167.851904
 20
42.399605
 30
0.0
  0
LWPOLYLINE
  5
189
100
AcDbEntity
  8
0
 62
1
100
AcDbPolyline
 90
1
 70
1
 10
17.948094
 20
42.399605
 30
0.0
  0
SPLINE
  5
18a
100
AcDbEntity
  8
0
 62
1
100
AcDbSpline
 70
8
 71
3
 72
8
 73
4
 74
0
 40
0
 40
0
 40
0
 40
0
 40
1
 40
1
 40
1
 40
1
 10
72.900000
 20
137.579097
 30
0.0
 10
72.900000
 20
136.828839
 30
0.0
 10
73.300258
 20
136.135573
 30
0.0
 10
73.950000
 20
135.760444
 30
0.0
  0
SPLINE
  5
18b
100
AcDbEntity
  8
0
 62
1
100
AcDbSpline
 70
8
 71
3
 72
8
 73
4
 74
0
 40
0
 40
0
 40
0
 40
0
 40
1
 40
1
 40
1
 40
1
 10
73.950000
 20
135.760444
 30
0.0
 10
74.599742
 20
135.385315
 30
0.0
 10
75.400258
 20
135.385315
 30
0.0
 10
76.050000
 20
135.760444
 30
0.0
  0
SPLINE
  5
18c
100
AcDbEntity
  8
0
 62
1
100
AcDbSpline
 70
8
 71
3
 72
8
 73
4
 74
0
 40
0
 40
0
 40
0
 40
0
 40
1
 40
1
 40
1
 40
1
 10
76.050000
 20
135.760444
 30
0.0
 10
76.699742
 20
136.135573
 30
0.0
 10
77.100000
 20
136.828839
 30
0.0
 10
77.100000
 20
137.579097
 30
0.0
  0
SPLINE
  5
18d
100
AcDbEntity
  8
0
 62
1
100
AcDbSpline
 70
8
 71
3
 72
8
 73
4
 74
0
 40
0
 40
0
 40
0
 40
0
 40
1
 40
1
 40
1
 40
1
 10
77.100000
 20
137.579097
 30
0.0
 10
77.100000
 20
138.329355
 30
0.0
 10
76.699742
 20
139.022621
 30
0.0
 10
76.050000
 20
139.397750
 30
0.0
  0
SPLINE
  5
18e
100
AcDbEntity
  8
0
 62
1
100
AcDbSpline
 70
8
 71
3
 72
8
 73
4
 74
0
 40
0
 40
0
 40
0
 40
0
 40
1
 40
1
 40
1
 40
1
 10
76.050000
 20
139.397750
 30
0.0
 10
75.400258
 20
139.772879
 30
0.0
 10
74.599742
 20
139.772879
 30
0.0
 10
73.950000
 20
139.397750
 30
0.0
  0
SPLINE
  5
18f
100
AcDbEntity
  8
0
 62
1
100
AcDbSpline
 70
8
 71
3
 72
8
 73
4
 74
0
 40
0
 40
0
 40
0
 40
0
 40
1
 40
1
 40
1
 40
1
 10
73.950000
 20
139.397750
 30
0.0
 10
73.300258
 20
139.022621
 30
0.0
 10
72.900000
 20
138.329355
 30
0.0
 10
72.900000
 20
137.579097
 30
0.0
  0
LWPOLYLINE
  5
190
100
AcDbEntity
  8
0
 62
1
100
AcDbPolyline
 90
1
 70
1
 10
167.851904
 20
42.399605
 30
0.0
  0
SPLINE
  5
191
100
AcDbEntity
  8
0
 62
1
100
AcDbSpline
 70
8
 71
3
 72
8
 73
4
 74
0
 40
0
 40
0
 40
0
 40
0
 40
1
 40
1
 40
1
 40
1
 10
147.851904
 20
7.758588
 30
0.0
 10
147.851904
 20
7.008330
 30
0.0
 10
148.252162
 20
6.315064
 30
0.0
 10
148.901904
 20
5.939935
 30
0.0
  0
SPLINE
  5
192
100
AcDbEntity
  8
0
 62
1
100
AcDbSpline
 70
8
 71
3
 72
8
 73
4
 74
0
 40
0
 40
0
 40
0
 40
0
 40
1
 40
1
 40
1
 40
1
 10
148.901904
 20
5.939935
 30
0.0
 10
149.551646
 20
5.564806
 30
0.0
 10
150.352162
 20
5.564806
 30
0.0
 10
151.001904
 20
5.939935
 30
0.0
  0
SPLINE
  5
193
100
AcDbEntity
  8
0
 62
1
100
AcDbSpline
 70
8
 71
3
 72
8
 73
4
 74
0
 40
0
 40
0
 40
0
 40
0
 40
1
 40
1
 40
1
 40
1
 10
151.001904
 20
5.939935
 30
0.0
 10
151.651646
 20
6.315064
 30
0.0
 10
152.051904
 20
7.008330
 30
0.0
 10
152.051904
 20
7.758588
 30
0.0
  0
SPLINE
  5
194
100
AcDbEntity
  8
0
 62
1
100
AcDbSpline
 70
8
 71
3
 72
8
 73
4
 74
0
 40
0
 40
0
 40
0
 40
0
 40
1
 40
1
 40
1
 40
1
 10
152.051904
 20
7.758588
 30
0.0
 10
152.051904
 20
8.508846
 30
0.0
 10
151.651646
 20
9.202112
 30
0.0
 10
151.001904
 20
9.577241
 30
0.0
  0
SPLINE
  5
195
100
AcDbEntity
  8
0
 62
1
100
AcDbSpline
 70
8
 71
3
 72
8
 73
4
 74
0
 40
0
 40
0
 40
0
 40
0
 40
1
 40
1
 40
1
 40
1
 10
151.001904
 20
9.577241
 30
0.0
 10
150.352162
 20
9.952370
 30
0.0
 10
149.551646
 20
9.952370
 30
0.0
 10
148.901904
 20
9.577241
 30
0.0
  0
SPLINE
  5
196
100
AcDbEntity
  8
0
 62
1
100
AcDbSpline
 70
8
 71
3
 72
8
 73
4
 74
0
 40
0
 40
0
 40
0
 40
0
 40
1
 40
1
 40
1
 40
1
 10
148.901904
 20
9.577241
 30
0.0
 10
148.252162
 20
9.202112
 30
0.0
 10
147.851904
 20
8.508846
 30
0.0
 10
147.851904
 20
7.758588
 30
0.0
  0
LWPOLYLINE
  5
197
100
AcDbEntity
  8
0
 62
1
100
AcDbPolyline
 90
1
 70
1
 10
72.900000
 20
137.579097
 30
0.0
  0
SPLINE
  5
198
100
AcDbEntity
  8
0
 62
1
100
AcDbSpline
 70
8
 71
3
 72
8
 73
4
 74
0
 40
0
 40
0
 40
0
 40
0
 40
1
 40
1
 40
1
 40
1
 10
112.900001
 20
137.579097
 30
0.0
 10
112.900001
 20
136.828839
 30
0.0
 10
113.300259
 20
136.135573
 30
0.0
 10
113.950001
 20
135.760444
 30
0.0
  0
SPLINE
  5
199
100
AcDbEntity
  8
0
 62
1
100
AcDbSpline
 70
8
 71
3
 72
8
 73
4
 74
0
 40
0
 40
0
 40
0
 40
0
 40
1
 40
1
 40
1
 40
1
 10
113.950001
 20
135.760444
 30
0.0
 10
114.599743
 20
135.385315
 30
0.0
 10
115.400259
 20
135.385315
 30
0.0
 10
116.050001
 20
135.760444
 30
0.0
  0
SPLINE
  5
19a
100
AcDbEntity
  8
0
 62
1
100
AcDbSpline
 70
8
 71
3
 72
8
 73
4
 74
0
 40
0
 40
0
 40
0
 40
0
 40
1
 40
1
 40
1
 40
1
 10
116.050001
 20
135.760444
 30
0.0
 10
116.699743
 20
136.135573
 30
0.0
 10
117.100001
 20
136.828839
 30
0.0
 10
117.100001
 20
137.579097
 30
0.0
  0
SPLINE
  5
19b
100
AcDbEntity
  8
0
 62
1
100
AcDbSpline
 70
8
 71
3
 72
8
 73
4
 74
0
 40
0
 40
0
 40
0
 40
0
 40
1
 40
1
 40
1
 40
1
 10
117.100001
 20
137.579097
 30
0.0
 10
117.100001
 20
138.329355
 30
0.0
 10
116.699743
 20
139.022621
 30
0.0
 10
116.050001
 20
139.397750
 30
0.0
  0
SPLINE
  5
19c
100
AcDbEntity
  8
0
 62
1
100
AcDbSpline
 70
8
 71
3
 72
8
 73
4
 74
0
 40
0
 40
0
 40
0
 40
0
 40
1
 40
1
 40
1
 40
1
 10
116.050001
 20
139.397750
 30
0.0
 10
115.400259
 20
139.772879
 30
0.0
 10
114.599743
 20
139.772879
 30
0.0
 10
113.950001
 20
139.397750
 30
0.0
  0
SPLINE
  5
19d
100
AcDbEntity
  8
0
 62
1
100
AcDbSpline
 70
8
 71
3
 72
8
 73
4
 74
0
 40
0
 40
0
 40
0
 40
0
 40
1
 40
1
 40
1
 40
1
 10
113.950001
 20
139.397750
 30
0.0
 10
113.300259
 20
139.022621
 30
0.0
 10
112.900001
 20
138.329355
 30
0.0
 10
112.900001
 20
137.579097
 30
0.0
  0
LWPOLYLINE
  5
19e
100
AcDbEntity
  8
0
 62
1
100
AcDbPolyline
 90
1
 70
1
 10
147.851904
 20
7.758588
 30
0.0
  0
SPLINE
  5
19f
100
AcDbEntity
  8
0
 62
1
100
AcDbSpline
 70
8
 71
3
 72
8
 73
4
 74
0
 40
0
 40
0
 40
0
 40
0
 40
1
 40
1
 40
1
 40
1
 10
37.948094
 20
7.758588
 30
0.0
 10
37.948094
 20
7.008330
 30
0.0
 10
38.348352
 20
6.315064
 30
0.0
 10
38.998094
 20
5.939935
 30
0.0
  0
SPLINE
  5
1a0
100
AcDbEntity
  8
0
 62
1
100
AcDbSpline
 70
8
 71
3
 72
8
 73
4
 74
0
 40
0
 40
0
 40
0
 40
0
 40
1
 40
1
 40
1
 40
1
 10
38.998094
 20
5.939935
 30
0.0
 10
39.647836
 20
5.564806
 30
0.0
 10
40.448352
 20
5.564806
 30
0.0
 10
41.098094
 20
5.939935
 30
0.0
  0
SPLINE
  5
1a1
100
AcDbEntity
  8
0
 62
1
100
AcDbSpline
 70
8
 71
3
 72
8
 73
4
 74
0
 40
0
 40
0
 40
0
 40
0
 40
1
 40
1
 40
1
 40
1
 10
41.098094
 20
5.939935
 30
0.0
 10
41.747836
 20
6.315064
 30
0.0
 10
42.148094
 20
7.008330
 30
0.0
 10
42.148094
 20
7.758588
 30
0.0
  0
SPLINE
  5
1a2
100
AcDbEntity
  8
0
 62
1
100
AcDbSpline
 70
8
 71
3
 72
8
 73
4
 74
0
 40
0
 40
0
 40
0
 40
0
 40
1
 40
1
 40
1
 40
1
 10
42.148094
 20
7.758588
 30
0.0
 10
42.148094
 20
8.508846
 30
0.0
 10
41.747836
 20
9.202112
 30
0.0
 10
41.098094
 20
9.577241
 30
0.0
  0
SPLINE
  5
1a3
100
AcDbEntity
  8
0
 62
1
100
AcDbSpline
 70
8
 71
3
 72
8
 73
4
 74
0
 40
0
 40
0
 40
0
 40
0
 40
1
 40
1
 40
1
 40
1
 10
41.098094
 20
9.577241
 30
0.0
 10
40.448352
 20
9.952370
 30
0.0
 10
39.647836
 20
9.952370
 30
0.0
 10
38.998094
 20
9.577241
 30
0.0
  0
SPLINE
  5
1a4
100
AcDbEntity
  8
0
 62
1
100
AcDbSpline
 70
8
 71
3
 72
8
 73
4
 74
0
 40
0
 40
0
 40
0
 40
0
 40
1
 40
1
 40
1
 40
1
 10
38.998094
 20
9.577241
 30
0.0
 10
38.348352
 20
9.202112
 30
0.0
 10
37.948094
 20
8.508846
 30
0.0
 10
37.948094
 20
7.758588
 30
0.0
  0
LWPOLYLINE
  5
1a5
100
AcDbEntity
  8
0
 62
1
100
AcDbPolyline
 90
1
 70
1
 10
112.900001
 20
137.579097
 30
0.0
  0
SPLINE
  5
1a6
100
AcDbEntity
  8
0
 62
1
100
AcDbSpline
 70
8
 71
3
 72
8
 73
4
 74
0
 40
0
 40
0
 40
0
 40
0
 40
1
 40
1
 40
1
 40
1
 10
118.571068
 20
30.508029
 30
0.0
 10
118.571068
 20
30.508029
 30
0.0
 10
107.928932
 20
41.150164
 30
0.0
 10
107.928932
 20
41.150164
 30
0.0
  0
SPLINE
  5
1a7
100
AcDbEntity
  8
0
 62
1
100
AcDbSpline
 70
8
 71
3
 72
8
 73
4
 74
0
 40
0
 40
0
 40
0
 40
0
 40
1
 40
1
 40
1
 40
1
 10
107.928932
 20
41.150164
 30
0.0
 10
106.053569
 20
43.025528
 30
0.0
 10
103.510030
 20
44.079097
 30
0.0
 10
100.857865
 20
44.079097
 30
0.0
  0
LWPOLYLINE
  5
1a8
100
AcDbEntity
  8
0
 62
1
100
AcDbPolyline
 90
1
 70
1
 10
37.948094
 20
7.758588
 30
0.0
  0
SPLINE
  5
1a9
100
AcDbEntity
  8
0
 62
1
100
AcDbSpline
 70
8
 71
3
 72
8
 73
4
 74
0
 40
0
 40
0
 40
0
 40
0
 40
1
 40
1
 40
1
 40
1
 10
89.142136
 20
44.079097
 30
0.0
 10
86.489971
 20
44.079097
 30
0.0
 10
83.946432
 20
43.025528
 30
0.0
 10
82.071068
 20
41.150164
 30
0.0
  0
LWPOLYLINE
  5
1aa
100
AcDbEntity
  8
0
 62
1
100
AcDbPolyline
 90
2
 70
0
 10
100.857865
 20
44.079097
 30
0.0
 10
89.142136
 20
44.079097
 30
0.0
  0
SPLINE
  5
1ab
100
AcDbEntity
  8
0
 62
1
100
AcDbSpline
 70
8
 71
3
 72
8
 73
4
 74
0
 40
0
 40
0
 40
0
 40
0
 40
1
 40
1
 40
1
 40
1
 10
71.428932
 20
30.508029
 30
0.0
 10
69.553568
 20
28.632665
 30
0.0
 10
67.010030
 20
27.579097
 30
0.0
 10
64.357865
 20
27.579097
 30
0.0
  0
LWPOLYLINE
  5
1ac
100
AcDbEntity
  8
0
 62
1
100
AcDbPolyline
 90
2
 70
0
 10
82.071068
 20
41.150164
 30
0.0
 10
71.428932
 20
30.508029
 30
0.0
  0
SPLINE
  5
1ad
100
AcDbEntity
  8
0
 62
1
100
AcDbSpline
 70
8
 71
3
 72
8
 73
4
 74
0
 40
0
 40
0
 40
0
 40
0
 40
1
 40
1
 40
1
 40
1
 10
40.432904
 20
32.270270
 30
0.0
 10
40.432904
 20
32.270270
 30
0.0
 10
40.299424
 20
32.467260
 30
0.0
 10
40.299424
 20
32.467260
 30
0.0
  0
SPLINE
  5
1ae
100
AcDbEntity
  8
0
 62
1
100
AcDbSpline
 70
8
 71
3
 72
8
 73
4
 74
0
 40
0
 40
0
 40
0
 40
0
 40
1
 40
1
 40
1
 40
1
 10
40.299424
 20
32.467260
 30
0.0
 10
22.842824
 20
59.662745
 30
0.0
 10
28.016269
 20
95.552533
 30
0.0
 10
52.442946
 20
116.710623
 30
0.0
  0
SPLINE
  5
1af
100
AcDbEntity
  8
0
 62
1
100
AcDbSpline
 70
8
 71
3
 72
8
 73
4
 74
0
 40
0
 40
0
 40
0
 40
0
 40
1
 40
1
 40
1
 40
1
 10
52.442946
 20
116.710623
 30
0.0
 10
76.869623
 20
137.868713
 30
0.0
 10
113.130365
 20
137.868713
 30
0.0
 10
137.557042
 20
116.710623
 30
0.0
  0
SPLINE
  5
1b0
100
AcDbEntity
  8
0
 62
1
100
AcDbSpline
 70
8
 71
3
 72
8
 73
4
 74
0
 40
0
 40
0
 40
0
 40
0
 40
1
 40
1
 40
1
 40
1
 10
137.557042
 20
116.710623
 30
0.0
 10
161.983719
 20
95.552533
 30
0.0
 10
167.157164
 20
59.662745
 30
0.0
 10
149.700564
 20
32.467260
 30
0.0
  0
LWPOLYLINE
  5
1b1
100
AcDbEntity
  8
0
 62
1
100
AcDbPolyline
 90
42
 70
0
 10
64.357865
 20
27.579097
 30
0.0
 10
54.061556
 20
27.579097
 30
0.0
 10
54.061556
 20
27.579097
 30
0.0
 10
53.707716
 20
27.582510
 30
0.0
 10
53.336896
 20
27.592710
 30
0.0
 10
52.949476
 20
27.609810
 30
0.0
 10
52.546046
 20
27.633810
 30
0.0
 10
52.127376
 20
27.664710
 30
0.0
 10
51.694421
 20
27.702610
 30
0.0
 10
51.248266
 20
27.747610
 30
0.0
 10
50.790122
 20
27.799810
 30
0.0
 10
50.321306
 20
27.859510
 30
0.0
 10
49.843223
 20
27.926910
 30
0.0
 10
49.357362
 20
28.002310
 30
0.0
 10
48.865280
 20
28.086110
 30
0.0
 10
48.368591
 20
28.178610
 30
0.0
 10
47.868955
 20
28.280330
 30
0.0
 10
47.368070
 20
28.391770
 30
0.0
 10
46.867659
 20
28.513500
 30
0.0
 10
46.369466
 20
28.646140
 30
0.0
 10
45.875247
 20
28.790360
 30
0.0
 10
45.386761
 20
28.946870
 30
0.0
 10
44.905766
 20
29.116430
 30
0.0
 10
44.434007
 20
29.299850
 30
0.0
 10
43.973203
 20
29.497950
 30
0.0
 10
43.525040
 20
29.711590
 30
0.0
 10
43.091148
 20
29.941620
 30
0.0
 10
42.880045
 20
30.063050
 30
0.0
 10
42.673091
 20
30.188900
 30
0.0
 10
42.470467
 20
30.319270
 30
0.0
 10
42.272351
 20
30.454260
 30
0.0
 10
42.078913
 20
30.593980
 30
0.0
 10
41.890316
 20
30.738520
 30
0.0
 10
41.706714
 20
30.887980
 30
0.0
 10
41.528254
 20
31.042450
 30
0.0
 10
41.355071
 20
31.202010
 30
0.0
 10
41.187290
 20
31.366750
 30
0.0
 10
41.025025
 20
31.536730
 30
0.0
 10
40.868375
 20
31.712020
 30
0.0
 10
40.717426
 20
31.892680
 30
0.0
 10
40.572251
 20
32.078750
 30
0.0
 10
40.432904
 20
32.270270
 30
0.0
  0
SPLINE
  5
1b2
100
AcDbEntity
  8
0
 62
1
100
AcDbSpline
 70
8
 71
3
 72
8
 73
4
 74
0
 40
0
 40
0
 40
0
 40
0
 40
1
 40
1
 40
1
 40
1
 10
125.642136
 20
27.579097
 30
0.0
 10
122.989971
 20
27.579097
 30
0.0
 10
120.446432
 20
28.632665
 30
0.0
 10
118.571068
 20
30.508029
 30
0.0
  0
LWPOLYLINE
  5
1b3
100
AcDbEntity
  8
0
 62
1
100
AcDbPolyline
 90
43
 70
0
 10
149.700564
 20
32.467260
 30
0.0
 10
149.700564
 20
32.467260
 30
0.0
 10
149.567064
 20
32.270270
 30
0.0
 10
149.427664
 20
32.078750
 30
0.0
 10
149.282464
 20
31.892680
 30
0.0
 10
149.131464
 20
31.712020
 30
0.0
 10
148.974764
 20
31.536730
 30
0.0
 10
148.812464
 20
31.366750
 30
0.0
 10
148.644664
 20
31.202010
 30
0.0
 10
148.471464
 20
31.042450
 30
0.0
 10
148.292964
 20
30.887980
 30
0.0
 10
148.109364
 20
30.738520
 30
0.0
 10
147.920764
 20
30.593980
 30
0.0
 10
147.727364
 20
30.454260
 30
0.0
 10
147.529264
 20
30.319270
 30
0.0
 10
147.326664
 20
30.188900
 30
0.0
 10
147.119764
 20
30.063050
 30
0.0
 10
146.908664
 20
29.941620
 30
0.0
 10
146.474764
 20
29.711590
 30
0.0
 10
146.026564
 20
29.497950
 30
0.0
 10
145.565764
 20
29.299850
 30
0.0
 10
145.093964
 20
29.116430
 30
0.0
 10
144.612964
 20
28.946870
 30
0.0
 10
144.124464
 20
28.790360
 30
0.0
 10
143.630264
 20
28.646140
 30
0.0
 10
143.132064
 20
28.513500
 30
0.0
 10
142.631664
 20
28.391770
 30
0.0
 10
142.130764
 20
28.280330
 30
0.0
 10
141.631114
 20
28.178610
 30
0.0
 10
141.134424
 20
28.086110
 30
0.0
 10
140.642344
 20
28.002310
 30
0.0
 10
140.156484
 20
27.926910
 30
0.0
 10
139.678404
 20
27.859510
 30
0.0
 10
139.209584
 20
27.799810
 30
0.0
 10
138.751444
 20
27.747610
 30
0.0
 10
138.305294
 20
27.702610
 30
0.0
 10
137.872334
 20
27.664710
 30
0.0
 10
137.453664
 20
27.633810
 30
0.0
 10
137.050234
 20
27.609810
 30
0.0
 10
136.662814
 20
27.592710
 30
0.0
 10
136.291994
 20
27.582510
 30
0.0
 10
135.938445
 20
27.579097
 30
0.0
 10
125.642136
 20
27.579097
 30
0.0
  0
SPLINE
  5
1b4
100
AcDbEntity
  8
0
 62
1
100
AcDbSpline
 70
8
 71
3
 72
8
 73
4
 74
0
 40
0
 40
0
 40
0
 40
0
 40
1
 40
1
 40
1
 40
1
 10
92.900000
 20
37.579097
 30
0.0
 10
92.900000
 20
36.828839
 30
0.0
 10
93.300258
 20
36.135573
 30
0.0
 10
93.950000
 20
35.760444
 30
0.0
  0
SPLINE
  5
1b5
100
AcDbEntity
  8
0
 62
1
100
AcDbSpline
 70
8
 71
3
 72
8
 73
4
 74
0
 40
0
 40
0
 40
0
 40
0
 40
1
 40
1
 40
1
 40
1
 10
93.950000
 20
35.760444
 30
0.0
 10
94.599742
 20
35.385315
 30
0.0
 10
95.400258
 20
35.385315
 30
0.0
 10
96.050000
 20
35.760444
 30
0.0
  0
SPLINE
  5
1b6
100
AcDbEntity
  8
0
 62
1
100
AcDbSpline
 70
8
 71
3
 72
8
 73
4
 74
0
 40
0
 40
0
 40
0
 40
0
 40
1
 40
1
 40
1
 40
1
 10
96.050000
 20
35.760444
 30
0.0
 10
96.699742
 20
36.135573
 30
0.0
 10
97.100000
 20
36.828839
 30
0.0
 10
97.100000
 20
37.579097
 30
0.0
  0
SPLINE
  5
1b7
100
AcDbEntity
  8
0
 62
1
100
AcDbSpline
 70
8
 71
3
 72
8
 73
4
 74
0
 40
0
 40
0
 40
0
 40
0
 40
1
 40
1
 40
1
 40
1
 10
97.100000
 20
37.579097
 30
0.0
 10
97.100000
 20
38.329355
 30
0.0
 10
96.699742
 20
39.022621
 30
0.0
 10
96.050000
 20
39.397750
 30
0.0
  0
SPLINE
  5
1b8
100
AcDbEntity
  8
0
 62
1
100
AcDbSpline
 70
8
 71
3
 72
8
 73
4
 74
0
 40
0
 40
0
 40
0
 40
0
 40
1
 40
1
 40
1
 40
1
 10
96.050000
 20
39.397750
 30
0.0
 10
95.400258
 20
39.772879
 30
0.0
 10
94.599742
 20
39.772879
 30
0.0
 10
93.950000
 20
39.397750
 30
0.0
  0
SPLINE
  5
1b9
100
AcDbEntity
  8
0
 62
1
100
AcDbSpline
 70
8
 71
3
 72
8
 73
4
 74
0
 40
0
 40
0
 40
0
 40
0
 40
1
 40
1
 40
1
 40
1
 10
93.950000
 20
39.397750
 30
0.0
 10
93.300258
 20
39.022621
 30
0.0
 10
92.900000
 20
38.329355
 30
0.0
 10
92.900000
 20
37.579097
 30
0.0
  0
LWPOLYLINE
  5
1ba
100
AcDbEntity
  8
0
 62
1
100
AcDbPolyline
 90
1
 70
1
 10
118.571068
 20
30.508029
 30
0.0
  0
LWPOLYLINE
  5
1bb
100
AcDbEntity
  8
0
 62
1
100
AcDbPolyline
 90
1
 70
1
 10
92.900000
 20
37.579097
 30
0.0
  0
LWPOLYLINE
  5
1bc
100
AcDbEntity
  8
0
 62
7
100
AcDbPolyline
 90
3
 70
0
 10
94.999989
 20
157.522572
 30
0.0
 10
94.999989
 20
65.000006
 30
0.0
 10
0.000000
 20
64.999996
 30
0.0
  0
ENDSEC
  0
SECTION
  2
OBJECTS
  0
DICTIONARY
  5
C
330
0
100
AcDbDictionary
  3
ACAD_GROUP
350
D
  3
ACAD_MLINESTYLE
350
17
  0
DICTIONARY
  5
D
330
C
100
AcDbDictionary
  0
DICTIONARY
  5
1A
330
C
100
AcDbDictionary
  0
DICTIONARY
  5
17
330
C
100
AcDbDictionary
  3
STANDARD
350
18
  0
DICTIONARY
  5
19
330
C
100
AcDbDictionary
  0
ENDSEC
  0
EOF
