G04 #@! TF.GenerationSoftware,KiCad,Pcbnew,(5.1.12)-1*
G04 #@! TF.CreationDate,2022-02-11T11:39:20+01:00*
G04 #@! TF.ProjectId,Main_Board,4d61696e-5f42-46f6-9172-642e6b696361,rev?*
G04 #@! TF.SameCoordinates,Original*
G04 #@! TF.FileFunction,Soldermask,Bot*
G04 #@! TF.FilePolarity,Negative*
%FSLAX46Y46*%
G04 Gerber Fmt 4.6, Leading zero omitted, Abs format (unit mm)*
G04 Created by KiCad (PCBNEW (5.1.12)-1) date 2022-02-11 11:39:20*
%MOMM*%
%LPD*%
G01*
G04 APERTURE LIST*
%ADD10C,0.602000*%
%ADD11C,1.626000*%
%ADD12C,1.410000*%
%ADD13C,4.402000*%
%ADD14O,1.302000X1.752000*%
%ADD15C,3.762000*%
%ADD16O,1.802000X1.802000*%
%ADD17O,1.802000X2.052000*%
%ADD18O,2.102000X1.802000*%
%ADD19C,1.602000*%
%ADD20O,1.302000X2.502000*%
%ADD21C,3.818000*%
%ADD22C,0.100000*%
G04 APERTURE END LIST*
D10*
X148592000Y-71643000D03*
X149354000Y-71643000D03*
X150116000Y-71643000D03*
X150878000Y-71643000D03*
X148592000Y-72913000D03*
X148592000Y-73675000D03*
X148592000Y-74437000D03*
X149862000Y-72913000D03*
X150624000Y-72913000D03*
X150624000Y-73675000D03*
X149862000Y-73675000D03*
X149862000Y-74437000D03*
X150624000Y-74437000D03*
X151386000Y-74437000D03*
G36*
G01*
X196274500Y-119753000D02*
X197425500Y-119753000D01*
G75*
G02*
X198001000Y-120328500I0J-575500D01*
G01*
X198001000Y-121479500D01*
G75*
G02*
X197425500Y-122055000I-575500J0D01*
G01*
X196274500Y-122055000D01*
G75*
G02*
X195699000Y-121479500I0J575500D01*
G01*
X195699000Y-120328500D01*
G75*
G02*
X196274500Y-119753000I575500J0D01*
G01*
G37*
G36*
G01*
X193734500Y-119753000D02*
X194885500Y-119753000D01*
G75*
G02*
X195461000Y-120328500I0J-575500D01*
G01*
X195461000Y-121479500D01*
G75*
G02*
X194885500Y-122055000I-575500J0D01*
G01*
X193734500Y-122055000D01*
G75*
G02*
X193159000Y-121479500I0J575500D01*
G01*
X193159000Y-120328500D01*
G75*
G02*
X193734500Y-119753000I575500J0D01*
G01*
G37*
G36*
G01*
X191194500Y-119753000D02*
X192345500Y-119753000D01*
G75*
G02*
X192921000Y-120328500I0J-575500D01*
G01*
X192921000Y-121479500D01*
G75*
G02*
X192345500Y-122055000I-575500J0D01*
G01*
X191194500Y-122055000D01*
G75*
G02*
X190619000Y-121479500I0J575500D01*
G01*
X190619000Y-120328500D01*
G75*
G02*
X191194500Y-119753000I575500J0D01*
G01*
G37*
G36*
G01*
X188654500Y-119753000D02*
X189805500Y-119753000D01*
G75*
G02*
X190381000Y-120328500I0J-575500D01*
G01*
X190381000Y-121479500D01*
G75*
G02*
X189805500Y-122055000I-575500J0D01*
G01*
X188654500Y-122055000D01*
G75*
G02*
X188079000Y-121479500I0J575500D01*
G01*
X188079000Y-120328500D01*
G75*
G02*
X188654500Y-119753000I575500J0D01*
G01*
G37*
G36*
G01*
X186114500Y-119753000D02*
X187265500Y-119753000D01*
G75*
G02*
X187841000Y-120328500I0J-575500D01*
G01*
X187841000Y-121479500D01*
G75*
G02*
X187265500Y-122055000I-575500J0D01*
G01*
X186114500Y-122055000D01*
G75*
G02*
X185539000Y-121479500I0J575500D01*
G01*
X185539000Y-120328500D01*
G75*
G02*
X186114500Y-119753000I575500J0D01*
G01*
G37*
G36*
G01*
X183574500Y-119753000D02*
X184725500Y-119753000D01*
G75*
G02*
X185301000Y-120328500I0J-575500D01*
G01*
X185301000Y-121479500D01*
G75*
G02*
X184725500Y-122055000I-575500J0D01*
G01*
X183574500Y-122055000D01*
G75*
G02*
X182999000Y-121479500I0J575500D01*
G01*
X182999000Y-120328500D01*
G75*
G02*
X183574500Y-119753000I575500J0D01*
G01*
G37*
G36*
G01*
X180510000Y-119753000D02*
X182710000Y-119753000D01*
G75*
G02*
X182761000Y-119804000I0J-51000D01*
G01*
X182761000Y-122004000D01*
G75*
G02*
X182710000Y-122055000I-51000J0D01*
G01*
X180510000Y-122055000D01*
G75*
G02*
X180459000Y-122004000I0J51000D01*
G01*
X180459000Y-119804000D01*
G75*
G02*
X180510000Y-119753000I51000J0D01*
G01*
G37*
G36*
G01*
X177970000Y-119753000D02*
X180170000Y-119753000D01*
G75*
G02*
X180221000Y-119804000I0J-51000D01*
G01*
X180221000Y-122004000D01*
G75*
G02*
X180170000Y-122055000I-51000J0D01*
G01*
X177970000Y-122055000D01*
G75*
G02*
X177919000Y-122004000I0J51000D01*
G01*
X177919000Y-119804000D01*
G75*
G02*
X177970000Y-119753000I51000J0D01*
G01*
G37*
D11*
X196850000Y-148844000D03*
X194310000Y-148844000D03*
X191770000Y-148844000D03*
X189230000Y-148844000D03*
X186690000Y-148844000D03*
X184150000Y-148844000D03*
X181610000Y-148844000D03*
G36*
G01*
X180070000Y-149895000D02*
X178070000Y-149895000D01*
G75*
G02*
X178019000Y-149844000I0J51000D01*
G01*
X178019000Y-147844000D01*
G75*
G02*
X178070000Y-147793000I51000J0D01*
G01*
X180070000Y-147793000D01*
G75*
G02*
X180121000Y-147844000I0J-51000D01*
G01*
X180121000Y-149844000D01*
G75*
G02*
X180070000Y-149895000I-51000J0D01*
G01*
G37*
G36*
G01*
X189750000Y-119753000D02*
X191250000Y-119753000D01*
G75*
G02*
X191301000Y-119804000I0J-51000D01*
G01*
X191301000Y-122004000D01*
G75*
G02*
X191250000Y-122055000I-51000J0D01*
G01*
X189750000Y-122055000D01*
G75*
G02*
X189699000Y-122004000I0J51000D01*
G01*
X189699000Y-119804000D01*
G75*
G02*
X189750000Y-119753000I51000J0D01*
G01*
G37*
G36*
G01*
X179590000Y-119753000D02*
X181090000Y-119753000D01*
G75*
G02*
X181141000Y-119804000I0J-51000D01*
G01*
X181141000Y-122004000D01*
G75*
G02*
X181090000Y-122055000I-51000J0D01*
G01*
X179590000Y-122055000D01*
G75*
G02*
X179539000Y-122004000I0J51000D01*
G01*
X179539000Y-119804000D01*
G75*
G02*
X179590000Y-119753000I51000J0D01*
G01*
G37*
G36*
G01*
X194830000Y-119753000D02*
X196330000Y-119753000D01*
G75*
G02*
X196381000Y-119804000I0J-51000D01*
G01*
X196381000Y-122004000D01*
G75*
G02*
X196330000Y-122055000I-51000J0D01*
G01*
X194830000Y-122055000D01*
G75*
G02*
X194779000Y-122004000I0J51000D01*
G01*
X194779000Y-119804000D01*
G75*
G02*
X194830000Y-119753000I51000J0D01*
G01*
G37*
G36*
G01*
X184670000Y-119753000D02*
X186170000Y-119753000D01*
G75*
G02*
X186221000Y-119804000I0J-51000D01*
G01*
X186221000Y-122004000D01*
G75*
G02*
X186170000Y-122055000I-51000J0D01*
G01*
X184670000Y-122055000D01*
G75*
G02*
X184619000Y-122004000I0J51000D01*
G01*
X184619000Y-119804000D01*
G75*
G02*
X184670000Y-119753000I51000J0D01*
G01*
G37*
D12*
X139700000Y-149860000D03*
X139700000Y-147320000D03*
X124460000Y-114300000D03*
X139700000Y-144780000D03*
X139700000Y-142240000D03*
X139700000Y-139700000D03*
X139700000Y-137160000D03*
X139700000Y-134620000D03*
X139700000Y-132080000D03*
X139700000Y-129540000D03*
X139700000Y-127000000D03*
X139700000Y-124460000D03*
X139700000Y-121920000D03*
X139700000Y-119380000D03*
X139700000Y-116840000D03*
X139700000Y-114300000D03*
X124460000Y-116840000D03*
X124460000Y-119380000D03*
X124460000Y-121920000D03*
X124460000Y-124460000D03*
X124460000Y-127000000D03*
X124460000Y-129540000D03*
X124460000Y-132080000D03*
X124460000Y-134620000D03*
X124460000Y-137160000D03*
X124460000Y-139700000D03*
X124460000Y-142240000D03*
X124460000Y-144780000D03*
X124460000Y-147320000D03*
X124460000Y-149860000D03*
X139700000Y-111760000D03*
X139700000Y-109220000D03*
X139700000Y-106680000D03*
X139700000Y-104140000D03*
X139700000Y-101600000D03*
X139700000Y-99060000D03*
X139700000Y-96520000D03*
X139700000Y-93980000D03*
X139700000Y-91440000D03*
X124460000Y-91440000D03*
X124460000Y-93980000D03*
X124460000Y-96520000D03*
X124460000Y-99060000D03*
X124460000Y-101600000D03*
X124460000Y-104140000D03*
X124460000Y-106680000D03*
X124460000Y-109220000D03*
X124460000Y-111760000D03*
D13*
X204240406Y-154725008D03*
X149288500Y-124904500D03*
X94336595Y-154725008D03*
X129288500Y-24904500D03*
X169288500Y-24904499D03*
G36*
G01*
X158735000Y-88202752D02*
X158735000Y-86993248D01*
G75*
G02*
X159006248Y-86722000I271248J0D01*
G01*
X159765752Y-86722000D01*
G75*
G02*
X160037000Y-86993248I0J-271248D01*
G01*
X160037000Y-88202752D01*
G75*
G02*
X159765752Y-88474000I-271248J0D01*
G01*
X159006248Y-88474000D01*
G75*
G02*
X158735000Y-88202752I0J271248D01*
G01*
G37*
D14*
X161386000Y-87598000D03*
X163386000Y-87598000D03*
X165386000Y-87598000D03*
X167386000Y-87598000D03*
X169386000Y-87598000D03*
X171386000Y-87598000D03*
X173386000Y-87598000D03*
X159386000Y-85598000D03*
X161386000Y-85598000D03*
X163386000Y-85598000D03*
X165386000Y-85598000D03*
X167386000Y-85598000D03*
X169386000Y-85598000D03*
X171386000Y-85598000D03*
X173386000Y-85598000D03*
D12*
X158750000Y-111760000D03*
X158750000Y-109220000D03*
X158750000Y-106680000D03*
X158750000Y-104140000D03*
X158750000Y-101600000D03*
X158750000Y-99060000D03*
X158750000Y-96520000D03*
X158750000Y-93980000D03*
X158750000Y-91440000D03*
X173990000Y-91440000D03*
X173990000Y-93980000D03*
X173990000Y-96520000D03*
X173990000Y-99060000D03*
X173990000Y-101600000D03*
X173990000Y-104140000D03*
X173990000Y-106680000D03*
X173990000Y-109220000D03*
X173990000Y-111760000D03*
X158750000Y-149860000D03*
X158750000Y-147320000D03*
X158750000Y-144780000D03*
X158750000Y-142240000D03*
X158750000Y-139700000D03*
X158750000Y-137160000D03*
X158750000Y-134620000D03*
X158750000Y-132080000D03*
X158750000Y-129540000D03*
X158750000Y-127000000D03*
X158750000Y-124460000D03*
X158750000Y-121920000D03*
X158750000Y-119380000D03*
X158750000Y-116840000D03*
X173990000Y-114300000D03*
X173990000Y-116840000D03*
X173990000Y-119380000D03*
X173990000Y-121920000D03*
X173990000Y-124460000D03*
X173990000Y-127000000D03*
X173990000Y-129540000D03*
X173990000Y-132080000D03*
X173990000Y-134620000D03*
X173990000Y-137160000D03*
X173990000Y-139700000D03*
X173990000Y-142240000D03*
X173990000Y-144780000D03*
X158750000Y-114300000D03*
X173990000Y-147320000D03*
X173990000Y-149860000D03*
D15*
X160020000Y-64262000D03*
X124460000Y-38862000D03*
X124460000Y-64262000D03*
D16*
X124460000Y-60452000D03*
X124460000Y-57912000D03*
X124460000Y-55372000D03*
X124460000Y-52832000D03*
X124460000Y-50292000D03*
X124460000Y-47752000D03*
X124460000Y-45212000D03*
G36*
G01*
X123559000Y-43522000D02*
X123559000Y-41822000D01*
G75*
G02*
X123610000Y-41771000I51000J0D01*
G01*
X125310000Y-41771000D01*
G75*
G02*
X125361000Y-41822000I0J-51000D01*
G01*
X125361000Y-43522000D01*
G75*
G02*
X125310000Y-43573000I-51000J0D01*
G01*
X123610000Y-43573000D01*
G75*
G02*
X123559000Y-43522000I0J51000D01*
G01*
G37*
D15*
X160020000Y-38862000D03*
G36*
G01*
X101235000Y-79849000D02*
X103235000Y-79849000D01*
G75*
G02*
X103286000Y-79900000I0J-51000D01*
G01*
X103286000Y-81900000D01*
G75*
G02*
X103235000Y-81951000I-51000J0D01*
G01*
X101235000Y-81951000D01*
G75*
G02*
X101184000Y-81900000I0J51000D01*
G01*
X101184000Y-79900000D01*
G75*
G02*
X101235000Y-79849000I51000J0D01*
G01*
G37*
G36*
G01*
X101235000Y-76849000D02*
X103235000Y-76849000D01*
G75*
G02*
X103286000Y-76900000I0J-51000D01*
G01*
X103286000Y-78900000D01*
G75*
G02*
X103235000Y-78951000I-51000J0D01*
G01*
X101235000Y-78951000D01*
G75*
G02*
X101184000Y-78900000I0J51000D01*
G01*
X101184000Y-76900000D01*
G75*
G02*
X101235000Y-76849000I51000J0D01*
G01*
G37*
G36*
G01*
X101709500Y-73849000D02*
X102760500Y-73849000D01*
G75*
G02*
X103286000Y-74374500I0J-525500D01*
G01*
X103286000Y-75425500D01*
G75*
G02*
X102760500Y-75951000I-525500J0D01*
G01*
X101709500Y-75951000D01*
G75*
G02*
X101184000Y-75425500I0J525500D01*
G01*
X101184000Y-74374500D01*
G75*
G02*
X101709500Y-73849000I525500J0D01*
G01*
G37*
G36*
G01*
X101709500Y-70849000D02*
X102760500Y-70849000D01*
G75*
G02*
X103286000Y-71374500I0J-525500D01*
G01*
X103286000Y-72425500D01*
G75*
G02*
X102760500Y-72951000I-525500J0D01*
G01*
X101709500Y-72951000D01*
G75*
G02*
X101184000Y-72425500I0J525500D01*
G01*
X101184000Y-71374500D01*
G75*
G02*
X101709500Y-70849000I525500J0D01*
G01*
G37*
G36*
G01*
X101235000Y-71979000D02*
X103235000Y-71979000D01*
G75*
G02*
X103286000Y-72030000I0J-51000D01*
G01*
X103286000Y-74530000D01*
G75*
G02*
X103235000Y-74581000I-51000J0D01*
G01*
X101235000Y-74581000D01*
G75*
G02*
X101184000Y-74530000I0J51000D01*
G01*
X101184000Y-72030000D01*
G75*
G02*
X101235000Y-71979000I51000J0D01*
G01*
G37*
G36*
G01*
X101235000Y-78325000D02*
X103235000Y-78325000D01*
G75*
G02*
X103286000Y-78376000I0J-51000D01*
G01*
X103286000Y-80376000D01*
G75*
G02*
X103235000Y-80427000I-51000J0D01*
G01*
X101235000Y-80427000D01*
G75*
G02*
X101184000Y-80376000I0J51000D01*
G01*
X101184000Y-78376000D01*
G75*
G02*
X101235000Y-78325000I51000J0D01*
G01*
G37*
G36*
G01*
X205851000Y-74533200D02*
X203851000Y-74533200D01*
G75*
G02*
X203800000Y-74482200I0J51000D01*
G01*
X203800000Y-72482200D01*
G75*
G02*
X203851000Y-72431200I51000J0D01*
G01*
X205851000Y-72431200D01*
G75*
G02*
X205902000Y-72482200I0J-51000D01*
G01*
X205902000Y-74482200D01*
G75*
G02*
X205851000Y-74533200I-51000J0D01*
G01*
G37*
G36*
G01*
X205851000Y-80879200D02*
X203851000Y-80879200D01*
G75*
G02*
X203800000Y-80828200I0J51000D01*
G01*
X203800000Y-78328200D01*
G75*
G02*
X203851000Y-78277200I51000J0D01*
G01*
X205851000Y-78277200D01*
G75*
G02*
X205902000Y-78328200I0J-51000D01*
G01*
X205902000Y-80828200D01*
G75*
G02*
X205851000Y-80879200I-51000J0D01*
G01*
G37*
G36*
G01*
X205376500Y-82009200D02*
X204325500Y-82009200D01*
G75*
G02*
X203800000Y-81483700I0J525500D01*
G01*
X203800000Y-80432700D01*
G75*
G02*
X204325500Y-79907200I525500J0D01*
G01*
X205376500Y-79907200D01*
G75*
G02*
X205902000Y-80432700I0J-525500D01*
G01*
X205902000Y-81483700D01*
G75*
G02*
X205376500Y-82009200I-525500J0D01*
G01*
G37*
G36*
G01*
X205376500Y-79009200D02*
X204325500Y-79009200D01*
G75*
G02*
X203800000Y-78483700I0J525500D01*
G01*
X203800000Y-77432700D01*
G75*
G02*
X204325500Y-76907200I525500J0D01*
G01*
X205376500Y-76907200D01*
G75*
G02*
X205902000Y-77432700I0J-525500D01*
G01*
X205902000Y-78483700D01*
G75*
G02*
X205376500Y-79009200I-525500J0D01*
G01*
G37*
G36*
G01*
X205851000Y-76009200D02*
X203851000Y-76009200D01*
G75*
G02*
X203800000Y-75958200I0J51000D01*
G01*
X203800000Y-73958200D01*
G75*
G02*
X203851000Y-73907200I51000J0D01*
G01*
X205851000Y-73907200D01*
G75*
G02*
X205902000Y-73958200I0J-51000D01*
G01*
X205902000Y-75958200D01*
G75*
G02*
X205851000Y-76009200I-51000J0D01*
G01*
G37*
G36*
G01*
X205851000Y-73009200D02*
X203851000Y-73009200D01*
G75*
G02*
X203800000Y-72958200I0J51000D01*
G01*
X203800000Y-70958200D01*
G75*
G02*
X203851000Y-70907200I51000J0D01*
G01*
X205851000Y-70907200D01*
G75*
G02*
X205902000Y-70958200I0J-51000D01*
G01*
X205902000Y-72958200D01*
G75*
G02*
X205851000Y-73009200I-51000J0D01*
G01*
G37*
G36*
G01*
X138573000Y-84993248D02*
X138573000Y-86202752D01*
G75*
G02*
X138301752Y-86474000I-271248J0D01*
G01*
X137542248Y-86474000D01*
G75*
G02*
X137271000Y-86202752I0J271248D01*
G01*
X137271000Y-84993248D01*
G75*
G02*
X137542248Y-84722000I271248J0D01*
G01*
X138301752Y-84722000D01*
G75*
G02*
X138573000Y-84993248I0J-271248D01*
G01*
G37*
D14*
X135922000Y-85598000D03*
X133922000Y-85598000D03*
X131922000Y-85598000D03*
X129922000Y-85598000D03*
X127922000Y-85598000D03*
X125922000Y-85598000D03*
X137922000Y-87598000D03*
X135922000Y-87598000D03*
X133922000Y-87598000D03*
X131922000Y-87598000D03*
X129922000Y-87598000D03*
X127922000Y-87598000D03*
X125922000Y-87598000D03*
G36*
G01*
X180070000Y-115351000D02*
X178070000Y-115351000D01*
G75*
G02*
X178019000Y-115300000I0J51000D01*
G01*
X178019000Y-113300000D01*
G75*
G02*
X178070000Y-113249000I51000J0D01*
G01*
X180070000Y-113249000D01*
G75*
G02*
X180121000Y-113300000I0J-51000D01*
G01*
X180121000Y-115300000D01*
G75*
G02*
X180070000Y-115351000I-51000J0D01*
G01*
G37*
D11*
X181610000Y-114300000D03*
X184150000Y-114300000D03*
X186690000Y-114300000D03*
X189230000Y-114300000D03*
X191770000Y-114300000D03*
X194310000Y-114300000D03*
X196850000Y-114300000D03*
G36*
G01*
X177970000Y-85209000D02*
X180170000Y-85209000D01*
G75*
G02*
X180221000Y-85260000I0J-51000D01*
G01*
X180221000Y-87460000D01*
G75*
G02*
X180170000Y-87511000I-51000J0D01*
G01*
X177970000Y-87511000D01*
G75*
G02*
X177919000Y-87460000I0J51000D01*
G01*
X177919000Y-85260000D01*
G75*
G02*
X177970000Y-85209000I51000J0D01*
G01*
G37*
G36*
G01*
X180510000Y-85209000D02*
X182710000Y-85209000D01*
G75*
G02*
X182761000Y-85260000I0J-51000D01*
G01*
X182761000Y-87460000D01*
G75*
G02*
X182710000Y-87511000I-51000J0D01*
G01*
X180510000Y-87511000D01*
G75*
G02*
X180459000Y-87460000I0J51000D01*
G01*
X180459000Y-85260000D01*
G75*
G02*
X180510000Y-85209000I51000J0D01*
G01*
G37*
G36*
G01*
X183574500Y-85209000D02*
X184725500Y-85209000D01*
G75*
G02*
X185301000Y-85784500I0J-575500D01*
G01*
X185301000Y-86935500D01*
G75*
G02*
X184725500Y-87511000I-575500J0D01*
G01*
X183574500Y-87511000D01*
G75*
G02*
X182999000Y-86935500I0J575500D01*
G01*
X182999000Y-85784500D01*
G75*
G02*
X183574500Y-85209000I575500J0D01*
G01*
G37*
G36*
G01*
X186114500Y-85209000D02*
X187265500Y-85209000D01*
G75*
G02*
X187841000Y-85784500I0J-575500D01*
G01*
X187841000Y-86935500D01*
G75*
G02*
X187265500Y-87511000I-575500J0D01*
G01*
X186114500Y-87511000D01*
G75*
G02*
X185539000Y-86935500I0J575500D01*
G01*
X185539000Y-85784500D01*
G75*
G02*
X186114500Y-85209000I575500J0D01*
G01*
G37*
G36*
G01*
X188654500Y-85209000D02*
X189805500Y-85209000D01*
G75*
G02*
X190381000Y-85784500I0J-575500D01*
G01*
X190381000Y-86935500D01*
G75*
G02*
X189805500Y-87511000I-575500J0D01*
G01*
X188654500Y-87511000D01*
G75*
G02*
X188079000Y-86935500I0J575500D01*
G01*
X188079000Y-85784500D01*
G75*
G02*
X188654500Y-85209000I575500J0D01*
G01*
G37*
G36*
G01*
X191194500Y-85209000D02*
X192345500Y-85209000D01*
G75*
G02*
X192921000Y-85784500I0J-575500D01*
G01*
X192921000Y-86935500D01*
G75*
G02*
X192345500Y-87511000I-575500J0D01*
G01*
X191194500Y-87511000D01*
G75*
G02*
X190619000Y-86935500I0J575500D01*
G01*
X190619000Y-85784500D01*
G75*
G02*
X191194500Y-85209000I575500J0D01*
G01*
G37*
G36*
G01*
X193734500Y-85209000D02*
X194885500Y-85209000D01*
G75*
G02*
X195461000Y-85784500I0J-575500D01*
G01*
X195461000Y-86935500D01*
G75*
G02*
X194885500Y-87511000I-575500J0D01*
G01*
X193734500Y-87511000D01*
G75*
G02*
X193159000Y-86935500I0J575500D01*
G01*
X193159000Y-85784500D01*
G75*
G02*
X193734500Y-85209000I575500J0D01*
G01*
G37*
G36*
G01*
X196274500Y-85209000D02*
X197425500Y-85209000D01*
G75*
G02*
X198001000Y-85784500I0J-575500D01*
G01*
X198001000Y-86935500D01*
G75*
G02*
X197425500Y-87511000I-575500J0D01*
G01*
X196274500Y-87511000D01*
G75*
G02*
X195699000Y-86935500I0J575500D01*
G01*
X195699000Y-85784500D01*
G75*
G02*
X196274500Y-85209000I575500J0D01*
G01*
G37*
G36*
G01*
X189750000Y-85209000D02*
X191250000Y-85209000D01*
G75*
G02*
X191301000Y-85260000I0J-51000D01*
G01*
X191301000Y-87460000D01*
G75*
G02*
X191250000Y-87511000I-51000J0D01*
G01*
X189750000Y-87511000D01*
G75*
G02*
X189699000Y-87460000I0J51000D01*
G01*
X189699000Y-85260000D01*
G75*
G02*
X189750000Y-85209000I51000J0D01*
G01*
G37*
G36*
G01*
X179590000Y-85209000D02*
X181090000Y-85209000D01*
G75*
G02*
X181141000Y-85260000I0J-51000D01*
G01*
X181141000Y-87460000D01*
G75*
G02*
X181090000Y-87511000I-51000J0D01*
G01*
X179590000Y-87511000D01*
G75*
G02*
X179539000Y-87460000I0J51000D01*
G01*
X179539000Y-85260000D01*
G75*
G02*
X179590000Y-85209000I51000J0D01*
G01*
G37*
G36*
G01*
X194830000Y-85209000D02*
X196330000Y-85209000D01*
G75*
G02*
X196381000Y-85260000I0J-51000D01*
G01*
X196381000Y-87460000D01*
G75*
G02*
X196330000Y-87511000I-51000J0D01*
G01*
X194830000Y-87511000D01*
G75*
G02*
X194779000Y-87460000I0J51000D01*
G01*
X194779000Y-85260000D01*
G75*
G02*
X194830000Y-85209000I51000J0D01*
G01*
G37*
G36*
G01*
X184670000Y-85209000D02*
X186170000Y-85209000D01*
G75*
G02*
X186221000Y-85260000I0J-51000D01*
G01*
X186221000Y-87460000D01*
G75*
G02*
X186170000Y-87511000I-51000J0D01*
G01*
X184670000Y-87511000D01*
G75*
G02*
X184619000Y-87460000I0J51000D01*
G01*
X184619000Y-85260000D01*
G75*
G02*
X184670000Y-85209000I51000J0D01*
G01*
G37*
G36*
G01*
X102600000Y-149895000D02*
X100600000Y-149895000D01*
G75*
G02*
X100549000Y-149844000I0J51000D01*
G01*
X100549000Y-147844000D01*
G75*
G02*
X100600000Y-147793000I51000J0D01*
G01*
X102600000Y-147793000D01*
G75*
G02*
X102651000Y-147844000I0J-51000D01*
G01*
X102651000Y-149844000D01*
G75*
G02*
X102600000Y-149895000I-51000J0D01*
G01*
G37*
X104140000Y-148844000D03*
X106680000Y-148844000D03*
X109220000Y-148844000D03*
X111760000Y-148844000D03*
X114300000Y-148844000D03*
X116840000Y-148844000D03*
X119380000Y-148844000D03*
G36*
G01*
X100500000Y-119753000D02*
X102700000Y-119753000D01*
G75*
G02*
X102751000Y-119804000I0J-51000D01*
G01*
X102751000Y-122004000D01*
G75*
G02*
X102700000Y-122055000I-51000J0D01*
G01*
X100500000Y-122055000D01*
G75*
G02*
X100449000Y-122004000I0J51000D01*
G01*
X100449000Y-119804000D01*
G75*
G02*
X100500000Y-119753000I51000J0D01*
G01*
G37*
G36*
G01*
X103040000Y-119753000D02*
X105240000Y-119753000D01*
G75*
G02*
X105291000Y-119804000I0J-51000D01*
G01*
X105291000Y-122004000D01*
G75*
G02*
X105240000Y-122055000I-51000J0D01*
G01*
X103040000Y-122055000D01*
G75*
G02*
X102989000Y-122004000I0J51000D01*
G01*
X102989000Y-119804000D01*
G75*
G02*
X103040000Y-119753000I51000J0D01*
G01*
G37*
G36*
G01*
X106104500Y-119753000D02*
X107255500Y-119753000D01*
G75*
G02*
X107831000Y-120328500I0J-575500D01*
G01*
X107831000Y-121479500D01*
G75*
G02*
X107255500Y-122055000I-575500J0D01*
G01*
X106104500Y-122055000D01*
G75*
G02*
X105529000Y-121479500I0J575500D01*
G01*
X105529000Y-120328500D01*
G75*
G02*
X106104500Y-119753000I575500J0D01*
G01*
G37*
G36*
G01*
X108644500Y-119753000D02*
X109795500Y-119753000D01*
G75*
G02*
X110371000Y-120328500I0J-575500D01*
G01*
X110371000Y-121479500D01*
G75*
G02*
X109795500Y-122055000I-575500J0D01*
G01*
X108644500Y-122055000D01*
G75*
G02*
X108069000Y-121479500I0J575500D01*
G01*
X108069000Y-120328500D01*
G75*
G02*
X108644500Y-119753000I575500J0D01*
G01*
G37*
G36*
G01*
X111184500Y-119753000D02*
X112335500Y-119753000D01*
G75*
G02*
X112911000Y-120328500I0J-575500D01*
G01*
X112911000Y-121479500D01*
G75*
G02*
X112335500Y-122055000I-575500J0D01*
G01*
X111184500Y-122055000D01*
G75*
G02*
X110609000Y-121479500I0J575500D01*
G01*
X110609000Y-120328500D01*
G75*
G02*
X111184500Y-119753000I575500J0D01*
G01*
G37*
G36*
G01*
X113724500Y-119753000D02*
X114875500Y-119753000D01*
G75*
G02*
X115451000Y-120328500I0J-575500D01*
G01*
X115451000Y-121479500D01*
G75*
G02*
X114875500Y-122055000I-575500J0D01*
G01*
X113724500Y-122055000D01*
G75*
G02*
X113149000Y-121479500I0J575500D01*
G01*
X113149000Y-120328500D01*
G75*
G02*
X113724500Y-119753000I575500J0D01*
G01*
G37*
G36*
G01*
X116264500Y-119753000D02*
X117415500Y-119753000D01*
G75*
G02*
X117991000Y-120328500I0J-575500D01*
G01*
X117991000Y-121479500D01*
G75*
G02*
X117415500Y-122055000I-575500J0D01*
G01*
X116264500Y-122055000D01*
G75*
G02*
X115689000Y-121479500I0J575500D01*
G01*
X115689000Y-120328500D01*
G75*
G02*
X116264500Y-119753000I575500J0D01*
G01*
G37*
G36*
G01*
X118804500Y-119753000D02*
X119955500Y-119753000D01*
G75*
G02*
X120531000Y-120328500I0J-575500D01*
G01*
X120531000Y-121479500D01*
G75*
G02*
X119955500Y-122055000I-575500J0D01*
G01*
X118804500Y-122055000D01*
G75*
G02*
X118229000Y-121479500I0J575500D01*
G01*
X118229000Y-120328500D01*
G75*
G02*
X118804500Y-119753000I575500J0D01*
G01*
G37*
G36*
G01*
X112280000Y-119753000D02*
X113780000Y-119753000D01*
G75*
G02*
X113831000Y-119804000I0J-51000D01*
G01*
X113831000Y-122004000D01*
G75*
G02*
X113780000Y-122055000I-51000J0D01*
G01*
X112280000Y-122055000D01*
G75*
G02*
X112229000Y-122004000I0J51000D01*
G01*
X112229000Y-119804000D01*
G75*
G02*
X112280000Y-119753000I51000J0D01*
G01*
G37*
G36*
G01*
X102120000Y-119753000D02*
X103620000Y-119753000D01*
G75*
G02*
X103671000Y-119804000I0J-51000D01*
G01*
X103671000Y-122004000D01*
G75*
G02*
X103620000Y-122055000I-51000J0D01*
G01*
X102120000Y-122055000D01*
G75*
G02*
X102069000Y-122004000I0J51000D01*
G01*
X102069000Y-119804000D01*
G75*
G02*
X102120000Y-119753000I51000J0D01*
G01*
G37*
G36*
G01*
X117360000Y-119753000D02*
X118860000Y-119753000D01*
G75*
G02*
X118911000Y-119804000I0J-51000D01*
G01*
X118911000Y-122004000D01*
G75*
G02*
X118860000Y-122055000I-51000J0D01*
G01*
X117360000Y-122055000D01*
G75*
G02*
X117309000Y-122004000I0J51000D01*
G01*
X117309000Y-119804000D01*
G75*
G02*
X117360000Y-119753000I51000J0D01*
G01*
G37*
G36*
G01*
X107200000Y-119753000D02*
X108700000Y-119753000D01*
G75*
G02*
X108751000Y-119804000I0J-51000D01*
G01*
X108751000Y-122004000D01*
G75*
G02*
X108700000Y-122055000I-51000J0D01*
G01*
X107200000Y-122055000D01*
G75*
G02*
X107149000Y-122004000I0J51000D01*
G01*
X107149000Y-119804000D01*
G75*
G02*
X107200000Y-119753000I51000J0D01*
G01*
G37*
G36*
G01*
X194957000Y-132335000D02*
X194957000Y-133857000D01*
G75*
G02*
X194692000Y-134122000I-265000J0D01*
G01*
X193420000Y-134122000D01*
G75*
G02*
X193155000Y-133857000I0J265000D01*
G01*
X193155000Y-132335000D01*
G75*
G02*
X193420000Y-132070000I265000J0D01*
G01*
X194692000Y-132070000D01*
G75*
G02*
X194957000Y-132335000I0J-265000D01*
G01*
G37*
D17*
X191556000Y-133096000D03*
X189056000Y-133096000D03*
X186556000Y-133096000D03*
X184056000Y-133096000D03*
X181556000Y-133096000D03*
G36*
G01*
X115201000Y-113031000D02*
X115201000Y-114553000D01*
G75*
G02*
X114936000Y-114818000I-265000J0D01*
G01*
X113664000Y-114818000D01*
G75*
G02*
X113399000Y-114553000I0J265000D01*
G01*
X113399000Y-113031000D01*
G75*
G02*
X113664000Y-112766000I265000J0D01*
G01*
X114936000Y-112766000D01*
G75*
G02*
X115201000Y-113031000I0J-265000D01*
G01*
G37*
X111800000Y-113792000D03*
X109300000Y-113792000D03*
X106800000Y-113792000D03*
X104300000Y-113792000D03*
X101800000Y-113792000D03*
X181810000Y-97790000D03*
X184310000Y-97790000D03*
X186810000Y-97790000D03*
X189310000Y-97790000D03*
X191810000Y-97790000D03*
G36*
G01*
X195211000Y-97029000D02*
X195211000Y-98551000D01*
G75*
G02*
X194946000Y-98816000I-265000J0D01*
G01*
X193674000Y-98816000D01*
G75*
G02*
X193409000Y-98551000I0J265000D01*
G01*
X193409000Y-97029000D01*
G75*
G02*
X193674000Y-96764000I265000J0D01*
G01*
X194946000Y-96764000D01*
G75*
G02*
X195211000Y-97029000I0J-265000D01*
G01*
G37*
G36*
G01*
X115201000Y-101474000D02*
X115201000Y-102996000D01*
G75*
G02*
X114936000Y-103261000I-265000J0D01*
G01*
X113664000Y-103261000D01*
G75*
G02*
X113399000Y-102996000I0J265000D01*
G01*
X113399000Y-101474000D01*
G75*
G02*
X113664000Y-101209000I265000J0D01*
G01*
X114936000Y-101209000D01*
G75*
G02*
X115201000Y-101474000I0J-265000D01*
G01*
G37*
X111800000Y-102235000D03*
X109300000Y-102235000D03*
X106800000Y-102235000D03*
D16*
X93726000Y-99822000D03*
X93726000Y-102362000D03*
X93726000Y-104902000D03*
G36*
G01*
X94627000Y-106592000D02*
X94627000Y-108292000D01*
G75*
G02*
X94576000Y-108343000I-51000J0D01*
G01*
X92876000Y-108343000D01*
G75*
G02*
X92825000Y-108292000I0J51000D01*
G01*
X92825000Y-106592000D01*
G75*
G02*
X92876000Y-106541000I51000J0D01*
G01*
X94576000Y-106541000D01*
G75*
G02*
X94627000Y-106592000I0J-51000D01*
G01*
G37*
G36*
G01*
X205625000Y-106592000D02*
X205625000Y-108292000D01*
G75*
G02*
X205574000Y-108343000I-51000J0D01*
G01*
X203874000Y-108343000D01*
G75*
G02*
X203823000Y-108292000I0J51000D01*
G01*
X203823000Y-106592000D01*
G75*
G02*
X203874000Y-106541000I51000J0D01*
G01*
X205574000Y-106541000D01*
G75*
G02*
X205625000Y-106592000I0J-51000D01*
G01*
G37*
X204724000Y-104902000D03*
X204724000Y-102362000D03*
X204724000Y-99822000D03*
D18*
X194437000Y-141565000D03*
G36*
G01*
X193651000Y-138164000D02*
X195223000Y-138164000D01*
G75*
G02*
X195488000Y-138429000I0J-265000D01*
G01*
X195488000Y-139701000D01*
G75*
G02*
X195223000Y-139966000I-265000J0D01*
G01*
X193651000Y-139966000D01*
G75*
G02*
X193386000Y-139701000I0J265000D01*
G01*
X193386000Y-138429000D01*
G75*
G02*
X193651000Y-138164000I265000J0D01*
G01*
G37*
G36*
G01*
X104926000Y-142125000D02*
X103354000Y-142125000D01*
G75*
G02*
X103089000Y-141860000I0J265000D01*
G01*
X103089000Y-140588000D01*
G75*
G02*
X103354000Y-140323000I265000J0D01*
G01*
X104926000Y-140323000D01*
G75*
G02*
X105191000Y-140588000I0J-265000D01*
G01*
X105191000Y-141860000D01*
G75*
G02*
X104926000Y-142125000I-265000J0D01*
G01*
G37*
X104140000Y-138724000D03*
D19*
X193374000Y-66548000D03*
X195874000Y-66548000D03*
X198374000Y-66548000D03*
X133350000Y-73025000D03*
X133350000Y-75525000D03*
X133350000Y-78025000D03*
X160020000Y-51435000D03*
X160020000Y-53935000D03*
X160020000Y-56435000D03*
D20*
X155594000Y-54102000D03*
X142094000Y-54102000D03*
G36*
G01*
X150535000Y-49960000D02*
X150535000Y-46244000D01*
G75*
G02*
X150586000Y-46193000I51000J0D01*
G01*
X154302000Y-46193000D01*
G75*
G02*
X154353000Y-46244000I0J-51000D01*
G01*
X154353000Y-49960000D01*
G75*
G02*
X154302000Y-50011000I-51000J0D01*
G01*
X150586000Y-50011000D01*
G75*
G02*
X150535000Y-49960000I0J51000D01*
G01*
G37*
D21*
X145244000Y-48102000D03*
D22*
G36*
X105192165Y-141858374D02*
G01*
X105193000Y-141860000D01*
X105193000Y-141942097D01*
X105192990Y-141942293D01*
X105189001Y-141982796D01*
X105188925Y-141983181D01*
X105178899Y-142016233D01*
X105178749Y-142016595D01*
X105162472Y-142047046D01*
X105162254Y-142047372D01*
X105140345Y-142074068D01*
X105140068Y-142074345D01*
X105113372Y-142096254D01*
X105113046Y-142096472D01*
X105082595Y-142112749D01*
X105082233Y-142112899D01*
X105049181Y-142122925D01*
X105048796Y-142123001D01*
X105008293Y-142126990D01*
X105008097Y-142127000D01*
X104926000Y-142127000D01*
X104924268Y-142126000D01*
X104924268Y-142124000D01*
X104925804Y-142123010D01*
X104977304Y-142117938D01*
X105026642Y-142102971D01*
X105072110Y-142078668D01*
X105111962Y-142045962D01*
X105144668Y-142006110D01*
X105168971Y-141960642D01*
X105183938Y-141911304D01*
X105189010Y-141859804D01*
X105190175Y-141858178D01*
X105192165Y-141858374D01*
G37*
G36*
X103090990Y-141859804D02*
G01*
X103096062Y-141911304D01*
X103111029Y-141960642D01*
X103135332Y-142006110D01*
X103168038Y-142045962D01*
X103207890Y-142078668D01*
X103253358Y-142102971D01*
X103302696Y-142117938D01*
X103354196Y-142123010D01*
X103355822Y-142124175D01*
X103355626Y-142126165D01*
X103354000Y-142127000D01*
X103271903Y-142127000D01*
X103271707Y-142126990D01*
X103231204Y-142123001D01*
X103230819Y-142122925D01*
X103197767Y-142112899D01*
X103197405Y-142112749D01*
X103166954Y-142096472D01*
X103166628Y-142096254D01*
X103139932Y-142074345D01*
X103139655Y-142074068D01*
X103117746Y-142047372D01*
X103117528Y-142047046D01*
X103101251Y-142016595D01*
X103101101Y-142016233D01*
X103091075Y-141983181D01*
X103090999Y-141982796D01*
X103087010Y-141942293D01*
X103087000Y-141942097D01*
X103087000Y-141860000D01*
X103088000Y-141858268D01*
X103090000Y-141858268D01*
X103090990Y-141859804D01*
G37*
G36*
X103355732Y-140322000D02*
G01*
X103355732Y-140324000D01*
X103354196Y-140324990D01*
X103302696Y-140330062D01*
X103253358Y-140345029D01*
X103207890Y-140369332D01*
X103168038Y-140402038D01*
X103135332Y-140441890D01*
X103111029Y-140487358D01*
X103096062Y-140536696D01*
X103090990Y-140588196D01*
X103089825Y-140589822D01*
X103087835Y-140589626D01*
X103087000Y-140588000D01*
X103087000Y-140505903D01*
X103087010Y-140505707D01*
X103090999Y-140465204D01*
X103091075Y-140464819D01*
X103101101Y-140431767D01*
X103101251Y-140431405D01*
X103117528Y-140400954D01*
X103117746Y-140400628D01*
X103139655Y-140373932D01*
X103139932Y-140373655D01*
X103166628Y-140351746D01*
X103166954Y-140351528D01*
X103197405Y-140335251D01*
X103197767Y-140335101D01*
X103230819Y-140325075D01*
X103231204Y-140324999D01*
X103271707Y-140321010D01*
X103271903Y-140321000D01*
X103354000Y-140321000D01*
X103355732Y-140322000D01*
G37*
G36*
X105008293Y-140321010D02*
G01*
X105048796Y-140324999D01*
X105049181Y-140325075D01*
X105082233Y-140335101D01*
X105082595Y-140335251D01*
X105113046Y-140351528D01*
X105113372Y-140351746D01*
X105140068Y-140373655D01*
X105140345Y-140373932D01*
X105162254Y-140400628D01*
X105162472Y-140400954D01*
X105178749Y-140431405D01*
X105178899Y-140431767D01*
X105188925Y-140464819D01*
X105189001Y-140465204D01*
X105192990Y-140505707D01*
X105193000Y-140505903D01*
X105193000Y-140588000D01*
X105192000Y-140589732D01*
X105190000Y-140589732D01*
X105189010Y-140588196D01*
X105183938Y-140536696D01*
X105168971Y-140487358D01*
X105144668Y-140441890D01*
X105111962Y-140402038D01*
X105072110Y-140369332D01*
X105026642Y-140345029D01*
X104977304Y-140330062D01*
X104925804Y-140324990D01*
X104924178Y-140323825D01*
X104924374Y-140321835D01*
X104926000Y-140321000D01*
X105008097Y-140321000D01*
X105008293Y-140321010D01*
G37*
G36*
X195489165Y-139699374D02*
G01*
X195490000Y-139701000D01*
X195490000Y-139783097D01*
X195489990Y-139783293D01*
X195486001Y-139823796D01*
X195485925Y-139824181D01*
X195475899Y-139857233D01*
X195475749Y-139857595D01*
X195459472Y-139888046D01*
X195459254Y-139888372D01*
X195437345Y-139915068D01*
X195437068Y-139915345D01*
X195410372Y-139937254D01*
X195410046Y-139937472D01*
X195379595Y-139953749D01*
X195379233Y-139953899D01*
X195346181Y-139963925D01*
X195345796Y-139964001D01*
X195305293Y-139967990D01*
X195305097Y-139968000D01*
X195223000Y-139968000D01*
X195221268Y-139967000D01*
X195221268Y-139965000D01*
X195222804Y-139964010D01*
X195274304Y-139958938D01*
X195323642Y-139943971D01*
X195369110Y-139919668D01*
X195408962Y-139886962D01*
X195441668Y-139847110D01*
X195465971Y-139801642D01*
X195480938Y-139752304D01*
X195486010Y-139700804D01*
X195487175Y-139699178D01*
X195489165Y-139699374D01*
G37*
G36*
X193387990Y-139700804D02*
G01*
X193393062Y-139752304D01*
X193408029Y-139801642D01*
X193432332Y-139847110D01*
X193465038Y-139886962D01*
X193504890Y-139919668D01*
X193550358Y-139943971D01*
X193599696Y-139958938D01*
X193651196Y-139964010D01*
X193652822Y-139965175D01*
X193652626Y-139967165D01*
X193651000Y-139968000D01*
X193568903Y-139968000D01*
X193568707Y-139967990D01*
X193528204Y-139964001D01*
X193527819Y-139963925D01*
X193494767Y-139953899D01*
X193494405Y-139953749D01*
X193463954Y-139937472D01*
X193463628Y-139937254D01*
X193436932Y-139915345D01*
X193436655Y-139915068D01*
X193414746Y-139888372D01*
X193414528Y-139888046D01*
X193398251Y-139857595D01*
X193398101Y-139857233D01*
X193388075Y-139824181D01*
X193387999Y-139823796D01*
X193384010Y-139783293D01*
X193384000Y-139783097D01*
X193384000Y-139701000D01*
X193385000Y-139699268D01*
X193387000Y-139699268D01*
X193387990Y-139700804D01*
G37*
G36*
X193652732Y-138163000D02*
G01*
X193652732Y-138165000D01*
X193651196Y-138165990D01*
X193599696Y-138171062D01*
X193550358Y-138186029D01*
X193504890Y-138210332D01*
X193465038Y-138243038D01*
X193432332Y-138282890D01*
X193408029Y-138328358D01*
X193393062Y-138377696D01*
X193387990Y-138429196D01*
X193386825Y-138430822D01*
X193384835Y-138430626D01*
X193384000Y-138429000D01*
X193384000Y-138346903D01*
X193384010Y-138346707D01*
X193387999Y-138306204D01*
X193388075Y-138305819D01*
X193398101Y-138272767D01*
X193398251Y-138272405D01*
X193414528Y-138241954D01*
X193414746Y-138241628D01*
X193436655Y-138214932D01*
X193436932Y-138214655D01*
X193463628Y-138192746D01*
X193463954Y-138192528D01*
X193494405Y-138176251D01*
X193494767Y-138176101D01*
X193527819Y-138166075D01*
X193528204Y-138165999D01*
X193568707Y-138162010D01*
X193568903Y-138162000D01*
X193651000Y-138162000D01*
X193652732Y-138163000D01*
G37*
G36*
X195305293Y-138162010D02*
G01*
X195345796Y-138165999D01*
X195346181Y-138166075D01*
X195379233Y-138176101D01*
X195379595Y-138176251D01*
X195410046Y-138192528D01*
X195410372Y-138192746D01*
X195437068Y-138214655D01*
X195437345Y-138214932D01*
X195459254Y-138241628D01*
X195459472Y-138241954D01*
X195475749Y-138272405D01*
X195475899Y-138272767D01*
X195485925Y-138305819D01*
X195486001Y-138306204D01*
X195489990Y-138346707D01*
X195490000Y-138346903D01*
X195490000Y-138429000D01*
X195489000Y-138430732D01*
X195487000Y-138430732D01*
X195486010Y-138429196D01*
X195480938Y-138377696D01*
X195465971Y-138328358D01*
X195441668Y-138282890D01*
X195408962Y-138243038D01*
X195369110Y-138210332D01*
X195323642Y-138186029D01*
X195274304Y-138171062D01*
X195222804Y-138165990D01*
X195221178Y-138164825D01*
X195221374Y-138162835D01*
X195223000Y-138162000D01*
X195305097Y-138162000D01*
X195305293Y-138162010D01*
G37*
G36*
X193156990Y-133856804D02*
G01*
X193162062Y-133908304D01*
X193177029Y-133957642D01*
X193201332Y-134003110D01*
X193234038Y-134042962D01*
X193273890Y-134075668D01*
X193319358Y-134099971D01*
X193368696Y-134114938D01*
X193420196Y-134120010D01*
X193421822Y-134121175D01*
X193421626Y-134123165D01*
X193420000Y-134124000D01*
X193337903Y-134124000D01*
X193337707Y-134123990D01*
X193297204Y-134120001D01*
X193296819Y-134119925D01*
X193263767Y-134109899D01*
X193263405Y-134109749D01*
X193232954Y-134093472D01*
X193232628Y-134093254D01*
X193205932Y-134071345D01*
X193205655Y-134071068D01*
X193183746Y-134044372D01*
X193183528Y-134044046D01*
X193167251Y-134013595D01*
X193167101Y-134013233D01*
X193157075Y-133980181D01*
X193156999Y-133979796D01*
X193153010Y-133939293D01*
X193153000Y-133939097D01*
X193153000Y-133857000D01*
X193154000Y-133855268D01*
X193156000Y-133855268D01*
X193156990Y-133856804D01*
G37*
G36*
X194958165Y-133855374D02*
G01*
X194959000Y-133857000D01*
X194959000Y-133939097D01*
X194958990Y-133939293D01*
X194955001Y-133979796D01*
X194954925Y-133980181D01*
X194944899Y-134013233D01*
X194944749Y-134013595D01*
X194928472Y-134044046D01*
X194928254Y-134044372D01*
X194906345Y-134071068D01*
X194906068Y-134071345D01*
X194879372Y-134093254D01*
X194879046Y-134093472D01*
X194848595Y-134109749D01*
X194848233Y-134109899D01*
X194815181Y-134119925D01*
X194814796Y-134120001D01*
X194774293Y-134123990D01*
X194774097Y-134124000D01*
X194692000Y-134124000D01*
X194690268Y-134123000D01*
X194690268Y-134121000D01*
X194691804Y-134120010D01*
X194743304Y-134114938D01*
X194792642Y-134099971D01*
X194838110Y-134075668D01*
X194877962Y-134042962D01*
X194910668Y-134003110D01*
X194934971Y-133957642D01*
X194949938Y-133908304D01*
X194955010Y-133856804D01*
X194956175Y-133855178D01*
X194958165Y-133855374D01*
G37*
G36*
X193421732Y-132069000D02*
G01*
X193421732Y-132071000D01*
X193420196Y-132071990D01*
X193368696Y-132077062D01*
X193319358Y-132092029D01*
X193273890Y-132116332D01*
X193234038Y-132149038D01*
X193201332Y-132188890D01*
X193177029Y-132234358D01*
X193162062Y-132283696D01*
X193156990Y-132335196D01*
X193155825Y-132336822D01*
X193153835Y-132336626D01*
X193153000Y-132335000D01*
X193153000Y-132252903D01*
X193153010Y-132252707D01*
X193156999Y-132212204D01*
X193157075Y-132211819D01*
X193167101Y-132178767D01*
X193167251Y-132178405D01*
X193183528Y-132147954D01*
X193183746Y-132147628D01*
X193205655Y-132120932D01*
X193205932Y-132120655D01*
X193232628Y-132098746D01*
X193232954Y-132098528D01*
X193263405Y-132082251D01*
X193263767Y-132082101D01*
X193296819Y-132072075D01*
X193297204Y-132071999D01*
X193337707Y-132068010D01*
X193337903Y-132068000D01*
X193420000Y-132068000D01*
X193421732Y-132069000D01*
G37*
G36*
X194774293Y-132068010D02*
G01*
X194814796Y-132071999D01*
X194815181Y-132072075D01*
X194848233Y-132082101D01*
X194848595Y-132082251D01*
X194879046Y-132098528D01*
X194879372Y-132098746D01*
X194906068Y-132120655D01*
X194906345Y-132120932D01*
X194928254Y-132147628D01*
X194928472Y-132147954D01*
X194944749Y-132178405D01*
X194944899Y-132178767D01*
X194954925Y-132211819D01*
X194955001Y-132212204D01*
X194958990Y-132252707D01*
X194959000Y-132252903D01*
X194959000Y-132335000D01*
X194958000Y-132336732D01*
X194956000Y-132336732D01*
X194955010Y-132335196D01*
X194949938Y-132283696D01*
X194934971Y-132234358D01*
X194910668Y-132188890D01*
X194877962Y-132149038D01*
X194838110Y-132116332D01*
X194792642Y-132092029D01*
X194743304Y-132077062D01*
X194691804Y-132071990D01*
X194690178Y-132070825D01*
X194690374Y-132068835D01*
X194692000Y-132068000D01*
X194774097Y-132068000D01*
X194774293Y-132068010D01*
G37*
G36*
X114932056Y-119751010D02*
G01*
X115038157Y-119761460D01*
X115038542Y-119761536D01*
X115134669Y-119790696D01*
X115135031Y-119790846D01*
X115223613Y-119838194D01*
X115223939Y-119838412D01*
X115301587Y-119902136D01*
X115301864Y-119902413D01*
X115365588Y-119980061D01*
X115365806Y-119980387D01*
X115413154Y-120068969D01*
X115413304Y-120069331D01*
X115442464Y-120165458D01*
X115442540Y-120165843D01*
X115447583Y-120217042D01*
X115452307Y-120240794D01*
X115461534Y-120263068D01*
X115474929Y-120283116D01*
X115491976Y-120300163D01*
X115512023Y-120313557D01*
X115534297Y-120322784D01*
X115557947Y-120327488D01*
X115582053Y-120327488D01*
X115605703Y-120322784D01*
X115627977Y-120313557D01*
X115648025Y-120300162D01*
X115665072Y-120283115D01*
X115678466Y-120263068D01*
X115687693Y-120240794D01*
X115692417Y-120217042D01*
X115697460Y-120165843D01*
X115697536Y-120165458D01*
X115726696Y-120069331D01*
X115726846Y-120068969D01*
X115774194Y-119980387D01*
X115774412Y-119980061D01*
X115838136Y-119902413D01*
X115838413Y-119902136D01*
X115916061Y-119838412D01*
X115916387Y-119838194D01*
X116004969Y-119790846D01*
X116005331Y-119790696D01*
X116101458Y-119761536D01*
X116101843Y-119761460D01*
X116207944Y-119751010D01*
X116208140Y-119751000D01*
X116264500Y-119751000D01*
X116266232Y-119752000D01*
X116266232Y-119754000D01*
X116264696Y-119754990D01*
X116152621Y-119766028D01*
X116045035Y-119798664D01*
X115945885Y-119851660D01*
X115858981Y-119922981D01*
X115787660Y-120009885D01*
X115734664Y-120109035D01*
X115702028Y-120216621D01*
X115691000Y-120328594D01*
X115691000Y-121479406D01*
X115702028Y-121591379D01*
X115734664Y-121698965D01*
X115787660Y-121798115D01*
X115858981Y-121885019D01*
X115945885Y-121956340D01*
X116045035Y-122009336D01*
X116152621Y-122041972D01*
X116264696Y-122053010D01*
X116266322Y-122054175D01*
X116266126Y-122056165D01*
X116264500Y-122057000D01*
X116208140Y-122057000D01*
X116207944Y-122056990D01*
X116101843Y-122046540D01*
X116101458Y-122046464D01*
X116005331Y-122017304D01*
X116004969Y-122017154D01*
X115916387Y-121969806D01*
X115916061Y-121969588D01*
X115838413Y-121905864D01*
X115838136Y-121905587D01*
X115774412Y-121827939D01*
X115774194Y-121827613D01*
X115726846Y-121739031D01*
X115726696Y-121738669D01*
X115697536Y-121642542D01*
X115697460Y-121642157D01*
X115692417Y-121590958D01*
X115687693Y-121567206D01*
X115678466Y-121544932D01*
X115665071Y-121524884D01*
X115648024Y-121507837D01*
X115627977Y-121494443D01*
X115605703Y-121485216D01*
X115582053Y-121480512D01*
X115557947Y-121480512D01*
X115534297Y-121485216D01*
X115512023Y-121494443D01*
X115491975Y-121507838D01*
X115474928Y-121524885D01*
X115461534Y-121544932D01*
X115452307Y-121567206D01*
X115447583Y-121590958D01*
X115442540Y-121642157D01*
X115442464Y-121642542D01*
X115413304Y-121738669D01*
X115413154Y-121739031D01*
X115365806Y-121827613D01*
X115365588Y-121827939D01*
X115301864Y-121905587D01*
X115301587Y-121905864D01*
X115223939Y-121969588D01*
X115223613Y-121969806D01*
X115135031Y-122017154D01*
X115134669Y-122017304D01*
X115038542Y-122046464D01*
X115038157Y-122046540D01*
X114932056Y-122056990D01*
X114931860Y-122057000D01*
X114875500Y-122057000D01*
X114873768Y-122056000D01*
X114873768Y-122054000D01*
X114875304Y-122053010D01*
X114987379Y-122041972D01*
X115094965Y-122009336D01*
X115194115Y-121956340D01*
X115281019Y-121885019D01*
X115352340Y-121798115D01*
X115405336Y-121698965D01*
X115437972Y-121591379D01*
X115449000Y-121479406D01*
X115449000Y-120328594D01*
X115437972Y-120216621D01*
X115405336Y-120109035D01*
X115352340Y-120009885D01*
X115281019Y-119922981D01*
X115194115Y-119851660D01*
X115094965Y-119798664D01*
X114987379Y-119766028D01*
X114875304Y-119754990D01*
X114873678Y-119753825D01*
X114873874Y-119751835D01*
X114875500Y-119751000D01*
X114931860Y-119751000D01*
X114932056Y-119751010D01*
G37*
G36*
X106106232Y-119752000D02*
G01*
X106106232Y-119754000D01*
X106104696Y-119754990D01*
X105992621Y-119766028D01*
X105885035Y-119798664D01*
X105785885Y-119851660D01*
X105698981Y-119922981D01*
X105627660Y-120009885D01*
X105574664Y-120109035D01*
X105542028Y-120216621D01*
X105531000Y-120328594D01*
X105531000Y-121479406D01*
X105542028Y-121591379D01*
X105574664Y-121698965D01*
X105627660Y-121798115D01*
X105698981Y-121885019D01*
X105785885Y-121956340D01*
X105885035Y-122009336D01*
X105992621Y-122041972D01*
X106104696Y-122053010D01*
X106106322Y-122054175D01*
X106106126Y-122056165D01*
X106104500Y-122057000D01*
X106048140Y-122057000D01*
X106047944Y-122056990D01*
X105941843Y-122046540D01*
X105941458Y-122046464D01*
X105845331Y-122017304D01*
X105844969Y-122017154D01*
X105756387Y-121969806D01*
X105756061Y-121969588D01*
X105678413Y-121905864D01*
X105678136Y-121905587D01*
X105614412Y-121827939D01*
X105614194Y-121827613D01*
X105566846Y-121739031D01*
X105566696Y-121738669D01*
X105534736Y-121633310D01*
X105534688Y-121633119D01*
X105533692Y-121628114D01*
X105524465Y-121605840D01*
X105511071Y-121585793D01*
X105494024Y-121568746D01*
X105473976Y-121555351D01*
X105451702Y-121546124D01*
X105428052Y-121541420D01*
X105403946Y-121541420D01*
X105380296Y-121546124D01*
X105358022Y-121555351D01*
X105337975Y-121568745D01*
X105320928Y-121585792D01*
X105307533Y-121605840D01*
X105298306Y-121628114D01*
X105293593Y-121651810D01*
X105292998Y-121663915D01*
X105291914Y-121665596D01*
X105289916Y-121665498D01*
X105289000Y-121663817D01*
X105289000Y-120144183D01*
X105290000Y-120142451D01*
X105292000Y-120142451D01*
X105292990Y-120143987D01*
X105295372Y-120168174D01*
X105302372Y-120191249D01*
X105313737Y-120212513D01*
X105329032Y-120231150D01*
X105347669Y-120246445D01*
X105368933Y-120257810D01*
X105392008Y-120264810D01*
X105415999Y-120267173D01*
X105439990Y-120264810D01*
X105463065Y-120257810D01*
X105484329Y-120246445D01*
X105502966Y-120231150D01*
X105518261Y-120212513D01*
X105529626Y-120191249D01*
X105533884Y-120177213D01*
X105534005Y-120177100D01*
X105566696Y-120069331D01*
X105566846Y-120068969D01*
X105614194Y-119980387D01*
X105614412Y-119980061D01*
X105678136Y-119902413D01*
X105678413Y-119902136D01*
X105756061Y-119838412D01*
X105756387Y-119838194D01*
X105844969Y-119790846D01*
X105845331Y-119790696D01*
X105941458Y-119761536D01*
X105941843Y-119761460D01*
X106047944Y-119751010D01*
X106048140Y-119751000D01*
X106104500Y-119751000D01*
X106106232Y-119752000D01*
G37*
G36*
X183576232Y-119752000D02*
G01*
X183576232Y-119754000D01*
X183574696Y-119754990D01*
X183462621Y-119766028D01*
X183355035Y-119798664D01*
X183255885Y-119851660D01*
X183168981Y-119922981D01*
X183097660Y-120009885D01*
X183044664Y-120109035D01*
X183012028Y-120216621D01*
X183001000Y-120328594D01*
X183001000Y-121479406D01*
X183012028Y-121591379D01*
X183044664Y-121698965D01*
X183097660Y-121798115D01*
X183168981Y-121885019D01*
X183255885Y-121956340D01*
X183355035Y-122009336D01*
X183462621Y-122041972D01*
X183574696Y-122053010D01*
X183576322Y-122054175D01*
X183576126Y-122056165D01*
X183574500Y-122057000D01*
X183518140Y-122057000D01*
X183517944Y-122056990D01*
X183411843Y-122046540D01*
X183411458Y-122046464D01*
X183315331Y-122017304D01*
X183314969Y-122017154D01*
X183226387Y-121969806D01*
X183226061Y-121969588D01*
X183148413Y-121905864D01*
X183148136Y-121905587D01*
X183084412Y-121827939D01*
X183084194Y-121827613D01*
X183036846Y-121739031D01*
X183036696Y-121738669D01*
X183004736Y-121633310D01*
X183004688Y-121633119D01*
X183003692Y-121628114D01*
X182994465Y-121605840D01*
X182981071Y-121585793D01*
X182964024Y-121568746D01*
X182943976Y-121555351D01*
X182921702Y-121546124D01*
X182898052Y-121541420D01*
X182873946Y-121541420D01*
X182850296Y-121546124D01*
X182828022Y-121555351D01*
X182807975Y-121568745D01*
X182790928Y-121585792D01*
X182777533Y-121605840D01*
X182768306Y-121628114D01*
X182763593Y-121651810D01*
X182762998Y-121663915D01*
X182761914Y-121665596D01*
X182759916Y-121665498D01*
X182759000Y-121663817D01*
X182759000Y-120144183D01*
X182760000Y-120142451D01*
X182762000Y-120142451D01*
X182762990Y-120143987D01*
X182765372Y-120168174D01*
X182772372Y-120191249D01*
X182783737Y-120212513D01*
X182799032Y-120231150D01*
X182817669Y-120246445D01*
X182838933Y-120257810D01*
X182862008Y-120264810D01*
X182885999Y-120267173D01*
X182909990Y-120264810D01*
X182933065Y-120257810D01*
X182954329Y-120246445D01*
X182972966Y-120231150D01*
X182988261Y-120212513D01*
X182999626Y-120191249D01*
X183003884Y-120177213D01*
X183004005Y-120177100D01*
X183036696Y-120069331D01*
X183036846Y-120068969D01*
X183084194Y-119980387D01*
X183084412Y-119980061D01*
X183148136Y-119902413D01*
X183148413Y-119902136D01*
X183226061Y-119838412D01*
X183226387Y-119838194D01*
X183314969Y-119790846D01*
X183315331Y-119790696D01*
X183411458Y-119761536D01*
X183411843Y-119761460D01*
X183517944Y-119751010D01*
X183518140Y-119751000D01*
X183574500Y-119751000D01*
X183576232Y-119752000D01*
G37*
G36*
X192402056Y-119751010D02*
G01*
X192508157Y-119761460D01*
X192508542Y-119761536D01*
X192604669Y-119790696D01*
X192605031Y-119790846D01*
X192693613Y-119838194D01*
X192693939Y-119838412D01*
X192771587Y-119902136D01*
X192771864Y-119902413D01*
X192835588Y-119980061D01*
X192835806Y-119980387D01*
X192883154Y-120068969D01*
X192883304Y-120069331D01*
X192912464Y-120165458D01*
X192912540Y-120165843D01*
X192917583Y-120217042D01*
X192922307Y-120240794D01*
X192931534Y-120263068D01*
X192944929Y-120283116D01*
X192961976Y-120300163D01*
X192982023Y-120313557D01*
X193004297Y-120322784D01*
X193027947Y-120327488D01*
X193052053Y-120327488D01*
X193075703Y-120322784D01*
X193097977Y-120313557D01*
X193118025Y-120300162D01*
X193135072Y-120283115D01*
X193148466Y-120263068D01*
X193157693Y-120240794D01*
X193162417Y-120217042D01*
X193167460Y-120165843D01*
X193167536Y-120165458D01*
X193196696Y-120069331D01*
X193196846Y-120068969D01*
X193244194Y-119980387D01*
X193244412Y-119980061D01*
X193308136Y-119902413D01*
X193308413Y-119902136D01*
X193386061Y-119838412D01*
X193386387Y-119838194D01*
X193474969Y-119790846D01*
X193475331Y-119790696D01*
X193571458Y-119761536D01*
X193571843Y-119761460D01*
X193677944Y-119751010D01*
X193678140Y-119751000D01*
X193734500Y-119751000D01*
X193736232Y-119752000D01*
X193736232Y-119754000D01*
X193734696Y-119754990D01*
X193622621Y-119766028D01*
X193515035Y-119798664D01*
X193415885Y-119851660D01*
X193328981Y-119922981D01*
X193257660Y-120009885D01*
X193204664Y-120109035D01*
X193172028Y-120216621D01*
X193161000Y-120328594D01*
X193161000Y-121479406D01*
X193172028Y-121591379D01*
X193204664Y-121698965D01*
X193257660Y-121798115D01*
X193328981Y-121885019D01*
X193415885Y-121956340D01*
X193515035Y-122009336D01*
X193622621Y-122041972D01*
X193734696Y-122053010D01*
X193736322Y-122054175D01*
X193736126Y-122056165D01*
X193734500Y-122057000D01*
X193678140Y-122057000D01*
X193677944Y-122056990D01*
X193571843Y-122046540D01*
X193571458Y-122046464D01*
X193475331Y-122017304D01*
X193474969Y-122017154D01*
X193386387Y-121969806D01*
X193386061Y-121969588D01*
X193308413Y-121905864D01*
X193308136Y-121905587D01*
X193244412Y-121827939D01*
X193244194Y-121827613D01*
X193196846Y-121739031D01*
X193196696Y-121738669D01*
X193167536Y-121642542D01*
X193167460Y-121642157D01*
X193162417Y-121590958D01*
X193157693Y-121567206D01*
X193148466Y-121544932D01*
X193135071Y-121524884D01*
X193118024Y-121507837D01*
X193097977Y-121494443D01*
X193075703Y-121485216D01*
X193052053Y-121480512D01*
X193027947Y-121480512D01*
X193004297Y-121485216D01*
X192982023Y-121494443D01*
X192961975Y-121507838D01*
X192944928Y-121524885D01*
X192931534Y-121544932D01*
X192922307Y-121567206D01*
X192917583Y-121590958D01*
X192912540Y-121642157D01*
X192912464Y-121642542D01*
X192883304Y-121738669D01*
X192883154Y-121739031D01*
X192835806Y-121827613D01*
X192835588Y-121827939D01*
X192771864Y-121905587D01*
X192771587Y-121905864D01*
X192693939Y-121969588D01*
X192693613Y-121969806D01*
X192605031Y-122017154D01*
X192604669Y-122017304D01*
X192508542Y-122046464D01*
X192508157Y-122046540D01*
X192402056Y-122056990D01*
X192401860Y-122057000D01*
X192345500Y-122057000D01*
X192343768Y-122056000D01*
X192343768Y-122054000D01*
X192345304Y-122053010D01*
X192457379Y-122041972D01*
X192564965Y-122009336D01*
X192664115Y-121956340D01*
X192751019Y-121885019D01*
X192822340Y-121798115D01*
X192875336Y-121698965D01*
X192907972Y-121591379D01*
X192919000Y-121479406D01*
X192919000Y-120328594D01*
X192907972Y-120216621D01*
X192875336Y-120109035D01*
X192822340Y-120009885D01*
X192751019Y-119922981D01*
X192664115Y-119851660D01*
X192564965Y-119798664D01*
X192457379Y-119766028D01*
X192345304Y-119754990D01*
X192343678Y-119753825D01*
X192343874Y-119751835D01*
X192345500Y-119751000D01*
X192401860Y-119751000D01*
X192402056Y-119751010D01*
G37*
G36*
X120532165Y-121477874D02*
G01*
X120533000Y-121479500D01*
X120533000Y-121535860D01*
X120532990Y-121536056D01*
X120522540Y-121642157D01*
X120522464Y-121642542D01*
X120493304Y-121738669D01*
X120493154Y-121739031D01*
X120445806Y-121827613D01*
X120445588Y-121827939D01*
X120381864Y-121905587D01*
X120381587Y-121905864D01*
X120303939Y-121969588D01*
X120303613Y-121969806D01*
X120215031Y-122017154D01*
X120214669Y-122017304D01*
X120118542Y-122046464D01*
X120118157Y-122046540D01*
X120012056Y-122056990D01*
X120011860Y-122057000D01*
X119955500Y-122057000D01*
X119953768Y-122056000D01*
X119953768Y-122054000D01*
X119955304Y-122053010D01*
X120067379Y-122041972D01*
X120174965Y-122009336D01*
X120274115Y-121956340D01*
X120361019Y-121885019D01*
X120432340Y-121798115D01*
X120485336Y-121698965D01*
X120517972Y-121591379D01*
X120529010Y-121479304D01*
X120530175Y-121477678D01*
X120532165Y-121477874D01*
G37*
G36*
X187322056Y-119751010D02*
G01*
X187428157Y-119761460D01*
X187428542Y-119761536D01*
X187524669Y-119790696D01*
X187525031Y-119790846D01*
X187613613Y-119838194D01*
X187613939Y-119838412D01*
X187691587Y-119902136D01*
X187691864Y-119902413D01*
X187755588Y-119980061D01*
X187755806Y-119980387D01*
X187803154Y-120068969D01*
X187803304Y-120069331D01*
X187832464Y-120165458D01*
X187832540Y-120165843D01*
X187837583Y-120217042D01*
X187842307Y-120240794D01*
X187851534Y-120263068D01*
X187864929Y-120283116D01*
X187881976Y-120300163D01*
X187902023Y-120313557D01*
X187924297Y-120322784D01*
X187947947Y-120327488D01*
X187972053Y-120327488D01*
X187995703Y-120322784D01*
X188017977Y-120313557D01*
X188038025Y-120300162D01*
X188055072Y-120283115D01*
X188068466Y-120263068D01*
X188077693Y-120240794D01*
X188082417Y-120217042D01*
X188087460Y-120165843D01*
X188087536Y-120165458D01*
X188116696Y-120069331D01*
X188116846Y-120068969D01*
X188164194Y-119980387D01*
X188164412Y-119980061D01*
X188228136Y-119902413D01*
X188228413Y-119902136D01*
X188306061Y-119838412D01*
X188306387Y-119838194D01*
X188394969Y-119790846D01*
X188395331Y-119790696D01*
X188491458Y-119761536D01*
X188491843Y-119761460D01*
X188597944Y-119751010D01*
X188598140Y-119751000D01*
X188654500Y-119751000D01*
X188656232Y-119752000D01*
X188656232Y-119754000D01*
X188654696Y-119754990D01*
X188542621Y-119766028D01*
X188435035Y-119798664D01*
X188335885Y-119851660D01*
X188248981Y-119922981D01*
X188177660Y-120009885D01*
X188124664Y-120109035D01*
X188092028Y-120216621D01*
X188081000Y-120328594D01*
X188081000Y-121479406D01*
X188092028Y-121591379D01*
X188124664Y-121698965D01*
X188177660Y-121798115D01*
X188248981Y-121885019D01*
X188335885Y-121956340D01*
X188435035Y-122009336D01*
X188542621Y-122041972D01*
X188654696Y-122053010D01*
X188656322Y-122054175D01*
X188656126Y-122056165D01*
X188654500Y-122057000D01*
X188598140Y-122057000D01*
X188597944Y-122056990D01*
X188491843Y-122046540D01*
X188491458Y-122046464D01*
X188395331Y-122017304D01*
X188394969Y-122017154D01*
X188306387Y-121969806D01*
X188306061Y-121969588D01*
X188228413Y-121905864D01*
X188228136Y-121905587D01*
X188164412Y-121827939D01*
X188164194Y-121827613D01*
X188116846Y-121739031D01*
X188116696Y-121738669D01*
X188087536Y-121642542D01*
X188087460Y-121642157D01*
X188082417Y-121590958D01*
X188077693Y-121567206D01*
X188068466Y-121544932D01*
X188055071Y-121524884D01*
X188038024Y-121507837D01*
X188017977Y-121494443D01*
X187995703Y-121485216D01*
X187972053Y-121480512D01*
X187947947Y-121480512D01*
X187924297Y-121485216D01*
X187902023Y-121494443D01*
X187881975Y-121507838D01*
X187864928Y-121524885D01*
X187851534Y-121544932D01*
X187842307Y-121567206D01*
X187837583Y-121590958D01*
X187832540Y-121642157D01*
X187832464Y-121642542D01*
X187803304Y-121738669D01*
X187803154Y-121739031D01*
X187755806Y-121827613D01*
X187755588Y-121827939D01*
X187691864Y-121905587D01*
X187691587Y-121905864D01*
X187613939Y-121969588D01*
X187613613Y-121969806D01*
X187525031Y-122017154D01*
X187524669Y-122017304D01*
X187428542Y-122046464D01*
X187428157Y-122046540D01*
X187322056Y-122056990D01*
X187321860Y-122057000D01*
X187265500Y-122057000D01*
X187263768Y-122056000D01*
X187263768Y-122054000D01*
X187265304Y-122053010D01*
X187377379Y-122041972D01*
X187484965Y-122009336D01*
X187584115Y-121956340D01*
X187671019Y-121885019D01*
X187742340Y-121798115D01*
X187795336Y-121698965D01*
X187827972Y-121591379D01*
X187839000Y-121479406D01*
X187839000Y-120328594D01*
X187827972Y-120216621D01*
X187795336Y-120109035D01*
X187742340Y-120009885D01*
X187671019Y-119922981D01*
X187584115Y-119851660D01*
X187484965Y-119798664D01*
X187377379Y-119766028D01*
X187265304Y-119754990D01*
X187263678Y-119753825D01*
X187263874Y-119751835D01*
X187265500Y-119751000D01*
X187321860Y-119751000D01*
X187322056Y-119751010D01*
G37*
G36*
X198002165Y-121477874D02*
G01*
X198003000Y-121479500D01*
X198003000Y-121535860D01*
X198002990Y-121536056D01*
X197992540Y-121642157D01*
X197992464Y-121642542D01*
X197963304Y-121738669D01*
X197963154Y-121739031D01*
X197915806Y-121827613D01*
X197915588Y-121827939D01*
X197851864Y-121905587D01*
X197851587Y-121905864D01*
X197773939Y-121969588D01*
X197773613Y-121969806D01*
X197685031Y-122017154D01*
X197684669Y-122017304D01*
X197588542Y-122046464D01*
X197588157Y-122046540D01*
X197482056Y-122056990D01*
X197481860Y-122057000D01*
X197425500Y-122057000D01*
X197423768Y-122056000D01*
X197423768Y-122054000D01*
X197425304Y-122053010D01*
X197537379Y-122041972D01*
X197644965Y-122009336D01*
X197744115Y-121956340D01*
X197831019Y-121885019D01*
X197902340Y-121798115D01*
X197955336Y-121698965D01*
X197987972Y-121591379D01*
X197999010Y-121479304D01*
X198000175Y-121477678D01*
X198002165Y-121477874D01*
G37*
G36*
X109852056Y-119751010D02*
G01*
X109958157Y-119761460D01*
X109958542Y-119761536D01*
X110054669Y-119790696D01*
X110055031Y-119790846D01*
X110143613Y-119838194D01*
X110143939Y-119838412D01*
X110221587Y-119902136D01*
X110221864Y-119902413D01*
X110285588Y-119980061D01*
X110285806Y-119980387D01*
X110333154Y-120068969D01*
X110333304Y-120069331D01*
X110362464Y-120165458D01*
X110362540Y-120165843D01*
X110367583Y-120217042D01*
X110372307Y-120240794D01*
X110381534Y-120263068D01*
X110394929Y-120283116D01*
X110411976Y-120300163D01*
X110432023Y-120313557D01*
X110454297Y-120322784D01*
X110477947Y-120327488D01*
X110502053Y-120327488D01*
X110525703Y-120322784D01*
X110547977Y-120313557D01*
X110568025Y-120300162D01*
X110585072Y-120283115D01*
X110598466Y-120263068D01*
X110607693Y-120240794D01*
X110612417Y-120217042D01*
X110617460Y-120165843D01*
X110617536Y-120165458D01*
X110646696Y-120069331D01*
X110646846Y-120068969D01*
X110694194Y-119980387D01*
X110694412Y-119980061D01*
X110758136Y-119902413D01*
X110758413Y-119902136D01*
X110836061Y-119838412D01*
X110836387Y-119838194D01*
X110924969Y-119790846D01*
X110925331Y-119790696D01*
X111021458Y-119761536D01*
X111021843Y-119761460D01*
X111127944Y-119751010D01*
X111128140Y-119751000D01*
X111184500Y-119751000D01*
X111186232Y-119752000D01*
X111186232Y-119754000D01*
X111184696Y-119754990D01*
X111072621Y-119766028D01*
X110965035Y-119798664D01*
X110865885Y-119851660D01*
X110778981Y-119922981D01*
X110707660Y-120009885D01*
X110654664Y-120109035D01*
X110622028Y-120216621D01*
X110611000Y-120328594D01*
X110611000Y-121479406D01*
X110622028Y-121591379D01*
X110654664Y-121698965D01*
X110707660Y-121798115D01*
X110778981Y-121885019D01*
X110865885Y-121956340D01*
X110965035Y-122009336D01*
X111072621Y-122041972D01*
X111184696Y-122053010D01*
X111186322Y-122054175D01*
X111186126Y-122056165D01*
X111184500Y-122057000D01*
X111128140Y-122057000D01*
X111127944Y-122056990D01*
X111021843Y-122046540D01*
X111021458Y-122046464D01*
X110925331Y-122017304D01*
X110924969Y-122017154D01*
X110836387Y-121969806D01*
X110836061Y-121969588D01*
X110758413Y-121905864D01*
X110758136Y-121905587D01*
X110694412Y-121827939D01*
X110694194Y-121827613D01*
X110646846Y-121739031D01*
X110646696Y-121738669D01*
X110617536Y-121642542D01*
X110617460Y-121642157D01*
X110612417Y-121590958D01*
X110607693Y-121567206D01*
X110598466Y-121544932D01*
X110585071Y-121524884D01*
X110568024Y-121507837D01*
X110547977Y-121494443D01*
X110525703Y-121485216D01*
X110502053Y-121480512D01*
X110477947Y-121480512D01*
X110454297Y-121485216D01*
X110432023Y-121494443D01*
X110411975Y-121507838D01*
X110394928Y-121524885D01*
X110381534Y-121544932D01*
X110372307Y-121567206D01*
X110367583Y-121590958D01*
X110362540Y-121642157D01*
X110362464Y-121642542D01*
X110333304Y-121738669D01*
X110333154Y-121739031D01*
X110285806Y-121827613D01*
X110285588Y-121827939D01*
X110221864Y-121905587D01*
X110221587Y-121905864D01*
X110143939Y-121969588D01*
X110143613Y-121969806D01*
X110055031Y-122017154D01*
X110054669Y-122017304D01*
X109958542Y-122046464D01*
X109958157Y-122046540D01*
X109852056Y-122056990D01*
X109851860Y-122057000D01*
X109795500Y-122057000D01*
X109793768Y-122056000D01*
X109793768Y-122054000D01*
X109795304Y-122053010D01*
X109907379Y-122041972D01*
X110014965Y-122009336D01*
X110114115Y-121956340D01*
X110201019Y-121885019D01*
X110272340Y-121798115D01*
X110325336Y-121698965D01*
X110357972Y-121591379D01*
X110369000Y-121479406D01*
X110369000Y-120328594D01*
X110357972Y-120216621D01*
X110325336Y-120109035D01*
X110272340Y-120009885D01*
X110201019Y-119922981D01*
X110114115Y-119851660D01*
X110014965Y-119798664D01*
X109907379Y-119766028D01*
X109795304Y-119754990D01*
X109793678Y-119753825D01*
X109793874Y-119751835D01*
X109795500Y-119751000D01*
X109851860Y-119751000D01*
X109852056Y-119751010D01*
G37*
G36*
X120012056Y-119751010D02*
G01*
X120118157Y-119761460D01*
X120118542Y-119761536D01*
X120214669Y-119790696D01*
X120215031Y-119790846D01*
X120303613Y-119838194D01*
X120303939Y-119838412D01*
X120381587Y-119902136D01*
X120381864Y-119902413D01*
X120445588Y-119980061D01*
X120445806Y-119980387D01*
X120493154Y-120068969D01*
X120493304Y-120069331D01*
X120522464Y-120165458D01*
X120522540Y-120165843D01*
X120532990Y-120271944D01*
X120533000Y-120272140D01*
X120533000Y-120328500D01*
X120532000Y-120330232D01*
X120530000Y-120330232D01*
X120529010Y-120328696D01*
X120517972Y-120216621D01*
X120485336Y-120109035D01*
X120432340Y-120009885D01*
X120361019Y-119922981D01*
X120274115Y-119851660D01*
X120174965Y-119798664D01*
X120067379Y-119766028D01*
X119955304Y-119754990D01*
X119953678Y-119753825D01*
X119953874Y-119751835D01*
X119955500Y-119751000D01*
X120011860Y-119751000D01*
X120012056Y-119751010D01*
G37*
G36*
X197482056Y-119751010D02*
G01*
X197588157Y-119761460D01*
X197588542Y-119761536D01*
X197684669Y-119790696D01*
X197685031Y-119790846D01*
X197773613Y-119838194D01*
X197773939Y-119838412D01*
X197851587Y-119902136D01*
X197851864Y-119902413D01*
X197915588Y-119980061D01*
X197915806Y-119980387D01*
X197963154Y-120068969D01*
X197963304Y-120069331D01*
X197992464Y-120165458D01*
X197992540Y-120165843D01*
X198002990Y-120271944D01*
X198003000Y-120272140D01*
X198003000Y-120328500D01*
X198002000Y-120330232D01*
X198000000Y-120330232D01*
X197999010Y-120328696D01*
X197987972Y-120216621D01*
X197955336Y-120109035D01*
X197902340Y-120009885D01*
X197831019Y-119922981D01*
X197744115Y-119851660D01*
X197644965Y-119798664D01*
X197537379Y-119766028D01*
X197425304Y-119754990D01*
X197423678Y-119753825D01*
X197423874Y-119751835D01*
X197425500Y-119751000D01*
X197481860Y-119751000D01*
X197482056Y-119751010D01*
G37*
G36*
X115202165Y-114551374D02*
G01*
X115203000Y-114553000D01*
X115203000Y-114635097D01*
X115202990Y-114635293D01*
X115199001Y-114675796D01*
X115198925Y-114676181D01*
X115188899Y-114709233D01*
X115188749Y-114709595D01*
X115172472Y-114740046D01*
X115172254Y-114740372D01*
X115150345Y-114767068D01*
X115150068Y-114767345D01*
X115123372Y-114789254D01*
X115123046Y-114789472D01*
X115092595Y-114805749D01*
X115092233Y-114805899D01*
X115059181Y-114815925D01*
X115058796Y-114816001D01*
X115018293Y-114819990D01*
X115018097Y-114820000D01*
X114936000Y-114820000D01*
X114934268Y-114819000D01*
X114934268Y-114817000D01*
X114935804Y-114816010D01*
X114987304Y-114810938D01*
X115036642Y-114795971D01*
X115082110Y-114771668D01*
X115121962Y-114738962D01*
X115154668Y-114699110D01*
X115178971Y-114653642D01*
X115193938Y-114604304D01*
X115199010Y-114552804D01*
X115200175Y-114551178D01*
X115202165Y-114551374D01*
G37*
G36*
X113400990Y-114552804D02*
G01*
X113406062Y-114604304D01*
X113421029Y-114653642D01*
X113445332Y-114699110D01*
X113478038Y-114738962D01*
X113517890Y-114771668D01*
X113563358Y-114795971D01*
X113612696Y-114810938D01*
X113664196Y-114816010D01*
X113665822Y-114817175D01*
X113665626Y-114819165D01*
X113664000Y-114820000D01*
X113581903Y-114820000D01*
X113581707Y-114819990D01*
X113541204Y-114816001D01*
X113540819Y-114815925D01*
X113507767Y-114805899D01*
X113507405Y-114805749D01*
X113476954Y-114789472D01*
X113476628Y-114789254D01*
X113449932Y-114767345D01*
X113449655Y-114767068D01*
X113427746Y-114740372D01*
X113427528Y-114740046D01*
X113411251Y-114709595D01*
X113411101Y-114709233D01*
X113401075Y-114676181D01*
X113400999Y-114675796D01*
X113397010Y-114635293D01*
X113397000Y-114635097D01*
X113397000Y-114553000D01*
X113398000Y-114551268D01*
X113400000Y-114551268D01*
X113400990Y-114552804D01*
G37*
G36*
X113665732Y-112765000D02*
G01*
X113665732Y-112767000D01*
X113664196Y-112767990D01*
X113612696Y-112773062D01*
X113563358Y-112788029D01*
X113517890Y-112812332D01*
X113478038Y-112845038D01*
X113445332Y-112884890D01*
X113421029Y-112930358D01*
X113406062Y-112979696D01*
X113400990Y-113031196D01*
X113399825Y-113032822D01*
X113397835Y-113032626D01*
X113397000Y-113031000D01*
X113397000Y-112948903D01*
X113397010Y-112948707D01*
X113400999Y-112908204D01*
X113401075Y-112907819D01*
X113411101Y-112874767D01*
X113411251Y-112874405D01*
X113427528Y-112843954D01*
X113427746Y-112843628D01*
X113449655Y-112816932D01*
X113449932Y-112816655D01*
X113476628Y-112794746D01*
X113476954Y-112794528D01*
X113507405Y-112778251D01*
X113507767Y-112778101D01*
X113540819Y-112768075D01*
X113541204Y-112767999D01*
X113581707Y-112764010D01*
X113581903Y-112764000D01*
X113664000Y-112764000D01*
X113665732Y-112765000D01*
G37*
G36*
X115018293Y-112764010D02*
G01*
X115058796Y-112767999D01*
X115059181Y-112768075D01*
X115092233Y-112778101D01*
X115092595Y-112778251D01*
X115123046Y-112794528D01*
X115123372Y-112794746D01*
X115150068Y-112816655D01*
X115150345Y-112816932D01*
X115172254Y-112843628D01*
X115172472Y-112843954D01*
X115188749Y-112874405D01*
X115188899Y-112874767D01*
X115198925Y-112907819D01*
X115199001Y-112908204D01*
X115202990Y-112948707D01*
X115203000Y-112948903D01*
X115203000Y-113031000D01*
X115202000Y-113032732D01*
X115200000Y-113032732D01*
X115199010Y-113031196D01*
X115193938Y-112979696D01*
X115178971Y-112930358D01*
X115154668Y-112884890D01*
X115121962Y-112845038D01*
X115082110Y-112812332D01*
X115036642Y-112788029D01*
X114987304Y-112773062D01*
X114935804Y-112767990D01*
X114934178Y-112766825D01*
X114934374Y-112764835D01*
X114936000Y-112764000D01*
X115018097Y-112764000D01*
X115018293Y-112764010D01*
G37*
G36*
X115202165Y-102994374D02*
G01*
X115203000Y-102996000D01*
X115203000Y-103078097D01*
X115202990Y-103078293D01*
X115199001Y-103118796D01*
X115198925Y-103119181D01*
X115188899Y-103152233D01*
X115188749Y-103152595D01*
X115172472Y-103183046D01*
X115172254Y-103183372D01*
X115150345Y-103210068D01*
X115150068Y-103210345D01*
X115123372Y-103232254D01*
X115123046Y-103232472D01*
X115092595Y-103248749D01*
X115092233Y-103248899D01*
X115059181Y-103258925D01*
X115058796Y-103259001D01*
X115018293Y-103262990D01*
X115018097Y-103263000D01*
X114936000Y-103263000D01*
X114934268Y-103262000D01*
X114934268Y-103260000D01*
X114935804Y-103259010D01*
X114987304Y-103253938D01*
X115036642Y-103238971D01*
X115082110Y-103214668D01*
X115121962Y-103181962D01*
X115154668Y-103142110D01*
X115178971Y-103096642D01*
X115193938Y-103047304D01*
X115199010Y-102995804D01*
X115200175Y-102994178D01*
X115202165Y-102994374D01*
G37*
G36*
X113400990Y-102995804D02*
G01*
X113406062Y-103047304D01*
X113421029Y-103096642D01*
X113445332Y-103142110D01*
X113478038Y-103181962D01*
X113517890Y-103214668D01*
X113563358Y-103238971D01*
X113612696Y-103253938D01*
X113664196Y-103259010D01*
X113665822Y-103260175D01*
X113665626Y-103262165D01*
X113664000Y-103263000D01*
X113581903Y-103263000D01*
X113581707Y-103262990D01*
X113541204Y-103259001D01*
X113540819Y-103258925D01*
X113507767Y-103248899D01*
X113507405Y-103248749D01*
X113476954Y-103232472D01*
X113476628Y-103232254D01*
X113449932Y-103210345D01*
X113449655Y-103210068D01*
X113427746Y-103183372D01*
X113427528Y-103183046D01*
X113411251Y-103152595D01*
X113411101Y-103152233D01*
X113401075Y-103119181D01*
X113400999Y-103118796D01*
X113397010Y-103078293D01*
X113397000Y-103078097D01*
X113397000Y-102996000D01*
X113398000Y-102994268D01*
X113400000Y-102994268D01*
X113400990Y-102995804D01*
G37*
G36*
X113665732Y-101208000D02*
G01*
X113665732Y-101210000D01*
X113664196Y-101210990D01*
X113612696Y-101216062D01*
X113563358Y-101231029D01*
X113517890Y-101255332D01*
X113478038Y-101288038D01*
X113445332Y-101327890D01*
X113421029Y-101373358D01*
X113406062Y-101422696D01*
X113400990Y-101474196D01*
X113399825Y-101475822D01*
X113397835Y-101475626D01*
X113397000Y-101474000D01*
X113397000Y-101391903D01*
X113397010Y-101391707D01*
X113400999Y-101351204D01*
X113401075Y-101350819D01*
X113411101Y-101317767D01*
X113411251Y-101317405D01*
X113427528Y-101286954D01*
X113427746Y-101286628D01*
X113449655Y-101259932D01*
X113449932Y-101259655D01*
X113476628Y-101237746D01*
X113476954Y-101237528D01*
X113507405Y-101221251D01*
X113507767Y-101221101D01*
X113540819Y-101211075D01*
X113541204Y-101210999D01*
X113581707Y-101207010D01*
X113581903Y-101207000D01*
X113664000Y-101207000D01*
X113665732Y-101208000D01*
G37*
G36*
X115018293Y-101207010D02*
G01*
X115058796Y-101210999D01*
X115059181Y-101211075D01*
X115092233Y-101221101D01*
X115092595Y-101221251D01*
X115123046Y-101237528D01*
X115123372Y-101237746D01*
X115150068Y-101259655D01*
X115150345Y-101259932D01*
X115172254Y-101286628D01*
X115172472Y-101286954D01*
X115188749Y-101317405D01*
X115188899Y-101317767D01*
X115198925Y-101350819D01*
X115199001Y-101351204D01*
X115202990Y-101391707D01*
X115203000Y-101391903D01*
X115203000Y-101474000D01*
X115202000Y-101475732D01*
X115200000Y-101475732D01*
X115199010Y-101474196D01*
X115193938Y-101422696D01*
X115178971Y-101373358D01*
X115154668Y-101327890D01*
X115121962Y-101288038D01*
X115082110Y-101255332D01*
X115036642Y-101231029D01*
X114987304Y-101216062D01*
X114935804Y-101210990D01*
X114934178Y-101209825D01*
X114934374Y-101207835D01*
X114936000Y-101207000D01*
X115018097Y-101207000D01*
X115018293Y-101207010D01*
G37*
G36*
X193410990Y-98550804D02*
G01*
X193416062Y-98602304D01*
X193431029Y-98651642D01*
X193455332Y-98697110D01*
X193488038Y-98736962D01*
X193527890Y-98769668D01*
X193573358Y-98793971D01*
X193622696Y-98808938D01*
X193674196Y-98814010D01*
X193675822Y-98815175D01*
X193675626Y-98817165D01*
X193674000Y-98818000D01*
X193591903Y-98818000D01*
X193591707Y-98817990D01*
X193551204Y-98814001D01*
X193550819Y-98813925D01*
X193517767Y-98803899D01*
X193517405Y-98803749D01*
X193486954Y-98787472D01*
X193486628Y-98787254D01*
X193459932Y-98765345D01*
X193459655Y-98765068D01*
X193437746Y-98738372D01*
X193437528Y-98738046D01*
X193421251Y-98707595D01*
X193421101Y-98707233D01*
X193411075Y-98674181D01*
X193410999Y-98673796D01*
X193407010Y-98633293D01*
X193407000Y-98633097D01*
X193407000Y-98551000D01*
X193408000Y-98549268D01*
X193410000Y-98549268D01*
X193410990Y-98550804D01*
G37*
G36*
X195212165Y-98549374D02*
G01*
X195213000Y-98551000D01*
X195213000Y-98633097D01*
X195212990Y-98633293D01*
X195209001Y-98673796D01*
X195208925Y-98674181D01*
X195198899Y-98707233D01*
X195198749Y-98707595D01*
X195182472Y-98738046D01*
X195182254Y-98738372D01*
X195160345Y-98765068D01*
X195160068Y-98765345D01*
X195133372Y-98787254D01*
X195133046Y-98787472D01*
X195102595Y-98803749D01*
X195102233Y-98803899D01*
X195069181Y-98813925D01*
X195068796Y-98814001D01*
X195028293Y-98817990D01*
X195028097Y-98818000D01*
X194946000Y-98818000D01*
X194944268Y-98817000D01*
X194944268Y-98815000D01*
X194945804Y-98814010D01*
X194997304Y-98808938D01*
X195046642Y-98793971D01*
X195092110Y-98769668D01*
X195131962Y-98736962D01*
X195164668Y-98697110D01*
X195188971Y-98651642D01*
X195203938Y-98602304D01*
X195209010Y-98550804D01*
X195210175Y-98549178D01*
X195212165Y-98549374D01*
G37*
G36*
X193675732Y-96763000D02*
G01*
X193675732Y-96765000D01*
X193674196Y-96765990D01*
X193622696Y-96771062D01*
X193573358Y-96786029D01*
X193527890Y-96810332D01*
X193488038Y-96843038D01*
X193455332Y-96882890D01*
X193431029Y-96928358D01*
X193416062Y-96977696D01*
X193410990Y-97029196D01*
X193409825Y-97030822D01*
X193407835Y-97030626D01*
X193407000Y-97029000D01*
X193407000Y-96946903D01*
X193407010Y-96946707D01*
X193410999Y-96906204D01*
X193411075Y-96905819D01*
X193421101Y-96872767D01*
X193421251Y-96872405D01*
X193437528Y-96841954D01*
X193437746Y-96841628D01*
X193459655Y-96814932D01*
X193459932Y-96814655D01*
X193486628Y-96792746D01*
X193486954Y-96792528D01*
X193517405Y-96776251D01*
X193517767Y-96776101D01*
X193550819Y-96766075D01*
X193551204Y-96765999D01*
X193591707Y-96762010D01*
X193591903Y-96762000D01*
X193674000Y-96762000D01*
X193675732Y-96763000D01*
G37*
G36*
X195028293Y-96762010D02*
G01*
X195068796Y-96765999D01*
X195069181Y-96766075D01*
X195102233Y-96776101D01*
X195102595Y-96776251D01*
X195133046Y-96792528D01*
X195133372Y-96792746D01*
X195160068Y-96814655D01*
X195160345Y-96814932D01*
X195182254Y-96841628D01*
X195182472Y-96841954D01*
X195198749Y-96872405D01*
X195198899Y-96872767D01*
X195208925Y-96905819D01*
X195209001Y-96906204D01*
X195212990Y-96946707D01*
X195213000Y-96946903D01*
X195213000Y-97029000D01*
X195212000Y-97030732D01*
X195210000Y-97030732D01*
X195209010Y-97029196D01*
X195203938Y-96977696D01*
X195188971Y-96928358D01*
X195164668Y-96882890D01*
X195131962Y-96843038D01*
X195092110Y-96810332D01*
X195046642Y-96786029D01*
X194997304Y-96771062D01*
X194945804Y-96765990D01*
X194944178Y-96764825D01*
X194944374Y-96762835D01*
X194946000Y-96762000D01*
X195028097Y-96762000D01*
X195028293Y-96762010D01*
G37*
G36*
X192402056Y-85207010D02*
G01*
X192508157Y-85217460D01*
X192508542Y-85217536D01*
X192604669Y-85246696D01*
X192605031Y-85246846D01*
X192693613Y-85294194D01*
X192693939Y-85294412D01*
X192771587Y-85358136D01*
X192771864Y-85358413D01*
X192835588Y-85436061D01*
X192835806Y-85436387D01*
X192883154Y-85524969D01*
X192883304Y-85525331D01*
X192912464Y-85621458D01*
X192912540Y-85621843D01*
X192917583Y-85673042D01*
X192922307Y-85696794D01*
X192931534Y-85719068D01*
X192944929Y-85739116D01*
X192961976Y-85756163D01*
X192982023Y-85769557D01*
X193004297Y-85778784D01*
X193027947Y-85783488D01*
X193052053Y-85783488D01*
X193075703Y-85778784D01*
X193097977Y-85769557D01*
X193118025Y-85756162D01*
X193135072Y-85739115D01*
X193148466Y-85719068D01*
X193157693Y-85696794D01*
X193162417Y-85673042D01*
X193167460Y-85621843D01*
X193167536Y-85621458D01*
X193196696Y-85525331D01*
X193196846Y-85524969D01*
X193244194Y-85436387D01*
X193244412Y-85436061D01*
X193308136Y-85358413D01*
X193308413Y-85358136D01*
X193386061Y-85294412D01*
X193386387Y-85294194D01*
X193474969Y-85246846D01*
X193475331Y-85246696D01*
X193571458Y-85217536D01*
X193571843Y-85217460D01*
X193677944Y-85207010D01*
X193678140Y-85207000D01*
X193734500Y-85207000D01*
X193736232Y-85208000D01*
X193736232Y-85210000D01*
X193734696Y-85210990D01*
X193622621Y-85222028D01*
X193515035Y-85254664D01*
X193415885Y-85307660D01*
X193328981Y-85378981D01*
X193257660Y-85465885D01*
X193204664Y-85565035D01*
X193172028Y-85672621D01*
X193161000Y-85784594D01*
X193161000Y-86935406D01*
X193172028Y-87047379D01*
X193204664Y-87154965D01*
X193257660Y-87254115D01*
X193328981Y-87341019D01*
X193415885Y-87412340D01*
X193515035Y-87465336D01*
X193622621Y-87497972D01*
X193734696Y-87509010D01*
X193736322Y-87510175D01*
X193736126Y-87512165D01*
X193734500Y-87513000D01*
X193678140Y-87513000D01*
X193677944Y-87512990D01*
X193571843Y-87502540D01*
X193571458Y-87502464D01*
X193475331Y-87473304D01*
X193474969Y-87473154D01*
X193386387Y-87425806D01*
X193386061Y-87425588D01*
X193308413Y-87361864D01*
X193308136Y-87361587D01*
X193244412Y-87283939D01*
X193244194Y-87283613D01*
X193196846Y-87195031D01*
X193196696Y-87194669D01*
X193167536Y-87098542D01*
X193167460Y-87098157D01*
X193162417Y-87046958D01*
X193157693Y-87023206D01*
X193148466Y-87000932D01*
X193135071Y-86980884D01*
X193118024Y-86963837D01*
X193097977Y-86950443D01*
X193075703Y-86941216D01*
X193052053Y-86936512D01*
X193027947Y-86936512D01*
X193004297Y-86941216D01*
X192982023Y-86950443D01*
X192961975Y-86963838D01*
X192944928Y-86980885D01*
X192931534Y-87000932D01*
X192922307Y-87023206D01*
X192917583Y-87046958D01*
X192912540Y-87098157D01*
X192912464Y-87098542D01*
X192883304Y-87194669D01*
X192883154Y-87195031D01*
X192835806Y-87283613D01*
X192835588Y-87283939D01*
X192771864Y-87361587D01*
X192771587Y-87361864D01*
X192693939Y-87425588D01*
X192693613Y-87425806D01*
X192605031Y-87473154D01*
X192604669Y-87473304D01*
X192508542Y-87502464D01*
X192508157Y-87502540D01*
X192402056Y-87512990D01*
X192401860Y-87513000D01*
X192345500Y-87513000D01*
X192343768Y-87512000D01*
X192343768Y-87510000D01*
X192345304Y-87509010D01*
X192457379Y-87497972D01*
X192564965Y-87465336D01*
X192664115Y-87412340D01*
X192751019Y-87341019D01*
X192822340Y-87254115D01*
X192875336Y-87154965D01*
X192907972Y-87047379D01*
X192919000Y-86935406D01*
X192919000Y-85784594D01*
X192907972Y-85672621D01*
X192875336Y-85565035D01*
X192822340Y-85465885D01*
X192751019Y-85378981D01*
X192664115Y-85307660D01*
X192564965Y-85254664D01*
X192457379Y-85222028D01*
X192345304Y-85210990D01*
X192343678Y-85209825D01*
X192343874Y-85207835D01*
X192345500Y-85207000D01*
X192401860Y-85207000D01*
X192402056Y-85207010D01*
G37*
G36*
X198002165Y-86933874D02*
G01*
X198003000Y-86935500D01*
X198003000Y-86991860D01*
X198002990Y-86992056D01*
X197992540Y-87098157D01*
X197992464Y-87098542D01*
X197963304Y-87194669D01*
X197963154Y-87195031D01*
X197915806Y-87283613D01*
X197915588Y-87283939D01*
X197851864Y-87361587D01*
X197851587Y-87361864D01*
X197773939Y-87425588D01*
X197773613Y-87425806D01*
X197685031Y-87473154D01*
X197684669Y-87473304D01*
X197588542Y-87502464D01*
X197588157Y-87502540D01*
X197482056Y-87512990D01*
X197481860Y-87513000D01*
X197425500Y-87513000D01*
X197423768Y-87512000D01*
X197423768Y-87510000D01*
X197425304Y-87509010D01*
X197537379Y-87497972D01*
X197644965Y-87465336D01*
X197744115Y-87412340D01*
X197831019Y-87341019D01*
X197902340Y-87254115D01*
X197955336Y-87154965D01*
X197987972Y-87047379D01*
X197999010Y-86935304D01*
X198000175Y-86933678D01*
X198002165Y-86933874D01*
G37*
G36*
X187322056Y-85207010D02*
G01*
X187428157Y-85217460D01*
X187428542Y-85217536D01*
X187524669Y-85246696D01*
X187525031Y-85246846D01*
X187613613Y-85294194D01*
X187613939Y-85294412D01*
X187691587Y-85358136D01*
X187691864Y-85358413D01*
X187755588Y-85436061D01*
X187755806Y-85436387D01*
X187803154Y-85524969D01*
X187803304Y-85525331D01*
X187832464Y-85621458D01*
X187832540Y-85621843D01*
X187837583Y-85673042D01*
X187842307Y-85696794D01*
X187851534Y-85719068D01*
X187864929Y-85739116D01*
X187881976Y-85756163D01*
X187902023Y-85769557D01*
X187924297Y-85778784D01*
X187947947Y-85783488D01*
X187972053Y-85783488D01*
X187995703Y-85778784D01*
X188017977Y-85769557D01*
X188038025Y-85756162D01*
X188055072Y-85739115D01*
X188068466Y-85719068D01*
X188077693Y-85696794D01*
X188082417Y-85673042D01*
X188087460Y-85621843D01*
X188087536Y-85621458D01*
X188116696Y-85525331D01*
X188116846Y-85524969D01*
X188164194Y-85436387D01*
X188164412Y-85436061D01*
X188228136Y-85358413D01*
X188228413Y-85358136D01*
X188306061Y-85294412D01*
X188306387Y-85294194D01*
X188394969Y-85246846D01*
X188395331Y-85246696D01*
X188491458Y-85217536D01*
X188491843Y-85217460D01*
X188597944Y-85207010D01*
X188598140Y-85207000D01*
X188654500Y-85207000D01*
X188656232Y-85208000D01*
X188656232Y-85210000D01*
X188654696Y-85210990D01*
X188542621Y-85222028D01*
X188435035Y-85254664D01*
X188335885Y-85307660D01*
X188248981Y-85378981D01*
X188177660Y-85465885D01*
X188124664Y-85565035D01*
X188092028Y-85672621D01*
X188081000Y-85784594D01*
X188081000Y-86935406D01*
X188092028Y-87047379D01*
X188124664Y-87154965D01*
X188177660Y-87254115D01*
X188248981Y-87341019D01*
X188335885Y-87412340D01*
X188435035Y-87465336D01*
X188542621Y-87497972D01*
X188654696Y-87509010D01*
X188656322Y-87510175D01*
X188656126Y-87512165D01*
X188654500Y-87513000D01*
X188598140Y-87513000D01*
X188597944Y-87512990D01*
X188491843Y-87502540D01*
X188491458Y-87502464D01*
X188395331Y-87473304D01*
X188394969Y-87473154D01*
X188306387Y-87425806D01*
X188306061Y-87425588D01*
X188228413Y-87361864D01*
X188228136Y-87361587D01*
X188164412Y-87283939D01*
X188164194Y-87283613D01*
X188116846Y-87195031D01*
X188116696Y-87194669D01*
X188087536Y-87098542D01*
X188087460Y-87098157D01*
X188082417Y-87046958D01*
X188077693Y-87023206D01*
X188068466Y-87000932D01*
X188055071Y-86980884D01*
X188038024Y-86963837D01*
X188017977Y-86950443D01*
X187995703Y-86941216D01*
X187972053Y-86936512D01*
X187947947Y-86936512D01*
X187924297Y-86941216D01*
X187902023Y-86950443D01*
X187881975Y-86963838D01*
X187864928Y-86980885D01*
X187851534Y-87000932D01*
X187842307Y-87023206D01*
X187837583Y-87046958D01*
X187832540Y-87098157D01*
X187832464Y-87098542D01*
X187803304Y-87194669D01*
X187803154Y-87195031D01*
X187755806Y-87283613D01*
X187755588Y-87283939D01*
X187691864Y-87361587D01*
X187691587Y-87361864D01*
X187613939Y-87425588D01*
X187613613Y-87425806D01*
X187525031Y-87473154D01*
X187524669Y-87473304D01*
X187428542Y-87502464D01*
X187428157Y-87502540D01*
X187322056Y-87512990D01*
X187321860Y-87513000D01*
X187265500Y-87513000D01*
X187263768Y-87512000D01*
X187263768Y-87510000D01*
X187265304Y-87509010D01*
X187377379Y-87497972D01*
X187484965Y-87465336D01*
X187584115Y-87412340D01*
X187671019Y-87341019D01*
X187742340Y-87254115D01*
X187795336Y-87154965D01*
X187827972Y-87047379D01*
X187839000Y-86935406D01*
X187839000Y-85784594D01*
X187827972Y-85672621D01*
X187795336Y-85565035D01*
X187742340Y-85465885D01*
X187671019Y-85378981D01*
X187584115Y-85307660D01*
X187484965Y-85254664D01*
X187377379Y-85222028D01*
X187265304Y-85210990D01*
X187263678Y-85209825D01*
X187263874Y-85207835D01*
X187265500Y-85207000D01*
X187321860Y-85207000D01*
X187322056Y-85207010D01*
G37*
G36*
X183576232Y-85208000D02*
G01*
X183576232Y-85210000D01*
X183574696Y-85210990D01*
X183462621Y-85222028D01*
X183355035Y-85254664D01*
X183255885Y-85307660D01*
X183168981Y-85378981D01*
X183097660Y-85465885D01*
X183044664Y-85565035D01*
X183012028Y-85672621D01*
X183001000Y-85784594D01*
X183001000Y-86935406D01*
X183012028Y-87047379D01*
X183044664Y-87154965D01*
X183097660Y-87254115D01*
X183168981Y-87341019D01*
X183255885Y-87412340D01*
X183355035Y-87465336D01*
X183462621Y-87497972D01*
X183574696Y-87509010D01*
X183576322Y-87510175D01*
X183576126Y-87512165D01*
X183574500Y-87513000D01*
X183518140Y-87513000D01*
X183517944Y-87512990D01*
X183411843Y-87502540D01*
X183411458Y-87502464D01*
X183315331Y-87473304D01*
X183314969Y-87473154D01*
X183226387Y-87425806D01*
X183226061Y-87425588D01*
X183148413Y-87361864D01*
X183148136Y-87361587D01*
X183084412Y-87283939D01*
X183084194Y-87283613D01*
X183036846Y-87195031D01*
X183036696Y-87194669D01*
X183004736Y-87089310D01*
X183004688Y-87089119D01*
X183003692Y-87084114D01*
X182994465Y-87061840D01*
X182981071Y-87041793D01*
X182964024Y-87024746D01*
X182943976Y-87011351D01*
X182921702Y-87002124D01*
X182898052Y-86997420D01*
X182873946Y-86997420D01*
X182850296Y-87002124D01*
X182828022Y-87011351D01*
X182807975Y-87024745D01*
X182790928Y-87041792D01*
X182777533Y-87061840D01*
X182768306Y-87084114D01*
X182763593Y-87107810D01*
X182762998Y-87119915D01*
X182761914Y-87121596D01*
X182759916Y-87121498D01*
X182759000Y-87119817D01*
X182759000Y-85600183D01*
X182760000Y-85598451D01*
X182762000Y-85598451D01*
X182762990Y-85599987D01*
X182765372Y-85624174D01*
X182772372Y-85647249D01*
X182783737Y-85668513D01*
X182799032Y-85687150D01*
X182817669Y-85702445D01*
X182838933Y-85713810D01*
X182862008Y-85720810D01*
X182885999Y-85723173D01*
X182909990Y-85720810D01*
X182933065Y-85713810D01*
X182954329Y-85702445D01*
X182972966Y-85687150D01*
X182988261Y-85668513D01*
X182999626Y-85647249D01*
X183003884Y-85633213D01*
X183004005Y-85633100D01*
X183036696Y-85525331D01*
X183036846Y-85524969D01*
X183084194Y-85436387D01*
X183084412Y-85436061D01*
X183148136Y-85358413D01*
X183148413Y-85358136D01*
X183226061Y-85294412D01*
X183226387Y-85294194D01*
X183314969Y-85246846D01*
X183315331Y-85246696D01*
X183411458Y-85217536D01*
X183411843Y-85217460D01*
X183517944Y-85207010D01*
X183518140Y-85207000D01*
X183574500Y-85207000D01*
X183576232Y-85208000D01*
G37*
G36*
X197482056Y-85207010D02*
G01*
X197588157Y-85217460D01*
X197588542Y-85217536D01*
X197684669Y-85246696D01*
X197685031Y-85246846D01*
X197773613Y-85294194D01*
X197773939Y-85294412D01*
X197851587Y-85358136D01*
X197851864Y-85358413D01*
X197915588Y-85436061D01*
X197915806Y-85436387D01*
X197963154Y-85524969D01*
X197963304Y-85525331D01*
X197992464Y-85621458D01*
X197992540Y-85621843D01*
X198002990Y-85727944D01*
X198003000Y-85728140D01*
X198003000Y-85784500D01*
X198002000Y-85786232D01*
X198000000Y-85786232D01*
X197999010Y-85784696D01*
X197987972Y-85672621D01*
X197955336Y-85565035D01*
X197902340Y-85465885D01*
X197831019Y-85378981D01*
X197744115Y-85307660D01*
X197644965Y-85254664D01*
X197537379Y-85222028D01*
X197425304Y-85210990D01*
X197423678Y-85209825D01*
X197423874Y-85207835D01*
X197425500Y-85207000D01*
X197481860Y-85207000D01*
X197482056Y-85207010D01*
G37*
G36*
X203801990Y-81483504D02*
G01*
X203812067Y-81585825D01*
X203841858Y-81684031D01*
X203890234Y-81774536D01*
X203955336Y-81853864D01*
X204034664Y-81918966D01*
X204125169Y-81967342D01*
X204223375Y-81997133D01*
X204325696Y-82007210D01*
X204327322Y-82008375D01*
X204327126Y-82010365D01*
X204325500Y-82011200D01*
X204269140Y-82011200D01*
X204268944Y-82011190D01*
X204172594Y-82001701D01*
X204172209Y-82001625D01*
X204085469Y-81975312D01*
X204085107Y-81975162D01*
X204005168Y-81932434D01*
X204004842Y-81932216D01*
X203934769Y-81874708D01*
X203934492Y-81874431D01*
X203876984Y-81804358D01*
X203876766Y-81804032D01*
X203834038Y-81724093D01*
X203833888Y-81723731D01*
X203807575Y-81636991D01*
X203807499Y-81636606D01*
X203798010Y-81540256D01*
X203798000Y-81540060D01*
X203798000Y-81483700D01*
X203799000Y-81481968D01*
X203801000Y-81481968D01*
X203801990Y-81483504D01*
G37*
G36*
X205903165Y-81482074D02*
G01*
X205904000Y-81483700D01*
X205904000Y-81540060D01*
X205903990Y-81540256D01*
X205894501Y-81636606D01*
X205894425Y-81636991D01*
X205868112Y-81723731D01*
X205867962Y-81724093D01*
X205825234Y-81804032D01*
X205825016Y-81804358D01*
X205767508Y-81874431D01*
X205767231Y-81874708D01*
X205697158Y-81932216D01*
X205696832Y-81932434D01*
X205616893Y-81975162D01*
X205616531Y-81975312D01*
X205529791Y-82001625D01*
X205529406Y-82001701D01*
X205433056Y-82011190D01*
X205432860Y-82011200D01*
X205376500Y-82011200D01*
X205374768Y-82010200D01*
X205374768Y-82008200D01*
X205376304Y-82007210D01*
X205478625Y-81997133D01*
X205576831Y-81967342D01*
X205667336Y-81918966D01*
X205746664Y-81853864D01*
X205811766Y-81774536D01*
X205860142Y-81684031D01*
X205889933Y-81585825D01*
X205900010Y-81483504D01*
X205901175Y-81481878D01*
X205903165Y-81482074D01*
G37*
G36*
X204327232Y-76906200D02*
G01*
X204327232Y-76908200D01*
X204325696Y-76909190D01*
X204223375Y-76919267D01*
X204125169Y-76949058D01*
X204034664Y-76997434D01*
X203955336Y-77062536D01*
X203890234Y-77141864D01*
X203841858Y-77232369D01*
X203812067Y-77330575D01*
X203801990Y-77432896D01*
X203800825Y-77434522D01*
X203798835Y-77434326D01*
X203798000Y-77432700D01*
X203798000Y-77376340D01*
X203798010Y-77376144D01*
X203807499Y-77279794D01*
X203807575Y-77279409D01*
X203833888Y-77192669D01*
X203834038Y-77192307D01*
X203876766Y-77112368D01*
X203876984Y-77112042D01*
X203934492Y-77041969D01*
X203934769Y-77041692D01*
X204004842Y-76984184D01*
X204005168Y-76983966D01*
X204085107Y-76941238D01*
X204085469Y-76941088D01*
X204172209Y-76914775D01*
X204172594Y-76914699D01*
X204268944Y-76905210D01*
X204269140Y-76905200D01*
X204325500Y-76905200D01*
X204327232Y-76906200D01*
G37*
G36*
X205433056Y-76905210D02*
G01*
X205529406Y-76914699D01*
X205529791Y-76914775D01*
X205616531Y-76941088D01*
X205616893Y-76941238D01*
X205696832Y-76983966D01*
X205697158Y-76984184D01*
X205767231Y-77041692D01*
X205767508Y-77041969D01*
X205825016Y-77112042D01*
X205825234Y-77112368D01*
X205867962Y-77192307D01*
X205868112Y-77192669D01*
X205894425Y-77279409D01*
X205894501Y-77279794D01*
X205903990Y-77376144D01*
X205904000Y-77376340D01*
X205904000Y-77432700D01*
X205903000Y-77434432D01*
X205901000Y-77434432D01*
X205900010Y-77432896D01*
X205889933Y-77330575D01*
X205860142Y-77232369D01*
X205811766Y-77141864D01*
X205746664Y-77062536D01*
X205667336Y-76997434D01*
X205576831Y-76949058D01*
X205478625Y-76919267D01*
X205376304Y-76909190D01*
X205374678Y-76908025D01*
X205374874Y-76906035D01*
X205376500Y-76905200D01*
X205432860Y-76905200D01*
X205433056Y-76905210D01*
G37*
G36*
X103287165Y-75423874D02*
G01*
X103288000Y-75425500D01*
X103288000Y-75481860D01*
X103287990Y-75482056D01*
X103278501Y-75578406D01*
X103278425Y-75578791D01*
X103252112Y-75665531D01*
X103251962Y-75665893D01*
X103209234Y-75745832D01*
X103209016Y-75746158D01*
X103151508Y-75816231D01*
X103151231Y-75816508D01*
X103081158Y-75874016D01*
X103080832Y-75874234D01*
X103000893Y-75916962D01*
X103000531Y-75917112D01*
X102913791Y-75943425D01*
X102913406Y-75943501D01*
X102817056Y-75952990D01*
X102816860Y-75953000D01*
X102760500Y-75953000D01*
X102758768Y-75952000D01*
X102758768Y-75950000D01*
X102760304Y-75949010D01*
X102862625Y-75938933D01*
X102960831Y-75909142D01*
X103051336Y-75860766D01*
X103130664Y-75795664D01*
X103195766Y-75716336D01*
X103244142Y-75625831D01*
X103273933Y-75527625D01*
X103284010Y-75425304D01*
X103285175Y-75423678D01*
X103287165Y-75423874D01*
G37*
G36*
X101185990Y-75425304D02*
G01*
X101196067Y-75527625D01*
X101225858Y-75625831D01*
X101274234Y-75716336D01*
X101339336Y-75795664D01*
X101418664Y-75860766D01*
X101509169Y-75909142D01*
X101607375Y-75938933D01*
X101709696Y-75949010D01*
X101711322Y-75950175D01*
X101711126Y-75952165D01*
X101709500Y-75953000D01*
X101653140Y-75953000D01*
X101652944Y-75952990D01*
X101556594Y-75943501D01*
X101556209Y-75943425D01*
X101469469Y-75917112D01*
X101469107Y-75916962D01*
X101389168Y-75874234D01*
X101388842Y-75874016D01*
X101318769Y-75816508D01*
X101318492Y-75816231D01*
X101260984Y-75746158D01*
X101260766Y-75745832D01*
X101218038Y-75665893D01*
X101217888Y-75665531D01*
X101191575Y-75578791D01*
X101191499Y-75578406D01*
X101182010Y-75482056D01*
X101182000Y-75481860D01*
X101182000Y-75425500D01*
X101183000Y-75423768D01*
X101185000Y-75423768D01*
X101185990Y-75425304D01*
G37*
G36*
X150357291Y-74301173D02*
G01*
X150357441Y-74302994D01*
X150337885Y-74350206D01*
X150326449Y-74407696D01*
X150326449Y-74466304D01*
X150337885Y-74523794D01*
X150357441Y-74571005D01*
X150357180Y-74572988D01*
X150355332Y-74573753D01*
X150353829Y-74572713D01*
X150345262Y-74556685D01*
X150329966Y-74538048D01*
X150311329Y-74522753D01*
X150290066Y-74511388D01*
X150266991Y-74504388D01*
X150242999Y-74502025D01*
X150219008Y-74504388D01*
X150195933Y-74511388D01*
X150174670Y-74522753D01*
X150156033Y-74538049D01*
X150140738Y-74556686D01*
X150132171Y-74572714D01*
X150130472Y-74573770D01*
X150128709Y-74572827D01*
X150128559Y-74571006D01*
X150148115Y-74523794D01*
X150159551Y-74466304D01*
X150159551Y-74407696D01*
X150148115Y-74350206D01*
X150128559Y-74302995D01*
X150128820Y-74301012D01*
X150130668Y-74300247D01*
X150132171Y-74301287D01*
X150140738Y-74317315D01*
X150156034Y-74335952D01*
X150174671Y-74351247D01*
X150195934Y-74362612D01*
X150219009Y-74369612D01*
X150243001Y-74371975D01*
X150266992Y-74369612D01*
X150290067Y-74362612D01*
X150311330Y-74351247D01*
X150329967Y-74335951D01*
X150345262Y-74317314D01*
X150353829Y-74301286D01*
X150355528Y-74300230D01*
X150357291Y-74301173D01*
G37*
G36*
X151119291Y-74301173D02*
G01*
X151119441Y-74302994D01*
X151099885Y-74350206D01*
X151088449Y-74407696D01*
X151088449Y-74466304D01*
X151099885Y-74523794D01*
X151119441Y-74571005D01*
X151119180Y-74572988D01*
X151117332Y-74573753D01*
X151115829Y-74572713D01*
X151107262Y-74556685D01*
X151091966Y-74538048D01*
X151073329Y-74522753D01*
X151052066Y-74511388D01*
X151028991Y-74504388D01*
X151004999Y-74502025D01*
X150981008Y-74504388D01*
X150957933Y-74511388D01*
X150936670Y-74522753D01*
X150918033Y-74538049D01*
X150902738Y-74556686D01*
X150894171Y-74572714D01*
X150892472Y-74573770D01*
X150890709Y-74572827D01*
X150890559Y-74571006D01*
X150910115Y-74523794D01*
X150921551Y-74466304D01*
X150921551Y-74407696D01*
X150910115Y-74350206D01*
X150890559Y-74302995D01*
X150890820Y-74301012D01*
X150892668Y-74300247D01*
X150894171Y-74301287D01*
X150902738Y-74317315D01*
X150918034Y-74335952D01*
X150936671Y-74351247D01*
X150957934Y-74362612D01*
X150981009Y-74369612D01*
X151005001Y-74371975D01*
X151028992Y-74369612D01*
X151052067Y-74362612D01*
X151073330Y-74351247D01*
X151091967Y-74335951D01*
X151107262Y-74317314D01*
X151115829Y-74301286D01*
X151117528Y-74300230D01*
X151119291Y-74301173D01*
G37*
G36*
X150759988Y-73941820D02*
G01*
X150760753Y-73943668D01*
X150759713Y-73945171D01*
X150743685Y-73953738D01*
X150725048Y-73969034D01*
X150709753Y-73987671D01*
X150698388Y-74008934D01*
X150691388Y-74032009D01*
X150689025Y-74056001D01*
X150691388Y-74079992D01*
X150698388Y-74103067D01*
X150709753Y-74124330D01*
X150725049Y-74142967D01*
X150743686Y-74158262D01*
X150759714Y-74166829D01*
X150760770Y-74168528D01*
X150759827Y-74170291D01*
X150758006Y-74170441D01*
X150710794Y-74150885D01*
X150653304Y-74139449D01*
X150594696Y-74139449D01*
X150537206Y-74150885D01*
X150489995Y-74170441D01*
X150488012Y-74170180D01*
X150487247Y-74168332D01*
X150488287Y-74166829D01*
X150504315Y-74158262D01*
X150522952Y-74142966D01*
X150538247Y-74124329D01*
X150549612Y-74103066D01*
X150556612Y-74079991D01*
X150558975Y-74055999D01*
X150556612Y-74032008D01*
X150549612Y-74008933D01*
X150538247Y-73987670D01*
X150522951Y-73969033D01*
X150504314Y-73953738D01*
X150488286Y-73945171D01*
X150487230Y-73943472D01*
X150488173Y-73941709D01*
X150489994Y-73941559D01*
X150537206Y-73961115D01*
X150594696Y-73972551D01*
X150653304Y-73972551D01*
X150710794Y-73961115D01*
X150758005Y-73941559D01*
X150759988Y-73941820D01*
G37*
G36*
X148727988Y-73941820D02*
G01*
X148728753Y-73943668D01*
X148727713Y-73945171D01*
X148711685Y-73953738D01*
X148693048Y-73969034D01*
X148677753Y-73987671D01*
X148666388Y-74008934D01*
X148659388Y-74032009D01*
X148657025Y-74056001D01*
X148659388Y-74079992D01*
X148666388Y-74103067D01*
X148677753Y-74124330D01*
X148693049Y-74142967D01*
X148711686Y-74158262D01*
X148727714Y-74166829D01*
X148728770Y-74168528D01*
X148727827Y-74170291D01*
X148726006Y-74170441D01*
X148678794Y-74150885D01*
X148621304Y-74139449D01*
X148562696Y-74139449D01*
X148505206Y-74150885D01*
X148457995Y-74170441D01*
X148456012Y-74170180D01*
X148455247Y-74168332D01*
X148456287Y-74166829D01*
X148472315Y-74158262D01*
X148490952Y-74142966D01*
X148506247Y-74124329D01*
X148517612Y-74103066D01*
X148524612Y-74079991D01*
X148526975Y-74055999D01*
X148524612Y-74032008D01*
X148517612Y-74008933D01*
X148506247Y-73987670D01*
X148490951Y-73969033D01*
X148472314Y-73953738D01*
X148456286Y-73945171D01*
X148455230Y-73943472D01*
X148456173Y-73941709D01*
X148457994Y-73941559D01*
X148505206Y-73961115D01*
X148562696Y-73972551D01*
X148621304Y-73972551D01*
X148678794Y-73961115D01*
X148726005Y-73941559D01*
X148727988Y-73941820D01*
G37*
G36*
X149997988Y-73941820D02*
G01*
X149998753Y-73943668D01*
X149997713Y-73945171D01*
X149981685Y-73953738D01*
X149963048Y-73969034D01*
X149947753Y-73987671D01*
X149936388Y-74008934D01*
X149929388Y-74032009D01*
X149927025Y-74056001D01*
X149929388Y-74079992D01*
X149936388Y-74103067D01*
X149947753Y-74124330D01*
X149963049Y-74142967D01*
X149981686Y-74158262D01*
X149997714Y-74166829D01*
X149998770Y-74168528D01*
X149997827Y-74170291D01*
X149996006Y-74170441D01*
X149948794Y-74150885D01*
X149891304Y-74139449D01*
X149832696Y-74139449D01*
X149775206Y-74150885D01*
X149727995Y-74170441D01*
X149726012Y-74170180D01*
X149725247Y-74168332D01*
X149726287Y-74166829D01*
X149742315Y-74158262D01*
X149760952Y-74142966D01*
X149776247Y-74124329D01*
X149787612Y-74103066D01*
X149794612Y-74079991D01*
X149796975Y-74055999D01*
X149794612Y-74032008D01*
X149787612Y-74008933D01*
X149776247Y-73987670D01*
X149760951Y-73969033D01*
X149742314Y-73953738D01*
X149726286Y-73945171D01*
X149725230Y-73943472D01*
X149726173Y-73941709D01*
X149727994Y-73941559D01*
X149775206Y-73961115D01*
X149832696Y-73972551D01*
X149891304Y-73972551D01*
X149948794Y-73961115D01*
X149996005Y-73941559D01*
X149997988Y-73941820D01*
G37*
G36*
X150357291Y-73539173D02*
G01*
X150357441Y-73540994D01*
X150337885Y-73588206D01*
X150326449Y-73645696D01*
X150326449Y-73704304D01*
X150337885Y-73761794D01*
X150357441Y-73809005D01*
X150357180Y-73810988D01*
X150355332Y-73811753D01*
X150353829Y-73810713D01*
X150345262Y-73794685D01*
X150329966Y-73776048D01*
X150311329Y-73760753D01*
X150290066Y-73749388D01*
X150266991Y-73742388D01*
X150242999Y-73740025D01*
X150219008Y-73742388D01*
X150195933Y-73749388D01*
X150174670Y-73760753D01*
X150156033Y-73776049D01*
X150140738Y-73794686D01*
X150132171Y-73810714D01*
X150130472Y-73811770D01*
X150128709Y-73810827D01*
X150128559Y-73809006D01*
X150148115Y-73761794D01*
X150159551Y-73704304D01*
X150159551Y-73645696D01*
X150148115Y-73588206D01*
X150128559Y-73540995D01*
X150128820Y-73539012D01*
X150130668Y-73538247D01*
X150132171Y-73539287D01*
X150140738Y-73555315D01*
X150156034Y-73573952D01*
X150174671Y-73589247D01*
X150195934Y-73600612D01*
X150219009Y-73607612D01*
X150243001Y-73609975D01*
X150266992Y-73607612D01*
X150290067Y-73600612D01*
X150311330Y-73589247D01*
X150329967Y-73573951D01*
X150345262Y-73555314D01*
X150353829Y-73539286D01*
X150355528Y-73538230D01*
X150357291Y-73539173D01*
G37*
G36*
X149997988Y-73179820D02*
G01*
X149998753Y-73181668D01*
X149997713Y-73183171D01*
X149981685Y-73191738D01*
X149963048Y-73207034D01*
X149947753Y-73225671D01*
X149936388Y-73246934D01*
X149929388Y-73270009D01*
X149927025Y-73294001D01*
X149929388Y-73317992D01*
X149936388Y-73341067D01*
X149947753Y-73362330D01*
X149963049Y-73380967D01*
X149981686Y-73396262D01*
X149997714Y-73404829D01*
X149998770Y-73406528D01*
X149997827Y-73408291D01*
X149996006Y-73408441D01*
X149948794Y-73388885D01*
X149891304Y-73377449D01*
X149832696Y-73377449D01*
X149775206Y-73388885D01*
X149727995Y-73408441D01*
X149726012Y-73408180D01*
X149725247Y-73406332D01*
X149726287Y-73404829D01*
X149742315Y-73396262D01*
X149760952Y-73380966D01*
X149776247Y-73362329D01*
X149787612Y-73341066D01*
X149794612Y-73317991D01*
X149796975Y-73293999D01*
X149794612Y-73270008D01*
X149787612Y-73246933D01*
X149776247Y-73225670D01*
X149760951Y-73207033D01*
X149742314Y-73191738D01*
X149726286Y-73183171D01*
X149725230Y-73181472D01*
X149726173Y-73179709D01*
X149727994Y-73179559D01*
X149775206Y-73199115D01*
X149832696Y-73210551D01*
X149891304Y-73210551D01*
X149948794Y-73199115D01*
X149996005Y-73179559D01*
X149997988Y-73179820D01*
G37*
G36*
X150759988Y-73179820D02*
G01*
X150760753Y-73181668D01*
X150759713Y-73183171D01*
X150743685Y-73191738D01*
X150725048Y-73207034D01*
X150709753Y-73225671D01*
X150698388Y-73246934D01*
X150691388Y-73270009D01*
X150689025Y-73294001D01*
X150691388Y-73317992D01*
X150698388Y-73341067D01*
X150709753Y-73362330D01*
X150725049Y-73380967D01*
X150743686Y-73396262D01*
X150759714Y-73404829D01*
X150760770Y-73406528D01*
X150759827Y-73408291D01*
X150758006Y-73408441D01*
X150710794Y-73388885D01*
X150653304Y-73377449D01*
X150594696Y-73377449D01*
X150537206Y-73388885D01*
X150489995Y-73408441D01*
X150488012Y-73408180D01*
X150487247Y-73406332D01*
X150488287Y-73404829D01*
X150504315Y-73396262D01*
X150522952Y-73380966D01*
X150538247Y-73362329D01*
X150549612Y-73341066D01*
X150556612Y-73317991D01*
X150558975Y-73293999D01*
X150556612Y-73270008D01*
X150549612Y-73246933D01*
X150538247Y-73225670D01*
X150522951Y-73207033D01*
X150504314Y-73191738D01*
X150488286Y-73183171D01*
X150487230Y-73181472D01*
X150488173Y-73179709D01*
X150489994Y-73179559D01*
X150537206Y-73199115D01*
X150594696Y-73210551D01*
X150653304Y-73210551D01*
X150710794Y-73199115D01*
X150758005Y-73179559D01*
X150759988Y-73179820D01*
G37*
G36*
X148727988Y-73179820D02*
G01*
X148728753Y-73181668D01*
X148727713Y-73183171D01*
X148711685Y-73191738D01*
X148693048Y-73207034D01*
X148677753Y-73225671D01*
X148666388Y-73246934D01*
X148659388Y-73270009D01*
X148657025Y-73294001D01*
X148659388Y-73317992D01*
X148666388Y-73341067D01*
X148677753Y-73362330D01*
X148693049Y-73380967D01*
X148711686Y-73396262D01*
X148727714Y-73404829D01*
X148728770Y-73406528D01*
X148727827Y-73408291D01*
X148726006Y-73408441D01*
X148678794Y-73388885D01*
X148621304Y-73377449D01*
X148562696Y-73377449D01*
X148505206Y-73388885D01*
X148457995Y-73408441D01*
X148456012Y-73408180D01*
X148455247Y-73406332D01*
X148456287Y-73404829D01*
X148472315Y-73396262D01*
X148490952Y-73380966D01*
X148506247Y-73362329D01*
X148517612Y-73341066D01*
X148524612Y-73317991D01*
X148526975Y-73293999D01*
X148524612Y-73270008D01*
X148517612Y-73246933D01*
X148506247Y-73225670D01*
X148490951Y-73207033D01*
X148472314Y-73191738D01*
X148456286Y-73183171D01*
X148455230Y-73181472D01*
X148456173Y-73179709D01*
X148457994Y-73179559D01*
X148505206Y-73199115D01*
X148562696Y-73210551D01*
X148621304Y-73210551D01*
X148678794Y-73199115D01*
X148726005Y-73179559D01*
X148727988Y-73179820D01*
G37*
G36*
X150357291Y-72777173D02*
G01*
X150357441Y-72778994D01*
X150337885Y-72826206D01*
X150326449Y-72883696D01*
X150326449Y-72942304D01*
X150337885Y-72999794D01*
X150357441Y-73047005D01*
X150357180Y-73048988D01*
X150355332Y-73049753D01*
X150353829Y-73048713D01*
X150345262Y-73032685D01*
X150329966Y-73014048D01*
X150311329Y-72998753D01*
X150290066Y-72987388D01*
X150266991Y-72980388D01*
X150242999Y-72978025D01*
X150219008Y-72980388D01*
X150195933Y-72987388D01*
X150174670Y-72998753D01*
X150156033Y-73014049D01*
X150140738Y-73032686D01*
X150132171Y-73048714D01*
X150130472Y-73049770D01*
X150128709Y-73048827D01*
X150128559Y-73047006D01*
X150148115Y-72999794D01*
X150159551Y-72942304D01*
X150159551Y-72883696D01*
X150148115Y-72826206D01*
X150128559Y-72778995D01*
X150128820Y-72777012D01*
X150130668Y-72776247D01*
X150132171Y-72777287D01*
X150140738Y-72793315D01*
X150156034Y-72811952D01*
X150174671Y-72827247D01*
X150195934Y-72838612D01*
X150219009Y-72845612D01*
X150243001Y-72847975D01*
X150266992Y-72845612D01*
X150290067Y-72838612D01*
X150311330Y-72827247D01*
X150329967Y-72811951D01*
X150345262Y-72793314D01*
X150353829Y-72777286D01*
X150355528Y-72776230D01*
X150357291Y-72777173D01*
G37*
G36*
X149087291Y-71507173D02*
G01*
X149087441Y-71508994D01*
X149067885Y-71556206D01*
X149056449Y-71613696D01*
X149056449Y-71672304D01*
X149067885Y-71729794D01*
X149087441Y-71777005D01*
X149087180Y-71778988D01*
X149085332Y-71779753D01*
X149083829Y-71778713D01*
X149075262Y-71762685D01*
X149059966Y-71744048D01*
X149041329Y-71728753D01*
X149020066Y-71717388D01*
X148996991Y-71710388D01*
X148972999Y-71708025D01*
X148949008Y-71710388D01*
X148925933Y-71717388D01*
X148904670Y-71728753D01*
X148886033Y-71744049D01*
X148870738Y-71762686D01*
X148862171Y-71778714D01*
X148860472Y-71779770D01*
X148858709Y-71778827D01*
X148858559Y-71777006D01*
X148878115Y-71729794D01*
X148889551Y-71672304D01*
X148889551Y-71613696D01*
X148878115Y-71556206D01*
X148858559Y-71508995D01*
X148858820Y-71507012D01*
X148860668Y-71506247D01*
X148862171Y-71507287D01*
X148870738Y-71523315D01*
X148886034Y-71541952D01*
X148904671Y-71557247D01*
X148925934Y-71568612D01*
X148949009Y-71575612D01*
X148973001Y-71577975D01*
X148996992Y-71575612D01*
X149020067Y-71568612D01*
X149041330Y-71557247D01*
X149059967Y-71541951D01*
X149075262Y-71523314D01*
X149083829Y-71507286D01*
X149085528Y-71506230D01*
X149087291Y-71507173D01*
G37*
G36*
X149849291Y-71507173D02*
G01*
X149849441Y-71508994D01*
X149829885Y-71556206D01*
X149818449Y-71613696D01*
X149818449Y-71672304D01*
X149829885Y-71729794D01*
X149849441Y-71777005D01*
X149849180Y-71778988D01*
X149847332Y-71779753D01*
X149845829Y-71778713D01*
X149837262Y-71762685D01*
X149821966Y-71744048D01*
X149803329Y-71728753D01*
X149782066Y-71717388D01*
X149758991Y-71710388D01*
X149734999Y-71708025D01*
X149711008Y-71710388D01*
X149687933Y-71717388D01*
X149666670Y-71728753D01*
X149648033Y-71744049D01*
X149632738Y-71762686D01*
X149624171Y-71778714D01*
X149622472Y-71779770D01*
X149620709Y-71778827D01*
X149620559Y-71777006D01*
X149640115Y-71729794D01*
X149651551Y-71672304D01*
X149651551Y-71613696D01*
X149640115Y-71556206D01*
X149620559Y-71508995D01*
X149620820Y-71507012D01*
X149622668Y-71506247D01*
X149624171Y-71507287D01*
X149632738Y-71523315D01*
X149648034Y-71541952D01*
X149666671Y-71557247D01*
X149687934Y-71568612D01*
X149711009Y-71575612D01*
X149735001Y-71577975D01*
X149758992Y-71575612D01*
X149782067Y-71568612D01*
X149803330Y-71557247D01*
X149821967Y-71541951D01*
X149837262Y-71523314D01*
X149845829Y-71507286D01*
X149847528Y-71506230D01*
X149849291Y-71507173D01*
G37*
G36*
X150611291Y-71507173D02*
G01*
X150611441Y-71508994D01*
X150591885Y-71556206D01*
X150580449Y-71613696D01*
X150580449Y-71672304D01*
X150591885Y-71729794D01*
X150611441Y-71777005D01*
X150611180Y-71778988D01*
X150609332Y-71779753D01*
X150607829Y-71778713D01*
X150599262Y-71762685D01*
X150583966Y-71744048D01*
X150565329Y-71728753D01*
X150544066Y-71717388D01*
X150520991Y-71710388D01*
X150496999Y-71708025D01*
X150473008Y-71710388D01*
X150449933Y-71717388D01*
X150428670Y-71728753D01*
X150410033Y-71744049D01*
X150394738Y-71762686D01*
X150386171Y-71778714D01*
X150384472Y-71779770D01*
X150382709Y-71778827D01*
X150382559Y-71777006D01*
X150402115Y-71729794D01*
X150413551Y-71672304D01*
X150413551Y-71613696D01*
X150402115Y-71556206D01*
X150382559Y-71508995D01*
X150382820Y-71507012D01*
X150384668Y-71506247D01*
X150386171Y-71507287D01*
X150394738Y-71523315D01*
X150410034Y-71541952D01*
X150428671Y-71557247D01*
X150449934Y-71568612D01*
X150473009Y-71575612D01*
X150497001Y-71577975D01*
X150520992Y-71575612D01*
X150544067Y-71568612D01*
X150565330Y-71557247D01*
X150583967Y-71541951D01*
X150599262Y-71523314D01*
X150607829Y-71507286D01*
X150609528Y-71506230D01*
X150611291Y-71507173D01*
G37*
G36*
X101711232Y-70848000D02*
G01*
X101711232Y-70850000D01*
X101709696Y-70850990D01*
X101607375Y-70861067D01*
X101509169Y-70890858D01*
X101418664Y-70939234D01*
X101339336Y-71004336D01*
X101274234Y-71083664D01*
X101225858Y-71174169D01*
X101196067Y-71272375D01*
X101185990Y-71374696D01*
X101184825Y-71376322D01*
X101182835Y-71376126D01*
X101182000Y-71374500D01*
X101182000Y-71318140D01*
X101182010Y-71317944D01*
X101191499Y-71221594D01*
X101191575Y-71221209D01*
X101217888Y-71134469D01*
X101218038Y-71134107D01*
X101260766Y-71054168D01*
X101260984Y-71053842D01*
X101318492Y-70983769D01*
X101318769Y-70983492D01*
X101388842Y-70925984D01*
X101389168Y-70925766D01*
X101469107Y-70883038D01*
X101469469Y-70882888D01*
X101556209Y-70856575D01*
X101556594Y-70856499D01*
X101652944Y-70847010D01*
X101653140Y-70847000D01*
X101709500Y-70847000D01*
X101711232Y-70848000D01*
G37*
G36*
X102817056Y-70847010D02*
G01*
X102913406Y-70856499D01*
X102913791Y-70856575D01*
X103000531Y-70882888D01*
X103000893Y-70883038D01*
X103080832Y-70925766D01*
X103081158Y-70925984D01*
X103151231Y-70983492D01*
X103151508Y-70983769D01*
X103209016Y-71053842D01*
X103209234Y-71054168D01*
X103251962Y-71134107D01*
X103252112Y-71134469D01*
X103278425Y-71221209D01*
X103278501Y-71221594D01*
X103287990Y-71317944D01*
X103288000Y-71318140D01*
X103288000Y-71374500D01*
X103287000Y-71376232D01*
X103285000Y-71376232D01*
X103284010Y-71374696D01*
X103273933Y-71272375D01*
X103244142Y-71174169D01*
X103195766Y-71083664D01*
X103130664Y-71004336D01*
X103051336Y-70939234D01*
X102960831Y-70890858D01*
X102862625Y-70861067D01*
X102760304Y-70850990D01*
X102758678Y-70849825D01*
X102758874Y-70847835D01*
X102760500Y-70847000D01*
X102816860Y-70847000D01*
X102817056Y-70847010D01*
G37*
M02*
