G04 #@! TF.GenerationSoftware,KiCad,Pcbnew,(5.1.12)-1*
G04 #@! TF.CreationDate,2022-02-11T11:39:20+01:00*
G04 #@! TF.ProjectId,Main_Board,4d61696e-5f42-46f6-9172-642e6b696361,rev?*
G04 #@! TF.SameCoordinates,Original*
G04 #@! TF.FileFunction,Copper,L4,Bot*
G04 #@! TF.FilePolarity,Positive*
%FSLAX46Y46*%
G04 Gerber Fmt 4.6, Leading zero omitted, Abs format (unit mm)*
G04 Created by KiCad (PCBNEW (5.1.12)-1) date 2022-02-11 11:39:20*
%MOMM*%
%LPD*%
G01*
G04 APERTURE LIST*
G04 #@! TA.AperFunction,ComponentPad*
%ADD10C,0.500000*%
G04 #@! TD*
G04 #@! TA.AperFunction,ComponentPad*
%ADD11R,2.200000X2.200000*%
G04 #@! TD*
G04 #@! TA.AperFunction,ComponentPad*
%ADD12C,1.524000*%
G04 #@! TD*
G04 #@! TA.AperFunction,ComponentPad*
%ADD13R,2.000000X2.000000*%
G04 #@! TD*
G04 #@! TA.AperFunction,SMDPad,CuDef*
%ADD14R,1.500000X2.200000*%
G04 #@! TD*
G04 #@! TA.AperFunction,ComponentPad*
%ADD15C,1.308000*%
G04 #@! TD*
G04 #@! TA.AperFunction,ComponentPad*
%ADD16O,1.200000X1.650000*%
G04 #@! TD*
G04 #@! TA.AperFunction,ComponentPad*
%ADD17C,3.660000*%
G04 #@! TD*
G04 #@! TA.AperFunction,ComponentPad*
%ADD18O,1.700000X1.700000*%
G04 #@! TD*
G04 #@! TA.AperFunction,ComponentPad*
%ADD19R,1.700000X1.700000*%
G04 #@! TD*
G04 #@! TA.AperFunction,SMDPad,CuDef*
%ADD20R,2.000000X2.500000*%
G04 #@! TD*
G04 #@! TA.AperFunction,SMDPad,CuDef*
%ADD21R,2.000000X2.000000*%
G04 #@! TD*
G04 #@! TA.AperFunction,ComponentPad*
%ADD22O,1.700000X1.950000*%
G04 #@! TD*
G04 #@! TA.AperFunction,ComponentPad*
%ADD23O,2.000000X1.700000*%
G04 #@! TD*
G04 #@! TA.AperFunction,ComponentPad*
%ADD24C,1.500000*%
G04 #@! TD*
G04 #@! TA.AperFunction,ComponentPad*
%ADD25O,1.200000X2.400000*%
G04 #@! TD*
G04 #@! TA.AperFunction,ComponentPad*
%ADD26R,3.716000X3.716000*%
G04 #@! TD*
G04 #@! TA.AperFunction,ComponentPad*
%ADD27C,3.716000*%
G04 #@! TD*
G04 #@! TA.AperFunction,ViaPad*
%ADD28C,0.800000*%
G04 #@! TD*
G04 #@! TA.AperFunction,ViaPad*
%ADD29C,0.400000*%
G04 #@! TD*
G04 #@! TA.AperFunction,Conductor*
%ADD30C,0.500000*%
G04 #@! TD*
G04 #@! TA.AperFunction,Conductor*
%ADD31C,0.250000*%
G04 #@! TD*
G04 #@! TA.AperFunction,Conductor*
%ADD32C,0.127000*%
G04 #@! TD*
G04 #@! TA.AperFunction,Conductor*
%ADD33C,0.750000*%
G04 #@! TD*
G04 #@! TA.AperFunction,Conductor*
%ADD34C,0.300000*%
G04 #@! TD*
G04 #@! TA.AperFunction,Conductor*
%ADD35C,0.100000*%
G04 #@! TD*
G04 #@! TA.AperFunction,Conductor*
%ADD36C,0.254000*%
G04 #@! TD*
G04 APERTURE END LIST*
D10*
X148592000Y-71643000D03*
X149354000Y-71643000D03*
X150116000Y-71643000D03*
X150878000Y-71643000D03*
X148592000Y-72913000D03*
X148592000Y-73675000D03*
X148592000Y-74437000D03*
X149862000Y-72913000D03*
X150624000Y-72913000D03*
X150624000Y-73675000D03*
X149862000Y-73675000D03*
X149862000Y-74437000D03*
X150624000Y-74437000D03*
X151386000Y-74437000D03*
G04 #@! TA.AperFunction,ComponentPad*
G36*
G01*
X196300000Y-119804000D02*
X197400000Y-119804000D01*
G75*
G02*
X197950000Y-120354000I0J-550000D01*
G01*
X197950000Y-121454000D01*
G75*
G02*
X197400000Y-122004000I-550000J0D01*
G01*
X196300000Y-122004000D01*
G75*
G02*
X195750000Y-121454000I0J550000D01*
G01*
X195750000Y-120354000D01*
G75*
G02*
X196300000Y-119804000I550000J0D01*
G01*
G37*
G04 #@! TD.AperFunction*
G04 #@! TA.AperFunction,ComponentPad*
G36*
G01*
X193760000Y-119804000D02*
X194860000Y-119804000D01*
G75*
G02*
X195410000Y-120354000I0J-550000D01*
G01*
X195410000Y-121454000D01*
G75*
G02*
X194860000Y-122004000I-550000J0D01*
G01*
X193760000Y-122004000D01*
G75*
G02*
X193210000Y-121454000I0J550000D01*
G01*
X193210000Y-120354000D01*
G75*
G02*
X193760000Y-119804000I550000J0D01*
G01*
G37*
G04 #@! TD.AperFunction*
G04 #@! TA.AperFunction,ComponentPad*
G36*
G01*
X191220000Y-119804000D02*
X192320000Y-119804000D01*
G75*
G02*
X192870000Y-120354000I0J-550000D01*
G01*
X192870000Y-121454000D01*
G75*
G02*
X192320000Y-122004000I-550000J0D01*
G01*
X191220000Y-122004000D01*
G75*
G02*
X190670000Y-121454000I0J550000D01*
G01*
X190670000Y-120354000D01*
G75*
G02*
X191220000Y-119804000I550000J0D01*
G01*
G37*
G04 #@! TD.AperFunction*
G04 #@! TA.AperFunction,ComponentPad*
G36*
G01*
X188680000Y-119804000D02*
X189780000Y-119804000D01*
G75*
G02*
X190330000Y-120354000I0J-550000D01*
G01*
X190330000Y-121454000D01*
G75*
G02*
X189780000Y-122004000I-550000J0D01*
G01*
X188680000Y-122004000D01*
G75*
G02*
X188130000Y-121454000I0J550000D01*
G01*
X188130000Y-120354000D01*
G75*
G02*
X188680000Y-119804000I550000J0D01*
G01*
G37*
G04 #@! TD.AperFunction*
G04 #@! TA.AperFunction,ComponentPad*
G36*
G01*
X186140000Y-119804000D02*
X187240000Y-119804000D01*
G75*
G02*
X187790000Y-120354000I0J-550000D01*
G01*
X187790000Y-121454000D01*
G75*
G02*
X187240000Y-122004000I-550000J0D01*
G01*
X186140000Y-122004000D01*
G75*
G02*
X185590000Y-121454000I0J550000D01*
G01*
X185590000Y-120354000D01*
G75*
G02*
X186140000Y-119804000I550000J0D01*
G01*
G37*
G04 #@! TD.AperFunction*
G04 #@! TA.AperFunction,ComponentPad*
G36*
G01*
X183600000Y-119804000D02*
X184700000Y-119804000D01*
G75*
G02*
X185250000Y-120354000I0J-550000D01*
G01*
X185250000Y-121454000D01*
G75*
G02*
X184700000Y-122004000I-550000J0D01*
G01*
X183600000Y-122004000D01*
G75*
G02*
X183050000Y-121454000I0J550000D01*
G01*
X183050000Y-120354000D01*
G75*
G02*
X183600000Y-119804000I550000J0D01*
G01*
G37*
G04 #@! TD.AperFunction*
D11*
X181610000Y-120904000D03*
X179070000Y-120904000D03*
D12*
X196850000Y-148844000D03*
X194310000Y-148844000D03*
X191770000Y-148844000D03*
X189230000Y-148844000D03*
X186690000Y-148844000D03*
X184150000Y-148844000D03*
X181610000Y-148844000D03*
D13*
X179070000Y-148844000D03*
D14*
X190500000Y-120904000D03*
X180340000Y-120904000D03*
X195580000Y-120904000D03*
X185420000Y-120904000D03*
D15*
X139700000Y-149860000D03*
X139700000Y-147320000D03*
X124460000Y-114300000D03*
X139700000Y-144780000D03*
X139700000Y-142240000D03*
X139700000Y-139700000D03*
X139700000Y-137160000D03*
X139700000Y-134620000D03*
X139700000Y-132080000D03*
X139700000Y-129540000D03*
X139700000Y-127000000D03*
X139700000Y-124460000D03*
X139700000Y-121920000D03*
X139700000Y-119380000D03*
X139700000Y-116840000D03*
X139700000Y-114300000D03*
X124460000Y-116840000D03*
X124460000Y-119380000D03*
X124460000Y-121920000D03*
X124460000Y-124460000D03*
X124460000Y-127000000D03*
X124460000Y-129540000D03*
X124460000Y-132080000D03*
X124460000Y-134620000D03*
X124460000Y-137160000D03*
X124460000Y-139700000D03*
X124460000Y-142240000D03*
X124460000Y-144780000D03*
X124460000Y-147320000D03*
X124460000Y-149860000D03*
X139700000Y-111760000D03*
X139700000Y-109220000D03*
X139700000Y-106680000D03*
X139700000Y-104140000D03*
X139700000Y-101600000D03*
X139700000Y-99060000D03*
X139700000Y-96520000D03*
X139700000Y-93980000D03*
X139700000Y-91440000D03*
X124460000Y-91440000D03*
X124460000Y-93980000D03*
X124460000Y-96520000D03*
X124460000Y-99060000D03*
X124460000Y-101600000D03*
X124460000Y-104140000D03*
X124460000Y-106680000D03*
X124460000Y-109220000D03*
X124460000Y-111760000D03*
G04 #@! TA.AperFunction,ComponentPad*
G36*
G01*
X158786000Y-88173001D02*
X158786000Y-87022999D01*
G75*
G02*
X159035999Y-86773000I249999J0D01*
G01*
X159736001Y-86773000D01*
G75*
G02*
X159986000Y-87022999I0J-249999D01*
G01*
X159986000Y-88173001D01*
G75*
G02*
X159736001Y-88423000I-249999J0D01*
G01*
X159035999Y-88423000D01*
G75*
G02*
X158786000Y-88173001I0J249999D01*
G01*
G37*
G04 #@! TD.AperFunction*
D16*
X161386000Y-87598000D03*
X163386000Y-87598000D03*
X165386000Y-87598000D03*
X167386000Y-87598000D03*
X169386000Y-87598000D03*
X171386000Y-87598000D03*
X173386000Y-87598000D03*
X159386000Y-85598000D03*
X161386000Y-85598000D03*
X163386000Y-85598000D03*
X165386000Y-85598000D03*
X167386000Y-85598000D03*
X169386000Y-85598000D03*
X171386000Y-85598000D03*
X173386000Y-85598000D03*
D15*
X158750000Y-111760000D03*
X158750000Y-109220000D03*
X158750000Y-106680000D03*
X158750000Y-104140000D03*
X158750000Y-101600000D03*
X158750000Y-99060000D03*
X158750000Y-96520000D03*
X158750000Y-93980000D03*
X158750000Y-91440000D03*
X173990000Y-91440000D03*
X173990000Y-93980000D03*
X173990000Y-96520000D03*
X173990000Y-99060000D03*
X173990000Y-101600000D03*
X173990000Y-104140000D03*
X173990000Y-106680000D03*
X173990000Y-109220000D03*
X173990000Y-111760000D03*
X158750000Y-149860000D03*
X158750000Y-147320000D03*
X158750000Y-144780000D03*
X158750000Y-142240000D03*
X158750000Y-139700000D03*
X158750000Y-137160000D03*
X158750000Y-134620000D03*
X158750000Y-132080000D03*
X158750000Y-129540000D03*
X158750000Y-127000000D03*
X158750000Y-124460000D03*
X158750000Y-121920000D03*
X158750000Y-119380000D03*
X158750000Y-116840000D03*
X173990000Y-114300000D03*
X173990000Y-116840000D03*
X173990000Y-119380000D03*
X173990000Y-121920000D03*
X173990000Y-124460000D03*
X173990000Y-127000000D03*
X173990000Y-129540000D03*
X173990000Y-132080000D03*
X173990000Y-134620000D03*
X173990000Y-137160000D03*
X173990000Y-139700000D03*
X173990000Y-142240000D03*
X173990000Y-144780000D03*
X158750000Y-114300000D03*
X173990000Y-147320000D03*
X173990000Y-149860000D03*
D17*
X160020000Y-64262000D03*
X124460000Y-38862000D03*
X124460000Y-64262000D03*
D18*
X124460000Y-60452000D03*
X124460000Y-57912000D03*
X124460000Y-55372000D03*
X124460000Y-52832000D03*
X124460000Y-50292000D03*
X124460000Y-47752000D03*
X124460000Y-45212000D03*
D19*
X124460000Y-42672000D03*
D17*
X160020000Y-38862000D03*
D13*
X102235000Y-80900000D03*
X102235000Y-77900000D03*
G04 #@! TA.AperFunction,ComponentPad*
G36*
G01*
X101735000Y-73900000D02*
X102735000Y-73900000D01*
G75*
G02*
X103235000Y-74400000I0J-500000D01*
G01*
X103235000Y-75400000D01*
G75*
G02*
X102735000Y-75900000I-500000J0D01*
G01*
X101735000Y-75900000D01*
G75*
G02*
X101235000Y-75400000I0J500000D01*
G01*
X101235000Y-74400000D01*
G75*
G02*
X101735000Y-73900000I500000J0D01*
G01*
G37*
G04 #@! TD.AperFunction*
G04 #@! TA.AperFunction,ComponentPad*
G36*
G01*
X101735000Y-70900000D02*
X102735000Y-70900000D01*
G75*
G02*
X103235000Y-71400000I0J-500000D01*
G01*
X103235000Y-72400000D01*
G75*
G02*
X102735000Y-72900000I-500000J0D01*
G01*
X101735000Y-72900000D01*
G75*
G02*
X101235000Y-72400000I0J500000D01*
G01*
X101235000Y-71400000D01*
G75*
G02*
X101735000Y-70900000I500000J0D01*
G01*
G37*
G04 #@! TD.AperFunction*
D20*
X102235000Y-73280000D03*
D21*
X102235000Y-79376000D03*
X204851000Y-73482200D03*
D20*
X204851000Y-79578200D03*
G04 #@! TA.AperFunction,ComponentPad*
G36*
G01*
X205351000Y-81958200D02*
X204351000Y-81958200D01*
G75*
G02*
X203851000Y-81458200I0J500000D01*
G01*
X203851000Y-80458200D01*
G75*
G02*
X204351000Y-79958200I500000J0D01*
G01*
X205351000Y-79958200D01*
G75*
G02*
X205851000Y-80458200I0J-500000D01*
G01*
X205851000Y-81458200D01*
G75*
G02*
X205351000Y-81958200I-500000J0D01*
G01*
G37*
G04 #@! TD.AperFunction*
G04 #@! TA.AperFunction,ComponentPad*
G36*
G01*
X205351000Y-78958200D02*
X204351000Y-78958200D01*
G75*
G02*
X203851000Y-78458200I0J500000D01*
G01*
X203851000Y-77458200D01*
G75*
G02*
X204351000Y-76958200I500000J0D01*
G01*
X205351000Y-76958200D01*
G75*
G02*
X205851000Y-77458200I0J-500000D01*
G01*
X205851000Y-78458200D01*
G75*
G02*
X205351000Y-78958200I-500000J0D01*
G01*
G37*
G04 #@! TD.AperFunction*
D13*
X204851000Y-74958200D03*
X204851000Y-71958200D03*
G04 #@! TA.AperFunction,ComponentPad*
G36*
G01*
X138522000Y-85022999D02*
X138522000Y-86173001D01*
G75*
G02*
X138272001Y-86423000I-249999J0D01*
G01*
X137571999Y-86423000D01*
G75*
G02*
X137322000Y-86173001I0J249999D01*
G01*
X137322000Y-85022999D01*
G75*
G02*
X137571999Y-84773000I249999J0D01*
G01*
X138272001Y-84773000D01*
G75*
G02*
X138522000Y-85022999I0J-249999D01*
G01*
G37*
G04 #@! TD.AperFunction*
D16*
X135922000Y-85598000D03*
X133922000Y-85598000D03*
X131922000Y-85598000D03*
X129922000Y-85598000D03*
X127922000Y-85598000D03*
X125922000Y-85598000D03*
X137922000Y-87598000D03*
X135922000Y-87598000D03*
X133922000Y-87598000D03*
X131922000Y-87598000D03*
X129922000Y-87598000D03*
X127922000Y-87598000D03*
X125922000Y-87598000D03*
D13*
X179070000Y-114300000D03*
D12*
X181610000Y-114300000D03*
X184150000Y-114300000D03*
X186690000Y-114300000D03*
X189230000Y-114300000D03*
X191770000Y-114300000D03*
X194310000Y-114300000D03*
X196850000Y-114300000D03*
D11*
X179070000Y-86360000D03*
X181610000Y-86360000D03*
G04 #@! TA.AperFunction,ComponentPad*
G36*
G01*
X183600000Y-85260000D02*
X184700000Y-85260000D01*
G75*
G02*
X185250000Y-85810000I0J-550000D01*
G01*
X185250000Y-86910000D01*
G75*
G02*
X184700000Y-87460000I-550000J0D01*
G01*
X183600000Y-87460000D01*
G75*
G02*
X183050000Y-86910000I0J550000D01*
G01*
X183050000Y-85810000D01*
G75*
G02*
X183600000Y-85260000I550000J0D01*
G01*
G37*
G04 #@! TD.AperFunction*
G04 #@! TA.AperFunction,ComponentPad*
G36*
G01*
X186140000Y-85260000D02*
X187240000Y-85260000D01*
G75*
G02*
X187790000Y-85810000I0J-550000D01*
G01*
X187790000Y-86910000D01*
G75*
G02*
X187240000Y-87460000I-550000J0D01*
G01*
X186140000Y-87460000D01*
G75*
G02*
X185590000Y-86910000I0J550000D01*
G01*
X185590000Y-85810000D01*
G75*
G02*
X186140000Y-85260000I550000J0D01*
G01*
G37*
G04 #@! TD.AperFunction*
G04 #@! TA.AperFunction,ComponentPad*
G36*
G01*
X188680000Y-85260000D02*
X189780000Y-85260000D01*
G75*
G02*
X190330000Y-85810000I0J-550000D01*
G01*
X190330000Y-86910000D01*
G75*
G02*
X189780000Y-87460000I-550000J0D01*
G01*
X188680000Y-87460000D01*
G75*
G02*
X188130000Y-86910000I0J550000D01*
G01*
X188130000Y-85810000D01*
G75*
G02*
X188680000Y-85260000I550000J0D01*
G01*
G37*
G04 #@! TD.AperFunction*
G04 #@! TA.AperFunction,ComponentPad*
G36*
G01*
X191220000Y-85260000D02*
X192320000Y-85260000D01*
G75*
G02*
X192870000Y-85810000I0J-550000D01*
G01*
X192870000Y-86910000D01*
G75*
G02*
X192320000Y-87460000I-550000J0D01*
G01*
X191220000Y-87460000D01*
G75*
G02*
X190670000Y-86910000I0J550000D01*
G01*
X190670000Y-85810000D01*
G75*
G02*
X191220000Y-85260000I550000J0D01*
G01*
G37*
G04 #@! TD.AperFunction*
G04 #@! TA.AperFunction,ComponentPad*
G36*
G01*
X193760000Y-85260000D02*
X194860000Y-85260000D01*
G75*
G02*
X195410000Y-85810000I0J-550000D01*
G01*
X195410000Y-86910000D01*
G75*
G02*
X194860000Y-87460000I-550000J0D01*
G01*
X193760000Y-87460000D01*
G75*
G02*
X193210000Y-86910000I0J550000D01*
G01*
X193210000Y-85810000D01*
G75*
G02*
X193760000Y-85260000I550000J0D01*
G01*
G37*
G04 #@! TD.AperFunction*
G04 #@! TA.AperFunction,ComponentPad*
G36*
G01*
X196300000Y-85260000D02*
X197400000Y-85260000D01*
G75*
G02*
X197950000Y-85810000I0J-550000D01*
G01*
X197950000Y-86910000D01*
G75*
G02*
X197400000Y-87460000I-550000J0D01*
G01*
X196300000Y-87460000D01*
G75*
G02*
X195750000Y-86910000I0J550000D01*
G01*
X195750000Y-85810000D01*
G75*
G02*
X196300000Y-85260000I550000J0D01*
G01*
G37*
G04 #@! TD.AperFunction*
D14*
X190500000Y-86360000D03*
X180340000Y-86360000D03*
X195580000Y-86360000D03*
X185420000Y-86360000D03*
D13*
X101600000Y-148844000D03*
D12*
X104140000Y-148844000D03*
X106680000Y-148844000D03*
X109220000Y-148844000D03*
X111760000Y-148844000D03*
X114300000Y-148844000D03*
X116840000Y-148844000D03*
X119380000Y-148844000D03*
D11*
X101600000Y-120904000D03*
X104140000Y-120904000D03*
G04 #@! TA.AperFunction,ComponentPad*
G36*
G01*
X106130000Y-119804000D02*
X107230000Y-119804000D01*
G75*
G02*
X107780000Y-120354000I0J-550000D01*
G01*
X107780000Y-121454000D01*
G75*
G02*
X107230000Y-122004000I-550000J0D01*
G01*
X106130000Y-122004000D01*
G75*
G02*
X105580000Y-121454000I0J550000D01*
G01*
X105580000Y-120354000D01*
G75*
G02*
X106130000Y-119804000I550000J0D01*
G01*
G37*
G04 #@! TD.AperFunction*
G04 #@! TA.AperFunction,ComponentPad*
G36*
G01*
X108670000Y-119804000D02*
X109770000Y-119804000D01*
G75*
G02*
X110320000Y-120354000I0J-550000D01*
G01*
X110320000Y-121454000D01*
G75*
G02*
X109770000Y-122004000I-550000J0D01*
G01*
X108670000Y-122004000D01*
G75*
G02*
X108120000Y-121454000I0J550000D01*
G01*
X108120000Y-120354000D01*
G75*
G02*
X108670000Y-119804000I550000J0D01*
G01*
G37*
G04 #@! TD.AperFunction*
G04 #@! TA.AperFunction,ComponentPad*
G36*
G01*
X111210000Y-119804000D02*
X112310000Y-119804000D01*
G75*
G02*
X112860000Y-120354000I0J-550000D01*
G01*
X112860000Y-121454000D01*
G75*
G02*
X112310000Y-122004000I-550000J0D01*
G01*
X111210000Y-122004000D01*
G75*
G02*
X110660000Y-121454000I0J550000D01*
G01*
X110660000Y-120354000D01*
G75*
G02*
X111210000Y-119804000I550000J0D01*
G01*
G37*
G04 #@! TD.AperFunction*
G04 #@! TA.AperFunction,ComponentPad*
G36*
G01*
X113750000Y-119804000D02*
X114850000Y-119804000D01*
G75*
G02*
X115400000Y-120354000I0J-550000D01*
G01*
X115400000Y-121454000D01*
G75*
G02*
X114850000Y-122004000I-550000J0D01*
G01*
X113750000Y-122004000D01*
G75*
G02*
X113200000Y-121454000I0J550000D01*
G01*
X113200000Y-120354000D01*
G75*
G02*
X113750000Y-119804000I550000J0D01*
G01*
G37*
G04 #@! TD.AperFunction*
G04 #@! TA.AperFunction,ComponentPad*
G36*
G01*
X116290000Y-119804000D02*
X117390000Y-119804000D01*
G75*
G02*
X117940000Y-120354000I0J-550000D01*
G01*
X117940000Y-121454000D01*
G75*
G02*
X117390000Y-122004000I-550000J0D01*
G01*
X116290000Y-122004000D01*
G75*
G02*
X115740000Y-121454000I0J550000D01*
G01*
X115740000Y-120354000D01*
G75*
G02*
X116290000Y-119804000I550000J0D01*
G01*
G37*
G04 #@! TD.AperFunction*
G04 #@! TA.AperFunction,ComponentPad*
G36*
G01*
X118830000Y-119804000D02*
X119930000Y-119804000D01*
G75*
G02*
X120480000Y-120354000I0J-550000D01*
G01*
X120480000Y-121454000D01*
G75*
G02*
X119930000Y-122004000I-550000J0D01*
G01*
X118830000Y-122004000D01*
G75*
G02*
X118280000Y-121454000I0J550000D01*
G01*
X118280000Y-120354000D01*
G75*
G02*
X118830000Y-119804000I550000J0D01*
G01*
G37*
G04 #@! TD.AperFunction*
D14*
X113030000Y-120904000D03*
X102870000Y-120904000D03*
X118110000Y-120904000D03*
X107950000Y-120904000D03*
G04 #@! TA.AperFunction,ComponentPad*
G36*
G01*
X194906000Y-132371000D02*
X194906000Y-133821000D01*
G75*
G02*
X194656000Y-134071000I-250000J0D01*
G01*
X193456000Y-134071000D01*
G75*
G02*
X193206000Y-133821000I0J250000D01*
G01*
X193206000Y-132371000D01*
G75*
G02*
X193456000Y-132121000I250000J0D01*
G01*
X194656000Y-132121000D01*
G75*
G02*
X194906000Y-132371000I0J-250000D01*
G01*
G37*
G04 #@! TD.AperFunction*
D22*
X191556000Y-133096000D03*
X189056000Y-133096000D03*
X186556000Y-133096000D03*
X184056000Y-133096000D03*
X181556000Y-133096000D03*
G04 #@! TA.AperFunction,ComponentPad*
G36*
G01*
X115150000Y-113067000D02*
X115150000Y-114517000D01*
G75*
G02*
X114900000Y-114767000I-250000J0D01*
G01*
X113700000Y-114767000D01*
G75*
G02*
X113450000Y-114517000I0J250000D01*
G01*
X113450000Y-113067000D01*
G75*
G02*
X113700000Y-112817000I250000J0D01*
G01*
X114900000Y-112817000D01*
G75*
G02*
X115150000Y-113067000I0J-250000D01*
G01*
G37*
G04 #@! TD.AperFunction*
X111800000Y-113792000D03*
X109300000Y-113792000D03*
X106800000Y-113792000D03*
X104300000Y-113792000D03*
X101800000Y-113792000D03*
X181810000Y-97790000D03*
X184310000Y-97790000D03*
X186810000Y-97790000D03*
X189310000Y-97790000D03*
X191810000Y-97790000D03*
G04 #@! TA.AperFunction,ComponentPad*
G36*
G01*
X195160000Y-97065000D02*
X195160000Y-98515000D01*
G75*
G02*
X194910000Y-98765000I-250000J0D01*
G01*
X193710000Y-98765000D01*
G75*
G02*
X193460000Y-98515000I0J250000D01*
G01*
X193460000Y-97065000D01*
G75*
G02*
X193710000Y-96815000I250000J0D01*
G01*
X194910000Y-96815000D01*
G75*
G02*
X195160000Y-97065000I0J-250000D01*
G01*
G37*
G04 #@! TD.AperFunction*
G04 #@! TA.AperFunction,ComponentPad*
G36*
G01*
X115150000Y-101510000D02*
X115150000Y-102960000D01*
G75*
G02*
X114900000Y-103210000I-250000J0D01*
G01*
X113700000Y-103210000D01*
G75*
G02*
X113450000Y-102960000I0J250000D01*
G01*
X113450000Y-101510000D01*
G75*
G02*
X113700000Y-101260000I250000J0D01*
G01*
X114900000Y-101260000D01*
G75*
G02*
X115150000Y-101510000I0J-250000D01*
G01*
G37*
G04 #@! TD.AperFunction*
X111800000Y-102235000D03*
X109300000Y-102235000D03*
X106800000Y-102235000D03*
D18*
X93726000Y-99822000D03*
X93726000Y-102362000D03*
X93726000Y-104902000D03*
D19*
X93726000Y-107442000D03*
X204724000Y-107442000D03*
D18*
X204724000Y-104902000D03*
X204724000Y-102362000D03*
X204724000Y-99822000D03*
D23*
X194437000Y-141565000D03*
G04 #@! TA.AperFunction,ComponentPad*
G36*
G01*
X193687000Y-138215000D02*
X195187000Y-138215000D01*
G75*
G02*
X195437000Y-138465000I0J-250000D01*
G01*
X195437000Y-139665000D01*
G75*
G02*
X195187000Y-139915000I-250000J0D01*
G01*
X193687000Y-139915000D01*
G75*
G02*
X193437000Y-139665000I0J250000D01*
G01*
X193437000Y-138465000D01*
G75*
G02*
X193687000Y-138215000I250000J0D01*
G01*
G37*
G04 #@! TD.AperFunction*
G04 #@! TA.AperFunction,ComponentPad*
G36*
G01*
X104890000Y-142074000D02*
X103390000Y-142074000D01*
G75*
G02*
X103140000Y-141824000I0J250000D01*
G01*
X103140000Y-140624000D01*
G75*
G02*
X103390000Y-140374000I250000J0D01*
G01*
X104890000Y-140374000D01*
G75*
G02*
X105140000Y-140624000I0J-250000D01*
G01*
X105140000Y-141824000D01*
G75*
G02*
X104890000Y-142074000I-250000J0D01*
G01*
G37*
G04 #@! TD.AperFunction*
X104140000Y-138724000D03*
D24*
X193374000Y-66548000D03*
X195874000Y-66548000D03*
X198374000Y-66548000D03*
X133350000Y-73025000D03*
X133350000Y-75525000D03*
X133350000Y-78025000D03*
X160020000Y-51435000D03*
X160020000Y-53935000D03*
X160020000Y-56435000D03*
D25*
X155594000Y-54102000D03*
X142094000Y-54102000D03*
D26*
X152444000Y-48102000D03*
D27*
X145244000Y-48102000D03*
D28*
X142240000Y-57912000D03*
X142240000Y-59944000D03*
X142240000Y-61976000D03*
X142240000Y-64008000D03*
X144272000Y-64008000D03*
X146304000Y-64008000D03*
X148336000Y-64008000D03*
X150368000Y-64008000D03*
X152400000Y-64008000D03*
X154432000Y-64008000D03*
X154432000Y-61976000D03*
X154432000Y-59944000D03*
X152400000Y-59944000D03*
X152400000Y-61976000D03*
X150368000Y-61976000D03*
X150368000Y-59944000D03*
X148336000Y-59944000D03*
X148336000Y-61976000D03*
X146304000Y-61976000D03*
X146304000Y-59944000D03*
X144272000Y-59944000D03*
X144272000Y-61976000D03*
X154432000Y-57912000D03*
X152400000Y-57912000D03*
X156464000Y-61976000D03*
X140208000Y-64008000D03*
X140208000Y-61976000D03*
X140208000Y-59944000D03*
X138176000Y-59944000D03*
X138176000Y-61976000D03*
X138176000Y-64008000D03*
X138176000Y-66040000D03*
X138176000Y-68072000D03*
X140208000Y-66040000D03*
X142240000Y-66040000D03*
X143764000Y-66040000D03*
X143764000Y-68072000D03*
X142240000Y-68072000D03*
X140208000Y-68072000D03*
X146308653Y-76204653D03*
X97082892Y-142167892D03*
X143256000Y-70612000D03*
X138684000Y-70104000D03*
X140716000Y-73660000D03*
X148082000Y-76962000D03*
D29*
X145796000Y-66802000D03*
X150368000Y-66802000D03*
X151384000Y-66802000D03*
X164338000Y-59309000D03*
X145034000Y-57150000D03*
D28*
X155194000Y-32004000D03*
X149225000Y-23495000D03*
X108585000Y-48895000D03*
X92710000Y-88900000D03*
X92710000Y-146431000D03*
X205740000Y-146304000D03*
X205740000Y-88900000D03*
X189865000Y-48895000D03*
X154305000Y-149860000D03*
X192024000Y-68834000D03*
X157607000Y-75819000D03*
X159258000Y-80899000D03*
X158496000Y-69342000D03*
X158496000Y-67818000D03*
X139192000Y-79375000D03*
X159258000Y-78232000D03*
X149860000Y-24765000D03*
X109855000Y-48260000D03*
X93980000Y-88265000D03*
X93980000Y-145796000D03*
X204470000Y-146304000D03*
X204470000Y-88900000D03*
X188595000Y-49530000D03*
X145288000Y-78740000D03*
X147320000Y-78740000D03*
X149352000Y-78740000D03*
X151384000Y-78740000D03*
X153416000Y-78740000D03*
X145288000Y-80772000D03*
X147320000Y-80772000D03*
X149352000Y-80772000D03*
X151384000Y-80772000D03*
X97790000Y-140970000D03*
D29*
X152654000Y-66802000D03*
X152654000Y-68326000D03*
X156464000Y-70358000D03*
X156464000Y-72898000D03*
D28*
X164592000Y-30734000D03*
X147955000Y-150241000D03*
X203454000Y-141986000D03*
D29*
X147193000Y-56134000D03*
X156718000Y-56515000D03*
X151003000Y-55880000D03*
X150495000Y-55880000D03*
X149987000Y-55880000D03*
X149479000Y-55880000D03*
X149479000Y-55372000D03*
X149987000Y-55372000D03*
X150495000Y-55372000D03*
X151003000Y-55372000D03*
X151003000Y-54864000D03*
X150495000Y-54864000D03*
X149987000Y-54864000D03*
X149479000Y-54864000D03*
D28*
X141224000Y-45212000D03*
X141224000Y-47244000D03*
X141224000Y-49276000D03*
X141224000Y-51308000D03*
X148336000Y-45212000D03*
X148336000Y-47244000D03*
X148336000Y-49276000D03*
X148336000Y-51308000D03*
X144780000Y-51308000D03*
X152400000Y-51308000D03*
X155956000Y-51308000D03*
X155956000Y-49276000D03*
X155956000Y-47244000D03*
X155956000Y-45212000D03*
X152400000Y-53340000D03*
X148336000Y-53340000D03*
X144780000Y-53340000D03*
D29*
X194437000Y-77724000D03*
X193929000Y-77724000D03*
X193929000Y-77216000D03*
X194437000Y-77216000D03*
X194437000Y-76708000D03*
X193929000Y-76708000D03*
X193929000Y-76200000D03*
X194437000Y-76200000D03*
X194945000Y-76200000D03*
X194945000Y-76708000D03*
X194945000Y-77216000D03*
X194945000Y-77724000D03*
D28*
X189484000Y-79248000D03*
X177292000Y-71120000D03*
X181356000Y-71120000D03*
X185420000Y-71120000D03*
X189484000Y-71120000D03*
X177292000Y-75184000D03*
X177292000Y-79248000D03*
X179324000Y-73152000D03*
X179324000Y-77216000D03*
X179324000Y-80772000D03*
X181356000Y-75184000D03*
X181356000Y-79248000D03*
X183388000Y-73152000D03*
X183388000Y-77216000D03*
X183388000Y-80772000D03*
X185420000Y-75184000D03*
X185420000Y-79248000D03*
X187452000Y-77216000D03*
X187452000Y-73152000D03*
X187452000Y-80772000D03*
X189484000Y-75184000D03*
X191516000Y-73152000D03*
X191516000Y-77216000D03*
X191516000Y-80772000D03*
D29*
X156210000Y-58039000D03*
X143789500Y-73914000D03*
X147574000Y-66929000D03*
X147337000Y-71863000D03*
X194843500Y-70612000D03*
X195501500Y-79756000D03*
X195478500Y-81534000D03*
X199644000Y-116840000D03*
D30*
X102235000Y-80900000D02*
X102235000Y-79376000D01*
X102235000Y-77900000D02*
X102235000Y-79376000D01*
X102235000Y-71900000D02*
X102235000Y-73280000D01*
X102235000Y-74900000D02*
X102235000Y-73280000D01*
X204851000Y-80958200D02*
X204851000Y-79578200D01*
X204851000Y-77958200D02*
X204851000Y-79578200D01*
X101600000Y-120904000D02*
X102870000Y-120904000D01*
X104140000Y-120904000D02*
X102870000Y-120904000D01*
D31*
X152654000Y-66802000D02*
X152654000Y-68326000D01*
X156464000Y-70358000D02*
X156464000Y-72898000D01*
X147574000Y-56515000D02*
X156718000Y-56515000D01*
X147193000Y-56134000D02*
X147574000Y-56515000D01*
X137922000Y-85598000D02*
X140716000Y-85598000D01*
X140716000Y-85598000D02*
X141732000Y-86614000D01*
X141732000Y-102108000D02*
X139700000Y-104140000D01*
X141732000Y-86614000D02*
X141732000Y-102108000D01*
X122682000Y-104140000D02*
X124460000Y-104140000D01*
X119026980Y-100484980D02*
X122682000Y-104140000D01*
X102461020Y-100484980D02*
X119026980Y-100484980D01*
X100584000Y-102362000D02*
X102461020Y-100484980D01*
X93726000Y-102362000D02*
X100584000Y-102362000D01*
X118714990Y-100934990D02*
X124460000Y-106680000D01*
X100838000Y-102870000D02*
X102773010Y-100934990D01*
X95758000Y-102870000D02*
X100838000Y-102870000D01*
X102773010Y-100934990D02*
X118714990Y-100934990D01*
X93726000Y-104902000D02*
X95758000Y-102870000D01*
D30*
X204851000Y-74958200D02*
X204851000Y-73482200D01*
X204851000Y-71958200D02*
X204851000Y-73482200D01*
X118110000Y-120904000D02*
X116840000Y-120904000D01*
X118110000Y-120904000D02*
X119380000Y-120904000D01*
D31*
X160528000Y-58039000D02*
X156210000Y-58039000D01*
X161417000Y-57150000D02*
X160528000Y-58039000D01*
X161417000Y-52832000D02*
X161417000Y-57150000D01*
X160020000Y-51435000D02*
X161417000Y-52832000D01*
X142178500Y-75525000D02*
X143789500Y-73914000D01*
X133350000Y-75525000D02*
X142178500Y-75525000D01*
D32*
X147574000Y-71626000D02*
X147337000Y-71863000D01*
X147574000Y-66929000D02*
X147574000Y-71626000D01*
D33*
X172760999Y-115610999D02*
X173990000Y-116840000D01*
X140929001Y-115610999D02*
X172760999Y-115610999D01*
X139700000Y-116840000D02*
X140929001Y-115610999D01*
X172760999Y-118150999D02*
X173990000Y-119380000D01*
X140929001Y-118150999D02*
X172760999Y-118150999D01*
X139700000Y-119380000D02*
X140929001Y-118150999D01*
X172760999Y-120690999D02*
X173990000Y-121920000D01*
X140929001Y-120690999D02*
X172760999Y-120690999D01*
X139700000Y-121920000D02*
X140929001Y-120690999D01*
D34*
X141235999Y-110755999D02*
X139700000Y-109220000D01*
X180605999Y-110755999D02*
X141235999Y-110755999D01*
X184150000Y-114300000D02*
X180605999Y-110755999D01*
D31*
X186690000Y-116840000D02*
X184150000Y-114300000D01*
X199644000Y-116840000D02*
X186690000Y-116840000D01*
D34*
X140889999Y-112949999D02*
X139700000Y-111760000D01*
X180259999Y-112949999D02*
X140889999Y-112949999D01*
X181610000Y-114300000D02*
X180259999Y-112949999D01*
D32*
X194513613Y-70210031D02*
X194441531Y-70282113D01*
X194384897Y-70366872D01*
X194345887Y-70461051D01*
X194326000Y-70561031D01*
X194326000Y-70662969D01*
X194345887Y-70762949D01*
X194384897Y-70857128D01*
X194441531Y-70941887D01*
X194513613Y-71013969D01*
X194598372Y-71070603D01*
X194692551Y-71109613D01*
X194792531Y-71129500D01*
X194894469Y-71129500D01*
X194994449Y-71109613D01*
X195088628Y-71070603D01*
X195173387Y-71013969D01*
X195245469Y-70941887D01*
X195302103Y-70857128D01*
X195341113Y-70762949D01*
X195361000Y-70662969D01*
X195361000Y-70561031D01*
X195341113Y-70461051D01*
X195302103Y-70366872D01*
X195245469Y-70282113D01*
X195173387Y-70210031D01*
X195109735Y-70167500D01*
X206946500Y-70167500D01*
X206946500Y-82232500D01*
X205606382Y-82232500D01*
X205664432Y-82214891D01*
X205806032Y-82139204D01*
X205930146Y-82037346D01*
X206032004Y-81913232D01*
X206107691Y-81771632D01*
X206154298Y-81617986D01*
X206170036Y-81458200D01*
X206170036Y-77458200D01*
X206154298Y-77298414D01*
X206107691Y-77144768D01*
X206032004Y-77003168D01*
X205930146Y-76879054D01*
X205806032Y-76777196D01*
X205664432Y-76701509D01*
X205510786Y-76654902D01*
X205351000Y-76639164D01*
X204351000Y-76639164D01*
X204191214Y-76654902D01*
X204037568Y-76701509D01*
X203895968Y-76777196D01*
X203771854Y-76879054D01*
X203669996Y-77003168D01*
X203594309Y-77144768D01*
X203547702Y-77298414D01*
X203531964Y-77458200D01*
X203531964Y-81458200D01*
X203547702Y-81617986D01*
X203594309Y-81771632D01*
X203669996Y-81913232D01*
X203771854Y-82037346D01*
X203895968Y-82139204D01*
X204037568Y-82214891D01*
X204095618Y-82232500D01*
X194373500Y-82232500D01*
X194373500Y-81483031D01*
X194961000Y-81483031D01*
X194961000Y-81584969D01*
X194980887Y-81684949D01*
X195019897Y-81779128D01*
X195076531Y-81863887D01*
X195148613Y-81935969D01*
X195233372Y-81992603D01*
X195327551Y-82031613D01*
X195427531Y-82051500D01*
X195529469Y-82051500D01*
X195629449Y-82031613D01*
X195723628Y-81992603D01*
X195808387Y-81935969D01*
X195880469Y-81863887D01*
X195937103Y-81779128D01*
X195976113Y-81684949D01*
X195996000Y-81584969D01*
X195996000Y-81483031D01*
X195976113Y-81383051D01*
X195937103Y-81288872D01*
X195880469Y-81204113D01*
X195808387Y-81132031D01*
X195723628Y-81075397D01*
X195629449Y-81036387D01*
X195529469Y-81016500D01*
X195427531Y-81016500D01*
X195327551Y-81036387D01*
X195233372Y-81075397D01*
X195148613Y-81132031D01*
X195076531Y-81204113D01*
X195019897Y-81288872D01*
X194980887Y-81383051D01*
X194961000Y-81483031D01*
X194373500Y-81483031D01*
X194373500Y-79705031D01*
X194984000Y-79705031D01*
X194984000Y-79806969D01*
X195003887Y-79906949D01*
X195042897Y-80001128D01*
X195099531Y-80085887D01*
X195171613Y-80157969D01*
X195256372Y-80214603D01*
X195350551Y-80253613D01*
X195450531Y-80273500D01*
X195552469Y-80273500D01*
X195652449Y-80253613D01*
X195746628Y-80214603D01*
X195831387Y-80157969D01*
X195903469Y-80085887D01*
X195960103Y-80001128D01*
X195999113Y-79906949D01*
X196019000Y-79806969D01*
X196019000Y-79705031D01*
X195999113Y-79605051D01*
X195960103Y-79510872D01*
X195903469Y-79426113D01*
X195831387Y-79354031D01*
X195746628Y-79297397D01*
X195652449Y-79258387D01*
X195552469Y-79238500D01*
X195450531Y-79238500D01*
X195350551Y-79258387D01*
X195256372Y-79297397D01*
X195171613Y-79354031D01*
X195099531Y-79426113D01*
X195042897Y-79510872D01*
X195003887Y-79605051D01*
X194984000Y-79705031D01*
X194373500Y-79705031D01*
X194373500Y-78232000D01*
X194372280Y-78219612D01*
X194368666Y-78207700D01*
X194362798Y-78196721D01*
X194354901Y-78187099D01*
X194345279Y-78179202D01*
X194334300Y-78173334D01*
X194322388Y-78169720D01*
X194310000Y-78168500D01*
X193611500Y-78168500D01*
X193611500Y-70167500D01*
X194577265Y-70167500D01*
X194513613Y-70210031D01*
G04 #@! TA.AperFunction,Conductor*
D35*
G36*
X194513613Y-70210031D02*
G01*
X194441531Y-70282113D01*
X194384897Y-70366872D01*
X194345887Y-70461051D01*
X194326000Y-70561031D01*
X194326000Y-70662969D01*
X194345887Y-70762949D01*
X194384897Y-70857128D01*
X194441531Y-70941887D01*
X194513613Y-71013969D01*
X194598372Y-71070603D01*
X194692551Y-71109613D01*
X194792531Y-71129500D01*
X194894469Y-71129500D01*
X194994449Y-71109613D01*
X195088628Y-71070603D01*
X195173387Y-71013969D01*
X195245469Y-70941887D01*
X195302103Y-70857128D01*
X195341113Y-70762949D01*
X195361000Y-70662969D01*
X195361000Y-70561031D01*
X195341113Y-70461051D01*
X195302103Y-70366872D01*
X195245469Y-70282113D01*
X195173387Y-70210031D01*
X195109735Y-70167500D01*
X206946500Y-70167500D01*
X206946500Y-82232500D01*
X205606382Y-82232500D01*
X205664432Y-82214891D01*
X205806032Y-82139204D01*
X205930146Y-82037346D01*
X206032004Y-81913232D01*
X206107691Y-81771632D01*
X206154298Y-81617986D01*
X206170036Y-81458200D01*
X206170036Y-77458200D01*
X206154298Y-77298414D01*
X206107691Y-77144768D01*
X206032004Y-77003168D01*
X205930146Y-76879054D01*
X205806032Y-76777196D01*
X205664432Y-76701509D01*
X205510786Y-76654902D01*
X205351000Y-76639164D01*
X204351000Y-76639164D01*
X204191214Y-76654902D01*
X204037568Y-76701509D01*
X203895968Y-76777196D01*
X203771854Y-76879054D01*
X203669996Y-77003168D01*
X203594309Y-77144768D01*
X203547702Y-77298414D01*
X203531964Y-77458200D01*
X203531964Y-81458200D01*
X203547702Y-81617986D01*
X203594309Y-81771632D01*
X203669996Y-81913232D01*
X203771854Y-82037346D01*
X203895968Y-82139204D01*
X204037568Y-82214891D01*
X204095618Y-82232500D01*
X194373500Y-82232500D01*
X194373500Y-81483031D01*
X194961000Y-81483031D01*
X194961000Y-81584969D01*
X194980887Y-81684949D01*
X195019897Y-81779128D01*
X195076531Y-81863887D01*
X195148613Y-81935969D01*
X195233372Y-81992603D01*
X195327551Y-82031613D01*
X195427531Y-82051500D01*
X195529469Y-82051500D01*
X195629449Y-82031613D01*
X195723628Y-81992603D01*
X195808387Y-81935969D01*
X195880469Y-81863887D01*
X195937103Y-81779128D01*
X195976113Y-81684949D01*
X195996000Y-81584969D01*
X195996000Y-81483031D01*
X195976113Y-81383051D01*
X195937103Y-81288872D01*
X195880469Y-81204113D01*
X195808387Y-81132031D01*
X195723628Y-81075397D01*
X195629449Y-81036387D01*
X195529469Y-81016500D01*
X195427531Y-81016500D01*
X195327551Y-81036387D01*
X195233372Y-81075397D01*
X195148613Y-81132031D01*
X195076531Y-81204113D01*
X195019897Y-81288872D01*
X194980887Y-81383051D01*
X194961000Y-81483031D01*
X194373500Y-81483031D01*
X194373500Y-79705031D01*
X194984000Y-79705031D01*
X194984000Y-79806969D01*
X195003887Y-79906949D01*
X195042897Y-80001128D01*
X195099531Y-80085887D01*
X195171613Y-80157969D01*
X195256372Y-80214603D01*
X195350551Y-80253613D01*
X195450531Y-80273500D01*
X195552469Y-80273500D01*
X195652449Y-80253613D01*
X195746628Y-80214603D01*
X195831387Y-80157969D01*
X195903469Y-80085887D01*
X195960103Y-80001128D01*
X195999113Y-79906949D01*
X196019000Y-79806969D01*
X196019000Y-79705031D01*
X195999113Y-79605051D01*
X195960103Y-79510872D01*
X195903469Y-79426113D01*
X195831387Y-79354031D01*
X195746628Y-79297397D01*
X195652449Y-79258387D01*
X195552469Y-79238500D01*
X195450531Y-79238500D01*
X195350551Y-79258387D01*
X195256372Y-79297397D01*
X195171613Y-79354031D01*
X195099531Y-79426113D01*
X195042897Y-79510872D01*
X195003887Y-79605051D01*
X194984000Y-79705031D01*
X194373500Y-79705031D01*
X194373500Y-78232000D01*
X194372280Y-78219612D01*
X194368666Y-78207700D01*
X194362798Y-78196721D01*
X194354901Y-78187099D01*
X194345279Y-78179202D01*
X194334300Y-78173334D01*
X194322388Y-78169720D01*
X194310000Y-78168500D01*
X193611500Y-78168500D01*
X193611500Y-70167500D01*
X194577265Y-70167500D01*
X194513613Y-70210031D01*
G37*
G04 #@! TD.AperFunction*
D32*
X156908500Y-56033769D02*
X156868949Y-56017387D01*
X156768969Y-55997500D01*
X156667031Y-55997500D01*
X156567051Y-56017387D01*
X156472872Y-56056397D01*
X156448772Y-56072500D01*
X147757289Y-56072500D01*
X147696268Y-56011479D01*
X147690613Y-55983051D01*
X147651603Y-55888872D01*
X147594969Y-55804113D01*
X147522887Y-55732031D01*
X147438128Y-55675397D01*
X147343949Y-55636387D01*
X147243969Y-55616500D01*
X147142031Y-55616500D01*
X147042051Y-55636387D01*
X146947872Y-55675397D01*
X146863113Y-55732031D01*
X146791031Y-55804113D01*
X146734397Y-55888872D01*
X146695387Y-55983051D01*
X146675500Y-56083031D01*
X146675500Y-56184969D01*
X146695387Y-56284949D01*
X146734397Y-56379128D01*
X146791031Y-56463887D01*
X146863113Y-56535969D01*
X146947872Y-56592603D01*
X147042051Y-56631613D01*
X147070479Y-56637268D01*
X147245730Y-56812519D01*
X147259591Y-56829409D01*
X147263357Y-56832500D01*
X145444246Y-56832500D01*
X145435969Y-56820113D01*
X145363887Y-56748031D01*
X145279128Y-56691397D01*
X145184949Y-56652387D01*
X145084969Y-56632500D01*
X144983031Y-56632500D01*
X144883051Y-56652387D01*
X144788872Y-56691397D01*
X144704113Y-56748031D01*
X144632031Y-56820113D01*
X144623754Y-56832500D01*
X140271500Y-56832500D01*
X140271500Y-53456932D01*
X141176500Y-53456932D01*
X141176501Y-54747069D01*
X141189777Y-54881861D01*
X141242240Y-55054811D01*
X141327437Y-55214202D01*
X141442092Y-55353909D01*
X141581799Y-55468564D01*
X141741190Y-55553761D01*
X141914140Y-55606224D01*
X142094000Y-55623939D01*
X142273861Y-55606224D01*
X142446811Y-55553761D01*
X142606202Y-55468564D01*
X142745909Y-55353909D01*
X142860564Y-55214202D01*
X142945761Y-55054811D01*
X142998224Y-54881861D01*
X143011500Y-54747069D01*
X143011500Y-53456932D01*
X154676500Y-53456932D01*
X154676501Y-54747069D01*
X154689777Y-54881861D01*
X154742240Y-55054811D01*
X154827437Y-55214202D01*
X154942092Y-55353909D01*
X155081799Y-55468564D01*
X155241190Y-55553761D01*
X155414140Y-55606224D01*
X155594000Y-55623939D01*
X155773861Y-55606224D01*
X155946811Y-55553761D01*
X156106202Y-55468564D01*
X156245909Y-55353909D01*
X156360564Y-55214202D01*
X156445761Y-55054811D01*
X156498224Y-54881861D01*
X156511500Y-54747069D01*
X156511500Y-53456931D01*
X156498224Y-53322139D01*
X156445761Y-53149189D01*
X156360564Y-52989798D01*
X156245909Y-52850091D01*
X156106201Y-52735436D01*
X155946810Y-52650239D01*
X155773860Y-52597776D01*
X155594000Y-52580061D01*
X155414139Y-52597776D01*
X155241189Y-52650239D01*
X155081798Y-52735436D01*
X154942091Y-52850091D01*
X154827436Y-52989799D01*
X154742239Y-53149190D01*
X154689776Y-53322140D01*
X154676500Y-53456932D01*
X143011500Y-53456932D01*
X143011500Y-53456931D01*
X142998224Y-53322139D01*
X142945761Y-53149189D01*
X142860564Y-52989798D01*
X142745909Y-52850091D01*
X142606201Y-52735436D01*
X142446810Y-52650239D01*
X142273860Y-52597776D01*
X142094000Y-52580061D01*
X141914139Y-52597776D01*
X141741189Y-52650239D01*
X141581798Y-52735436D01*
X141442091Y-52850091D01*
X141327436Y-52989799D01*
X141242239Y-53149190D01*
X141189776Y-53322140D01*
X141176500Y-53456932D01*
X140271500Y-53456932D01*
X140271500Y-47887732D01*
X143068500Y-47887732D01*
X143068500Y-48316268D01*
X143152104Y-48736570D01*
X143316097Y-49132486D01*
X143554179Y-49488800D01*
X143857200Y-49791821D01*
X144213514Y-50029903D01*
X144609430Y-50193896D01*
X145029732Y-50277500D01*
X145458268Y-50277500D01*
X145878570Y-50193896D01*
X146274486Y-50029903D01*
X146630800Y-49791821D01*
X146933821Y-49488800D01*
X147171903Y-49132486D01*
X147335896Y-48736570D01*
X147419500Y-48316268D01*
X147419500Y-47887732D01*
X147335896Y-47467430D01*
X147171903Y-47071514D01*
X146933821Y-46715200D01*
X146630800Y-46412179D01*
X146274486Y-46174097D01*
X145878570Y-46010104D01*
X145458268Y-45926500D01*
X145029732Y-45926500D01*
X144609430Y-46010104D01*
X144213514Y-46174097D01*
X143857200Y-46412179D01*
X143554179Y-46715200D01*
X143316097Y-47071514D01*
X143152104Y-47467430D01*
X143068500Y-47887732D01*
X140271500Y-47887732D01*
X140271500Y-44513500D01*
X156908500Y-44513500D01*
X156908500Y-56033769D01*
G04 #@! TA.AperFunction,Conductor*
D35*
G36*
X156908500Y-56033769D02*
G01*
X156868949Y-56017387D01*
X156768969Y-55997500D01*
X156667031Y-55997500D01*
X156567051Y-56017387D01*
X156472872Y-56056397D01*
X156448772Y-56072500D01*
X147757289Y-56072500D01*
X147696268Y-56011479D01*
X147690613Y-55983051D01*
X147651603Y-55888872D01*
X147594969Y-55804113D01*
X147522887Y-55732031D01*
X147438128Y-55675397D01*
X147343949Y-55636387D01*
X147243969Y-55616500D01*
X147142031Y-55616500D01*
X147042051Y-55636387D01*
X146947872Y-55675397D01*
X146863113Y-55732031D01*
X146791031Y-55804113D01*
X146734397Y-55888872D01*
X146695387Y-55983051D01*
X146675500Y-56083031D01*
X146675500Y-56184969D01*
X146695387Y-56284949D01*
X146734397Y-56379128D01*
X146791031Y-56463887D01*
X146863113Y-56535969D01*
X146947872Y-56592603D01*
X147042051Y-56631613D01*
X147070479Y-56637268D01*
X147245730Y-56812519D01*
X147259591Y-56829409D01*
X147263357Y-56832500D01*
X145444246Y-56832500D01*
X145435969Y-56820113D01*
X145363887Y-56748031D01*
X145279128Y-56691397D01*
X145184949Y-56652387D01*
X145084969Y-56632500D01*
X144983031Y-56632500D01*
X144883051Y-56652387D01*
X144788872Y-56691397D01*
X144704113Y-56748031D01*
X144632031Y-56820113D01*
X144623754Y-56832500D01*
X140271500Y-56832500D01*
X140271500Y-53456932D01*
X141176500Y-53456932D01*
X141176501Y-54747069D01*
X141189777Y-54881861D01*
X141242240Y-55054811D01*
X141327437Y-55214202D01*
X141442092Y-55353909D01*
X141581799Y-55468564D01*
X141741190Y-55553761D01*
X141914140Y-55606224D01*
X142094000Y-55623939D01*
X142273861Y-55606224D01*
X142446811Y-55553761D01*
X142606202Y-55468564D01*
X142745909Y-55353909D01*
X142860564Y-55214202D01*
X142945761Y-55054811D01*
X142998224Y-54881861D01*
X143011500Y-54747069D01*
X143011500Y-53456932D01*
X154676500Y-53456932D01*
X154676501Y-54747069D01*
X154689777Y-54881861D01*
X154742240Y-55054811D01*
X154827437Y-55214202D01*
X154942092Y-55353909D01*
X155081799Y-55468564D01*
X155241190Y-55553761D01*
X155414140Y-55606224D01*
X155594000Y-55623939D01*
X155773861Y-55606224D01*
X155946811Y-55553761D01*
X156106202Y-55468564D01*
X156245909Y-55353909D01*
X156360564Y-55214202D01*
X156445761Y-55054811D01*
X156498224Y-54881861D01*
X156511500Y-54747069D01*
X156511500Y-53456931D01*
X156498224Y-53322139D01*
X156445761Y-53149189D01*
X156360564Y-52989798D01*
X156245909Y-52850091D01*
X156106201Y-52735436D01*
X155946810Y-52650239D01*
X155773860Y-52597776D01*
X155594000Y-52580061D01*
X155414139Y-52597776D01*
X155241189Y-52650239D01*
X155081798Y-52735436D01*
X154942091Y-52850091D01*
X154827436Y-52989799D01*
X154742239Y-53149190D01*
X154689776Y-53322140D01*
X154676500Y-53456932D01*
X143011500Y-53456932D01*
X143011500Y-53456931D01*
X142998224Y-53322139D01*
X142945761Y-53149189D01*
X142860564Y-52989798D01*
X142745909Y-52850091D01*
X142606201Y-52735436D01*
X142446810Y-52650239D01*
X142273860Y-52597776D01*
X142094000Y-52580061D01*
X141914139Y-52597776D01*
X141741189Y-52650239D01*
X141581798Y-52735436D01*
X141442091Y-52850091D01*
X141327436Y-52989799D01*
X141242239Y-53149190D01*
X141189776Y-53322140D01*
X141176500Y-53456932D01*
X140271500Y-53456932D01*
X140271500Y-47887732D01*
X143068500Y-47887732D01*
X143068500Y-48316268D01*
X143152104Y-48736570D01*
X143316097Y-49132486D01*
X143554179Y-49488800D01*
X143857200Y-49791821D01*
X144213514Y-50029903D01*
X144609430Y-50193896D01*
X145029732Y-50277500D01*
X145458268Y-50277500D01*
X145878570Y-50193896D01*
X146274486Y-50029903D01*
X146630800Y-49791821D01*
X146933821Y-49488800D01*
X147171903Y-49132486D01*
X147335896Y-48736570D01*
X147419500Y-48316268D01*
X147419500Y-47887732D01*
X147335896Y-47467430D01*
X147171903Y-47071514D01*
X146933821Y-46715200D01*
X146630800Y-46412179D01*
X146274486Y-46174097D01*
X145878570Y-46010104D01*
X145458268Y-45926500D01*
X145029732Y-45926500D01*
X144609430Y-46010104D01*
X144213514Y-46174097D01*
X143857200Y-46412179D01*
X143554179Y-46715200D01*
X143316097Y-47071514D01*
X143152104Y-47467430D01*
X143068500Y-47887732D01*
X140271500Y-47887732D01*
X140271500Y-44513500D01*
X156908500Y-44513500D01*
X156908500Y-56033769D01*
G37*
G04 #@! TD.AperFunction*
D36*
X197993000Y-85095706D02*
X197918260Y-85034369D01*
X197756984Y-84948165D01*
X197581989Y-84895081D01*
X197400000Y-84877157D01*
X193760000Y-84877157D01*
X193578011Y-84895081D01*
X193403016Y-84948165D01*
X193241740Y-85034369D01*
X193100380Y-85150380D01*
X192984369Y-85291740D01*
X192898165Y-85453016D01*
X192845081Y-85628011D01*
X192827157Y-85810000D01*
X192827157Y-86910000D01*
X192845081Y-87091989D01*
X192898165Y-87266984D01*
X192984369Y-87428260D01*
X193100380Y-87569620D01*
X193241740Y-87685631D01*
X193403016Y-87771835D01*
X193578011Y-87824919D01*
X193760000Y-87842843D01*
X197400000Y-87842843D01*
X197581989Y-87824919D01*
X197756984Y-87771835D01*
X197918260Y-87685631D01*
X197993000Y-87624294D01*
X197993000Y-99695000D01*
X193421000Y-99695000D01*
X193421000Y-91694000D01*
X193413679Y-91619671D01*
X193391998Y-91548198D01*
X193356790Y-91482328D01*
X193309408Y-91424592D01*
X193251672Y-91377210D01*
X193185802Y-91342002D01*
X193114329Y-91320321D01*
X193040000Y-91313000D01*
X188214000Y-91313000D01*
X188214000Y-82677000D01*
X197993000Y-82677000D01*
X197993000Y-85095706D01*
G04 #@! TA.AperFunction,Conductor*
D35*
G36*
X197993000Y-85095706D02*
G01*
X197918260Y-85034369D01*
X197756984Y-84948165D01*
X197581989Y-84895081D01*
X197400000Y-84877157D01*
X193760000Y-84877157D01*
X193578011Y-84895081D01*
X193403016Y-84948165D01*
X193241740Y-85034369D01*
X193100380Y-85150380D01*
X192984369Y-85291740D01*
X192898165Y-85453016D01*
X192845081Y-85628011D01*
X192827157Y-85810000D01*
X192827157Y-86910000D01*
X192845081Y-87091989D01*
X192898165Y-87266984D01*
X192984369Y-87428260D01*
X193100380Y-87569620D01*
X193241740Y-87685631D01*
X193403016Y-87771835D01*
X193578011Y-87824919D01*
X193760000Y-87842843D01*
X197400000Y-87842843D01*
X197581989Y-87824919D01*
X197756984Y-87771835D01*
X197918260Y-87685631D01*
X197993000Y-87624294D01*
X197993000Y-99695000D01*
X193421000Y-99695000D01*
X193421000Y-91694000D01*
X193413679Y-91619671D01*
X193391998Y-91548198D01*
X193356790Y-91482328D01*
X193309408Y-91424592D01*
X193251672Y-91377210D01*
X193185802Y-91342002D01*
X193114329Y-91320321D01*
X193040000Y-91313000D01*
X188214000Y-91313000D01*
X188214000Y-82677000D01*
X197993000Y-82677000D01*
X197993000Y-85095706D01*
G37*
G04 #@! TD.AperFunction*
D36*
X187706000Y-91694000D02*
X187708440Y-91718776D01*
X187715667Y-91742601D01*
X187727403Y-91764557D01*
X187743197Y-91783803D01*
X187762443Y-91799597D01*
X187784399Y-91811333D01*
X187808224Y-91818560D01*
X187833000Y-91821000D01*
X192913000Y-91821000D01*
X192913000Y-99695000D01*
X188087000Y-99695000D01*
X188087000Y-98056695D01*
X188096812Y-98156317D01*
X188167202Y-98388362D01*
X188281509Y-98602215D01*
X188435340Y-98789660D01*
X188622784Y-98943491D01*
X188836637Y-99057798D01*
X189068682Y-99128188D01*
X189310000Y-99151956D01*
X189551317Y-99128188D01*
X189783362Y-99057798D01*
X189997215Y-98943491D01*
X190184660Y-98789660D01*
X190338491Y-98602216D01*
X190452798Y-98388363D01*
X190523188Y-98156318D01*
X190541000Y-97975472D01*
X190541000Y-97604529D01*
X190523188Y-97423683D01*
X190452798Y-97191638D01*
X190338491Y-96977785D01*
X190184660Y-96790340D01*
X189997216Y-96636509D01*
X189783363Y-96522202D01*
X189551318Y-96451812D01*
X189310000Y-96428044D01*
X189068683Y-96451812D01*
X188836638Y-96522202D01*
X188622785Y-96636509D01*
X188435341Y-96790340D01*
X188281509Y-96977784D01*
X188167202Y-97191637D01*
X188096812Y-97423682D01*
X188087000Y-97523304D01*
X188087000Y-96520000D01*
X188084560Y-96495224D01*
X188077333Y-96471399D01*
X188065597Y-96449443D01*
X188049803Y-96430197D01*
X188030557Y-96414403D01*
X188008601Y-96402667D01*
X187984776Y-96395440D01*
X187960000Y-96393000D01*
X183007000Y-96393000D01*
X183007000Y-87698677D01*
X183028322Y-87672696D01*
X183063701Y-87606508D01*
X183085487Y-87534689D01*
X183092843Y-87460000D01*
X183092843Y-85260000D01*
X183085487Y-85185311D01*
X183063701Y-85113492D01*
X183028322Y-85047304D01*
X183007000Y-85021323D01*
X183007000Y-82677000D01*
X187706000Y-82677000D01*
X187706000Y-91694000D01*
G04 #@! TA.AperFunction,Conductor*
D35*
G36*
X187706000Y-91694000D02*
G01*
X187708440Y-91718776D01*
X187715667Y-91742601D01*
X187727403Y-91764557D01*
X187743197Y-91783803D01*
X187762443Y-91799597D01*
X187784399Y-91811333D01*
X187808224Y-91818560D01*
X187833000Y-91821000D01*
X192913000Y-91821000D01*
X192913000Y-99695000D01*
X188087000Y-99695000D01*
X188087000Y-98056695D01*
X188096812Y-98156317D01*
X188167202Y-98388362D01*
X188281509Y-98602215D01*
X188435340Y-98789660D01*
X188622784Y-98943491D01*
X188836637Y-99057798D01*
X189068682Y-99128188D01*
X189310000Y-99151956D01*
X189551317Y-99128188D01*
X189783362Y-99057798D01*
X189997215Y-98943491D01*
X190184660Y-98789660D01*
X190338491Y-98602216D01*
X190452798Y-98388363D01*
X190523188Y-98156318D01*
X190541000Y-97975472D01*
X190541000Y-97604529D01*
X190523188Y-97423683D01*
X190452798Y-97191638D01*
X190338491Y-96977785D01*
X190184660Y-96790340D01*
X189997216Y-96636509D01*
X189783363Y-96522202D01*
X189551318Y-96451812D01*
X189310000Y-96428044D01*
X189068683Y-96451812D01*
X188836638Y-96522202D01*
X188622785Y-96636509D01*
X188435341Y-96790340D01*
X188281509Y-96977784D01*
X188167202Y-97191637D01*
X188096812Y-97423682D01*
X188087000Y-97523304D01*
X188087000Y-96520000D01*
X188084560Y-96495224D01*
X188077333Y-96471399D01*
X188065597Y-96449443D01*
X188049803Y-96430197D01*
X188030557Y-96414403D01*
X188008601Y-96402667D01*
X187984776Y-96395440D01*
X187960000Y-96393000D01*
X183007000Y-96393000D01*
X183007000Y-87698677D01*
X183028322Y-87672696D01*
X183063701Y-87606508D01*
X183085487Y-87534689D01*
X183092843Y-87460000D01*
X183092843Y-85260000D01*
X183085487Y-85185311D01*
X183063701Y-85113492D01*
X183028322Y-85047304D01*
X183007000Y-85021323D01*
X183007000Y-82677000D01*
X187706000Y-82677000D01*
X187706000Y-91694000D01*
G37*
G04 #@! TD.AperFunction*
D36*
X197993000Y-119639706D02*
X197918260Y-119578369D01*
X197756984Y-119492165D01*
X197581989Y-119439081D01*
X197400000Y-119421157D01*
X193760000Y-119421157D01*
X193578011Y-119439081D01*
X193403016Y-119492165D01*
X193241740Y-119578369D01*
X193100380Y-119694380D01*
X192984369Y-119835740D01*
X192898165Y-119997016D01*
X192845081Y-120172011D01*
X192827157Y-120354000D01*
X192827157Y-121454000D01*
X192845081Y-121635989D01*
X192898165Y-121810984D01*
X192984369Y-121972260D01*
X193100380Y-122113620D01*
X193241740Y-122229631D01*
X193403016Y-122315835D01*
X193578011Y-122368919D01*
X193760000Y-122386843D01*
X197400000Y-122386843D01*
X197581989Y-122368919D01*
X197756984Y-122315835D01*
X197918260Y-122229631D01*
X197993000Y-122168294D01*
X197993000Y-134493000D01*
X193167000Y-134493000D01*
X193167000Y-127762000D01*
X193159679Y-127687671D01*
X193137998Y-127616198D01*
X193102790Y-127550328D01*
X193055408Y-127492592D01*
X192997672Y-127445210D01*
X192931802Y-127410002D01*
X192860329Y-127388321D01*
X192786000Y-127381000D01*
X188214000Y-127381000D01*
X188214000Y-118237000D01*
X197993000Y-118237000D01*
X197993000Y-119639706D01*
G04 #@! TA.AperFunction,Conductor*
D35*
G36*
X197993000Y-119639706D02*
G01*
X197918260Y-119578369D01*
X197756984Y-119492165D01*
X197581989Y-119439081D01*
X197400000Y-119421157D01*
X193760000Y-119421157D01*
X193578011Y-119439081D01*
X193403016Y-119492165D01*
X193241740Y-119578369D01*
X193100380Y-119694380D01*
X192984369Y-119835740D01*
X192898165Y-119997016D01*
X192845081Y-120172011D01*
X192827157Y-120354000D01*
X192827157Y-121454000D01*
X192845081Y-121635989D01*
X192898165Y-121810984D01*
X192984369Y-121972260D01*
X193100380Y-122113620D01*
X193241740Y-122229631D01*
X193403016Y-122315835D01*
X193578011Y-122368919D01*
X193760000Y-122386843D01*
X197400000Y-122386843D01*
X197581989Y-122368919D01*
X197756984Y-122315835D01*
X197918260Y-122229631D01*
X197993000Y-122168294D01*
X197993000Y-134493000D01*
X193167000Y-134493000D01*
X193167000Y-127762000D01*
X193159679Y-127687671D01*
X193137998Y-127616198D01*
X193102790Y-127550328D01*
X193055408Y-127492592D01*
X192997672Y-127445210D01*
X192931802Y-127410002D01*
X192860329Y-127388321D01*
X192786000Y-127381000D01*
X188214000Y-127381000D01*
X188214000Y-118237000D01*
X197993000Y-118237000D01*
X197993000Y-119639706D01*
G37*
G04 #@! TD.AperFunction*
D36*
X187706000Y-127762000D02*
X187708440Y-127786776D01*
X187715667Y-127810601D01*
X187727403Y-127832557D01*
X187743197Y-127851803D01*
X187762443Y-127867597D01*
X187784399Y-127879333D01*
X187808224Y-127886560D01*
X187833000Y-127889000D01*
X192659000Y-127889000D01*
X192659000Y-134493000D01*
X183007000Y-134493000D01*
X183007000Y-133869845D01*
X183027509Y-133908215D01*
X183181340Y-134095660D01*
X183368784Y-134249491D01*
X183582637Y-134363798D01*
X183814682Y-134434188D01*
X184056000Y-134457956D01*
X184297317Y-134434188D01*
X184529362Y-134363798D01*
X184743215Y-134249491D01*
X184930660Y-134095660D01*
X185084491Y-133908216D01*
X185198798Y-133694363D01*
X185269188Y-133462318D01*
X185287000Y-133281472D01*
X185287000Y-132910529D01*
X185287000Y-132910528D01*
X185325000Y-132910528D01*
X185325000Y-133281471D01*
X185342812Y-133462317D01*
X185413202Y-133694362D01*
X185527509Y-133908215D01*
X185681340Y-134095660D01*
X185868784Y-134249491D01*
X186082637Y-134363798D01*
X186314682Y-134434188D01*
X186556000Y-134457956D01*
X186797317Y-134434188D01*
X187029362Y-134363798D01*
X187243215Y-134249491D01*
X187430660Y-134095660D01*
X187584491Y-133908216D01*
X187698798Y-133694363D01*
X187769188Y-133462318D01*
X187787000Y-133281472D01*
X187787000Y-132910529D01*
X187787000Y-132910528D01*
X187825000Y-132910528D01*
X187825000Y-133281471D01*
X187842812Y-133462317D01*
X187913202Y-133694362D01*
X188027509Y-133908215D01*
X188181340Y-134095660D01*
X188368784Y-134249491D01*
X188582637Y-134363798D01*
X188814682Y-134434188D01*
X189056000Y-134457956D01*
X189297317Y-134434188D01*
X189529362Y-134363798D01*
X189743215Y-134249491D01*
X189930660Y-134095660D01*
X190084491Y-133908216D01*
X190198798Y-133694363D01*
X190269188Y-133462318D01*
X190287000Y-133281472D01*
X190287000Y-132910529D01*
X190269188Y-132729683D01*
X190198798Y-132497638D01*
X190084491Y-132283785D01*
X189930660Y-132096340D01*
X189743216Y-131942509D01*
X189529363Y-131828202D01*
X189297318Y-131757812D01*
X189056000Y-131734044D01*
X188814683Y-131757812D01*
X188582638Y-131828202D01*
X188368785Y-131942509D01*
X188181341Y-132096340D01*
X188027509Y-132283784D01*
X187913202Y-132497637D01*
X187842812Y-132729682D01*
X187825000Y-132910528D01*
X187787000Y-132910528D01*
X187769188Y-132729683D01*
X187698798Y-132497638D01*
X187584491Y-132283785D01*
X187430660Y-132096340D01*
X187243216Y-131942509D01*
X187029363Y-131828202D01*
X186797318Y-131757812D01*
X186556000Y-131734044D01*
X186314683Y-131757812D01*
X186082638Y-131828202D01*
X185868785Y-131942509D01*
X185681341Y-132096340D01*
X185527509Y-132283784D01*
X185413202Y-132497637D01*
X185342812Y-132729682D01*
X185325000Y-132910528D01*
X185287000Y-132910528D01*
X185269188Y-132729683D01*
X185198798Y-132497638D01*
X185084491Y-132283785D01*
X184930660Y-132096340D01*
X184743216Y-131942509D01*
X184529363Y-131828202D01*
X184297318Y-131757812D01*
X184056000Y-131734044D01*
X183814683Y-131757812D01*
X183582638Y-131828202D01*
X183368785Y-131942509D01*
X183181341Y-132096340D01*
X183027509Y-132283784D01*
X183007000Y-132322154D01*
X183007000Y-122242677D01*
X183028322Y-122216696D01*
X183063701Y-122150508D01*
X183085487Y-122078689D01*
X183092843Y-122004000D01*
X183092843Y-119804000D01*
X183085487Y-119729311D01*
X183063701Y-119657492D01*
X183028322Y-119591304D01*
X183007000Y-119565323D01*
X183007000Y-118237000D01*
X187706000Y-118237000D01*
X187706000Y-127762000D01*
G04 #@! TA.AperFunction,Conductor*
D35*
G36*
X187706000Y-127762000D02*
G01*
X187708440Y-127786776D01*
X187715667Y-127810601D01*
X187727403Y-127832557D01*
X187743197Y-127851803D01*
X187762443Y-127867597D01*
X187784399Y-127879333D01*
X187808224Y-127886560D01*
X187833000Y-127889000D01*
X192659000Y-127889000D01*
X192659000Y-134493000D01*
X183007000Y-134493000D01*
X183007000Y-133869845D01*
X183027509Y-133908215D01*
X183181340Y-134095660D01*
X183368784Y-134249491D01*
X183582637Y-134363798D01*
X183814682Y-134434188D01*
X184056000Y-134457956D01*
X184297317Y-134434188D01*
X184529362Y-134363798D01*
X184743215Y-134249491D01*
X184930660Y-134095660D01*
X185084491Y-133908216D01*
X185198798Y-133694363D01*
X185269188Y-133462318D01*
X185287000Y-133281472D01*
X185287000Y-132910529D01*
X185287000Y-132910528D01*
X185325000Y-132910528D01*
X185325000Y-133281471D01*
X185342812Y-133462317D01*
X185413202Y-133694362D01*
X185527509Y-133908215D01*
X185681340Y-134095660D01*
X185868784Y-134249491D01*
X186082637Y-134363798D01*
X186314682Y-134434188D01*
X186556000Y-134457956D01*
X186797317Y-134434188D01*
X187029362Y-134363798D01*
X187243215Y-134249491D01*
X187430660Y-134095660D01*
X187584491Y-133908216D01*
X187698798Y-133694363D01*
X187769188Y-133462318D01*
X187787000Y-133281472D01*
X187787000Y-132910529D01*
X187787000Y-132910528D01*
X187825000Y-132910528D01*
X187825000Y-133281471D01*
X187842812Y-133462317D01*
X187913202Y-133694362D01*
X188027509Y-133908215D01*
X188181340Y-134095660D01*
X188368784Y-134249491D01*
X188582637Y-134363798D01*
X188814682Y-134434188D01*
X189056000Y-134457956D01*
X189297317Y-134434188D01*
X189529362Y-134363798D01*
X189743215Y-134249491D01*
X189930660Y-134095660D01*
X190084491Y-133908216D01*
X190198798Y-133694363D01*
X190269188Y-133462318D01*
X190287000Y-133281472D01*
X190287000Y-132910529D01*
X190269188Y-132729683D01*
X190198798Y-132497638D01*
X190084491Y-132283785D01*
X189930660Y-132096340D01*
X189743216Y-131942509D01*
X189529363Y-131828202D01*
X189297318Y-131757812D01*
X189056000Y-131734044D01*
X188814683Y-131757812D01*
X188582638Y-131828202D01*
X188368785Y-131942509D01*
X188181341Y-132096340D01*
X188027509Y-132283784D01*
X187913202Y-132497637D01*
X187842812Y-132729682D01*
X187825000Y-132910528D01*
X187787000Y-132910528D01*
X187769188Y-132729683D01*
X187698798Y-132497638D01*
X187584491Y-132283785D01*
X187430660Y-132096340D01*
X187243216Y-131942509D01*
X187029363Y-131828202D01*
X186797318Y-131757812D01*
X186556000Y-131734044D01*
X186314683Y-131757812D01*
X186082638Y-131828202D01*
X185868785Y-131942509D01*
X185681341Y-132096340D01*
X185527509Y-132283784D01*
X185413202Y-132497637D01*
X185342812Y-132729682D01*
X185325000Y-132910528D01*
X185287000Y-132910528D01*
X185269188Y-132729683D01*
X185198798Y-132497638D01*
X185084491Y-132283785D01*
X184930660Y-132096340D01*
X184743216Y-131942509D01*
X184529363Y-131828202D01*
X184297318Y-131757812D01*
X184056000Y-131734044D01*
X183814683Y-131757812D01*
X183582638Y-131828202D01*
X183368785Y-131942509D01*
X183181341Y-132096340D01*
X183027509Y-132283784D01*
X183007000Y-132322154D01*
X183007000Y-122242677D01*
X183028322Y-122216696D01*
X183063701Y-122150508D01*
X183085487Y-122078689D01*
X183092843Y-122004000D01*
X183092843Y-119804000D01*
X183085487Y-119729311D01*
X183063701Y-119657492D01*
X183028322Y-119591304D01*
X183007000Y-119565323D01*
X183007000Y-118237000D01*
X187706000Y-118237000D01*
X187706000Y-127762000D01*
G37*
G04 #@! TD.AperFunction*
D36*
X112649000Y-116967000D02*
X110490000Y-116967000D01*
X110415671Y-116974321D01*
X110344198Y-116996002D01*
X110278328Y-117031210D01*
X110220592Y-117078592D01*
X110173210Y-117136328D01*
X110138002Y-117202198D01*
X110116321Y-117273671D01*
X110109000Y-117348000D01*
X110109000Y-122555000D01*
X105537000Y-122555000D01*
X105537000Y-122242677D01*
X105558322Y-122216696D01*
X105593701Y-122150508D01*
X105615487Y-122078689D01*
X105622843Y-122004000D01*
X105622843Y-119804000D01*
X105615487Y-119729311D01*
X105593701Y-119657492D01*
X105558322Y-119591304D01*
X105537000Y-119565323D01*
X105537000Y-113606528D01*
X105569000Y-113606528D01*
X105569000Y-113977471D01*
X105586812Y-114158317D01*
X105657202Y-114390362D01*
X105771509Y-114604215D01*
X105925340Y-114791660D01*
X106112784Y-114945491D01*
X106326637Y-115059798D01*
X106558682Y-115130188D01*
X106800000Y-115153956D01*
X107041317Y-115130188D01*
X107273362Y-115059798D01*
X107487215Y-114945491D01*
X107674660Y-114791660D01*
X107828491Y-114604216D01*
X107942798Y-114390363D01*
X108013188Y-114158318D01*
X108031000Y-113977472D01*
X108031000Y-113606529D01*
X108031000Y-113606528D01*
X108069000Y-113606528D01*
X108069000Y-113977471D01*
X108086812Y-114158317D01*
X108157202Y-114390362D01*
X108271509Y-114604215D01*
X108425340Y-114791660D01*
X108612784Y-114945491D01*
X108826637Y-115059798D01*
X109058682Y-115130188D01*
X109300000Y-115153956D01*
X109541317Y-115130188D01*
X109773362Y-115059798D01*
X109987215Y-114945491D01*
X110174660Y-114791660D01*
X110328491Y-114604216D01*
X110442798Y-114390363D01*
X110513188Y-114158318D01*
X110531000Y-113977472D01*
X110531000Y-113606529D01*
X110513188Y-113425683D01*
X110442798Y-113193638D01*
X110328491Y-112979785D01*
X110174660Y-112792340D01*
X109987216Y-112638509D01*
X109773363Y-112524202D01*
X109541318Y-112453812D01*
X109300000Y-112430044D01*
X109058683Y-112453812D01*
X108826638Y-112524202D01*
X108612785Y-112638509D01*
X108425341Y-112792340D01*
X108271509Y-112979784D01*
X108157202Y-113193637D01*
X108086812Y-113425682D01*
X108069000Y-113606528D01*
X108031000Y-113606528D01*
X108013188Y-113425683D01*
X107942798Y-113193638D01*
X107828491Y-112979785D01*
X107674660Y-112792340D01*
X107487216Y-112638509D01*
X107273363Y-112524202D01*
X107041318Y-112453812D01*
X106800000Y-112430044D01*
X106558683Y-112453812D01*
X106326638Y-112524202D01*
X106112785Y-112638509D01*
X105925341Y-112792340D01*
X105771509Y-112979784D01*
X105657202Y-113193637D01*
X105586812Y-113425682D01*
X105569000Y-113606528D01*
X105537000Y-113606528D01*
X105537000Y-112395000D01*
X112649000Y-112395000D01*
X112649000Y-116967000D01*
G04 #@! TA.AperFunction,Conductor*
D35*
G36*
X112649000Y-116967000D02*
G01*
X110490000Y-116967000D01*
X110415671Y-116974321D01*
X110344198Y-116996002D01*
X110278328Y-117031210D01*
X110220592Y-117078592D01*
X110173210Y-117136328D01*
X110138002Y-117202198D01*
X110116321Y-117273671D01*
X110109000Y-117348000D01*
X110109000Y-122555000D01*
X105537000Y-122555000D01*
X105537000Y-122242677D01*
X105558322Y-122216696D01*
X105593701Y-122150508D01*
X105615487Y-122078689D01*
X105622843Y-122004000D01*
X105622843Y-119804000D01*
X105615487Y-119729311D01*
X105593701Y-119657492D01*
X105558322Y-119591304D01*
X105537000Y-119565323D01*
X105537000Y-113606528D01*
X105569000Y-113606528D01*
X105569000Y-113977471D01*
X105586812Y-114158317D01*
X105657202Y-114390362D01*
X105771509Y-114604215D01*
X105925340Y-114791660D01*
X106112784Y-114945491D01*
X106326637Y-115059798D01*
X106558682Y-115130188D01*
X106800000Y-115153956D01*
X107041317Y-115130188D01*
X107273362Y-115059798D01*
X107487215Y-114945491D01*
X107674660Y-114791660D01*
X107828491Y-114604216D01*
X107942798Y-114390363D01*
X108013188Y-114158318D01*
X108031000Y-113977472D01*
X108031000Y-113606529D01*
X108031000Y-113606528D01*
X108069000Y-113606528D01*
X108069000Y-113977471D01*
X108086812Y-114158317D01*
X108157202Y-114390362D01*
X108271509Y-114604215D01*
X108425340Y-114791660D01*
X108612784Y-114945491D01*
X108826637Y-115059798D01*
X109058682Y-115130188D01*
X109300000Y-115153956D01*
X109541317Y-115130188D01*
X109773362Y-115059798D01*
X109987215Y-114945491D01*
X110174660Y-114791660D01*
X110328491Y-114604216D01*
X110442798Y-114390363D01*
X110513188Y-114158318D01*
X110531000Y-113977472D01*
X110531000Y-113606529D01*
X110513188Y-113425683D01*
X110442798Y-113193638D01*
X110328491Y-112979785D01*
X110174660Y-112792340D01*
X109987216Y-112638509D01*
X109773363Y-112524202D01*
X109541318Y-112453812D01*
X109300000Y-112430044D01*
X109058683Y-112453812D01*
X108826638Y-112524202D01*
X108612785Y-112638509D01*
X108425341Y-112792340D01*
X108271509Y-112979784D01*
X108157202Y-113193637D01*
X108086812Y-113425682D01*
X108069000Y-113606528D01*
X108031000Y-113606528D01*
X108013188Y-113425683D01*
X107942798Y-113193638D01*
X107828491Y-112979785D01*
X107674660Y-112792340D01*
X107487216Y-112638509D01*
X107273363Y-112524202D01*
X107041318Y-112453812D01*
X106800000Y-112430044D01*
X106558683Y-112453812D01*
X106326638Y-112524202D01*
X106112785Y-112638509D01*
X105925341Y-112792340D01*
X105771509Y-112979784D01*
X105657202Y-113193637D01*
X105586812Y-113425682D01*
X105569000Y-113606528D01*
X105537000Y-113606528D01*
X105537000Y-112395000D01*
X112649000Y-112395000D01*
X112649000Y-116967000D01*
G37*
G04 #@! TD.AperFunction*
D36*
X120523000Y-119639706D02*
X120448260Y-119578369D01*
X120286984Y-119492165D01*
X120111989Y-119439081D01*
X119930000Y-119421157D01*
X116290000Y-119421157D01*
X116108011Y-119439081D01*
X115933016Y-119492165D01*
X115771740Y-119578369D01*
X115630380Y-119694380D01*
X115514369Y-119835740D01*
X115428165Y-119997016D01*
X115375081Y-120172011D01*
X115357157Y-120354000D01*
X115357157Y-121454000D01*
X115375081Y-121635989D01*
X115428165Y-121810984D01*
X115514369Y-121972260D01*
X115630380Y-122113620D01*
X115771740Y-122229631D01*
X115933016Y-122315835D01*
X116108011Y-122368919D01*
X116290000Y-122386843D01*
X119930000Y-122386843D01*
X120111989Y-122368919D01*
X120286984Y-122315835D01*
X120448260Y-122229631D01*
X120523000Y-122168294D01*
X120523000Y-122555000D01*
X110617000Y-122555000D01*
X110617000Y-121838738D01*
X110631835Y-121810984D01*
X110684919Y-121635989D01*
X110702843Y-121454000D01*
X110702843Y-120354000D01*
X110684919Y-120172011D01*
X110631835Y-119997016D01*
X110617000Y-119969262D01*
X110617000Y-117475000D01*
X113030000Y-117475000D01*
X113054776Y-117472560D01*
X113078601Y-117465333D01*
X113100557Y-117453597D01*
X113119803Y-117437803D01*
X113135597Y-117418557D01*
X113147333Y-117396601D01*
X113154560Y-117372776D01*
X113157000Y-117348000D01*
X113157000Y-112395000D01*
X120523000Y-112395000D01*
X120523000Y-119639706D01*
G04 #@! TA.AperFunction,Conductor*
D35*
G36*
X120523000Y-119639706D02*
G01*
X120448260Y-119578369D01*
X120286984Y-119492165D01*
X120111989Y-119439081D01*
X119930000Y-119421157D01*
X116290000Y-119421157D01*
X116108011Y-119439081D01*
X115933016Y-119492165D01*
X115771740Y-119578369D01*
X115630380Y-119694380D01*
X115514369Y-119835740D01*
X115428165Y-119997016D01*
X115375081Y-120172011D01*
X115357157Y-120354000D01*
X115357157Y-121454000D01*
X115375081Y-121635989D01*
X115428165Y-121810984D01*
X115514369Y-121972260D01*
X115630380Y-122113620D01*
X115771740Y-122229631D01*
X115933016Y-122315835D01*
X116108011Y-122368919D01*
X116290000Y-122386843D01*
X119930000Y-122386843D01*
X120111989Y-122368919D01*
X120286984Y-122315835D01*
X120448260Y-122229631D01*
X120523000Y-122168294D01*
X120523000Y-122555000D01*
X110617000Y-122555000D01*
X110617000Y-121838738D01*
X110631835Y-121810984D01*
X110684919Y-121635989D01*
X110702843Y-121454000D01*
X110702843Y-120354000D01*
X110684919Y-120172011D01*
X110631835Y-119997016D01*
X110617000Y-119969262D01*
X110617000Y-117475000D01*
X113030000Y-117475000D01*
X113054776Y-117472560D01*
X113078601Y-117465333D01*
X113100557Y-117453597D01*
X113119803Y-117437803D01*
X113135597Y-117418557D01*
X113147333Y-117396601D01*
X113154560Y-117372776D01*
X113157000Y-117348000D01*
X113157000Y-112395000D01*
X120523000Y-112395000D01*
X120523000Y-119639706D01*
G37*
G04 #@! TD.AperFunction*
M02*
