M48
; DRILL file {KiCad 6.0.2-378541a8eb~116~ubuntu20.04.1} date Wed 16 Feb 2022 11:10:02 PM CET
; FORMAT={-:-/ absolute / metric / decimal}
; #@! TF.CreationDate,2022-02-16T23:10:02+01:00
; #@! TF.GenerationSoftware,Kicad,Pcbnew,6.0.2-378541a8eb~116~ubuntu20.04.1
; #@! TF.FileFunction,Plated,1,4,PTH
FMAT,2
METRIC
; #@! TA.AperFunction,Plated,PTH,ViaDrill
T1C0.200
; #@! TA.AperFunction,Plated,PTH,ComponentDrill
T2C0.300
; #@! TA.AperFunction,Plated,PTH,ViaDrill
T3C0.400
; #@! TA.AperFunction,Plated,PTH,ComponentDrill
T4C0.600
; #@! TA.AperFunction,Plated,PTH,ComponentDrill
T5C0.762
; #@! TA.AperFunction,Plated,PTH,ComponentDrill
T6C0.800
; #@! TA.AperFunction,Plated,PTH,ComponentDrill
T7C0.850
; #@! TA.AperFunction,Plated,PTH,ComponentDrill
T8C0.950
; #@! TA.AperFunction,Plated,PTH,ComponentDrill
T9C1.000
; #@! TA.AperFunction,Plated,PTH,ComponentDrill
T10C1.020
; #@! TA.AperFunction,Plated,PTH,ComponentDrill
T11C2.700
; #@! TA.AperFunction,Plated,PTH,ComponentDrill
T12C3.000
%
G90
G05
T1
X143.79Y-73.914
X144.78Y-66.802
X145.034Y-57.15
X146.1Y-66.85
X147.193Y-56.134
X147.337Y-71.863
X147.574Y-66.929
X149.479Y-54.864
X149.479Y-55.372
X149.479Y-55.88
X149.987Y-54.864
X149.987Y-55.372
X149.987Y-55.88
X150.368Y-66.802
X150.495Y-54.864
X150.495Y-55.372
X150.495Y-55.88
X151.003Y-54.864
X151.003Y-55.372
X151.003Y-55.88
X151.384Y-66.802
X152.654Y-66.802
X152.654Y-68.326
X156.21Y-58.039
X156.464Y-70.358
X156.464Y-72.898
X156.718Y-56.515
X164.338Y-59.309
X193.929Y-76.2
X193.929Y-76.708
X193.929Y-77.216
X193.929Y-77.724
X194.437Y-76.2
X194.437Y-76.708
X194.437Y-77.216
X194.437Y-77.724
X194.843Y-70.612
X194.945Y-76.2
X194.945Y-76.708
X194.945Y-77.216
X194.945Y-77.724
X195.478Y-81.534
X195.501Y-79.756
X199.644Y-116.84
T2
X148.592Y-71.643
X148.592Y-72.913
X148.592Y-73.675
X148.592Y-74.437
X149.354Y-71.643
X149.862Y-72.913
X149.862Y-73.675
X149.862Y-74.437
X150.116Y-71.643
X150.624Y-72.913
X150.624Y-73.675
X150.624Y-74.437
X150.878Y-71.643
X151.386Y-74.437
T3
X92.71Y-88.9
X92.71Y-146.431
X93.98Y-88.265
X93.98Y-145.796
X97.083Y-142.168
X97.79Y-140.97
X108.585Y-48.895
X109.855Y-48.26
X138.176Y-59.944
X138.176Y-61.976
X138.176Y-64.008
X138.176Y-66.04
X138.176Y-68.072
X138.684Y-70.104
X139.192Y-79.375
X140.208Y-59.944
X140.208Y-61.976
X140.208Y-64.008
X140.208Y-66.04
X140.208Y-68.072
X140.716Y-73.66
X141.224Y-45.212
X141.224Y-47.244
X141.224Y-49.276
X141.224Y-51.308
X142.24Y-57.912
X142.24Y-59.944
X142.24Y-61.976
X142.24Y-64.008
X142.24Y-66.04
X142.24Y-68.072
X143.256Y-70.612
X143.764Y-66.04
X143.764Y-68.072
X144.272Y-59.944
X144.272Y-61.976
X144.272Y-64.008
X144.78Y-51.308
X144.78Y-53.34
X145.288Y-78.74
X145.288Y-80.772
X146.304Y-59.944
X146.304Y-61.976
X146.304Y-64.008
X146.309Y-76.205
X147.32Y-78.74
X147.32Y-80.772
X147.955Y-150.241
X148.082Y-76.962
X148.336Y-45.212
X148.336Y-47.244
X148.336Y-49.276
X148.336Y-51.308
X148.336Y-53.34
X148.336Y-59.944
X148.336Y-61.976
X148.336Y-64.008
X149.225Y-23.495
X149.352Y-78.74
X149.352Y-80.772
X149.86Y-24.765
X150.368Y-59.944
X150.368Y-61.976
X150.368Y-64.008
X151.384Y-78.74
X151.384Y-80.772
X152.4Y-51.308
X152.4Y-53.34
X152.4Y-57.912
X152.4Y-59.944
X152.4Y-61.976
X152.4Y-64.008
X153.416Y-78.74
X154.305Y-149.86
X154.432Y-57.912
X154.432Y-59.944
X154.432Y-61.976
X154.432Y-64.008
X155.194Y-32.004
X155.956Y-45.212
X155.956Y-47.244
X155.956Y-49.276
X155.956Y-51.308
X156.464Y-61.976
X157.607Y-75.819
X158.496Y-67.818
X158.496Y-69.342
X159.258Y-78.232
X159.258Y-80.899
X164.592Y-30.734
X177.292Y-71.12
X177.292Y-75.184
X177.292Y-79.248
X179.324Y-73.152
X179.324Y-77.216
X179.324Y-80.772
X181.356Y-71.12
X181.356Y-75.184
X181.356Y-79.248
X183.388Y-73.152
X183.388Y-77.216
X183.388Y-80.772
X185.42Y-71.12
X185.42Y-75.184
X185.42Y-79.248
X187.452Y-73.152
X187.452Y-77.216
X187.452Y-80.772
X188.595Y-49.53
X189.484Y-71.12
X189.484Y-75.184
X189.484Y-79.248
X189.865Y-48.895
X191.516Y-73.152
X191.516Y-77.216
X191.516Y-80.772
X192.024Y-68.834
X203.454Y-141.986
X204.47Y-88.9
X204.47Y-146.304
X205.74Y-88.9
X205.74Y-146.304
T5
X101.6Y-120.904
X101.6Y-148.844
X104.14Y-120.904
X104.14Y-148.844
X106.68Y-120.904
X106.68Y-148.844
X109.22Y-120.904
X109.22Y-148.844
X111.76Y-120.904
X111.76Y-148.844
X114.3Y-120.904
X114.3Y-148.844
X116.84Y-120.904
X116.84Y-148.844
X119.38Y-120.904
X119.38Y-148.844
X179.07Y-86.36
X179.07Y-114.3
X179.07Y-120.904
X179.07Y-148.844
X181.61Y-86.36
X181.61Y-114.3
X181.61Y-120.904
X181.61Y-148.844
X184.15Y-86.36
X184.15Y-114.3
X184.15Y-120.904
X184.15Y-148.844
X186.69Y-86.36
X186.69Y-114.3
X186.69Y-120.904
X186.69Y-148.844
X189.23Y-86.36
X189.23Y-114.3
X189.23Y-120.904
X189.23Y-148.844
X191.77Y-86.36
X191.77Y-114.3
X191.77Y-120.904
X191.77Y-148.844
X194.31Y-86.36
X194.31Y-114.3
X194.31Y-120.904
X194.31Y-148.844
X196.85Y-86.36
X196.85Y-114.3
X196.85Y-120.904
X196.85Y-148.844
T6
X124.46Y-91.44
X124.46Y-93.98
X124.46Y-96.52
X124.46Y-99.06
X124.46Y-101.6
X124.46Y-104.14
X124.46Y-106.68
X124.46Y-109.22
X124.46Y-111.76
X124.46Y-114.3
X124.46Y-116.84
X124.46Y-119.38
X124.46Y-121.92
X124.46Y-124.46
X124.46Y-127.0
X124.46Y-129.54
X124.46Y-132.08
X124.46Y-134.62
X124.46Y-137.16
X124.46Y-139.7
X124.46Y-142.24
X124.46Y-144.78
X124.46Y-147.32
X124.46Y-149.86
X139.7Y-91.44
X139.7Y-93.98
X139.7Y-96.52
X139.7Y-99.06
X139.7Y-101.6
X139.7Y-104.14
X139.7Y-106.68
X139.7Y-109.22
X139.7Y-111.76
X139.7Y-114.3
X139.7Y-116.84
X139.7Y-119.38
X139.7Y-121.92
X139.7Y-124.46
X139.7Y-127.0
X139.7Y-129.54
X139.7Y-132.08
X139.7Y-134.62
X139.7Y-137.16
X139.7Y-139.7
X139.7Y-142.24
X139.7Y-144.78
X139.7Y-147.32
X139.7Y-149.86
X158.75Y-91.44
X158.75Y-93.98
X158.75Y-96.52
X158.75Y-99.06
X158.75Y-101.6
X158.75Y-104.14
X158.75Y-106.68
X158.75Y-109.22
X158.75Y-111.76
X158.75Y-114.3
X158.75Y-116.84
X158.75Y-119.38
X158.75Y-121.92
X158.75Y-124.46
X158.75Y-127.0
X158.75Y-129.54
X158.75Y-132.08
X158.75Y-134.62
X158.75Y-137.16
X158.75Y-139.7
X158.75Y-142.24
X158.75Y-144.78
X158.75Y-147.32
X158.75Y-149.86
X173.99Y-91.44
X173.99Y-93.98
X173.99Y-96.52
X173.99Y-99.06
X173.99Y-101.6
X173.99Y-104.14
X173.99Y-106.68
X173.99Y-109.22
X173.99Y-111.76
X173.99Y-114.3
X173.99Y-116.84
X173.99Y-119.38
X173.99Y-121.92
X173.99Y-124.46
X173.99Y-127.0
X173.99Y-129.54
X173.99Y-132.08
X173.99Y-134.62
X173.99Y-137.16
X173.99Y-139.7
X173.99Y-142.24
X173.99Y-144.78
X173.99Y-147.32
X173.99Y-149.86
T7
X125.922Y-85.598
X125.922Y-87.598
X127.922Y-85.598
X127.922Y-87.598
X129.922Y-85.598
X129.922Y-87.598
X131.922Y-85.598
X131.922Y-87.598
X133.922Y-85.598
X133.922Y-87.598
X135.922Y-85.598
X135.922Y-87.598
X137.922Y-85.598
X137.922Y-87.598
X159.386Y-85.598
X159.386Y-87.598
X161.386Y-85.598
X161.386Y-87.598
X163.386Y-85.598
X163.386Y-87.598
X165.386Y-85.598
X165.386Y-87.598
X167.386Y-85.598
X167.386Y-87.598
X169.386Y-85.598
X169.386Y-87.598
X171.386Y-85.598
X171.386Y-87.598
X173.386Y-85.598
X173.386Y-87.598
T8
X101.8Y-113.792
X104.3Y-113.792
X106.8Y-102.235
X106.8Y-113.792
X109.3Y-102.235
X109.3Y-113.792
X111.8Y-102.235
X111.8Y-113.792
X114.3Y-102.235
X114.3Y-113.792
X181.556Y-133.096
X181.81Y-97.79
X184.056Y-133.096
X184.31Y-97.79
X186.556Y-133.096
X186.81Y-97.79
X189.056Y-133.096
X189.31Y-97.79
X191.556Y-133.096
X191.81Y-97.79
X194.056Y-133.096
X194.31Y-97.79
T9
X93.726Y-99.822
X93.726Y-102.362
X93.726Y-104.902
X93.726Y-107.442
X104.14Y-138.724
X104.14Y-141.224
X124.46Y-42.672
X124.46Y-45.212
X124.46Y-47.752
X124.46Y-50.292
X124.46Y-52.832
X124.46Y-55.372
X124.46Y-57.912
X124.46Y-60.452
X133.35Y-73.025
X133.35Y-75.525
X133.35Y-78.025
X160.02Y-51.435
X160.02Y-53.935
X160.02Y-56.435
X193.374Y-66.548
X194.437Y-139.065
X194.437Y-141.565
X195.874Y-66.548
X198.374Y-66.548
X204.724Y-99.822
X204.724Y-102.362
X204.724Y-104.902
X204.724Y-107.442
T10
X102.235Y-71.9
X102.235Y-74.9
X102.235Y-77.9
X102.235Y-80.9
X204.851Y-71.958
X204.851Y-74.958
X204.851Y-77.958
X204.851Y-80.958
T11
X145.244Y-48.102
X152.444Y-48.102
T12
X124.46Y-38.862
X124.46Y-64.262
X160.02Y-38.862
X160.02Y-64.262
T4
X142.094Y-53.552G85X142.094Y-54.652
G05
X155.594Y-53.552G85X155.594Y-54.652
G05
T0
M30
