G04 #@! TF.GenerationSoftware,KiCad,Pcbnew,(5.1.12)-1*
G04 #@! TF.CreationDate,2022-02-11T11:39:20+01:00*
G04 #@! TF.ProjectId,Main_Board,4d61696e-5f42-46f6-9172-642e6b696361,rev?*
G04 #@! TF.SameCoordinates,Original*
G04 #@! TF.FileFunction,Paste,Top*
G04 #@! TF.FilePolarity,Positive*
%FSLAX46Y46*%
G04 Gerber Fmt 4.6, Leading zero omitted, Abs format (unit mm)*
G04 Created by KiCad (PCBNEW (5.1.12)-1) date 2022-02-11 11:39:20*
%MOMM*%
%LPD*%
G01*
G04 APERTURE LIST*
%ADD10R,3.400000X1.100000*%
%ADD11R,1.100000X2.700000*%
%ADD12C,0.100000*%
%ADD13R,0.300000X0.950000*%
%ADD14R,0.950000X0.300000*%
%ADD15R,1.600000X0.300000*%
%ADD16R,1.500000X2.200000*%
%ADD17R,2.000000X2.500000*%
%ADD18R,2.000000X2.000000*%
%ADD19R,3.800000X1.000000*%
%ADD20R,0.405000X0.990000*%
%ADD21R,0.990000X0.405000*%
%ADD22R,1.000000X1.500000*%
%ADD23R,1.500000X1.000000*%
%ADD24R,1.200000X0.900000*%
%ADD25R,1.000000X3.200000*%
%ADD26R,1.000000X1.000000*%
G04 APERTURE END LIST*
D10*
X149862000Y-71713000D03*
D11*
X148662000Y-73913000D03*
D12*
G36*
X151032000Y-73533000D02*
G01*
X151612000Y-73533000D01*
X151612000Y-75263000D01*
X149512000Y-75263000D01*
X149512000Y-72563000D01*
X151032000Y-72563000D01*
X151032000Y-73533000D01*
G37*
D13*
X148112000Y-70388000D03*
X148612000Y-70388000D03*
X149112000Y-70388000D03*
X149612000Y-70388000D03*
X150112000Y-70388000D03*
X150612000Y-70388000D03*
X151112000Y-70388000D03*
X151612000Y-70388000D03*
D14*
X152387000Y-71163000D03*
X152387000Y-71663000D03*
X152387000Y-72163000D03*
X152387000Y-72663000D03*
D15*
X152062000Y-73163000D03*
D12*
G36*
X152862000Y-73663000D02*
G01*
X152862000Y-73963000D01*
X152257000Y-73963000D01*
X152257000Y-74963000D01*
X151907000Y-74963000D01*
X151907000Y-73663000D01*
X152862000Y-73663000D01*
G37*
D14*
X152387000Y-74313000D03*
X152387000Y-74813000D03*
D13*
X151122000Y-75438000D03*
X150622000Y-75438000D03*
X150122000Y-75438000D03*
X148992000Y-75438000D03*
X148342000Y-75438000D03*
D14*
X147337000Y-74663000D03*
X147337000Y-74163000D03*
X147337000Y-73163000D03*
X147337000Y-72513000D03*
X147337000Y-71863000D03*
X147337000Y-71213000D03*
D16*
X195580000Y-120904000D03*
X180340000Y-120904000D03*
X185420000Y-120904000D03*
X190500000Y-120904000D03*
D17*
X102235000Y-73280000D03*
D18*
X102235000Y-79376000D03*
X204851000Y-73482200D03*
D17*
X204851000Y-79578200D03*
D16*
X195580000Y-86360000D03*
X180340000Y-86360000D03*
X185420000Y-86360000D03*
X190500000Y-86360000D03*
X118110000Y-120904000D03*
X102870000Y-120904000D03*
X107950000Y-120904000D03*
X113030000Y-120904000D03*
D19*
X155956000Y-71755000D03*
X155956000Y-74155000D03*
D20*
X150571000Y-57496000D03*
X149251000Y-57496000D03*
X151231000Y-57496000D03*
D12*
G36*
X149453500Y-54131000D02*
G01*
X149453500Y-54641000D01*
X149708500Y-54641000D01*
X149708500Y-54131000D01*
X150113500Y-54131000D01*
X150113500Y-54641000D01*
X150368500Y-54641000D01*
X150368500Y-54131000D01*
X150773500Y-54131000D01*
X150773500Y-54641000D01*
X151028500Y-54641000D01*
X151028500Y-54131000D01*
X151436000Y-54131000D01*
X151436000Y-54891000D01*
X151358500Y-54891000D01*
X151358500Y-56366000D01*
X149123500Y-56366000D01*
X149123500Y-54891000D01*
X149046000Y-54891000D01*
X149046000Y-54131000D01*
X149453500Y-54131000D01*
G37*
D20*
X149911000Y-57496000D03*
D12*
G36*
X195986000Y-76098500D02*
G01*
X195476000Y-76098500D01*
X195476000Y-76353500D01*
X195986000Y-76353500D01*
X195986000Y-76758500D01*
X195476000Y-76758500D01*
X195476000Y-77013500D01*
X195986000Y-77013500D01*
X195986000Y-77418500D01*
X195476000Y-77418500D01*
X195476000Y-77673500D01*
X195986000Y-77673500D01*
X195986000Y-78081000D01*
X195226000Y-78081000D01*
X195226000Y-78003500D01*
X193751000Y-78003500D01*
X193751000Y-75768500D01*
X195226000Y-75768500D01*
X195226000Y-75691000D01*
X195986000Y-75691000D01*
X195986000Y-76098500D01*
G37*
D21*
X192621000Y-77876000D03*
X192621000Y-77216000D03*
X192621000Y-76556000D03*
X192621000Y-75896000D03*
G36*
G01*
X141927000Y-71387000D02*
X144077000Y-71387000D01*
G75*
G02*
X144327000Y-71637000I0J-250000D01*
G01*
X144327000Y-72387000D01*
G75*
G02*
X144077000Y-72637000I-250000J0D01*
G01*
X141927000Y-72637000D01*
G75*
G02*
X141677000Y-72387000I0J250000D01*
G01*
X141677000Y-71637000D01*
G75*
G02*
X141927000Y-71387000I250000J0D01*
G01*
G37*
G36*
G01*
X141927000Y-68587000D02*
X144077000Y-68587000D01*
G75*
G02*
X144327000Y-68837000I0J-250000D01*
G01*
X144327000Y-69587000D01*
G75*
G02*
X144077000Y-69837000I-250000J0D01*
G01*
X141927000Y-69837000D01*
G75*
G02*
X141677000Y-69587000I0J250000D01*
G01*
X141677000Y-68837000D01*
G75*
G02*
X141927000Y-68587000I250000J0D01*
G01*
G37*
G36*
G01*
X140205750Y-68625000D02*
X140718250Y-68625000D01*
G75*
G02*
X140937000Y-68843750I0J-218750D01*
G01*
X140937000Y-69281250D01*
G75*
G02*
X140718250Y-69500000I-218750J0D01*
G01*
X140205750Y-69500000D01*
G75*
G02*
X139987000Y-69281250I0J218750D01*
G01*
X139987000Y-68843750D01*
G75*
G02*
X140205750Y-68625000I218750J0D01*
G01*
G37*
G36*
G01*
X140205750Y-70200000D02*
X140718250Y-70200000D01*
G75*
G02*
X140937000Y-70418750I0J-218750D01*
G01*
X140937000Y-70856250D01*
G75*
G02*
X140718250Y-71075000I-218750J0D01*
G01*
X140205750Y-71075000D01*
G75*
G02*
X139987000Y-70856250I0J218750D01*
G01*
X139987000Y-70418750D01*
G75*
G02*
X140205750Y-70200000I218750J0D01*
G01*
G37*
G36*
G01*
X156814000Y-69598250D02*
X156814000Y-69085750D01*
G75*
G02*
X157032750Y-68867000I218750J0D01*
G01*
X157470250Y-68867000D01*
G75*
G02*
X157689000Y-69085750I0J-218750D01*
G01*
X157689000Y-69598250D01*
G75*
G02*
X157470250Y-69817000I-218750J0D01*
G01*
X157032750Y-69817000D01*
G75*
G02*
X156814000Y-69598250I0J218750D01*
G01*
G37*
G36*
G01*
X155239000Y-69598250D02*
X155239000Y-69085750D01*
G75*
G02*
X155457750Y-68867000I218750J0D01*
G01*
X155895250Y-68867000D01*
G75*
G02*
X156114000Y-69085750I0J-218750D01*
G01*
X156114000Y-69598250D01*
G75*
G02*
X155895250Y-69817000I-218750J0D01*
G01*
X155457750Y-69817000D01*
G75*
G02*
X155239000Y-69598250I0J218750D01*
G01*
G37*
G36*
G01*
X144227000Y-75181750D02*
X144227000Y-75694250D01*
G75*
G02*
X144008250Y-75913000I-218750J0D01*
G01*
X143570750Y-75913000D01*
G75*
G02*
X143352000Y-75694250I0J218750D01*
G01*
X143352000Y-75181750D01*
G75*
G02*
X143570750Y-74963000I218750J0D01*
G01*
X144008250Y-74963000D01*
G75*
G02*
X144227000Y-75181750I0J-218750D01*
G01*
G37*
G36*
G01*
X142652000Y-75181750D02*
X142652000Y-75694250D01*
G75*
G02*
X142433250Y-75913000I-218750J0D01*
G01*
X141995750Y-75913000D01*
G75*
G02*
X141777000Y-75694250I0J218750D01*
G01*
X141777000Y-75181750D01*
G75*
G02*
X141995750Y-74963000I218750J0D01*
G01*
X142433250Y-74963000D01*
G75*
G02*
X142652000Y-75181750I0J-218750D01*
G01*
G37*
G36*
G01*
X156114000Y-67561750D02*
X156114000Y-68074250D01*
G75*
G02*
X155895250Y-68293000I-218750J0D01*
G01*
X155457750Y-68293000D01*
G75*
G02*
X155239000Y-68074250I0J218750D01*
G01*
X155239000Y-67561750D01*
G75*
G02*
X155457750Y-67343000I218750J0D01*
G01*
X155895250Y-67343000D01*
G75*
G02*
X156114000Y-67561750I0J-218750D01*
G01*
G37*
G36*
G01*
X157689000Y-67561750D02*
X157689000Y-68074250D01*
G75*
G02*
X157470250Y-68293000I-218750J0D01*
G01*
X157032750Y-68293000D01*
G75*
G02*
X156814000Y-68074250I0J218750D01*
G01*
X156814000Y-67561750D01*
G75*
G02*
X157032750Y-67343000I218750J0D01*
G01*
X157470250Y-67343000D01*
G75*
G02*
X157689000Y-67561750I0J-218750D01*
G01*
G37*
G36*
G01*
X154185000Y-79307000D02*
X154185000Y-77157000D01*
G75*
G02*
X154435000Y-76907000I250000J0D01*
G01*
X155185000Y-76907000D01*
G75*
G02*
X155435000Y-77157000I0J-250000D01*
G01*
X155435000Y-79307000D01*
G75*
G02*
X155185000Y-79557000I-250000J0D01*
G01*
X154435000Y-79557000D01*
G75*
G02*
X154185000Y-79307000I0J250000D01*
G01*
G37*
G36*
G01*
X156985000Y-79307000D02*
X156985000Y-77157000D01*
G75*
G02*
X157235000Y-76907000I250000J0D01*
G01*
X157985000Y-76907000D01*
G75*
G02*
X158235000Y-77157000I0J-250000D01*
G01*
X158235000Y-79307000D01*
G75*
G02*
X157985000Y-79557000I-250000J0D01*
G01*
X157235000Y-79557000D01*
G75*
G02*
X156985000Y-79307000I0J250000D01*
G01*
G37*
G36*
G01*
X141465000Y-78300000D02*
X141465000Y-80450000D01*
G75*
G02*
X141215000Y-80700000I-250000J0D01*
G01*
X140465000Y-80700000D01*
G75*
G02*
X140215000Y-80450000I0J250000D01*
G01*
X140215000Y-78300000D01*
G75*
G02*
X140465000Y-78050000I250000J0D01*
G01*
X141215000Y-78050000D01*
G75*
G02*
X141465000Y-78300000I0J-250000D01*
G01*
G37*
G36*
G01*
X144265000Y-78300000D02*
X144265000Y-80450000D01*
G75*
G02*
X144015000Y-80700000I-250000J0D01*
G01*
X143265000Y-80700000D01*
G75*
G02*
X143015000Y-80450000I0J250000D01*
G01*
X143015000Y-78300000D01*
G75*
G02*
X143265000Y-78050000I250000J0D01*
G01*
X144015000Y-78050000D01*
G75*
G02*
X144265000Y-78300000I0J-250000D01*
G01*
G37*
G36*
G01*
X146555750Y-65577000D02*
X147068250Y-65577000D01*
G75*
G02*
X147287000Y-65795750I0J-218750D01*
G01*
X147287000Y-66233250D01*
G75*
G02*
X147068250Y-66452000I-218750J0D01*
G01*
X146555750Y-66452000D01*
G75*
G02*
X146337000Y-66233250I0J218750D01*
G01*
X146337000Y-65795750D01*
G75*
G02*
X146555750Y-65577000I218750J0D01*
G01*
G37*
G36*
G01*
X146555750Y-67152000D02*
X147068250Y-67152000D01*
G75*
G02*
X147287000Y-67370750I0J-218750D01*
G01*
X147287000Y-67808250D01*
G75*
G02*
X147068250Y-68027000I-218750J0D01*
G01*
X146555750Y-68027000D01*
G75*
G02*
X146337000Y-67808250I0J218750D01*
G01*
X146337000Y-67370750D01*
G75*
G02*
X146555750Y-67152000I218750J0D01*
G01*
G37*
G36*
G01*
X155798000Y-76075250D02*
X155798000Y-75562750D01*
G75*
G02*
X156016750Y-75344000I218750J0D01*
G01*
X156454250Y-75344000D01*
G75*
G02*
X156673000Y-75562750I0J-218750D01*
G01*
X156673000Y-76075250D01*
G75*
G02*
X156454250Y-76294000I-218750J0D01*
G01*
X156016750Y-76294000D01*
G75*
G02*
X155798000Y-76075250I0J218750D01*
G01*
G37*
G36*
G01*
X154223000Y-76075250D02*
X154223000Y-75562750D01*
G75*
G02*
X154441750Y-75344000I218750J0D01*
G01*
X154879250Y-75344000D01*
G75*
G02*
X155098000Y-75562750I0J-218750D01*
G01*
X155098000Y-76075250D01*
G75*
G02*
X154879250Y-76294000I-218750J0D01*
G01*
X154441750Y-76294000D01*
G75*
G02*
X154223000Y-76075250I0J218750D01*
G01*
G37*
G36*
G01*
X194506000Y-72846250D02*
X194506000Y-71933750D01*
G75*
G02*
X194749750Y-71690000I243750J0D01*
G01*
X195237250Y-71690000D01*
G75*
G02*
X195481000Y-71933750I0J-243750D01*
G01*
X195481000Y-72846250D01*
G75*
G02*
X195237250Y-73090000I-243750J0D01*
G01*
X194749750Y-73090000D01*
G75*
G02*
X194506000Y-72846250I0J243750D01*
G01*
G37*
G36*
G01*
X192631000Y-72846250D02*
X192631000Y-71933750D01*
G75*
G02*
X192874750Y-71690000I243750J0D01*
G01*
X193362250Y-71690000D01*
G75*
G02*
X193606000Y-71933750I0J-243750D01*
G01*
X193606000Y-72846250D01*
G75*
G02*
X193362250Y-73090000I-243750J0D01*
G01*
X192874750Y-73090000D01*
G75*
G02*
X192631000Y-72846250I0J243750D01*
G01*
G37*
D22*
X94945000Y-86450000D03*
X91745000Y-86450000D03*
X94945000Y-91350000D03*
X91745000Y-91350000D03*
X203505000Y-91350000D03*
X206705000Y-91350000D03*
X203505000Y-86450000D03*
X206705000Y-86450000D03*
D12*
G36*
X111956512Y-46904648D02*
G01*
X112775664Y-47478224D01*
X111915300Y-48706952D01*
X111096148Y-48133376D01*
X111956512Y-46904648D01*
G37*
G36*
X109335225Y-45069203D02*
G01*
X110154377Y-45642779D01*
X109294013Y-46871507D01*
X108474861Y-46297931D01*
X109335225Y-45069203D01*
G37*
G36*
X109145987Y-50918493D02*
G01*
X109965139Y-51492069D01*
X109104775Y-52720797D01*
X108285623Y-52147221D01*
X109145987Y-50918493D01*
G37*
G36*
X106524700Y-49083048D02*
G01*
X107343852Y-49656624D01*
X106483488Y-50885352D01*
X105664336Y-50311776D01*
X106524700Y-49083048D01*
G37*
G36*
X189975139Y-46297931D02*
G01*
X189155987Y-46871507D01*
X188295623Y-45642779D01*
X189114775Y-45069203D01*
X189975139Y-46297931D01*
G37*
G36*
X187353852Y-48133376D02*
G01*
X186534700Y-48706952D01*
X185674336Y-47478224D01*
X186493488Y-46904648D01*
X187353852Y-48133376D01*
G37*
G36*
X192785664Y-50311776D02*
G01*
X191966512Y-50885352D01*
X191106148Y-49656624D01*
X191925300Y-49083048D01*
X192785664Y-50311776D01*
G37*
G36*
X190164377Y-52147221D02*
G01*
X189345225Y-52720797D01*
X188484861Y-51492069D01*
X189304013Y-50918493D01*
X190164377Y-52147221D01*
G37*
D22*
X95072000Y-143854000D03*
X91872000Y-143854000D03*
X95072000Y-148754000D03*
X91872000Y-148754000D03*
X206832000Y-143854000D03*
X203632000Y-143854000D03*
X206832000Y-148754000D03*
X203632000Y-148754000D03*
D23*
X146775000Y-22530000D03*
X146775000Y-25730000D03*
X151675000Y-22530000D03*
X151675000Y-25730000D03*
X151675000Y-157100000D03*
X151675000Y-153900000D03*
X146775000Y-157100000D03*
X146775000Y-153900000D03*
G36*
G01*
X145363250Y-58575000D02*
X144450750Y-58575000D01*
G75*
G02*
X144207000Y-58331250I0J243750D01*
G01*
X144207000Y-57843750D01*
G75*
G02*
X144450750Y-57600000I243750J0D01*
G01*
X145363250Y-57600000D01*
G75*
G02*
X145607000Y-57843750I0J-243750D01*
G01*
X145607000Y-58331250D01*
G75*
G02*
X145363250Y-58575000I-243750J0D01*
G01*
G37*
G36*
G01*
X145363250Y-56700000D02*
X144450750Y-56700000D01*
G75*
G02*
X144207000Y-56456250I0J243750D01*
G01*
X144207000Y-55968750D01*
G75*
G02*
X144450750Y-55725000I243750J0D01*
G01*
X145363250Y-55725000D01*
G75*
G02*
X145607000Y-55968750I0J-243750D01*
G01*
X145607000Y-56456250D01*
G75*
G02*
X145363250Y-56700000I-243750J0D01*
G01*
G37*
G36*
G01*
X156649000Y-80442750D02*
X156649000Y-81355250D01*
G75*
G02*
X156405250Y-81599000I-243750J0D01*
G01*
X155917750Y-81599000D01*
G75*
G02*
X155674000Y-81355250I0J243750D01*
G01*
X155674000Y-80442750D01*
G75*
G02*
X155917750Y-80199000I243750J0D01*
G01*
X156405250Y-80199000D01*
G75*
G02*
X156649000Y-80442750I0J-243750D01*
G01*
G37*
G36*
G01*
X158524000Y-80442750D02*
X158524000Y-81355250D01*
G75*
G02*
X158280250Y-81599000I-243750J0D01*
G01*
X157792750Y-81599000D01*
G75*
G02*
X157549000Y-81355250I0J243750D01*
G01*
X157549000Y-80442750D01*
G75*
G02*
X157792750Y-80199000I243750J0D01*
G01*
X158280250Y-80199000D01*
G75*
G02*
X158524000Y-80442750I0J-243750D01*
G01*
G37*
D24*
X147193000Y-58165000D03*
X147193000Y-54865000D03*
G36*
G01*
X192958000Y-74424250D02*
X192958000Y-73911750D01*
G75*
G02*
X193176750Y-73693000I218750J0D01*
G01*
X193614250Y-73693000D01*
G75*
G02*
X193833000Y-73911750I0J-218750D01*
G01*
X193833000Y-74424250D01*
G75*
G02*
X193614250Y-74643000I-218750J0D01*
G01*
X193176750Y-74643000D01*
G75*
G02*
X192958000Y-74424250I0J218750D01*
G01*
G37*
G36*
G01*
X194533000Y-74424250D02*
X194533000Y-73911750D01*
G75*
G02*
X194751750Y-73693000I218750J0D01*
G01*
X195189250Y-73693000D01*
G75*
G02*
X195408000Y-73911750I0J-218750D01*
G01*
X195408000Y-74424250D01*
G75*
G02*
X195189250Y-74643000I-218750J0D01*
G01*
X194751750Y-74643000D01*
G75*
G02*
X194533000Y-74424250I0J218750D01*
G01*
G37*
G36*
G01*
X155953750Y-57601500D02*
X156466250Y-57601500D01*
G75*
G02*
X156685000Y-57820250I0J-218750D01*
G01*
X156685000Y-58257750D01*
G75*
G02*
X156466250Y-58476500I-218750J0D01*
G01*
X155953750Y-58476500D01*
G75*
G02*
X155735000Y-58257750I0J218750D01*
G01*
X155735000Y-57820250D01*
G75*
G02*
X155953750Y-57601500I218750J0D01*
G01*
G37*
G36*
G01*
X155953750Y-59176500D02*
X156466250Y-59176500D01*
G75*
G02*
X156685000Y-59395250I0J-218750D01*
G01*
X156685000Y-59832750D01*
G75*
G02*
X156466250Y-60051500I-218750J0D01*
G01*
X155953750Y-60051500D01*
G75*
G02*
X155735000Y-59832750I0J218750D01*
G01*
X155735000Y-59395250D01*
G75*
G02*
X155953750Y-59176500I218750J0D01*
G01*
G37*
G36*
G01*
X153491250Y-55303000D02*
X152578750Y-55303000D01*
G75*
G02*
X152335000Y-55059250I0J243750D01*
G01*
X152335000Y-54571750D01*
G75*
G02*
X152578750Y-54328000I243750J0D01*
G01*
X153491250Y-54328000D01*
G75*
G02*
X153735000Y-54571750I0J-243750D01*
G01*
X153735000Y-55059250D01*
G75*
G02*
X153491250Y-55303000I-243750J0D01*
G01*
G37*
G36*
G01*
X153491250Y-57178000D02*
X152578750Y-57178000D01*
G75*
G02*
X152335000Y-56934250I0J243750D01*
G01*
X152335000Y-56446750D01*
G75*
G02*
X152578750Y-56203000I243750J0D01*
G01*
X153491250Y-56203000D01*
G75*
G02*
X153735000Y-56446750I0J-243750D01*
G01*
X153735000Y-56934250D01*
G75*
G02*
X153491250Y-57178000I-243750J0D01*
G01*
G37*
G36*
G01*
X156387500Y-33222250D02*
X156387500Y-32309750D01*
G75*
G02*
X156631250Y-32066000I243750J0D01*
G01*
X157118750Y-32066000D01*
G75*
G02*
X157362500Y-32309750I0J-243750D01*
G01*
X157362500Y-33222250D01*
G75*
G02*
X157118750Y-33466000I-243750J0D01*
G01*
X156631250Y-33466000D01*
G75*
G02*
X156387500Y-33222250I0J243750D01*
G01*
G37*
G36*
G01*
X158262500Y-33222250D02*
X158262500Y-32309750D01*
G75*
G02*
X158506250Y-32066000I243750J0D01*
G01*
X158993750Y-32066000D01*
G75*
G02*
X159237500Y-32309750I0J-243750D01*
G01*
X159237500Y-33222250D01*
G75*
G02*
X158993750Y-33466000I-243750J0D01*
G01*
X158506250Y-33466000D01*
G75*
G02*
X158262500Y-33222250I0J243750D01*
G01*
G37*
G36*
G01*
X144227000Y-73657750D02*
X144227000Y-74170250D01*
G75*
G02*
X144008250Y-74389000I-218750J0D01*
G01*
X143570750Y-74389000D01*
G75*
G02*
X143352000Y-74170250I0J218750D01*
G01*
X143352000Y-73657750D01*
G75*
G02*
X143570750Y-73439000I218750J0D01*
G01*
X144008250Y-73439000D01*
G75*
G02*
X144227000Y-73657750I0J-218750D01*
G01*
G37*
G36*
G01*
X142652000Y-73657750D02*
X142652000Y-74170250D01*
G75*
G02*
X142433250Y-74389000I-218750J0D01*
G01*
X141995750Y-74389000D01*
G75*
G02*
X141777000Y-74170250I0J218750D01*
G01*
X141777000Y-73657750D01*
G75*
G02*
X141995750Y-73439000I218750J0D01*
G01*
X142433250Y-73439000D01*
G75*
G02*
X142652000Y-73657750I0J-218750D01*
G01*
G37*
G36*
G01*
X142652000Y-76705750D02*
X142652000Y-77218250D01*
G75*
G02*
X142433250Y-77437000I-218750J0D01*
G01*
X141995750Y-77437000D01*
G75*
G02*
X141777000Y-77218250I0J218750D01*
G01*
X141777000Y-76705750D01*
G75*
G02*
X141995750Y-76487000I218750J0D01*
G01*
X142433250Y-76487000D01*
G75*
G02*
X142652000Y-76705750I0J-218750D01*
G01*
G37*
G36*
G01*
X144227000Y-76705750D02*
X144227000Y-77218250D01*
G75*
G02*
X144008250Y-77437000I-218750J0D01*
G01*
X143570750Y-77437000D01*
G75*
G02*
X143352000Y-77218250I0J218750D01*
G01*
X143352000Y-76705750D01*
G75*
G02*
X143570750Y-76487000I218750J0D01*
G01*
X144008250Y-76487000D01*
G75*
G02*
X144227000Y-76705750I0J-218750D01*
G01*
G37*
G36*
G01*
X107136250Y-141125000D02*
X106223750Y-141125000D01*
G75*
G02*
X105980000Y-140881250I0J243750D01*
G01*
X105980000Y-140393750D01*
G75*
G02*
X106223750Y-140150000I243750J0D01*
G01*
X107136250Y-140150000D01*
G75*
G02*
X107380000Y-140393750I0J-243750D01*
G01*
X107380000Y-140881250D01*
G75*
G02*
X107136250Y-141125000I-243750J0D01*
G01*
G37*
G36*
G01*
X107136250Y-139250000D02*
X106223750Y-139250000D01*
G75*
G02*
X105980000Y-139006250I0J243750D01*
G01*
X105980000Y-138518750D01*
G75*
G02*
X106223750Y-138275000I243750J0D01*
G01*
X107136250Y-138275000D01*
G75*
G02*
X107380000Y-138518750I0J-243750D01*
G01*
X107380000Y-139006250D01*
G75*
G02*
X107136250Y-139250000I-243750J0D01*
G01*
G37*
G36*
G01*
X148592250Y-66452000D02*
X148079750Y-66452000D01*
G75*
G02*
X147861000Y-66233250I0J218750D01*
G01*
X147861000Y-65795750D01*
G75*
G02*
X148079750Y-65577000I218750J0D01*
G01*
X148592250Y-65577000D01*
G75*
G02*
X148811000Y-65795750I0J-218750D01*
G01*
X148811000Y-66233250D01*
G75*
G02*
X148592250Y-66452000I-218750J0D01*
G01*
G37*
G36*
G01*
X148592250Y-68027000D02*
X148079750Y-68027000D01*
G75*
G02*
X147861000Y-67808250I0J218750D01*
G01*
X147861000Y-67370750D01*
G75*
G02*
X148079750Y-67152000I218750J0D01*
G01*
X148592250Y-67152000D01*
G75*
G02*
X148811000Y-67370750I0J-218750D01*
G01*
X148811000Y-67808250D01*
G75*
G02*
X148592250Y-68027000I-218750J0D01*
G01*
G37*
G36*
G01*
X153213750Y-67252000D02*
X154126250Y-67252000D01*
G75*
G02*
X154370000Y-67495750I0J-243750D01*
G01*
X154370000Y-67983250D01*
G75*
G02*
X154126250Y-68227000I-243750J0D01*
G01*
X153213750Y-68227000D01*
G75*
G02*
X152970000Y-67983250I0J243750D01*
G01*
X152970000Y-67495750D01*
G75*
G02*
X153213750Y-67252000I243750J0D01*
G01*
G37*
G36*
G01*
X153213750Y-65377000D02*
X154126250Y-65377000D01*
G75*
G02*
X154370000Y-65620750I0J-243750D01*
G01*
X154370000Y-66108250D01*
G75*
G02*
X154126250Y-66352000I-243750J0D01*
G01*
X153213750Y-66352000D01*
G75*
G02*
X152970000Y-66108250I0J243750D01*
G01*
X152970000Y-65620750D01*
G75*
G02*
X153213750Y-65377000I243750J0D01*
G01*
G37*
G36*
G01*
X145031750Y-65577000D02*
X145544250Y-65577000D01*
G75*
G02*
X145763000Y-65795750I0J-218750D01*
G01*
X145763000Y-66233250D01*
G75*
G02*
X145544250Y-66452000I-218750J0D01*
G01*
X145031750Y-66452000D01*
G75*
G02*
X144813000Y-66233250I0J218750D01*
G01*
X144813000Y-65795750D01*
G75*
G02*
X145031750Y-65577000I218750J0D01*
G01*
G37*
G36*
G01*
X145031750Y-67152000D02*
X145544250Y-67152000D01*
G75*
G02*
X145763000Y-67370750I0J-218750D01*
G01*
X145763000Y-67808250D01*
G75*
G02*
X145544250Y-68027000I-218750J0D01*
G01*
X145031750Y-68027000D01*
G75*
G02*
X144813000Y-67808250I0J218750D01*
G01*
X144813000Y-67370750D01*
G75*
G02*
X145031750Y-67152000I218750J0D01*
G01*
G37*
G36*
G01*
X149603750Y-65577000D02*
X150116250Y-65577000D01*
G75*
G02*
X150335000Y-65795750I0J-218750D01*
G01*
X150335000Y-66233250D01*
G75*
G02*
X150116250Y-66452000I-218750J0D01*
G01*
X149603750Y-66452000D01*
G75*
G02*
X149385000Y-66233250I0J218750D01*
G01*
X149385000Y-65795750D01*
G75*
G02*
X149603750Y-65577000I218750J0D01*
G01*
G37*
G36*
G01*
X149603750Y-67152000D02*
X150116250Y-67152000D01*
G75*
G02*
X150335000Y-67370750I0J-218750D01*
G01*
X150335000Y-67808250D01*
G75*
G02*
X150116250Y-68027000I-218750J0D01*
G01*
X149603750Y-68027000D01*
G75*
G02*
X149385000Y-67808250I0J218750D01*
G01*
X149385000Y-67370750D01*
G75*
G02*
X149603750Y-67152000I218750J0D01*
G01*
G37*
G36*
G01*
X200584750Y-140404000D02*
X201497250Y-140404000D01*
G75*
G02*
X201741000Y-140647750I0J-243750D01*
G01*
X201741000Y-141135250D01*
G75*
G02*
X201497250Y-141379000I-243750J0D01*
G01*
X200584750Y-141379000D01*
G75*
G02*
X200341000Y-141135250I0J243750D01*
G01*
X200341000Y-140647750D01*
G75*
G02*
X200584750Y-140404000I243750J0D01*
G01*
G37*
G36*
G01*
X200584750Y-138529000D02*
X201497250Y-138529000D01*
G75*
G02*
X201741000Y-138772750I0J-243750D01*
G01*
X201741000Y-139260250D01*
G75*
G02*
X201497250Y-139504000I-243750J0D01*
G01*
X200584750Y-139504000D01*
G75*
G02*
X200341000Y-139260250I0J243750D01*
G01*
X200341000Y-138772750D01*
G75*
G02*
X200584750Y-138529000I243750J0D01*
G01*
G37*
G36*
G01*
X151181750Y-67252000D02*
X152094250Y-67252000D01*
G75*
G02*
X152338000Y-67495750I0J-243750D01*
G01*
X152338000Y-67983250D01*
G75*
G02*
X152094250Y-68227000I-243750J0D01*
G01*
X151181750Y-68227000D01*
G75*
G02*
X150938000Y-67983250I0J243750D01*
G01*
X150938000Y-67495750D01*
G75*
G02*
X151181750Y-67252000I243750J0D01*
G01*
G37*
G36*
G01*
X151181750Y-65377000D02*
X152094250Y-65377000D01*
G75*
G02*
X152338000Y-65620750I0J-243750D01*
G01*
X152338000Y-66108250D01*
G75*
G02*
X152094250Y-66352000I-243750J0D01*
G01*
X151181750Y-66352000D01*
G75*
G02*
X150938000Y-66108250I0J243750D01*
G01*
X150938000Y-65620750D01*
G75*
G02*
X151181750Y-65377000I243750J0D01*
G01*
G37*
G36*
G01*
X193706000Y-70355750D02*
X193706000Y-70868250D01*
G75*
G02*
X193487250Y-71087000I-218750J0D01*
G01*
X193049750Y-71087000D01*
G75*
G02*
X192831000Y-70868250I0J218750D01*
G01*
X192831000Y-70355750D01*
G75*
G02*
X193049750Y-70137000I218750J0D01*
G01*
X193487250Y-70137000D01*
G75*
G02*
X193706000Y-70355750I0J-218750D01*
G01*
G37*
G36*
G01*
X195281000Y-70355750D02*
X195281000Y-70868250D01*
G75*
G02*
X195062250Y-71087000I-218750J0D01*
G01*
X194624750Y-71087000D01*
G75*
G02*
X194406000Y-70868250I0J218750D01*
G01*
X194406000Y-70355750D01*
G75*
G02*
X194624750Y-70137000I218750J0D01*
G01*
X195062250Y-70137000D01*
G75*
G02*
X195281000Y-70355750I0J-218750D01*
G01*
G37*
G36*
G01*
X195014000Y-80212250D02*
X195014000Y-79299750D01*
G75*
G02*
X195257750Y-79056000I243750J0D01*
G01*
X195745250Y-79056000D01*
G75*
G02*
X195989000Y-79299750I0J-243750D01*
G01*
X195989000Y-80212250D01*
G75*
G02*
X195745250Y-80456000I-243750J0D01*
G01*
X195257750Y-80456000D01*
G75*
G02*
X195014000Y-80212250I0J243750D01*
G01*
G37*
G36*
G01*
X193139000Y-80212250D02*
X193139000Y-79299750D01*
G75*
G02*
X193382750Y-79056000I243750J0D01*
G01*
X193870250Y-79056000D01*
G75*
G02*
X194114000Y-79299750I0J-243750D01*
G01*
X194114000Y-80212250D01*
G75*
G02*
X193870250Y-80456000I-243750J0D01*
G01*
X193382750Y-80456000D01*
G75*
G02*
X193139000Y-80212250I0J243750D01*
G01*
G37*
G36*
G01*
X163573750Y-55925000D02*
X164086250Y-55925000D01*
G75*
G02*
X164305000Y-56143750I0J-218750D01*
G01*
X164305000Y-56581250D01*
G75*
G02*
X164086250Y-56800000I-218750J0D01*
G01*
X163573750Y-56800000D01*
G75*
G02*
X163355000Y-56581250I0J218750D01*
G01*
X163355000Y-56143750D01*
G75*
G02*
X163573750Y-55925000I218750J0D01*
G01*
G37*
G36*
G01*
X163573750Y-57500000D02*
X164086250Y-57500000D01*
G75*
G02*
X164305000Y-57718750I0J-218750D01*
G01*
X164305000Y-58156250D01*
G75*
G02*
X164086250Y-58375000I-218750J0D01*
G01*
X163573750Y-58375000D01*
G75*
G02*
X163355000Y-58156250I0J218750D01*
G01*
X163355000Y-57718750D01*
G75*
G02*
X163573750Y-57500000I218750J0D01*
G01*
G37*
G36*
G01*
X195916000Y-81277750D02*
X195916000Y-81790250D01*
G75*
G02*
X195697250Y-82009000I-218750J0D01*
G01*
X195259750Y-82009000D01*
G75*
G02*
X195041000Y-81790250I0J218750D01*
G01*
X195041000Y-81277750D01*
G75*
G02*
X195259750Y-81059000I218750J0D01*
G01*
X195697250Y-81059000D01*
G75*
G02*
X195916000Y-81277750I0J-218750D01*
G01*
G37*
G36*
G01*
X194341000Y-81277750D02*
X194341000Y-81790250D01*
G75*
G02*
X194122250Y-82009000I-218750J0D01*
G01*
X193684750Y-82009000D01*
G75*
G02*
X193466000Y-81790250I0J218750D01*
G01*
X193466000Y-81277750D01*
G75*
G02*
X193684750Y-81059000I218750J0D01*
G01*
X194122250Y-81059000D01*
G75*
G02*
X194341000Y-81277750I0J-218750D01*
G01*
G37*
G36*
G01*
X143385250Y-58248000D02*
X142872750Y-58248000D01*
G75*
G02*
X142654000Y-58029250I0J218750D01*
G01*
X142654000Y-57591750D01*
G75*
G02*
X142872750Y-57373000I218750J0D01*
G01*
X143385250Y-57373000D01*
G75*
G02*
X143604000Y-57591750I0J-218750D01*
G01*
X143604000Y-58029250D01*
G75*
G02*
X143385250Y-58248000I-218750J0D01*
G01*
G37*
G36*
G01*
X143385250Y-56673000D02*
X142872750Y-56673000D01*
G75*
G02*
X142654000Y-56454250I0J218750D01*
G01*
X142654000Y-56016750D01*
G75*
G02*
X142872750Y-55798000I218750J0D01*
G01*
X143385250Y-55798000D01*
G75*
G02*
X143604000Y-56016750I0J-218750D01*
G01*
X143604000Y-56454250D01*
G75*
G02*
X143385250Y-56673000I-218750J0D01*
G01*
G37*
G36*
G01*
X152572000Y-81409250D02*
X152572000Y-80896750D01*
G75*
G02*
X152790750Y-80678000I218750J0D01*
G01*
X153228250Y-80678000D01*
G75*
G02*
X153447000Y-80896750I0J-218750D01*
G01*
X153447000Y-81409250D01*
G75*
G02*
X153228250Y-81628000I-218750J0D01*
G01*
X152790750Y-81628000D01*
G75*
G02*
X152572000Y-81409250I0J218750D01*
G01*
G37*
G36*
G01*
X154147000Y-81409250D02*
X154147000Y-80896750D01*
G75*
G02*
X154365750Y-80678000I218750J0D01*
G01*
X154803250Y-80678000D01*
G75*
G02*
X155022000Y-80896750I0J-218750D01*
G01*
X155022000Y-81409250D01*
G75*
G02*
X154803250Y-81628000I-218750J0D01*
G01*
X154365750Y-81628000D01*
G75*
G02*
X154147000Y-81409250I0J218750D01*
G01*
G37*
D25*
X158750000Y-29845000D03*
X158750000Y-23245000D03*
X162750000Y-29845000D03*
X162750000Y-23241000D03*
D26*
X160750000Y-23241000D03*
M02*
