G04 #@! TF.GenerationSoftware,KiCad,Pcbnew,6.0.2-378541a8eb~116~ubuntu20.04.1*
G04 #@! TF.CreationDate,2022-02-16T23:09:59+01:00*
G04 #@! TF.ProjectId,Main_Board,4d61696e-5f42-46f6-9172-642e6b696361,rev?*
G04 #@! TF.SameCoordinates,Original*
G04 #@! TF.FileFunction,Soldermask,Bot*
G04 #@! TF.FilePolarity,Negative*
%FSLAX46Y46*%
G04 Gerber Fmt 4.6, Leading zero omitted, Abs format (unit mm)*
G04 Created by KiCad (PCBNEW 6.0.2-378541a8eb~116~ubuntu20.04.1) date 2022-02-16 23:09:59*
%MOMM*%
%LPD*%
G01*
G04 APERTURE LIST*
G04 Aperture macros list*
%AMRoundRect*
0 Rectangle with rounded corners*
0 $1 Rounding radius*
0 $2 $3 $4 $5 $6 $7 $8 $9 X,Y pos of 4 corners*
0 Add a 4 corners polygon primitive as box body*
4,1,4,$2,$3,$4,$5,$6,$7,$8,$9,$2,$3,0*
0 Add four circle primitives for the rounded corners*
1,1,$1+$1,$2,$3*
1,1,$1+$1,$4,$5*
1,1,$1+$1,$6,$7*
1,1,$1+$1,$8,$9*
0 Add four rect primitives between the rounded corners*
20,1,$1+$1,$2,$3,$4,$5,0*
20,1,$1+$1,$4,$5,$6,$7,0*
20,1,$1+$1,$6,$7,$8,$9,0*
20,1,$1+$1,$8,$9,$2,$3,0*%
G04 Aperture macros list end*
%ADD10RoundRect,0.051000X0.850000X0.850000X-0.850000X0.850000X-0.850000X-0.850000X0.850000X-0.850000X0*%
%ADD11O,1.802000X1.802000*%
%ADD12RoundRect,0.051000X-1.100000X1.100000X-1.100000X-1.100000X1.100000X-1.100000X1.100000X1.100000X0*%
%ADD13RoundRect,0.051000X-0.750000X1.100000X-0.750000X-1.100000X0.750000X-1.100000X0.750000X1.100000X0*%
%ADD14RoundRect,0.601000X-0.550000X0.550000X-0.550000X-0.550000X0.550000X-0.550000X0.550000X0.550000X0*%
%ADD15RoundRect,0.051000X1.000000X-1.000000X1.000000X1.000000X-1.000000X1.000000X-1.000000X-1.000000X0*%
%ADD16C,1.626000*%
%ADD17C,1.602000*%
%ADD18C,0.602000*%
%ADD19RoundRect,0.301000X0.600000X0.725000X-0.600000X0.725000X-0.600000X-0.725000X0.600000X-0.725000X0*%
%ADD20O,1.802000X2.052000*%
%ADD21C,3.762000*%
%ADD22RoundRect,0.051000X-0.850000X-0.850000X0.850000X-0.850000X0.850000X0.850000X-0.850000X0.850000X0*%
%ADD23C,1.410000*%
%ADD24C,4.402000*%
%ADD25RoundRect,0.301000X0.750000X-0.600000X0.750000X0.600000X-0.750000X0.600000X-0.750000X-0.600000X0*%
%ADD26O,2.102000X1.802000*%
%ADD27RoundRect,0.301000X-0.750000X0.600000X-0.750000X-0.600000X0.750000X-0.600000X0.750000X0.600000X0*%
%ADD28RoundRect,0.551000X0.500000X-0.500000X0.500000X0.500000X-0.500000X0.500000X-0.500000X-0.500000X0*%
%ADD29RoundRect,0.051000X1.000000X-1.250000X1.000000X1.250000X-1.000000X1.250000X-1.000000X-1.250000X0*%
%ADD30RoundRect,0.051000X-1.000000X1.000000X-1.000000X-1.000000X1.000000X-1.000000X1.000000X1.000000X0*%
%ADD31RoundRect,0.551000X-0.500000X0.500000X-0.500000X-0.500000X0.500000X-0.500000X0.500000X0.500000X0*%
%ADD32RoundRect,0.051000X-1.000000X1.250000X-1.000000X-1.250000X1.000000X-1.250000X1.000000X1.250000X0*%
%ADD33RoundRect,0.300999X-0.350001X-0.575001X0.350001X-0.575001X0.350001X0.575001X-0.350001X0.575001X0*%
%ADD34O,1.302000X1.752000*%
%ADD35RoundRect,0.300999X0.350001X0.575001X-0.350001X0.575001X-0.350001X-0.575001X0.350001X-0.575001X0*%
%ADD36RoundRect,0.051000X-1.858000X-1.858000X1.858000X-1.858000X1.858000X1.858000X-1.858000X1.858000X0*%
%ADD37C,3.818000*%
%ADD38O,1.302000X2.502000*%
G04 APERTURE END LIST*
D10*
X204724000Y-107442000D03*
D11*
X204724000Y-104902000D03*
X204724000Y-102362000D03*
X204724000Y-99822000D03*
D10*
X93726000Y-107442000D03*
D11*
X93726000Y-104902000D03*
X93726000Y-102362000D03*
X93726000Y-99822000D03*
D12*
X181610000Y-120904000D03*
D13*
X180340000Y-120904000D03*
D12*
X179070000Y-120904000D03*
D14*
X186690000Y-120904000D03*
X184150000Y-120904000D03*
D13*
X185420000Y-120904000D03*
D14*
X189230000Y-120904000D03*
X191770000Y-120904000D03*
D13*
X190500000Y-120904000D03*
D14*
X194310000Y-120904000D03*
D13*
X195580000Y-120904000D03*
D14*
X196850000Y-120904000D03*
D15*
X179070000Y-148844000D03*
D16*
X181610000Y-148844000D03*
X184150000Y-148844000D03*
X186690000Y-148844000D03*
X189230000Y-148844000D03*
X191770000Y-148844000D03*
X194310000Y-148844000D03*
X196850000Y-148844000D03*
D12*
X179070000Y-86360000D03*
D13*
X180340000Y-86360000D03*
D12*
X181610000Y-86360000D03*
D14*
X184150000Y-86360000D03*
X186690000Y-86360000D03*
D13*
X185420000Y-86360000D03*
D14*
X189230000Y-86360000D03*
X191770000Y-86360000D03*
D13*
X190500000Y-86360000D03*
D14*
X194310000Y-86360000D03*
X196850000Y-86360000D03*
D13*
X195580000Y-86360000D03*
D15*
X179070000Y-114300000D03*
D16*
X181610000Y-114300000D03*
X184150000Y-114300000D03*
X186690000Y-114300000D03*
X189230000Y-114300000D03*
X191770000Y-114300000D03*
X194310000Y-114300000D03*
X196850000Y-114300000D03*
D17*
X160020000Y-51435000D03*
X160020000Y-53935000D03*
X160020000Y-56435000D03*
X198374000Y-66548000D03*
X195874000Y-66548000D03*
X193374000Y-66548000D03*
D18*
X150116000Y-71643000D03*
X150878000Y-71643000D03*
X148592000Y-71643000D03*
X149354000Y-71643000D03*
X148592000Y-72913000D03*
X148592000Y-74437000D03*
X148592000Y-73675000D03*
X151386000Y-74437000D03*
X149862000Y-74437000D03*
X150624000Y-72913000D03*
X149862000Y-73675000D03*
X150624000Y-74437000D03*
X149862000Y-72913000D03*
X150624000Y-73675000D03*
D19*
X114300000Y-102235000D03*
D20*
X111800000Y-102235000D03*
X109300000Y-102235000D03*
X106800000Y-102235000D03*
D12*
X104140000Y-120904000D03*
D13*
X102870000Y-120904000D03*
D12*
X101600000Y-120904000D03*
D14*
X109220000Y-120904000D03*
X106680000Y-120904000D03*
D13*
X107950000Y-120904000D03*
D14*
X114300000Y-120904000D03*
D13*
X113030000Y-120904000D03*
D14*
X111760000Y-120904000D03*
X116840000Y-120904000D03*
D13*
X118110000Y-120904000D03*
D14*
X119380000Y-120904000D03*
D15*
X101600000Y-148844000D03*
D16*
X104140000Y-148844000D03*
X106680000Y-148844000D03*
X109220000Y-148844000D03*
X111760000Y-148844000D03*
X114300000Y-148844000D03*
X116840000Y-148844000D03*
X119380000Y-148844000D03*
D17*
X133350000Y-73025000D03*
X133350000Y-75525000D03*
X133350000Y-78025000D03*
D21*
X124460000Y-64262000D03*
X124460000Y-38862000D03*
X160020000Y-64262000D03*
X160020000Y-38862000D03*
D22*
X124460000Y-42672000D03*
D11*
X124460000Y-45212000D03*
X124460000Y-47752000D03*
X124460000Y-50292000D03*
X124460000Y-52832000D03*
X124460000Y-55372000D03*
X124460000Y-57912000D03*
X124460000Y-60452000D03*
D23*
X139700000Y-147320000D03*
X139700000Y-144780000D03*
X139700000Y-142240000D03*
X139700000Y-139700000D03*
X139700000Y-114300000D03*
X124460000Y-144780000D03*
X139700000Y-137160000D03*
X139700000Y-134620000D03*
X139700000Y-132080000D03*
X139700000Y-129540000D03*
X139700000Y-127000000D03*
X139700000Y-124460000D03*
X139700000Y-121920000D03*
X139700000Y-119380000D03*
X139700000Y-116840000D03*
X124460000Y-116840000D03*
X124460000Y-119380000D03*
X124460000Y-121920000D03*
X124460000Y-124460000D03*
X124460000Y-127000000D03*
X124460000Y-129540000D03*
X124460000Y-132080000D03*
X124460000Y-134620000D03*
X124460000Y-137160000D03*
X124460000Y-139700000D03*
X124460000Y-142240000D03*
X139700000Y-111760000D03*
X139700000Y-109220000D03*
X139700000Y-106680000D03*
X139700000Y-104140000D03*
X139700000Y-101600000D03*
X139700000Y-99060000D03*
X139700000Y-96520000D03*
X139700000Y-93980000D03*
X139700000Y-91440000D03*
X124460000Y-91440000D03*
X124460000Y-93980000D03*
X124460000Y-96520000D03*
X124460000Y-99060000D03*
X124460000Y-101600000D03*
X124460000Y-104140000D03*
X124460000Y-106680000D03*
X124460000Y-109220000D03*
X124460000Y-111760000D03*
X139700000Y-149860000D03*
X124460000Y-114300000D03*
X124460000Y-147320000D03*
X124460000Y-149860000D03*
D24*
X169288500Y-24904499D03*
X129288500Y-24904500D03*
X94336595Y-154725008D03*
X149288500Y-124904500D03*
X204240406Y-154725008D03*
D23*
X173990000Y-147320000D03*
X173990000Y-144780000D03*
X173990000Y-142240000D03*
X173990000Y-139700000D03*
X173990000Y-114300000D03*
X158750000Y-144780000D03*
X173990000Y-137160000D03*
X173990000Y-134620000D03*
X173990000Y-132080000D03*
X173990000Y-129540000D03*
X173990000Y-127000000D03*
X173990000Y-124460000D03*
X173990000Y-121920000D03*
X173990000Y-119380000D03*
X173990000Y-116840000D03*
X158750000Y-116840000D03*
X158750000Y-119380000D03*
X158750000Y-121920000D03*
X158750000Y-124460000D03*
X158750000Y-127000000D03*
X158750000Y-129540000D03*
X158750000Y-132080000D03*
X158750000Y-134620000D03*
X158750000Y-137160000D03*
X158750000Y-139700000D03*
X158750000Y-142240000D03*
X173990000Y-111760000D03*
X173990000Y-109220000D03*
X173990000Y-106680000D03*
X173990000Y-104140000D03*
X173990000Y-101600000D03*
X173990000Y-99060000D03*
X173990000Y-96520000D03*
X173990000Y-93980000D03*
X173990000Y-91440000D03*
X158750000Y-91440000D03*
X158750000Y-93980000D03*
X158750000Y-96520000D03*
X158750000Y-99060000D03*
X158750000Y-101600000D03*
X158750000Y-104140000D03*
X158750000Y-106680000D03*
X158750000Y-109220000D03*
X158750000Y-111760000D03*
X173990000Y-149860000D03*
X158750000Y-114300000D03*
X158750000Y-147320000D03*
X158750000Y-149860000D03*
D25*
X104140000Y-141224000D03*
D26*
X104140000Y-138724000D03*
D27*
X194437000Y-139065000D03*
D26*
X194437000Y-141565000D03*
D19*
X194310000Y-97790000D03*
D20*
X191810000Y-97790000D03*
X189310000Y-97790000D03*
X186810000Y-97790000D03*
X184310000Y-97790000D03*
X181810000Y-97790000D03*
D19*
X194056000Y-133096000D03*
D20*
X191556000Y-133096000D03*
X189056000Y-133096000D03*
X186556000Y-133096000D03*
X184056000Y-133096000D03*
X181556000Y-133096000D03*
D19*
X114300000Y-113792000D03*
D20*
X111800000Y-113792000D03*
X109300000Y-113792000D03*
X106800000Y-113792000D03*
X104300000Y-113792000D03*
X101800000Y-113792000D03*
D15*
X204851000Y-73482200D03*
X204851000Y-71958200D03*
X204851000Y-74958200D03*
D28*
X204851000Y-77958200D03*
D29*
X204851000Y-79578200D03*
D28*
X204851000Y-80958200D03*
D30*
X102235000Y-77900000D03*
X102235000Y-79376000D03*
X102235000Y-80900000D03*
D31*
X102235000Y-74900000D03*
X102235000Y-71900000D03*
D32*
X102235000Y-73280000D03*
D33*
X159386000Y-87598000D03*
D34*
X159386000Y-85598000D03*
X161386000Y-87598000D03*
X161386000Y-85598000D03*
X163386000Y-87598000D03*
X163386000Y-85598000D03*
X165386000Y-87598000D03*
X165386000Y-85598000D03*
X167386000Y-87598000D03*
X167386000Y-85598000D03*
X169386000Y-87598000D03*
X169386000Y-85598000D03*
X171386000Y-87598000D03*
X171386000Y-85598000D03*
X173386000Y-87598000D03*
X173386000Y-85598000D03*
D35*
X137922000Y-85598000D03*
D34*
X137922000Y-87598000D03*
X135922000Y-85598000D03*
X135922000Y-87598000D03*
X133922000Y-85598000D03*
X133922000Y-87598000D03*
X131922000Y-85598000D03*
X131922000Y-87598000D03*
X129922000Y-85598000D03*
X129922000Y-87598000D03*
X127922000Y-85598000D03*
X127922000Y-87598000D03*
X125922000Y-85598000D03*
X125922000Y-87598000D03*
D36*
X152444000Y-48102000D03*
D37*
X145244000Y-48102000D03*
D38*
X155594000Y-54102000D03*
X142094000Y-54102000D03*
G36*
X110355026Y-120217623D02*
G01*
X110359630Y-120231424D01*
X110359722Y-120231851D01*
X110367596Y-120308058D01*
X110393950Y-120372433D01*
X110450675Y-120412166D01*
X110519879Y-120414925D01*
X110579586Y-120379831D01*
X110610961Y-120317795D01*
X110612336Y-120308203D01*
X110620048Y-120232932D01*
X110620140Y-120232506D01*
X110624906Y-120218136D01*
X110626400Y-120216807D01*
X110628298Y-120217437D01*
X110628787Y-120219027D01*
X110611000Y-120354132D01*
X110611000Y-121453868D01*
X110628854Y-121589483D01*
X110628089Y-121591331D01*
X110626106Y-121591592D01*
X110624974Y-121590377D01*
X110620370Y-121576576D01*
X110620278Y-121576149D01*
X110612404Y-121499942D01*
X110586050Y-121435567D01*
X110529325Y-121395834D01*
X110460121Y-121393075D01*
X110400414Y-121428169D01*
X110369039Y-121490205D01*
X110367664Y-121499797D01*
X110359952Y-121575068D01*
X110359860Y-121575494D01*
X110355094Y-121589864D01*
X110353600Y-121591193D01*
X110351702Y-121590563D01*
X110351213Y-121588973D01*
X110369000Y-121453868D01*
X110369000Y-120354132D01*
X110351146Y-120218517D01*
X110351911Y-120216669D01*
X110353894Y-120216408D01*
X110355026Y-120217623D01*
G37*
G36*
X105548298Y-120217437D02*
G01*
X105548787Y-120219027D01*
X105531000Y-120354132D01*
X105531000Y-121453868D01*
X105548854Y-121589483D01*
X105548089Y-121591331D01*
X105546106Y-121591592D01*
X105544974Y-121590377D01*
X105540370Y-121576576D01*
X105540278Y-121576149D01*
X105538377Y-121557746D01*
X105512023Y-121493371D01*
X105455298Y-121453637D01*
X105386095Y-121450878D01*
X105326387Y-121485971D01*
X105295036Y-121547960D01*
X105292992Y-121570282D01*
X105291838Y-121571916D01*
X105289846Y-121571734D01*
X105289000Y-121570100D01*
X105289000Y-120236908D01*
X105290000Y-120235176D01*
X105292000Y-120235176D01*
X105292919Y-120236345D01*
X105312595Y-120303357D01*
X105364938Y-120348712D01*
X105433491Y-120358569D01*
X105496489Y-120329798D01*
X105534045Y-120271361D01*
X105538365Y-120249351D01*
X105540048Y-120232932D01*
X105540140Y-120232506D01*
X105544906Y-120218136D01*
X105546400Y-120216807D01*
X105548298Y-120217437D01*
G37*
G36*
X192905026Y-120217623D02*
G01*
X192909630Y-120231424D01*
X192909722Y-120231851D01*
X192917596Y-120308058D01*
X192943950Y-120372433D01*
X193000675Y-120412166D01*
X193069879Y-120414925D01*
X193129586Y-120379831D01*
X193160961Y-120317795D01*
X193162336Y-120308203D01*
X193170048Y-120232932D01*
X193170140Y-120232506D01*
X193174906Y-120218136D01*
X193176400Y-120216807D01*
X193178298Y-120217437D01*
X193178787Y-120219027D01*
X193161000Y-120354132D01*
X193161000Y-121453868D01*
X193178854Y-121589483D01*
X193178089Y-121591331D01*
X193176106Y-121591592D01*
X193174974Y-121590377D01*
X193170370Y-121576576D01*
X193170278Y-121576149D01*
X193162404Y-121499942D01*
X193136050Y-121435567D01*
X193079325Y-121395834D01*
X193010121Y-121393075D01*
X192950414Y-121428169D01*
X192919039Y-121490205D01*
X192917664Y-121499797D01*
X192909952Y-121575068D01*
X192909860Y-121575494D01*
X192905094Y-121589864D01*
X192903600Y-121591193D01*
X192901702Y-121590563D01*
X192901213Y-121588973D01*
X192919000Y-121453868D01*
X192919000Y-120354132D01*
X192901146Y-120218517D01*
X192901911Y-120216669D01*
X192903894Y-120216408D01*
X192905026Y-120217623D01*
G37*
G36*
X187825026Y-120217623D02*
G01*
X187829630Y-120231424D01*
X187829722Y-120231851D01*
X187837596Y-120308058D01*
X187863950Y-120372433D01*
X187920675Y-120412166D01*
X187989879Y-120414925D01*
X188049586Y-120379831D01*
X188080961Y-120317795D01*
X188082336Y-120308203D01*
X188090048Y-120232932D01*
X188090140Y-120232506D01*
X188094906Y-120218136D01*
X188096400Y-120216807D01*
X188098298Y-120217437D01*
X188098787Y-120219027D01*
X188081000Y-120354132D01*
X188081000Y-121453868D01*
X188098854Y-121589483D01*
X188098089Y-121591331D01*
X188096106Y-121591592D01*
X188094974Y-121590377D01*
X188090370Y-121576576D01*
X188090278Y-121576149D01*
X188082404Y-121499942D01*
X188056050Y-121435567D01*
X187999325Y-121395834D01*
X187930121Y-121393075D01*
X187870414Y-121428169D01*
X187839039Y-121490205D01*
X187837664Y-121499797D01*
X187829952Y-121575068D01*
X187829860Y-121575494D01*
X187825094Y-121589864D01*
X187823600Y-121591193D01*
X187821702Y-121590563D01*
X187821213Y-121588973D01*
X187839000Y-121453868D01*
X187839000Y-120354132D01*
X187821146Y-120218517D01*
X187821911Y-120216669D01*
X187823894Y-120216408D01*
X187825026Y-120217623D01*
G37*
G36*
X115435026Y-120217623D02*
G01*
X115439630Y-120231424D01*
X115439722Y-120231851D01*
X115447596Y-120308058D01*
X115473950Y-120372433D01*
X115530675Y-120412166D01*
X115599879Y-120414925D01*
X115659586Y-120379831D01*
X115690961Y-120317795D01*
X115692336Y-120308203D01*
X115700048Y-120232932D01*
X115700140Y-120232506D01*
X115704906Y-120218136D01*
X115706400Y-120216807D01*
X115708298Y-120217437D01*
X115708787Y-120219027D01*
X115691000Y-120354132D01*
X115691000Y-121453868D01*
X115708854Y-121589483D01*
X115708089Y-121591331D01*
X115706106Y-121591592D01*
X115704974Y-121590377D01*
X115700370Y-121576576D01*
X115700278Y-121576149D01*
X115692404Y-121499942D01*
X115666050Y-121435567D01*
X115609325Y-121395834D01*
X115540121Y-121393075D01*
X115480414Y-121428169D01*
X115449039Y-121490205D01*
X115447664Y-121499797D01*
X115439952Y-121575068D01*
X115439860Y-121575494D01*
X115435094Y-121589864D01*
X115433600Y-121591193D01*
X115431702Y-121590563D01*
X115431213Y-121588973D01*
X115449000Y-121453868D01*
X115449000Y-120354132D01*
X115431146Y-120218517D01*
X115431911Y-120216669D01*
X115433894Y-120216408D01*
X115435026Y-120217623D01*
G37*
G36*
X183018298Y-120217437D02*
G01*
X183018787Y-120219027D01*
X183001000Y-120354132D01*
X183001000Y-121453868D01*
X183018854Y-121589483D01*
X183018089Y-121591331D01*
X183016106Y-121591592D01*
X183014974Y-121590377D01*
X183010370Y-121576576D01*
X183010278Y-121576149D01*
X183008377Y-121557746D01*
X182982023Y-121493371D01*
X182925298Y-121453637D01*
X182856095Y-121450878D01*
X182796387Y-121485971D01*
X182765036Y-121547960D01*
X182762992Y-121570282D01*
X182761838Y-121571916D01*
X182759846Y-121571734D01*
X182759000Y-121570100D01*
X182759000Y-120236908D01*
X182760000Y-120235176D01*
X182762000Y-120235176D01*
X182762919Y-120236345D01*
X182782595Y-120303357D01*
X182834938Y-120348712D01*
X182903491Y-120358569D01*
X182966489Y-120329798D01*
X183004045Y-120271361D01*
X183008365Y-120249351D01*
X183010048Y-120232932D01*
X183010140Y-120232506D01*
X183014906Y-120218136D01*
X183016400Y-120216807D01*
X183018298Y-120217437D01*
G37*
G36*
X192905026Y-85673623D02*
G01*
X192909630Y-85687424D01*
X192909722Y-85687851D01*
X192917596Y-85764058D01*
X192943950Y-85828433D01*
X193000675Y-85868166D01*
X193069879Y-85870925D01*
X193129586Y-85835831D01*
X193160961Y-85773795D01*
X193162336Y-85764203D01*
X193170048Y-85688932D01*
X193170140Y-85688506D01*
X193174906Y-85674136D01*
X193176400Y-85672807D01*
X193178298Y-85673437D01*
X193178787Y-85675027D01*
X193161000Y-85810132D01*
X193161000Y-86909868D01*
X193178854Y-87045483D01*
X193178089Y-87047331D01*
X193176106Y-87047592D01*
X193174974Y-87046377D01*
X193170370Y-87032576D01*
X193170278Y-87032149D01*
X193162404Y-86955942D01*
X193136050Y-86891567D01*
X193079325Y-86851834D01*
X193010121Y-86849075D01*
X192950414Y-86884169D01*
X192919039Y-86946205D01*
X192917664Y-86955797D01*
X192909952Y-87031068D01*
X192909860Y-87031494D01*
X192905094Y-87045864D01*
X192903600Y-87047193D01*
X192901702Y-87046563D01*
X192901213Y-87044973D01*
X192919000Y-86909868D01*
X192919000Y-85810132D01*
X192901146Y-85674517D01*
X192901911Y-85672669D01*
X192903894Y-85672408D01*
X192905026Y-85673623D01*
G37*
G36*
X183018298Y-85673437D02*
G01*
X183018787Y-85675027D01*
X183001000Y-85810132D01*
X183001000Y-86909868D01*
X183018854Y-87045483D01*
X183018089Y-87047331D01*
X183016106Y-87047592D01*
X183014974Y-87046377D01*
X183010370Y-87032576D01*
X183010278Y-87032149D01*
X183008377Y-87013746D01*
X182982023Y-86949371D01*
X182925298Y-86909637D01*
X182856095Y-86906878D01*
X182796387Y-86941971D01*
X182765036Y-87003960D01*
X182762992Y-87026282D01*
X182761838Y-87027916D01*
X182759846Y-87027734D01*
X182759000Y-87026100D01*
X182759000Y-85692908D01*
X182760000Y-85691176D01*
X182762000Y-85691176D01*
X182762919Y-85692345D01*
X182782595Y-85759357D01*
X182834938Y-85804712D01*
X182903491Y-85814569D01*
X182966489Y-85785798D01*
X183004045Y-85727361D01*
X183008365Y-85705351D01*
X183010048Y-85688932D01*
X183010140Y-85688506D01*
X183014906Y-85674136D01*
X183016400Y-85672807D01*
X183018298Y-85673437D01*
G37*
G36*
X187825026Y-85673623D02*
G01*
X187829630Y-85687424D01*
X187829722Y-85687851D01*
X187837596Y-85764058D01*
X187863950Y-85828433D01*
X187920675Y-85868166D01*
X187989879Y-85870925D01*
X188049586Y-85835831D01*
X188080961Y-85773795D01*
X188082336Y-85764203D01*
X188090048Y-85688932D01*
X188090140Y-85688506D01*
X188094906Y-85674136D01*
X188096400Y-85672807D01*
X188098298Y-85673437D01*
X188098787Y-85675027D01*
X188081000Y-85810132D01*
X188081000Y-86909868D01*
X188098854Y-87045483D01*
X188098089Y-87047331D01*
X188096106Y-87047592D01*
X188094974Y-87046377D01*
X188090370Y-87032576D01*
X188090278Y-87032149D01*
X188082404Y-86955942D01*
X188056050Y-86891567D01*
X187999325Y-86851834D01*
X187930121Y-86849075D01*
X187870414Y-86884169D01*
X187839039Y-86946205D01*
X187837664Y-86955797D01*
X187829952Y-87031068D01*
X187829860Y-87031494D01*
X187825094Y-87045864D01*
X187823600Y-87047193D01*
X187821702Y-87046563D01*
X187821213Y-87044973D01*
X187839000Y-86909868D01*
X187839000Y-85810132D01*
X187821146Y-85674517D01*
X187821911Y-85672669D01*
X187823894Y-85672408D01*
X187825026Y-85673623D01*
G37*
G36*
X150900370Y-74318942D02*
G01*
X150943037Y-74364118D01*
X151010264Y-74380766D01*
X151075864Y-74358410D01*
X151108701Y-74320515D01*
X151110591Y-74319861D01*
X151112102Y-74321171D01*
X151111944Y-74322825D01*
X151105062Y-74334746D01*
X151087031Y-74437000D01*
X151105062Y-74539254D01*
X151112816Y-74552685D01*
X151112816Y-74554685D01*
X151111084Y-74555685D01*
X151109630Y-74555058D01*
X151066963Y-74509882D01*
X150999736Y-74493234D01*
X150934136Y-74515590D01*
X150901299Y-74553485D01*
X150899409Y-74554139D01*
X150897898Y-74552829D01*
X150898056Y-74551175D01*
X150904938Y-74539254D01*
X150922969Y-74437000D01*
X150904938Y-74334746D01*
X150897184Y-74321315D01*
X150897184Y-74319315D01*
X150898916Y-74318315D01*
X150900370Y-74318942D01*
G37*
G36*
X150138370Y-74318942D02*
G01*
X150181037Y-74364118D01*
X150248264Y-74380766D01*
X150313864Y-74358410D01*
X150346701Y-74320515D01*
X150348591Y-74319861D01*
X150350102Y-74321171D01*
X150349944Y-74322825D01*
X150343062Y-74334746D01*
X150325031Y-74437000D01*
X150343062Y-74539254D01*
X150350816Y-74552685D01*
X150350816Y-74554685D01*
X150349084Y-74555685D01*
X150347630Y-74555058D01*
X150304963Y-74509882D01*
X150237736Y-74493234D01*
X150172136Y-74515590D01*
X150139299Y-74553485D01*
X150137409Y-74554139D01*
X150135898Y-74552829D01*
X150136056Y-74551175D01*
X150142938Y-74539254D01*
X150160969Y-74437000D01*
X150142938Y-74334746D01*
X150135184Y-74321315D01*
X150135184Y-74319315D01*
X150136916Y-74318315D01*
X150138370Y-74318942D01*
G37*
G36*
X148713303Y-73945237D02*
G01*
X148713987Y-73947116D01*
X148713390Y-73948223D01*
X148664882Y-73994037D01*
X148648234Y-74061264D01*
X148670590Y-74126864D01*
X148712975Y-74163592D01*
X148713629Y-74165482D01*
X148712319Y-74166993D01*
X148710981Y-74166982D01*
X148643916Y-74142573D01*
X148540084Y-74142573D01*
X148472667Y-74167110D01*
X148470697Y-74166763D01*
X148470013Y-74164884D01*
X148470610Y-74163777D01*
X148519118Y-74117963D01*
X148535766Y-74050736D01*
X148513410Y-73985136D01*
X148471025Y-73948408D01*
X148470371Y-73946518D01*
X148471681Y-73945007D01*
X148473019Y-73945018D01*
X148540084Y-73969427D01*
X148643916Y-73969427D01*
X148711333Y-73944890D01*
X148713303Y-73945237D01*
G37*
G36*
X149983303Y-73945237D02*
G01*
X149983987Y-73947116D01*
X149983390Y-73948223D01*
X149934882Y-73994037D01*
X149918234Y-74061264D01*
X149940590Y-74126864D01*
X149982975Y-74163592D01*
X149983629Y-74165482D01*
X149982319Y-74166993D01*
X149980981Y-74166982D01*
X149913916Y-74142573D01*
X149810084Y-74142573D01*
X149742667Y-74167110D01*
X149740697Y-74166763D01*
X149740013Y-74164884D01*
X149740610Y-74163777D01*
X149789118Y-74117963D01*
X149805766Y-74050736D01*
X149783410Y-73985136D01*
X149741025Y-73948408D01*
X149740371Y-73946518D01*
X149741681Y-73945007D01*
X149743019Y-73945018D01*
X149810084Y-73969427D01*
X149913916Y-73969427D01*
X149981333Y-73944890D01*
X149983303Y-73945237D01*
G37*
G36*
X150745303Y-73945237D02*
G01*
X150745987Y-73947116D01*
X150745390Y-73948223D01*
X150696882Y-73994037D01*
X150680234Y-74061264D01*
X150702590Y-74126864D01*
X150744975Y-74163592D01*
X150745629Y-74165482D01*
X150744319Y-74166993D01*
X150742981Y-74166982D01*
X150675916Y-74142573D01*
X150572084Y-74142573D01*
X150504667Y-74167110D01*
X150502697Y-74166763D01*
X150502013Y-74164884D01*
X150502610Y-74163777D01*
X150551118Y-74117963D01*
X150567766Y-74050736D01*
X150545410Y-73985136D01*
X150503025Y-73948408D01*
X150502371Y-73946518D01*
X150503681Y-73945007D01*
X150505019Y-73945018D01*
X150572084Y-73969427D01*
X150675916Y-73969427D01*
X150743333Y-73944890D01*
X150745303Y-73945237D01*
G37*
G36*
X150138370Y-73556942D02*
G01*
X150181037Y-73602118D01*
X150248264Y-73618766D01*
X150313864Y-73596410D01*
X150346701Y-73558515D01*
X150348591Y-73557861D01*
X150350102Y-73559171D01*
X150349944Y-73560825D01*
X150343062Y-73572746D01*
X150325031Y-73675000D01*
X150343062Y-73777254D01*
X150350816Y-73790685D01*
X150350816Y-73792685D01*
X150349084Y-73793685D01*
X150347630Y-73793058D01*
X150304963Y-73747882D01*
X150237736Y-73731234D01*
X150172136Y-73753590D01*
X150139299Y-73791485D01*
X150137409Y-73792139D01*
X150135898Y-73790829D01*
X150136056Y-73789175D01*
X150142938Y-73777254D01*
X150160969Y-73675000D01*
X150142938Y-73572746D01*
X150135184Y-73559315D01*
X150135184Y-73557315D01*
X150136916Y-73556315D01*
X150138370Y-73556942D01*
G37*
G36*
X150745303Y-73183237D02*
G01*
X150745987Y-73185116D01*
X150745390Y-73186223D01*
X150696882Y-73232037D01*
X150680234Y-73299264D01*
X150702590Y-73364864D01*
X150744975Y-73401592D01*
X150745629Y-73403482D01*
X150744319Y-73404993D01*
X150742981Y-73404982D01*
X150675916Y-73380573D01*
X150572084Y-73380573D01*
X150504667Y-73405110D01*
X150502697Y-73404763D01*
X150502013Y-73402884D01*
X150502610Y-73401777D01*
X150551118Y-73355963D01*
X150567766Y-73288736D01*
X150545410Y-73223136D01*
X150503025Y-73186408D01*
X150502371Y-73184518D01*
X150503681Y-73183007D01*
X150505019Y-73183018D01*
X150572084Y-73207427D01*
X150675916Y-73207427D01*
X150743333Y-73182890D01*
X150745303Y-73183237D01*
G37*
G36*
X148713303Y-73183237D02*
G01*
X148713987Y-73185116D01*
X148713390Y-73186223D01*
X148664882Y-73232037D01*
X148648234Y-73299264D01*
X148670590Y-73364864D01*
X148712975Y-73401592D01*
X148713629Y-73403482D01*
X148712319Y-73404993D01*
X148710981Y-73404982D01*
X148643916Y-73380573D01*
X148540084Y-73380573D01*
X148472667Y-73405110D01*
X148470697Y-73404763D01*
X148470013Y-73402884D01*
X148470610Y-73401777D01*
X148519118Y-73355963D01*
X148535766Y-73288736D01*
X148513410Y-73223136D01*
X148471025Y-73186408D01*
X148470371Y-73184518D01*
X148471681Y-73183007D01*
X148473019Y-73183018D01*
X148540084Y-73207427D01*
X148643916Y-73207427D01*
X148711333Y-73182890D01*
X148713303Y-73183237D01*
G37*
G36*
X149983303Y-73183237D02*
G01*
X149983987Y-73185116D01*
X149983390Y-73186223D01*
X149934882Y-73232037D01*
X149918234Y-73299264D01*
X149940590Y-73364864D01*
X149982975Y-73401592D01*
X149983629Y-73403482D01*
X149982319Y-73404993D01*
X149980981Y-73404982D01*
X149913916Y-73380573D01*
X149810084Y-73380573D01*
X149742667Y-73405110D01*
X149740697Y-73404763D01*
X149740013Y-73402884D01*
X149740610Y-73401777D01*
X149789118Y-73355963D01*
X149805766Y-73288736D01*
X149783410Y-73223136D01*
X149741025Y-73186408D01*
X149740371Y-73184518D01*
X149741681Y-73183007D01*
X149743019Y-73183018D01*
X149810084Y-73207427D01*
X149913916Y-73207427D01*
X149981333Y-73182890D01*
X149983303Y-73183237D01*
G37*
G36*
X150138370Y-72794942D02*
G01*
X150181037Y-72840118D01*
X150248264Y-72856766D01*
X150313864Y-72834410D01*
X150346701Y-72796515D01*
X150348591Y-72795861D01*
X150350102Y-72797171D01*
X150349944Y-72798825D01*
X150343062Y-72810746D01*
X150325031Y-72913000D01*
X150343062Y-73015254D01*
X150350816Y-73028685D01*
X150350816Y-73030685D01*
X150349084Y-73031685D01*
X150347630Y-73031058D01*
X150304963Y-72985882D01*
X150237736Y-72969234D01*
X150172136Y-72991590D01*
X150139299Y-73029485D01*
X150137409Y-73030139D01*
X150135898Y-73028829D01*
X150136056Y-73027175D01*
X150142938Y-73015254D01*
X150160969Y-72913000D01*
X150142938Y-72810746D01*
X150135184Y-72797315D01*
X150135184Y-72795315D01*
X150136916Y-72794315D01*
X150138370Y-72794942D01*
G37*
G36*
X149630370Y-71524942D02*
G01*
X149673037Y-71570118D01*
X149740264Y-71586766D01*
X149805864Y-71564410D01*
X149838701Y-71526515D01*
X149840591Y-71525861D01*
X149842102Y-71527171D01*
X149841944Y-71528825D01*
X149835062Y-71540746D01*
X149817031Y-71643000D01*
X149835062Y-71745254D01*
X149842816Y-71758685D01*
X149842816Y-71760685D01*
X149841084Y-71761685D01*
X149839630Y-71761058D01*
X149796963Y-71715882D01*
X149729736Y-71699234D01*
X149664136Y-71721590D01*
X149631299Y-71759485D01*
X149629409Y-71760139D01*
X149627898Y-71758829D01*
X149628056Y-71757175D01*
X149634938Y-71745254D01*
X149652969Y-71643000D01*
X149634938Y-71540746D01*
X149627184Y-71527315D01*
X149627184Y-71525315D01*
X149628916Y-71524315D01*
X149630370Y-71524942D01*
G37*
G36*
X148868370Y-71524942D02*
G01*
X148911037Y-71570118D01*
X148978264Y-71586766D01*
X149043864Y-71564410D01*
X149076701Y-71526515D01*
X149078591Y-71525861D01*
X149080102Y-71527171D01*
X149079944Y-71528825D01*
X149073062Y-71540746D01*
X149055031Y-71643000D01*
X149073062Y-71745254D01*
X149080816Y-71758685D01*
X149080816Y-71760685D01*
X149079084Y-71761685D01*
X149077630Y-71761058D01*
X149034963Y-71715882D01*
X148967736Y-71699234D01*
X148902136Y-71721590D01*
X148869299Y-71759485D01*
X148867409Y-71760139D01*
X148865898Y-71758829D01*
X148866056Y-71757175D01*
X148872938Y-71745254D01*
X148890969Y-71643000D01*
X148872938Y-71540746D01*
X148865184Y-71527315D01*
X148865184Y-71525315D01*
X148866916Y-71524315D01*
X148868370Y-71524942D01*
G37*
G36*
X150392370Y-71524942D02*
G01*
X150435037Y-71570118D01*
X150502264Y-71586766D01*
X150567864Y-71564410D01*
X150600701Y-71526515D01*
X150602591Y-71525861D01*
X150604102Y-71527171D01*
X150603944Y-71528825D01*
X150597062Y-71540746D01*
X150579031Y-71643000D01*
X150597062Y-71745254D01*
X150604816Y-71758685D01*
X150604816Y-71760685D01*
X150603084Y-71761685D01*
X150601630Y-71761058D01*
X150558963Y-71715882D01*
X150491736Y-71699234D01*
X150426136Y-71721590D01*
X150393299Y-71759485D01*
X150391409Y-71760139D01*
X150389898Y-71758829D01*
X150390056Y-71757175D01*
X150396938Y-71745254D01*
X150414969Y-71643000D01*
X150396938Y-71540746D01*
X150389184Y-71527315D01*
X150389184Y-71525315D01*
X150390916Y-71524315D01*
X150392370Y-71524942D01*
G37*
M02*
