G04 #@! TF.GenerationSoftware,KiCad,Pcbnew,6.0.2-378541a8eb~116~ubuntu20.04.1*
G04 #@! TF.CreationDate,2022-02-16T23:09:59+01:00*
G04 #@! TF.ProjectId,Main_Board,4d61696e-5f42-46f6-9172-642e6b696361,rev?*
G04 #@! TF.SameCoordinates,Original*
G04 #@! TF.FileFunction,Paste,Top*
G04 #@! TF.FilePolarity,Positive*
%FSLAX46Y46*%
G04 Gerber Fmt 4.6, Leading zero omitted, Abs format (unit mm)*
G04 Created by KiCad (PCBNEW 6.0.2-378541a8eb~116~ubuntu20.04.1) date 2022-02-16 23:09:59*
%MOMM*%
%LPD*%
G01*
G04 APERTURE LIST*
G04 Aperture macros list*
%AMRoundRect*
0 Rectangle with rounded corners*
0 $1 Rounding radius*
0 $2 $3 $4 $5 $6 $7 $8 $9 X,Y pos of 4 corners*
0 Add a 4 corners polygon primitive as box body*
4,1,4,$2,$3,$4,$5,$6,$7,$8,$9,$2,$3,0*
0 Add four circle primitives for the rounded corners*
1,1,$1+$1,$2,$3*
1,1,$1+$1,$4,$5*
1,1,$1+$1,$6,$7*
1,1,$1+$1,$8,$9*
0 Add four rect primitives between the rounded corners*
20,1,$1+$1,$2,$3,$4,$5,0*
20,1,$1+$1,$4,$5,$6,$7,0*
20,1,$1+$1,$6,$7,$8,$9,0*
20,1,$1+$1,$8,$9,$2,$3,0*%
%AMRotRect*
0 Rectangle, with rotation*
0 The origin of the aperture is its center*
0 $1 length*
0 $2 width*
0 $3 Rotation angle, in degrees counterclockwise*
0 Add horizontal line*
21,1,$1,$2,0,0,$3*%
%AMFreePoly0*
4,1,21,1.372500,0.787500,0.862500,0.787500,0.862500,0.532500,1.372500,0.532500,1.372500,0.127500,0.862500,0.127500,0.862500,-0.127500,1.372500,-0.127500,1.372500,-0.532500,0.862500,-0.532500,0.862500,-0.787500,1.372500,-0.787500,1.372500,-1.195000,0.612500,-1.195000,0.612500,-1.117500,-0.862500,-1.117500,-0.862500,1.117500,0.612500,1.117500,0.612500,1.195000,1.372500,1.195000,
1.372500,0.787500,1.372500,0.787500,$1*%
%AMFreePoly1*
4,1,7,0.150000,-0.475000,-0.150000,-0.475000,-0.150000,0.130000,-1.150000,0.130000,-1.150000,0.480000,0.150000,0.480000,0.150000,-0.475000,0.150000,-0.475000,$1*%
%AMFreePoly2*
4,1,7,1.220000,-0.670000,1.800000,-0.670000,1.800000,-2.400000,-0.300000,-2.400000,-0.300000,0.300000,1.220000,0.300000,1.220000,-0.670000,1.220000,-0.670000,$1*%
G04 Aperture macros list end*
%ADD10RoundRect,0.243750X-0.243750X-0.456250X0.243750X-0.456250X0.243750X0.456250X-0.243750X0.456250X0*%
%ADD11RoundRect,0.243750X-0.456250X0.243750X-0.456250X-0.243750X0.456250X-0.243750X0.456250X0.243750X0*%
%ADD12R,1.000000X1.500000*%
%ADD13RoundRect,0.218750X-0.256250X0.218750X-0.256250X-0.218750X0.256250X-0.218750X0.256250X0.218750X0*%
%ADD14RoundRect,0.218750X0.218750X0.256250X-0.218750X0.256250X-0.218750X-0.256250X0.218750X-0.256250X0*%
%ADD15RotRect,1.500000X1.000000X235.000000*%
%ADD16RotRect,1.500000X1.000000X125.000000*%
%ADD17R,1.500000X1.000000*%
%ADD18R,1.500000X2.200000*%
%ADD19R,1.200000X0.900000*%
%ADD20R,0.405000X0.990000*%
%ADD21FreePoly0,90.000000*%
%ADD22RoundRect,0.243750X0.456250X-0.243750X0.456250X0.243750X-0.456250X0.243750X-0.456250X-0.243750X0*%
%ADD23RoundRect,0.218750X0.256250X-0.218750X0.256250X0.218750X-0.256250X0.218750X-0.256250X-0.218750X0*%
%ADD24R,0.990000X0.405000*%
%ADD25FreePoly0,0.000000*%
%ADD26RoundRect,0.218750X-0.218750X-0.256250X0.218750X-0.256250X0.218750X0.256250X-0.218750X0.256250X0*%
%ADD27RoundRect,0.250000X0.375000X1.075000X-0.375000X1.075000X-0.375000X-1.075000X0.375000X-1.075000X0*%
%ADD28RoundRect,0.250000X-0.375000X-1.075000X0.375000X-1.075000X0.375000X1.075000X-0.375000X1.075000X0*%
%ADD29RoundRect,0.250000X-1.075000X0.375000X-1.075000X-0.375000X1.075000X-0.375000X1.075000X0.375000X0*%
%ADD30R,3.800000X1.000000*%
%ADD31RoundRect,0.243750X0.243750X0.456250X-0.243750X0.456250X-0.243750X-0.456250X0.243750X-0.456250X0*%
%ADD32R,0.950000X0.300000*%
%ADD33R,0.300000X0.950000*%
%ADD34FreePoly1,90.000000*%
%ADD35R,1.600000X0.300000*%
%ADD36R,3.400000X1.100000*%
%ADD37R,1.100000X2.700000*%
%ADD38FreePoly2,0.000000*%
%ADD39R,1.000000X3.200000*%
%ADD40R,1.000000X1.000000*%
%ADD41R,2.000000X2.000000*%
%ADD42R,2.000000X2.500000*%
G04 APERTURE END LIST*
D10*
X156875000Y-32766000D03*
X158750000Y-32766000D03*
D11*
X201041000Y-139016500D03*
X201041000Y-140891500D03*
D12*
X203505000Y-91350000D03*
X206705000Y-91350000D03*
X206705000Y-86450000D03*
X203505000Y-86450000D03*
X94945000Y-86450000D03*
X91745000Y-86450000D03*
X91745000Y-91350000D03*
X94945000Y-91350000D03*
X95072000Y-143854000D03*
X91872000Y-143854000D03*
X91872000Y-148754000D03*
X95072000Y-148754000D03*
X203632000Y-148754000D03*
X206832000Y-148754000D03*
X206832000Y-143854000D03*
X203632000Y-143854000D03*
D13*
X163830000Y-56362500D03*
X163830000Y-57937500D03*
D14*
X143789500Y-73914000D03*
X142214500Y-73914000D03*
D15*
X111935906Y-47805800D03*
X109314619Y-45970355D03*
X106504094Y-49984200D03*
X109125381Y-51819645D03*
D16*
X189324619Y-51819645D03*
X191945906Y-49984200D03*
X189135381Y-45970355D03*
X186514094Y-47805800D03*
D17*
X151675000Y-25730000D03*
X151675000Y-22530000D03*
X146775000Y-22530000D03*
X146775000Y-25730000D03*
D18*
X180340000Y-120904000D03*
X185420000Y-120904000D03*
X190500000Y-120904000D03*
X195580000Y-120904000D03*
X180340000Y-86360000D03*
X185420000Y-86360000D03*
X190500000Y-86360000D03*
X195580000Y-86360000D03*
D19*
X147193000Y-58165000D03*
X147193000Y-54865000D03*
D20*
X151231000Y-57496000D03*
D21*
X150241000Y-55503500D03*
D20*
X149251000Y-57496000D03*
X149911000Y-57496000D03*
X150571000Y-57496000D03*
D22*
X153035000Y-56690500D03*
X153035000Y-54815500D03*
D13*
X156210000Y-58039000D03*
X156210000Y-59614000D03*
D22*
X144907000Y-58087500D03*
X144907000Y-56212500D03*
D23*
X143129000Y-57810500D03*
X143129000Y-56235500D03*
D17*
X146775000Y-153900000D03*
X146775000Y-157100000D03*
X151675000Y-157100000D03*
X151675000Y-153900000D03*
D10*
X193118500Y-72390000D03*
X194993500Y-72390000D03*
D24*
X192621000Y-77876000D03*
D25*
X194613500Y-76886000D03*
D24*
X192621000Y-75896000D03*
X192621000Y-76556000D03*
X192621000Y-77216000D03*
D10*
X193626500Y-79756000D03*
X195501500Y-79756000D03*
D14*
X195478500Y-81534000D03*
X193903500Y-81534000D03*
X194843500Y-70612000D03*
X193268500Y-70612000D03*
D26*
X154660500Y-75819000D03*
X156235500Y-75819000D03*
D27*
X143640000Y-79375000D03*
X140840000Y-79375000D03*
D28*
X154810000Y-78232000D03*
X157610000Y-78232000D03*
D13*
X146812000Y-66014500D03*
X146812000Y-67589500D03*
D14*
X143789500Y-75438000D03*
X142214500Y-75438000D03*
D26*
X155676500Y-69342000D03*
X157251500Y-69342000D03*
D13*
X140462000Y-69062500D03*
X140462000Y-70637500D03*
D29*
X143002000Y-69212000D03*
X143002000Y-72012000D03*
D30*
X155956000Y-71755000D03*
X155956000Y-74155000D03*
D23*
X148336000Y-67589500D03*
X148336000Y-66014500D03*
D31*
X158036500Y-80899000D03*
X156161500Y-80899000D03*
D11*
X153670000Y-65864500D03*
X153670000Y-67739500D03*
D32*
X147337000Y-71213000D03*
X147337000Y-71863000D03*
X147337000Y-72513000D03*
X147337000Y-73163000D03*
X147337000Y-74163000D03*
X147337000Y-74663000D03*
D33*
X148342000Y-75438000D03*
X148992000Y-75438000D03*
X150122000Y-75438000D03*
X150622000Y-75438000D03*
X151122000Y-75438000D03*
D32*
X152387000Y-74813000D03*
X152387000Y-74313000D03*
D34*
X152387000Y-73813000D03*
D35*
X152062000Y-73163000D03*
D32*
X152387000Y-72663000D03*
X152387000Y-72163000D03*
X152387000Y-71663000D03*
X152387000Y-71163000D03*
D33*
X151612000Y-70388000D03*
X151112000Y-70388000D03*
X150612000Y-70388000D03*
X150112000Y-70388000D03*
X149612000Y-70388000D03*
X149112000Y-70388000D03*
X148612000Y-70388000D03*
X148112000Y-70388000D03*
D36*
X149862000Y-71713000D03*
D37*
X148662000Y-73913000D03*
D38*
X149812000Y-72863000D03*
D11*
X151638000Y-65864500D03*
X151638000Y-67739500D03*
D14*
X143789500Y-76962000D03*
X142214500Y-76962000D03*
D13*
X145288000Y-66014500D03*
X145288000Y-67589500D03*
X149860000Y-66014500D03*
X149860000Y-67589500D03*
D26*
X153009500Y-81153000D03*
X154584500Y-81153000D03*
D18*
X102870000Y-120904000D03*
X107950000Y-120904000D03*
X113030000Y-120904000D03*
X118110000Y-120904000D03*
D39*
X158750000Y-29845000D03*
X158750000Y-23245000D03*
X162750000Y-23241000D03*
X162750000Y-29845000D03*
D40*
X160750000Y-23241000D03*
D14*
X157251500Y-67818000D03*
X155676500Y-67818000D03*
D26*
X193395500Y-74168000D03*
X194970500Y-74168000D03*
D22*
X106680000Y-140637500D03*
X106680000Y-138762500D03*
D41*
X204851000Y-73482200D03*
D42*
X204851000Y-79578200D03*
D41*
X102235000Y-79376000D03*
D42*
X102235000Y-73280000D03*
M02*
