G04 #@! TF.GenerationSoftware,KiCad,Pcbnew,6.0.2-378541a8eb~116~ubuntu20.04.1*
G04 #@! TF.CreationDate,2022-02-16T23:09:58+01:00*
G04 #@! TF.ProjectId,Main_Board,4d61696e-5f42-46f6-9172-642e6b696361,rev?*
G04 #@! TF.SameCoordinates,Original*
G04 #@! TF.FileFunction,Copper,L1,Top*
G04 #@! TF.FilePolarity,Positive*
%FSLAX46Y46*%
G04 Gerber Fmt 4.6, Leading zero omitted, Abs format (unit mm)*
G04 Created by KiCad (PCBNEW 6.0.2-378541a8eb~116~ubuntu20.04.1) date 2022-02-16 23:09:58*
%MOMM*%
%LPD*%
G01*
G04 APERTURE LIST*
G04 Aperture macros list*
%AMRoundRect*
0 Rectangle with rounded corners*
0 $1 Rounding radius*
0 $2 $3 $4 $5 $6 $7 $8 $9 X,Y pos of 4 corners*
0 Add a 4 corners polygon primitive as box body*
4,1,4,$2,$3,$4,$5,$6,$7,$8,$9,$2,$3,0*
0 Add four circle primitives for the rounded corners*
1,1,$1+$1,$2,$3*
1,1,$1+$1,$4,$5*
1,1,$1+$1,$6,$7*
1,1,$1+$1,$8,$9*
0 Add four rect primitives between the rounded corners*
20,1,$1+$1,$2,$3,$4,$5,0*
20,1,$1+$1,$4,$5,$6,$7,0*
20,1,$1+$1,$6,$7,$8,$9,0*
20,1,$1+$1,$8,$9,$2,$3,0*%
%AMRotRect*
0 Rectangle, with rotation*
0 The origin of the aperture is its center*
0 $1 length*
0 $2 width*
0 $3 Rotation angle, in degrees counterclockwise*
0 Add horizontal line*
21,1,$1,$2,0,0,$3*%
%AMFreePoly0*
4,1,21,1.372500,0.787500,0.862500,0.787500,0.862500,0.532500,1.372500,0.532500,1.372500,0.127500,0.862500,0.127500,0.862500,-0.127500,1.372500,-0.127500,1.372500,-0.532500,0.862500,-0.532500,0.862500,-0.787500,1.372500,-0.787500,1.372500,-1.195000,0.612500,-1.195000,0.612500,-1.117500,-0.862500,-1.117500,-0.862500,1.117500,0.612500,1.117500,0.612500,1.195000,1.372500,1.195000,
1.372500,0.787500,1.372500,0.787500,$1*%
%AMFreePoly1*
4,1,7,0.150000,-0.475000,-0.150000,-0.475000,-0.150000,0.130000,-1.150000,0.130000,-1.150000,0.480000,0.150000,0.480000,0.150000,-0.475000,0.150000,-0.475000,$1*%
%AMFreePoly2*
4,1,7,1.220000,-0.670000,1.800000,-0.670000,1.800000,-2.400000,-0.300000,-2.400000,-0.300000,0.300000,1.220000,0.300000,1.220000,-0.670000,1.220000,-0.670000,$1*%
G04 Aperture macros list end*
G04 #@! TA.AperFunction,ComponentPad*
%ADD10R,1.700000X1.700000*%
G04 #@! TD*
G04 #@! TA.AperFunction,ComponentPad*
%ADD11O,1.700000X1.700000*%
G04 #@! TD*
G04 #@! TA.AperFunction,SMDPad,CuDef*
%ADD12RoundRect,0.243750X-0.243750X-0.456250X0.243750X-0.456250X0.243750X0.456250X-0.243750X0.456250X0*%
G04 #@! TD*
G04 #@! TA.AperFunction,SMDPad,CuDef*
%ADD13RoundRect,0.243750X-0.456250X0.243750X-0.456250X-0.243750X0.456250X-0.243750X0.456250X0.243750X0*%
G04 #@! TD*
G04 #@! TA.AperFunction,SMDPad,CuDef*
%ADD14R,1.000000X1.500000*%
G04 #@! TD*
G04 #@! TA.AperFunction,SMDPad,CuDef*
%ADD15RoundRect,0.218750X-0.256250X0.218750X-0.256250X-0.218750X0.256250X-0.218750X0.256250X0.218750X0*%
G04 #@! TD*
G04 #@! TA.AperFunction,SMDPad,CuDef*
%ADD16RoundRect,0.218750X0.218750X0.256250X-0.218750X0.256250X-0.218750X-0.256250X0.218750X-0.256250X0*%
G04 #@! TD*
G04 #@! TA.AperFunction,SMDPad,CuDef*
%ADD17RotRect,1.500000X1.000000X235.000000*%
G04 #@! TD*
G04 #@! TA.AperFunction,SMDPad,CuDef*
%ADD18RotRect,1.500000X1.000000X125.000000*%
G04 #@! TD*
G04 #@! TA.AperFunction,SMDPad,CuDef*
%ADD19R,1.500000X1.000000*%
G04 #@! TD*
G04 #@! TA.AperFunction,SMDPad,CuDef*
%ADD20R,1.500000X2.200000*%
G04 #@! TD*
G04 #@! TA.AperFunction,ComponentPad*
%ADD21R,2.200000X2.200000*%
G04 #@! TD*
G04 #@! TA.AperFunction,ComponentPad*
%ADD22RoundRect,0.550000X-0.550000X0.550000X-0.550000X-0.550000X0.550000X-0.550000X0.550000X0.550000X0*%
G04 #@! TD*
G04 #@! TA.AperFunction,ComponentPad*
%ADD23R,2.000000X2.000000*%
G04 #@! TD*
G04 #@! TA.AperFunction,ComponentPad*
%ADD24C,1.524000*%
G04 #@! TD*
G04 #@! TA.AperFunction,SMDPad,CuDef*
%ADD25R,1.200000X0.900000*%
G04 #@! TD*
G04 #@! TA.AperFunction,SMDPad,CuDef*
%ADD26R,0.405000X0.990000*%
G04 #@! TD*
G04 #@! TA.AperFunction,SMDPad,CuDef*
%ADD27FreePoly0,90.000000*%
G04 #@! TD*
G04 #@! TA.AperFunction,SMDPad,CuDef*
%ADD28RoundRect,0.243750X0.456250X-0.243750X0.456250X0.243750X-0.456250X0.243750X-0.456250X-0.243750X0*%
G04 #@! TD*
G04 #@! TA.AperFunction,ComponentPad*
%ADD29C,1.500000*%
G04 #@! TD*
G04 #@! TA.AperFunction,SMDPad,CuDef*
%ADD30RoundRect,0.218750X0.256250X-0.218750X0.256250X0.218750X-0.256250X0.218750X-0.256250X-0.218750X0*%
G04 #@! TD*
G04 #@! TA.AperFunction,SMDPad,CuDef*
%ADD31R,0.990000X0.405000*%
G04 #@! TD*
G04 #@! TA.AperFunction,SMDPad,CuDef*
%ADD32FreePoly0,0.000000*%
G04 #@! TD*
G04 #@! TA.AperFunction,SMDPad,CuDef*
%ADD33RoundRect,0.218750X-0.218750X-0.256250X0.218750X-0.256250X0.218750X0.256250X-0.218750X0.256250X0*%
G04 #@! TD*
G04 #@! TA.AperFunction,SMDPad,CuDef*
%ADD34RoundRect,0.250000X0.375000X1.075000X-0.375000X1.075000X-0.375000X-1.075000X0.375000X-1.075000X0*%
G04 #@! TD*
G04 #@! TA.AperFunction,SMDPad,CuDef*
%ADD35RoundRect,0.250000X-0.375000X-1.075000X0.375000X-1.075000X0.375000X1.075000X-0.375000X1.075000X0*%
G04 #@! TD*
G04 #@! TA.AperFunction,SMDPad,CuDef*
%ADD36RoundRect,0.250000X-1.075000X0.375000X-1.075000X-0.375000X1.075000X-0.375000X1.075000X0.375000X0*%
G04 #@! TD*
G04 #@! TA.AperFunction,SMDPad,CuDef*
%ADD37R,3.800000X1.000000*%
G04 #@! TD*
G04 #@! TA.AperFunction,SMDPad,CuDef*
%ADD38RoundRect,0.243750X0.243750X0.456250X-0.243750X0.456250X-0.243750X-0.456250X0.243750X-0.456250X0*%
G04 #@! TD*
G04 #@! TA.AperFunction,SMDPad,CuDef*
%ADD39R,0.950000X0.300000*%
G04 #@! TD*
G04 #@! TA.AperFunction,SMDPad,CuDef*
%ADD40R,0.300000X0.950000*%
G04 #@! TD*
G04 #@! TA.AperFunction,SMDPad,CuDef*
%ADD41FreePoly1,90.000000*%
G04 #@! TD*
G04 #@! TA.AperFunction,SMDPad,CuDef*
%ADD42R,1.600000X0.300000*%
G04 #@! TD*
G04 #@! TA.AperFunction,SMDPad,CuDef*
%ADD43R,3.400000X1.100000*%
G04 #@! TD*
G04 #@! TA.AperFunction,ComponentPad*
%ADD44C,0.500000*%
G04 #@! TD*
G04 #@! TA.AperFunction,SMDPad,CuDef*
%ADD45R,1.100000X2.700000*%
G04 #@! TD*
G04 #@! TA.AperFunction,SMDPad,CuDef*
%ADD46FreePoly2,0.000000*%
G04 #@! TD*
G04 #@! TA.AperFunction,ComponentPad*
%ADD47RoundRect,0.250000X0.600000X0.725000X-0.600000X0.725000X-0.600000X-0.725000X0.600000X-0.725000X0*%
G04 #@! TD*
G04 #@! TA.AperFunction,ComponentPad*
%ADD48O,1.700000X1.950000*%
G04 #@! TD*
G04 #@! TA.AperFunction,SMDPad,CuDef*
%ADD49R,1.000000X3.200000*%
G04 #@! TD*
G04 #@! TA.AperFunction,SMDPad,CuDef*
%ADD50R,1.000000X1.000000*%
G04 #@! TD*
G04 #@! TA.AperFunction,ComponentPad*
%ADD51C,3.660000*%
G04 #@! TD*
G04 #@! TA.AperFunction,ComponentPad*
%ADD52C,1.308000*%
G04 #@! TD*
G04 #@! TA.AperFunction,SMDPad,CuDef*
%ADD53C,1.000000*%
G04 #@! TD*
G04 #@! TA.AperFunction,ComponentPad*
%ADD54RoundRect,0.250000X0.750000X-0.600000X0.750000X0.600000X-0.750000X0.600000X-0.750000X-0.600000X0*%
G04 #@! TD*
G04 #@! TA.AperFunction,ComponentPad*
%ADD55O,2.000000X1.700000*%
G04 #@! TD*
G04 #@! TA.AperFunction,ComponentPad*
%ADD56RoundRect,0.250000X-0.750000X0.600000X-0.750000X-0.600000X0.750000X-0.600000X0.750000X0.600000X0*%
G04 #@! TD*
G04 #@! TA.AperFunction,SMDPad,CuDef*
%ADD57R,2.000000X2.000000*%
G04 #@! TD*
G04 #@! TA.AperFunction,ComponentPad*
%ADD58RoundRect,0.500000X0.500000X-0.500000X0.500000X0.500000X-0.500000X0.500000X-0.500000X-0.500000X0*%
G04 #@! TD*
G04 #@! TA.AperFunction,SMDPad,CuDef*
%ADD59R,2.000000X2.500000*%
G04 #@! TD*
G04 #@! TA.AperFunction,ComponentPad*
%ADD60RoundRect,0.500000X-0.500000X0.500000X-0.500000X-0.500000X0.500000X-0.500000X0.500000X0.500000X0*%
G04 #@! TD*
G04 #@! TA.AperFunction,ComponentPad*
%ADD61RoundRect,0.249999X-0.350001X-0.575001X0.350001X-0.575001X0.350001X0.575001X-0.350001X0.575001X0*%
G04 #@! TD*
G04 #@! TA.AperFunction,ComponentPad*
%ADD62O,1.200000X1.650000*%
G04 #@! TD*
G04 #@! TA.AperFunction,ComponentPad*
%ADD63RoundRect,0.249999X0.350001X0.575001X-0.350001X0.575001X-0.350001X-0.575001X0.350001X-0.575001X0*%
G04 #@! TD*
G04 #@! TA.AperFunction,ComponentPad*
%ADD64R,3.716000X3.716000*%
G04 #@! TD*
G04 #@! TA.AperFunction,ComponentPad*
%ADD65C,3.716000*%
G04 #@! TD*
G04 #@! TA.AperFunction,ComponentPad*
%ADD66O,1.200000X2.400000*%
G04 #@! TD*
G04 #@! TA.AperFunction,ViaPad*
%ADD67C,0.800000*%
G04 #@! TD*
G04 #@! TA.AperFunction,ViaPad*
%ADD68C,0.400000*%
G04 #@! TD*
G04 #@! TA.AperFunction,Conductor*
%ADD69C,0.250000*%
G04 #@! TD*
G04 #@! TA.AperFunction,Conductor*
%ADD70C,0.500000*%
G04 #@! TD*
G04 #@! TA.AperFunction,Conductor*
%ADD71C,0.127000*%
G04 #@! TD*
G04 #@! TA.AperFunction,Conductor*
%ADD72C,0.400000*%
G04 #@! TD*
G04 #@! TA.AperFunction,Conductor*
%ADD73C,0.300000*%
G04 #@! TD*
G04 #@! TA.AperFunction,Conductor*
%ADD74C,0.750000*%
G04 #@! TD*
G04 #@! TA.AperFunction,Conductor*
%ADD75C,1.500000*%
G04 #@! TD*
G04 APERTURE END LIST*
D10*
X204724000Y-107442000D03*
D11*
X204724000Y-104902000D03*
X204724000Y-102362000D03*
X204724000Y-99822000D03*
D12*
X156875000Y-32766000D03*
X158750000Y-32766000D03*
D13*
X201041000Y-139016500D03*
X201041000Y-140891500D03*
D14*
X203505000Y-91350000D03*
X206705000Y-91350000D03*
X206705000Y-86450000D03*
X203505000Y-86450000D03*
D10*
X93726000Y-107442000D03*
D11*
X93726000Y-104902000D03*
X93726000Y-102362000D03*
X93726000Y-99822000D03*
D14*
X94945000Y-86450000D03*
X91745000Y-86450000D03*
X91745000Y-91350000D03*
X94945000Y-91350000D03*
X95072000Y-143854000D03*
X91872000Y-143854000D03*
X91872000Y-148754000D03*
X95072000Y-148754000D03*
X203632000Y-148754000D03*
X206832000Y-148754000D03*
X206832000Y-143854000D03*
X203632000Y-143854000D03*
D15*
X163830000Y-56362500D03*
X163830000Y-57937500D03*
D16*
X143789500Y-73914000D03*
X142214500Y-73914000D03*
D17*
X111935906Y-47805800D03*
X109314619Y-45970355D03*
X106504094Y-49984200D03*
X109125381Y-51819645D03*
D18*
X189324619Y-51819645D03*
X191945906Y-49984200D03*
X189135381Y-45970355D03*
X186514094Y-47805800D03*
D19*
X151675000Y-25730000D03*
X151675000Y-22530000D03*
X146775000Y-22530000D03*
X146775000Y-25730000D03*
D20*
X180340000Y-120904000D03*
D21*
X181610000Y-120904000D03*
X179070000Y-120904000D03*
D22*
X186690000Y-120904000D03*
X184150000Y-120904000D03*
D20*
X185420000Y-120904000D03*
D22*
X189230000Y-120904000D03*
X191770000Y-120904000D03*
D20*
X190500000Y-120904000D03*
D22*
X194310000Y-120904000D03*
X196850000Y-120904000D03*
D20*
X195580000Y-120904000D03*
D23*
X179070000Y-148844000D03*
D24*
X181610000Y-148844000D03*
X184150000Y-148844000D03*
X186690000Y-148844000D03*
X189230000Y-148844000D03*
X191770000Y-148844000D03*
X194310000Y-148844000D03*
X196850000Y-148844000D03*
D20*
X180340000Y-86360000D03*
D21*
X179070000Y-86360000D03*
X181610000Y-86360000D03*
D22*
X184150000Y-86360000D03*
D20*
X185420000Y-86360000D03*
D22*
X186690000Y-86360000D03*
X189230000Y-86360000D03*
X191770000Y-86360000D03*
D20*
X190500000Y-86360000D03*
D22*
X194310000Y-86360000D03*
X196850000Y-86360000D03*
D20*
X195580000Y-86360000D03*
D23*
X179070000Y-114300000D03*
D24*
X181610000Y-114300000D03*
X184150000Y-114300000D03*
X186690000Y-114300000D03*
X189230000Y-114300000D03*
X191770000Y-114300000D03*
X194310000Y-114300000D03*
X196850000Y-114300000D03*
D25*
X147193000Y-58165000D03*
X147193000Y-54865000D03*
D26*
X151231000Y-57496000D03*
D27*
X150241000Y-55503500D03*
D26*
X149251000Y-57496000D03*
X149911000Y-57496000D03*
X150571000Y-57496000D03*
D28*
X153035000Y-56690500D03*
X153035000Y-54815500D03*
D15*
X156210000Y-58039000D03*
X156210000Y-59614000D03*
D29*
X160020000Y-51435000D03*
X160020000Y-53935000D03*
X160020000Y-56435000D03*
D28*
X144907000Y-58087500D03*
X144907000Y-56212500D03*
D30*
X143129000Y-57810500D03*
X143129000Y-56235500D03*
D19*
X146775000Y-153900000D03*
X146775000Y-157100000D03*
X151675000Y-157100000D03*
X151675000Y-153900000D03*
D29*
X198374000Y-66548000D03*
X195874000Y-66548000D03*
X193374000Y-66548000D03*
D12*
X193118500Y-72390000D03*
X194993500Y-72390000D03*
D31*
X192621000Y-77876000D03*
D32*
X194613500Y-76886000D03*
D31*
X192621000Y-75896000D03*
X192621000Y-76556000D03*
X192621000Y-77216000D03*
D12*
X193626500Y-79756000D03*
X195501500Y-79756000D03*
D16*
X195478500Y-81534000D03*
X193903500Y-81534000D03*
X194843500Y-70612000D03*
X193268500Y-70612000D03*
D33*
X154660500Y-75819000D03*
X156235500Y-75819000D03*
D34*
X143640000Y-79375000D03*
X140840000Y-79375000D03*
D35*
X154810000Y-78232000D03*
X157610000Y-78232000D03*
D15*
X146812000Y-66014500D03*
X146812000Y-67589500D03*
D16*
X143789500Y-75438000D03*
X142214500Y-75438000D03*
D33*
X155676500Y-69342000D03*
X157251500Y-69342000D03*
D15*
X140462000Y-69062500D03*
X140462000Y-70637500D03*
D36*
X143002000Y-69212000D03*
X143002000Y-72012000D03*
D37*
X155956000Y-71755000D03*
X155956000Y-74155000D03*
D30*
X148336000Y-67589500D03*
X148336000Y-66014500D03*
D38*
X158036500Y-80899000D03*
X156161500Y-80899000D03*
D13*
X153670000Y-65864500D03*
X153670000Y-67739500D03*
D39*
X147337000Y-71213000D03*
X147337000Y-71863000D03*
X147337000Y-72513000D03*
X147337000Y-73163000D03*
X147337000Y-74163000D03*
X147337000Y-74663000D03*
D40*
X148342000Y-75438000D03*
X148992000Y-75438000D03*
X150122000Y-75438000D03*
X150622000Y-75438000D03*
X151122000Y-75438000D03*
D39*
X152387000Y-74813000D03*
X152387000Y-74313000D03*
D41*
X152387000Y-73813000D03*
D42*
X152062000Y-73163000D03*
D39*
X152387000Y-72663000D03*
X152387000Y-72163000D03*
X152387000Y-71663000D03*
X152387000Y-71163000D03*
D40*
X151612000Y-70388000D03*
X151112000Y-70388000D03*
X150612000Y-70388000D03*
X150112000Y-70388000D03*
X149612000Y-70388000D03*
X149112000Y-70388000D03*
X148612000Y-70388000D03*
X148112000Y-70388000D03*
D43*
X149862000Y-71713000D03*
D44*
X150116000Y-71643000D03*
X150878000Y-71643000D03*
X148592000Y-71643000D03*
X149354000Y-71643000D03*
X148592000Y-72913000D03*
X148592000Y-74437000D03*
D45*
X148662000Y-73913000D03*
D44*
X148592000Y-73675000D03*
X151386000Y-74437000D03*
X149862000Y-74437000D03*
D46*
X149812000Y-72863000D03*
D44*
X150624000Y-72913000D03*
X149862000Y-73675000D03*
X150624000Y-74437000D03*
X149862000Y-72913000D03*
X150624000Y-73675000D03*
D13*
X151638000Y-65864500D03*
X151638000Y-67739500D03*
D16*
X143789500Y-76962000D03*
X142214500Y-76962000D03*
D15*
X145288000Y-66014500D03*
X145288000Y-67589500D03*
X149860000Y-66014500D03*
X149860000Y-67589500D03*
D33*
X153009500Y-81153000D03*
X154584500Y-81153000D03*
D47*
X114300000Y-102235000D03*
D48*
X111800000Y-102235000D03*
X109300000Y-102235000D03*
X106800000Y-102235000D03*
D21*
X104140000Y-120904000D03*
X101600000Y-120904000D03*
D20*
X102870000Y-120904000D03*
D22*
X109220000Y-120904000D03*
X106680000Y-120904000D03*
D20*
X107950000Y-120904000D03*
D22*
X114300000Y-120904000D03*
X111760000Y-120904000D03*
D20*
X113030000Y-120904000D03*
D22*
X116840000Y-120904000D03*
X119380000Y-120904000D03*
D20*
X118110000Y-120904000D03*
D23*
X101600000Y-148844000D03*
D24*
X104140000Y-148844000D03*
X106680000Y-148844000D03*
X109220000Y-148844000D03*
X111760000Y-148844000D03*
X114300000Y-148844000D03*
X116840000Y-148844000D03*
X119380000Y-148844000D03*
D29*
X133350000Y-73025000D03*
X133350000Y-75525000D03*
X133350000Y-78025000D03*
D49*
X158750000Y-29845000D03*
X158750000Y-23245000D03*
X162750000Y-23241000D03*
X162750000Y-29845000D03*
D50*
X160750000Y-23241000D03*
D51*
X124460000Y-64262000D03*
X124460000Y-38862000D03*
X160020000Y-64262000D03*
X160020000Y-38862000D03*
D10*
X124460000Y-42672000D03*
D11*
X124460000Y-45212000D03*
X124460000Y-47752000D03*
X124460000Y-50292000D03*
X124460000Y-52832000D03*
X124460000Y-55372000D03*
X124460000Y-57912000D03*
X124460000Y-60452000D03*
D52*
X139700000Y-147320000D03*
X139700000Y-144780000D03*
X139700000Y-142240000D03*
X139700000Y-139700000D03*
X139700000Y-114300000D03*
X124460000Y-144780000D03*
X139700000Y-137160000D03*
X139700000Y-134620000D03*
X139700000Y-132080000D03*
X139700000Y-129540000D03*
X139700000Y-127000000D03*
X139700000Y-124460000D03*
X139700000Y-121920000D03*
X139700000Y-119380000D03*
X139700000Y-116840000D03*
X124460000Y-116840000D03*
X124460000Y-119380000D03*
X124460000Y-121920000D03*
X124460000Y-124460000D03*
X124460000Y-127000000D03*
X124460000Y-129540000D03*
X124460000Y-132080000D03*
X124460000Y-134620000D03*
X124460000Y-137160000D03*
X124460000Y-139700000D03*
X124460000Y-142240000D03*
X139700000Y-111760000D03*
X139700000Y-109220000D03*
X139700000Y-106680000D03*
X139700000Y-104140000D03*
X139700000Y-101600000D03*
X139700000Y-99060000D03*
X139700000Y-96520000D03*
X139700000Y-93980000D03*
X139700000Y-91440000D03*
X124460000Y-91440000D03*
X124460000Y-93980000D03*
X124460000Y-96520000D03*
X124460000Y-99060000D03*
X124460000Y-101600000D03*
X124460000Y-104140000D03*
X124460000Y-106680000D03*
X124460000Y-109220000D03*
X124460000Y-111760000D03*
X139700000Y-149860000D03*
X124460000Y-114300000D03*
X124460000Y-147320000D03*
X124460000Y-149860000D03*
D16*
X157251500Y-67818000D03*
X155676500Y-67818000D03*
D33*
X193395500Y-74168000D03*
X194970500Y-74168000D03*
D28*
X106680000Y-140637500D03*
X106680000Y-138762500D03*
D53*
X184150000Y-154051000D03*
X106680000Y-153924000D03*
X201930000Y-116840000D03*
X138176000Y-57912000D03*
X144018000Y-83820000D03*
X177292000Y-73152000D03*
X203454000Y-96774000D03*
X99568000Y-100838000D03*
X99568000Y-104648000D03*
X205740000Y-96774000D03*
D52*
X173990000Y-147320000D03*
X173990000Y-144780000D03*
X173990000Y-142240000D03*
X173990000Y-139700000D03*
X173990000Y-114300000D03*
X158750000Y-144780000D03*
X173990000Y-137160000D03*
X173990000Y-134620000D03*
X173990000Y-132080000D03*
X173990000Y-129540000D03*
X173990000Y-127000000D03*
X173990000Y-124460000D03*
X173990000Y-121920000D03*
X173990000Y-119380000D03*
X173990000Y-116840000D03*
X158750000Y-116840000D03*
X158750000Y-119380000D03*
X158750000Y-121920000D03*
X158750000Y-124460000D03*
X158750000Y-127000000D03*
X158750000Y-129540000D03*
X158750000Y-132080000D03*
X158750000Y-134620000D03*
X158750000Y-137160000D03*
X158750000Y-139700000D03*
X158750000Y-142240000D03*
X173990000Y-111760000D03*
X173990000Y-109220000D03*
X173990000Y-106680000D03*
X173990000Y-104140000D03*
X173990000Y-101600000D03*
X173990000Y-99060000D03*
X173990000Y-96520000D03*
X173990000Y-93980000D03*
X173990000Y-91440000D03*
X158750000Y-91440000D03*
X158750000Y-93980000D03*
X158750000Y-96520000D03*
X158750000Y-99060000D03*
X158750000Y-101600000D03*
X158750000Y-104140000D03*
X158750000Y-106680000D03*
X158750000Y-109220000D03*
X158750000Y-111760000D03*
X173990000Y-149860000D03*
X158750000Y-114300000D03*
X158750000Y-147320000D03*
X158750000Y-149860000D03*
D54*
X104140000Y-141224000D03*
D55*
X104140000Y-138724000D03*
D56*
X194437000Y-139065000D03*
D55*
X194437000Y-141565000D03*
D47*
X194310000Y-97790000D03*
D48*
X191810000Y-97790000D03*
X189310000Y-97790000D03*
X186810000Y-97790000D03*
X184310000Y-97790000D03*
X181810000Y-97790000D03*
D47*
X194056000Y-133096000D03*
D48*
X191556000Y-133096000D03*
X189056000Y-133096000D03*
X186556000Y-133096000D03*
X184056000Y-133096000D03*
X181556000Y-133096000D03*
D47*
X114300000Y-113792000D03*
D48*
X111800000Y-113792000D03*
X109300000Y-113792000D03*
X106800000Y-113792000D03*
X104300000Y-113792000D03*
X101800000Y-113792000D03*
D57*
X204851000Y-73482200D03*
D23*
X204851000Y-71958200D03*
X204851000Y-74958200D03*
D58*
X204851000Y-77958200D03*
X204851000Y-80958200D03*
D59*
X204851000Y-79578200D03*
D23*
X102235000Y-77900000D03*
X102235000Y-80900000D03*
D57*
X102235000Y-79376000D03*
D60*
X102235000Y-74900000D03*
X102235000Y-71900000D03*
D59*
X102235000Y-73280000D03*
D61*
X159386000Y-87598000D03*
D62*
X159386000Y-85598000D03*
X161386000Y-87598000D03*
X161386000Y-85598000D03*
X163386000Y-87598000D03*
X163386000Y-85598000D03*
X165386000Y-87598000D03*
X165386000Y-85598000D03*
X167386000Y-87598000D03*
X167386000Y-85598000D03*
X169386000Y-87598000D03*
X169386000Y-85598000D03*
X171386000Y-87598000D03*
X171386000Y-85598000D03*
X173386000Y-87598000D03*
X173386000Y-85598000D03*
D63*
X137922000Y-85598000D03*
D62*
X137922000Y-87598000D03*
X135922000Y-85598000D03*
X135922000Y-87598000D03*
X133922000Y-85598000D03*
X133922000Y-87598000D03*
X131922000Y-85598000D03*
X131922000Y-87598000D03*
X129922000Y-85598000D03*
X129922000Y-87598000D03*
X127922000Y-85598000D03*
X127922000Y-87598000D03*
X125922000Y-85598000D03*
X125922000Y-87598000D03*
D64*
X152444000Y-48102000D03*
D65*
X145244000Y-48102000D03*
D66*
X155594000Y-54102000D03*
X142094000Y-54102000D03*
D67*
X142240000Y-61976000D03*
X148336000Y-64008000D03*
X142240000Y-64008000D03*
X142240000Y-68072000D03*
X156464000Y-61976000D03*
X146304000Y-61976000D03*
X140208000Y-68072000D03*
X154432000Y-59944000D03*
X152400000Y-61976000D03*
X138176000Y-68072000D03*
X146304000Y-59944000D03*
X143764000Y-68072000D03*
X152400000Y-64008000D03*
X154432000Y-64008000D03*
X148336000Y-61976000D03*
X148336000Y-59944000D03*
X146304000Y-64008000D03*
X140208000Y-61976000D03*
X150368000Y-64008000D03*
X150368000Y-59944000D03*
X140208000Y-66040000D03*
X142240000Y-59944000D03*
X143764000Y-66040000D03*
X142240000Y-66040000D03*
X138176000Y-59944000D03*
X140208000Y-59944000D03*
X142240000Y-57912000D03*
X144272000Y-64008000D03*
X152400000Y-57912000D03*
X138176000Y-66040000D03*
X138176000Y-61976000D03*
X144272000Y-59944000D03*
X140208000Y-64008000D03*
X146308653Y-76204653D03*
X150368000Y-61976000D03*
X152400000Y-59944000D03*
X154432000Y-57912000D03*
X154432000Y-61976000D03*
X138176000Y-64008000D03*
X144272000Y-61976000D03*
D68*
X150368000Y-66802000D03*
D67*
X159258000Y-80899000D03*
D68*
X145034000Y-57150000D03*
X151384000Y-66802000D03*
X146100000Y-66850000D03*
D67*
X205740000Y-146304000D03*
X157607000Y-75819000D03*
X108585000Y-48895000D03*
X189865000Y-48895000D03*
X155194000Y-32004000D03*
X148082000Y-76962000D03*
X149225000Y-23495000D03*
X140716000Y-73660000D03*
X192024000Y-68834000D03*
X143256000Y-70612000D03*
X92710000Y-146431000D03*
X154305000Y-149860000D03*
X92710000Y-88900000D03*
X159258000Y-78232000D03*
X205740000Y-88900000D03*
X158496000Y-67818000D03*
X97082892Y-142167892D03*
X138684000Y-70104000D03*
X158496000Y-69342000D03*
D68*
X144780000Y-66802000D03*
X164338000Y-59309000D03*
D67*
X139192000Y-79375000D03*
X164592000Y-30734000D03*
D68*
X152654000Y-66802000D03*
D67*
X204470000Y-146304000D03*
X147955000Y-150241000D03*
X109855000Y-48260000D03*
X93980000Y-145796000D03*
D68*
X156464000Y-72898000D03*
D67*
X147320000Y-80772000D03*
X149860000Y-24765000D03*
X149352000Y-80772000D03*
X151384000Y-78740000D03*
X188595000Y-49530000D03*
X151384000Y-80772000D03*
X97790000Y-140970000D03*
X204470000Y-88900000D03*
X145288000Y-80772000D03*
X203454000Y-141986000D03*
X145288000Y-78740000D03*
D68*
X156464000Y-70358000D03*
X152654000Y-68326000D03*
D67*
X147320000Y-78740000D03*
X93980000Y-88265000D03*
X149352000Y-78740000D03*
X153416000Y-78740000D03*
D68*
X156718000Y-56515000D03*
X147193000Y-56134000D03*
D67*
X155956000Y-45212000D03*
X152400000Y-53340000D03*
D68*
X149987000Y-55372000D03*
X151003000Y-55880000D03*
X149987000Y-54864000D03*
X149479000Y-55372000D03*
X149987000Y-55880000D03*
D67*
X148336000Y-45212000D03*
X148336000Y-53340000D03*
X144780000Y-51308000D03*
X155956000Y-51308000D03*
X152400000Y-51308000D03*
D68*
X151003000Y-55372000D03*
D67*
X148336000Y-49276000D03*
X148336000Y-51308000D03*
X141224000Y-45212000D03*
D68*
X150495000Y-55880000D03*
D67*
X148336000Y-47244000D03*
X141224000Y-51308000D03*
D68*
X150495000Y-54864000D03*
D67*
X144780000Y-53340000D03*
D68*
X150495000Y-55372000D03*
X149479000Y-55880000D03*
D67*
X141224000Y-47244000D03*
D68*
X149479000Y-54864000D03*
D67*
X155956000Y-47244000D03*
D68*
X151003000Y-54864000D03*
D67*
X155956000Y-49276000D03*
X141224000Y-49276000D03*
D68*
X194437000Y-76708000D03*
X194945000Y-77216000D03*
X194437000Y-77724000D03*
X193929000Y-77216000D03*
X193929000Y-76200000D03*
X193929000Y-77724000D03*
X194945000Y-77724000D03*
X194945000Y-76708000D03*
X194945000Y-76200000D03*
X193929000Y-76708000D03*
X194437000Y-76200000D03*
X194437000Y-77216000D03*
D67*
X185420000Y-79248000D03*
X177292000Y-79248000D03*
X181356000Y-71120000D03*
X187452000Y-77216000D03*
X185420000Y-75184000D03*
X185420000Y-71120000D03*
X177292000Y-75184000D03*
X179324000Y-80772000D03*
X179324000Y-73152000D03*
X191516000Y-80772000D03*
X183388000Y-77216000D03*
X177292000Y-71120000D03*
X191516000Y-77216000D03*
X187452000Y-80772000D03*
X189484000Y-75184000D03*
X181356000Y-75184000D03*
X181356000Y-79248000D03*
X189484000Y-71120000D03*
X191516000Y-73152000D03*
X179324000Y-77216000D03*
X189484000Y-79248000D03*
X183388000Y-80772000D03*
X187452000Y-73152000D03*
X183388000Y-73152000D03*
D68*
X156210000Y-58039000D03*
X143789500Y-73914000D03*
X147337000Y-71863000D03*
X147574000Y-66929000D03*
X194843500Y-70612000D03*
X195501500Y-79756000D03*
X195478500Y-81534000D03*
X199644000Y-116840000D03*
D69*
X148992000Y-75438000D02*
X148342000Y-75438000D01*
D70*
X102235000Y-77900000D02*
X102235000Y-79376000D01*
D69*
X148342000Y-75438000D02*
X147075306Y-75438000D01*
X147075306Y-75438000D02*
X146308653Y-76204653D01*
D70*
X102235000Y-80900000D02*
X102235000Y-79376000D01*
D69*
X145003000Y-71213000D02*
X143002000Y-69212000D01*
X147337000Y-71213000D02*
X145003000Y-71213000D01*
X150112000Y-70388000D02*
X150112000Y-71003000D01*
X152387000Y-72163000D02*
X151422000Y-72163000D01*
X151422000Y-72163000D02*
X151172000Y-71913000D01*
X150112000Y-71003000D02*
X150612000Y-71503000D01*
D70*
X146775000Y-22530000D02*
X148260000Y-22530000D01*
X148260000Y-22530000D02*
X149225000Y-23495000D01*
X104864989Y-142940011D02*
X97855011Y-142940011D01*
X106680000Y-141125000D02*
X104864989Y-142940011D01*
X97855011Y-142940011D02*
X97082892Y-142167892D01*
X91872000Y-147269000D02*
X92710000Y-146431000D01*
X154305000Y-154470000D02*
X154305000Y-149860000D01*
X91872000Y-148754000D02*
X91872000Y-147269000D01*
D71*
X145288000Y-66294000D02*
X145288000Y-66014500D01*
D69*
X157251500Y-67818000D02*
X158496000Y-67818000D01*
X157251500Y-69342000D02*
X158496000Y-69342000D01*
X151122000Y-75438000D02*
X150622000Y-75438000D01*
D70*
X143002000Y-70866000D02*
X143256000Y-70612000D01*
D71*
X151638000Y-66548000D02*
X151384000Y-66802000D01*
D69*
X149606000Y-76962000D02*
X148082000Y-76962000D01*
D70*
X91745000Y-89865000D02*
X92710000Y-88900000D01*
X206705000Y-87935000D02*
X205740000Y-88900000D01*
D72*
X193268500Y-70612000D02*
X193268500Y-70078500D01*
D69*
X158036500Y-80899000D02*
X159258000Y-80899000D01*
D70*
X106504094Y-49984200D02*
X107495800Y-49984200D01*
X139217500Y-70637500D02*
X138684000Y-70104000D01*
X157610000Y-78232000D02*
X159258000Y-78232000D01*
X189135381Y-45970355D02*
X189135381Y-48165381D01*
X204851000Y-77958200D02*
X204851000Y-79578200D01*
D71*
X144780000Y-66802000D02*
X145288000Y-66294000D01*
D70*
X206705000Y-86450000D02*
X206705000Y-87935000D01*
D73*
X149862000Y-71897000D02*
X150116000Y-71643000D01*
D70*
X140840000Y-79375000D02*
X139192000Y-79375000D01*
X206832000Y-143854000D02*
X206832000Y-145212000D01*
D72*
X193118500Y-70762000D02*
X193268500Y-70612000D01*
D69*
X142214500Y-73914000D02*
X140970000Y-73914000D01*
D70*
X140462000Y-70637500D02*
X139217500Y-70637500D01*
X143002000Y-72012000D02*
X143002000Y-70866000D01*
X151675000Y-157100000D02*
X154305000Y-154470000D01*
D73*
X149862000Y-72913000D02*
X149862000Y-71897000D01*
D70*
X204851000Y-80958200D02*
X204851000Y-79578200D01*
X91745000Y-91350000D02*
X91745000Y-89865000D01*
D69*
X144907000Y-57277000D02*
X145034000Y-57150000D01*
D71*
X149860000Y-66294000D02*
X150368000Y-66802000D01*
D70*
X107495800Y-49984200D02*
X108585000Y-48895000D01*
D69*
X163830000Y-58801000D02*
X164338000Y-59309000D01*
D72*
X193268500Y-70078500D02*
X192024000Y-68834000D01*
D73*
X149862000Y-72913000D02*
X149862000Y-72151000D01*
D71*
X146812000Y-66014500D02*
X146812000Y-66138000D01*
X149860000Y-66014500D02*
X149860000Y-66294000D01*
D69*
X156235500Y-75819000D02*
X157607000Y-75819000D01*
D70*
X104140000Y-120904000D02*
X102870000Y-120904000D01*
X189135381Y-48165381D02*
X189865000Y-48895000D01*
D71*
X146812000Y-66138000D02*
X146100000Y-66850000D01*
D70*
X206832000Y-145212000D02*
X205740000Y-146304000D01*
D69*
X144907000Y-58087500D02*
X144907000Y-57277000D01*
D70*
X106680000Y-140637500D02*
X106680000Y-141125000D01*
X102235000Y-71900000D02*
X102235000Y-73280000D01*
D72*
X193118500Y-72390000D02*
X193118500Y-70762000D01*
D69*
X155956000Y-32766000D02*
X155194000Y-32004000D01*
X150122000Y-76446000D02*
X149606000Y-76962000D01*
X156875000Y-32766000D02*
X155956000Y-32766000D01*
D73*
X149862000Y-72151000D02*
X149354000Y-71643000D01*
D69*
X150122000Y-75438000D02*
X150122000Y-76446000D01*
X140970000Y-73914000D02*
X140716000Y-73660000D01*
D71*
X151638000Y-65864500D02*
X151638000Y-66548000D01*
D70*
X102235000Y-71900000D02*
X102235000Y-74900000D01*
D69*
X163830000Y-57937500D02*
X163830000Y-58801000D01*
D70*
X101600000Y-120904000D02*
X102870000Y-120904000D01*
D69*
X150622000Y-75438000D02*
X150122000Y-75438000D01*
D70*
X102235000Y-74900000D02*
X102235000Y-73280000D01*
D69*
X152387000Y-72663000D02*
X153097002Y-72663000D01*
X153097002Y-72663000D02*
X153730999Y-72029003D01*
X153730999Y-70850001D02*
X155239000Y-69342000D01*
X155239000Y-69342000D02*
X155676500Y-69342000D01*
X153730999Y-72029003D02*
X153730999Y-70850001D01*
X142214500Y-75438000D02*
X142214500Y-76962000D01*
X143789500Y-75158500D02*
X145785000Y-73163000D01*
X143789500Y-75438000D02*
X143789500Y-75158500D01*
X145785000Y-73163000D02*
X147337000Y-73163000D01*
X154913990Y-68580510D02*
X155676500Y-67818000D01*
X153280990Y-70663600D02*
X154913990Y-69030600D01*
X153119000Y-71163000D02*
X153280989Y-71001011D01*
X152387000Y-71163000D02*
X153119000Y-71163000D01*
X153280989Y-71001011D02*
X153280990Y-70663600D01*
X154913990Y-69030600D02*
X154913990Y-68580510D01*
X152146000Y-69342000D02*
X151612000Y-69876000D01*
D70*
X151675000Y-25730000D02*
X150825000Y-25730000D01*
X97790000Y-141605000D02*
X97790000Y-140970000D01*
X203632000Y-147142000D02*
X204470000Y-146304000D01*
D69*
X152146000Y-68834000D02*
X152146000Y-69342000D01*
X153591500Y-65864500D02*
X152654000Y-66802000D01*
D70*
X98425000Y-142240000D02*
X97790000Y-141605000D01*
X95072000Y-144704000D02*
X93980000Y-145796000D01*
D69*
X156464000Y-72898000D02*
X156464000Y-73647000D01*
D70*
X104140000Y-141224000D02*
X103124000Y-142240000D01*
X94945000Y-86450000D02*
X94945000Y-87300000D01*
D72*
X201041000Y-140891500D02*
X202359500Y-140891500D01*
D74*
X162750000Y-29845000D02*
X162750000Y-23241000D01*
D69*
X153670000Y-65864500D02*
X153591500Y-65864500D01*
X156464000Y-67361506D02*
X156464000Y-70358000D01*
D75*
X154660500Y-75266120D02*
X155771620Y-74155000D01*
D70*
X111935906Y-47805800D02*
X110309200Y-47805800D01*
X150825000Y-25730000D02*
X149860000Y-24765000D01*
X94945000Y-87300000D02*
X93980000Y-88265000D01*
D69*
X156464000Y-73647000D02*
X155956000Y-74155000D01*
D75*
X154810000Y-78232000D02*
X154810000Y-75968500D01*
D69*
X153670000Y-65864500D02*
X154966994Y-65864500D01*
X152654000Y-68326000D02*
X152146000Y-68834000D01*
D70*
X110309200Y-47805800D02*
X109855000Y-48260000D01*
X203505000Y-89865000D02*
X204470000Y-88900000D01*
X103124000Y-142240000D02*
X98425000Y-142240000D01*
D75*
X154810000Y-75968500D02*
X154660500Y-75819000D01*
D69*
X154966994Y-65864500D02*
X156464000Y-67361506D01*
D70*
X203632000Y-148754000D02*
X203632000Y-147142000D01*
D75*
X155771620Y-74155000D02*
X155956000Y-74155000D01*
D70*
X146775000Y-153900000D02*
X146775000Y-151421000D01*
X95072000Y-143854000D02*
X95072000Y-144704000D01*
X146775000Y-151421000D02*
X147955000Y-150241000D01*
D69*
X144018000Y-83820000D02*
X144018000Y-82042000D01*
D75*
X154660500Y-75819000D02*
X154660500Y-75266120D01*
D69*
X163703000Y-29845000D02*
X164592000Y-30734000D01*
X162750000Y-29845000D02*
X163703000Y-29845000D01*
D72*
X202359500Y-140891500D02*
X203454000Y-141986000D01*
D69*
X144018000Y-82042000D02*
X145288000Y-80772000D01*
D70*
X189324619Y-51819645D02*
X189324619Y-50259619D01*
X189324619Y-50259619D02*
X188595000Y-49530000D01*
X203505000Y-91350000D02*
X203505000Y-89865000D01*
D69*
X151612000Y-69876000D02*
X151612000Y-70388000D01*
D71*
X148463000Y-68834000D02*
X148612000Y-68983000D01*
X149112000Y-69483000D02*
X148463000Y-68834000D01*
X146812000Y-67589500D02*
X148336000Y-67589500D01*
X148336000Y-68707000D02*
X148463000Y-68834000D01*
X149112000Y-70388000D02*
X149112000Y-69483000D01*
X148612000Y-68983000D02*
X148612000Y-70388000D01*
X148336000Y-67589500D02*
X148336000Y-68707000D01*
D69*
X194970500Y-72413000D02*
X194993500Y-72390000D01*
X194970500Y-74168000D02*
X194970500Y-72413000D01*
D72*
X100369000Y-155575000D02*
X95072000Y-150278000D01*
X146775000Y-157100000D02*
X145250000Y-155575000D01*
X95072000Y-150278000D02*
X95072000Y-148754000D01*
X145250000Y-155575000D02*
X100369000Y-155575000D01*
D73*
X143310880Y-147320000D02*
X145314901Y-149324021D01*
X139700000Y-147320000D02*
X143310880Y-147320000D01*
X151102021Y-149324021D02*
X151675000Y-149897000D01*
X145314901Y-149324021D02*
X151102021Y-149324021D01*
X151675000Y-149897000D02*
X151675000Y-153900000D01*
D69*
X143129000Y-56235500D02*
X144884000Y-56235500D01*
X144884000Y-56235500D02*
X144907000Y-56212500D01*
X155907500Y-81153000D02*
X156161500Y-80899000D01*
X154584500Y-81153000D02*
X155907500Y-81153000D01*
X147193000Y-56134000D02*
X147193000Y-54865000D01*
X160020000Y-56435000D02*
X156798000Y-56435000D01*
X156798000Y-56435000D02*
X156718000Y-56515000D01*
X163757500Y-56435000D02*
X163830000Y-56362500D01*
X160020000Y-56435000D02*
X163757500Y-56435000D01*
D74*
X184150000Y-86360000D02*
X184912000Y-86360000D01*
X186690000Y-86360000D02*
X187198000Y-86360000D01*
D73*
X162417144Y-127000000D02*
X158750000Y-127000000D01*
X167936960Y-121480184D02*
X162417144Y-127000000D01*
X167386000Y-87598000D02*
X167936960Y-88148960D01*
X167936960Y-88148960D02*
X167936960Y-121480184D01*
X163836000Y-117664000D02*
X162120000Y-119380000D01*
X163386000Y-87598000D02*
X163836000Y-88048000D01*
X162120000Y-119380000D02*
X158750000Y-119380000D01*
X163836000Y-88048000D02*
X163836000Y-117664000D01*
X159936960Y-88148960D02*
X159936960Y-88423212D01*
X160937920Y-101952080D02*
X158750000Y-104140000D01*
X159936960Y-88423212D02*
X160937920Y-89424172D01*
X160937920Y-89424172D02*
X160937920Y-101952080D01*
X159386000Y-87598000D02*
X159936960Y-88148960D01*
X160752550Y-104256734D02*
X160752550Y-109757450D01*
X161386000Y-85598000D02*
X162436480Y-86648480D01*
X160752550Y-109757450D02*
X158750000Y-111760000D01*
X162436480Y-86648480D02*
X162436480Y-102572804D01*
X162436480Y-102572804D02*
X160752550Y-104256734D01*
X164335520Y-86547520D02*
X164335520Y-117914480D01*
X164335520Y-117914480D02*
X162370480Y-119879520D01*
X163386000Y-85598000D02*
X164335520Y-86547520D01*
X160790480Y-119879520D02*
X158750000Y-121920000D01*
X162370480Y-119879520D02*
X160790480Y-119879520D01*
X171987449Y-105974898D02*
X171987449Y-109757449D01*
X170436480Y-104423929D02*
X171987449Y-105974898D01*
X171987449Y-109757449D02*
X173990000Y-111760000D01*
X171386000Y-85598000D02*
X170436480Y-86547520D01*
X170436480Y-86547520D02*
X170436480Y-104423929D01*
X172271834Y-104140000D02*
X173990000Y-104140000D01*
X171935040Y-89323212D02*
X171935040Y-103803206D01*
X172835040Y-88423212D02*
X171935040Y-89323212D01*
X172835040Y-88148960D02*
X172835040Y-88423212D01*
X173386000Y-87598000D02*
X172835040Y-88148960D01*
X171935040Y-103803206D02*
X172271834Y-104140000D01*
X160250000Y-130580000D02*
X158750000Y-132080000D01*
X168935998Y-121894002D02*
X162830960Y-127999040D01*
X160250000Y-128746428D02*
X160250000Y-130580000D01*
X169386000Y-87598000D02*
X168936000Y-88048000D01*
X160997388Y-127999040D02*
X160250000Y-128746428D01*
X162830960Y-127999040D02*
X160997388Y-127999040D01*
X168936000Y-88048000D02*
X168935998Y-121894002D01*
X160000000Y-121376428D02*
X160000000Y-123210000D01*
X165386000Y-87598000D02*
X164835040Y-88148960D01*
X162577388Y-120379040D02*
X160997388Y-120379040D01*
X164835039Y-118121389D02*
X162577388Y-120379040D01*
X164835040Y-88148960D02*
X164835039Y-118121389D01*
X160000000Y-123210000D02*
X158750000Y-124460000D01*
X160997388Y-120379040D02*
X160000000Y-121376428D01*
X161936960Y-88148960D02*
X161936958Y-102365898D01*
X161936958Y-102365898D02*
X160253030Y-104049826D01*
X161386000Y-87598000D02*
X161936960Y-88148960D01*
X160253030Y-104049826D02*
X160253030Y-107716970D01*
X160253030Y-107716970D02*
X158750000Y-109220000D01*
X159386000Y-85598000D02*
X160602088Y-86814088D01*
X159753511Y-105676489D02*
X158750000Y-106680000D01*
X160436480Y-88216304D02*
X161437440Y-89217265D01*
X161437440Y-89217265D02*
X161437439Y-102158989D01*
X159753511Y-103842917D02*
X159753511Y-105676489D01*
X161437439Y-102158989D02*
X159753511Y-103842917D01*
X160436480Y-86979696D02*
X160436480Y-88216304D01*
X160602088Y-86814088D02*
X160436480Y-86979696D01*
X160790480Y-127499520D02*
X158750000Y-129540000D01*
X169386000Y-85598000D02*
X168436480Y-86547520D01*
X168436479Y-121687093D02*
X162624051Y-127499520D01*
X162624051Y-127499520D02*
X160790480Y-127499520D01*
X168436480Y-86547520D02*
X168436479Y-121687093D01*
X172335520Y-86648480D02*
X173386000Y-85598000D01*
X173990000Y-106564595D02*
X171435520Y-104010114D01*
X172335520Y-88216304D02*
X172335520Y-86648480D01*
X171435520Y-89116305D02*
X172335520Y-88216304D01*
X173990000Y-106680000D02*
X173990000Y-106564595D01*
X171435520Y-104010114D02*
X171435520Y-89116305D01*
X170936000Y-104217021D02*
X172486969Y-105767991D01*
X172486969Y-107716969D02*
X173990000Y-109220000D01*
X171386000Y-87598000D02*
X170936000Y-88048000D01*
X172486969Y-105767991D02*
X172486969Y-107716969D01*
X170936000Y-88048000D02*
X170936000Y-104217021D01*
D69*
X111800000Y-102235000D02*
X121412000Y-111847000D01*
X121412000Y-111847000D02*
X121412000Y-126492000D01*
X121412000Y-126492000D02*
X124460000Y-129540000D01*
X120904000Y-128524000D02*
X124460000Y-132080000D01*
X110013285Y-102235000D02*
X111537285Y-103759000D01*
X111537285Y-103759000D02*
X112687590Y-103759000D01*
X112687590Y-103759000D02*
X120904000Y-111975410D01*
X120904000Y-111975410D02*
X120904000Y-128524000D01*
X109300000Y-102235000D02*
X110013285Y-102235000D01*
X122428000Y-70104000D02*
X122428000Y-122428000D01*
X126615001Y-60067001D02*
X126615001Y-65916999D01*
X126615001Y-65916999D02*
X122428000Y-70104000D01*
X122428000Y-122428000D02*
X124460000Y-124460000D01*
X124460000Y-57912000D02*
X126615001Y-60067001D01*
X121920000Y-124460000D02*
X124460000Y-127000000D01*
X121920000Y-62992000D02*
X121920000Y-124460000D01*
X124460000Y-60452000D02*
X121920000Y-62992000D01*
X127000000Y-93345000D02*
X125095000Y-93345000D01*
X127922000Y-85598000D02*
X128772000Y-85598000D01*
X128996990Y-85822990D02*
X128996990Y-88206151D01*
X128996990Y-88206151D02*
X129471990Y-88681151D01*
X129471990Y-90873010D02*
X127000000Y-93345000D01*
X125095000Y-93345000D02*
X124460000Y-93980000D01*
X129471990Y-88681151D02*
X129471990Y-90873010D01*
X128772000Y-85598000D02*
X128996990Y-85822990D01*
X130372010Y-89464990D02*
X130847010Y-88989990D01*
X130847010Y-88989990D02*
X130847010Y-86523010D01*
X130372010Y-91245811D02*
X130372010Y-89464990D01*
X125439001Y-96178821D02*
X130372010Y-91245811D01*
X125439001Y-98080999D02*
X125439001Y-96178821D01*
X130847010Y-86523010D02*
X129922000Y-85598000D01*
X124460000Y-99060000D02*
X125439001Y-98080999D01*
X131922000Y-86064839D02*
X132996990Y-87139829D01*
X131922000Y-85598000D02*
X131922000Y-86064839D01*
X138775105Y-99060000D02*
X138556295Y-98841190D01*
X139700000Y-99060000D02*
X138775105Y-99060000D01*
X132996990Y-87139829D02*
X132996990Y-88800990D01*
X138556295Y-98841190D02*
X138556295Y-95250705D01*
X133985000Y-93345000D02*
X135578010Y-94938010D01*
X138243600Y-94938010D02*
X138556295Y-95250705D01*
X133985000Y-89789000D02*
X133985000Y-93345000D01*
X132996990Y-88800990D02*
X133985000Y-89789000D01*
X135578010Y-94938010D02*
X138243600Y-94938010D01*
X136142589Y-93980000D02*
X138775105Y-93980000D01*
X134931989Y-92769400D02*
X136142589Y-93980000D01*
X138775105Y-93980000D02*
X139700000Y-93980000D01*
X135072000Y-85598000D02*
X134931989Y-85738011D01*
X134931989Y-85738011D02*
X134931989Y-92769400D01*
X135922000Y-85598000D02*
X135072000Y-85598000D01*
X128546979Y-88222979D02*
X128546979Y-88392551D01*
X128546979Y-88392551D02*
X129021979Y-88867551D01*
X129021979Y-90624521D02*
X126809500Y-92837000D01*
X124460000Y-92075000D02*
X124460000Y-91440000D01*
X125222000Y-92837000D02*
X124460000Y-92075000D01*
X129021979Y-88867551D02*
X129021979Y-90624521D01*
X127922000Y-87598000D02*
X128546979Y-88222979D01*
X126809500Y-92837000D02*
X125222000Y-92837000D01*
X129922000Y-91059411D02*
X125115410Y-95866001D01*
X125113999Y-95866001D02*
X124460000Y-96520000D01*
X125115410Y-95866001D02*
X125113999Y-95866001D01*
X129922000Y-87598000D02*
X129922000Y-91059411D01*
X139700000Y-95758000D02*
X139700000Y-96520000D01*
X134481978Y-88157978D02*
X134481978Y-93079978D01*
X135890000Y-94488000D02*
X138430000Y-94488000D01*
X138430000Y-94488000D02*
X139700000Y-95758000D01*
X134481978Y-93079978D02*
X135890000Y-94488000D01*
X133922000Y-87598000D02*
X134481978Y-88157978D01*
X135382000Y-92583000D02*
X136271000Y-93472000D01*
X136271000Y-93472000D02*
X138430000Y-93472000D01*
X138430000Y-93472000D02*
X139700000Y-92202000D01*
X139700000Y-92202000D02*
X139700000Y-91440000D01*
X135922000Y-87598000D02*
X135382000Y-88138000D01*
X135382000Y-88138000D02*
X135382000Y-92583000D01*
X99568000Y-100838000D02*
X95250000Y-100838000D01*
X95250000Y-100838000D02*
X93726000Y-102362000D01*
X99568000Y-104648000D02*
X93980000Y-104648000D01*
X93980000Y-104648000D02*
X93726000Y-104902000D01*
X206239999Y-97273999D02*
X206239999Y-103386001D01*
X205573999Y-104052001D02*
X204724000Y-104902000D01*
D73*
X174679031Y-133584011D02*
X148062011Y-133584011D01*
X175494011Y-121649987D02*
X175494011Y-132769031D01*
D69*
X205740000Y-96774000D02*
X206239999Y-97273999D01*
D73*
X204724000Y-104902000D02*
X203523999Y-106102001D01*
X203523999Y-109978883D02*
X195265882Y-118237000D01*
X178906998Y-118237000D02*
X175494011Y-121649987D01*
X203523999Y-106102001D02*
X203523999Y-109978883D01*
D69*
X206239999Y-103386001D02*
X205573999Y-104052001D01*
D73*
X195265882Y-118237000D02*
X178906998Y-118237000D01*
X148062011Y-133584011D02*
X141478000Y-127000000D01*
X175494011Y-132769031D02*
X174679031Y-133584011D01*
X141478000Y-127000000D02*
X139700000Y-127000000D01*
X148324001Y-133084001D02*
X139700000Y-124460000D01*
X174471921Y-133084001D02*
X148324001Y-133084001D01*
D69*
X203454000Y-96774000D02*
X203454000Y-101092000D01*
D73*
X178689000Y-117729000D02*
X174994001Y-121423999D01*
X202946000Y-104140000D02*
X202946000Y-109849762D01*
X204724000Y-102362000D02*
X202946000Y-104140000D01*
X195066762Y-117729000D02*
X178689000Y-117729000D01*
X174994001Y-121423999D02*
X174994001Y-132561921D01*
X174994001Y-132561921D02*
X174471921Y-133084001D01*
D69*
X203454000Y-101092000D02*
X204724000Y-102362000D01*
D73*
X202946000Y-109849762D02*
X195066762Y-117729000D01*
D70*
X204851000Y-74958200D02*
X204851000Y-73482200D01*
X204851000Y-71958200D02*
X204851000Y-73482200D01*
D72*
X200992500Y-139065000D02*
X201041000Y-139016500D01*
X194437000Y-139065000D02*
X200992500Y-139065000D01*
X106641500Y-138724000D02*
X106680000Y-138762500D01*
X104140000Y-138724000D02*
X106641500Y-138724000D01*
X122857500Y-138762500D02*
X124460000Y-137160000D01*
X106680000Y-138762500D02*
X122857500Y-138762500D01*
D69*
X155005002Y-71755000D02*
X155956000Y-71755000D01*
X152387000Y-73813000D02*
X152947002Y-73813000D01*
X152947002Y-73813000D02*
X155005002Y-71755000D01*
X193395500Y-74168000D02*
X193395500Y-75121500D01*
X193395500Y-75121500D02*
X192621000Y-75896000D01*
X193903500Y-81534000D02*
X192278000Y-81534000D01*
D70*
X119380000Y-120904000D02*
X118110000Y-120904000D01*
D69*
X192278000Y-81534000D02*
X191516000Y-80772000D01*
D70*
X116840000Y-120904000D02*
X119380000Y-120904000D01*
X116840000Y-120904000D02*
X118110000Y-120904000D01*
D69*
X193626500Y-78881500D02*
X192621000Y-77876000D01*
X193626500Y-79756000D02*
X193626500Y-78881500D01*
X152036500Y-56690500D02*
X151231000Y-57496000D01*
X153035000Y-56690500D02*
X152036500Y-56690500D01*
X153846510Y-55627010D02*
X153035000Y-54815500D01*
X160020000Y-53935000D02*
X158327990Y-55627010D01*
X158327990Y-55627010D02*
X153846510Y-55627010D01*
D73*
X164888001Y-76411999D02*
X139700000Y-101600000D01*
D74*
X158750000Y-29845000D02*
X158750000Y-23245000D01*
D69*
X158750000Y-29845000D02*
X158750000Y-32766000D01*
D73*
X164888001Y-38904001D02*
X164888001Y-76411999D01*
X158750000Y-32766000D02*
X164888001Y-38904001D01*
D69*
X145798590Y-72513000D02*
X146612000Y-72513000D01*
X146612000Y-72513000D02*
X147337000Y-72513000D01*
X143789500Y-73914000D02*
X144397590Y-73914000D01*
X144397590Y-73914000D02*
X145798590Y-72513000D01*
X144526000Y-76962000D02*
X143789500Y-76962000D01*
X146825000Y-74663000D02*
X144526000Y-76962000D01*
X147337000Y-74663000D02*
X146825000Y-74663000D01*
X147337000Y-74163000D02*
X146588500Y-74163000D01*
X146588500Y-74163000D02*
X143789500Y-76962000D01*
D71*
X148336000Y-66014500D02*
X148336000Y-66167000D01*
X148336000Y-66167000D02*
X147574000Y-66929000D01*
D69*
X151638000Y-67739500D02*
X153670000Y-67739500D01*
X150612000Y-70388000D02*
X150612000Y-68765500D01*
X150612000Y-68765500D02*
X151638000Y-67739500D01*
D71*
X145288000Y-68453000D02*
X145542000Y-68707000D01*
X148112000Y-68991000D02*
X148112000Y-70388000D01*
X145288000Y-67589500D02*
X145288000Y-68453000D01*
X145542000Y-68707000D02*
X147828000Y-68707000D01*
X147828000Y-68707000D02*
X148112000Y-68991000D01*
X149612000Y-69590000D02*
X149612000Y-70388000D01*
X149860000Y-69342000D02*
X149612000Y-69590000D01*
X149860000Y-67589500D02*
X149860000Y-69342000D01*
D73*
X140831001Y-117348000D02*
X158242000Y-117348000D01*
X124460000Y-116840000D02*
X125730000Y-118110000D01*
X158242000Y-117348000D02*
X158750000Y-116840000D01*
X125730000Y-118110000D02*
X140069001Y-118110000D01*
X140069001Y-118110000D02*
X140831001Y-117348000D01*
X177546000Y-146812000D02*
X176034000Y-148324000D01*
X184150000Y-148844000D02*
X183388000Y-148844000D01*
D69*
X184150000Y-153343894D02*
X184150000Y-148844000D01*
D73*
X176034000Y-148324000D02*
X145784000Y-148324000D01*
X145784000Y-148324000D02*
X139700000Y-142240000D01*
X183388000Y-148844000D02*
X181356000Y-146812000D01*
X181356000Y-146812000D02*
X177546000Y-146812000D01*
D69*
X184150000Y-154051000D02*
X184150000Y-153343894D01*
X106680000Y-148844000D02*
X106680000Y-146558000D01*
X113030000Y-140208000D02*
X122428000Y-140208000D01*
X106680000Y-153924000D02*
X106680000Y-148844000D01*
X122428000Y-140208000D02*
X124460000Y-142240000D01*
X106680000Y-146558000D02*
X113030000Y-140208000D01*
X201930000Y-116840000D02*
X199644000Y-116840000D01*
D73*
X141478000Y-144780000D02*
X145522011Y-148824011D01*
X139700000Y-144780000D02*
X141478000Y-144780000D01*
X145522011Y-148824011D02*
X176459987Y-148824011D01*
X177836998Y-147447000D02*
X180975000Y-147447000D01*
X181610000Y-148082000D02*
X181610000Y-148844000D01*
X180975000Y-147447000D02*
X181610000Y-148082000D01*
X176459987Y-148824011D02*
X177836998Y-147447000D01*
D69*
X104140000Y-148336000D02*
X112776000Y-139700000D01*
X104140000Y-148844000D02*
X104140000Y-148336000D01*
X112776000Y-139700000D02*
X124460000Y-139700000D01*
D72*
X90551000Y-142533000D02*
X90551000Y-95744000D01*
X91872000Y-143854000D02*
X90551000Y-142533000D01*
X90551000Y-95744000D02*
X94945000Y-91350000D01*
X102497206Y-51819645D02*
X109125381Y-51819645D01*
X91948000Y-66889937D02*
X102497206Y-51819645D01*
X91948000Y-86247000D02*
X91948000Y-66889937D01*
X91745000Y-86450000D02*
X91948000Y-86247000D01*
X143394338Y-22349338D02*
X146775000Y-25730000D01*
X125775898Y-21108491D02*
X125952510Y-21035887D01*
X121896701Y-24119441D02*
X122013915Y-23968640D01*
X109314619Y-42080482D02*
X121670192Y-24429665D01*
X124102374Y-22022820D02*
X124261094Y-21916538D01*
X124584774Y-21713588D02*
X124749552Y-21617033D01*
X123556275Y-22426280D02*
X123639435Y-22360390D01*
X125600684Y-21184651D02*
X125775898Y-21108491D01*
X124749552Y-21617033D02*
X124916252Y-21523781D01*
X123791526Y-22244758D02*
X123945851Y-22132227D01*
X122013915Y-23968640D02*
X123556275Y-22426280D01*
X123945851Y-22132227D02*
X124102374Y-22022820D01*
X126310043Y-20901300D02*
X126490724Y-20839407D01*
X109314619Y-45970355D02*
X109314619Y-42080482D01*
X141884407Y-20839407D02*
X143394338Y-22349338D01*
X124261094Y-21916538D02*
X124421918Y-21813445D01*
X125255061Y-21347376D02*
X125427046Y-21264291D01*
X126490724Y-20839407D02*
X141884407Y-20839407D01*
X124916252Y-21523781D02*
X125084807Y-21433868D01*
X121782503Y-24272589D02*
X121896701Y-24119441D01*
X125952510Y-21035887D02*
X126130611Y-20966803D01*
X121670192Y-24429665D02*
X121782503Y-24272589D01*
X126130611Y-20966803D02*
X126310043Y-20901300D01*
X125427046Y-21264291D02*
X125600684Y-21184651D01*
X125084807Y-21433868D02*
X125255061Y-21347376D01*
X124421918Y-21813445D02*
X124584774Y-21713588D01*
X123639435Y-22360390D02*
X123791526Y-22244758D01*
X175933070Y-23251384D02*
X176064748Y-23389722D01*
X171721345Y-20726514D02*
X171904360Y-20781132D01*
X169845155Y-20385079D02*
X170035432Y-20402251D01*
X173492209Y-21433878D02*
X173660762Y-21523790D01*
X171537235Y-20675556D02*
X171721345Y-20726514D01*
X170414662Y-20447982D02*
X170603498Y-20476523D01*
X176680319Y-24119469D02*
X176794477Y-24272563D01*
X176193621Y-23530654D02*
X176319718Y-23674210D01*
X173992264Y-21713613D02*
X174155091Y-21813452D01*
X174937566Y-22360392D02*
X175087279Y-22479015D01*
X169079615Y-20354510D02*
X169272917Y-20356443D01*
X169463865Y-20362173D02*
X169654631Y-20371720D01*
X174474624Y-22022820D02*
X174631150Y-22132229D01*
X169272917Y-20356443D02*
X169463865Y-20362173D01*
X173321908Y-21347364D02*
X173492209Y-21433878D01*
X170979360Y-20544923D02*
X171166189Y-20584747D01*
X151675000Y-22530000D02*
X153850490Y-20354510D01*
X174785481Y-22244765D02*
X174937566Y-22360392D01*
X172446372Y-20966799D02*
X172624491Y-21035890D01*
X176906948Y-24429864D02*
X186563000Y-38224225D01*
X175379433Y-22725120D02*
X175521753Y-22852499D01*
X171352136Y-20628289D02*
X171537235Y-20675556D01*
X174315912Y-21916543D02*
X174474624Y-22022820D01*
X169654631Y-20371720D02*
X169845155Y-20385079D01*
X170225247Y-20423217D02*
X170414662Y-20447982D01*
X176563080Y-23968636D02*
X176680319Y-24119469D01*
X173660762Y-21523790D02*
X173827429Y-21617025D01*
X176064748Y-23389722D02*
X176193621Y-23530654D01*
X175798624Y-23115679D02*
X175933070Y-23251384D01*
X171166189Y-20584747D02*
X171352136Y-20628289D01*
X172976332Y-21184661D02*
X173149920Y-21264277D01*
X176794477Y-24272563D02*
X176906948Y-24429864D01*
X172624491Y-21035890D02*
X172801103Y-21108494D01*
X170603498Y-20476523D02*
X170791798Y-20508848D01*
X173149920Y-21264277D02*
X173321908Y-21347364D01*
X171904360Y-20781132D02*
X172086256Y-20839403D01*
X175521753Y-22852499D02*
X175661526Y-22982725D01*
X186563000Y-38224225D02*
X186563000Y-47756894D01*
X176442875Y-23820211D02*
X176563080Y-23968636D01*
X174155091Y-21813452D02*
X174315912Y-21916543D01*
X186563000Y-47756894D02*
X186514094Y-47805800D01*
X175234542Y-22600569D02*
X175379433Y-22725120D01*
X175661526Y-22982725D02*
X175798624Y-23115679D01*
X153850490Y-20354510D02*
X169079615Y-20354510D01*
X173827429Y-21617025D02*
X173992264Y-21713613D01*
X174631150Y-22132229D02*
X174785481Y-22244765D01*
X172086256Y-20839403D02*
X172266962Y-20901304D01*
X175087279Y-22479015D02*
X175234542Y-22600569D01*
X172266962Y-20901304D02*
X172446372Y-20966799D01*
X170791798Y-20508848D02*
X170979360Y-20544923D01*
X170035432Y-20402251D02*
X170225247Y-20423217D01*
X176319718Y-23674210D02*
X176442875Y-23820211D01*
X172801103Y-21108494D02*
X172976332Y-21184661D01*
X207874746Y-68876022D02*
X207955443Y-69045991D01*
X207703388Y-68541023D02*
X207790719Y-68707683D01*
X208771826Y-71930486D02*
X208792174Y-72117549D01*
X208367951Y-70096070D02*
X208424495Y-70275449D01*
X208307865Y-69917783D02*
X208367951Y-70096070D01*
X208792174Y-72117549D02*
X208808832Y-72304939D01*
X208838489Y-81116511D02*
X203505000Y-86450000D01*
X208424495Y-70275449D02*
X208477527Y-70456019D01*
X208615094Y-71003300D02*
X208653742Y-71187465D01*
X208526973Y-70637529D02*
X208572843Y-70820014D01*
X208477527Y-70456019D02*
X208526973Y-70637529D01*
X208821792Y-72492602D02*
X208831056Y-72680557D01*
X207518976Y-68213051D02*
X207612810Y-68376151D01*
X207218526Y-67735390D02*
X207321791Y-67892603D01*
X207790719Y-68707683D02*
X207874746Y-68876022D01*
X208836614Y-72868590D02*
X208838489Y-73058931D01*
X207955443Y-69045991D02*
X208032758Y-69217472D01*
X208808832Y-72304939D02*
X208821792Y-72492602D01*
X207421964Y-68051860D02*
X207518976Y-68213051D01*
X208572843Y-70820014D02*
X208615094Y-71003300D01*
X207110802Y-67578226D02*
X207218526Y-67735390D01*
X208177209Y-69564914D02*
X208244271Y-69740694D01*
X194794984Y-49984200D02*
X207110802Y-67578226D01*
X191945906Y-49984200D02*
X194794984Y-49984200D01*
X208106694Y-69390481D02*
X208177209Y-69564914D01*
X208653742Y-71187465D02*
X208688743Y-71372291D01*
X207321791Y-67892603D02*
X207421964Y-68051860D01*
X208838489Y-73058931D02*
X208838489Y-81116511D01*
X207612810Y-68376151D02*
X207703388Y-68541023D01*
X208688743Y-71372291D02*
X208720107Y-71557831D01*
X208720107Y-71557831D02*
X208747799Y-71743884D01*
X208831056Y-72680557D02*
X208836614Y-72868590D01*
X208244271Y-69740694D02*
X208307865Y-69917783D01*
X208747799Y-71743884D02*
X208771826Y-71930486D01*
X208032758Y-69217472D02*
X208106694Y-69390481D01*
X208838489Y-93483489D02*
X208838489Y-138647511D01*
X208838489Y-138647511D02*
X203632000Y-143854000D01*
X206705000Y-91350000D02*
X208838489Y-93483489D01*
G04 #@! TA.AperFunction,Conductor*
G36*
X112718121Y-112288002D02*
G01*
X112764614Y-112341658D01*
X112776000Y-112394000D01*
X112776000Y-116968000D01*
X112755998Y-117036121D01*
X112702342Y-117082614D01*
X112650000Y-117094000D01*
X110616000Y-117094000D01*
X110612653Y-117094360D01*
X110612649Y-117094360D01*
X110565374Y-117099442D01*
X110565367Y-117099443D01*
X110562010Y-117099804D01*
X110558710Y-117100522D01*
X110558709Y-117100522D01*
X110511322Y-117110830D01*
X110511315Y-117110832D01*
X110509668Y-117111190D01*
X110483445Y-117118384D01*
X110442680Y-117141597D01*
X110402702Y-117164362D01*
X110402698Y-117164365D01*
X110397324Y-117167425D01*
X110343668Y-117213918D01*
X110312227Y-117246502D01*
X110266291Y-117334319D01*
X110246289Y-117402440D01*
X110236000Y-117474000D01*
X110236000Y-119965985D01*
X110242411Y-120022691D01*
X110254971Y-120077530D01*
X110256141Y-120080862D01*
X110256144Y-120080872D01*
X110272703Y-120128025D01*
X110273879Y-120131373D01*
X110286394Y-120157263D01*
X110295722Y-120183750D01*
X110317271Y-120277088D01*
X110320500Y-120305432D01*
X110320500Y-121502568D01*
X110317271Y-121530912D01*
X110295722Y-121624251D01*
X110286394Y-121650738D01*
X110273879Y-121676628D01*
X110254971Y-121730470D01*
X110242411Y-121785309D01*
X110236000Y-121842015D01*
X110236000Y-122556000D01*
X110215998Y-122624121D01*
X110162342Y-122670614D01*
X110110000Y-122682000D01*
X105536000Y-122682000D01*
X105467879Y-122661998D01*
X105421386Y-122608342D01*
X105410000Y-122556000D01*
X105410000Y-122245886D01*
X105431235Y-122175884D01*
X105472839Y-122113620D01*
X105479734Y-122103301D01*
X105494500Y-122029067D01*
X105494499Y-119778934D01*
X105479734Y-119704699D01*
X105431235Y-119632116D01*
X105410000Y-119562114D01*
X105410000Y-113969659D01*
X105695500Y-113969659D01*
X105710493Y-114126806D01*
X105769823Y-114329042D01*
X105772573Y-114334381D01*
X105823180Y-114432640D01*
X105866324Y-114516410D01*
X105870028Y-114521125D01*
X105992808Y-114677432D01*
X105992812Y-114677436D01*
X105996514Y-114682149D01*
X106001044Y-114686080D01*
X106001045Y-114686081D01*
X106151165Y-114816350D01*
X106151170Y-114816354D01*
X106155696Y-114820281D01*
X106338126Y-114925819D01*
X106537222Y-114994957D01*
X106543155Y-114995817D01*
X106543158Y-114995818D01*
X106739860Y-115024338D01*
X106739863Y-115024338D01*
X106745800Y-115025199D01*
X106956333Y-115015455D01*
X106962157Y-115014051D01*
X106962160Y-115014051D01*
X107155393Y-114967482D01*
X107155395Y-114967481D01*
X107161226Y-114966076D01*
X107166684Y-114963594D01*
X107166688Y-114963593D01*
X107281294Y-114911484D01*
X107353084Y-114878843D01*
X107524986Y-114756904D01*
X107670728Y-114604660D01*
X107727710Y-114516410D01*
X107781800Y-114432640D01*
X107781801Y-114432637D01*
X107785052Y-114427603D01*
X107863834Y-114232122D01*
X107904229Y-114025271D01*
X107904500Y-114019730D01*
X107904500Y-113969659D01*
X108195500Y-113969659D01*
X108210493Y-114126806D01*
X108269823Y-114329042D01*
X108272573Y-114334381D01*
X108323180Y-114432640D01*
X108366324Y-114516410D01*
X108370028Y-114521125D01*
X108492808Y-114677432D01*
X108492812Y-114677436D01*
X108496514Y-114682149D01*
X108501044Y-114686080D01*
X108501045Y-114686081D01*
X108651165Y-114816350D01*
X108651170Y-114816354D01*
X108655696Y-114820281D01*
X108838126Y-114925819D01*
X109037222Y-114994957D01*
X109043155Y-114995817D01*
X109043158Y-114995818D01*
X109239860Y-115024338D01*
X109239863Y-115024338D01*
X109245800Y-115025199D01*
X109456333Y-115015455D01*
X109462157Y-115014051D01*
X109462160Y-115014051D01*
X109655393Y-114967482D01*
X109655395Y-114967481D01*
X109661226Y-114966076D01*
X109666684Y-114963594D01*
X109666688Y-114963593D01*
X109781294Y-114911484D01*
X109853084Y-114878843D01*
X110024986Y-114756904D01*
X110170728Y-114604660D01*
X110227710Y-114516410D01*
X110281800Y-114432640D01*
X110281801Y-114432637D01*
X110285052Y-114427603D01*
X110363834Y-114232122D01*
X110404229Y-114025271D01*
X110404500Y-114019730D01*
X110404500Y-113614341D01*
X110389507Y-113457194D01*
X110330177Y-113254958D01*
X110279415Y-113156397D01*
X110236422Y-113072921D01*
X110236420Y-113072918D01*
X110233676Y-113067590D01*
X110164355Y-112979340D01*
X110107192Y-112906568D01*
X110107188Y-112906564D01*
X110103486Y-112901851D01*
X110098955Y-112897919D01*
X109948835Y-112767650D01*
X109948830Y-112767646D01*
X109944304Y-112763719D01*
X109761874Y-112658181D01*
X109562778Y-112589043D01*
X109556845Y-112588183D01*
X109556842Y-112588182D01*
X109360140Y-112559662D01*
X109360137Y-112559662D01*
X109354200Y-112558801D01*
X109143667Y-112568545D01*
X109137843Y-112569949D01*
X109137840Y-112569949D01*
X108944607Y-112616518D01*
X108944605Y-112616519D01*
X108938774Y-112617924D01*
X108933316Y-112620406D01*
X108933312Y-112620407D01*
X108854562Y-112656213D01*
X108746916Y-112705157D01*
X108575014Y-112827096D01*
X108429272Y-112979340D01*
X108426021Y-112984375D01*
X108368848Y-113072921D01*
X108314948Y-113156397D01*
X108236166Y-113351878D01*
X108195771Y-113558729D01*
X108195500Y-113564270D01*
X108195500Y-113969659D01*
X107904500Y-113969659D01*
X107904500Y-113614341D01*
X107889507Y-113457194D01*
X107830177Y-113254958D01*
X107779415Y-113156397D01*
X107736422Y-113072921D01*
X107736420Y-113072918D01*
X107733676Y-113067590D01*
X107664355Y-112979340D01*
X107607192Y-112906568D01*
X107607188Y-112906564D01*
X107603486Y-112901851D01*
X107598955Y-112897919D01*
X107448835Y-112767650D01*
X107448830Y-112767646D01*
X107444304Y-112763719D01*
X107261874Y-112658181D01*
X107062778Y-112589043D01*
X107056845Y-112588183D01*
X107056842Y-112588182D01*
X106860140Y-112559662D01*
X106860137Y-112559662D01*
X106854200Y-112558801D01*
X106643667Y-112568545D01*
X106637843Y-112569949D01*
X106637840Y-112569949D01*
X106444607Y-112616518D01*
X106444605Y-112616519D01*
X106438774Y-112617924D01*
X106433316Y-112620406D01*
X106433312Y-112620407D01*
X106354562Y-112656213D01*
X106246916Y-112705157D01*
X106075014Y-112827096D01*
X105929272Y-112979340D01*
X105926021Y-112984375D01*
X105868848Y-113072921D01*
X105814948Y-113156397D01*
X105736166Y-113351878D01*
X105695771Y-113558729D01*
X105695500Y-113564270D01*
X105695500Y-113969659D01*
X105410000Y-113969659D01*
X105410000Y-112394000D01*
X105430002Y-112325879D01*
X105483658Y-112279386D01*
X105536000Y-112268000D01*
X112650000Y-112268000D01*
X112718121Y-112288002D01*
G37*
G04 #@! TD.AperFunction*
G04 #@! TA.AperFunction,Conductor*
G36*
X120466621Y-112288002D02*
G01*
X120513114Y-112341658D01*
X120524500Y-112394000D01*
X120524500Y-119546908D01*
X120504498Y-119615029D01*
X120450842Y-119661522D01*
X120380568Y-119671626D01*
X120343661Y-119660348D01*
X120205261Y-119593442D01*
X120205255Y-119593440D01*
X120198915Y-119590375D01*
X120121503Y-119572503D01*
X120028251Y-119550974D01*
X120028248Y-119550974D01*
X120023052Y-119549774D01*
X120018300Y-119549500D01*
X118741698Y-119549500D01*
X117478332Y-119549501D01*
X117478311Y-119549501D01*
X117478300Y-119549500D01*
X116201700Y-119549500D01*
X116196948Y-119549774D01*
X116191752Y-119550974D01*
X116191749Y-119550974D01*
X116098497Y-119572503D01*
X116021085Y-119590375D01*
X116014742Y-119593441D01*
X116014743Y-119593441D01*
X115864931Y-119665863D01*
X115864927Y-119665866D01*
X115858588Y-119668930D01*
X115853084Y-119673324D01*
X115853079Y-119673327D01*
X115723036Y-119777140D01*
X115717533Y-119781533D01*
X115713140Y-119787036D01*
X115609327Y-119917079D01*
X115609324Y-119917084D01*
X115604930Y-119922588D01*
X115601866Y-119928927D01*
X115601863Y-119928931D01*
X115557440Y-120020824D01*
X115526375Y-120085085D01*
X115485774Y-120260948D01*
X115485500Y-120265700D01*
X115485500Y-121542300D01*
X115485774Y-121547052D01*
X115526375Y-121722915D01*
X115529441Y-121729257D01*
X115601863Y-121879069D01*
X115601866Y-121879073D01*
X115604930Y-121885412D01*
X115609324Y-121890916D01*
X115609327Y-121890921D01*
X115695500Y-121998867D01*
X115717533Y-122026467D01*
X115723036Y-122030860D01*
X115853079Y-122134673D01*
X115853084Y-122134676D01*
X115858588Y-122139070D01*
X115864927Y-122142134D01*
X115864931Y-122142137D01*
X115910331Y-122164084D01*
X116021085Y-122217625D01*
X116098497Y-122235497D01*
X116191749Y-122257026D01*
X116191752Y-122257026D01*
X116196948Y-122258226D01*
X116201700Y-122258500D01*
X117478302Y-122258500D01*
X118741668Y-122258499D01*
X118741689Y-122258499D01*
X118741700Y-122258500D01*
X120018300Y-122258500D01*
X120023052Y-122258226D01*
X120028248Y-122257026D01*
X120028251Y-122257026D01*
X120121503Y-122235497D01*
X120198915Y-122217625D01*
X120205255Y-122214560D01*
X120205261Y-122214558D01*
X120343661Y-122147652D01*
X120413696Y-122136012D01*
X120478908Y-122164084D01*
X120518590Y-122222955D01*
X120524500Y-122261092D01*
X120524500Y-122556000D01*
X120504498Y-122624121D01*
X120450842Y-122670614D01*
X120398500Y-122682000D01*
X110616000Y-122682000D01*
X110547879Y-122661998D01*
X110501386Y-122608342D01*
X110490000Y-122556000D01*
X110490000Y-121842015D01*
X110502560Y-121787176D01*
X110530559Y-121729257D01*
X110533625Y-121722915D01*
X110574226Y-121547052D01*
X110574500Y-121542300D01*
X110574500Y-120265700D01*
X110574226Y-120260948D01*
X110533625Y-120085085D01*
X110502560Y-120020824D01*
X110490000Y-119965985D01*
X110490000Y-117474000D01*
X110510002Y-117405879D01*
X110563658Y-117359386D01*
X110616000Y-117348000D01*
X113030000Y-117348000D01*
X113030000Y-112394000D01*
X113050002Y-112325879D01*
X113103658Y-112279386D01*
X113156000Y-112268000D01*
X120398500Y-112268000D01*
X120466621Y-112288002D01*
G37*
G04 #@! TD.AperFunction*
G04 #@! TA.AperFunction,Conductor*
G36*
X187775121Y-118661502D02*
G01*
X187821614Y-118715158D01*
X187833000Y-118767500D01*
X187833000Y-127762000D01*
X192660000Y-127762000D01*
X192728121Y-127782002D01*
X192774614Y-127835658D01*
X192786000Y-127888000D01*
X192786000Y-134494000D01*
X192765998Y-134562121D01*
X192712342Y-134608614D01*
X192660000Y-134620000D01*
X183006000Y-134620000D01*
X182937879Y-134599998D01*
X182891386Y-134546342D01*
X182880000Y-134494000D01*
X182880000Y-133869738D01*
X182900002Y-133801617D01*
X182953658Y-133755124D01*
X183023932Y-133745020D01*
X183088512Y-133774514D01*
X183118014Y-133812042D01*
X183122324Y-133820410D01*
X183126028Y-133825125D01*
X183248808Y-133981432D01*
X183248812Y-133981436D01*
X183252514Y-133986149D01*
X183257044Y-133990080D01*
X183257045Y-133990081D01*
X183407165Y-134120350D01*
X183407170Y-134120354D01*
X183411696Y-134124281D01*
X183594126Y-134229819D01*
X183793222Y-134298957D01*
X183799155Y-134299817D01*
X183799158Y-134299818D01*
X183995860Y-134328338D01*
X183995863Y-134328338D01*
X184001800Y-134329199D01*
X184212333Y-134319455D01*
X184218157Y-134318051D01*
X184218160Y-134318051D01*
X184411393Y-134271482D01*
X184411395Y-134271481D01*
X184417226Y-134270076D01*
X184422684Y-134267594D01*
X184422688Y-134267593D01*
X184537294Y-134215484D01*
X184609084Y-134182843D01*
X184780986Y-134060904D01*
X184926728Y-133908660D01*
X184983710Y-133820410D01*
X185037800Y-133736640D01*
X185037801Y-133736637D01*
X185041052Y-133731603D01*
X185119834Y-133536122D01*
X185160229Y-133329271D01*
X185160500Y-133323730D01*
X185160500Y-133273659D01*
X185451500Y-133273659D01*
X185466493Y-133430806D01*
X185525823Y-133633042D01*
X185528573Y-133638381D01*
X185618015Y-133812043D01*
X185622324Y-133820410D01*
X185626028Y-133825125D01*
X185748808Y-133981432D01*
X185748812Y-133981436D01*
X185752514Y-133986149D01*
X185757044Y-133990080D01*
X185757045Y-133990081D01*
X185907165Y-134120350D01*
X185907170Y-134120354D01*
X185911696Y-134124281D01*
X186094126Y-134229819D01*
X186293222Y-134298957D01*
X186299155Y-134299817D01*
X186299158Y-134299818D01*
X186495860Y-134328338D01*
X186495863Y-134328338D01*
X186501800Y-134329199D01*
X186712333Y-134319455D01*
X186718157Y-134318051D01*
X186718160Y-134318051D01*
X186911393Y-134271482D01*
X186911395Y-134271481D01*
X186917226Y-134270076D01*
X186922684Y-134267594D01*
X186922688Y-134267593D01*
X187037294Y-134215484D01*
X187109084Y-134182843D01*
X187280986Y-134060904D01*
X187426728Y-133908660D01*
X187483710Y-133820410D01*
X187537800Y-133736640D01*
X187537801Y-133736637D01*
X187541052Y-133731603D01*
X187619834Y-133536122D01*
X187660229Y-133329271D01*
X187660500Y-133323730D01*
X187660500Y-133273659D01*
X187951500Y-133273659D01*
X187966493Y-133430806D01*
X188025823Y-133633042D01*
X188028573Y-133638381D01*
X188118015Y-133812043D01*
X188122324Y-133820410D01*
X188126028Y-133825125D01*
X188248808Y-133981432D01*
X188248812Y-133981436D01*
X188252514Y-133986149D01*
X188257044Y-133990080D01*
X188257045Y-133990081D01*
X188407165Y-134120350D01*
X188407170Y-134120354D01*
X188411696Y-134124281D01*
X188594126Y-134229819D01*
X188793222Y-134298957D01*
X188799155Y-134299817D01*
X188799158Y-134299818D01*
X188995860Y-134328338D01*
X188995863Y-134328338D01*
X189001800Y-134329199D01*
X189212333Y-134319455D01*
X189218157Y-134318051D01*
X189218160Y-134318051D01*
X189411393Y-134271482D01*
X189411395Y-134271481D01*
X189417226Y-134270076D01*
X189422684Y-134267594D01*
X189422688Y-134267593D01*
X189537294Y-134215484D01*
X189609084Y-134182843D01*
X189780986Y-134060904D01*
X189926728Y-133908660D01*
X189983710Y-133820410D01*
X190037800Y-133736640D01*
X190037801Y-133736637D01*
X190041052Y-133731603D01*
X190119834Y-133536122D01*
X190160229Y-133329271D01*
X190160500Y-133323730D01*
X190160500Y-132918341D01*
X190145507Y-132761194D01*
X190086177Y-132558958D01*
X190035415Y-132460397D01*
X189992422Y-132376921D01*
X189992420Y-132376918D01*
X189989676Y-132371590D01*
X189920355Y-132283340D01*
X189863192Y-132210568D01*
X189863188Y-132210564D01*
X189859486Y-132205851D01*
X189854955Y-132201919D01*
X189704835Y-132071650D01*
X189704830Y-132071646D01*
X189700304Y-132067719D01*
X189517874Y-131962181D01*
X189318778Y-131893043D01*
X189312845Y-131892183D01*
X189312842Y-131892182D01*
X189116140Y-131863662D01*
X189116137Y-131863662D01*
X189110200Y-131862801D01*
X188899667Y-131872545D01*
X188893843Y-131873949D01*
X188893840Y-131873949D01*
X188700607Y-131920518D01*
X188700605Y-131920519D01*
X188694774Y-131921924D01*
X188689316Y-131924406D01*
X188689312Y-131924407D01*
X188610562Y-131960213D01*
X188502916Y-132009157D01*
X188331014Y-132131096D01*
X188185272Y-132283340D01*
X188182021Y-132288375D01*
X188081907Y-132443425D01*
X188070948Y-132460397D01*
X187992166Y-132655878D01*
X187951771Y-132862729D01*
X187951500Y-132868270D01*
X187951500Y-133273659D01*
X187660500Y-133273659D01*
X187660500Y-132918341D01*
X187645507Y-132761194D01*
X187586177Y-132558958D01*
X187535415Y-132460397D01*
X187492422Y-132376921D01*
X187492420Y-132376918D01*
X187489676Y-132371590D01*
X187420355Y-132283340D01*
X187363192Y-132210568D01*
X187363188Y-132210564D01*
X187359486Y-132205851D01*
X187354955Y-132201919D01*
X187204835Y-132071650D01*
X187204830Y-132071646D01*
X187200304Y-132067719D01*
X187017874Y-131962181D01*
X186818778Y-131893043D01*
X186812845Y-131892183D01*
X186812842Y-131892182D01*
X186616140Y-131863662D01*
X186616137Y-131863662D01*
X186610200Y-131862801D01*
X186399667Y-131872545D01*
X186393843Y-131873949D01*
X186393840Y-131873949D01*
X186200607Y-131920518D01*
X186200605Y-131920519D01*
X186194774Y-131921924D01*
X186189316Y-131924406D01*
X186189312Y-131924407D01*
X186110562Y-131960213D01*
X186002916Y-132009157D01*
X185831014Y-132131096D01*
X185685272Y-132283340D01*
X185682021Y-132288375D01*
X185581907Y-132443425D01*
X185570948Y-132460397D01*
X185492166Y-132655878D01*
X185451771Y-132862729D01*
X185451500Y-132868270D01*
X185451500Y-133273659D01*
X185160500Y-133273659D01*
X185160500Y-132918341D01*
X185145507Y-132761194D01*
X185086177Y-132558958D01*
X185035415Y-132460397D01*
X184992422Y-132376921D01*
X184992420Y-132376918D01*
X184989676Y-132371590D01*
X184920355Y-132283340D01*
X184863192Y-132210568D01*
X184863188Y-132210564D01*
X184859486Y-132205851D01*
X184854955Y-132201919D01*
X184704835Y-132071650D01*
X184704830Y-132071646D01*
X184700304Y-132067719D01*
X184517874Y-131962181D01*
X184318778Y-131893043D01*
X184312845Y-131892183D01*
X184312842Y-131892182D01*
X184116140Y-131863662D01*
X184116137Y-131863662D01*
X184110200Y-131862801D01*
X183899667Y-131872545D01*
X183893843Y-131873949D01*
X183893840Y-131873949D01*
X183700607Y-131920518D01*
X183700605Y-131920519D01*
X183694774Y-131921924D01*
X183689316Y-131924406D01*
X183689312Y-131924407D01*
X183610562Y-131960213D01*
X183502916Y-132009157D01*
X183331014Y-132131096D01*
X183185272Y-132283340D01*
X183182021Y-132288375D01*
X183182017Y-132288380D01*
X183111852Y-132397047D01*
X183058097Y-132443425D01*
X182987801Y-132453379D01*
X182923284Y-132423748D01*
X182885028Y-132363940D01*
X182880000Y-132328700D01*
X182880000Y-122245886D01*
X182901235Y-122175884D01*
X182942839Y-122113620D01*
X182949734Y-122103301D01*
X182964500Y-122029067D01*
X182964499Y-119778934D01*
X182949734Y-119704699D01*
X182901235Y-119632116D01*
X182880000Y-119562114D01*
X182880000Y-118767500D01*
X182900002Y-118699379D01*
X182953658Y-118652886D01*
X183006000Y-118641500D01*
X187707000Y-118641500D01*
X187775121Y-118661502D01*
G37*
G04 #@! TD.AperFunction*
G04 #@! TA.AperFunction,Conductor*
G36*
X198062121Y-118130002D02*
G01*
X198108614Y-118183658D01*
X198120000Y-118236000D01*
X198120000Y-119637499D01*
X198099998Y-119705620D01*
X198046342Y-119752113D01*
X197976068Y-119762217D01*
X197915391Y-119735970D01*
X197877660Y-119705849D01*
X197831412Y-119668930D01*
X197825073Y-119665866D01*
X197825069Y-119665863D01*
X197675257Y-119593441D01*
X197675258Y-119593441D01*
X197668915Y-119590375D01*
X197546503Y-119562114D01*
X197498251Y-119550974D01*
X197498248Y-119550974D01*
X197493052Y-119549774D01*
X197488300Y-119549500D01*
X196211698Y-119549500D01*
X194948332Y-119549501D01*
X194948311Y-119549501D01*
X194948300Y-119549500D01*
X193671700Y-119549500D01*
X193666948Y-119549774D01*
X193661752Y-119550974D01*
X193661749Y-119550974D01*
X193613497Y-119562114D01*
X193491085Y-119590375D01*
X193484742Y-119593441D01*
X193484743Y-119593441D01*
X193334931Y-119665863D01*
X193334927Y-119665866D01*
X193328588Y-119668930D01*
X193323084Y-119673324D01*
X193323079Y-119673327D01*
X193211730Y-119762217D01*
X193187533Y-119781533D01*
X193183140Y-119787036D01*
X193079327Y-119917079D01*
X193079324Y-119917084D01*
X193074930Y-119922588D01*
X193071866Y-119928927D01*
X193071863Y-119928931D01*
X193011124Y-120054575D01*
X192996375Y-120085085D01*
X192955774Y-120260948D01*
X192955500Y-120265700D01*
X192955500Y-121542300D01*
X192955774Y-121547052D01*
X192996375Y-121722915D01*
X192999441Y-121729257D01*
X193071863Y-121879069D01*
X193071866Y-121879073D01*
X193074930Y-121885412D01*
X193079324Y-121890916D01*
X193079327Y-121890921D01*
X193169636Y-122004048D01*
X193187533Y-122026467D01*
X193193036Y-122030860D01*
X193323079Y-122134673D01*
X193323084Y-122134676D01*
X193328588Y-122139070D01*
X193334927Y-122142134D01*
X193334931Y-122142137D01*
X193460575Y-122202876D01*
X193491085Y-122217625D01*
X193568497Y-122235497D01*
X193661749Y-122257026D01*
X193661752Y-122257026D01*
X193666948Y-122258226D01*
X193671700Y-122258500D01*
X194948302Y-122258500D01*
X196211668Y-122258499D01*
X196211689Y-122258499D01*
X196211700Y-122258500D01*
X197488300Y-122258500D01*
X197493052Y-122258226D01*
X197498248Y-122257026D01*
X197498251Y-122257026D01*
X197591503Y-122235497D01*
X197668915Y-122217625D01*
X197699425Y-122202876D01*
X197825069Y-122142137D01*
X197825073Y-122142134D01*
X197831412Y-122139070D01*
X197915392Y-122072030D01*
X197981107Y-122045162D01*
X198050917Y-122058089D01*
X198102656Y-122106706D01*
X198120000Y-122170501D01*
X198120000Y-134494000D01*
X198099998Y-134562121D01*
X198046342Y-134608614D01*
X197994000Y-134620000D01*
X193166000Y-134620000D01*
X193097879Y-134599998D01*
X193051386Y-134546342D01*
X193040000Y-134494000D01*
X193040000Y-127888000D01*
X193034196Y-127834010D01*
X193022810Y-127781668D01*
X193015616Y-127755445D01*
X192992403Y-127714680D01*
X192969638Y-127674702D01*
X192969635Y-127674698D01*
X192966575Y-127669324D01*
X192920082Y-127615668D01*
X192887498Y-127584227D01*
X192799681Y-127538291D01*
X192731560Y-127518289D01*
X192727101Y-127517648D01*
X192727097Y-127517647D01*
X192695780Y-127513144D01*
X192660000Y-127508000D01*
X188213000Y-127508000D01*
X188144879Y-127487998D01*
X188098386Y-127434342D01*
X188087000Y-127382000D01*
X188087000Y-118767500D01*
X188107002Y-118699379D01*
X188160658Y-118652886D01*
X188213000Y-118641500D01*
X195329948Y-118641500D01*
X195339380Y-118638435D01*
X195339382Y-118638435D01*
X195351169Y-118634605D01*
X195370395Y-118629989D01*
X195382644Y-118628049D01*
X195392437Y-118626498D01*
X195412321Y-118616366D01*
X195430587Y-118608801D01*
X195442378Y-118604970D01*
X195451811Y-118601905D01*
X195469871Y-118588784D01*
X195486728Y-118578454D01*
X195506605Y-118568326D01*
X195529393Y-118545538D01*
X195529397Y-118545535D01*
X195928027Y-118146905D01*
X195990339Y-118112879D01*
X196017122Y-118110000D01*
X197994000Y-118110000D01*
X198062121Y-118130002D01*
G37*
G04 #@! TD.AperFunction*
G04 #@! TA.AperFunction,Conductor*
G36*
X187775121Y-82570002D02*
G01*
X187821614Y-82623658D01*
X187833000Y-82676000D01*
X187833000Y-91694000D01*
X192914000Y-91694000D01*
X192982121Y-91714002D01*
X193028614Y-91767658D01*
X193040000Y-91820000D01*
X193040000Y-99696000D01*
X193019998Y-99764121D01*
X192966342Y-99810614D01*
X192914000Y-99822000D01*
X188086000Y-99822000D01*
X188017879Y-99801998D01*
X187971386Y-99748342D01*
X187960000Y-99696000D01*
X187960000Y-98041780D01*
X187980002Y-97973659D01*
X188033658Y-97927166D01*
X188103932Y-97917062D01*
X188168512Y-97946556D01*
X188206896Y-98006282D01*
X188211430Y-98029813D01*
X188220493Y-98124806D01*
X188279823Y-98327042D01*
X188282573Y-98332381D01*
X188333180Y-98430640D01*
X188376324Y-98514410D01*
X188380028Y-98519125D01*
X188502808Y-98675432D01*
X188502812Y-98675436D01*
X188506514Y-98680149D01*
X188511044Y-98684080D01*
X188511045Y-98684081D01*
X188661165Y-98814350D01*
X188661170Y-98814354D01*
X188665696Y-98818281D01*
X188848126Y-98923819D01*
X189047222Y-98992957D01*
X189053155Y-98993817D01*
X189053158Y-98993818D01*
X189249860Y-99022338D01*
X189249863Y-99022338D01*
X189255800Y-99023199D01*
X189466333Y-99013455D01*
X189472157Y-99012051D01*
X189472160Y-99012051D01*
X189665393Y-98965482D01*
X189665395Y-98965481D01*
X189671226Y-98964076D01*
X189676684Y-98961594D01*
X189676688Y-98961593D01*
X189791294Y-98909484D01*
X189863084Y-98876843D01*
X190034986Y-98754904D01*
X190180728Y-98602660D01*
X190237710Y-98514410D01*
X190291800Y-98430640D01*
X190291801Y-98430637D01*
X190295052Y-98425603D01*
X190373834Y-98230122D01*
X190400045Y-98095901D01*
X190413361Y-98027717D01*
X190413361Y-98027714D01*
X190414229Y-98023271D01*
X190414500Y-98017730D01*
X190414500Y-97612341D01*
X190399507Y-97455194D01*
X190340177Y-97252958D01*
X190289415Y-97154397D01*
X190246422Y-97070921D01*
X190246420Y-97070918D01*
X190243676Y-97065590D01*
X190174355Y-96977340D01*
X190117192Y-96904568D01*
X190117188Y-96904564D01*
X190113486Y-96899851D01*
X190108955Y-96895919D01*
X189958835Y-96765650D01*
X189958830Y-96765646D01*
X189954304Y-96761719D01*
X189771874Y-96656181D01*
X189572778Y-96587043D01*
X189566845Y-96586183D01*
X189566842Y-96586182D01*
X189370140Y-96557662D01*
X189370137Y-96557662D01*
X189364200Y-96556801D01*
X189153667Y-96566545D01*
X189147843Y-96567949D01*
X189147840Y-96567949D01*
X188954607Y-96614518D01*
X188954605Y-96614519D01*
X188948774Y-96615924D01*
X188943316Y-96618406D01*
X188943312Y-96618407D01*
X188864562Y-96654213D01*
X188756916Y-96703157D01*
X188585014Y-96825096D01*
X188439272Y-96977340D01*
X188436021Y-96982375D01*
X188378848Y-97070921D01*
X188324948Y-97154397D01*
X188246166Y-97349878D01*
X188224432Y-97461171D01*
X188209664Y-97536794D01*
X188176976Y-97599818D01*
X188115404Y-97635165D01*
X188044497Y-97631612D01*
X187986766Y-97590288D01*
X187960541Y-97524313D01*
X187960000Y-97512644D01*
X187960000Y-96520000D01*
X183006000Y-96520000D01*
X182937879Y-96499998D01*
X182891386Y-96446342D01*
X182880000Y-96394000D01*
X182880000Y-87701886D01*
X182901235Y-87631884D01*
X182942839Y-87569620D01*
X182949734Y-87559301D01*
X182964500Y-87485067D01*
X182964499Y-85234934D01*
X182949734Y-85160699D01*
X182901235Y-85088116D01*
X182880000Y-85018114D01*
X182880000Y-82676000D01*
X182900002Y-82607879D01*
X182953658Y-82561386D01*
X183006000Y-82550000D01*
X187707000Y-82550000D01*
X187775121Y-82570002D01*
G37*
G04 #@! TD.AperFunction*
G04 #@! TA.AperFunction,Conductor*
G36*
X198062121Y-82570002D02*
G01*
X198108614Y-82623658D01*
X198120000Y-82676000D01*
X198120000Y-85093499D01*
X198099998Y-85161620D01*
X198046342Y-85208113D01*
X197976068Y-85218217D01*
X197915391Y-85191970D01*
X197877660Y-85161849D01*
X197831412Y-85124930D01*
X197825073Y-85121866D01*
X197825069Y-85121863D01*
X197675257Y-85049441D01*
X197675258Y-85049441D01*
X197668915Y-85046375D01*
X197546503Y-85018114D01*
X197498251Y-85006974D01*
X197498248Y-85006974D01*
X197493052Y-85005774D01*
X197488300Y-85005500D01*
X196211698Y-85005500D01*
X194948332Y-85005501D01*
X194948311Y-85005501D01*
X194948300Y-85005500D01*
X193671700Y-85005500D01*
X193666948Y-85005774D01*
X193661752Y-85006974D01*
X193661749Y-85006974D01*
X193613497Y-85018114D01*
X193491085Y-85046375D01*
X193484742Y-85049441D01*
X193484743Y-85049441D01*
X193334931Y-85121863D01*
X193334927Y-85121866D01*
X193328588Y-85124930D01*
X193323084Y-85129324D01*
X193323079Y-85129327D01*
X193211730Y-85218217D01*
X193187533Y-85237533D01*
X193183140Y-85243036D01*
X193079327Y-85373079D01*
X193079324Y-85373084D01*
X193074930Y-85378588D01*
X193071866Y-85384927D01*
X193071863Y-85384931D01*
X193011124Y-85510575D01*
X192996375Y-85541085D01*
X192955774Y-85716948D01*
X192955500Y-85721700D01*
X192955500Y-86998300D01*
X192955774Y-87003052D01*
X192996375Y-87178915D01*
X192999441Y-87185257D01*
X193071863Y-87335069D01*
X193071866Y-87335073D01*
X193074930Y-87341412D01*
X193079324Y-87346916D01*
X193079327Y-87346921D01*
X193169636Y-87460048D01*
X193187533Y-87482467D01*
X193193036Y-87486860D01*
X193323079Y-87590673D01*
X193323084Y-87590676D01*
X193328588Y-87595070D01*
X193334927Y-87598134D01*
X193334931Y-87598137D01*
X193460575Y-87658876D01*
X193491085Y-87673625D01*
X193568497Y-87691497D01*
X193661749Y-87713026D01*
X193661752Y-87713026D01*
X193666948Y-87714226D01*
X193671700Y-87714500D01*
X194948302Y-87714500D01*
X196211668Y-87714499D01*
X196211689Y-87714499D01*
X196211700Y-87714500D01*
X197488300Y-87714500D01*
X197493052Y-87714226D01*
X197498248Y-87713026D01*
X197498251Y-87713026D01*
X197591503Y-87691497D01*
X197668915Y-87673625D01*
X197699425Y-87658876D01*
X197825069Y-87598137D01*
X197825073Y-87598134D01*
X197831412Y-87595070D01*
X197915392Y-87528030D01*
X197981107Y-87501162D01*
X198050917Y-87514089D01*
X198102656Y-87562706D01*
X198120000Y-87626501D01*
X198120000Y-99696000D01*
X198099998Y-99764121D01*
X198046342Y-99810614D01*
X197994000Y-99822000D01*
X193420000Y-99822000D01*
X193351879Y-99801998D01*
X193305386Y-99748342D01*
X193294000Y-99696000D01*
X193294000Y-91820000D01*
X193288196Y-91766010D01*
X193276810Y-91713668D01*
X193269616Y-91687445D01*
X193246403Y-91646680D01*
X193223638Y-91606702D01*
X193223635Y-91606698D01*
X193220575Y-91601324D01*
X193174082Y-91547668D01*
X193141498Y-91516227D01*
X193053681Y-91470291D01*
X192985560Y-91450289D01*
X192981101Y-91449648D01*
X192981097Y-91449647D01*
X192949780Y-91445144D01*
X192914000Y-91440000D01*
X188213000Y-91440000D01*
X188144879Y-91419998D01*
X188098386Y-91366342D01*
X188087000Y-91314000D01*
X188087000Y-82676000D01*
X188107002Y-82607879D01*
X188160658Y-82561386D01*
X188213000Y-82550000D01*
X197994000Y-82550000D01*
X198062121Y-82570002D01*
G37*
G04 #@! TD.AperFunction*
G04 #@! TA.AperFunction,Conductor*
G36*
X156953694Y-44468306D02*
G01*
X156972000Y-44512500D01*
X156972000Y-55185010D01*
X156953694Y-55229204D01*
X156909500Y-55247510D01*
X156379000Y-55247510D01*
X156334806Y-55229204D01*
X156316500Y-55185010D01*
X156325540Y-55152633D01*
X156327162Y-55149954D01*
X156329219Y-55147264D01*
X156407682Y-54979000D01*
X156448182Y-54797812D01*
X156448500Y-54792124D01*
X156448500Y-53455615D01*
X156433488Y-53317427D01*
X156374270Y-53141465D01*
X156325201Y-53059799D01*
X156280393Y-52985225D01*
X156280391Y-52985223D01*
X156278649Y-52982323D01*
X156151084Y-52847428D01*
X156148284Y-52845525D01*
X156000325Y-52744972D01*
X156000324Y-52744971D01*
X155997529Y-52743072D01*
X155900850Y-52704403D01*
X155828291Y-52675381D01*
X155828287Y-52675380D01*
X155825147Y-52674124D01*
X155821812Y-52673572D01*
X155821809Y-52673571D01*
X155645322Y-52644354D01*
X155645321Y-52644354D01*
X155641981Y-52643801D01*
X155638600Y-52643978D01*
X155638596Y-52643978D01*
X155506787Y-52650886D01*
X155456576Y-52653518D01*
X155453318Y-52654415D01*
X155453314Y-52654416D01*
X155322100Y-52690559D01*
X155277583Y-52702821D01*
X155113352Y-52789410D01*
X154971546Y-52909245D01*
X154858781Y-53056736D01*
X154780318Y-53225000D01*
X154739818Y-53406188D01*
X154739500Y-53411876D01*
X154739500Y-54748385D01*
X154754512Y-54886573D01*
X154813730Y-55062535D01*
X154815470Y-55065430D01*
X154815470Y-55065431D01*
X154867978Y-55152820D01*
X154875048Y-55200130D01*
X154846595Y-55238583D01*
X154814405Y-55247510D01*
X154042419Y-55247510D01*
X153998225Y-55229204D01*
X153979919Y-55185010D01*
X153981585Y-55170799D01*
X153982881Y-55167342D01*
X153989500Y-55106415D01*
X153989499Y-54524586D01*
X153989317Y-54522904D01*
X153983304Y-54467555D01*
X153983304Y-54467554D01*
X153982881Y-54463658D01*
X153981506Y-54459990D01*
X153981505Y-54459986D01*
X153955244Y-54389934D01*
X153932783Y-54330018D01*
X153926578Y-54321738D01*
X153849857Y-54219371D01*
X153847189Y-54215811D01*
X153732982Y-54130217D01*
X153599342Y-54080119D01*
X153538415Y-54073500D01*
X153035745Y-54073500D01*
X152531586Y-54073501D01*
X152529913Y-54073683D01*
X152529908Y-54073683D01*
X152503614Y-54076539D01*
X152470658Y-54080119D01*
X152466990Y-54081494D01*
X152466986Y-54081495D01*
X152407520Y-54103788D01*
X152337018Y-54130217D01*
X152222811Y-54215811D01*
X152220143Y-54219371D01*
X152143423Y-54321738D01*
X152137217Y-54330018D01*
X152113605Y-54393005D01*
X152088496Y-54459986D01*
X152087119Y-54463658D01*
X152080500Y-54524585D01*
X152080501Y-55106414D01*
X152080683Y-55108087D01*
X152080683Y-55108092D01*
X152083539Y-55134386D01*
X152087119Y-55167342D01*
X152088494Y-55171010D01*
X152088495Y-55171014D01*
X152093742Y-55185010D01*
X152137217Y-55300982D01*
X152222811Y-55415189D01*
X152337018Y-55500783D01*
X152470658Y-55550881D01*
X152531585Y-55557500D01*
X152574944Y-55557500D01*
X153214417Y-55557499D01*
X153258611Y-55575805D01*
X153524611Y-55841806D01*
X153542917Y-55886000D01*
X153524611Y-55930194D01*
X153480417Y-55948500D01*
X152560126Y-55948501D01*
X152531586Y-55948501D01*
X152529913Y-55948683D01*
X152529908Y-55948683D01*
X152503614Y-55951539D01*
X152470658Y-55955119D01*
X152466990Y-55956494D01*
X152466986Y-55956495D01*
X152421268Y-55973634D01*
X152337018Y-56005217D01*
X152333454Y-56007888D01*
X152310867Y-56024816D01*
X152222811Y-56090811D01*
X152137217Y-56205018D01*
X152135654Y-56209187D01*
X152135652Y-56209191D01*
X152119205Y-56253065D01*
X152115518Y-56262903D01*
X152114189Y-56266447D01*
X152081535Y-56301404D01*
X152055589Y-56306388D01*
X152054624Y-56306180D01*
X152023383Y-56309878D01*
X152017559Y-56310567D01*
X152010213Y-56311000D01*
X152004976Y-56311000D01*
X152002435Y-56311423D01*
X152002423Y-56311424D01*
X151984458Y-56314415D01*
X151981550Y-56314829D01*
X151929159Y-56321030D01*
X151924502Y-56323266D01*
X151920721Y-56324365D01*
X151916974Y-56325647D01*
X151911874Y-56326496D01*
X151907328Y-56328949D01*
X151907325Y-56328950D01*
X151865439Y-56351551D01*
X151862814Y-56352888D01*
X151818814Y-56374016D01*
X151818812Y-56374017D01*
X151815268Y-56375719D01*
X151812259Y-56378248D01*
X151812257Y-56378250D01*
X151812087Y-56378393D01*
X151810992Y-56379314D01*
X151810794Y-56379512D01*
X151807714Y-56382112D01*
X151805233Y-56384037D01*
X151800686Y-56386490D01*
X151797178Y-56390285D01*
X151763252Y-56426986D01*
X151761551Y-56428755D01*
X151462112Y-56728194D01*
X151417918Y-56746500D01*
X151190948Y-56746501D01*
X151022632Y-56746501D01*
X150978438Y-56728195D01*
X150967777Y-56713954D01*
X150920851Y-56628016D01*
X150918977Y-56624584D01*
X150820450Y-56518758D01*
X150696099Y-56444976D01*
X150651905Y-56426670D01*
X150611208Y-56412313D01*
X150603518Y-56409600D01*
X150603515Y-56409599D01*
X150600620Y-56408578D01*
X150457500Y-56388000D01*
X147674743Y-56388000D01*
X147630549Y-56369694D01*
X147612243Y-56325500D01*
X147618496Y-56298250D01*
X147628496Y-56277610D01*
X147630437Y-56273604D01*
X147631176Y-56269213D01*
X147651638Y-56147593D01*
X147651638Y-56147588D01*
X147652037Y-56145219D01*
X147652174Y-56134000D01*
X147633718Y-56005125D01*
X147579832Y-55886610D01*
X147580735Y-55886199D01*
X147572500Y-55858041D01*
X147572500Y-55631999D01*
X147590806Y-55587805D01*
X147635000Y-55569499D01*
X147818066Y-55569499D01*
X147821075Y-55568900D01*
X147821080Y-55568900D01*
X147886263Y-55555935D01*
X147892301Y-55554734D01*
X147976484Y-55498484D01*
X148000739Y-55462184D01*
X148029314Y-55419420D01*
X148029315Y-55419418D01*
X148032734Y-55414301D01*
X148041930Y-55368070D01*
X148046901Y-55343080D01*
X148046901Y-55343077D01*
X148047500Y-55340067D01*
X148047499Y-54389934D01*
X148032734Y-54315699D01*
X147976484Y-54231516D01*
X147948987Y-54213143D01*
X147897420Y-54178686D01*
X147897418Y-54178685D01*
X147892301Y-54175266D01*
X147859247Y-54168691D01*
X147821080Y-54161099D01*
X147821077Y-54161099D01*
X147818067Y-54160500D01*
X147814996Y-54160500D01*
X147193001Y-54160501D01*
X146567934Y-54160501D01*
X146564925Y-54161100D01*
X146564920Y-54161100D01*
X146499737Y-54174065D01*
X146493699Y-54175266D01*
X146409516Y-54231516D01*
X146353266Y-54315699D01*
X146338500Y-54389933D01*
X146338501Y-55340066D01*
X146339100Y-55343075D01*
X146339100Y-55343080D01*
X146341784Y-55356572D01*
X146353266Y-55414301D01*
X146409516Y-55498484D01*
X146414633Y-55501903D01*
X146488580Y-55551314D01*
X146488582Y-55551315D01*
X146493699Y-55554734D01*
X146520284Y-55560022D01*
X146564920Y-55568901D01*
X146564923Y-55568901D01*
X146567933Y-55569500D01*
X146751000Y-55569500D01*
X146795194Y-55587806D01*
X146813500Y-55632000D01*
X146813500Y-55858843D01*
X146807575Y-55885404D01*
X146807202Y-55886199D01*
X146755782Y-55995720D01*
X146755781Y-55995723D01*
X146753890Y-55999751D01*
X146733860Y-56128390D01*
X146734437Y-56132803D01*
X146734437Y-56132804D01*
X146734909Y-56136414D01*
X146750741Y-56257481D01*
X146752534Y-56261556D01*
X146769594Y-56300328D01*
X146770637Y-56348153D01*
X146737559Y-56382707D01*
X146712387Y-56388000D01*
X146010781Y-56388000D01*
X146010352Y-56388013D01*
X146010320Y-56388013D01*
X145981553Y-56388854D01*
X145981524Y-56388855D01*
X145981089Y-56388868D01*
X145978919Y-56388995D01*
X145975087Y-56389219D01*
X145975077Y-56389220D01*
X145973796Y-56389295D01*
X145954091Y-56392097D01*
X145932800Y-56395125D01*
X145886468Y-56383224D01*
X145862123Y-56342048D01*
X145861500Y-56333248D01*
X145861499Y-55923278D01*
X145861499Y-55921586D01*
X145860386Y-55911334D01*
X145856662Y-55877056D01*
X145854881Y-55860658D01*
X145853506Y-55856990D01*
X145853505Y-55856986D01*
X145825988Y-55783583D01*
X145804783Y-55727018D01*
X145719189Y-55612811D01*
X145604982Y-55527217D01*
X145471342Y-55477119D01*
X145410415Y-55470500D01*
X144907745Y-55470500D01*
X144403586Y-55470501D01*
X144401913Y-55470683D01*
X144401908Y-55470683D01*
X144375614Y-55473539D01*
X144342658Y-55477119D01*
X144338990Y-55478494D01*
X144338986Y-55478495D01*
X144285665Y-55498484D01*
X144209018Y-55527217D01*
X144094811Y-55612811D01*
X144009217Y-55727018D01*
X144007654Y-55731187D01*
X144007653Y-55731189D01*
X143976070Y-55815439D01*
X143943416Y-55850395D01*
X143917547Y-55856000D01*
X143873757Y-55856000D01*
X143829563Y-55837694D01*
X143815234Y-55815439D01*
X143806191Y-55791316D01*
X143806191Y-55791315D01*
X143804628Y-55787147D01*
X143723330Y-55678670D01*
X143614853Y-55597372D01*
X143589334Y-55587805D01*
X143491587Y-55551161D01*
X143491586Y-55551161D01*
X143487919Y-55549786D01*
X143430053Y-55543500D01*
X143129446Y-55543500D01*
X142827948Y-55543501D01*
X142826276Y-55543683D01*
X142826269Y-55543683D01*
X142795854Y-55546987D01*
X142770081Y-55549786D01*
X142766412Y-55551162D01*
X142766410Y-55551162D01*
X142668664Y-55587806D01*
X142643147Y-55597372D01*
X142534670Y-55678670D01*
X142453372Y-55787147D01*
X142451809Y-55791315D01*
X142451809Y-55791316D01*
X142407161Y-55910413D01*
X142405786Y-55914081D01*
X142399500Y-55971947D01*
X142399501Y-56176060D01*
X142399501Y-56335929D01*
X142381195Y-56380123D01*
X142337001Y-56398429D01*
X142328106Y-56397793D01*
X142259994Y-56388000D01*
X140270500Y-56388000D01*
X140226306Y-56369694D01*
X140208000Y-56325500D01*
X140208000Y-54748385D01*
X141239500Y-54748385D01*
X141254512Y-54886573D01*
X141313730Y-55062535D01*
X141315470Y-55065430D01*
X141315470Y-55065431D01*
X141387320Y-55185010D01*
X141409351Y-55221677D01*
X141536916Y-55356572D01*
X141539715Y-55358474D01*
X141539716Y-55358475D01*
X141621862Y-55414301D01*
X141690471Y-55460928D01*
X141734389Y-55478494D01*
X141859709Y-55528619D01*
X141859713Y-55528620D01*
X141862853Y-55529876D01*
X141866188Y-55530428D01*
X141866191Y-55530429D01*
X142042678Y-55559646D01*
X142042679Y-55559646D01*
X142046019Y-55560199D01*
X142049400Y-55560022D01*
X142049404Y-55560022D01*
X142181213Y-55553114D01*
X142231424Y-55550482D01*
X142234682Y-55549585D01*
X142234686Y-55549584D01*
X142406180Y-55502346D01*
X142410417Y-55501179D01*
X142574648Y-55414590D01*
X142582137Y-55408262D01*
X142713867Y-55296941D01*
X142716454Y-55294755D01*
X142752576Y-55247510D01*
X142827167Y-55149948D01*
X142829219Y-55147264D01*
X142907682Y-54979000D01*
X142948182Y-54797812D01*
X142948500Y-54792124D01*
X142948500Y-53455615D01*
X142933488Y-53317427D01*
X142874270Y-53141465D01*
X142825201Y-53059799D01*
X142780393Y-52985225D01*
X142780391Y-52985223D01*
X142778649Y-52982323D01*
X142651084Y-52847428D01*
X142648284Y-52845525D01*
X142500325Y-52744972D01*
X142500324Y-52744971D01*
X142497529Y-52743072D01*
X142400850Y-52704403D01*
X142328291Y-52675381D01*
X142328287Y-52675380D01*
X142325147Y-52674124D01*
X142321812Y-52673572D01*
X142321809Y-52673571D01*
X142145322Y-52644354D01*
X142145321Y-52644354D01*
X142141981Y-52643801D01*
X142138600Y-52643978D01*
X142138596Y-52643978D01*
X142006787Y-52650886D01*
X141956576Y-52653518D01*
X141953318Y-52654415D01*
X141953314Y-52654416D01*
X141822100Y-52690559D01*
X141777583Y-52702821D01*
X141613352Y-52789410D01*
X141471546Y-52909245D01*
X141358781Y-53056736D01*
X141280318Y-53225000D01*
X141239818Y-53406188D01*
X141239500Y-53411876D01*
X141239500Y-54748385D01*
X140208000Y-54748385D01*
X140208000Y-46218933D01*
X150331500Y-46218933D01*
X150331501Y-49985066D01*
X150346266Y-50059301D01*
X150402516Y-50143484D01*
X150407633Y-50146903D01*
X150481580Y-50196314D01*
X150481582Y-50196315D01*
X150486699Y-50199734D01*
X150519753Y-50206309D01*
X150557920Y-50213901D01*
X150557923Y-50213901D01*
X150560933Y-50214500D01*
X152444000Y-50214500D01*
X154327066Y-50214499D01*
X154330075Y-50213900D01*
X154330080Y-50213900D01*
X154395263Y-50200935D01*
X154401301Y-50199734D01*
X154485484Y-50143484D01*
X154541734Y-50059301D01*
X154556500Y-49985067D01*
X154556499Y-46218934D01*
X154541734Y-46144699D01*
X154485484Y-46060516D01*
X154465452Y-46047131D01*
X154406420Y-46007686D01*
X154406418Y-46007685D01*
X154401301Y-46004266D01*
X154368247Y-45997691D01*
X154330080Y-45990099D01*
X154330077Y-45990099D01*
X154327067Y-45989500D01*
X154323996Y-45989500D01*
X152444001Y-45989501D01*
X150560934Y-45989501D01*
X150557925Y-45990100D01*
X150557920Y-45990100D01*
X150492737Y-46003065D01*
X150486699Y-46004266D01*
X150402516Y-46060516D01*
X150346266Y-46144699D01*
X150331500Y-46218933D01*
X140208000Y-46218933D01*
X140208000Y-44512500D01*
X140226306Y-44468306D01*
X140270500Y-44450000D01*
X156909500Y-44450000D01*
X156953694Y-44468306D01*
G37*
G04 #@! TD.AperFunction*
G04 #@! TA.AperFunction,Conductor*
G36*
X142304150Y-56914267D02*
G01*
X142418947Y-57028864D01*
X142422037Y-57030769D01*
X142422040Y-57030771D01*
X142458872Y-57053474D01*
X142563308Y-57117849D01*
X142724269Y-57171238D01*
X142775442Y-57176481D01*
X142822844Y-57181338D01*
X142822850Y-57181338D01*
X142824428Y-57181500D01*
X143433572Y-57181500D01*
X143435168Y-57181334D01*
X143435176Y-57181334D01*
X143531582Y-57171331D01*
X143531584Y-57171331D01*
X143534982Y-57170978D01*
X143695849Y-57117308D01*
X143840055Y-57028071D01*
X143842623Y-57025499D01*
X143855150Y-57012951D01*
X143899328Y-56994607D01*
X143943538Y-57012874D01*
X143981347Y-57050617D01*
X143984437Y-57052522D01*
X143984440Y-57052524D01*
X144056262Y-57096795D01*
X144084278Y-57135568D01*
X144076671Y-57182794D01*
X144056356Y-57203145D01*
X143980311Y-57250203D01*
X143856383Y-57374347D01*
X143854478Y-57377437D01*
X143854476Y-57377440D01*
X143826821Y-57422306D01*
X143764339Y-57523671D01*
X143709115Y-57690165D01*
X143698500Y-57793769D01*
X143698501Y-58381230D01*
X143698667Y-58382826D01*
X143698667Y-58382834D01*
X143704928Y-58443179D01*
X143709384Y-58486129D01*
X143710463Y-58489365D01*
X143710464Y-58489367D01*
X143763350Y-58647885D01*
X143764898Y-58652526D01*
X143766807Y-58655611D01*
X143766809Y-58655615D01*
X143800134Y-58709467D01*
X143857203Y-58801689D01*
X143981347Y-58925617D01*
X143984437Y-58927522D01*
X143984440Y-58927524D01*
X144061187Y-58974831D01*
X144130671Y-59017661D01*
X144297165Y-59072885D01*
X144359423Y-59079264D01*
X144399185Y-59083338D01*
X144399191Y-59083338D01*
X144400769Y-59083500D01*
X144904947Y-59083500D01*
X145413230Y-59083499D01*
X145414826Y-59083333D01*
X145414834Y-59083333D01*
X145514730Y-59072969D01*
X145514733Y-59072968D01*
X145518129Y-59072616D01*
X145521365Y-59071537D01*
X145521367Y-59071536D01*
X145681083Y-59018251D01*
X145681085Y-59018250D01*
X145684526Y-59017102D01*
X145687611Y-59015193D01*
X145687615Y-59015191D01*
X145830601Y-58926708D01*
X145833689Y-58924797D01*
X145957617Y-58800653D01*
X146049661Y-58651329D01*
X146104885Y-58484835D01*
X146112478Y-58410725D01*
X146115338Y-58382815D01*
X146115338Y-58382809D01*
X146115500Y-58381231D01*
X146115499Y-57793770D01*
X146106476Y-57706792D01*
X146104969Y-57692270D01*
X146104968Y-57692267D01*
X146104616Y-57688871D01*
X146101958Y-57680904D01*
X146050251Y-57525917D01*
X146050250Y-57525915D01*
X146049102Y-57522474D01*
X146047193Y-57519389D01*
X146047191Y-57519385D01*
X145958708Y-57376399D01*
X145956797Y-57373311D01*
X145832653Y-57249383D01*
X145826574Y-57245636D01*
X145777286Y-57215254D01*
X145749270Y-57176481D01*
X145747584Y-57161392D01*
X145747683Y-57152036D01*
X145747683Y-57152030D01*
X145747704Y-57150000D01*
X145747210Y-57145917D01*
X145760078Y-57099845D01*
X145776370Y-57085267D01*
X145830601Y-57051708D01*
X145830602Y-57051708D01*
X145833689Y-57049797D01*
X145957617Y-56925653D01*
X145959520Y-56922566D01*
X145961732Y-56919765D01*
X146003488Y-56896427D01*
X146010781Y-56896000D01*
X150457500Y-56896000D01*
X150501694Y-56914306D01*
X150520000Y-56958500D01*
X150520000Y-58039134D01*
X150526755Y-58101316D01*
X150577885Y-58237705D01*
X150665239Y-58354261D01*
X150668799Y-58356929D01*
X150736252Y-58407482D01*
X150781795Y-58441615D01*
X150785964Y-58443178D01*
X150785966Y-58443179D01*
X150891469Y-58482730D01*
X150918184Y-58492745D01*
X150980366Y-58499500D01*
X151481634Y-58499500D01*
X151543816Y-58492745D01*
X151570531Y-58482730D01*
X151676034Y-58443179D01*
X151676036Y-58443178D01*
X151680205Y-58441615D01*
X151725749Y-58407482D01*
X151793201Y-58356929D01*
X151796761Y-58354261D01*
X151884115Y-58237705D01*
X151935245Y-58101316D01*
X151942000Y-58039134D01*
X151942000Y-57706792D01*
X151960306Y-57662598D01*
X152065097Y-57557808D01*
X152109291Y-57539502D01*
X152142085Y-57548797D01*
X152258671Y-57620661D01*
X152425165Y-57675885D01*
X152487423Y-57682264D01*
X152527185Y-57686338D01*
X152527191Y-57686338D01*
X152528769Y-57686500D01*
X153032947Y-57686500D01*
X153541230Y-57686499D01*
X153542826Y-57686333D01*
X153542834Y-57686333D01*
X153642730Y-57675969D01*
X153642733Y-57675968D01*
X153646129Y-57675616D01*
X153649365Y-57674537D01*
X153649367Y-57674536D01*
X153809083Y-57621251D01*
X153809085Y-57621250D01*
X153812526Y-57620102D01*
X153815611Y-57618193D01*
X153815615Y-57618191D01*
X153958601Y-57529708D01*
X153961689Y-57527797D01*
X153967003Y-57522474D01*
X154066959Y-57422344D01*
X154111192Y-57404000D01*
X155244044Y-57404000D01*
X155288238Y-57422306D01*
X155306544Y-57466500D01*
X155297249Y-57499292D01*
X155290151Y-57510808D01*
X155236762Y-57671769D01*
X155226500Y-57771928D01*
X155226500Y-58306072D01*
X155226666Y-58307668D01*
X155226666Y-58307676D01*
X155236669Y-58404082D01*
X155237022Y-58407482D01*
X155290692Y-58568349D01*
X155292603Y-58571437D01*
X155343954Y-58654419D01*
X155379929Y-58712555D01*
X155499947Y-58832364D01*
X155503037Y-58834269D01*
X155503040Y-58834271D01*
X155585816Y-58885294D01*
X155644308Y-58921349D01*
X155805269Y-58974738D01*
X155865452Y-58980904D01*
X155903844Y-58984838D01*
X155903850Y-58984838D01*
X155905428Y-58985000D01*
X156514572Y-58985000D01*
X156516168Y-58984834D01*
X156516176Y-58984834D01*
X156612582Y-58974831D01*
X156612584Y-58974831D01*
X156615982Y-58974478D01*
X156776849Y-58920808D01*
X156876612Y-58859073D01*
X156923825Y-58851384D01*
X156962647Y-58879332D01*
X156972000Y-58912220D01*
X156972000Y-64961500D01*
X156953694Y-65005694D01*
X156909500Y-65024000D01*
X154609501Y-65024000D01*
X154576706Y-65014704D01*
X154562089Y-65005694D01*
X154446329Y-64934339D01*
X154279835Y-64879115D01*
X154217577Y-64872736D01*
X154177815Y-64868662D01*
X154177809Y-64868662D01*
X154176231Y-64868500D01*
X153672053Y-64868500D01*
X153163770Y-64868501D01*
X153162174Y-64868667D01*
X153162166Y-64868667D01*
X153062270Y-64879031D01*
X153062267Y-64879032D01*
X153058871Y-64879384D01*
X153055635Y-64880463D01*
X153055633Y-64880464D01*
X152895917Y-64933749D01*
X152895915Y-64933750D01*
X152892474Y-64934898D01*
X152889389Y-64936807D01*
X152889385Y-64936809D01*
X152763601Y-65014647D01*
X152730713Y-65024000D01*
X152577501Y-65024000D01*
X152544706Y-65014704D01*
X152530089Y-65005694D01*
X152414329Y-64934339D01*
X152247835Y-64879115D01*
X152185577Y-64872736D01*
X152145815Y-64868662D01*
X152145809Y-64868662D01*
X152144231Y-64868500D01*
X151640053Y-64868500D01*
X151131770Y-64868501D01*
X151130174Y-64868667D01*
X151130166Y-64868667D01*
X151030270Y-64879031D01*
X151030267Y-64879032D01*
X151026871Y-64879384D01*
X151023635Y-64880463D01*
X151023633Y-64880464D01*
X150863917Y-64933749D01*
X150863915Y-64933750D01*
X150860474Y-64934898D01*
X150857389Y-64936807D01*
X150857385Y-64936809D01*
X150731601Y-65014647D01*
X150698713Y-65024000D01*
X144780000Y-65024000D01*
X144780000Y-65068024D01*
X144761694Y-65112218D01*
X144737284Y-65127310D01*
X144721151Y-65132692D01*
X144576945Y-65221929D01*
X144457136Y-65341947D01*
X144455231Y-65345037D01*
X144455229Y-65345040D01*
X144415486Y-65409516D01*
X144368151Y-65486308D01*
X144314762Y-65647269D01*
X144304500Y-65747428D01*
X144304500Y-66248143D01*
X144283086Y-66295240D01*
X144249615Y-66324439D01*
X144151010Y-66464739D01*
X144149641Y-66468250D01*
X144149640Y-66468252D01*
X144122334Y-66538290D01*
X144088718Y-66624509D01*
X144066335Y-66794526D01*
X144085153Y-66964975D01*
X144086447Y-66968512D01*
X144086448Y-66968515D01*
X144093553Y-66987929D01*
X144144085Y-67126015D01*
X144239730Y-67268349D01*
X144242517Y-67270885D01*
X144284063Y-67308689D01*
X144304500Y-67354916D01*
X144304500Y-67856572D01*
X144315022Y-67957982D01*
X144368692Y-68118849D01*
X144457929Y-68263055D01*
X144577947Y-68382864D01*
X144687482Y-68450381D01*
X144715496Y-68489152D01*
X144716649Y-68495418D01*
X144728185Y-68583045D01*
X144730723Y-68602322D01*
X144732290Y-68606105D01*
X144775243Y-68709805D01*
X144780000Y-68733722D01*
X144780000Y-70041500D01*
X144761694Y-70085694D01*
X144717500Y-70104000D01*
X144047491Y-70104000D01*
X144003297Y-70085694D01*
X143996925Y-70078233D01*
X143996678Y-70077893D01*
X143995040Y-70075056D01*
X143949221Y-70024169D01*
X143869443Y-69935566D01*
X143869442Y-69935565D01*
X143867253Y-69933134D01*
X143712752Y-69820882D01*
X143538288Y-69743206D01*
X143535081Y-69742524D01*
X143535080Y-69742524D01*
X143354697Y-69704182D01*
X143354694Y-69704182D01*
X143351487Y-69703500D01*
X143160513Y-69703500D01*
X143157306Y-69704182D01*
X143157303Y-69704182D01*
X142976920Y-69742524D01*
X142976919Y-69742524D01*
X142973712Y-69743206D01*
X142799248Y-69820882D01*
X142644747Y-69933134D01*
X142642558Y-69935565D01*
X142642557Y-69935566D01*
X142562779Y-70024169D01*
X142516960Y-70075056D01*
X142515322Y-70077893D01*
X142515075Y-70078233D01*
X142474290Y-70103230D01*
X142464509Y-70104000D01*
X141413562Y-70104000D01*
X141369368Y-70085694D01*
X141360415Y-70074388D01*
X141293982Y-69967033D01*
X141293982Y-69967032D01*
X141292071Y-69963945D01*
X141172053Y-69844136D01*
X141168963Y-69842231D01*
X141168960Y-69842229D01*
X141038430Y-69761770D01*
X141027692Y-69755151D01*
X140866731Y-69701762D01*
X140806548Y-69695596D01*
X140768156Y-69691662D01*
X140768150Y-69691662D01*
X140766572Y-69691500D01*
X140157428Y-69691500D01*
X140155832Y-69691666D01*
X140155824Y-69691666D01*
X140059418Y-69701669D01*
X140059416Y-69701669D01*
X140056018Y-69702022D01*
X139895151Y-69755692D01*
X139750945Y-69844929D01*
X139748382Y-69847496D01*
X139748380Y-69847498D01*
X139735245Y-69860656D01*
X139691013Y-69879000D01*
X139611555Y-69879000D01*
X139567361Y-69860694D01*
X139552114Y-69835814D01*
X139534928Y-69782921D01*
X139518527Y-69732444D01*
X139500613Y-69701415D01*
X139424676Y-69569890D01*
X139423040Y-69567056D01*
X139295253Y-69425134D01*
X139140752Y-69312882D01*
X138966288Y-69235206D01*
X138963081Y-69234524D01*
X138963080Y-69234524D01*
X138782697Y-69196182D01*
X138782694Y-69196182D01*
X138779487Y-69195500D01*
X138588513Y-69195500D01*
X138585306Y-69196182D01*
X138585303Y-69196182D01*
X138404920Y-69234524D01*
X138404919Y-69234524D01*
X138401712Y-69235206D01*
X138227248Y-69312882D01*
X138072747Y-69425134D01*
X137944960Y-69567056D01*
X137943324Y-69569890D01*
X137867388Y-69701415D01*
X137849473Y-69732444D01*
X137790458Y-69914072D01*
X137790116Y-69917328D01*
X137776378Y-70048033D01*
X137753552Y-70090072D01*
X137714220Y-70104000D01*
X136714500Y-70104000D01*
X136670306Y-70085694D01*
X136652000Y-70041500D01*
X136652000Y-56958500D01*
X136670306Y-56914306D01*
X136714500Y-56896000D01*
X142259994Y-56896000D01*
X142304150Y-56914267D01*
G37*
G04 #@! TD.AperFunction*
G04 #@! TA.AperFunction,Conductor*
G36*
X194167690Y-70122306D02*
G01*
X194185996Y-70166500D01*
X194182019Y-70188439D01*
X194159161Y-70249413D01*
X194157786Y-70253081D01*
X194151500Y-70310947D01*
X194151501Y-70913052D01*
X194151683Y-70914724D01*
X194151683Y-70914731D01*
X194154987Y-70945146D01*
X194157786Y-70970919D01*
X194205372Y-71097853D01*
X194286670Y-71206330D01*
X194395147Y-71287628D01*
X194522081Y-71335214D01*
X194574572Y-71340916D01*
X194616531Y-71363887D01*
X194629957Y-71409799D01*
X194606986Y-71451758D01*
X194589762Y-71461573D01*
X194512189Y-71490653D01*
X194512187Y-71490654D01*
X194508018Y-71492217D01*
X194393811Y-71577811D01*
X194308217Y-71692018D01*
X194262003Y-71815297D01*
X194259496Y-71821986D01*
X194258119Y-71825658D01*
X194251500Y-71886585D01*
X194251501Y-72893414D01*
X194251683Y-72895087D01*
X194251683Y-72895092D01*
X194254539Y-72921386D01*
X194258119Y-72954342D01*
X194259494Y-72958010D01*
X194259495Y-72958014D01*
X194281788Y-73017480D01*
X194308217Y-73087982D01*
X194393811Y-73202189D01*
X194508018Y-73287783D01*
X194512187Y-73289346D01*
X194512189Y-73289347D01*
X194550439Y-73303686D01*
X194585395Y-73336341D01*
X194591000Y-73362209D01*
X194591000Y-73423243D01*
X194572694Y-73467437D01*
X194550440Y-73481765D01*
X194522147Y-73492372D01*
X194413670Y-73573670D01*
X194332372Y-73682147D01*
X194284786Y-73809081D01*
X194278500Y-73866947D01*
X194278501Y-74469052D01*
X194278683Y-74470724D01*
X194278683Y-74470731D01*
X194281987Y-74501146D01*
X194284786Y-74526919D01*
X194332372Y-74653853D01*
X194413670Y-74762330D01*
X194522147Y-74843628D01*
X194526315Y-74845191D01*
X194526316Y-74845191D01*
X194645413Y-74889839D01*
X194649081Y-74891214D01*
X194706947Y-74897500D01*
X194970110Y-74897500D01*
X195234052Y-74897499D01*
X195235724Y-74897317D01*
X195235731Y-74897317D01*
X195266146Y-74894013D01*
X195291919Y-74891214D01*
X195295588Y-74889838D01*
X195295590Y-74889838D01*
X195414684Y-74845191D01*
X195414685Y-74845191D01*
X195418853Y-74843628D01*
X195527330Y-74762330D01*
X195608628Y-74653853D01*
X195656214Y-74526919D01*
X195662500Y-74469053D01*
X195662499Y-73866948D01*
X195662317Y-73865265D01*
X195656637Y-73812978D01*
X195656637Y-73812977D01*
X195656214Y-73809081D01*
X195608628Y-73682147D01*
X195527330Y-73573670D01*
X195418853Y-73492372D01*
X195390561Y-73481766D01*
X195355605Y-73449112D01*
X195350000Y-73423243D01*
X195350000Y-73379453D01*
X195368306Y-73335259D01*
X195390561Y-73320930D01*
X195474811Y-73289347D01*
X195474813Y-73289346D01*
X195478982Y-73287783D01*
X195593189Y-73202189D01*
X195678783Y-73087982D01*
X195724997Y-72964703D01*
X195727506Y-72958010D01*
X195728881Y-72954342D01*
X195735500Y-72893415D01*
X195735499Y-71886586D01*
X195735317Y-71884904D01*
X195729304Y-71829555D01*
X195729304Y-71829554D01*
X195728881Y-71825658D01*
X195727506Y-71821990D01*
X195727505Y-71821986D01*
X195705212Y-71762520D01*
X195678783Y-71692018D01*
X195593189Y-71577811D01*
X195478982Y-71492217D01*
X195345342Y-71442119D01*
X195284415Y-71435500D01*
X195242173Y-71435500D01*
X195197979Y-71417194D01*
X195179673Y-71373000D01*
X195197979Y-71328806D01*
X195220234Y-71314477D01*
X195287684Y-71289191D01*
X195287686Y-71289190D01*
X195291853Y-71287628D01*
X195400330Y-71206330D01*
X195481628Y-71097853D01*
X195529214Y-70970919D01*
X195535500Y-70913053D01*
X195535499Y-70310948D01*
X195535317Y-70309265D01*
X195529637Y-70256978D01*
X195529637Y-70256977D01*
X195529214Y-70253081D01*
X195527839Y-70249413D01*
X195527838Y-70249409D01*
X195504981Y-70188439D01*
X195506609Y-70140631D01*
X195541565Y-70107977D01*
X195563504Y-70104000D01*
X206947500Y-70104000D01*
X206991694Y-70122306D01*
X207010000Y-70166500D01*
X207010000Y-82233500D01*
X206991694Y-82277694D01*
X206947500Y-82296000D01*
X205608764Y-82296000D01*
X205564570Y-82277694D01*
X205546264Y-82233500D01*
X205564570Y-82189306D01*
X205588984Y-82174213D01*
X205669787Y-82147255D01*
X205669794Y-82147252D01*
X205673237Y-82146103D01*
X205676322Y-82144194D01*
X205676326Y-82144192D01*
X205759172Y-82092925D01*
X205822846Y-82053522D01*
X205825413Y-82050951D01*
X205825415Y-82050949D01*
X205943541Y-81932615D01*
X205947144Y-81929006D01*
X205967126Y-81896590D01*
X206037559Y-81782327D01*
X206037560Y-81782325D01*
X206039464Y-81779236D01*
X206094853Y-81612245D01*
X206105500Y-81508328D01*
X206105500Y-80408070D01*
X206105499Y-78508337D01*
X206105500Y-78508328D01*
X206105500Y-77408072D01*
X206094583Y-77302857D01*
X206038903Y-77135963D01*
X206036994Y-77132878D01*
X206036992Y-77132874D01*
X205948235Y-76989446D01*
X205946322Y-76986354D01*
X205943751Y-76983787D01*
X205943749Y-76983785D01*
X205845792Y-76886000D01*
X205821806Y-76862056D01*
X205694474Y-76783567D01*
X205675127Y-76771641D01*
X205675125Y-76771640D01*
X205672036Y-76769736D01*
X205505045Y-76714347D01*
X205442638Y-76707953D01*
X205402712Y-76703862D01*
X205402706Y-76703862D01*
X205401128Y-76703700D01*
X204300872Y-76703700D01*
X204299276Y-76703866D01*
X204299268Y-76703866D01*
X204199056Y-76714264D01*
X204199053Y-76714265D01*
X204195657Y-76714617D01*
X204192421Y-76715696D01*
X204192419Y-76715697D01*
X204032206Y-76769148D01*
X204032204Y-76769149D01*
X204028763Y-76770297D01*
X204025678Y-76772206D01*
X204025674Y-76772208D01*
X203942828Y-76823475D01*
X203879154Y-76862878D01*
X203876587Y-76865449D01*
X203876585Y-76865451D01*
X203856072Y-76886000D01*
X203754856Y-76987394D01*
X203662536Y-77137164D01*
X203607147Y-77304155D01*
X203596500Y-77408072D01*
X203596500Y-78303133D01*
X203596501Y-80408064D01*
X203596500Y-80408072D01*
X203596500Y-81508328D01*
X203607417Y-81613543D01*
X203608496Y-81616779D01*
X203608497Y-81616781D01*
X203631858Y-81686801D01*
X203663097Y-81780437D01*
X203665006Y-81783522D01*
X203665008Y-81783526D01*
X203696894Y-81835052D01*
X203755678Y-81930046D01*
X203758249Y-81932613D01*
X203758251Y-81932615D01*
X203818145Y-81992403D01*
X203880194Y-82054344D01*
X203883286Y-82056250D01*
X204026873Y-82144759D01*
X204026875Y-82144760D01*
X204029964Y-82146664D01*
X204093823Y-82167845D01*
X204112915Y-82174178D01*
X204149099Y-82205466D01*
X204152561Y-82253176D01*
X204121273Y-82289360D01*
X204093239Y-82296000D01*
X195999215Y-82296000D01*
X195955021Y-82277694D01*
X195936715Y-82233500D01*
X195955021Y-82189306D01*
X195961733Y-82183487D01*
X195974108Y-82174213D01*
X196035330Y-82128330D01*
X196116628Y-82019853D01*
X196149333Y-81932615D01*
X196162839Y-81896587D01*
X196162839Y-81896586D01*
X196164214Y-81892919D01*
X196170500Y-81835053D01*
X196170499Y-81232948D01*
X196170317Y-81231265D01*
X196164637Y-81178978D01*
X196164637Y-81178977D01*
X196164214Y-81175081D01*
X196156499Y-81154500D01*
X196118191Y-81052316D01*
X196118191Y-81052315D01*
X196116628Y-81048147D01*
X196035330Y-80939670D01*
X195926853Y-80858372D01*
X195836951Y-80824669D01*
X195801996Y-80792014D01*
X195800368Y-80744206D01*
X195833023Y-80709251D01*
X195845763Y-80705762D01*
X195845632Y-80705211D01*
X195849446Y-80704304D01*
X195853342Y-80703881D01*
X195857010Y-80702506D01*
X195857014Y-80702505D01*
X195916480Y-80680212D01*
X195986982Y-80653783D01*
X196101189Y-80568189D01*
X196186783Y-80453982D01*
X196232997Y-80330703D01*
X196235506Y-80324010D01*
X196236881Y-80320342D01*
X196243500Y-80259415D01*
X196243499Y-79252586D01*
X196243317Y-79250904D01*
X196237304Y-79195555D01*
X196237304Y-79195554D01*
X196236881Y-79191658D01*
X196235506Y-79187990D01*
X196235505Y-79187986D01*
X196188977Y-79063871D01*
X196186783Y-79058018D01*
X196101189Y-78943811D01*
X195986982Y-78858217D01*
X195853342Y-78808119D01*
X195792415Y-78801500D01*
X195501931Y-78801500D01*
X195210586Y-78801501D01*
X195208913Y-78801683D01*
X195208908Y-78801683D01*
X195182614Y-78804539D01*
X195149658Y-78808119D01*
X195145990Y-78809494D01*
X195145986Y-78809495D01*
X195086520Y-78831788D01*
X195016018Y-78858217D01*
X194901811Y-78943811D01*
X194816217Y-79058018D01*
X194814023Y-79063871D01*
X194767496Y-79187986D01*
X194766119Y-79191658D01*
X194759500Y-79252585D01*
X194759501Y-80259414D01*
X194759683Y-80261087D01*
X194759683Y-80261092D01*
X194762539Y-80287386D01*
X194766119Y-80320342D01*
X194767494Y-80324010D01*
X194767495Y-80324014D01*
X194789788Y-80383480D01*
X194816217Y-80453982D01*
X194901811Y-80568189D01*
X195016018Y-80653783D01*
X195090377Y-80681658D01*
X195139844Y-80700202D01*
X195174800Y-80732856D01*
X195176428Y-80780664D01*
X195139844Y-80817248D01*
X195045536Y-80852603D01*
X195030147Y-80858372D01*
X194921670Y-80939670D01*
X194840372Y-81048147D01*
X194838809Y-81052315D01*
X194838809Y-81052316D01*
X194794692Y-81169996D01*
X194792786Y-81175081D01*
X194786500Y-81232947D01*
X194786501Y-81835052D01*
X194786683Y-81836724D01*
X194786683Y-81836731D01*
X194789987Y-81867146D01*
X194792786Y-81892919D01*
X194794161Y-81896587D01*
X194794162Y-81896590D01*
X194838809Y-82015684D01*
X194840372Y-82019853D01*
X194921670Y-82128330D01*
X194982893Y-82174213D01*
X194995267Y-82183487D01*
X195019654Y-82224639D01*
X195007798Y-82270982D01*
X194966646Y-82295369D01*
X194957785Y-82296000D01*
X194424215Y-82296000D01*
X194380021Y-82277694D01*
X194361715Y-82233500D01*
X194380021Y-82189306D01*
X194386733Y-82183487D01*
X194399108Y-82174213D01*
X194460330Y-82128330D01*
X194541628Y-82019853D01*
X194574333Y-81932615D01*
X194587839Y-81896587D01*
X194587839Y-81896586D01*
X194589214Y-81892919D01*
X194595500Y-81835053D01*
X194595499Y-81232948D01*
X194595317Y-81231265D01*
X194589637Y-81178978D01*
X194589637Y-81178977D01*
X194589214Y-81175081D01*
X194581499Y-81154500D01*
X194543191Y-81052316D01*
X194543191Y-81052315D01*
X194541628Y-81048147D01*
X194460330Y-80939670D01*
X194351853Y-80858372D01*
X194347684Y-80856809D01*
X194343777Y-80854670D01*
X194344909Y-80852603D01*
X194315611Y-80825247D01*
X194310000Y-80799365D01*
X194310000Y-80470068D01*
X194313977Y-80448129D01*
X194360506Y-80324010D01*
X194361881Y-80320342D01*
X194368500Y-80259415D01*
X194368499Y-79252586D01*
X194368317Y-79250904D01*
X194362304Y-79195555D01*
X194362304Y-79195554D01*
X194361881Y-79191658D01*
X194360506Y-79187990D01*
X194360505Y-79187986D01*
X194313977Y-79063871D01*
X194310000Y-79041932D01*
X194310000Y-78232000D01*
X193610500Y-78232000D01*
X193566306Y-78213694D01*
X193548000Y-78169500D01*
X193548000Y-75531582D01*
X193566306Y-75487388D01*
X193630496Y-75423198D01*
X193640784Y-75414889D01*
X193654440Y-75406071D01*
X193677549Y-75376757D01*
X193682438Y-75371256D01*
X193686138Y-75367556D01*
X193698233Y-75350631D01*
X193699994Y-75348286D01*
X193729457Y-75310911D01*
X193732656Y-75306853D01*
X193734369Y-75301976D01*
X193736274Y-75298510D01*
X193738008Y-75294971D01*
X193741013Y-75290766D01*
X193756125Y-75240237D01*
X193757034Y-75237438D01*
X193773216Y-75191356D01*
X193774518Y-75187649D01*
X193775000Y-75182084D01*
X193775000Y-75181807D01*
X193775340Y-75177781D01*
X193775733Y-75174672D01*
X193777213Y-75169722D01*
X193775048Y-75114617D01*
X193775000Y-75112164D01*
X193775000Y-74912757D01*
X193793306Y-74868563D01*
X193815560Y-74854235D01*
X193843853Y-74843628D01*
X193952330Y-74762330D01*
X194033628Y-74653853D01*
X194081214Y-74526919D01*
X194087500Y-74469053D01*
X194087499Y-73866948D01*
X194087317Y-73865265D01*
X194081637Y-73812978D01*
X194081637Y-73812977D01*
X194081214Y-73809081D01*
X194033628Y-73682147D01*
X193952330Y-73573670D01*
X193843853Y-73492372D01*
X193775001Y-73466560D01*
X193720587Y-73446161D01*
X193720586Y-73446161D01*
X193716919Y-73444786D01*
X193659053Y-73438500D01*
X193610500Y-73438500D01*
X193566306Y-73420194D01*
X193548000Y-73376000D01*
X193548000Y-73352087D01*
X193566306Y-73307893D01*
X193588561Y-73293564D01*
X193599811Y-73289347D01*
X193599813Y-73289346D01*
X193603982Y-73287783D01*
X193718189Y-73202189D01*
X193803783Y-73087982D01*
X193849997Y-72964703D01*
X193852506Y-72958010D01*
X193853881Y-72954342D01*
X193860500Y-72893415D01*
X193860499Y-71886586D01*
X193860317Y-71884904D01*
X193854304Y-71829555D01*
X193854304Y-71829554D01*
X193853881Y-71825658D01*
X193852506Y-71821990D01*
X193852505Y-71821986D01*
X193830212Y-71762520D01*
X193803783Y-71692018D01*
X193718189Y-71577811D01*
X193603982Y-71492217D01*
X193604110Y-71492046D01*
X193575514Y-71456486D01*
X193573000Y-71438939D01*
X193573000Y-71384874D01*
X193591306Y-71340680D01*
X193613559Y-71326352D01*
X193716853Y-71287628D01*
X193825330Y-71206330D01*
X193906628Y-71097853D01*
X193954214Y-70970919D01*
X193960500Y-70913053D01*
X193960499Y-70310948D01*
X193960317Y-70309265D01*
X193954637Y-70256978D01*
X193954637Y-70256977D01*
X193954214Y-70253081D01*
X193952839Y-70249413D01*
X193952838Y-70249409D01*
X193929981Y-70188439D01*
X193931609Y-70140631D01*
X193966565Y-70107977D01*
X193988504Y-70104000D01*
X194123496Y-70104000D01*
X194167690Y-70122306D01*
G37*
G04 #@! TD.AperFunction*
G04 #@! TA.AperFunction,Conductor*
G36*
X155429694Y-77742306D02*
G01*
X155448000Y-77786500D01*
X155448000Y-80264959D01*
X155444023Y-80286898D01*
X155426119Y-80334658D01*
X155419500Y-80395585D01*
X155419500Y-80711000D01*
X155401194Y-80755194D01*
X155357000Y-80773500D01*
X155305815Y-80773500D01*
X155261621Y-80755194D01*
X155247292Y-80732939D01*
X155224191Y-80671316D01*
X155224191Y-80671315D01*
X155222628Y-80667147D01*
X155141330Y-80558670D01*
X155032853Y-80477372D01*
X154909590Y-80431162D01*
X154909587Y-80431161D01*
X154909586Y-80431161D01*
X154905919Y-80429786D01*
X154848053Y-80423500D01*
X154584890Y-80423500D01*
X154320948Y-80423501D01*
X154319276Y-80423683D01*
X154319269Y-80423683D01*
X154288854Y-80426987D01*
X154263081Y-80429786D01*
X154259412Y-80431162D01*
X154259410Y-80431162D01*
X154140316Y-80475809D01*
X154136147Y-80477372D01*
X154027670Y-80558670D01*
X153946372Y-80667147D01*
X153944809Y-80671315D01*
X153944809Y-80671316D01*
X153900161Y-80790413D01*
X153898786Y-80794081D01*
X153892500Y-80851947D01*
X153892501Y-81454052D01*
X153898786Y-81511919D01*
X153900162Y-81515588D01*
X153900162Y-81515590D01*
X153908603Y-81538105D01*
X153946372Y-81638853D01*
X154027670Y-81747330D01*
X154136147Y-81828628D01*
X154140315Y-81830191D01*
X154140316Y-81830191D01*
X154259413Y-81874839D01*
X154263081Y-81876214D01*
X154320947Y-81882500D01*
X154584110Y-81882500D01*
X154848052Y-81882499D01*
X154849724Y-81882317D01*
X154849731Y-81882317D01*
X154880146Y-81879013D01*
X154905919Y-81876214D01*
X154909588Y-81874838D01*
X154909590Y-81874838D01*
X155028684Y-81830191D01*
X155028685Y-81830191D01*
X155032853Y-81828628D01*
X155141330Y-81747330D01*
X155222628Y-81638853D01*
X155247293Y-81573060D01*
X155279946Y-81538105D01*
X155305815Y-81532500D01*
X155385500Y-81532500D01*
X155429694Y-81550806D01*
X155448000Y-81595000D01*
X155448000Y-82233500D01*
X155429694Y-82277694D01*
X155385500Y-82296000D01*
X142810500Y-82296000D01*
X142766306Y-82277694D01*
X142748000Y-82233500D01*
X142748000Y-77786500D01*
X142766306Y-77742306D01*
X142810500Y-77724000D01*
X155385500Y-77724000D01*
X155429694Y-77742306D01*
G37*
G04 #@! TD.AperFunction*
G04 #@! TA.AperFunction,Conductor*
G36*
X192592690Y-70122306D02*
G01*
X192610996Y-70166500D01*
X192607019Y-70188439D01*
X192582786Y-70253081D01*
X192576500Y-70310947D01*
X192576501Y-70913052D01*
X192582786Y-70970919D01*
X192584162Y-70974588D01*
X192584162Y-70974590D01*
X192626829Y-71088401D01*
X192630372Y-71097853D01*
X192633042Y-71101416D01*
X192633045Y-71101421D01*
X192651513Y-71126063D01*
X192664000Y-71163545D01*
X192664000Y-71438939D01*
X192645694Y-71483133D01*
X192634129Y-71491801D01*
X192633018Y-71492217D01*
X192629450Y-71494891D01*
X192580240Y-71531772D01*
X192518811Y-71577811D01*
X192516143Y-71581371D01*
X192440533Y-71682257D01*
X192433217Y-71692018D01*
X192383119Y-71825658D01*
X192376500Y-71886585D01*
X192376501Y-72893414D01*
X192376683Y-72895087D01*
X192376683Y-72895092D01*
X192379539Y-72921386D01*
X192383119Y-72954342D01*
X192384494Y-72958010D01*
X192384495Y-72958014D01*
X192390287Y-72973463D01*
X192433217Y-73087982D01*
X192518811Y-73202189D01*
X192633018Y-73287783D01*
X192766658Y-73337881D01*
X192827585Y-73344500D01*
X192840578Y-73344500D01*
X193236442Y-73344499D01*
X193280636Y-73362805D01*
X193297741Y-73394805D01*
X193313335Y-73473203D01*
X193331641Y-73517397D01*
X193386700Y-73599798D01*
X193391814Y-73603215D01*
X193391815Y-73603216D01*
X193413610Y-73617779D01*
X193469103Y-73654859D01*
X193509418Y-73671558D01*
X193543242Y-73705382D01*
X193548000Y-73729300D01*
X193548000Y-74784618D01*
X193543242Y-74808536D01*
X193540335Y-74815554D01*
X193521000Y-74912757D01*
X193521000Y-75112164D01*
X193521049Y-75117133D01*
X193521097Y-75119586D01*
X193521244Y-75124589D01*
X193521250Y-75124743D01*
X193521251Y-75124771D01*
X193521401Y-75128591D01*
X193517923Y-75151738D01*
X193517381Y-75153282D01*
X193515454Y-75158983D01*
X193514545Y-75161782D01*
X193512775Y-75167457D01*
X193512321Y-75168975D01*
X193501511Y-75189784D01*
X193500521Y-75191040D01*
X193496888Y-75195761D01*
X193495127Y-75198106D01*
X193493211Y-75200721D01*
X193491691Y-75202795D01*
X193491654Y-75202846D01*
X193491578Y-75202950D01*
X193491458Y-75203118D01*
X193491450Y-75203129D01*
X193490820Y-75204011D01*
X193487675Y-75208009D01*
X193487694Y-75208025D01*
X193481224Y-75215751D01*
X193472584Y-75224239D01*
X193471561Y-75225065D01*
X193471536Y-75225086D01*
X193470905Y-75225596D01*
X193470288Y-75226151D01*
X193451503Y-75243042D01*
X193451489Y-75243055D01*
X193450891Y-75243593D01*
X193386701Y-75307783D01*
X193331641Y-75390185D01*
X193313335Y-75434379D01*
X193294000Y-75531582D01*
X193294000Y-77374126D01*
X193275694Y-77418320D01*
X193231500Y-77436626D01*
X193215370Y-77433418D01*
X193215301Y-77433766D01*
X193144080Y-77419599D01*
X193144077Y-77419599D01*
X193141067Y-77419000D01*
X193137996Y-77419000D01*
X192621001Y-77419001D01*
X192100934Y-77419001D01*
X192097925Y-77419600D01*
X192097920Y-77419600D01*
X192032737Y-77432565D01*
X192026699Y-77433766D01*
X191942516Y-77490016D01*
X191886266Y-77574199D01*
X191871500Y-77648433D01*
X191871501Y-78103566D01*
X191886266Y-78177801D01*
X191942516Y-78261984D01*
X191947633Y-78265403D01*
X192021580Y-78314814D01*
X192021582Y-78314815D01*
X192026699Y-78318234D01*
X192059753Y-78324809D01*
X192097920Y-78332401D01*
X192097923Y-78332401D01*
X192100933Y-78333000D01*
X192515418Y-78333000D01*
X192559612Y-78351306D01*
X193047462Y-78839156D01*
X193065768Y-78883350D01*
X193047462Y-78927544D01*
X193040752Y-78933362D01*
X193030373Y-78941141D01*
X193030371Y-78941143D01*
X193026811Y-78943811D01*
X192941217Y-79058018D01*
X192891119Y-79191658D01*
X192884500Y-79252585D01*
X192884501Y-80259414D01*
X192884683Y-80261087D01*
X192884683Y-80261092D01*
X192887539Y-80287386D01*
X192891119Y-80320342D01*
X192892494Y-80324010D01*
X192892495Y-80324014D01*
X192914788Y-80383480D01*
X192941217Y-80453982D01*
X193026811Y-80568189D01*
X193141018Y-80653783D01*
X193274658Y-80703881D01*
X193335585Y-80710500D01*
X193485500Y-80710500D01*
X193529694Y-80728806D01*
X193548000Y-80773000D01*
X193548000Y-82233500D01*
X193529694Y-82277694D01*
X193485500Y-82296000D01*
X176338500Y-82296000D01*
X176294306Y-82277694D01*
X176276000Y-82233500D01*
X176276000Y-73141399D01*
X176532800Y-73141399D01*
X176533141Y-73144876D01*
X176546611Y-73282250D01*
X176549318Y-73309862D01*
X176550420Y-73313174D01*
X176550420Y-73313175D01*
X176560780Y-73344317D01*
X176602748Y-73470479D01*
X176604560Y-73473471D01*
X176683137Y-73603216D01*
X176690435Y-73615267D01*
X176808021Y-73737031D01*
X176810940Y-73738941D01*
X176810941Y-73738942D01*
X176838207Y-73756784D01*
X176949660Y-73829717D01*
X177108315Y-73888720D01*
X177111770Y-73889181D01*
X177111774Y-73889182D01*
X177223692Y-73904114D01*
X177276099Y-73911107D01*
X177279572Y-73910791D01*
X177279575Y-73910791D01*
X177360386Y-73903437D01*
X177444673Y-73895766D01*
X177605659Y-73843458D01*
X177678357Y-73800121D01*
X177748054Y-73758574D01*
X177748057Y-73758572D01*
X177751056Y-73756784D01*
X177873638Y-73640052D01*
X177967311Y-73499063D01*
X178027420Y-73340824D01*
X178050978Y-73173200D01*
X178051274Y-73152000D01*
X178044493Y-73091546D01*
X178032796Y-72987257D01*
X178032795Y-72987253D01*
X178032406Y-72983784D01*
X177976738Y-72823929D01*
X177887038Y-72680379D01*
X177767764Y-72560269D01*
X177764812Y-72558396D01*
X177764810Y-72558394D01*
X177696304Y-72514919D01*
X177624844Y-72469569D01*
X177465381Y-72412787D01*
X177386159Y-72403340D01*
X177300768Y-72393158D01*
X177300764Y-72393158D01*
X177297301Y-72392745D01*
X177213129Y-72401591D01*
X177132426Y-72410073D01*
X177132422Y-72410074D01*
X177128957Y-72410438D01*
X176968717Y-72464988D01*
X176824544Y-72553684D01*
X176822045Y-72556131D01*
X176822044Y-72556132D01*
X176815287Y-72562749D01*
X176703605Y-72672117D01*
X176611909Y-72814400D01*
X176588551Y-72878577D01*
X176557182Y-72964763D01*
X176554015Y-72973463D01*
X176532800Y-73141399D01*
X176276000Y-73141399D01*
X176276000Y-70166500D01*
X176294306Y-70122306D01*
X176338500Y-70104000D01*
X192548496Y-70104000D01*
X192592690Y-70122306D01*
G37*
G04 #@! TD.AperFunction*
M02*
